<svg width="547" height="387" viewBox="0 0 547 387" fill="none" xmlns="http://www.w3.org/2000/svg">
<path d="M462.975 374.641C510.456 351.982 535.162 301.644 542.497 252.85C548.158 215.386 548.416 178.952 532.589 143.934C519.978 115.997 490.64 91.9221 458.857 84.3263C435.825 78.7903 414.722 78.9191 391.045 76.9879C337.259 72.7394 293.767 35.2754 242.425 19.5688C178.602 0.257405 103.97 18.1526 56.7461 62.1825C9.5222 106.212 -8.87842 173.802 7.59206 233.796C24.0625 293.79 77.2056 350.823 139.613 373.611" fill="#F3F5F4"/>
<path d="M522.938 185.905C519.85 182.558 514.574 183.202 510.199 184.489C490.64 190.283 474.298 205.86 467.221 225.043C455.512 241.007 446.118 258.774 439.427 277.313C437.755 281.819 436.339 286.325 435.052 290.959C435.438 282.591 435.953 274.223 436.339 265.854C436.983 250.663 436.983 235.471 436.082 220.28C447.663 212.555 458.6 203.929 468.894 194.531C482.148 182.429 494.629 168.268 499.39 150.887C501.063 145.094 501.449 138.142 497.331 133.893C492.442 128.872 483.82 130.289 477.773 133.893C471.082 137.884 465.935 143.807 461.431 150.115C448.821 167.753 438.913 190.54 435.567 212.426C435.438 210.881 435.31 209.465 435.181 207.92C434.666 202.127 434.023 196.462 433.251 190.798C437.497 173.546 439.041 155.651 437.497 138.013C436.983 132.091 436.082 126.169 433.766 120.762C431.449 115.354 427.461 110.462 422.056 108.016C415.108 104.926 406.358 106.6 401.211 112.136C396.45 117.157 394.906 124.624 394.906 131.576C394.648 156.295 411.633 181.399 431.578 196.076C432.736 205.603 433.508 215.001 434.023 224.528C430.677 214.357 423.858 202.899 417.81 194.531C411.247 185.519 401.597 178.31 390.531 176.765C386.542 176.25 381.781 176.765 379.465 179.983C376.891 183.717 378.564 188.738 380.623 192.729C391.045 212.169 412.019 225.558 434.023 227.103C434.152 229.292 434.152 231.48 434.28 233.669C434.795 252.851 433.637 271.905 432.608 290.959C427.847 273.708 419.74 257.486 410.861 241.908C410.475 241.136 409.961 240.492 409.575 239.72C407.258 233.411 403.398 226.717 399.795 221.567C395.549 215.387 389.115 210.366 381.652 209.208C378.95 208.822 375.733 209.079 374.189 211.268C372.387 213.714 373.417 217.19 374.832 219.893C381.395 232.768 394.648 241.78 409.06 243.582C410.99 247.058 412.92 250.534 414.722 254.01C410.347 251.178 404.17 248.732 399.281 247.444C394.262 246.028 388.729 246.157 384.097 248.474C377.02 237.145 363.38 222.082 351.928 218.606C345.108 215.387 337.259 213.714 330.053 213.199C315.127 212.169 290.035 206.633 287.461 209.851C287.204 210.238 286.947 210.624 286.818 210.881C282.314 206.89 278.583 202.513 277.167 198.007C275.366 192.729 274.465 188.609 274.079 184.489C274.337 184.618 274.594 184.747 274.851 184.875C284.631 189.768 282.057 176.25 287.075 171.486C293.252 165.693 295.954 157.067 296.597 148.699C296.855 144.965 296.726 141.232 295.439 137.756C293.381 131.834 287.976 127.328 281.928 125.525C284.245 124.495 286.689 123.851 289.134 123.723C295.053 123.594 300.844 126.426 304.833 130.932C301.873 123.594 294.796 118.058 287.075 116.771C284.502 116.384 281.928 116.384 279.484 117.286C278.712 113.81 276.653 110.334 274.079 107.63C271.763 105.184 268.804 103.124 265.458 102.738C260.182 102.094 255.293 105.57 250.274 107.372C248.73 104.411 246.929 101.708 244.612 99.2617C238.307 92.5671 228.785 88.7048 219.778 89.9922C225.697 93.082 231.745 96.3006 236.635 100.807C238.822 102.738 240.752 105.055 242.296 107.501C241.782 107.501 241.267 107.501 240.624 107.501C238.951 106.857 237.407 105.828 235.863 104.926C230.716 101.965 225.311 99.5192 219.521 98.618C213.73 97.8455 207.425 98.8754 202.664 102.351C199.705 104.54 197.389 107.63 195.587 110.848C193.657 114.067 191.984 117.672 191.341 121.405C189.411 132.606 196.359 143.292 197.389 154.492C197.903 159.899 197.131 165.693 199.833 170.199C201.249 166.851 204.98 164.92 208.712 164.148C209.355 164.019 210.127 163.89 210.771 163.762C211.414 168.139 212.315 172.516 213.473 176.765C215.017 182.687 216.947 188.738 220.293 193.887C219.649 196.849 219.006 199.81 218.363 202.899C218.234 201.612 217.977 200.196 217.719 198.908C216.69 193.63 214.502 188.223 210.256 184.875C209.999 184.618 209.613 184.489 209.355 184.618C209.098 184.747 209.098 185.133 208.969 185.39C208.841 188.738 209.87 191.956 210.642 195.175C212.701 202.899 214.116 210.881 214.888 218.863C214.245 221.825 213.602 224.914 214.502 227.747C214.631 228.262 214.888 228.777 215.146 229.292C217.333 233.025 221.58 236.501 226.212 239.977C222.995 242.423 220.035 245.256 217.591 248.603C210.899 257.615 208.841 269.073 207.168 280.145C206.01 288.256 204.98 296.495 203.951 304.735C201.12 327.908 198.161 351.082 195.33 374.384C195.072 376.702 194.815 379.277 196.23 381.208C197.517 382.881 199.833 383.525 201.892 383.783C207.297 384.555 212.83 384.426 218.363 384.169C225.568 383.911 232.774 383.525 239.98 383.268C242.682 383.654 245.385 383.654 248.087 383.654C254.649 383.654 261.212 383.525 267.645 383.525C267.903 383.654 268.289 383.654 268.546 383.654C295.954 388.417 324.005 385.714 351.542 383.01C361.193 382.109 370.715 381.079 380.365 380.178C385.77 379.663 391.689 378.89 395.42 375.028C397.479 372.84 398.637 370.007 399.667 367.175C400.696 363.956 401.597 360.738 402.24 357.519L404.556 382.881C404.685 384.04 405.457 385.07 406.486 385.199C406.615 385.199 406.744 385.199 406.872 385.199H458.471C458.729 385.199 458.986 385.07 459.243 385.07C459.501 385.07 459.758 384.813 459.887 384.555C460.144 384.169 460.401 383.783 460.53 383.268C460.53 383.139 460.53 383.01 460.659 382.881L465.806 326.621L466.321 320.956C466.321 320.699 466.321 320.441 466.321 320.184V320.055C466.321 319.798 466.192 319.669 466.192 319.411C465.806 318.51 465.034 317.866 464.133 317.866H434.666C434.666 312.717 434.924 307.567 435.052 302.546V302.417C436.468 296.238 438.141 290.058 440.071 284.007C440.199 283.878 440.328 283.75 440.457 283.621C447.534 273.708 456.799 265.854 466.449 258.516C471.468 258.902 477.515 258.259 482.019 257.357C487.423 256.328 492.699 253.495 495.659 248.86C496.688 247.187 497.46 244.998 496.559 243.196C495.401 241.265 492.828 240.878 490.64 241.007C480.089 241.651 470.052 247.831 464.519 256.843C456.541 262.893 448.821 269.331 442.258 277.055C448.306 260.319 456.541 244.354 466.707 229.678C477.644 228.777 491.284 224.271 501.192 219.765C511.357 215.259 520.364 207.277 524.096 196.72C525.254 193.501 525.64 188.866 522.938 185.905ZM415.494 255.426C420.255 264.438 424.501 273.708 427.718 283.363C428.49 285.681 429.262 288.127 429.905 290.573C423.086 285.938 415.88 281.69 408.545 278.085C403.27 273.837 397.736 269.974 392.075 266.369C391.431 264.31 390.659 262.25 389.887 260.19C398.509 262.121 408.031 260.447 415.494 255.426ZM238.179 205.346C240.495 205.217 242.682 204.702 244.741 203.929C246.028 203.414 247.315 202.771 248.601 201.998C250.789 208.693 252.204 215.516 253.105 222.597C251.818 222.34 250.66 222.211 249.373 222.597C247.958 222.983 246.929 224.142 245.899 225.301C244.098 227.232 242.425 229.292 240.881 231.351C238.179 229.549 235.991 228.004 232.646 226.202C232.131 225.944 231.616 225.558 231.23 225.043C230.844 224.399 230.973 223.498 231.23 222.726C232.903 216.675 236.506 211.268 238.179 205.346ZM225.311 201.097C226.469 202.127 227.756 203.028 229.171 203.672C230.072 204.187 231.102 204.444 232.131 204.702C229.429 210.238 226.727 215.645 224.024 221.181C223.767 214.486 225.697 207.663 225.311 201.097ZM402.497 318.381C401.468 310.271 400.053 302.031 398.637 294.049C397.994 290.573 397.35 287.097 396.578 283.75C401.597 283.621 406.615 283.235 411.376 282.334C417.939 285.81 424.115 289.543 430.163 293.792C430.42 293.92 430.677 294.049 430.806 294.049C431.321 295.98 431.835 298.04 432.222 299.971C431.964 306.151 431.707 312.331 431.707 318.51H402.497V318.381Z" fill="#DFE5E1"/>
<path d="M450.75 173.031C453.967 192.085 455.897 211.397 456.412 230.708C456.927 250.148 455.769 269.46 454.739 288.9C454.225 299.843 453.71 310.786 453.839 321.729C453.839 323.274 456.283 323.274 456.283 321.729C456.155 302.031 457.699 282.463 458.471 262.765C459.243 243.454 458.986 224.142 457.313 204.96C456.283 194.016 454.868 183.202 453.067 172.388C452.809 170.843 450.493 171.487 450.75 173.031Z" fill="#212F19"/>
<path d="M456.669 299.714C463.361 270.232 476.485 242.295 495.015 218.349C500.162 211.655 505.823 205.346 511.743 199.295C512.901 198.137 511.099 196.463 510.07 197.622C488.581 219.25 471.982 245.514 461.559 274.223C458.6 282.334 456.283 290.574 454.353 299.071C453.967 300.616 456.412 301.259 456.669 299.714Z" fill="#212F19"/>
<path d="M456.798 296.494C452.681 275.895 443.287 256.97 432.993 238.817C430.034 233.668 427.074 228.518 423.986 223.368C423.214 221.952 421.027 223.24 421.927 224.656C432.479 242.551 443.159 260.575 449.85 280.272C451.78 285.808 453.324 291.473 454.482 297.138C454.74 298.683 457.056 298.039 456.798 296.494Z" fill="#212F19"/>
<path d="M456.669 218.219C458.342 193.629 469.151 166.98 483.563 147.025C488.066 140.716 493.213 134.794 499.904 130.803C505.952 127.198 514.573 125.782 519.463 130.803C523.581 135.052 523.195 142.004 521.522 147.797C516.632 165.177 504.279 179.339 491.026 191.441C480.217 201.354 468.765 210.237 456.669 218.219Z" fill="#658B4D"/>
<g opacity="0.43">
<path d="M462.589 211.139C473.783 191.055 486.265 171.743 499.904 153.462C503.893 148.183 507.882 143.034 512.129 137.884C513.158 136.725 511.357 134.923 510.456 136.21C495.916 154.106 482.533 173.159 470.438 192.857C466.963 198.522 463.747 204.186 460.53 209.98C459.758 211.267 461.816 212.555 462.589 211.139Z" fill="#E5E3DF"/>
</g>
<path d="M453.839 193.243C433.765 178.567 416.651 153.333 416.909 128.486C417.037 121.534 418.453 114.195 423.214 109.046C428.361 103.51 437.111 101.836 444.059 104.926C449.464 107.372 453.453 112.264 455.769 117.672C458.085 123.079 458.986 129.001 459.5 134.923C461.302 154.492 459.372 174.447 453.839 193.243Z" fill="#658B4D"/>
<g opacity="0.43">
<path d="M431.964 117.543C438.398 136.339 443.931 155.393 448.692 174.704C449.979 180.24 451.265 185.647 452.552 191.183C452.938 192.728 455.254 192.084 454.868 190.54C450.622 171.099 445.604 151.917 439.556 132.992C437.883 127.584 436.082 122.306 434.28 116.899C433.894 115.483 431.449 116.126 431.964 117.543Z" fill="#E5E3DF"/>
</g>
<path d="M456.798 224.27C434.537 222.982 413.306 209.593 402.754 189.896C400.567 185.905 399.023 180.884 401.596 177.15C403.913 173.803 408.674 173.288 412.662 173.932C423.729 175.476 433.379 182.686 439.942 191.698C446.375 200.71 453.839 213.584 456.798 224.27Z" fill="#658B4D"/>
<path d="M433.122 240.879C418.067 239.72 403.912 230.45 397.093 217.061C395.677 214.358 394.648 210.882 396.449 208.435C398.122 206.247 401.21 205.989 403.912 206.376C411.376 207.534 417.809 212.555 422.056 218.735C426.302 224.786 431.32 233.54 433.122 240.879Z" fill="#658B4D"/>
<path d="M438.14 251.95C429.133 258.387 416.651 259.675 406.486 255.298C404.427 254.396 402.24 252.98 402.111 250.663C401.982 248.603 403.655 246.929 405.457 246.028C410.218 243.196 416.265 243.067 421.541 244.483C426.817 246.028 433.765 248.603 438.14 251.95Z" fill="#658B4D"/>
<path d="M485.493 255.555C490.768 245.771 501.191 239.076 512.386 238.433C514.573 238.304 517.276 238.69 518.305 240.621C519.334 242.424 518.562 244.612 517.404 246.286C514.445 250.921 509.169 253.753 503.765 254.783C498.36 255.813 491.026 256.457 485.493 255.555Z" fill="#658B4D"/>
<path d="M487.68 227.232C493.471 205.603 510.97 187.579 532.331 181.27C536.577 179.983 541.981 179.468 545.07 182.687C547.772 185.648 547.386 190.411 545.97 194.145C542.239 204.573 533.231 212.684 523.066 217.19C512.901 221.824 498.746 226.588 487.68 227.232Z" fill="#658B4D"/>
<path d="M462.202 280.916C471.982 267.27 485.75 257.357 499.39 247.83C500.676 246.928 499.39 244.74 498.103 245.77C484.206 255.554 470.052 265.725 460.144 279.758C459.114 281.045 461.302 282.204 462.202 280.916Z" fill="#212F19"/>
<path d="M453.839 288.642C442.515 280.789 430.42 274.223 417.681 269.073C416.265 268.429 415.236 270.747 416.651 271.262C429.262 276.283 441.1 282.72 452.295 290.444C453.581 291.474 455.125 289.543 453.839 288.642Z" fill="#212F19"/>
<path d="M435.309 278.729C418.71 282.462 399.152 280.403 383.067 274.867C378.049 273.064 373.03 270.876 369.17 267.271C365.567 263.924 362.994 258.645 365.438 254.397C367.497 250.792 372.13 249.762 376.247 249.633C388.6 249.504 400.438 254.912 410.99 261.349C419.611 266.37 427.717 272.292 435.309 278.729Z" fill="#658B4D"/>
<g opacity="0.43">
<path d="M429.519 276.154C414.078 272.678 399.023 268.172 384.225 262.765C379.979 261.22 375.733 259.546 371.615 257.744C370.586 257.357 369.814 258.774 370.843 259.289C385.512 265.468 400.567 270.618 416.008 274.609C420.383 275.768 424.758 276.798 429.262 277.827C430.162 278.085 430.549 276.411 429.519 276.154Z" fill="#E5E3DF"/>
</g>
<path d="M480.089 382.494H428.49C427.332 382.494 426.431 381.465 426.302 380.048L420.769 318.123C420.641 316.578 421.67 315.162 422.957 315.162H485.75C487.037 315.162 488.195 316.578 487.938 318.123L482.276 380.048C482.276 381.465 481.247 382.494 480.089 382.494Z" fill="#F53C4E"/>
<path d="M487.294 317.865C481.633 334.602 475.456 355.587 462.46 368.075C452.938 377.344 440.07 380.82 427.074 381.85C427.46 382.237 427.846 382.365 428.361 382.365H479.96C481.118 382.365 482.019 381.335 482.147 379.919L487.809 317.994C487.809 317.479 487.809 316.964 487.552 316.449C487.552 317.093 487.552 317.479 487.294 317.865Z" fill="#E52541"/>
<path d="M127.131 8.24034V33.9888C127.131 37.8511 130.348 41.0697 134.209 41.0697H181.69C184.263 41.0697 186.708 42.0996 188.638 43.7733L196.616 51.3691C197.646 52.399 199.447 51.6266 199.447 50.2104V43.5158C199.447 42.2284 200.605 41.0697 201.892 41.0697C206.138 41.0697 209.741 37.5936 209.741 33.2164V8.75531C209.741 4.24932 206.138 0.644531 201.635 0.644531H134.852C130.606 0.644531 127.131 3.99184 127.131 8.24034Z" fill="white" stroke="#F7D6AB" stroke-miterlimit="10"/>
<path d="M177.186 18.1533C183.749 11.2012 180.918 7.85388 178.216 6.56645C175.513 5.27903 173.197 7.08142 171.782 10.9437C171.267 12.4886 171.91 13.9048 172.811 15.0635C173.712 16.0934 173.583 17.7671 172.682 18.6682C171.396 20.0844 169.723 21.5006 167.921 22.788C166.763 23.5605 165.219 23.1742 164.447 22.0156C163.546 20.8569 162.517 19.8269 160.973 20.0844C157.241 20.5994 155.183 22.4018 155.697 25.3629C156.083 27.6802 157.756 30.2551 162.26 28.7102C169.337 26.779 174.613 21.3718 177.186 18.1533Z" fill="#FEB856"/>
<path d="M280.384 20.6V50.597C280.384 55.103 283.343 58.8366 286.946 58.8366H331.082C333.527 58.8366 335.843 59.9952 337.516 62.0551L344.979 70.8096C346.008 71.9683 347.552 71.0671 347.552 69.3934V61.6689C347.552 60.124 348.582 58.8366 349.869 58.8366C353.858 58.8366 357.074 54.7168 357.074 49.6958V21.2437C357.074 15.9653 353.729 11.7168 349.483 11.7168H287.461C283.472 11.8455 280.384 15.7078 280.384 20.6Z" fill="white" stroke="#F7D6AB" stroke-miterlimit="10"/>
<path d="M319.63 33.8608L335.328 24.5913C334.942 24.3338 334.556 24.2051 334.041 24.2051H303.417C302.902 24.2051 302.516 24.3338 302.13 24.5913C304.189 25.8787 308.435 28.4536 317.056 33.8608C317.828 34.247 318.858 34.3757 319.63 33.8608Z" fill="#FEB856"/>
<path d="M320.016 35.5349C319.501 35.7924 318.986 36.0499 318.343 36.0499C317.7 36.0499 317.185 35.9212 316.67 35.5349C309.465 31.0289 304.06 27.8104 301.487 26.2655C301.229 26.6517 301.101 27.0379 301.101 27.5529V44.8044C301.101 46.0918 302.13 47.1217 303.417 47.1217H334.042C335.328 47.1217 336.358 46.0918 336.358 44.8044V27.4241C336.358 26.9092 336.229 26.5229 335.972 26.1367L320.016 35.5349Z" fill="#FEB856"/>
<path d="M138.583 129.773C160.458 127.198 184.778 114.195 187.351 89.9913C188.381 80.3356 184.907 67.0751 174.484 63.8565C165.219 60.8955 157.37 70.8086 161.488 79.3056C166.635 89.9913 181.175 91.4074 190.954 87.1589C202.535 82.138 209.484 71.4523 218.491 63.2128C223.895 58.4494 230.072 54.8446 237.149 53.0422C243.711 51.3685 252.075 50.4673 258.38 53.2997C261.469 54.7158 264.557 57.6769 264.171 61.4104C263.913 65.0152 260.568 68.105 257.48 69.65C255.163 70.8086 252.075 71.5811 249.502 70.6799C244.741 68.8775 246.928 63.5991 250.016 61.4104C256.45 56.9044 265.715 59.2218 272.149 62.4404C278.068 65.4015 283.086 69.3925 288.49 73.126C293.766 76.7308 299.428 80.0781 305.862 81.2368C312.553 82.5242 319.501 81.4943 325.549 78.6619C326.064 78.4044 325.678 77.5032 325.034 77.7607C318.343 80.8506 310.751 81.623 303.674 79.6919C297.884 78.147 292.865 74.9284 287.976 71.5811C278.84 65.2727 268.803 56.9044 256.836 58.0631C252.59 58.4494 247.443 60.3805 245.899 64.8865C244.612 68.62 247.314 71.5811 250.917 71.9673C259.667 72.8685 269.961 62.0541 261.983 54.5871C257.866 50.7248 251.432 50.3386 246.027 50.5961C240.108 50.8535 234.189 52.3985 228.785 54.9733C217.204 60.3805 210.384 71.1949 200.991 79.3056C196.101 83.5541 190.182 87.1589 183.62 88.1889C176.671 89.2188 168.693 87.1589 164.061 81.623C159.943 76.602 160.329 68.7488 166.377 65.4015C172.811 61.9254 179.759 66.9464 182.976 72.4823C190.182 84.9703 185.55 101.192 176.285 111.234C166.635 121.791 152.352 127.198 138.326 128.743C137.94 128.872 137.94 129.901 138.583 129.773Z" fill="#F7D6AB"/>
<path d="M39.8892 74.929V107.887C39.8892 112.908 43.8781 116.899 48.8965 116.899H109.631C112.977 116.899 116.065 118.186 118.51 120.375L128.675 130.031C130.091 131.318 132.278 130.288 132.278 128.486V119.989C132.278 118.315 133.694 116.899 135.366 116.899C140.9 116.899 145.403 112.393 145.403 106.857V75.5727C145.403 69.7793 140.771 65.1445 134.98 65.1445H49.6685C44.2641 65.1445 39.8892 69.5218 39.8892 74.929Z" fill="white" stroke="#F7D6AB" stroke-miterlimit="10"/>
<path d="M58.8044 80.4649C60.9919 80.4649 63.0507 80.4649 65.2382 80.4649C70.3852 80.4649 75.4036 80.4649 80.5506 80.4649C86.727 80.4649 92.9035 80.4649 99.0799 80.4649C104.356 80.4649 109.76 80.4649 115.036 80.4649C117.609 80.4649 120.183 80.5937 122.756 80.4649H122.885C124.172 80.4649 124.172 78.5338 122.885 78.5338C120.697 78.5338 118.639 78.5338 116.451 78.5338C111.304 78.5338 106.286 78.5338 101.139 78.5338C94.9623 78.5338 88.7858 78.5338 82.6094 78.5338C77.3337 78.5338 71.9293 78.5338 66.6536 78.5338C64.0801 78.5338 61.5066 78.405 58.9331 78.5338H58.8044C57.5177 78.405 57.5177 80.4649 58.8044 80.4649Z" fill="#FEB856"/>
<path d="M58.8044 92.1798C60.9919 92.1798 63.0507 92.1798 65.2382 92.1798C70.3852 92.1798 75.4036 92.1798 80.5506 92.1798C86.727 92.1798 92.9035 92.1798 99.0799 92.1798C104.356 92.1798 109.76 92.1798 115.036 92.1798C117.609 92.1798 120.183 92.3085 122.756 92.1798H122.885C124.172 92.1798 124.172 90.2486 122.885 90.2486C120.697 90.2486 118.639 90.2486 116.451 90.2486C111.304 90.2486 106.286 90.2486 101.139 90.2486C94.9623 90.2486 88.7858 90.2486 82.6094 90.2486C77.3337 90.2486 71.9293 90.2486 66.6536 90.2486C64.0801 90.2486 61.5066 90.1199 58.9331 90.2486H58.8044C57.5177 90.2486 57.5177 92.1798 58.8044 92.1798Z" fill="#FEB856"/>
<path d="M76.6903 104.025C78.2344 104.025 79.7786 104.025 81.3227 104.025C84.9256 104.025 88.6572 104.025 92.2601 104.025C96.6351 104.025 101.139 104.025 105.514 104.025C109.374 104.025 113.234 104.025 116.966 104.025C118.767 104.025 120.697 104.154 122.499 104.025C122.499 104.025 122.499 104.025 122.628 104.025C123.914 104.025 123.914 102.094 122.628 102.094C121.083 102.094 119.539 102.094 117.995 102.094C114.392 102.094 110.661 102.094 107.058 102.094C102.683 102.094 98.1792 102.094 93.8042 102.094C89.9439 102.094 86.0837 102.094 82.3521 102.094C80.5506 102.094 78.6205 101.966 76.819 102.094C76.819 102.094 76.819 102.094 76.6903 102.094C75.5323 102.094 75.5323 104.025 76.6903 104.025Z" fill="#FEB856"/>
<path d="M55.4589 374.899C55.0729 373.611 54.8155 372.452 54.4295 371.165C53.5288 367.689 52.628 364.342 51.856 360.866C50.5692 355.845 49.2825 350.824 47.9957 345.803C46.4516 339.623 44.7788 333.572 43.2347 327.393C41.5619 320.698 39.7605 314.003 38.0877 307.309C36.2862 300.485 34.6135 293.662 32.812 286.967C31.1392 280.659 29.5951 274.351 27.9223 267.913C26.5069 262.635 25.2201 257.228 23.8047 251.949C22.7753 248.087 21.8746 244.225 20.8452 240.491C20.3305 238.689 19.9444 236.887 19.4297 235.084C19.4297 234.955 19.4297 234.955 19.4297 234.827C18.915 233.024 16.0842 233.797 16.5989 235.599C16.9849 236.887 17.2423 238.045 17.6283 239.333C18.529 242.809 19.4297 246.156 20.2018 249.632C21.4886 254.653 22.7753 259.674 24.0621 264.695C25.6062 270.875 27.279 276.925 28.8231 283.105C30.4958 289.8 32.2973 296.494 33.9701 303.189C35.7715 310.012 37.4443 316.836 39.2458 323.53C40.9186 329.839 42.4627 336.147 44.1355 342.584C45.5509 347.863 46.8376 353.27 48.2531 358.548C49.2825 362.41 50.1832 366.273 51.2126 370.006C51.7273 371.809 52.1133 373.611 52.628 375.413C52.628 375.542 52.628 375.542 52.628 375.671C53.0141 377.473 55.9736 376.701 55.4589 374.899Z" fill="#C47A57"/>
<path d="M14.9263 266.884C15.5697 266.112 16.0844 265.339 16.7277 264.438C18.4005 262.249 19.9446 260.061 21.6174 258.001C24.0622 254.782 26.3784 251.564 28.8232 248.474C31.7828 244.612 34.7423 240.621 37.7019 236.758C40.9188 232.51 44.1356 228.261 47.3525 224.013C50.5694 219.764 53.7863 215.387 57.1319 211.139C60.2201 207.148 63.1796 203.028 66.2678 199.037C68.8414 195.689 71.4149 192.213 73.9884 188.866C75.7898 186.42 77.72 183.974 79.5214 181.528C80.4222 180.369 81.3229 179.21 82.0949 178.052L82.2236 177.923C82.7383 177.279 82.3523 176.249 81.7089 175.863C80.9369 175.477 80.1648 175.734 79.6501 176.378C79.0067 177.151 78.492 177.923 77.8486 178.824C76.1759 181.013 74.6318 183.201 72.959 185.261C70.5141 188.48 68.198 191.698 65.7531 194.788C62.7936 198.651 59.8341 202.642 56.8745 206.504C53.6576 210.752 50.4407 215.001 47.2239 219.249C44.007 223.498 40.7901 227.875 37.4445 232.124C34.3563 236.115 31.3968 240.234 28.3085 244.225C25.735 247.573 23.1615 251.049 20.588 254.396C18.7865 256.842 16.8564 259.288 15.055 261.734C14.1542 262.893 13.2535 264.052 12.4814 265.21L12.3528 265.339C11.8381 265.983 12.2241 267.013 12.8675 267.399C13.6395 267.914 14.4116 267.528 14.9263 266.884Z" fill="#C47A57"/>
<path d="M22.7754 258.903C25.1916 258.903 27.1503 256.943 27.1503 254.526C27.1503 252.108 25.1916 250.148 22.7754 250.148C20.3591 250.148 18.4004 252.108 18.4004 254.526C18.4004 256.943 20.3591 258.903 22.7754 258.903Z" fill="#F53C4E"/>
<path d="M74.6318 371.424H28.8233C24.4484 371.424 20.9741 374.9 20.9741 379.277H82.3524C82.4811 374.9 79.0068 371.424 74.6318 371.424Z" fill="#F53C4E"/>
<path d="M114.778 209.466C121.387 209.466 126.745 204.105 126.745 197.493C126.745 190.88 121.387 185.52 114.778 185.52C108.169 185.52 102.812 190.88 102.812 197.493C102.812 204.105 108.169 209.466 114.778 209.466Z" fill="#F6CB75"/>
<path d="M104.484 191.312C103.455 193.115 102.812 195.175 102.812 197.492C102.812 204.058 108.216 209.465 114.778 209.465C120.955 209.465 125.973 204.83 126.745 198.78C118.253 200.839 109.245 199.166 104.484 191.312Z" fill="#EEBD66"/>
<path d="M91.2308 181.785C89.6867 183.716 86.7271 184.102 84.797 182.429L78.8779 177.537C76.9478 175.992 76.5617 173.031 78.2345 171.099C79.7786 169.168 82.7382 168.782 84.6683 170.456L90.5874 175.348C92.5175 176.893 92.9036 179.725 91.2308 181.785Z" fill="#D62B47"/>
<path d="M95.8633 223.241L133.565 170.328C133.565 170.328 108.473 156.552 88.6574 177.924C88.5288 177.924 71.1575 202.256 95.8633 223.241Z" fill="#F53C4E"/>
<path d="M120.955 182.686C116.323 185.905 111.948 190.025 106.929 192.6C95.6058 198.393 89.172 190.025 87.2419 180.24C83.639 186.806 75.6611 206.118 95.8632 223.24L128.547 177.279C126.102 179.082 123.528 180.884 120.955 182.686Z" fill="#E52541"/>
<path d="M169.08 221.181C174.356 217.447 179.76 213.714 185.036 210.109C186.065 209.336 185.036 207.663 184.006 208.435C178.73 212.169 173.326 215.902 168.05 219.507C167.021 220.28 168.05 221.953 169.08 221.181Z" fill="#F7D6AB"/>
<path d="M156.856 201.098C165.477 200.583 173.97 200.068 182.591 199.681C183.878 199.553 183.878 197.622 182.591 197.75C173.97 198.265 165.477 198.78 156.856 199.166C155.569 199.166 155.569 201.098 156.856 201.098Z" fill="#F7D6AB"/>
<path d="M170.109 178.439C175.514 182.044 180.918 185.648 186.194 189.253C187.223 190.026 188.253 188.223 187.223 187.58C181.819 183.975 176.415 180.37 171.139 176.765C169.981 175.993 169.08 177.795 170.109 178.439Z" fill="#F7D6AB"/>
<path d="M268.546 192.986C275.108 208.049 276.266 224.914 276.91 241.393C276.91 242.165 277.038 243.067 277.553 243.582C278.068 243.968 278.84 243.968 279.483 243.968C284.502 243.582 289.263 242.165 294.024 240.878C301.358 238.818 308.693 236.63 316.027 234.441C318.343 233.797 330.439 226.201 332.112 224.528C321.689 217.704 303.16 206.89 299.171 195.174C295.182 183.459 295.696 177.408 295.439 164.92" fill="#FF8C6B"/>
<g opacity="0.53">
<path d="M269.061 191.956C270.347 196.719 271.763 201.483 273.049 206.246C273.178 206.504 273.178 206.89 273.436 207.019C273.95 207.534 274.851 206.89 275.366 206.375C280.255 201.097 282.443 193.758 283.086 186.549C283.73 179.339 282.958 172.13 282.7 164.92" fill="#F55C2C"/>
</g>
<path d="M246.671 118.059C238.307 123.981 233.546 133.894 232.26 143.936C230.973 153.978 232.646 164.277 235.219 174.062C237.149 181.271 239.594 188.352 244.098 194.274C246.028 196.72 248.344 199.038 251.175 200.454C255.936 202.9 261.855 202.642 266.745 200.711C271.763 198.78 275.881 195.175 279.355 191.056C287.59 181.4 295.568 152.047 295.182 139.301" fill="#FF8C6B"/>
<path d="M242.167 155.137C242.296 159.772 241.524 164.535 239.98 168.912C239.594 170.071 239.079 171.101 238.564 172.26C238.178 173.032 237.664 173.933 238.564 174.577C240.109 175.864 242.425 176.251 244.355 176.122C244.998 176.122 244.998 174.963 244.355 174.963C243.325 174.963 242.296 174.963 241.267 174.577C240.752 174.448 240.366 174.191 239.851 174.062C239.723 173.933 239.337 173.805 239.208 173.676C238.951 173.29 239.079 173.161 239.337 172.775C240.237 170.972 241.009 169.041 241.524 167.11C242.682 163.119 243.197 158.999 243.068 155.008C243.197 154.493 242.167 154.493 242.167 155.137Z" fill="#F55C2C"/>
<path d="M259.925 157.067C259.925 158.869 258.895 160.157 257.609 160.157C256.322 160.157 255.292 158.74 255.292 157.067C255.292 155.264 256.322 153.977 257.609 153.977C258.767 153.848 259.925 155.264 259.925 157.067Z" fill="#5D1211"/>
<path d="M237.149 162.861C238.428 162.861 239.465 161.478 239.465 159.771C239.465 158.065 238.428 156.682 237.149 156.682C235.87 156.682 234.833 158.065 234.833 159.771C234.833 161.478 235.87 162.861 237.149 162.861Z" fill="#5D1211"/>
<path opacity="0.54" d="M272.02 170.199C272.02 173.547 269.061 176.122 265.587 176.122C261.984 176.122 259.153 173.418 259.153 170.199C259.153 166.852 262.112 164.277 265.587 164.277C269.19 164.277 272.02 166.852 272.02 170.199Z" fill="#F65A2D"/>
<path d="M242.039 182.044C242.039 182.044 246.929 181.529 249.631 181.657C252.462 181.657 245.899 187.58 242.039 182.044Z" fill="#F65A2D"/>
<path d="M257.737 148.957C261.211 147.54 267.13 146.382 269.961 149.214C271.377 150.63 271.634 148.957 270.347 147.669C266.744 144.064 261.34 144.322 256.965 146.124C256.193 146.382 255.678 147.154 255.936 148.055C256.193 148.699 256.965 149.343 257.737 148.957Z" fill="#5E1212"/>
<path d="M296.855 181.914C306.634 186.806 304.061 173.288 309.079 168.525C315.255 162.732 317.957 154.106 318.601 145.738C318.858 142.004 318.73 138.27 317.443 134.794C314.998 127.842 308.178 122.821 300.715 121.92C303.417 116.255 300.329 109.303 295.954 104.926C293.638 102.48 290.678 100.42 287.333 100.034C279.741 99.004 272.921 106.729 265.201 105.57C262.498 105.184 260.053 103.639 257.609 102.223C252.462 99.2615 247.057 96.8154 241.267 95.9142C235.476 95.1417 229.171 96.1717 224.41 99.6477C221.451 101.836 219.135 104.926 217.333 108.145C215.403 111.363 213.73 114.968 213.087 118.702C211.157 129.902 218.105 140.588 219.135 151.788C219.649 157.196 218.877 162.989 221.579 167.495C222.995 164.148 226.726 162.217 230.458 161.444C234.061 160.672 237.793 160.8 241.524 160.028C246.671 158.869 251.304 155.779 255.421 152.561C261.726 147.669 267.903 142.004 270.219 134.408C274.336 135.438 276.653 139.944 277.167 144.064C277.811 148.312 277.296 152.561 278.325 156.681C279.355 160.543 281.928 164.019 285.403 166.208C287.333 167.366 290.035 178.953 296.855 181.914Z" fill="#5D1211"/>
<path d="M222.995 111.234C226.083 109.947 229.3 109.432 232.774 109.561C238.307 109.303 243.711 110.076 249.244 110.333C252.461 110.462 255.164 110.204 257.737 109.432C260.568 108.273 263.27 106.857 265.972 105.441C265.715 105.441 265.458 105.441 265.2 105.441C262.498 105.055 260.053 103.51 257.608 102.094C252.461 99.1326 247.057 96.6865 241.267 95.7853C235.476 95.0128 229.171 96.0427 224.41 99.5188C221.451 101.707 219.134 104.797 217.333 108.016C215.66 110.848 214.245 113.809 213.473 116.899C216.304 114.324 219.52 112.522 222.995 111.234Z" fill="#4C0D0D"/>
<path d="M317.829 135.953C316.671 143.034 312.425 148.956 304.189 151.016C293.638 153.591 283.987 148.827 276.653 141.618C276.91 142.519 277.168 143.291 277.296 144.193C277.94 148.441 277.425 152.69 278.454 156.809C279.484 160.672 282.057 164.148 285.531 166.336C287.333 167.495 290.035 179.082 296.855 182.043C306.634 186.935 304.061 173.417 309.079 168.654C315.256 162.86 317.958 154.235 318.601 145.866C318.858 142.519 318.73 139.043 317.829 135.953Z" fill="#4C0D0D"/>
<path d="M268.16 115.097C267.259 108.403 263.399 102.481 258.509 97.9746C253.62 93.4686 247.572 90.25 241.653 87.1602C250.789 85.8728 260.182 89.735 266.487 96.4296C272.792 103.124 276.138 112.265 276.395 121.534" fill="#5D1211"/>
<path d="M293.895 122.435C295.568 119.602 297.498 116.641 300.329 115.096C302.902 113.68 306.119 113.552 309.079 113.938C316.928 115.225 323.876 120.761 326.836 128.099C322.976 123.593 317.057 120.761 311.138 120.89C305.218 121.019 299.299 124.237 296.469 129.516" fill="#5D1211"/>
<path d="M275.494 130.675C277.424 133.379 279.355 136.211 279.612 139.559C279.869 142.52 278.711 145.481 277.167 148.056C272.921 154.75 265.072 158.87 257.094 158.741C262.755 156.939 267.645 152.69 269.961 147.283C272.277 141.747 271.634 135.053 268.031 130.418" fill="#5D1211"/>
<path d="M266.487 138.141C263.27 139.429 260.44 141.489 257.223 142.905C250.017 146.252 242.425 148.57 234.318 148.312C227.241 148.055 221.708 145.866 217.205 142.39C218.105 145.48 218.877 148.57 219.135 151.788C219.649 157.195 218.877 162.989 221.58 167.495C222.995 164.147 226.727 162.216 230.458 161.444C234.061 160.671 237.793 160.8 241.524 160.028C246.671 158.869 251.304 155.779 255.421 152.561C260.954 148.312 266.23 143.42 269.061 137.24C268.417 137.498 267.517 137.755 266.487 138.141Z" fill="#4C0D0D"/>
<path d="M289.263 136.34H286.432V146.897H289.263V136.34Z" fill="#366F90"/>
<path d="M293.895 134.152V125.912C293.895 119.604 290.807 113.553 285.402 110.206C280.384 106.987 272.792 104.283 261.469 104.67C261.469 104.67 269.833 106.601 276.524 112.137C280.127 115.098 282.186 119.733 282.186 124.496V134.28C282.186 135.825 283.472 137.113 285.016 137.113H290.935C292.48 137.113 293.895 135.825 293.895 134.152Z" fill="#366F90"/>
<path d="M287.847 170.07C294.67 170.07 300.2 164.537 300.2 157.711C300.2 150.885 294.67 145.352 287.847 145.352C281.025 145.352 275.495 150.885 275.495 157.711C275.495 164.537 281.025 170.07 287.847 170.07Z" fill="#F9EAEB"/>
<path d="M282.701 158.097C282.701 160.929 285.017 163.375 287.976 163.375C290.807 163.375 293.252 161.058 293.252 158.097C293.252 155.264 290.936 152.818 287.976 152.818C285.017 152.818 282.701 155.136 282.701 158.097Z" fill="#366F8F"/>
<path d="M286.046 162.473C282.572 168.138 279.226 173.803 275.752 179.467C275.238 180.24 274.723 181.012 274.337 181.914C274.594 181.656 274.98 181.527 275.238 181.27C269.061 182.428 263.013 183.587 256.837 184.875C255.936 185.003 255.164 185.261 254.263 185.39C252.848 185.647 253.105 187.836 254.521 187.578C260.826 186.291 267.26 185.132 273.565 183.845C274.465 183.716 275.752 183.716 276.267 182.815C276.653 182.171 277.039 181.527 277.425 180.884C279.484 177.536 281.414 174.318 283.473 170.97C285.017 168.396 286.561 165.821 288.105 163.375C288.362 162.86 287.976 162.087 287.59 161.958C286.818 161.701 286.304 161.958 286.046 162.473Z" fill="#366F90"/>
<path d="M255.164 186.547C255.164 188.092 253.362 189.251 251.304 189.251C249.116 189.251 247.443 188.092 247.443 186.547C247.443 185.002 249.245 183.844 251.304 183.844C253.362 183.844 255.164 185.002 255.164 186.547Z" fill="#366F8F"/>
<path d="M309.722 206.89C312.296 203.671 337.387 209.336 352.314 210.237C361.836 210.881 372.645 213.585 380.494 219.378C388.214 225.171 391.817 235.342 394.648 244.869C401.725 268.815 407.001 293.405 410.346 318.381C411.505 327.007 412.405 335.761 410.346 344.13C407.644 354.944 400.052 363.698 390.916 369.363C374.575 379.662 354.501 380.049 335.457 380.177C313.582 380.306 291.708 380.564 269.833 380.692C263.914 380.692 257.48 380.564 252.976 376.701C248.473 372.839 246.928 366.273 245.77 360.222C241.91 339.752 239.337 319.025 238.179 298.168C237.792 290.573 237.535 282.848 238.822 275.381C240.237 266.884 243.712 258.902 247.7 251.435C253.362 240.749 260.311 230.707 268.289 221.824C269.318 220.665 270.347 219.635 271.763 219.121C273.307 218.606 274.851 218.992 276.395 219.378C289.391 222.082 302.645 219.121 309.722 206.89Z" fill="#FEB856"/>
<path d="M266.101 226.717C256.193 231.738 245.899 237.145 239.208 246.028C232.517 255.04 230.458 266.498 228.785 277.57C227.627 285.681 226.598 293.92 225.568 302.16C222.737 325.334 219.778 348.507 216.947 371.81C216.69 374.127 216.432 376.702 217.848 378.633C219.134 380.307 221.451 380.95 223.509 381.208C228.914 381.98 234.447 381.852 239.98 381.594C249.631 381.208 259.281 380.822 268.932 380.435C271.377 380.307 274.079 380.178 276.138 378.89C280.255 376.573 281.156 371.166 281.671 366.402C285.531 325.591 278.711 284.393 268.803 244.612" fill="#FEB856"/>
<path d="M279.998 263.923C280.899 256.327 276.395 253.752 273.564 247.959C271.248 243.067 271.248 233.153 266.744 230.45C262.112 227.618 259.539 225.558 254.906 222.983C254.392 222.725 253.877 222.339 253.491 221.824C253.105 221.18 253.233 220.279 253.491 219.507C255.421 211.911 260.825 205.088 261.083 197.234C261.083 196.333 260.954 195.303 260.182 195.046C259.539 194.788 258.767 195.046 258.252 195.432C256.708 196.462 255.936 198.135 255.164 199.809C252.204 205.989 249.116 212.04 246.156 218.219C245.899 209.98 248.858 201.483 246.8 193.372C246.285 191.183 244.998 188.737 242.811 187.965C240.752 197.363 238.693 206.89 236.634 216.288C235.991 219.249 235.348 222.339 236.248 225.171C236.377 225.686 236.634 226.201 236.892 226.716C241.91 235.085 256.45 241.65 262.755 251.564C265.715 256.327 266.487 261.863 267.13 267.528C267.388 270.36 273.436 267.528 277.038 267.013C279.355 266.755 279.612 266.627 279.998 263.923Z" fill="#FF8C6B"/>
<path d="M236.892 219.636C236.377 210.495 234.833 201.483 232.388 192.728C231.488 189.51 230.458 186.291 230.715 182.944C230.715 182.687 230.844 182.3 231.101 182.172C231.359 182.043 231.745 182.172 232.002 182.429C236.248 185.776 238.436 191.055 239.465 196.462C240.495 201.74 240.623 207.276 241.653 212.555" fill="#FF8C6B"/>
<path d="M372.259 253.109C372.259 253.109 359.777 267.014 358.876 294.307C357.976 321.6 333.27 337.436 302.002 339.238C270.862 340.912 254.392 355.717 269.447 367.819C284.502 379.921 377.792 385.714 393.49 346.319C409.188 307.052 372.259 253.109 372.259 253.109Z" fill="#F4A342"/>
<path d="M298.399 363.054C298.399 363.054 253.748 354.815 246.028 360.351C238.436 365.887 232.903 374.899 242.554 374.899C252.204 374.899 307.792 374.899 307.792 374.899" fill="#FF8C6B"/>
<path d="M369.557 215C364.023 227.488 366.34 243.838 368.784 257.228C371.744 273.449 374.832 289.671 377.792 305.892C379.207 313.617 380.623 321.856 377.406 328.937C375.347 333.572 371.615 337.177 367.369 339.88C352.057 350.18 332.498 350.18 314.483 353.784C305.733 355.458 297.241 358.033 289.134 361.509C287.976 362.024 286.689 362.539 286.046 363.569C285.274 364.728 285.274 366.272 285.403 367.689C285.789 371.165 286.432 374.641 287.333 378.117C287.59 378.889 287.847 379.662 288.362 380.177C288.877 380.692 289.649 380.82 290.292 380.949C317.7 385.713 345.752 383.009 373.288 380.305C382.939 379.404 392.461 378.374 402.111 377.473C407.516 376.958 413.435 376.186 417.166 372.323C419.225 370.135 420.383 367.302 421.413 364.47C429.262 341.039 425.273 315.419 420.641 291.087C418.067 277.054 415.108 262.892 408.803 250.275C402.497 237.272 383.196 215 369.557 215Z" fill="#FEB856"/>
<path d="M264.042 261.09C267.903 262.249 275.88 263.665 281.671 258.902C283.086 257.743 285.274 258.387 285.917 260.061L286.561 261.863C286.947 263.022 286.561 264.18 285.66 264.953C282.186 267.528 273.05 272.677 261.726 267.399C260.439 266.755 259.925 265.339 260.439 264.052L260.954 262.764C261.34 261.477 262.756 260.704 264.042 261.09Z" fill="#F4A342"/>
<path d="M295.31 293.02C295.31 293.02 299.685 334.089 294.152 344.388L309.336 344.903C309.336 344.903 311.524 322.888 305.218 303.319C298.913 283.75 293.638 283.622 295.31 293.02Z" fill="#F4A342"/>
<path d="M263.785 269.716C263.785 269.716 261.083 324.818 267.13 338.979L251.818 338.851C251.818 338.851 248.73 309.111 254.134 282.976C259.667 256.842 264.943 257.099 263.785 269.716Z" fill="#F4A342"/>
<path d="M273.435 226.072C281.027 228.132 302.259 231.994 318.215 215.387C318.987 214.485 320.402 215 320.531 216.159C320.788 218.476 318.729 222.468 316.67 224.914C313.196 228.905 297.24 240.491 271.634 231.737C270.09 231.222 269.318 229.677 269.704 228.132C270.219 226.587 271.891 225.686 273.435 226.072Z" fill="#F4A342"/>
<path d="M382.166 371.551H265.972C263.913 371.551 262.369 373.224 262.369 375.156V375.928C262.369 377.988 264.042 379.533 265.972 379.533H382.166C384.225 379.533 385.769 377.859 385.769 375.928V375.156C385.898 373.224 384.225 371.551 382.166 371.551Z" fill="#5D1312"/>
<path d="M91.7457 374.384L55.3305 266.24C53.6577 261.219 57.2606 256.069 62.5363 255.94L232.002 252.207C235.348 252.078 238.307 254.138 239.465 257.228L281.413 369.105C283.344 374.255 279.612 379.662 274.079 379.662H99.0802C95.8633 379.662 92.7751 377.473 91.7457 374.384Z" fill="#5D1312"/>
<path d="M88.3999 374.384L51.9848 266.24C50.312 261.219 53.9149 256.069 59.1906 255.94L228.656 252.207C232.002 252.078 234.961 254.138 236.12 257.228L278.068 369.105C279.998 374.255 276.266 379.662 270.733 379.662H95.7345C92.5176 379.662 89.558 377.473 88.3999 374.384Z" fill="#DEE2DF"/>
<path d="M168.285 320.75C169.454 313.52 164.544 306.711 157.318 305.542C150.092 304.372 143.286 309.285 142.117 316.515C140.948 323.745 145.858 330.554 153.084 331.723C160.31 332.893 167.116 327.98 168.285 320.75Z" fill="#CCCECC"/>
<path d="M529.758 387H3.47424C1.54411 387 0 385.455 0 383.524V382.751C0 380.82 1.54411 379.275 3.47424 379.275H529.629C531.559 379.275 533.103 380.82 533.103 382.751V383.524C533.232 385.455 531.688 387 529.758 387Z" fill="#5D1312"/>
</svg>
