<svg width="461" height="475" viewBox="0 0 461 475" fill="none" xmlns="http://www.w3.org/2000/svg">
<path d="M461 234.809V241.857C435.113 245.958 409.302 250.392 383.517 255.159C377.949 256.184 373.177 256.261 369.098 255.492C357.116 253.134 344.775 251.109 332.101 249.392C324.609 248.367 317.348 247.291 310.267 246.112C303.519 244.984 296.335 243.984 288.69 243.164C267.318 240.807 233.99 236.142 188.731 229.197C179.546 227.762 169.668 226.993 160.38 225.686C159.328 225.557 157.994 225.788 156.429 226.429C155.506 226.788 155.531 227.07 156.532 227.198L166.564 228.71C168.18 228.966 168.18 229.197 166.564 229.453C165.46 229.632 164.024 229.658 162.279 229.556C161.638 229.556 161.073 229.684 160.509 229.991C159.38 230.683 158.405 230.606 157.635 229.735C157.071 229.145 156.66 229.222 156.378 229.966C155.608 232.016 155.608 233.733 156.378 235.066C156.917 236.014 158.123 236.706 159.944 237.142C164.588 238.269 169.129 239.192 173.491 239.884C228.499 248.649 286.894 257.26 348.649 265.743C355.141 266.64 361.991 266.871 368.61 267.153C373.588 267.358 378.668 266.948 383.902 265.897C409.43 260.771 435.113 256.337 460.975 252.621V261.053C431.521 265.461 402.195 270.433 372.972 275.995C364.48 277.609 355.885 274.893 347.392 273.56C346.289 273.38 345.391 274.38 345.622 275.456L383.748 446.092C383.876 446.707 384.287 446.989 384.928 446.963C389.341 446.681 393.651 446.63 397.859 446.784C405.53 447.04 414.074 446.22 422.053 447.399C422.259 447.399 422.387 447.604 422.387 447.809C422.387 448.014 422.207 448.168 422.028 448.168C418.436 448.245 415.023 447.399 411.354 447.732C403.837 448.45 395.37 448.552 385.954 448.091C384.338 448.014 383.568 448.783 383.645 450.372C383.645 450.731 383.62 451.038 383.517 451.346C383.132 452.448 383.876 453.652 385.082 453.78C395.96 454.857 406.274 454.806 416.024 453.601C417.127 453.473 418.205 453.55 419.282 453.806C420.565 454.139 421.874 454.037 423.182 453.55C423.464 453.447 423.695 453.524 423.875 453.78C423.978 453.96 424.003 454.165 423.952 454.37C423.901 454.601 423.747 454.703 423.516 454.626C418.692 453.422 414.536 455.6 410.354 455.728C398.09 456.164 384.877 456.266 370.689 456.01C369.739 456.01 368.918 455.369 368.662 454.498C367.456 450.602 366.455 446.912 365.66 443.401C352.062 384.378 341.081 335.274 332.691 296.087C331.819 291.961 332.999 288.655 336.257 286.22C336.745 285.862 337.078 285.349 337.258 284.734C338.181 281.249 338.361 278.122 337.848 275.405C337.514 273.739 336.18 272.509 334.513 272.278C304.751 268.665 275.502 264.41 246.818 259.49C246.253 259.387 245.766 259.9 245.894 260.464C248.999 273.509 251.667 286.784 253.95 300.239C254.361 302.802 256.029 305.621 258.902 308.722C266.42 316.795 269.011 326.047 264.983 337.042C262.699 343.193 262.571 347.985 263.7 354.726C267.266 376.151 271.551 397.807 272.936 419.489C272.988 420.233 273.706 420.745 274.425 420.566C275.297 420.361 276.195 420.335 277.17 420.54C277.991 420.72 277.991 420.95 277.195 421.232C276.426 421.514 275.63 421.668 274.809 421.693C274.399 421.693 274.142 421.898 273.988 422.257C273.886 422.513 273.911 422.719 274.065 422.898C275.169 424.154 276.657 424.666 278.427 424.436C283.533 423.795 288.433 423.846 293.077 424.538C293.718 424.641 294.334 424.589 294.95 424.384C296.053 424.026 297.131 424.026 298.183 424.41C299.081 424.743 299.081 424.923 298.106 424.923L274.399 425.435C273.629 425.435 272.988 426.076 272.936 426.845L272.885 427.819C272.808 428.793 273.244 429.279 274.219 429.254C282.327 429.203 290.64 429.433 299.081 429.92C299.337 429.92 299.465 430.074 299.465 430.356C299.465 430.612 299.337 430.766 299.055 430.766C291.871 431.048 284.251 431.279 276.195 431.484C274.707 431.535 273.552 432.176 272.757 433.431C272.526 433.79 272.449 434.431 272.5 435.328C272.526 435.994 272.885 436.379 273.527 436.481C277.067 437.071 280.505 437.147 283.815 436.609C289.177 435.764 292.513 435.353 293.821 435.328C303.699 435.225 313.5 435.379 323.249 435.764C323.506 435.764 323.711 436.02 323.66 436.276L323.583 436.763C323.583 436.763 323.48 436.942 323.378 436.942C310.626 436.661 297.875 436.763 285.149 437.301C284.764 437.301 284.482 437.634 284.533 438.044L284.61 438.634C284.662 438.916 284.79 439.044 285.098 439.018C294.591 438.916 304.212 439.377 314.013 440.351C323.814 441.351 333.615 440.992 343.749 440.761C349.393 440.633 354.551 442.376 360.169 441.427C361.221 441.222 362.042 441.607 362.607 442.529C362.812 442.888 362.555 443.35 362.145 443.35C347.726 442.991 333.615 442.811 319.786 442.76C314.86 442.76 309.728 441.94 304.751 441.402C299.722 440.838 294.18 441.351 288.767 440.915C285.688 440.659 282.609 438.634 279.12 439.07C276.708 439.377 274.501 439.146 272.526 438.352C272.244 438.249 272.038 438.352 271.91 438.634L271.654 439.3C271.654 439.3 271.654 439.454 271.731 439.505C274.065 440.53 275.733 441.94 276.682 443.632C276.99 444.195 277.452 444.477 278.093 444.529C287.843 445.195 297.541 446.656 307.086 446.707C325.943 446.809 344.852 447.399 363.838 448.527C364.172 448.527 364.3 448.706 364.249 449.039L364.172 449.706C364.12 450.167 363.838 450.346 363.402 450.244C358.194 448.962 353.139 450.397 347.777 450.141C332.357 449.424 317.169 449.014 302.262 448.86C297.387 448.808 292.615 448.501 287.946 447.963C282.763 447.373 282.532 448.142 287.33 450.269C288.048 450.603 289.973 451.115 293.103 451.858C296.9 452.755 300.363 454.319 303.468 456.6C303.853 456.882 304.007 456.779 303.955 456.318L303.75 454.447C303.648 453.678 303.955 453.422 304.699 453.678C308.445 455.011 313.217 453.857 316.142 453.883C327.714 454.037 339.285 454.19 350.83 454.344C354.627 454.37 358.502 453.473 362.427 453.191C364.403 453.063 365.557 453.601 365.916 454.831C366.199 455.856 365.839 456.215 364.813 455.908C363.069 455.369 361.683 454.498 359.759 454.908C355.012 455.908 350.163 456.548 345.263 456.446C333.101 456.19 320.684 456.241 307.984 456.574C306.418 456.625 305.392 457.394 304.956 458.906C304.905 459.137 304.828 459.393 304.828 459.624C304.725 460.905 305.315 461.469 306.572 461.367C318.554 460.341 330.844 460.085 343.415 460.572C343.749 460.572 343.929 460.751 343.903 461.085V461.597C343.903 461.597 343.826 461.777 343.698 461.777C331.588 461.879 319.272 462.494 306.675 463.596C306.034 463.647 305.623 463.955 305.367 464.519C304.802 465.749 304.674 467.03 304.93 468.338C305.213 469.747 304.161 471.105 302.698 471.182C294.232 471.592 285.585 471.772 276.759 471.72C272.654 471.72 268.78 471.387 265.111 470.747C258.415 469.593 253.617 469.619 247.562 469.721C245.227 469.773 242.944 469.465 240.686 468.824C235.888 467.492 230.577 467.133 224.804 467.774C224.753 467.774 224.676 467.748 224.676 467.671L224.625 467.082C224.599 466.697 224.753 466.492 225.138 466.467L239.147 465.698C239.454 465.698 239.634 465.518 239.66 465.211L239.711 464.544C239.711 464.186 239.557 463.981 239.198 463.981C222.29 463.981 204.587 463.929 186.114 463.929C179.982 463.929 173.234 466.185 166.179 465.441C165.974 465.441 165.82 465.313 165.717 465.108L165.435 464.416C165.435 464.416 165.435 464.237 165.563 464.263C169.54 464.749 173.234 464.416 176.672 463.314C179.418 462.417 182.548 461.982 186.037 461.982C203.561 461.982 220.853 461.982 237.941 461.982C239.275 461.982 239.891 461.341 239.865 460.008L239.814 458.163C239.814 456.907 239.147 456.292 237.889 456.266C218.365 456.215 200.713 456.19 184.96 456.164C172.439 456.164 163.305 456.548 157.481 457.368C148.732 458.573 139.496 457.907 129.721 455.318C127.642 454.754 126.077 455.421 125.051 457.292C124.795 457.753 125.205 458.317 125.718 458.214C128.515 457.727 131.132 457.984 133.646 458.932C135.622 459.675 137.931 460.059 140.496 460.059C151.349 460.059 162.176 460.059 173.003 460.059C176.955 460.059 179.879 458.342 183.6 458.265C200.61 457.855 217.595 458.009 234.605 458.701C234.708 458.701 234.759 458.752 234.759 458.855V459.393C234.759 459.598 234.631 459.701 234.426 459.701C217.621 460.162 200.815 460.264 183.985 459.983C182.317 459.983 180.495 460.47 178.545 461.546C177.981 461.853 177.391 462.007 176.749 461.982C170.335 461.956 163.921 462.033 157.532 462.238C151.401 462.443 145.294 462.366 139.239 462.007C137.135 461.905 135.57 461.443 134.467 460.675C133.903 460.29 133.313 460.085 132.645 460.085H126.283C125.308 460.034 125.154 460.393 125.846 461.11C127.104 462.366 126.95 463.545 125.436 464.596C124.384 465.339 124.487 465.723 125.795 465.775L133.98 465.98C134.57 465.98 135.16 465.852 135.699 465.518C138.444 463.801 141.112 464.032 143.678 466.108C144.191 466.543 144.781 466.749 145.474 466.749C152.812 466.697 159.97 467.235 166.949 468.286C177.442 469.901 187.628 467.543 197.891 469.055C201.636 469.619 205.536 469.773 209.641 469.542C212.515 469.363 215.594 469.696 218.826 470.516C221.649 471.208 224.471 471.541 227.293 471.567C237.992 471.592 249.948 470.618 260.39 472.848C264.598 473.745 268.806 474.181 273.065 474.181C273.244 474.181 273.244 474.232 273.065 474.283C269.293 475.821 262.648 474.283 258.569 473.925C247.562 473.002 234.374 473.848 225.831 473.309C223.65 473.181 221.443 471.541 218.698 471.413C214.824 471.234 210.975 470.798 207.178 470.132C206.562 470.029 205.998 470.132 205.459 470.49C204.51 471.131 203.381 471.387 202.021 471.31C195.761 470.9 190.296 470.003 183.805 470.977C178.751 471.72 174.209 471.644 170.181 470.772C165.974 469.85 162.074 469.311 158.456 469.183C154.736 469.029 150.631 468.85 146.167 468.671C144.884 468.619 143.96 468.03 143.421 466.954C143.165 466.39 142.703 466.057 142.113 465.928C139.983 465.416 137.931 465.57 135.955 466.415C131.747 468.158 129.079 468.004 125.077 467.851C124.384 467.799 124.102 468.132 124.23 468.824L124.41 469.773C124.538 470.516 124.974 470.772 125.667 470.593C131.234 469.209 135.545 472.002 140.753 471.797C148.347 471.515 155.967 471.669 163.639 472.284C163.69 472.284 163.69 472.284 163.69 472.336V472.823C163.639 473.181 163.485 473.335 163.126 473.361C156.84 473.489 150.554 473.566 144.268 473.617C140.779 473.617 137.392 473.258 134.159 472.438C130.054 471.413 126.334 471.105 123.101 471.515C119.766 471.926 116.79 471.823 114.121 471.182C112.094 470.695 112.12 470.337 114.173 470.055C116.43 469.747 118.688 469.593 120.946 469.593C121.382 469.593 121.613 469.388 121.613 468.953L121.664 468.363C121.664 468.107 121.562 468.004 121.305 467.979L111.119 467.62C110.375 467.62 109.76 467.851 109.221 468.389C108.477 469.158 107.63 469.363 106.655 468.978C105.783 468.619 105.783 468.389 106.732 468.235C107.835 468.081 108.81 467.748 109.683 467.235C112.274 465.749 114.275 465.493 117.174 466.057C117.842 466.185 118.303 465.954 118.611 465.365C118.791 465.006 118.816 464.724 118.714 464.468C118.124 462.955 116.482 462.084 114.711 462.264C110.889 462.674 106.86 462.545 102.653 461.93C101.19 461.725 99.9075 461.982 98.8299 462.75C98.3424 463.109 97.8036 463.186 97.2392 463.032C92.8262 461.905 88.7211 460.572 84.8726 459.034C84.0003 458.676 84.0516 458.445 84.9753 458.291C86.1555 458.137 87.233 458.291 88.2337 458.727C91.0302 459.906 93.8268 460.444 96.7004 460.341C101.806 460.136 104.449 460.034 104.68 460.059C109.17 460.367 113.48 460.367 117.585 460.059C118.303 460.008 118.791 459.316 118.611 458.65C118.586 458.47 118.534 458.291 118.483 458.112C118.124 456.882 117.277 456.266 115.994 456.266C99.7792 456.318 89.3882 456.318 84.847 456.241C84.1799 456.241 83.6668 456.369 83.2819 456.676C82.7944 457.035 82.2556 457.163 81.6655 457.061C77.2782 456.395 72.9423 455.472 68.7089 454.319C68.4523 454.242 68.3497 454.088 68.4267 453.832C68.478 453.575 68.6319 453.473 68.8372 453.524C73.0962 454.114 77.4322 454.626 81.8195 455.088C83.4359 455.267 84.6674 454.319 85.8219 454.319C96.4951 454.344 106.989 454.344 117.277 454.319C118.175 454.319 118.611 453.857 118.534 452.96L118.457 452.115C118.406 451.218 117.662 450.551 116.79 450.551L78.0993 450.397C77.6118 450.397 77.0986 450.269 76.6625 449.987C75.4309 449.244 74.0711 448.885 72.5574 448.962C72.3265 448.962 72.1982 448.834 72.1725 448.603C72.1725 448.398 72.2752 448.27 72.4804 448.245C75.2257 448.065 77.4322 449.219 80.0492 449.065C90.4915 448.398 101.396 448.219 112.736 448.552C114.301 448.603 115.763 447.86 117.149 446.374C117.38 446.117 117.508 445.836 117.534 445.502C117.662 443.734 116.867 442.863 115.071 442.837C79.4077 442.632 38.7162 443.58 0.436343 442.094C0.205432 442.094 0.0771484 441.966 0.0771484 441.761C0.0771484 441.479 0.231089 441.325 0.487656 441.325C20.6282 440.966 41.3588 440.812 62.6539 440.812C65.7584 440.812 68.7859 440.71 71.7107 440.556C75.8928 440.3 79.8696 440.941 84.1286 440.787C91.2612 440.53 101.498 440.505 114.788 440.659C115.84 440.659 116.456 440.146 116.533 439.095V438.583C116.661 437.532 116.174 436.994 115.122 436.994C94.9044 436.917 74.4303 436.942 53.7254 437.071C48.8249 437.071 44.412 438.173 39.5372 438.249C37.4333 438.301 35.7913 436.481 35.9709 434.405C36.2788 431.227 36.7919 428.382 37.536 425.845C45.4382 399.063 53.5201 372.051 61.8329 344.833C62.346 343.167 61.7816 342.014 60.1652 341.399C52.8017 338.58 49.8769 333.428 51.4419 325.945C51.9294 323.561 53.3405 322.229 54.7003 320.178C56.6502 317.154 55.2135 311.337 54.6233 306.723C52.8017 292.961 50.6466 279.249 48.1579 265.564C47.8243 263.847 47.3368 262.155 46.7211 260.566C46.4645 259.977 46.0283 259.669 45.3869 259.669C41.3588 259.72 32.7895 259.567 31.327 254.39C24.9642 231.76 19.6019 209.719 15.2403 188.268C14.7528 185.833 16.1639 183.424 18.55 182.681C25.9648 180.4 36.2018 181.169 43.8219 181.425C45.5409 181.476 46.5415 180.656 46.7724 178.939C48.1322 169.072 49.2611 159.641 50.236 150.619C50.9544 143.93 52.9043 135.78 58.7797 131.577C63.8854 127.938 71.0436 126.477 77.1499 125.068C85.7963 123.094 85.8219 114.124 94.7505 112.663C98.1115 112.125 101.601 111.92 105.244 112.048C106.604 112.074 107.81 111.203 108.195 109.895C110.298 102.463 111.196 95.0053 110.914 87.573C110.786 84.0618 105.013 81.6784 102.653 79.3462C98.0089 74.7586 97.3161 66.4806 98.3681 60.5348C98.4964 59.8684 98.4194 59.2021 98.1628 58.587C92.4927 44.9525 94.2117 32.984 103.269 22.7069C119.099 4.74123 139.496 -2.61419 164.255 0.820048C179.161 2.87034 190.065 13.9932 199.456 25.0391C203.484 29.7548 205.434 34.983 205.331 40.6982C205.254 45.2601 200.969 46.439 197.352 46.9003C196.146 47.0541 195.53 47.7461 195.53 48.9506C195.376 60.586 193.734 73.9129 190.63 88.9825C189.27 95.5947 187.423 101.182 185.088 105.718C182.573 110.664 175.338 111.484 170.515 112.33C169.796 112.458 169.283 112.817 168.95 113.458C161.894 126.477 155.095 125.273 142.677 120.66C141.317 120.147 139.958 121.505 140.496 122.864C141.908 126.554 144.088 129.476 147.09 131.654C163.51 143.546 177.391 158.436 191.682 172.66C193.708 174.685 196.351 176.863 199.686 179.247C206.28 183.937 214.388 183.322 221.905 183.552C233.297 183.911 244.971 185.09 256.952 187.115C260.442 187.704 262.263 191.087 263.546 194.086C264.418 196.213 266.856 197.187 268.96 196.29C278.145 192.317 288.536 191.856 300.056 194.931C303.032 195.726 306.136 194.188 307.342 191.343L310.19 184.654C311.499 181.604 310.498 179.887 307.188 179.528C284.508 177.017 264.085 174.428 245.971 171.737C242.174 171.174 237.505 170.148 231.911 168.585C226.267 167.022 223.65 163.306 224.06 157.411C224.804 146.596 226.036 135.857 227.755 125.196C232.63 95.2103 238.582 60.7398 245.612 21.8099C248.178 7.53475 259.261 7.30409 271.448 8.45738C295.797 10.8152 319.503 12.5836 344.57 15.3515C372.382 18.4269 400.476 21.3742 428.775 24.1421C437.678 25.0135 448.813 26.5512 447.171 38.6223C445.478 50.9753 443.502 63.7896 441.245 77.0396C435.395 111.279 429.93 144.187 424.824 175.812C422.515 190.164 414.1 192.753 400.348 190.908C387.802 189.242 374.665 187.345 360.99 185.269C359.117 184.987 357.911 185.756 357.373 187.576C355.551 193.752 354.807 200.493 355.192 207.797C355.371 211.026 356.885 212.82 359.733 213.23C394.164 218.048 427.929 225.224 460.975 234.758M191.887 35.3674C179.982 41.6465 168.462 48.925 157.353 57.2287C157.019 57.4593 156.994 57.7412 157.25 58.0488L157.532 58.4588C157.532 58.4588 157.738 58.5613 157.84 58.4845C167.513 51.129 177.673 44.5169 188.372 38.7248C190.886 37.3921 193.067 37.0589 195.812 36.7514C197.377 36.5976 198.25 34.8549 197.429 33.5222C184.523 11.9941 160.996 0.97382 136.494 9.22624C123.435 13.6344 113.352 21.1948 106.296 31.9588C104.885 34.1373 104.013 36.6745 103.782 39.6218C103.679 40.7751 103.884 40.8263 104.449 39.8012C105.809 37.2383 107.014 34.6755 108.913 32.3689C124.358 13.6856 151.991 3.38291 174.646 15.3771C181.804 19.1701 187.91 23.9883 192.939 29.8317C194.452 31.5744 193.939 34.2654 191.913 35.3418M407.763 146.468C409.661 146.673 411.406 145.366 411.739 143.469L429.006 42.2103C429.366 40.1344 427.903 38.1866 425.799 37.9816L263.674 21.2461C261.75 21.0667 260.031 22.3737 259.723 24.2702L242.738 125.529C242.405 127.579 243.867 129.501 245.946 129.732L407.763 146.468ZM133.543 89.7514C134.031 89.9052 134.211 90.469 133.928 90.879C131.824 93.9032 131.491 96.6711 132.851 99.2596C137.11 107.23 143.036 113.073 150.579 116.738C152.478 117.687 154.069 118.045 155.377 117.866C159.816 117.174 162.022 109.665 162.253 105.821C162.305 104.642 163.382 103.796 164.537 104.027C171.054 105.231 178.597 107.82 180.957 98.6702C185.165 82.3191 189.013 65.0966 187.602 48.1049C187.551 47.5667 187.012 47.2079 186.499 47.3873C183.933 48.2586 181.675 49.2838 179.777 50.5396C173.209 54.8196 165.204 59.5096 155.762 64.661C150.426 67.5314 147.398 72.7084 145.115 78.1416C144.242 80.2175 141.523 80.7045 140.009 79.0386C136.827 75.6044 129.413 65.4811 124.23 71.4525C120.151 76.1682 119.458 80.8583 122.126 85.5739C124.923 90.4434 129.259 88.3162 133.543 89.7514ZM124.461 98.3882C124.461 98.0551 124.41 97.7475 124.307 97.4656L123.127 94.2364C122.306 92.058 119.176 92.2374 118.611 94.4927L114.737 110.126C114.455 111.356 115.173 112.612 116.379 112.945L120.818 114.227C122.306 114.637 123.768 113.56 123.845 112.048L124.435 98.3882M138.085 120.813C138.649 121.07 139.188 120.454 138.88 119.942L129.284 103.488C128.977 102.95 128.13 103.181 128.156 103.822L128.207 115.918C128.207 116.149 128.335 116.354 128.566 116.456L138.085 120.813ZM92.0052 123.248C95.905 122.197 99.8305 121.557 103.73 121.3C104.68 121.249 104.731 120.993 103.91 120.557C100.498 118.686 91.4664 116.072 91.3381 122.684C91.3381 123.043 91.6717 123.325 92.0309 123.248M123.255 123.274C128.104 125.247 131.978 129.501 132.774 134.268C132.953 135.37 133.261 135.37 133.672 134.371C134.467 132.474 134.852 130.527 134.801 128.553C134.801 127.836 134.441 127.297 133.851 126.887C130.824 124.914 127.309 123.632 123.306 123.017C122.511 122.915 122.485 123.017 123.229 123.299M96.8287 132.961C97.0852 132.09 95.1866 130.808 92.621 130.116C90.0553 129.425 87.7718 129.553 87.5409 130.424C87.2844 131.295 89.183 132.577 91.7486 133.269C94.3143 133.961 96.5978 133.833 96.8287 132.961ZM64.4242 149.21C67.8622 140.932 72.66 137.523 79.1255 132.961C80.9728 131.654 80.7676 131.193 78.5611 131.552C71.8134 132.705 62.8592 135.422 60.8323 142.956C60.0369 145.904 58.8054 152.029 57.112 161.358C56.8555 162.716 56.7015 164.074 56.5989 165.407C56.368 168.816 56.8298 168.918 58.01 165.715C60.0882 159.999 62.2177 154.489 64.4242 149.184M137.982 137.677L137.854 138.266C137.674 139.368 138.059 140.137 139.085 140.599C147.142 144.263 153.633 148.543 158.584 153.362C169.335 163.869 179.084 173.48 187.782 182.219C189.886 184.347 191.528 185.654 192.657 186.218C196.402 188.012 196.813 187.422 193.862 184.5C182.137 172.916 170.72 161.486 159.662 150.286C154.351 144.879 147.603 140.419 139.393 136.908C138.777 136.652 138.059 137.011 137.956 137.703M238.89 138.881C236.478 138.625 234.297 140.291 233.938 142.7L231.834 156.668C231.475 159.179 233.245 161.486 235.734 161.768L404.812 182.604C407.224 182.886 409.405 181.246 409.815 178.888L412.483 162.767C412.894 160.204 411.124 157.847 408.532 157.565L238.839 138.881M196.916 216.895C197.044 216.664 196.941 216.357 196.71 216.229L127.976 179.862C127.719 179.733 127.437 179.836 127.309 180.067L126.77 181.092C126.642 181.322 126.744 181.63 126.975 181.758L195.71 218.125C195.966 218.253 196.248 218.151 196.377 217.92L196.916 216.895ZM321.966 182.988L322.787 183.322C323.429 183.578 323.66 183.373 323.48 182.732C323.378 182.322 323.121 182.04 322.736 181.835C322.326 181.63 321.889 181.527 321.453 181.553C318.862 181.758 317.348 183.501 316.912 186.73C316.732 187.909 317.092 188.088 317.938 187.243C318.965 186.218 319.76 185.039 320.35 183.655C320.632 183.014 321.325 182.732 321.966 182.988ZM320.53 190.472C320.17 190.113 319.76 190.062 319.324 190.318C318.272 190.908 317.553 190.549 317.169 189.267C316.809 188.037 316.322 187.986 315.706 189.114L311.242 197.187C310.934 197.75 311.319 198.442 311.96 198.442C318.785 198.724 327.021 199.109 333.409 196.828C340.414 194.316 343.159 190.087 347.495 185.167C347.88 184.757 347.803 184.424 347.264 184.244C346.93 184.142 346.597 184.244 346.212 184.5C344.39 185.833 342.671 187.396 341.081 189.19C339.259 191.241 336.309 192.907 332.255 194.214C327.97 195.623 323.557 193.394 320.555 190.446M322.89 186.089C323.814 187.653 324.943 188.498 326.277 188.627C328.637 188.883 328.791 188.422 326.687 187.294C325.584 186.704 324.635 185.859 323.865 184.757C323.685 184.5 323.506 184.526 323.352 184.757L322.941 185.346C322.762 185.577 322.762 185.807 322.941 186.064M329.048 189.626C327.226 190.523 326.02 190.369 324.173 190.139C323.429 190.036 323.301 190.267 323.788 190.831C324.276 191.395 324.814 191.83 325.43 192.163C326.148 192.599 327.098 192.676 328.175 192.368C331.947 191.395 335.488 189.882 338.772 187.781C339.054 187.601 339.387 187.525 339.747 187.576C339.977 187.576 340.208 187.627 340.414 187.627C341.209 187.627 341.312 187.371 340.722 186.833C339.695 185.884 338.566 185.295 337.309 185.039C336.668 184.91 336.078 185.039 335.539 185.397C334.564 186.064 333.769 186.884 333.127 187.883C332.794 188.396 332.306 188.704 331.69 188.806C330.741 188.934 329.869 189.242 329.048 189.626ZM66.8103 186.499L62.5256 187.191C62.2691 187.243 62.0638 187.473 62.1151 187.755L62.1664 188.012C68.2727 226.557 74.2251 257.645 75.431 257.439L76.3033 257.311C77.5091 257.132 73.558 225.711 67.4517 187.191L67.4004 186.935C67.3491 186.653 67.0925 186.474 66.8103 186.499ZM39.7168 207.771C43.7706 206.9 47.7473 206.413 51.6215 206.362C52.032 206.362 52.3912 206.259 52.7247 206.003C53.6997 205.362 53.6227 204.952 52.4425 204.773L34.7907 202.21C32.8664 201.928 31.6349 200.851 31.0705 198.981L30.2495 196.161C29.685 194.239 30.4291 193.265 32.4303 193.214L53.1096 192.753C53.4688 192.753 53.7254 192.445 53.674 192.086C53.6227 191.497 53.2379 191.266 52.5195 191.369C52.2886 191.42 51.9807 191.548 51.6215 191.805C50.7492 192.368 49.9538 192.394 49.1585 191.907C48.7223 191.625 48.2348 191.471 47.7473 191.42L25.0668 189.062C24.0918 188.96 23.3221 189.831 23.5017 190.779C27.0167 207.899 31.2757 225.481 36.2531 243.549C36.5354 244.574 37.8182 245.01 38.6649 244.369C39.4859 243.703 40.4352 243.344 41.4871 243.241C45.9257 242.78 50.5439 242.395 55.3161 242.114C57.9844 241.934 59.3698 240.55 62.0125 242.19C62.9874 242.806 63.2953 242.549 62.9618 241.447C62.2947 239.346 60.9349 238.064 58.8311 237.654C54.5207 236.834 49.8769 236.322 44.8738 236.142C41.4358 236.014 39.1523 234.297 37.9978 231.042L37.7669 230.35C36.6123 227.044 37.7669 225.429 41.2818 225.532C46.8494 225.66 52.7247 225.455 58.9593 224.891C60.8323 224.712 60.8836 224.302 59.1389 223.635C53.7254 221.611 47.8243 220.304 41.4614 219.714C35.6374 219.15 33.0974 215.998 33.8671 210.18C33.9697 209.437 34.6881 208.899 35.4321 209.027C36.9202 209.283 38.3313 209.283 39.7424 208.976C39.999 208.924 40.0503 208.822 39.922 208.694L39.5629 208.335C39.2293 208.053 39.2806 207.822 39.7424 207.746M251.718 196.853C252.899 200.749 253.54 205.131 253.694 210.001C253.694 210.206 253.822 210.334 254.053 210.36C254.412 210.411 254.618 210.257 254.694 209.898C255.49 204.619 255.285 199.442 254.104 194.419C253.925 193.727 253.36 193.214 252.642 193.137C246.972 192.522 241.969 190.856 236.093 190.651C230.526 190.472 224.933 189.985 219.365 189.242C215.542 188.729 210.873 188.678 205.382 189.165C205.331 189.165 205.28 189.19 205.28 189.267L205.203 189.754C205.151 189.959 205.254 190.113 205.485 190.113L249.845 195.29C250.82 195.418 251.436 195.931 251.718 196.879M315.219 203.876C312.858 203.619 311.909 202.466 310.01 201.21C309.446 200.851 309.087 201.005 308.984 201.697C308.42 205.823 310.164 208.053 314.218 208.335C326.662 209.232 345.032 212.999 348.906 195.777C349.188 194.572 348.855 194.393 348.008 195.29C344.057 199.314 340.927 204.132 334.743 204.388C327.637 204.696 321.145 204.516 315.244 203.876M301.544 207.387C303.391 208.284 305.469 208.796 307.778 209.027C308.574 209.078 308.676 208.848 308.112 208.309C301.184 201.748 292.949 196.623 283.02 199.288C277.555 200.723 277.632 201.697 283.276 202.21C289.434 202.748 295.54 204.491 301.544 207.387ZM143.652 258.9C144.011 265.794 144.601 265.82 145.371 258.952C145.602 257.004 145.576 254.185 145.32 250.52C144.909 244.01 145.448 237.5 145.525 230.76C145.576 227.044 145.833 223.328 146.346 219.586C147.116 213.896 147.398 207.899 147.193 201.569C147.142 200.749 146.397 200.134 145.576 200.288L144.755 200.467C144.242 200.57 143.883 201.005 143.909 201.492C144.011 211.205 143.575 221.047 142.677 231.016C141.805 240.499 143.19 249.751 143.652 258.9ZM264.624 204.363C264.521 204.132 264.393 203.953 264.188 203.85C263.674 203.594 263.366 203.748 263.29 204.311L261.904 214.46C261.801 215.178 262.109 215.562 262.828 215.614L293.667 218.125C295.283 218.228 296.412 216.536 295.617 215.127C293.872 211.974 290.665 210.027 286.047 209.335C280.3 208.438 274.194 207.566 267.754 206.695C266.317 206.49 265.111 205.618 264.624 204.363ZM176.159 218.305C170.412 214.845 163.408 211.513 157.635 208.719C156.198 208.028 155.506 208.463 155.557 210.052L155.608 211.769C155.66 213.076 156.532 214.204 157.789 214.512L175.774 219.253C178.135 219.868 178.263 219.56 176.159 218.305ZM328.381 216.28L309.856 215.562C309.677 215.562 309.549 215.665 309.549 215.844V215.972C309.472 217.843 313.577 219.484 318.734 219.689H319.196C324.353 219.919 328.612 218.586 328.689 216.716V216.587C328.689 216.408 328.56 216.28 328.381 216.28ZM361.811 223.84C361.863 224.02 361.863 224.199 361.811 224.379C361.657 224.814 361.35 225.019 360.888 224.917C357.604 224.353 354.268 223.943 350.933 223.687C347.264 223.405 343.595 221.252 339.49 222.123C337.694 222.508 337.694 222.866 339.49 223.225C344.775 224.25 350.266 225.66 355.936 227.454C363.992 230.042 372.562 229.581 380.772 229.453C381.798 229.453 382.593 230.273 382.542 231.298C382.491 232.631 381.849 233.502 380.669 233.938C372.69 236.885 365.455 237.013 356.218 235.373C336.309 231.862 316.322 227.915 296.31 226.096C282.429 224.84 268.857 223.148 255.131 224.532C249.127 225.147 243.79 225.071 238.223 225.224C236.042 225.276 236.016 225.557 238.146 226.044C239.968 226.454 242.148 226.788 244.637 227.018C280.48 230.632 311.114 234.656 336.539 239.064C346.238 240.73 356.193 242.319 366.43 243.754C370.766 244.369 375.05 244.471 379.489 243.754C399.321 240.576 419 237.68 438.551 235.091C440.116 234.886 440.116 234.681 438.551 234.425L395.96 227.557C395.216 227.454 394.703 227.762 394.472 228.479L394.088 229.658C393.908 230.171 394.088 230.401 394.652 230.299L398.783 229.479C398.911 229.479 398.988 229.479 399.014 229.479L399.219 230.017C399.475 230.606 399.27 230.991 398.654 231.17L391.496 233.22C390.624 233.477 389.803 232.733 389.931 231.837C390.136 230.658 390.598 229.632 391.394 228.787C392.676 227.377 392.394 226.429 390.521 225.993C379.797 223.379 368.559 220.893 356.783 218.561C354.422 218.074 352.036 218.228 349.676 219.022C349.086 219.202 348.444 219.099 348.008 218.663L347.007 217.741C346.52 217.305 345.955 217.074 345.314 217.023L338.951 216.767C337.899 216.716 337.745 217.049 338.515 217.792C339.695 218.92 340.952 219.202 342.312 218.663C343.262 218.253 344.339 218.638 344.878 219.483C345.545 220.586 346.751 221.508 348.111 221.406C352.549 221.021 357.09 221.79 361.709 223.738C361.76 223.738 361.811 223.815 361.837 223.866M168 221.124C168.052 220.944 166.333 220.278 164.178 219.689C162.022 219.073 160.226 218.74 160.175 218.92C160.124 219.099 161.843 219.765 163.998 220.355C166.153 220.97 167.949 221.303 168 221.124ZM206.973 284.119C219.083 287.835 232.373 293.473 244.945 298.42C245.253 298.548 245.586 298.266 245.509 297.933C243.534 287.835 241.712 277.763 240.045 267.768C239.788 266.256 239.172 263.693 238.146 260.13C237.966 259.515 237.581 259.105 236.991 258.849C235.58 258.285 234.169 257.875 232.681 257.645C211.796 254.518 190.168 251.212 167.821 247.752C167.025 247.624 166.641 247.957 166.641 248.751L167.128 268.409C167.179 270.895 168.873 273.047 171.259 273.688C183.831 277.174 195.735 280.633 206.999 284.119M74.8152 319.743C69.5556 307.262 66.4254 298.727 65.4761 294.088C63.2953 283.658 60.8836 273.944 58.1896 264.923C57.9844 264.257 57.7278 264.231 57.4456 264.872C56.8042 266.307 56.6246 267.819 56.8811 269.408C59.3955 284.683 62.0895 300.829 65.0143 317.872C65.2965 319.64 66.3485 320.64 68.1188 320.896L73.3784 321.614C74.9435 321.819 75.4053 321.204 74.7895 319.768M221.982 296.113C222.187 295.37 221.751 294.627 221.033 294.396L153.376 275.405C152.658 275.2 151.888 275.636 151.657 276.353C151.452 277.122 151.888 277.891 152.606 278.096L220.263 297.087C220.982 297.292 221.751 296.856 221.982 296.139M342.415 292.884C342.235 292.089 341.44 291.602 340.67 291.782H340.645C339.849 291.961 339.362 292.73 339.541 293.525L373.87 446.938C374.05 447.732 374.845 448.219 375.615 448.04H375.64C376.436 447.86 376.923 447.091 376.744 446.297L342.415 292.884ZM238.608 362.312C247.87 351.497 253.873 343.68 256.619 338.913C261.16 331.096 261.134 319.871 253.566 313.822C251.847 312.439 251.436 312.746 252.385 314.771C254.13 318.513 255.464 322.024 256.337 325.227C258.184 331.968 252.822 340.886 249.024 346.191C244.919 351.907 240.994 357.34 237.222 362.44C236.093 363.978 235.093 365.618 234.246 367.335C234.143 367.54 234.195 367.694 234.349 367.796C234.528 367.925 234.682 367.899 234.811 367.719C236.222 365.926 237.094 364.08 238.582 362.312M82.974 315.283C82.2556 315.001 82.153 315.155 82.6662 315.745C84.9496 318.256 87.9514 320.025 91.6717 321.05C98.3937 322.921 104.166 324.202 108.939 324.868C120.741 326.509 135.032 327.457 151.811 327.739C156.455 327.841 160.945 328.149 165.358 328.713C168.95 329.148 172.619 329.148 176.339 328.687C176.493 328.687 176.57 328.61 176.57 328.482C176.57 328.431 176.518 328.38 176.518 328.303C176.441 328.149 176.262 328.072 175.98 328.046C172.08 327.841 168.334 327.406 164.819 326.765C160.586 325.97 156.352 325.484 152.093 325.304C136.879 324.612 120.484 323.1 102.909 320.793C97.701 320.102 91.0559 318.282 82.974 315.309M64.3216 335.556C83.3589 342.885 101.703 345.115 121.382 346.448C132.209 347.191 143.165 346.96 154.223 345.781C167.359 344.397 181.111 344.654 194.093 344.654C196.402 344.654 198.532 343.475 199.763 341.553L200.661 340.194C201.919 338.221 201.38 337.247 199.045 337.298C173.901 337.632 149.22 338.042 124.948 338.529C115.994 338.708 105.937 337.683 97.2135 336.043C85.7193 333.864 73.9429 331.609 61.8585 329.302C59.729 328.892 59.0876 329.687 59.9599 331.66C60.7296 333.454 62.1921 334.735 64.3216 335.556ZM174.363 389.299C173.824 388.274 174.107 387.018 175.082 386.352C178.007 384.327 180.418 382.2 182.291 379.944C192.862 367.284 203.201 354.393 213.336 341.322C213.798 340.707 213.669 340.502 212.925 340.733C211.514 341.168 210.308 341.963 209.256 343.09C201.226 351.599 193.811 360.595 186.986 370.052C183.087 375.485 176.955 381.123 173.183 387.838C172.773 388.581 172.824 389.504 173.311 390.17C176.057 394.066 178.648 398.192 181.111 402.523C181.239 402.728 181.368 402.754 181.573 402.651C181.778 402.523 181.829 402.369 181.701 402.164C179.135 397.756 176.698 393.476 174.389 389.273M70.5818 350.753C70.8127 350.01 70.4022 349.216 69.6325 348.985H69.5556C68.8115 348.729 68.0162 349.164 67.7852 349.908L43.4114 429.049C43.1804 429.792 43.6166 430.587 44.3607 430.817H44.4376C45.1817 431.073 45.977 430.638 46.2079 429.895L70.5818 350.753ZM51.5445 434.277C51.4419 434.661 51.7498 435.072 52.1346 435.046L116.302 432.406C116.636 432.406 116.892 432.124 116.867 431.791L114.686 355.648C114.686 355.392 114.48 355.136 114.173 355.085L79.0999 349.036C78.792 348.985 78.5354 349.139 78.4328 349.446L51.5189 434.277M153.453 417.875C153.581 417.439 153.889 417.285 154.325 417.439L157.173 418.413C157.584 418.541 157.994 418.182 157.866 417.747L153.222 400.242C152.735 398.371 153.633 396.449 155.377 395.629C158.713 394.04 161.894 393.041 164.178 389.94C173.286 377.612 182.804 366.669 191.322 353.803C192.066 352.676 191.784 352.112 190.424 352.112C172.773 352.24 154.197 353.188 134.672 354.931C134.39 354.931 134.159 355.187 134.159 355.495C134.031 375.254 134.159 395.757 134.57 417.003C134.621 419.566 135.596 421.719 137.52 423.436C137.982 423.872 138.341 424.384 138.521 424.974C139.393 427.716 141.189 429.51 144.242 429.69C149.348 429.971 154.351 429.946 159.226 429.638C160.252 429.587 160.97 428.587 160.688 427.588L158.482 419.746C158.277 419.002 157.815 418.772 157.122 419.105C156.07 419.566 154.864 419.746 153.53 419.669C153.12 419.669 152.991 419.438 153.12 419.028L153.479 417.9M256.311 353.573C256.157 352.676 255.31 352.086 254.438 352.24H254.335C253.463 352.394 252.847 353.239 253.001 354.136L263.52 416.875C263.674 417.772 264.521 418.362 265.393 418.208H265.496C266.368 418.054 266.984 417.208 266.83 416.311L256.311 353.573ZM126.231 362.286C126.231 361.774 125.821 361.338 125.282 361.338H125.205C124.692 361.338 124.281 361.774 124.256 362.286L124.461 419.131C124.461 419.643 124.871 420.079 125.41 420.079H125.487C126 420.079 126.411 419.669 126.437 419.131L126.231 362.286ZM217.928 431.535C208.23 431.458 198.532 431.381 188.834 431.304C187.063 431.304 185.883 432.022 185.293 433.457C185.036 434.098 185.242 434.508 185.883 434.713C189.296 435.866 192.554 436.481 195.633 436.532C207.871 436.789 220.879 436.942 234.657 437.019C235.324 437.019 235.862 436.507 235.862 435.84C235.862 435.43 235.786 435.02 235.606 434.636C234.682 432.739 233.476 432.816 231.963 431.894C231.732 431.765 231.655 431.458 231.783 431.202C231.911 430.971 232.219 430.868 232.45 430.997C233.04 431.304 233.476 431.253 233.836 430.792C234.092 430.484 234.169 430.1 234.092 429.664C231.68 414.979 227.652 400.755 221.982 387.018C221.572 386.07 221.007 385.967 220.314 386.71C211.694 395.552 202.509 404.01 192.708 412.083C186.422 417.26 184.908 420.053 186.037 428.229C186.14 428.895 186.499 429.126 187.14 428.869C189.347 428.075 192.426 429.151 194.889 429.228C202.714 429.433 210.411 430.074 217.928 431.176C219.519 431.407 219.493 431.509 217.928 431.509M163.357 396.398L160.919 397.116C160.663 397.192 160.509 397.474 160.56 397.731L160.663 398.089C169.155 426.87 176.647 450.013 177.468 449.782L177.981 449.629C178.776 449.398 172.542 425.871 164.075 397.09L163.972 396.757C163.895 396.5 163.639 396.347 163.357 396.424M251.975 429.792C251.975 429.792 252.078 429.946 252.18 429.92C255.516 429.561 258.697 429.177 261.776 428.793C262.186 428.741 262.34 428.511 262.289 428.101L262.186 427.562C262.186 427.562 262.135 427.511 262.109 427.537C258.851 428.177 255.592 428.793 252.334 429.331C252.078 429.382 251.949 429.536 251.975 429.818M159.534 437.224C152.35 439.326 144.858 439.685 137.161 438.275C136.674 438.173 136.417 437.686 136.571 437.25L136.802 436.661C136.802 436.661 136.879 436.558 136.956 436.584C139.137 436.84 141.163 436.789 143.062 436.43C144.088 436.225 144.063 436.071 143.062 435.917C140.984 435.635 139.034 435.661 137.212 436.071C134.39 436.686 132.543 437.019 131.645 437.045C129.438 437.147 127.181 437.199 124.846 437.25C124.512 437.25 124.333 437.609 124.487 437.891L125.179 439.07C125.359 439.352 125.692 439.505 126 439.48C129.361 439.07 132.312 439.223 134.826 439.967C137.135 440.633 139.624 440.966 142.267 440.992C149.297 440.992 156.404 440.992 163.536 440.864C164.203 440.864 164.742 440.249 164.614 439.582C164.485 438.762 163.947 438.096 163.074 437.557C162.561 437.25 162.279 436.789 162.279 436.174L162.33 431.97C162.33 431.099 161.92 430.715 161.047 430.74C152.222 431.176 143.678 431.355 135.468 431.33C131.799 431.33 129.336 433.021 125.795 432.97C125.436 432.97 125.128 433.149 124.948 433.457C124.871 433.636 124.846 433.816 124.846 433.97C124.846 434.456 125.128 434.764 125.616 434.866C130.003 435.763 134.031 434.277 137.854 434.2C140.804 434.149 143.755 433.995 146.705 433.764C150.605 433.431 153.966 434.815 157.994 433.611C159.098 433.278 159.919 433.457 160.483 434.123C161.15 434.943 160.97 435.302 159.919 435.302C157.096 435.2 154.171 435.405 151.17 435.892C150.323 436.02 150.297 436.25 151.093 436.558C153.71 437.506 156.532 437.327 159.585 436.045C159.636 436.02 159.713 436.045 159.739 436.097L159.893 436.609C159.996 436.968 159.893 437.199 159.534 437.276M234.888 444.605L186.653 444.939C186.242 444.939 186.011 445.144 186.011 445.579L186.063 447.63C186.063 448.296 186.422 448.578 187.038 448.475C200.328 446.733 213.259 446.502 225.779 447.783C229.731 448.193 233.733 447.117 237.889 447.348C238.479 447.399 238.659 447.681 238.454 448.245L238.172 448.962C238.043 449.27 237.761 449.475 237.453 449.475L187.833 449.526C187.243 449.526 186.679 449.706 186.191 450.039C185.781 450.321 185.524 450.526 185.37 450.628C183.651 451.884 183.856 452.525 185.986 452.525C198.788 452.525 211.771 452.576 224.907 452.602C230.09 452.602 234.349 453.088 237.684 453.985C239.326 454.421 240.07 453.78 239.942 452.115L239.198 442.017C239.095 440.377 237.684 439.095 236.042 439.095H186.55C185.96 439.095 185.704 439.377 185.729 439.967L185.832 441.991C185.883 442.658 186.217 442.991 186.884 442.991L234.939 442.888C235.195 442.888 235.324 443.016 235.324 443.247V444.221C235.324 444.503 235.195 444.631 234.913 444.631M262.828 440.838L251.821 441.325C251.667 441.325 251.539 441.453 251.564 441.632V441.94C251.641 443.555 254.181 444.759 257.235 444.631H257.773C260.826 444.452 263.238 443.042 263.161 441.402V441.094C263.161 440.94 263.007 440.838 262.853 440.838M154.659 443.76C152.658 443.35 148.45 443.375 146.397 444.118C145.807 444.323 145.192 444.375 144.576 444.195C142.934 443.76 141.292 443.811 139.675 444.375C139.06 444.58 138.444 444.58 137.854 444.375C133.595 442.888 129.746 442.35 126.257 442.811C123.614 443.145 123.512 443.862 125.923 444.964C127.719 445.784 128.797 446.758 131.055 446.758C142.831 446.809 154.351 446.809 165.64 446.809C166.615 446.809 166.974 446.348 166.692 445.4L166.512 444.708C166.256 443.811 165.666 443.375 164.716 443.452C161.381 443.606 158.071 444.477 154.659 443.76ZM128.463 453.319C129.105 453.985 129.669 454.344 130.157 454.396C134.005 454.831 137.854 455.267 141.728 455.703C145.679 456.138 149.374 456.19 152.812 455.779C158.944 455.062 165.614 454.575 172.901 454.242C173.055 454.242 173.106 454.062 173.029 453.96C170.925 451.884 169.283 450.218 168.052 448.937C167.795 448.68 167.513 448.552 167.154 448.578C155.146 448.757 142.985 448.783 130.67 448.706C128.848 448.706 127.078 449.526 125.41 451.243C124.615 452.038 124.794 452.422 125.898 452.499H126.719C127.437 452.576 128.027 452.832 128.515 453.37M252.975 455.395C250.718 454.601 248.819 453.293 247.254 451.499C246.613 450.782 246.382 450.91 246.51 451.858C246.946 454.985 248.409 457.035 250.872 457.984C262.212 462.34 276.349 462.725 288.638 464.083C291.076 464.365 293.564 464.288 296.079 463.904C299.26 463.417 299.26 462.93 296.079 462.392C289.305 461.264 282.147 460.418 274.63 459.829C266.881 459.265 259.672 457.779 252.95 455.421L252.975 455.395Z" fill="#002657"/>
</svg>
