<svg width="380" height="486" viewBox="0 0 380 486" fill="none" xmlns="http://www.w3.org/2000/svg">
<g clip-path="url(#clip0_656_4401)">
<path d="M194.51 41.5097C194.51 42.096 194.043 42.5651 193.499 42.6041L181.68 42.8778C181.097 42.8778 180.63 42.4478 180.591 41.8615L179.658 1.36802C179.658 0.781727 180.125 0.312691 180.669 0.273605L192.527 0C193.11 0 193.577 0.42995 193.616 1.01625L194.549 41.5097H194.51Z" fill="#002657"/>
<path d="M262.508 43.425C260.992 46.8646 257.026 48.3889 253.644 46.9037L253.061 46.6691C249.678 45.1448 248.123 41.158 249.601 37.7575L257.221 20.2858C258.737 16.8462 262.703 15.3219 266.085 16.8072L266.668 17.0417C270.051 18.566 271.606 22.5528 270.129 25.9534L262.508 43.425Z" fill="#002657"/>
<path d="M131.371 46.7863C132.732 50.4214 130.905 54.4863 127.25 55.8544L125.734 56.4407C122.118 57.8087 118.075 55.9716 116.714 52.2975L107.772 28.2985C106.411 24.6634 108.239 20.5984 111.893 19.2304L113.41 18.6441C117.025 17.2761 121.069 19.1132 122.429 22.7873L131.371 46.7863Z" fill="#002657"/>
<path d="M81.4123 72.7008C83.2785 76.1404 81.9955 80.4399 78.5742 82.3551L77.7577 82.7851C74.2975 84.6612 70.0209 83.3714 68.1547 79.9318L54.1195 53.9784C52.2533 50.5388 53.5363 46.2393 56.9576 44.3241L57.7741 43.8941C61.2343 42.018 65.5109 43.3078 67.3771 46.7474L81.4123 72.7008Z" fill="#002657"/>
<path d="M299.444 62.968L311.496 46.669C312.896 44.7929 315.384 44.0893 317.522 44.9492L323.082 47.1771C326.348 48.5061 327.359 52.6883 325.026 55.3462L317.406 64.1406C316.978 64.6097 316.512 65.0005 315.967 65.2741L305.975 70.5899C301.154 73.1696 296.178 67.3848 299.444 62.968Z" fill="#002657"/>
<path d="M44.8665 125.545C45.1386 128.594 44.6332 130.9 43.4279 132.464C42.6115 133.519 41.5618 133.949 40.2399 133.832C27.1378 132.464 15.1632 128.203 4.31601 120.972C2.37208 119.682 1.47787 117.298 2.09993 115.031C3.6162 109.442 8.43715 107.839 16.6017 110.184C16.9127 110.302 17.2237 110.38 17.4959 110.497C25.3882 113.82 33.8638 117.885 42.9225 122.614C44.1278 123.239 44.7498 124.216 44.8665 125.545Z" fill="#002657"/>
<path d="M334.629 125.545C342.677 118.393 356.012 112.96 365.771 110.185C368.376 109.442 371.097 110.966 371.875 113.585L372.575 115.969C373.391 118.744 372.147 121.715 369.581 123.044C359.434 128.242 349.053 131.487 338.439 132.855C333.735 133.441 332.18 131.487 333.696 126.953C333.89 126.405 334.201 125.936 334.629 125.545Z" fill="#002657"/>
<path d="M33.358 205.321C34.3688 209.581 27.7595 214.858 18.5841 217.046C9.40874 219.274 1.12759 217.633 0.116743 213.333C-0.894102 209.073 5.71527 203.796 14.8906 201.607C24.066 199.379 32.3472 201.021 33.358 205.321Z" fill="#002657"/>
<path d="M380 209.894C380 213.724 372.263 216.851 362.738 216.812C353.252 216.773 345.554 213.607 345.554 209.738C345.554 205.868 353.291 202.78 362.816 202.819C372.302 202.858 380 206.024 380 209.894Z" fill="#002657"/>
<path d="M370.047 299.558C368.337 302.255 364.76 303.037 362.038 301.317L332.413 282.204C329.73 280.445 328.953 276.849 330.663 274.152L332.568 271.181C334.279 268.484 337.856 267.703 340.577 269.422L370.203 288.536C372.885 290.295 373.663 293.89 371.952 296.587L370.047 299.558Z" fill="#002657"/>
<path d="M54.0798 275.715C56.6458 279.194 50.6585 288.067 40.7444 295.571C30.7915 303.037 20.6442 306.32 18.0393 302.841C15.4733 299.363 21.4606 290.49 31.3747 282.985C41.3276 275.52 51.475 272.237 54.0798 275.715Z" fill="#002657"/>
<path d="M305.081 106.901C292.601 91.2274 278.643 79.697 263.131 72.3487C210.606 47.4116 147.7 61.4436 103.65 97.5594C81.2563 115.891 66.0936 139.421 58.1624 168.071C47.1597 207.822 64.1886 247.573 90.5094 276.419C115.197 303.506 127.133 337.159 126.317 377.379C126.2 382.46 128.222 387.268 129.466 392.193C130.632 396.766 131.138 401.339 130.982 405.912C130.438 421.468 133.393 457.271 148.672 464.111C156.37 467.551 163.446 471.929 169.939 477.205C175.226 481.505 179.464 484.085 182.652 484.905C199.953 489.361 207.534 479.394 218.537 468.802C219.47 467.903 220.559 467.277 221.842 467.004C260.759 457.819 247.735 416.113 253.372 387.698C254.266 383.242 254.538 378.786 254.227 374.33C253.333 361.392 252.867 354.904 252.867 354.865C253.8 341.146 255.86 328.677 259.01 317.381C268.302 284.314 298.705 273.331 315.5 245.345C339.061 206.141 333.423 142.509 305.081 106.901ZM155.476 395.007C154.581 393.873 154.815 393.052 156.175 392.544C161.191 390.707 166.75 390.629 172.777 392.388C174.371 392.857 174.371 393.365 172.777 393.873C169.083 395.046 161.424 395.515 157.264 395.906C156.603 395.984 155.981 395.671 155.476 395.007ZM219.625 268.601C215.738 278.06 213.288 290.842 212.316 306.945C211.267 324.847 210.411 345.015 209.75 367.49C209.673 369.796 207.845 371.672 205.551 371.75L179.891 372.571C178.064 372.61 176.509 371.164 176.431 369.327C174.915 337.55 172.466 306.085 160.297 276.888C153.026 259.338 138.33 239.365 127.833 219.783C126.744 217.789 126.667 215.718 127.6 213.646L128.222 212.356C128.611 211.457 129.816 211.34 130.399 212.122C139.613 225.059 151.977 229.593 167.567 225.802C168.811 225.489 169.666 224.747 170.133 223.535C171.183 220.838 172.66 218.336 174.565 216.069C175.459 215.014 176.354 215.014 177.248 216.03C179.075 218.141 180.047 220.603 180.164 223.418C180.202 225.216 181.136 226.193 182.885 226.388C191.322 227.287 196.221 223.535 197.581 215.131C198.164 211.457 199.642 211.066 201.936 213.998L208.39 222.05C209.284 223.183 210.45 223.848 211.85 224.121C227.246 226.779 236.654 220.799 240.115 206.141C240.387 204.852 241.203 204.265 242.525 204.383C245.208 204.656 246.568 206.298 246.607 209.268C246.724 218.102 244.43 225.958 239.687 232.876C230.823 245.853 224.135 257.775 219.625 268.601ZM226.857 392.075C228.723 392.74 228.684 393.365 226.779 393.873C223.241 394.889 219.353 395.437 215.116 395.476C213.21 395.515 213.094 395.085 214.766 394.186C216.476 393.287 218.731 392.701 220.714 391.958C222.619 391.254 224.68 391.294 226.857 392.075ZM159.014 435.852H158.975C158.625 435.383 158.703 435.031 159.169 434.758C164.845 431.083 170.794 432.569 175.731 431.865C186.54 430.341 197.231 427.097 207.495 426.706C213.172 426.471 218.848 426.393 224.485 426.51C224.719 426.51 224.835 426.628 224.835 426.862C224.835 427.018 224.835 427.097 224.835 427.253C224.835 429.051 224.835 429.09 224.835 427.253C224.835 427.214 224.835 427.175 224.757 427.175C209.828 428.543 195.171 429.598 180.397 432.295C173.438 433.546 166.284 430.693 160.102 435.969C159.713 436.321 159.364 436.282 159.014 435.852ZM226.313 442.849C213.094 445.741 174.993 452.346 164.107 444.451C163.213 443.826 163.329 443.435 164.379 443.239C165.079 443.122 165.779 443.239 166.478 443.708C167.217 444.138 167.995 444.373 168.811 444.412C187.706 445.702 206.484 444.529 225.146 440.855C225.768 440.738 226.157 440.972 226.274 441.598L226.507 442.614C226.507 442.614 226.468 442.809 226.313 442.849ZM227.479 410.641L160.141 417.286C159.597 417.325 159.091 416.934 159.052 416.387L158.936 415.214C158.858 414.628 159.286 414.12 159.83 414.12L227.168 407.475C227.712 407.436 228.218 407.827 228.257 408.374L228.373 409.547C228.451 410.133 228.023 410.641 227.479 410.641ZM303.642 229.828C300.338 237.137 294.506 244.759 286.186 252.771C264.53 273.644 247.268 286.737 240.698 318.632C237.665 333.368 235.682 348.142 234.749 362.917C234.555 366.278 232.922 368.663 229.889 370.07C228.84 370.578 227.712 370.617 226.429 370.226C225.03 369.796 224.097 368.506 224.135 367.06C224.913 337.862 226.235 313.903 228.101 295.102C231.211 263.989 255.899 237.762 262.936 210.754C265.113 202.389 261.576 196.096 252.284 191.875C249.562 190.663 244.702 189.96 237.743 189.803C236.46 189.764 235.255 190.116 234.166 190.82C228.529 194.415 223.941 199.067 220.325 204.773C219.548 205.985 218.692 206.063 217.72 205.008C216.787 204.031 216.399 202.819 216.593 201.373C217.021 198.051 216.826 194.806 215.932 191.679C215.582 190.39 214.766 189.569 213.521 189.178C203.18 185.777 196.454 194.142 190.233 200.943C188.678 202.663 185.84 202.194 184.946 200.044L182.224 193.79C181.719 192.578 180.591 191.719 179.308 191.562C164.534 189.491 162.746 199.028 157.808 209.659C156.409 212.669 152.249 212.903 150.499 210.089C146.845 204.148 143.346 198.207 136.27 196.448C125.967 193.868 118.113 197.308 112.631 206.728C111.97 207.861 111.737 209.112 111.893 210.441C112.942 219.196 114.847 225.841 117.608 230.414C132.498 254.96 145.989 275.363 153.687 305.89C157.536 321.094 159.986 342.357 161.113 369.679C161.191 371.594 160.297 372.532 158.43 372.493L149.838 372.376C148.05 372.337 147 371.438 146.689 369.679C141.168 337.784 136.814 309.838 119.707 285.448C95.9524 251.638 70.8368 223.105 77.0574 178.664C84.872 122.731 135.103 86.7716 188.872 76.7264C198.398 74.9284 209.167 75.2411 221.181 77.7035C232.961 80.0878 242.797 83.2929 250.612 87.2797C290.54 107.605 311.185 140.124 312.507 184.8C312.973 200.708 310.018 215.718 303.642 229.828Z" fill="#002657"/>
<path d="M192.449 87.0846C193.11 88.7262 192.177 90.6806 190.311 91.4232C188.483 92.1658 186.462 91.4232 185.801 89.7425C185.14 88.1009 186.073 86.1465 187.939 85.4039C189.766 84.6613 191.788 85.4039 192.449 87.0846Z" fill="#002657"/>
<path d="M223.241 98.5369C222.619 98.6541 221.958 98.3414 221.647 97.7551C220.908 96.4653 220.481 95.0973 220.364 93.5729C220.247 91.814 221.025 90.9541 222.774 90.9541C224.99 90.915 226.235 92.0485 226.507 94.3155C226.857 96.778 225.768 98.1851 223.241 98.5369Z" fill="#002657"/>
<path d="M265.23 117.455C255.044 115.031 246.646 109.364 240.075 100.413C238.948 98.8495 240.075 96.6606 242.019 96.6997C251.156 96.8561 267.174 113.859 270.362 117.181C271.178 118.08 271.412 119.018 271.023 119.956C270.362 121.676 269.429 121.793 268.301 120.347L266.863 118.51C266.474 117.963 265.891 117.611 265.23 117.455Z" fill="#002657"/>
<path d="M278.876 125.076C278.838 126.054 278.527 126.796 277.943 127.383C277.088 128.203 275.688 128.086 275.027 127.07C273.667 125.116 273.9 123.161 275.727 121.207C276.777 120.073 278.604 120.308 279.304 121.676C279.499 122.028 279.421 122.614 279.149 123.435C278.993 123.865 278.915 124.412 278.876 125.076Z" fill="#002657"/>
<path d="M300.999 163.381C301.388 164.28 300.649 165.296 299.677 165.101C295.634 164.319 294.156 161.309 293.729 157.166C293.068 150.717 290.463 144.854 285.992 139.577C284.553 137.897 285.681 135.317 287.858 135.239C289.063 135.2 290.502 135.551 292.096 136.333C293.301 136.88 293.962 137.818 294.079 139.147C294.817 146.613 297.111 154.665 300.999 163.381Z" fill="#002657"/>
<path d="M297.616 183.823C299.21 181.048 300.649 181.126 301.971 184.019C303.098 186.403 302.943 189.374 301.504 192.93C300.571 195.276 297.461 195.666 295.984 193.634C294.506 191.562 295.05 188.279 297.616 183.823Z" fill="#002657"/>
</g>
<defs>
<clipPath id="clip0_656_4401">
<rect width="380" height="486" fill="white"/>
</clipPath>
</defs>
</svg>
