<svg width="505" height="462" viewBox="0 0 505 462" fill="none" xmlns="http://www.w3.org/2000/svg">
<path d="M32.097 370.766H474.142C474.266 370.642 474.39 370.518 474.514 370.394C503.017 338.66 510.081 291.432 501.902 249.161C495.086 214.328 477.117 179.743 446.383 163.257C397.928 137.225 335.841 163.133 285.031 142.307C246.861 126.564 221.828 87.145 183.659 71.774C153.917 59.7498 118.845 64.5843 91.7055 82.0627C79.0651 90.244 68.1595 100.781 58.8651 112.681C43.6221 131.895 31.8491 155.943 34.3276 180.611C35.9387 197.718 44.2417 213.213 49.6945 229.451C55.1473 245.69 57.6258 264.656 48.5792 279.16C42.0111 289.696 30.2381 296.018 23.4221 306.431C11.2773 324.777 17.9693 350.437 30.4859 368.535C30.9816 369.155 31.6012 369.898 32.097 370.766Z" fill="#EAF4FD"/>
<path d="M70.5143 366.8H438.328C438.452 366.676 438.576 366.552 438.576 366.552C462.246 340.149 468.194 300.853 461.378 265.649C455.801 236.642 440.682 207.883 415.154 194.124C374.878 172.43 323.2 194 280.941 176.645C249.216 163.629 228.397 130.78 196.547 117.888C171.762 107.971 142.516 111.938 120.085 126.441C109.675 133.259 100.505 142.06 92.6972 151.853C79.9328 167.844 70.2665 187.802 72.2493 208.379C73.6125 222.634 80.4285 235.526 85.0137 249.038C89.599 262.55 91.5818 278.417 84.0223 290.441C78.5696 299.242 68.7794 304.448 63.0788 313.125C52.9168 328.496 58.4935 349.818 68.9033 364.817C69.5229 365.437 70.0186 366.18 70.5143 366.8Z" fill="#EAF4FD"/>
<path d="M471.416 446.754H49.0748C39.9042 446.754 32.3447 439.192 32.3447 430.019V386.633C32.3447 377.46 39.9042 369.898 49.0748 369.898H471.54C480.71 369.898 488.27 377.46 488.27 386.633V430.019C488.146 439.192 480.71 446.754 471.416 446.754Z" fill="#EAF4FD"/>
<g opacity="0.69">
<g opacity="0.36">
<path d="M488.27 381.674H32.3447V382.913H488.27V381.674Z" fill="#0D2436"/>
</g>
<g opacity="0.36">
<path d="M488.27 407.705H32.3447V408.945H488.27V407.705Z" fill="#0D2436"/>
</g>
<g opacity="0.36">
<path d="M488.27 433.613H32.3447V434.853H488.27V433.613Z" fill="#0D2436"/>
</g>
</g>
<path d="M169.407 376.591L121.076 242.838L115.747 246.061L163.583 378.45C165.442 377.831 167.425 377.211 169.407 376.591Z" fill="#21425A"/>
<path d="M127.397 389.484L165.318 233.294L157.882 231.311L118.722 391.963C121.572 391.219 124.546 390.352 127.397 389.484Z" fill="#21425A"/>
<path d="M392.604 255.947L104.591 247.594L104.228 260.109L392.242 268.462L392.604 255.947Z" fill="#21425A"/>
<path d="M392.227 268.497L447.87 248.788L448.242 236.268L392.599 255.977L392.227 268.497Z" fill="#21425A"/>
<path d="M104.594 247.549L160.237 227.963L448.242 236.268L392.599 255.978L104.594 247.549Z" fill="white"/>
<path d="M449.853 386.755L402.141 254.861L396.812 258.084L444.152 389.234C446.011 388.367 447.994 387.499 449.853 386.755Z" fill="#21425A"/>
<path d="M407.966 404.11L446.507 245.44L439.071 243.457L399.043 407.333C402.017 406.217 404.991 405.225 407.966 404.11Z" fill="#21425A"/>
<path d="M229.388 215.693H167.548C163.087 215.693 159.493 219.288 159.493 223.751C159.493 228.213 163.087 231.808 167.548 231.808H229.388V215.693Z" fill="#FF5377"/>
<path d="M229.388 220.031H170.77C166.557 220.031 163.211 221.643 163.211 223.626C163.211 225.609 166.681 227.221 170.77 227.221H229.388V220.031Z" fill="white"/>
<path d="M229.388 200.816H167.548C163.087 200.816 159.493 204.411 159.493 208.874C159.493 213.336 163.087 216.931 167.548 216.931H229.388V200.816Z" fill="#FEC329"/>
<path d="M229.388 205.154H170.77C166.557 205.154 163.211 206.766 163.211 208.749C163.211 210.733 166.681 212.344 170.77 212.344H229.388V205.154Z" fill="white"/>
<path d="M391.235 219.163L242.028 214.825C235.336 214.577 230.751 208.875 231.742 202.057L246.613 106.855C247.605 100.285 253.801 94.9551 260.493 94.9551L407.098 96.3186C414.038 96.4426 418.995 102.021 418.127 108.839L405.859 206.767C404.867 213.709 398.299 219.287 391.235 219.163Z" fill="#0D2436"/>
<path d="M395.821 192.14L405.115 119.127C405.859 113.177 401.521 108.342 395.573 108.218L267.929 106.731C262.228 106.607 256.775 111.317 255.908 117.144L245.002 188.297L395.821 192.14Z" fill="white"/>
<path d="M395.821 192.14L405.115 119.127C405.859 113.177 401.521 108.342 395.573 108.218L267.929 106.731C262.228 106.607 256.775 111.317 255.908 117.144L245.002 188.297L395.821 192.14Z" fill="#EAF4FD"/>
<path d="M332.742 101.773C332.618 102.888 331.627 103.756 330.512 103.632C329.396 103.632 328.653 102.764 328.777 101.649C328.901 100.533 329.892 99.6652 331.007 99.7892C332.123 99.7892 332.866 100.657 332.742 101.773Z" fill="white"/>
<path d="M392.227 186.934L333.981 185.571L343.896 113.674L401.521 114.294L392.227 186.934Z" fill="white"/>
<path d="M343.896 113.674L368.681 135.615L401.521 114.294L343.896 113.674Z" fill="#FF5377"/>
<path opacity="0.32" d="M385.411 150.49L348.357 149.87C347.613 149.87 346.994 149.25 347.117 148.506C347.241 147.762 347.985 147.143 348.728 147.143L385.782 147.762C386.526 147.762 387.146 148.382 387.022 149.126C386.898 149.994 386.154 150.49 385.411 150.49Z" fill="#0D2436"/>
<path opacity="0.32" d="M384.791 154.705L347.614 153.961C346.87 153.961 346.25 153.342 346.374 152.598C346.498 151.854 347.242 151.234 347.985 151.234L385.039 151.978C385.783 151.978 386.403 152.598 386.279 153.342C386.279 154.085 385.659 154.705 384.791 154.705Z" fill="#0D2436"/>
<path opacity="0.32" d="M382.437 172.679L345.259 171.811C344.515 171.811 343.896 171.191 344.02 170.448C344.143 169.704 344.887 169.084 345.631 169.084L382.808 169.828C383.552 169.828 384.172 170.448 384.048 171.315C383.924 172.059 383.304 172.679 382.437 172.679Z" fill="#0D2436"/>
<path d="M343.772 115.781L368.929 138.094L401.274 116.277" stroke="#FEC329" stroke-miterlimit="10"/>
<path d="M378.843 134.25C378.719 134.994 374.753 135.118 374.381 135.862C374.01 136.606 376.86 139.085 376.364 139.705C375.868 140.324 372.77 138.093 372.027 138.465C371.283 138.961 371.903 142.804 371.159 142.928C370.416 143.175 369.548 139.457 368.681 139.333C367.813 139.333 365.954 143.051 365.335 142.804C364.591 142.556 366.202 138.713 365.706 138.217C365.087 137.721 361.493 139.952 361.121 139.209C360.749 138.589 364.219 136.11 364.095 135.366C363.971 134.622 360.006 134.374 360.13 133.63C360.254 132.887 364.219 132.763 364.591 132.019C364.963 131.275 362.113 128.796 362.608 128.176C363.104 127.556 366.202 129.788 366.822 129.416C367.565 128.92 366.946 125.201 367.689 124.953C368.433 124.705 369.3 128.424 370.168 128.424C370.911 128.424 372.894 124.705 373.514 124.953C374.257 125.201 372.646 129.044 373.266 129.416C373.886 129.912 377.479 127.68 377.851 128.424C378.223 129.044 374.753 131.523 374.877 132.267C375.001 133.259 378.967 133.507 378.843 134.25Z" fill="#FEC329"/>
<path opacity="0.37" d="M373.018 133.631C372.77 135.862 370.664 137.598 368.557 137.474C366.326 137.474 364.839 135.615 365.087 133.507C365.335 131.276 367.442 129.54 369.548 129.664C371.655 129.664 373.266 131.524 373.018 133.631Z" fill="white"/>
<path d="M263.219 160.901L259.13 165.611C258.386 166.355 258.386 167.595 259.006 168.338C261.237 171.561 267.185 179.123 274.125 181.726C274.992 181.974 275.984 181.85 276.603 181.106L280.817 176.644C281.684 175.776 281.684 174.288 280.693 173.421L266.442 160.777C265.574 159.909 264.087 159.909 263.219 160.901Z" fill="#0D2436"/>
<path d="M260.245 159.662L268.796 173.049C269.044 173.421 269.416 173.793 269.911 173.917L283.543 178.752C285.526 179.495 287.385 177.264 286.27 175.405L278.091 162.389C277.843 162.017 277.471 161.645 276.975 161.521L262.972 156.315C260.865 155.571 259.006 157.802 260.245 159.662Z" fill="#0D2436"/>
<path d="M274.125 167.472C273.877 167.844 273.258 167.72 272.638 167.348C272.018 166.976 271.77 166.356 272.018 165.984C272.266 165.612 272.886 165.736 273.505 166.108C274.125 166.48 274.373 167.1 274.125 167.472Z" fill="#FEC329"/>
<path d="M297.299 161.893C296.556 163.256 296.68 164.744 296.927 165.86C297.051 166.231 296.927 166.727 296.804 167.099C295.936 169.454 294.449 171.562 291.97 172.181C289.12 172.801 286.889 170.818 284.907 169.206C281.437 166.355 277.595 164.868 273.01 166.231C272.266 166.479 272.638 167.471 273.258 167.347C276.851 166.231 280.321 167.099 283.172 169.454C284.907 170.818 286.518 172.429 288.5 173.173C292.59 174.661 295.812 171.81 297.423 168.339C297.547 167.967 297.919 167.595 298.167 167.471C299.778 166.479 300.645 165.364 301.141 164.372C302.628 161.397 298.662 159.29 297.299 161.893Z" fill="#FEC329"/>
<path d="M305.478 148.01L310.931 151.233C311.799 151.729 312.914 151.605 313.657 150.861C316.384 148.01 322.828 140.821 323.943 133.507C324.067 132.639 323.696 131.772 322.952 131.276L317.871 128.053C316.756 127.433 315.392 127.681 314.773 128.797L304.735 145.035C304.115 145.903 304.363 147.391 305.478 148.01Z" fill="#0D2436"/>
<path d="M304.859 151.234L316.508 140.325C316.88 139.953 317.127 139.458 317.251 138.962L319.482 124.582C319.854 122.475 317.251 121.111 315.764 122.599L304.487 133.012C304.115 133.383 303.867 133.755 303.743 134.251L301.265 149.002C300.769 151.358 303.248 152.721 304.859 151.234Z" fill="#0D2436"/>
<path d="M309.94 136.11C310.311 136.234 310.435 136.977 310.063 137.597C309.816 138.217 309.196 138.589 308.824 138.465C308.452 138.341 308.329 137.597 308.7 136.977C308.948 136.234 309.568 135.862 309.94 136.11Z" fill="#FEC329"/>
<path d="M300.026 114.293C301.513 114.789 302.876 114.417 303.991 113.921C304.363 113.797 304.735 113.673 305.231 113.797C307.585 114.169 310.064 115.285 311.055 117.64C312.294 120.243 310.683 122.846 309.444 125.078C307.337 129.044 306.594 133.135 308.701 137.35C309.072 137.97 310.064 137.474 309.692 136.854C307.957 133.507 308.205 130.036 309.816 126.689C310.807 124.706 312.17 122.846 312.418 120.739C313.162 116.4 309.692 113.921 305.974 112.93C305.602 112.806 305.231 112.558 304.859 112.31C303.62 110.946 302.38 110.326 301.265 109.955C298.539 109.211 297.299 113.549 300.026 114.293Z" fill="#FEC329"/>
<g opacity="0.43">
<path d="M286.641 133.755L288.376 130.408C288.624 129.912 288.5 129.169 288.129 128.797C286.394 127.185 281.932 123.59 277.595 123.095C277.099 122.971 276.479 123.343 276.232 123.714L274.373 126.813C274.001 127.433 274.249 128.301 274.868 128.673L284.783 134.251C285.402 134.623 286.27 134.375 286.641 133.755Z" fill="#0D2436"/>
<path d="M288.5 134.126L281.808 127.556C281.56 127.308 281.312 127.184 281.065 127.184L272.514 126.193C271.274 126.069 270.531 127.556 271.398 128.548L277.842 134.994C278.09 135.242 278.338 135.366 278.586 135.366L287.385 136.482C288.624 136.482 289.492 134.994 288.5 134.126Z" fill="#0D2436"/>
<path d="M279.454 131.401C279.578 131.153 279.949 131.153 280.321 131.277C280.693 131.401 280.941 131.773 280.817 132.02C280.693 132.268 280.321 132.268 279.949 132.144C279.578 132.02 279.33 131.649 279.454 131.401Z" fill="#FEC329"/>
<path d="M266.689 137.847C266.937 136.979 266.689 136.111 266.441 135.491C266.317 135.243 266.317 134.995 266.317 134.748C266.441 133.26 267.061 131.896 268.424 131.153C269.911 130.409 271.522 131.277 272.886 131.896C275.24 133.136 277.719 133.384 280.197 132.02C280.569 131.772 280.197 131.277 279.825 131.401C277.843 132.516 275.736 132.516 273.753 131.525C272.638 131.029 271.398 130.285 270.159 130.037C267.557 129.665 266.194 131.772 265.698 134.004C265.698 134.252 265.574 134.5 265.326 134.624C264.583 135.367 264.211 136.111 263.963 136.855C263.715 138.838 266.317 139.458 266.689 137.847Z" fill="#FEC329"/>
</g>
<g opacity="0.43">
<path d="M314.277 164.002L310.559 164.498C309.94 164.622 309.444 165.118 309.444 165.737C309.196 168.093 308.7 173.795 310.807 177.638C311.055 178.133 311.551 178.381 312.17 178.381L315.764 178.133C316.508 178.009 317.004 177.39 317.004 176.646L315.888 165.366C315.64 164.498 315.021 164.002 314.277 164.002Z" fill="#0D2436"/>
<path d="M313.41 162.266L311.799 171.563C311.799 171.811 311.799 172.183 311.922 172.431L316.136 179.992C316.756 181.108 318.367 180.86 318.615 179.62L320.102 170.571C320.102 170.323 320.102 169.951 319.978 169.704L315.888 161.77C315.269 160.778 313.534 161.026 313.41 162.266Z" fill="#0D2436"/>
<path d="M316.384 171.316C316.136 171.316 315.888 171.068 315.764 170.696C315.641 170.324 315.764 169.952 316.012 169.828C316.26 169.828 316.508 170.076 316.632 170.448C316.88 170.82 316.756 171.192 316.384 171.316Z" fill="#FEC329"/>
<path d="M328.9 178.01C328.033 178.258 327.537 179.001 327.165 179.621C327.042 179.869 326.918 179.993 326.67 180.117C325.43 180.737 323.943 181.233 322.58 180.489C321.093 179.621 320.845 177.886 320.597 176.398C320.226 173.795 319.11 171.564 316.508 170.324C316.136 170.2 315.764 170.696 316.26 170.944C318.243 171.936 319.482 173.671 319.854 175.779C320.102 177.018 320.102 178.382 320.721 179.621C321.961 181.977 324.439 181.853 326.546 180.985C326.794 180.861 327.042 180.861 327.289 180.861C328.405 180.985 329.272 180.861 329.892 180.613C331.503 179.869 330.511 177.39 328.9 178.01Z" fill="#FEC329"/>
</g>
<path d="M295.44 213.832L292.218 235.03H332.494L336.708 210.733C336.708 210.733 294.325 202.18 295.44 213.832Z" fill="#0D2436"/>
<path d="M349.349 235.775C349.225 238.998 332.618 240.981 312.171 240.237C291.723 239.493 275.241 236.394 275.364 233.171C275.488 229.948 292.095 227.965 312.542 228.709C332.99 229.453 349.472 232.552 349.349 235.775Z" fill="#0D2436"/>
<g opacity="0.4">
<path d="M390.244 216.559L234.964 211.477V210.361L390.244 215.444C390.74 215.444 401.769 215.32 403.876 202.8L415.897 103.26L417.012 103.384L404.991 203.048C402.761 216.436 390.368 216.559 390.244 216.559Z" fill="white"/>
</g>
<g opacity="0.4">
<path d="M318.615 239.369C309.94 239.369 302.504 238.625 296.804 237.758C284.163 235.774 276.851 232.675 276.728 232.675L277.099 231.684C277.347 231.808 306.346 243.956 349.472 235.278L349.72 236.394C338.195 238.501 327.785 239.369 318.615 239.369Z" fill="white"/>
</g>
<g opacity="0.4">
<path d="M243.621 192.379L243.589 193.494L395.71 197.873L395.742 196.758L243.621 192.379Z" fill="white"/>
</g>
<path d="M263.096 245.815L185.642 243.955L205.966 234.658L274.621 235.526L263.096 245.815Z" fill="#0D2436"/>
<g opacity="0.36">
<path d="M259.502 244.08L193.325 242.592L207.577 235.898L268.301 236.766L259.502 244.08ZM194.193 242.468L259.13 243.956L267.557 237.014L207.701 236.146L194.193 242.468Z" fill="white"/>
<path d="M265.326 238.749L204.107 237.758L204.478 237.51L265.574 238.501L265.326 238.749Z" fill="white"/>
<path d="M262.228 241.352L199.026 240.112L199.398 239.988L262.476 241.104L262.228 241.352Z" fill="white"/>
<path d="M201.628 242.716H201.133L214.393 236.146H214.764L201.628 242.716Z" fill="white"/>
<path d="M207.577 242.839H207.081L219.845 236.27H220.341L207.577 242.839Z" fill="white"/>
<path d="M213.649 242.964H213.153L225.422 236.395H225.918L213.649 242.964Z" fill="white"/>
<path d="M219.721 243.212H219.226L230.999 236.395H231.494L219.721 243.212Z" fill="white"/>
<path d="M225.918 243.335H225.422L236.699 236.518H237.195L225.918 243.335Z" fill="white"/>
<path d="M232.238 243.46H231.619L242.524 236.643H243.02L232.238 243.46Z" fill="white"/>
<path d="M238.558 243.584H238.062L248.348 236.643H248.844L238.558 243.584Z" fill="white"/>
<path d="M245.126 243.707H244.507L254.297 236.766H254.793L245.126 243.707Z" fill="white"/>
<path d="M251.694 243.832H251.075L260.369 236.891H260.865L251.694 243.832Z" fill="white"/>
</g>
<path d="M371.089 248.416C376.423 245.335 379.277 240.291 377.464 237.148C375.65 234.006 369.855 233.956 364.521 237.037C359.186 240.118 356.332 245.163 358.146 248.305C359.96 251.447 365.754 251.497 371.089 248.416Z" fill="#0D2436"/>
<g opacity="0.59">
<path d="M368.681 240.733C368.557 240.733 368.433 240.733 368.309 240.609C368.061 240.485 367.937 239.989 368.061 239.741C368.185 239.493 371.655 234.163 374.753 235.65C375.001 235.774 375.249 236.146 375.001 236.518C374.877 236.766 374.505 237.014 374.134 236.766C372.027 235.65 369.053 240.361 368.929 240.361C369.053 240.609 368.929 240.733 368.681 240.733Z" fill="white"/>
</g>
<path d="M123.183 12.2734L112.401 24.6694C110.666 26.6528 110.418 29.6278 112.03 31.8591C117.854 40.2884 133.097 59.9981 151.19 66.444C153.421 67.1878 155.899 66.692 157.511 64.9565L168.292 53.4282C170.523 51.073 170.399 47.2302 168.044 45.1229L131.486 11.7776C129.131 9.54627 125.29 9.79419 123.183 12.2734Z" fill="#0D2436"/>
<path d="M115.252 9.04977L137.311 43.8826C138.054 44.9983 139.046 45.866 140.285 46.2379L175.728 58.7578C180.933 60.6172 185.642 54.7911 182.668 50.0806L161.476 16.3634C160.733 15.2478 159.741 14.3801 158.502 14.0082L122.315 0.372547C116.987 -1.61082 112.277 4.33928 115.252 9.04977Z" fill="#0D2436"/>
<path d="M151.314 29.2551C150.695 30.1228 148.96 29.9988 147.472 29.0072C145.985 27.8915 145.366 26.404 145.985 25.4123C146.605 24.5446 148.34 24.6685 149.827 25.6602C151.314 26.7759 152.058 28.3874 151.314 29.2551Z" fill="#FEC329"/>
<path d="M211.542 14.6274C209.684 18.0983 209.807 21.941 210.427 24.7921C210.675 25.7838 210.551 26.8994 210.179 27.8911C207.949 33.8412 204.231 39.4194 197.663 41.0309C190.351 42.7663 184.526 37.56 179.322 33.3454C170.275 25.9078 160.237 22.065 148.588 25.5359C146.853 26.0317 147.596 28.8828 149.331 28.387C158.75 25.6598 167.549 27.7672 175.108 33.7173C179.569 37.1881 183.659 41.4028 189.112 43.3862C199.893 47.3529 207.949 39.7913 212.162 30.7422C212.658 29.7505 213.277 28.8828 214.269 28.387C218.234 25.7838 220.713 22.9327 222.076 20.2056C225.298 13.3878 215.012 8.05747 211.542 14.6274Z" fill="#FEC329"/>
<path d="M127.644 444.028C168.025 444.028 200.76 435.703 200.76 425.434C200.76 415.165 168.025 406.84 127.644 406.84C87.2627 406.84 54.5273 415.165 54.5273 425.434C54.5273 435.703 87.2627 444.028 127.644 444.028Z" fill="#EAF4FD"/>
<path d="M149.827 328.62C185.896 328.62 215.136 318.686 215.136 306.431C215.136 294.176 185.896 284.242 149.827 284.242C113.758 284.242 84.5178 294.176 84.5178 306.431C84.5178 318.686 113.758 328.62 149.827 328.62Z" fill="#FEC329"/>
<path d="M129.007 423.449C126.405 423.449 124.174 421.218 124.174 418.615V309.282C124.174 306.679 126.405 304.447 129.007 304.447C131.61 304.447 133.841 306.679 133.841 309.282V418.615C133.841 421.342 131.734 423.449 129.007 423.449Z" fill="#FEC329"/>
<path d="M174.117 410.682L74.4798 438.326C71.6295 439.069 68.6553 437.458 67.9117 434.607C67.1682 431.756 68.7792 428.781 71.6295 428.037L171.266 400.394C174.117 399.65 177.091 401.261 177.834 404.113C178.578 406.964 176.967 409.939 174.117 410.682Z" fill="#FEC329"/>
<path d="M177.958 439.813L79.8085 407.087C77.0821 406.22 75.471 403.121 76.4624 400.393C77.3299 397.666 80.4281 396.055 83.1545 397.047L181.304 429.772C184.031 430.64 185.642 433.739 184.65 436.466C183.783 439.317 180.685 440.804 177.958 439.813Z" fill="#FEC329"/>
<path d="M103.091 295.765C123.552 291.991 135.311 262.735 129.355 230.419C123.399 198.103 101.983 174.965 81.5219 178.738C61.0607 182.511 49.302 211.768 55.2582 244.084C61.2144 276.399 82.6298 299.538 103.091 295.765Z" fill="#FEC329"/>
<path opacity="0.52" d="M61.7152 206.023C61.7152 206.023 51.4293 274.573 94.06 294.283" stroke="white" stroke-miterlimit="10"/>
<path opacity="0.52" d="M85.8809 302.961C85.8809 302.961 91.0858 318.084 121.943 322.919" stroke="white" stroke-miterlimit="10"/>
<path d="M431.512 428.283C456.836 428.283 477.365 423.066 477.365 416.631C477.365 410.195 456.836 404.979 431.512 404.979C406.188 404.979 385.659 410.195 385.659 416.631C385.659 423.066 406.188 428.283 431.512 428.283Z" fill="#EAF4FD"/>
<path d="M433.247 348.452C433.371 345.973 428.661 346.469 427.05 344.733C425.315 342.998 424.448 340.271 425.563 338.039C427.05 335.188 431.14 334.445 432.379 331.469C434.238 326.883 427.67 323.412 426.555 318.578C425.068 311.884 434.362 307.421 435.477 300.727C436.345 294.777 430.52 289.323 431.512 283.373C432.379 278.043 438.452 274.944 440.434 269.861C442.169 265.647 440.682 260.812 440.434 256.226C440.187 251.639 442.293 245.937 446.755 245.441C451.464 244.945 454.686 250.152 455.058 254.862C455.43 259.573 454.19 264.407 455.677 268.87C457.66 274.82 464.104 279.158 464.476 285.356C464.848 291.554 459.023 296.885 459.891 303.083C460.758 309.405 468.69 313.867 467.946 320.189C467.574 323.784 464.476 326.387 461.998 328.99C459.519 331.593 457.412 335.56 459.271 338.783C460.139 340.147 461.626 341.138 462.741 342.254C465.592 345.105 466.087 349.94 464.104 353.287C461.998 356.757 457.536 358.493 453.695 357.377C453.695 357.501 432.999 354.774 433.247 348.452Z" fill="#118C8B"/>
<g opacity="0.68">
<path d="M445.763 352.791C450.225 327.627 447.87 257.093 447.746 256.35H448.862C448.862 257.093 451.34 327.751 446.755 353.039L445.763 352.791Z" fill="#00C5B9"/>
</g>
<path d="M407.842 346.841C407.222 344.238 402.389 346.097 400.035 344.733C397.68 343.37 395.945 340.643 396.565 338.04C397.308 334.569 401.522 332.585 401.894 328.99C402.513 323.536 394.458 321.677 391.856 316.966C388.262 310.272 397.061 302.835 396.193 295.273C395.449 288.579 387.518 284.489 386.899 277.795C386.279 271.721 391.856 266.762 392.475 260.688C393.095 255.606 390.121 250.895 388.51 246.061C386.899 241.227 387.518 234.533 392.227 232.673C397.061 230.69 402.141 235.4 403.876 240.359C405.611 245.193 405.735 250.772 408.586 255.11C412.427 260.936 420.607 263.663 422.837 270.233C424.944 276.679 420.359 284.241 423.085 290.439C425.935 297.009 435.602 299.364 436.717 306.43C437.337 310.396 434.734 314.115 432.875 317.586C431.016 321.181 429.901 326.015 432.875 328.743C434.238 329.982 435.973 330.478 437.584 331.47C441.426 333.701 443.409 338.659 442.17 342.874C440.93 347.089 436.717 350.312 432.256 350.312C432.256 350.56 409.453 353.659 407.842 346.841Z" fill="#00C5B9"/>
<g opacity="0.68">
<path d="M422.342 347.832C419.739 319.693 396.689 244.821 396.441 244.077L397.68 243.705C397.928 244.449 421.102 319.445 423.705 347.708L422.342 347.832Z" fill="#118C8B"/>
</g>
<path d="M398.3 343.246V401.507C398.3 412.044 409.205 420.721 422.589 420.721H442.913C456.297 420.721 467.203 412.044 467.203 401.507V343.246H398.3Z" fill="#FF5377"/>
<path d="M467.327 357.377H398.3V366.302H467.327V357.377Z" fill="#FF5377"/>
<path d="M13.1364 427.167C21.9352 411.672 27.6358 394.566 29.8665 376.839C30.8579 369.278 32.0971 360.353 39.037 357.254C45.4812 354.403 52.545 358.493 58.9892 361.468C70.0186 366.551 82.6591 368.286 94.68 366.179C100.381 365.187 105.957 363.452 111.782 363.328C117.606 363.204 123.803 365.063 127.025 369.898C130.247 374.732 129.627 380.93 128.76 386.632C125.538 406.218 119.713 425.432 111.534 443.53C108.188 450.844 103.727 458.653 96.1671 461.132C92.6972 462.248 88.9794 462.248 85.2616 462C66.9205 461.256 48.7033 459.769 30.61 457.29C23.1744 456.298 15.2432 454.934 9.41862 450.224C3.59408 445.513 0.867701 435.968 5.70083 430.142L13.1364 427.167Z" fill="#FF5377"/>
<g opacity="0.26">
<path d="M46.3487 446.01C58.9892 448.241 72.4971 450.845 84.7659 446.506C88.4837 445.142 92.2014 442.539 95.4235 438.944C98.3978 435.722 101.248 430.763 103.479 425.557C108.188 414.772 112.03 399.897 112.897 387.253C113.393 379.32 113.393 371.262 113.889 363.205C113.145 363.205 112.401 363.081 111.658 363.205C105.833 363.329 100.257 365.064 94.556 366.056C82.5352 368.039 70.0186 366.428 58.8652 361.345C52.545 358.37 45.3573 354.28 38.9131 357.131C31.9732 360.23 30.734 369.279 29.7425 376.716C27.5119 394.319 21.8113 411.549 13.0125 427.044L5.5769 430.143C16.2346 440.308 32.2211 443.531 46.3487 446.01Z" fill="white"/>
</g>
<path opacity="0.37" d="M110.791 400.764L123.555 407.706L124.175 406.59L111.286 399.649H111.162L92.5734 397.046C96.9108 385.641 100.381 374.237 101.62 365.312L100.381 365.188C99.1415 374.113 95.6715 385.393 91.3341 396.922L65.3096 393.203C69.5231 382.294 72.8691 372.253 73.6127 366.551L72.3734 366.427C71.6298 372.13 68.2838 382.17 63.9464 393.079L42.755 390.104C48.4556 374.733 52.793 361.469 53.1648 360.229L51.9255 359.857C51.8016 360.229 47.3403 373.989 41.3918 389.856L28.1317 387.996L28.0078 389.236L41.02 391.095C37.5501 400.392 33.4605 410.309 29.6188 418.615L17.8458 416.383L17.5979 417.623L28.9992 419.73C24.5378 429.027 20.2004 436.093 16.7305 437.581L16.4826 437.705L16.3587 437.952C16.2347 438.448 13.6323 449.357 16.9783 454.811L17.9697 454.191C15.1194 449.729 16.9783 440.308 17.3501 438.572C21.0679 436.713 25.5292 429.399 30.1145 419.854L50.9341 423.697C45.6053 435.597 41.5157 444.522 41.3918 444.77V459.026H42.6311V445.142C43.2507 443.779 47.3403 435.101 52.2973 423.945L77.7022 428.655C72.1255 440.68 67.7881 449.109 67.6642 449.357L66.4249 460.017L67.6642 460.141L68.7795 449.729C69.2752 448.737 73.6127 440.308 78.9415 428.779L99.3893 432.622L110.667 443.779L111.534 442.911L100.009 431.63L99.885 431.506L79.3133 427.664C83.2789 418.863 87.8642 408.45 91.8298 397.913L110.791 400.764ZM30.982 418.739C34.9476 410.309 38.9133 400.392 42.5071 391.219L63.6985 394.194C59.9808 403.739 55.6433 413.904 51.8016 422.705L30.982 418.739ZM78.4458 427.664L52.917 422.953C56.7587 414.152 61.0961 403.987 64.8139 394.442L90.8384 398.161C86.9967 408.45 82.5354 418.863 78.4458 427.664Z" fill="white"/>
<path d="M75.5953 143.175C75.5953 143.175 76.8345 154.331 82.9069 153.092L85.1376 152.472L79.5609 138.836C79.5609 138.836 73.4885 138.588 75.5953 143.175Z" fill="#0D2436"/>
<path d="M168.54 115.408L174.364 103.756C175.604 101.897 178.702 96.8144 178.95 96.3185C179.198 95.5748 178.578 95.0789 178.578 95.0789C177.215 93.8393 173.249 100.657 172.753 101.649C172.629 101.525 172.506 101.401 172.258 101.277C174.117 98.1779 177.463 92.2279 177.834 91.4841C178.206 90.4924 177.463 89.8726 177.463 89.8726C175.852 88.633 170.771 97.93 169.903 99.5415C169.655 99.4175 169.407 99.1696 169.036 99.0457C170.771 95.5748 174.488 88.1372 174.736 87.2694C175.108 86.1538 174.364 85.658 174.364 85.658C172.506 84.4183 166.681 97.4342 166.681 97.4342C166.681 97.5581 166.557 97.5581 166.557 97.6821C166.185 97.5581 165.937 97.3102 165.69 97.1863C166.929 93.8393 169.407 87.1455 169.531 86.4017C169.779 85.41 168.912 84.9142 168.912 84.9142C166.929 83.7985 163.087 95.9467 163.087 95.9467L158.75 102.021C158.13 101.773 157.758 101.029 157.634 99.4175C157.51 96.3185 156.891 96.1946 156.891 96.1946C154.04 95.8227 154.784 101.029 154.66 105.492C154.536 108.962 156.271 111.566 157.139 112.681C157.386 113.053 157.634 113.301 157.634 113.301L155.28 118.012L164.698 122.598L168.54 115.408Z" fill="#FFAA98"/>
<path d="M13.5082 141.936L5.94865 131.399C4.46153 129.788 0.495884 125.325 0.124105 124.829C-0.247674 124.21 0.248031 123.466 0.248031 123.466C1.36337 121.978 6.44435 128.176 7.06398 128.92C7.18791 128.796 7.31183 128.672 7.43576 128.424C5.08116 125.697 0.743737 120.367 0.371958 119.747C0.000178429 119.003 0.61981 118.26 0.61981 118.26C1.983 116.772 8.5511 125.201 9.66644 126.565C9.91429 126.317 10.1621 126.069 10.41 125.945C8.17932 122.846 3.22226 116.028 2.85049 115.161C2.35478 114.169 2.97441 113.425 2.97441 113.425C4.58545 111.938 12.5167 123.838 12.5167 123.838C12.5167 123.962 12.6407 123.962 12.6407 124.086C12.8885 123.838 13.2603 123.59 13.5082 123.466C11.7732 120.367 8.17932 114.169 7.93147 113.425C7.55969 112.433 8.30325 111.814 8.30325 111.814C10.0382 110.45 15.8628 121.73 15.8628 121.73L21.1916 126.937C21.6873 126.565 22.0591 125.821 21.8112 124.21C21.4394 121.111 22.0591 120.987 22.0591 120.987C24.7855 120.243 24.9094 125.325 25.7769 129.788C26.5204 133.135 25.1572 136.11 24.5376 137.349C24.2897 137.845 24.1658 137.969 24.1658 137.969L27.264 142.308L18.7131 148.382L13.5082 141.936Z" fill="#FFAA98"/>
<path d="M78.8173 142.803C78.8173 142.803 89.2271 165.612 88.8553 175.529C88.8553 175.529 110.295 175.157 114.508 170.57C114.508 170.57 110.666 147.514 107.073 139.332C103.355 131.027 77.0823 131.275 78.8173 142.803Z" fill="#FFAA98"/>
<path d="M115.375 108.465C111.286 98.3007 100.504 91.8548 89.227 93.5903C76.0908 95.6976 67.0441 107.97 69.1509 121.233C70.0184 126.688 72.6208 131.398 76.3386 134.869C82.2871 144.414 89.9705 156.562 89.9705 156.562C89.9705 156.562 116.863 153.339 120.952 147.761C120.704 147.885 115.995 108.465 115.375 108.465Z" fill="#FFAA98"/>
<mask id="mask0_0_2420" style="mask-type:luminance" maskUnits="userSpaceOnUse" x="68" y="93" width="53" height="64">
<path d="M115.375 108.465C111.286 98.3007 100.504 91.8548 89.227 93.5903C76.0908 95.6976 67.0441 107.97 69.1509 121.233C70.0184 126.688 72.6208 131.398 76.3386 134.869C82.2871 144.414 89.9705 156.562 89.9705 156.562C89.9705 156.562 116.863 153.339 120.952 147.761C120.704 147.885 115.995 108.465 115.375 108.465Z" fill="white"/>
</mask>
<g mask="url(#mask0_0_2420)">
<path d="M111.534 117.267C111.286 116.399 111.41 115.656 111.782 114.788C112.153 114.044 112.649 113.3 113.517 112.804C114.26 112.309 115.375 112.185 116.243 112.433C117.11 112.68 117.73 113.176 118.226 113.92C117.358 114.044 116.739 113.92 116.119 114.168C115.499 114.292 115.128 114.416 114.632 114.664C113.64 115.284 112.773 116.151 111.534 117.267Z" fill="#0D2436"/>
</g>
<mask id="mask1_0_2420" style="mask-type:luminance" maskUnits="userSpaceOnUse" x="68" y="93" width="53" height="64">
<path d="M115.375 108.465C111.286 98.3007 100.504 91.8548 89.227 93.5903C76.0908 95.6976 67.0441 107.97 69.1509 121.233C70.0184 126.688 72.6208 131.398 76.3386 134.869C82.2871 144.414 89.9705 156.562 89.9705 156.562C89.9705 156.562 116.863 153.339 120.952 147.761C120.704 147.885 115.995 108.465 115.375 108.465Z" fill="white"/>
</mask>
<g mask="url(#mask1_0_2420)">
<path d="M110.17 108.59C110.418 107.846 111.038 107.35 111.658 106.854C112.277 106.483 113.021 106.235 113.64 106.111C114.384 105.987 115.127 105.987 115.747 106.235C116.491 106.359 117.11 106.731 117.73 107.226C116.986 107.598 116.367 107.722 115.747 107.97C115.127 108.094 114.508 108.218 113.888 108.342C113.269 108.466 112.649 108.466 112.029 108.59C111.534 108.59 110.914 108.59 110.17 108.59Z" fill="#0D2436"/>
</g>
<path d="M75.2234 132.515C75.2234 132.515 71.5056 127.185 69.151 131.523C66.9203 135.738 77.578 146.77 81.4197 143.795C81.5436 143.795 79.9326 137.721 75.2234 132.515Z" fill="#FFAA98"/>
<path d="M100.009 119.499C97.7781 118.631 95.9192 118.011 94.1843 118.383C93.3168 118.631 92.5732 118.879 91.7057 119.499C91.3339 119.746 90.9622 120.118 90.4665 120.49C90.0947 120.862 89.7229 121.234 89.1033 121.606C89.2272 120.986 89.3511 120.49 89.475 119.87C89.7229 119.375 89.9708 118.755 90.3425 118.259C91.0861 117.267 92.2014 116.524 93.5646 116.152C94.9278 115.904 96.291 116.152 97.2824 116.771C98.6456 117.515 99.5131 118.383 100.009 119.499Z" fill="#0D2436"/>
<path opacity="0.29" d="M89.8469 156.687L117.111 144.043L120.705 147.886C120.705 147.886 117.854 154.332 89.8469 156.687Z" fill="#FF5377"/>
<path d="M108.684 114.541C110.047 116.152 111.286 117.888 112.401 119.623C113.517 121.359 114.632 123.218 115.747 124.954L115.995 125.326L115.623 125.573C114.756 126.193 113.765 126.813 112.897 127.309C112.03 127.929 111.038 128.425 110.047 128.92C110.79 128.177 111.658 127.433 112.525 126.813C113.393 126.069 114.26 125.45 115.128 124.83L115.004 125.45C113.889 123.714 112.773 121.855 111.782 120.119C110.542 118.384 109.551 116.524 108.684 114.541Z" fill="#0D2436"/>
<path opacity="0.29" d="M110.914 128.919L116.491 127.06L115.251 125.324L110.914 128.919Z" fill="#FF5377"/>
<path d="M95.1757 111.193C92.5732 111.689 90.4665 112.308 88.3597 113.3C87.3683 113.796 86.253 114.292 85.2615 114.912C84.7658 115.16 84.2701 115.531 83.6505 115.779C83.1548 116.027 82.5352 116.399 81.9155 116.647C82.1634 116.027 82.5352 115.531 82.9069 114.912C83.2787 114.416 83.6505 113.92 84.1462 113.424C85.0137 112.556 86.129 111.689 87.3683 111.193C88.6076 110.697 89.8468 110.325 91.21 110.201C92.6971 110.325 94.0603 110.573 95.1757 111.193Z" fill="#0D2436"/>
<path d="M116.243 132.02L117.111 137.722C117.111 137.722 109.799 140.821 106.949 135.366L116.243 132.02Z" fill="#FF5377"/>
<path d="M86.005 101.524C86.005 101.524 110.914 104.499 115.5 95.9462C115.5 95.9462 120.704 85.2856 112.649 83.6741L110.542 88.8804C110.542 88.8804 110.914 79.0876 106.205 79.8313C101.372 80.5751 102.363 86.2773 102.363 86.2773C102.363 86.2773 78.6934 79.2115 70.6382 102.888L68.0357 98.4254L68.9032 104.128L64.0701 104.871L67.2922 106.359C67.2922 106.359 60.3523 118.259 69.275 131.523C69.275 131.523 73.2406 126.069 78.1977 135.49C78.1977 135.49 83.6504 141.935 81.6676 135.366C79.6848 128.796 70.0185 104.995 86.005 101.524Z" fill="#0D2436"/>
<path d="M101.991 249.409L149.331 236.889C149.331 236.889 153.173 248.541 164.822 257.218C164.822 257.218 148.836 266.143 150.571 280.523C150.571 280.523 124.918 268.87 108.064 283.374C107.94 283.25 90.3424 269.738 101.991 249.409Z" fill="#1D716E"/>
<path d="M75.595 174.908C75.595 174.908 53.784 178.627 26.768 132.514C21.9349 136.976 16.8539 141.067 11.7729 145.406C26.1484 173.297 52.6687 211.228 82.2871 210.237C82.1631 210.237 91.9533 189.411 75.595 174.908Z" fill="#0D2436"/>
<path d="M118.598 169.579C118.598 169.579 138.798 159.414 154.041 108.219C159.865 111.318 165.814 114.169 171.638 117.144C164.45 147.762 147.72 190.9 118.845 197.098C118.845 196.974 106.205 187.553 118.598 169.579Z" fill="#0D2436"/>
<path d="M185.146 358.743C174.612 354.032 165.07 347.214 156.519 339.653C142.268 327.009 130.371 311.886 120.085 295.895C115.252 288.457 110.666 280.772 106.825 272.714C108.436 272.094 110.666 280.772 106.825 272.714C125.662 264.533 144.003 259.698 162.716 252.137L242.152 275.565C242.152 275.565 246.985 317.092 185.146 358.743Z" fill="#0D2436"/>
<path d="M106.825 281.391C106.825 281.391 126.157 257.095 148.34 275.441L204.355 315.108C204.355 315.108 207.205 330.603 187.873 330.603C187.996 330.603 120.333 306.679 106.825 281.391Z" fill="#067AD1"/>
<path d="M123.679 269.119C123.679 269.119 141.896 240.856 167.549 253.995L230.751 280.771C230.751 280.771 236.947 295.274 217.987 299.365C218.111 299.365 142.392 290.812 123.679 269.119Z" fill="#067AD1"/>
<path d="M172.629 318.455C172.629 318.455 184.155 342.256 259.626 353.908L266.442 338.413L185.27 303.58C185.146 303.58 166.805 310.026 172.629 318.455Z" fill="#067AD1"/>
<path d="M205.842 292.175C205.842 292.175 204.603 309.901 280.818 305.687L285.775 291.803L215.013 275.068C215.013 275.068 198.407 285.233 205.842 292.175Z" fill="#067AD1"/>
<path d="M259.502 353.907C259.502 353.907 273.01 359.733 277.843 358.742C282.676 357.75 295.193 326.884 290.36 319.074C290.36 319.074 278.711 336.429 266.194 338.412L259.502 353.907Z" fill="#FFAA98"/>
<path d="M293.334 318.082C290.483 313.248 276.852 319.074 274.993 331.594C274.993 331.594 277.595 334.445 283.42 336.305C268.548 369.154 274.993 365.435 274.993 365.435C285.279 358.865 289.244 338.536 289.492 337.42C289.616 337.42 289.74 337.42 289.864 337.42C289.864 337.544 296.308 322.917 293.334 318.082Z" fill="#0D2436"/>
<path d="M277.967 306.059C277.967 306.059 291.475 311.886 296.308 310.894C301.141 309.902 313.658 279.036 308.824 271.227C308.824 271.227 297.175 288.581 284.659 290.564L277.967 306.059Z" fill="#FFAA98"/>
<path d="M77.7021 177.14L109.427 269.118C109.427 269.118 158.254 252.88 163.087 246.186C163.087 246.186 136.691 169.206 136.691 167.347C136.691 165.364 117.854 166.107 117.854 166.107L91.0862 172.181L77.7021 177.14Z" fill="white"/>
<path d="M84.0222 168.71L95.6713 165.859C95.6713 165.859 112.154 300.232 210.675 327.38C210.675 327.38 173.001 339.032 185.518 358.37C185.518 358.37 93.6885 332.214 87.864 257.838L70.0186 175.156L84.0222 168.71Z" fill="#0D2436"/>
<path d="M112.154 164.744C112.154 164.744 131.486 289.448 233.973 286.597L242.648 274.945C242.648 274.945 159.989 253.996 135.7 157.307L112.154 164.744Z" fill="#0D2436"/>
<g opacity="0.43">
<path d="M76.2652 198.217L75.166 198.406L77.2926 210.745L78.3917 210.555L76.2652 198.217Z" fill="white"/>
</g>
<g opacity="0.43">
<path d="M29.2024 136.858L14.353 150.002L15.0922 150.837L29.9415 137.694L29.2024 136.858Z" fill="white"/>
</g>
<g opacity="0.43">
<path d="M153.08 113.954L152.562 114.941L169.46 123.814L169.978 122.827L153.08 113.954Z" fill="white"/>
</g>
<g opacity="0.43">
<path d="M203.116 330.231C157.139 323.289 129.379 279.407 114.26 243.83C97.9022 205.279 92.2016 167.967 92.0776 167.595L93.193 167.471C93.193 167.843 98.8936 205.155 115.252 243.458C130.371 278.787 157.883 322.421 203.24 329.239L203.116 330.231Z" fill="white"/>
</g>
<g opacity="0.43">
<path d="M227.405 283.622C187.005 283.622 159.246 253.252 142.639 226.972C123.679 196.85 115.004 165.364 115.004 164.992L116.119 164.744C116.243 165.116 124.794 196.478 143.631 226.476C160.981 254.12 190.971 286.225 234.717 282.258L234.841 283.374C232.362 283.498 229.884 283.622 227.405 283.622Z" fill="white"/>
</g>
<path d="M78.9413 140.2C78.8174 140.2 78.8174 140.2 78.9413 140.2C78.5696 140.2 72.8689 139.209 72.4972 135.366C72.3732 134.374 72.745 133.63 73.2407 133.383C74.48 132.763 76.5867 134.374 76.9585 134.746C77.2064 134.994 77.2064 135.242 77.0824 135.49C76.8346 135.738 76.5867 135.738 76.3389 135.614C75.4714 134.87 74.2321 134.126 73.8604 134.374C73.7364 134.374 73.6125 134.746 73.7364 135.366C73.9843 138.341 79.0653 139.209 79.1892 139.209C79.437 139.209 79.6849 139.581 79.6849 139.829C79.437 139.952 79.1892 140.2 78.9413 140.2Z" fill="#FF5377"/>
<path d="M170.647 290.191C170.647 290.191 162.468 281.762 154.784 281.762" stroke="#0D2436" stroke-miterlimit="10"/>
<path d="M317.5 268.622C314.897 263.663 301.017 268.498 298.291 281.018C298.291 281.018 300.769 284.117 306.346 286.224C289.616 318.082 296.184 314.859 296.184 314.859C306.966 308.909 312.171 288.951 312.419 287.836C312.542 287.836 312.666 287.836 312.79 287.836C312.79 287.836 320.102 273.704 317.5 268.622Z" fill="#0D2436"/>
</svg>
