<svg width="18" height="21" viewBox="0 0 18 21" fill="none" xmlns="http://www.w3.org/2000/svg">
<path d="M4.62746 0.67627C3.41507 0.67627 2.31671 1.17314 1.52318 1.97236C0.727334 2.77158 0.236328 3.87784 0.236328 5.09893C0.236328 7.54346 2.20268 9.52159 4.62746 9.52159H7.88998V6.22628H2.4284V3.97159H15.5902V6.22628H10.1286V9.52159H17.7822V0.678616H4.62746V0.67627Z" fill="#0079FC"/>
<path d="M17.7822 15.8379C17.7822 17.059 17.2912 18.1652 16.4954 18.9668C15.7019 19.766 14.6035 20.2606 13.3911 20.2606H0.236328V11.4199H7.88998V18.4441H10.1286V11.4199H13.3911C15.8159 11.4199 17.7822 13.398 17.7822 15.8402V15.8379Z" fill="#0079FC"/>
</svg>
