<svg width="201" height="144" viewBox="0 0 201 144" fill="none" xmlns="http://www.w3.org/2000/svg">
<g clip-path="url(#clip0_0_757)">
<path d="M200.981 70.8192C200.66 62.9912 200.31 55.5503 199.931 48.4964C199.708 44.5002 199.28 41.2974 198.639 38.8783C196.958 32.5792 191.147 31.3697 185.511 32.5502C185.229 32.6082 184.967 32.405 184.957 32.1147C184.87 29.1829 184.734 26.193 184.539 23.1256C184.374 20.6195 183.393 18.8585 181.585 17.8425C180.546 17.2522 178.738 16.9619 176.183 16.9813C168.448 17.0393 161.199 17.1458 154.435 17.3006C153.444 17.3296 153.133 16.8845 153.493 15.9653L158.245 3.98626C159.032 2.01233 157.496 -0.106737 155.368 -0.000299478C151.2 0.202899 146.953 0.280308 142.619 0.222251C140.142 0.193223 137.877 0.986665 135.38 0.822171C132.067 0.59962 129.472 0.793142 127.616 1.41241C126.285 1.85752 125.828 2.74772 126.236 4.08302C126.469 4.83776 127.14 5.37962 127.927 5.44736C134.962 6.04728 140.783 5.36995 148.8 6.00857C149.12 6.0376 149.208 6.19242 149.081 6.4827C147.041 11.1176 140.258 23.5998 151.608 22.7483C159.624 22.1483 167.651 21.9935 175.697 22.2741C175.755 22.2838 176.173 22.2645 176.94 22.2354C178.544 22.1774 179.409 23.0385 179.535 24.8189C179.758 27.8282 179.807 30.3827 179.69 32.5018C179.671 32.8404 179.496 33.034 179.156 33.0823C170.702 34.3402 162.783 35.811 155.397 37.5043C152.628 38.1333 150.694 39.904 147.779 40.1749C143.727 40.562 139.5 41.1619 135.079 41.965C132.698 42.3908 130.609 43.31 128.403 44.2486C128.112 44.3744 127.82 44.3841 127.519 44.2583C117.539 40.3394 106.685 35.0853 95.6562 35.7626C94.1403 35.8497 92.7022 35.7723 91.3321 35.5207C87.4841 34.8241 83.6166 34.1757 79.7395 33.5855C77.9612 33.3146 76.4259 33.3049 75.1335 33.5468C70.6928 34.3789 67.0197 37.2624 62.3651 40.5233C60.9756 41.5006 59.9261 41.9166 59.2168 41.7812C54.6983 40.949 50.1506 40.1266 45.5836 39.3234C45.2823 39.2654 45.0297 39.0815 44.8839 38.8203C44.058 37.3011 42.7656 36.4206 40.997 36.1884C40.4043 36.1013 39.0147 35.8884 36.8284 35.5498C31.0369 34.6305 25.3329 33.7016 19.7164 32.7727C19.1042 32.676 18.6378 32.1534 18.6184 31.5438C18.5309 29.328 18.5406 27.0154 18.6475 24.5867C18.7058 23.1934 19.4249 22.4483 20.8047 22.3419C29.6085 21.6742 38.2859 21.771 46.8468 22.6418C49.2858 22.8837 51.1126 20.7066 50.928 18.4521C50.724 15.8589 50.3158 13.0238 49.7036 9.94675C49.5093 8.98881 49.4316 8.30181 49.4704 7.86639C49.5385 6.98586 50.0049 6.55043 50.8891 6.54076C59.7026 6.46335 68.1663 6.42464 76.2899 6.41497C77.8932 6.41497 79.069 5.76667 79.7978 4.46039C79.9727 4.17011 80.0018 3.81209 79.8755 3.49278C79.0496 1.335 77.3393 0.338365 74.7448 0.502859C69.4101 0.831847 63.3952 0.144842 58.9058 0.164195C54.3193 0.173871 49.7231 0.173871 45.1268 0.154518C41.4926 0.144842 40.8124 2.32197 41.6092 5.26351C42.6976 9.25975 43.4263 13.1689 43.7956 16.991C43.8247 17.2909 43.611 17.5522 43.3195 17.5812C39.8796 17.9683 37.013 16.6813 33.612 16.9136C30.3956 17.1264 26.9751 17.1071 23.3312 16.8652C21.0379 16.72 18.8613 17.1071 16.811 18.0457C12.3896 20.068 13.167 26.8316 13.2836 30.8568C13.2933 31.1762 13.1281 31.3213 12.8075 31.3116C6.0929 30.9536 3.33322 35.5594 2.3615 41.5006C0.544391 52.5507 -0.349591 60.34 0.126552 69.1549C0.515239 76.2572 6.68565 76.2959 12.0495 77.07C12.4091 77.1184 12.6812 77.4183 12.6909 77.786C12.8852 83.6594 12.9047 89.736 12.7589 96.0158C12.6034 102.383 13.8861 107.347 21.3197 107.279C27.8691 107.211 34.6323 107.376 41.6092 107.772C42.8142 107.84 43.6984 108.933 43.4944 110.124C42.6392 115.029 41.7064 119.906 40.6958 124.764C39.6755 129.669 41.3177 132.098 45.603 132.059C56.1461 131.953 67.1557 131.905 78.6317 131.905C80.5266 131.905 81.5274 130.966 81.6538 129.089C81.7023 128.324 81.4594 127.608 80.925 126.921C80.4877 126.36 79.8172 126.041 79.0981 126.06C69.0408 126.302 59.2945 126.244 49.8494 125.876C49.2567 125.857 48.9846 125.547 49.0429 124.957C49.451 120.883 49.8883 116.887 50.3547 112.968C50.7628 109.514 50.8017 106.66 50.481 104.424C50.102 101.822 48.0226 100.97 45.4767 101.105C36.7506 101.56 28.7048 101.638 21.3295 101.318C20.6007 101.289 19.9302 101.047 19.318 100.593C17.9284 99.567 17.6175 95.8417 17.6661 94.5064C17.8701 89.1458 18.0742 83.9594 18.2783 78.9472C18.2977 78.415 18.5795 78.1634 19.1139 78.2021C26.4115 78.7343 33.5828 79.0342 40.6084 79.0826C43.0571 79.102 45.4864 79.4406 47.9643 79.6245C48.7708 79.6825 49.4316 80.3018 49.5385 81.1049C49.8105 83.0885 50.3936 84.8399 51.2973 86.3591C52.1815 87.8298 53.9306 88.5555 55.3979 89.4748C57.526 90.8004 58.3325 93.4904 60.8298 94.6418C63.7936 96.0158 66.2034 96.8286 68.1566 99.2573C69.0409 100.37 70.0223 101.086 71.0912 101.415C74.0938 102.354 76.8535 103.379 79.3702 104.473C81.3525 105.344 83.4028 105.74 85.4629 106.398C88.0088 107.221 90.6033 107.482 93.2561 107.182C93.5768 107.153 93.8877 107.201 94.1695 107.337C97.6385 108.953 100.408 111.082 104.45 110.336C105.587 110.124 107.424 109.253 109.96 107.724C111.962 106.514 113.993 105.353 116.053 104.231C119.609 102.315 121.922 99.5573 125.051 97.0609C127.257 95.2901 129.113 93.6549 130.609 92.1357C133.786 88.9039 136.77 86.8622 138.46 82.0435C138.567 81.7436 138.781 81.5887 139.102 81.5791C141.91 81.492 145.029 81.1533 148.469 80.5631C150.063 80.2921 151.899 80.3599 153.405 80.9211C155.397 81.6661 157.37 82.0822 159.323 82.15C165.911 82.3822 172.937 82.179 180.39 81.55C180.769 81.521 180.963 81.6952 180.983 82.0725C181.323 88.6426 181.08 95.2321 180.264 101.831C179.797 105.586 174.948 106.505 171.907 106.205C166.028 105.615 160.13 105.479 154.212 105.798C151.792 105.934 148.08 103.254 146.72 106.998C146.497 107.608 146.467 108.488 146.623 109.64C147.332 114.894 147.896 120.148 148.314 125.393C148.333 125.567 148.197 125.722 148.012 125.731C141.366 126.012 133.641 126.118 124.827 126.051C122.68 126.041 121.844 127.076 122.301 129.157C122.349 129.379 122.408 129.611 122.466 129.834C122.884 131.392 124.302 132.495 125.925 132.514C134.117 132.64 142.678 132.611 151.588 132.427C154.863 132.359 156.359 130.608 156.097 127.173C155.64 121.135 154.144 115.958 153.085 110.085C153.017 109.708 153.328 109.369 153.716 109.408C161.033 110.114 167.427 110.52 175.59 110.395C181.478 110.298 186.687 107.259 186.978 100.767C187.28 94.3128 187.289 87.9556 187.017 81.6758C186.988 81.0662 187.523 80.5727 188.135 80.6502C190.224 80.9211 192.527 80.7276 195.053 80.0793C199.786 78.8601 201.165 75.2122 200.981 70.8192ZM35.2833 63.2912C34.7975 66.1457 34.9238 69.213 35.2639 72.0578C35.3319 72.5996 35.0987 72.8125 34.5643 72.6867C31.8143 72.0674 28.5785 72.2706 26.3144 72.0481C17.8799 71.2159 12.2536 70.7321 9.43562 70.6063C6.75367 70.4806 5.54874 69.5033 5.64591 66.7359C5.70422 65.12 5.70422 63.446 5.64591 61.6946C5.36412 53.4603 6.44272 45.4291 8.89145 37.6108C9.19269 36.6432 10.1936 36.0626 11.1847 36.2755C14.0318 36.8947 16.9276 37.3882 19.8622 37.7462C25.6147 38.4526 31.4839 39.3912 37.4697 40.562C37.9459 40.6588 38.2762 41.0942 38.2276 41.578C37.4891 48.8254 36.5077 56.0631 35.2833 63.2912ZM61.1213 88.0621C60.6355 88.5555 60.4509 88.4588 60.5675 87.7815C61.1213 84.4432 63.0162 79.3923 66.0868 77.3699C66.4075 77.1474 66.7087 77.07 66.9808 77.1184C67.1751 77.1571 67.3403 77.2345 67.4764 77.3603C67.7193 77.6022 67.7485 77.8538 67.5444 78.1247C66.8836 79.0342 66.3298 80.0019 65.873 81.0179C64.6681 83.7272 63.0842 86.0785 61.1213 88.0621ZM75.4833 96.161C75.1335 96.6835 74.4242 96.8286 73.8897 96.4803L73.8411 96.4513C73.3164 96.1029 73.1707 95.3966 73.5205 94.8644L80.167 84.8593C80.5169 84.3368 81.2262 84.1916 81.7606 84.54L81.8092 84.569C82.334 84.9173 82.4797 85.6237 82.1299 86.1559L75.4833 96.161ZM84.9868 97.3511C84.1122 99.1799 82.7712 100.08 80.9541 100.051C80.4877 100.051 80.2156 99.5089 80.5071 99.1412C82.159 97.0028 83.4612 94.787 84.4037 92.5131C84.7827 91.6035 85.1811 90.7133 85.5989 89.8521C85.7836 89.4748 86.0362 89.4167 86.3763 89.6683C87.4744 90.4908 88.106 91.6035 88.2906 92.9872C88.3392 93.3452 88.2129 93.6355 87.9116 93.8484C86.6387 94.7773 85.667 95.9481 84.9868 97.3511ZM92.0123 97.9027C91.4293 99.0735 91.1863 100.312 91.2932 101.599C91.3224 101.918 91.196 102.15 90.9142 102.315C90.0883 102.799 89.1457 102.983 88.0865 102.876C87.6298 102.828 87.591 102.673 87.9505 102.392C89.4275 101.251 90.5741 99.7121 91.4001 97.7866C91.4681 97.6414 91.575 97.593 91.7208 97.6511L91.954 97.7479C92.0317 97.7769 92.0512 97.8349 92.0123 97.9027ZM131.93 80.5534L130.356 84.3755C129.919 85.4398 129.559 85.4205 129.268 84.3077C128.782 82.4789 129.035 81.0953 130.016 80.176C130.337 79.8761 130.298 79.6245 129.909 79.431L128.209 78.5891C127.84 78.3956 127.694 78.5021 127.772 78.9181C128.053 80.2534 127.946 81.4049 127.47 82.3628C127.091 83.1369 126.586 83.224 125.964 82.6241L112.564 69.6774C111.388 68.5453 110.135 68.4389 108.784 69.3581L108.463 69.571C107.161 70.4709 107.103 71.4385 108.298 72.4738C114.216 77.6119 119.502 83.2337 124.166 89.3296C124.361 89.5909 124.371 89.8521 124.205 90.1328C123.496 91.2649 122.524 92.2905 121.31 93.2098C121.047 93.413 120.795 93.4033 120.532 93.2098C117.947 91.1294 115.266 89.1845 112.933 86.8913C109.804 83.8239 106.355 80.7082 102.575 77.5441C102.274 77.2925 101.914 77.1377 101.525 77.0893C100.602 76.9732 99.8832 77.1764 99.3488 77.6989C98.3673 78.6762 98.3868 79.6342 99.4168 80.5727C105.354 85.9623 110.64 91.2649 115.275 96.4803C115.829 97.0996 115.79 97.6801 115.159 98.2123L113.72 99.4605C113.069 100.012 112.428 100.002 111.796 99.4315C107.375 95.3869 102.847 91.5842 98.2118 88.033C97.347 87.3654 96.2976 87.1332 95.0538 87.3267C94.6554 87.3847 94.3736 87.704 94.1889 88.2943C94.082 88.6426 94.1792 89.0103 94.4416 89.2619L107.706 101.86C108.172 102.296 108.114 102.654 107.531 102.925L103.333 104.879C102.847 105.111 102.274 105.063 101.827 104.753C100.126 103.583 98.8629 102.131 98.0272 100.409C97.9981 100.351 97.9981 100.293 98.0467 100.244C98.105 100.177 98.173 100.119 98.2604 100.07C98.3285 100.041 98.3965 100.051 98.4548 100.099C100.058 101.57 101.866 102.18 103.867 101.918C104.46 101.841 104.509 101.638 104.013 101.309C102.701 100.428 101.273 99.6057 99.7472 98.8316C98.3285 98.1059 97.2013 97.1576 96.3753 95.9868C94.8983 93.9064 94.4805 91.7003 92.5662 89.9876C89.3498 87.1041 85.8905 84.8012 82.8101 81.7145C81.7121 80.6211 80.5849 79.6825 79.4091 78.9085C78.6026 78.3763 77.524 78.6085 77.0089 79.4213L69.5461 91.3229C69.1672 91.9228 68.623 92.2228 67.9137 92.2131C67.5541 92.2131 67.1946 92.2131 66.835 92.2034C66.1451 92.2034 65.9799 91.9035 66.3395 91.3132C69.5947 86.0107 71.6548 82.8273 74.8712 80.7469C75.9595 80.0406 76.2316 78.5698 75.4542 77.5344C73.6759 75.1444 71.6548 74.2446 69.4004 74.8155C69.0117 74.9122 68.691 74.8155 68.4384 74.5155C67.2626 73.1318 65.5232 72.3287 63.2008 72.0965C62.4332 72.0191 61.889 72.3287 61.578 73.0351L57.1664 82.9531C56.9915 83.3401 56.6514 83.6111 56.2336 83.6981C55.3493 83.8723 54.844 83.5723 54.7274 82.7983C53.9695 78.0086 58.6435 77.1087 58.4588 72.9963C58.4394 72.648 58.2548 72.4448 57.905 72.3771L54.9509 71.8739C54.6983 71.8255 54.4748 71.8836 54.2804 72.0481L53.8723 72.4061C53.8723 72.4061 53.7849 72.4255 53.7654 72.3867L52.1524 69.0872C52.0455 68.855 51.7443 68.8066 51.5693 68.9904C50.928 69.6774 50.4713 70.4515 50.2089 71.3224C50.102 71.7094 50.2381 71.8739 50.6365 71.8255L51.8997 71.6514C52.0163 71.632 52.1329 71.7094 52.1718 71.8255C52.3856 72.4255 52.4828 73.1608 52.473 74.0317C52.473 74.351 52.3273 74.5639 52.0261 74.68C51.5499 74.8638 51.1904 74.8542 50.9572 74.6413C50.3936 74.1478 49.7619 73.7898 49.0526 73.5576C48.7514 73.4608 48.5959 73.2479 48.5959 72.9286C48.5862 71.9126 48.5181 71.0127 48.3918 70.2483C48.2558 69.4549 48.0226 69.4259 47.6825 70.1516C47.3424 70.8773 47.08 71.6997 46.8954 72.5996C46.8176 72.977 46.3512 73.1125 46.0791 72.8415L45.8362 72.5996C45.5058 72.2706 45.4087 71.7772 45.5738 71.3514L46.5456 68.913C46.6719 68.5937 46.6427 68.2938 46.4581 68.0131C46.2152 67.6164 46.0403 67.4035 45.9528 67.3745C44.6118 66.9197 43.3583 68.2357 43.8733 69.542C44.2329 70.4709 44.4661 71.3901 44.5633 72.2997C44.5924 72.6093 44.4564 72.7641 44.1454 72.7544L41.5412 72.7061C41.2594 72.6964 41.1136 72.5609 41.1039 72.2803C40.725 63.1557 41.2691 53.8957 42.7364 44.5195C42.785 44.2196 42.9696 44.0744 43.2806 44.0841C47.7213 44.3454 52.2107 44.9937 56.7292 46.0193C57.3899 46.1645 57.3997 46.3386 56.7486 46.5418C55.6506 46.8805 55.3202 47.5869 55.7575 48.6609C56.0587 49.3866 56.9138 49.7059 57.6232 49.3673C60.4023 48.032 63.1522 46.7934 65.6593 44.9937C68.1955 43.1842 70.6636 41.3845 73.0735 39.6041C74.5408 38.5107 76.1927 38.0752 78.0098 38.3075C79.8269 38.53 81.6732 38.7235 83.5583 38.8687C85.1811 39.0041 85.2977 39.4976 83.9179 40.3588C78.1264 43.968 73.7731 49.0576 70.858 55.6277C69.3615 58.995 67.1654 63.3396 71.4216 65.9328C74.9878 68.1002 78.2916 68.4873 81.3331 67.1036C82.5672 66.5327 84.5106 64.9361 87.1537 62.3042C89.4567 60.011 93.8197 55.1633 97.1624 55.0955C101.875 54.9988 107.132 59.0047 110.893 61.7333C118.152 66.9971 125.148 72.9383 131.697 79.4406C132.028 79.7599 132.105 80.1373 131.93 80.5631V80.5534ZM151.161 63.3106C150.898 66.8423 150.704 70.3935 150.587 73.964C150.568 74.4091 150.335 74.6123 149.888 74.5736L148.595 74.4671C148.294 74.4381 147.993 74.5348 147.76 74.7284C147.4 75.0283 146.992 75.2122 146.516 75.2606C146.215 75.2896 146.156 75.1928 146.351 74.9606L147.585 73.4995C147.789 73.2673 148.032 73.1318 148.333 73.0834C148.654 73.0447 148.897 72.9189 149.072 72.7157C149.315 72.4351 149.276 72.1932 148.955 71.9997C148.673 71.8255 148.362 71.7288 148.022 71.7094C147.556 71.6707 147.4 71.4288 147.556 70.9934L147.818 70.2C147.964 69.7645 147.769 69.3001 147.361 69.0969L146.477 68.6711C146.011 68.4486 145.7 68.584 145.544 69.0775C145.301 69.8419 145.243 70.6547 145.36 71.5062C145.399 71.8255 145.369 72.1352 145.282 72.4351L144.427 75.2799C144.368 75.4541 144.194 75.5508 144.019 75.5121L143.737 75.4444C143.62 75.4154 143.562 75.3476 143.562 75.2218L143.834 69.9C143.853 69.5033 143.669 69.3194 143.27 69.3291C142.717 69.3388 142.182 69.5517 141.657 69.9484C141.337 70.1903 141.346 70.4322 141.667 70.6644C142.911 71.5546 143.134 73.006 142.328 75.0187C142.182 75.396 141.9 75.6089 141.492 75.6476L138.295 75.9863C138.013 76.0153 137.761 76.1024 137.518 76.2572C137.294 76.4023 137.051 76.4894 136.789 76.5088C136.527 76.5281 136.284 76.4507 136.07 76.2862C132.786 73.7608 129.832 70.887 127.218 67.6648C126.916 67.2971 126.994 67.181 127.451 67.3068C129.453 67.8583 130.92 66.7553 131.843 63.9782C132.144 63.0977 131.824 62.6235 130.881 62.5558C130.075 62.5074 129.2 62.7397 128.248 63.2718C127.966 63.4267 127.742 63.6492 127.577 63.9298C127.159 64.6555 126.557 65.1297 125.77 65.3522C125.498 65.4296 125.245 65.3812 125.012 65.2168C118.919 60.9206 112.924 56.6921 107.025 52.5313C102.41 49.2705 97.5899 48.8351 92.5467 51.2154C86.9788 53.8376 84.6758 57.0211 81.2456 61.0367C79.9533 62.5558 78.4374 63.1557 76.7077 62.8267C74.6574 62.4397 74.0063 61.1915 74.7448 59.0724C76.387 54.3795 78.9038 50.4703 82.3145 47.345C85.4046 44.5002 91.5944 41.7909 95.4036 40.7555C97.2498 40.262 99.4459 40.2427 102.002 40.6975C112.632 42.623 124.03 47.9158 133.437 53.199C133.699 53.3441 134.029 53.1603 134.049 52.8603L134.243 49.2318C134.272 48.7964 134.088 48.3803 133.767 48.09L133.349 47.7223C132.99 47.3933 133.048 47.1708 133.524 47.0547C136.517 46.3483 139.306 45.9226 141.9 45.7677C144.223 45.6226 146.254 44.6066 148.741 44.9646C149.062 45.013 149.266 45.1969 149.344 45.5162C150.937 52.3959 151.54 58.3273 151.161 63.3106ZM195.248 73.0447C195.141 73.3447 194.927 73.5382 194.616 73.6253C190.049 74.8542 185.142 74.0801 180.439 74.322C175.891 74.5542 172.655 74.6703 170.741 74.6703C166.543 74.6606 162.345 74.7284 158.138 74.8638C157.778 74.8735 157.487 74.6026 157.467 74.2446L155.679 43.01C155.65 42.4972 156.019 42.0328 156.534 41.9457C160.47 41.2587 164.124 40.4556 167.515 39.517C170.129 38.7913 172.733 38.9267 175.415 38.3365C176.571 38.0849 177.834 37.9398 179.205 37.9011C181.07 37.843 183.053 37.0979 184.831 37.485C185.152 37.5527 185.462 37.5334 185.764 37.4269C189.174 36.1981 193.46 36.0723 194.159 40.7265C195.257 47.9933 195.87 57.1082 196.006 68.0712C196.025 69.9193 195.772 71.574 195.248 73.0447Z" fill="#002657"/>
<path d="M11.0003 39.9627C10.942 39.5854 11.2044 39.237 11.5736 39.179L12.0692 39.1016C13.2158 38.9274 14.275 39.6338 14.4402 40.6885L14.5762 41.6077C14.7414 42.6527 13.9446 43.6493 12.798 43.8235L12.3121 43.9009C11.9332 43.959 11.5833 43.7074 11.525 43.33L11.0003 39.9627Z" fill="#002657"/>
<path d="M22.175 41.9174C22.5345 42.0625 22.7094 42.4786 22.5636 42.8366L22.5151 42.9527C21.9417 44.3364 20.387 45.0137 19.046 44.4622L18.3367 44.1816C16.9957 43.6301 16.3641 42.0625 16.9374 40.6788L16.986 40.5627C17.1317 40.195 17.5496 40.0209 17.9091 40.1757L22.175 41.9174Z" fill="#002657"/>
<path d="M175.968 41.5494C176.026 41.0075 176.318 40.6398 176.833 40.456L177.882 40.0786C178.31 39.9238 178.757 40.2431 178.757 40.6979V44.4425C178.747 44.8489 178.563 45.1392 178.193 45.3134C177.795 45.5166 177.377 45.5553 176.959 45.4488C176.639 45.3714 176.415 45.1779 176.299 44.8586C175.949 43.9007 175.842 42.7976 175.968 41.5494Z" fill="#002657"/>
<path d="M23.2334 41.2206C23.2334 40.7562 23.4666 40.5433 23.9233 40.5917L24.2148 40.6304C24.7493 40.6885 25.0505 40.9787 25.138 41.5109C25.3615 42.8656 25.4003 44.0751 25.274 45.1491C25.138 46.2522 24.8076 46.3103 24.2731 45.333C23.6027 44.0944 23.2528 42.7204 23.2334 41.2206Z" fill="#002657"/>
<path d="M28.0149 41.0655C29.0449 41.4138 29.7445 41.9557 30.1235 42.7008C30.2693 43.0007 30.2207 43.2716 29.9777 43.4942C29.1324 44.2876 28.1606 44.8392 27.0723 45.1488C26.7516 45.2456 26.5476 45.1295 26.4796 44.8005C26.1978 43.4942 26.363 42.3718 26.9557 41.4332C27.2181 41.0365 27.5679 40.9107 28.0149 41.0655Z" fill="#002657"/>
<path d="M172.363 46.1749C170.886 45.1783 170.099 43.9784 170.002 42.5657C169.944 41.7819 170.546 41.1046 171.333 41.0659L172.771 40.9885C173.558 40.9401 173.947 41.3175 173.937 42.1109L173.899 45.3718C173.899 46.1555 173.014 46.6103 172.363 46.1749Z" fill="#002657"/>
<path d="M165.192 47.219C165.008 47.3835 164.804 47.4706 164.561 47.4899C164.094 47.519 163.997 47.3448 164.259 46.9674C165.027 45.874 165.27 44.6258 164.988 43.2421C164.881 42.7293 165.085 42.439 165.6 42.3713L167.349 42.1197C167.845 42.052 168.088 42.2648 168.088 42.7583V46.5804C168.098 46.9481 167.913 47.1706 167.553 47.248C167.029 47.3738 166.533 47.3158 166.076 47.0932C165.756 46.9384 165.455 46.9771 165.192 47.219Z" fill="#002657"/>
<path d="M32.591 46.3297L31.114 43.6204C30.8613 43.1657 31.1528 42.6044 31.6678 42.5367L34.4275 42.1884C34.9328 42.1206 35.3506 42.5754 35.234 43.0786L34.6316 45.7589C34.5927 45.962 34.4567 46.1362 34.2818 46.2427L33.6016 46.62C33.242 46.8232 32.7853 46.6878 32.591 46.3297Z" fill="#002657"/>
<path d="M71.9752 47.7032C71.9946 44.8681 73.2967 43.2038 75.8718 42.72C76.4548 42.6039 76.9212 43.2232 76.6394 43.7457C75.4734 45.9421 73.8797 47.4516 71.8683 48.2741C71.8003 48.3031 71.7322 48.2257 71.7711 48.158C71.8197 48.0902 71.8586 48.0128 71.9072 47.9354C71.9557 47.8677 71.9752 47.7903 71.9752 47.7032Z" fill="#002657"/>
<path d="M163.258 47.3068C163.258 47.8487 162.821 48.3035 162.267 48.3131H162.092C161.548 48.3228 161.092 47.8777 161.082 47.3262L161.043 43.8815C161.043 43.3396 161.48 42.8848 162.034 42.8752H162.209C162.753 42.8655 163.21 43.3106 163.22 43.8621L163.258 47.3068Z" fill="#002657"/>
<path d="M140.947 50.3065C141.841 50.5 142.522 50.2388 142.988 49.513C143.173 49.2324 143.153 48.9615 142.93 48.7099L142.667 48.4003C142.463 48.1777 142.463 47.9455 142.667 47.7133C143.076 47.2585 143.542 46.8908 144.076 46.6296C144.387 46.4844 144.601 46.5715 144.727 46.8908C145.136 47.9552 145.116 48.9809 144.669 49.9775C144.543 50.2678 144.319 50.4419 143.999 50.5C143.144 50.6548 142.347 50.9451 141.608 51.3805C140.549 51.9998 139.179 51.545 138.722 50.4226L138.353 49.5324C138.207 49.1937 138.265 48.8841 138.518 48.6132C139.227 47.8584 140.189 47.5972 141.404 47.8294C141.744 47.8971 141.773 48.0229 141.482 48.2261C141.006 48.5454 140.685 49.0002 140.52 49.5905C140.403 49.9872 140.549 50.2194 140.947 50.3065Z" fill="#002657"/>
<path d="M70.916 50.2385L70.3621 51.7577C70.1095 52.4447 69.2932 52.7156 68.6811 52.3286L67.0777 51.3029C66.6599 51.0416 66.4655 50.5288 66.6016 50.0547L66.7959 49.3483C66.9417 48.8161 67.4567 48.4581 68.0106 48.5162L69.9637 48.7194C70.7022 48.7968 71.1687 49.5418 70.916 50.2385Z" fill="#002657"/>
<path d="M98.008 57.321C98.4355 57.7951 96.2783 60.4463 93.1883 63.2621C90.0982 66.0682 87.2413 67.9647 86.8138 67.5002C86.3862 67.0261 88.5434 64.3748 91.6335 61.5591C94.7236 58.753 97.5804 56.8565 98.008 57.321Z" fill="#002657"/>
<path d="M143.951 58.1824L143.785 60.4273C143.746 60.9691 143.29 61.3755 142.755 61.3659L141.56 61.3368C141.094 61.3368 140.695 61.0078 140.598 60.5531L140.268 59.15C140.161 58.6952 140.384 58.2211 140.812 58.0179L142.503 57.1955C143.202 56.8665 144.009 57.4083 143.951 58.1824Z" fill="#002657"/>
<path d="M8.41475 66.8326L8.35645 63.117C8.35645 62.5461 8.80344 62.0817 9.37675 62.072L11.2813 62.043C11.7477 62.043 12.1656 62.3526 12.2919 62.7977L13.4385 66.9391C13.6329 67.6454 13.0401 68.3228 12.3113 68.226L9.30873 67.839C8.80344 67.7712 8.41475 67.3455 8.41475 66.8326Z" fill="#002657"/>
<path d="M17.6367 63.5532C18.1129 65.2078 18.0934 67.0366 17.3647 68.3138C17.2578 68.517 17.0829 68.6138 16.8496 68.6041C16.5776 68.6041 16.3346 68.5267 16.1306 68.3622C15.8682 68.159 15.7613 67.8881 15.7905 67.5591C15.9265 66.098 15.6447 64.7724 14.9548 63.5725C14.5758 62.9339 14.7604 62.6049 15.5087 62.5856L16.286 62.5662C16.9954 62.5469 17.4424 62.8759 17.6367 63.5532Z" fill="#002657"/>
<path d="M31.2118 69.4257L30.9592 69.6773C30.6093 70.016 30.0263 69.7354 30.0943 69.2516C30.3567 67.2583 30.3858 65.3811 30.1915 63.6104C30.1624 63.2911 30.2984 63.0975 30.6191 63.0492L32.407 62.7492C32.7666 62.6911 32.9415 62.846 32.9512 63.204L33.1164 69.3096C33.1358 69.8224 32.5236 70.1031 32.1349 69.7644L31.7463 69.416C31.5616 69.2516 31.3867 69.2516 31.2118 69.4257Z" fill="#002657"/>
<path d="M20.7458 68.8356C20.4543 68.8356 20.2308 68.5743 20.2502 68.2937L20.4543 64.4136C20.5028 63.6105 21.0664 62.9815 21.7175 63.0202L22.2228 63.0493C22.8836 63.0783 23.3791 63.7653 23.3305 64.5684L23.1168 68.4486C23.1071 68.7292 22.8544 68.9517 22.5629 68.942L20.7458 68.8356Z" fill="#002657"/>
<path d="M27.4024 63.0886C27.6939 63.0596 27.9465 63.2724 27.966 63.5627L27.9854 63.6982C28.238 66.5913 28.1312 68.9717 27.7327 69.0007L26.2849 69.1265C25.8962 69.1652 25.3715 66.8429 25.1188 63.9498V63.8143C25.08 63.524 25.2937 63.2724 25.5853 63.2434L27.4024 63.0886Z" fill="#002657"/>
<path d="M178.029 71.1486C178.048 71.5743 177.727 71.9323 177.3 71.9517L175.823 72.0291C175.405 72.0485 175.045 71.7291 175.016 71.3034L174.764 66.6492C174.744 66.2234 175.065 65.8654 175.492 65.8461L176.969 65.7687C177.387 65.7493 177.747 66.0686 177.776 66.4944L178.029 71.1486Z" fill="#002657"/>
<path d="M161.636 68.9331C161.315 69.9975 161.208 71.1296 161.306 72.3197C161.325 72.6294 161.033 72.8616 160.742 72.7648C160.13 72.5713 159.731 72.0972 159.527 71.3424C159.498 71.236 159.488 71.1199 159.518 71.0135L160.295 66.9979C160.47 66.1077 161.558 65.7593 162.219 66.3883C163.181 67.3172 163.443 68.3719 162.987 69.5524C162.86 69.8813 162.695 69.891 162.51 69.5911C162.365 69.3685 162.229 69.1266 162.083 68.8847C161.898 68.546 161.743 68.5654 161.636 68.9331Z" fill="#002657"/>
<path d="M172.169 70.8198C172.169 71.5068 171.606 72.0584 170.916 72.0487H170.313C169.633 72.039 169.079 71.4778 169.079 70.7908L169.108 67.23C169.108 66.543 169.672 65.9914 170.362 66.0011H170.964C171.644 66.0108 172.198 66.572 172.198 67.259L172.169 70.8198Z" fill="#002657"/>
<path d="M165.008 70.1034C164.503 69.0681 164.512 68.0134 165.027 66.9393C165.484 65.9814 165.98 65.962 166.514 66.8813C167.301 68.2553 167.476 70.1131 167.029 72.4547C166.99 72.6579 166.874 72.7353 166.67 72.6869L163.9 71.9419C163.579 71.8548 163.298 71.9225 163.035 72.1257L162.792 72.3192C162.608 72.4644 162.472 72.4354 162.365 72.2225C162.122 71.7096 162.122 71.2355 162.365 70.8098C162.627 70.3743 162.87 70.384 163.113 70.8194C163.181 70.9259 163.269 71.0226 163.375 71.1001C163.609 71.2742 163.92 71.3129 164.182 71.2065L164.658 71.013C165.095 70.8291 165.212 70.5292 165.008 70.1034Z" fill="#002657"/>
<path d="M137.371 75.8801C136.886 76.1511 136.264 75.9576 136.03 75.4447C135 73.1321 136.06 69.968 139.13 69.9874C139.519 69.9874 139.674 70.1809 139.587 70.5583C139.509 70.8969 139.354 71.1872 139.121 71.4291C138.878 71.6904 138.79 72 138.868 72.3484C139.218 73.9546 138.722 75.1351 137.371 75.8801Z" fill="#002657"/>
<path d="M140.491 73.3644C140.481 73.1902 140.549 73.0548 140.705 72.958C141.123 72.6968 141.502 72.7064 141.852 72.9677C142.133 73.1806 142.211 73.4515 142.065 73.7805C141.939 74.0611 141.745 74.2836 141.492 74.4385C141.171 74.6417 140.909 74.5739 140.715 74.2449C140.588 74.0224 140.52 73.7321 140.491 73.3644Z" fill="#002657"/>
<path d="M115.313 126.534C113.487 119.161 105.431 114.787 97.327 116.781C89.2326 118.774 84.1505 126.379 85.9773 133.762C87.8041 141.135 95.8597 145.509 103.964 143.516C112.058 141.522 117.14 133.917 115.313 126.534ZM98.3861 135.765C94.713 135.349 93.994 130.356 95.092 127.686C95.2086 127.405 95.4321 127.173 95.7139 127.047C96.4816 126.718 97.3658 126.583 98.3667 126.641C98.7554 126.67 98.9497 126.873 98.9595 127.27L99.1247 135.098C99.1344 135.494 98.7845 135.814 98.3861 135.765ZM103.643 135.581C102.633 135.804 101.709 134.943 101.865 133.927L103.021 126.505C103.167 125.586 103.701 125.238 104.605 125.47L105.363 125.663C106.296 125.896 106.966 126.708 107.025 127.666C107.161 129.969 106.51 134.952 103.643 135.581Z" fill="#002657"/>
</g>
<defs>
<clipPath id="clip0_0_757">
<rect width="201" height="144" fill="white"/>
</clipPath>
</defs>
</svg>
