<svg width="322" height="231" viewBox="0 0 322 231" fill="none" xmlns="http://www.w3.org/2000/svg">
<g clip-path="url(#clip0_374_21707)">
<path d="M321.969 113.606C321.456 101.049 320.895 89.112 320.288 77.7964C319.93 71.3857 319.245 66.2479 318.218 62.3674C315.525 52.2625 306.216 50.3223 297.187 52.216C296.735 52.3091 296.315 51.9831 296.3 51.5175C296.159 46.8143 295.941 42.0179 295.63 37.0974C295.366 33.0772 293.793 30.2522 290.898 28.6224C289.232 27.6755 286.337 27.2098 282.243 27.2409C269.851 27.334 258.239 27.5048 247.404 27.7531C245.816 27.7997 245.318 27.0857 245.894 25.6111L253.506 6.39469C254.767 3.22818 252.308 -0.171157 248.898 -0.000414292C242.22 0.32555 235.418 0.449727 228.475 0.356594C224.505 0.310028 220.878 1.58284 216.878 1.31896C211.569 0.961956 207.413 1.2724 204.44 2.26581C202.307 2.97983 201.575 4.40786 202.229 6.54991C202.603 7.76064 203.677 8.62988 204.938 8.73853C216.208 9.7009 225.533 8.61436 238.375 9.63881C238.889 9.68538 239.029 9.93373 238.827 10.3994C235.558 17.8345 224.692 37.858 242.874 36.4921C255.717 35.5297 268.575 35.2813 281.464 35.7315C281.558 35.747 282.227 35.716 283.457 35.6694C286.025 35.5763 287.411 36.9577 287.613 39.8138C287.971 44.6412 288.049 48.739 287.862 52.1383C287.831 52.6816 287.551 52.9921 287.006 53.0697C273.463 55.0875 260.776 57.4469 248.945 60.1633C244.509 61.1722 241.411 64.0128 236.741 64.4474C230.249 65.0683 223.478 66.0306 216.395 67.319C212.581 68.0019 209.234 69.4765 205.701 70.9822C205.234 71.184 204.767 71.1995 204.284 70.9977C188.297 64.7113 170.909 56.2827 153.24 57.3693C150.812 57.509 148.508 57.3848 146.313 56.9812C140.149 55.8636 133.953 54.8237 127.742 53.8768C124.893 53.4422 122.434 53.4267 120.363 53.8147C113.249 55.1496 107.365 59.7752 99.9083 65.0062C97.6823 66.5739 96.001 67.2413 94.8647 67.024C87.6261 65.6891 80.3408 64.3698 73.0244 63.0814C72.5418 62.9883 72.1371 62.6934 71.9036 62.2743C70.5804 59.8373 68.51 58.4248 65.6768 58.0523C64.7273 57.9126 62.5012 57.5711 58.9987 57.0278C49.7208 55.5532 40.5831 54.0631 31.5855 52.573C30.6048 52.4177 29.8576 51.5795 29.8264 50.6017C29.6863 47.0471 29.7019 43.3373 29.8731 39.4413C29.9665 37.2061 31.1185 36.0109 33.329 35.8401C47.4325 34.7691 61.3337 34.9243 75.0481 36.3213C78.9554 36.7094 81.8819 33.2169 81.5862 29.6002C81.2593 25.4403 80.6055 20.8923 79.6247 15.9563C79.3134 14.4196 79.1889 13.3176 79.2511 12.6191C79.3601 11.2065 80.1073 10.5081 81.5239 10.4925C95.643 10.3684 109.202 10.3063 122.216 10.2907C124.784 10.2907 126.668 9.25076 127.835 7.15528C128.115 6.68961 128.162 6.1153 127.96 5.60307C126.637 2.14164 123.897 0.542859 119.74 0.806735C111.194 1.33449 101.558 0.232417 94.3665 0.263462C87.019 0.278984 79.6559 0.278984 72.2928 0.247939C66.4708 0.232417 65.3811 3.72489 66.6576 8.44361C68.401 14.8542 69.5686 21.1252 70.1601 27.2564C70.2068 27.7376 69.8643 28.1567 69.3973 28.2033C63.8867 28.8241 59.2944 26.7597 53.8461 27.1322C48.6934 27.4737 43.2139 27.4427 37.3763 27.0546C33.7026 26.8218 30.2156 27.4427 26.931 28.9483C19.8481 32.1924 21.0934 43.0424 21.2802 49.4996C21.2958 50.0118 21.0312 50.2446 20.5175 50.2291C9.76077 49.6548 5.33979 57.0433 3.78311 66.5739C0.872109 84.3001 -0.560041 96.7954 0.202734 110.936C0.825408 122.329 10.7103 122.391 19.3032 123.633C19.8792 123.711 20.3151 124.192 20.3307 124.782C20.642 134.204 20.6731 143.952 20.4396 154.025C20.1906 164.239 22.2454 172.202 34.154 172.093C44.6461 171.985 55.4806 172.248 66.6576 172.885C68.5879 172.993 70.0044 174.747 69.6775 176.657C68.3076 184.526 66.8132 192.35 65.1943 200.142C63.5598 208.011 66.1906 211.907 73.0555 211.845C89.9455 211.675 107.583 211.597 125.967 211.597C129.003 211.597 130.606 210.091 130.808 207.08C130.886 205.854 130.497 204.705 129.641 203.603C128.94 202.703 127.866 202.191 126.714 202.222C110.603 202.61 94.9892 202.517 79.8582 201.927C78.9087 201.896 78.4728 201.399 78.5662 200.452C79.22 193.917 79.9205 187.507 80.6677 181.22C81.3215 175.679 81.3838 171.1 80.8701 167.514C80.263 163.339 76.9317 161.973 72.8532 162.19C58.8741 162.92 45.9848 163.044 34.1696 162.532C33.0021 162.485 31.9279 162.097 30.9472 161.367C28.7212 159.722 28.223 153.746 28.3009 151.604C28.6278 143.005 28.9547 134.685 29.2816 126.644C29.3127 125.791 29.7642 125.387 30.6203 125.449C42.311 126.303 53.7994 126.784 65.0542 126.862C68.977 126.893 72.8687 127.436 76.8383 127.731C78.1303 127.824 79.1889 128.818 79.3601 130.106C79.796 133.288 80.73 136.097 82.1777 138.534C83.5943 140.894 86.3963 142.058 88.7469 143.533C92.156 145.659 93.4481 149.974 97.4488 151.821C102.197 154.025 106.057 155.329 109.186 159.225C110.603 161.01 112.175 162.159 113.887 162.687C118.698 164.192 123.118 165.838 127.15 167.592C130.326 168.989 133.611 169.625 136.911 170.681C140.989 172 145.146 172.419 149.395 171.938C149.909 171.891 150.407 171.969 150.859 172.186C156.416 174.779 160.852 178.193 167.328 176.998C169.15 176.657 172.092 175.26 176.155 172.807C179.361 170.867 182.615 169.004 185.915 167.204C191.613 164.13 195.317 159.707 200.33 155.702C203.864 152.861 206.837 150.238 209.234 147.801C214.325 142.617 219.104 139.342 221.812 131.612C221.983 131.13 222.326 130.882 222.84 130.866C227.338 130.727 232.335 130.184 237.846 129.237C240.399 128.802 243.341 128.911 245.754 129.811C248.945 131.006 252.105 131.674 255.234 131.782C265.789 132.155 277.043 131.829 288.983 130.82C289.59 130.773 289.902 131.053 289.933 131.658C290.478 142.198 290.088 152.768 288.781 163.354C288.034 169.377 280.266 170.851 275.393 170.37C265.975 169.423 256.526 169.206 247.046 169.718C243.17 169.936 237.223 165.636 235.044 171.643C234.686 172.621 234.639 174.033 234.888 175.881C236.025 184.309 236.928 192.738 237.597 201.151C237.628 201.43 237.41 201.678 237.114 201.694C226.467 202.144 214.091 202.315 199.972 202.206C196.532 202.191 195.193 203.851 195.925 207.189C196.002 207.546 196.096 207.918 196.189 208.275C196.859 210.774 199.131 212.544 201.731 212.575C214.854 212.777 228.568 212.73 242.843 212.435C248.089 212.326 250.486 209.517 250.066 204.007C249.334 194.321 246.937 186.017 245.24 176.595C245.131 175.989 245.629 175.446 246.252 175.508C257.974 176.641 268.217 177.293 281.293 177.091C290.727 176.936 299.07 172.062 299.537 161.647C300.02 151.294 300.036 141.096 299.6 131.022C299.553 130.044 300.409 129.252 301.39 129.376C304.737 129.811 308.426 129.501 312.473 128.461C320.055 126.505 322.265 120.653 321.969 113.606ZM56.5236 101.53C55.7452 106.109 55.9476 111.029 56.4924 115.593C56.6014 116.462 56.2278 116.803 55.3716 116.602C50.9662 115.608 45.7824 115.934 42.1554 115.577C28.6433 114.242 19.6301 113.466 15.1158 113.264C10.8193 113.063 8.88903 111.495 9.0447 107.056C9.1381 104.463 9.1381 101.778 9.0447 98.9685C8.59326 85.7592 10.3212 72.8759 14.244 60.334C14.7266 58.7818 16.33 57.8505 17.9178 58.192C22.4789 59.1854 27.1178 59.977 31.819 60.5513C41.0345 61.6844 50.4369 63.1901 60.0261 65.0683C60.7889 65.2235 61.3181 65.922 61.2403 66.6981C60.0572 78.3241 58.485 89.9347 56.5236 101.53ZM97.9158 141.266C97.1374 142.058 96.8417 141.903 97.0285 140.816C97.9158 135.461 100.951 127.358 105.87 124.114C106.384 123.757 106.867 123.633 107.303 123.711C107.614 123.773 107.879 123.897 108.096 124.099C108.486 124.487 108.532 124.89 108.205 125.325C107.147 126.784 106.26 128.336 105.528 129.966C103.598 134.312 101.06 138.084 97.9158 141.266ZM120.924 154.258C120.363 155.096 119.227 155.329 118.371 154.771L118.293 154.724C117.452 154.165 117.219 153.032 117.779 152.178L128.427 136.128C128.987 135.29 130.124 135.057 130.98 135.616L131.058 135.663C131.898 136.222 132.132 137.355 131.571 138.208L120.924 154.258ZM136.148 156.168C134.747 159.101 132.599 160.545 129.688 160.498C128.94 160.498 128.505 159.629 128.972 159.039C131.618 155.609 133.704 152.054 135.214 148.406C135.821 146.947 136.459 145.519 137.129 144.138C137.424 143.533 137.829 143.439 138.374 143.843C140.133 145.162 141.145 146.947 141.441 149.167C141.518 149.741 141.316 150.207 140.834 150.549C138.794 152.039 137.238 153.917 136.148 156.168ZM147.403 157.052C146.469 158.93 146.08 160.917 146.251 162.982C146.298 163.494 146.095 163.866 145.644 164.13C144.321 164.906 142.811 165.201 141.114 165.031C140.382 164.953 140.32 164.705 140.896 164.255C143.262 162.423 145.099 159.955 146.422 156.866C146.531 156.633 146.702 156.556 146.936 156.649L147.309 156.804C147.434 156.85 147.465 156.944 147.403 157.052ZM211.351 129.221L208.829 135.352C208.129 137.06 207.553 137.029 207.086 135.244C206.308 132.31 206.712 130.09 208.285 128.616C208.798 128.135 208.736 127.731 208.113 127.421L205.389 126.07C204.798 125.76 204.564 125.93 204.689 126.598C205.14 128.74 204.969 130.587 204.206 132.124C203.599 133.366 202.79 133.505 201.793 132.543L180.327 111.774C178.443 109.958 176.435 109.787 174.271 111.262L173.757 111.604C171.671 113.047 171.578 114.599 173.493 116.26C182.973 124.502 191.441 133.521 198.913 143.3C199.225 143.719 199.24 144.138 198.976 144.588C197.839 146.404 196.283 148.049 194.337 149.524C193.916 149.85 193.512 149.834 193.091 149.524C188.951 146.187 184.654 143.067 180.918 139.388C175.906 134.468 170.379 129.469 164.324 124.394C163.841 123.99 163.265 123.742 162.643 123.664C161.164 123.478 160.012 123.804 159.156 124.642C157.583 126.21 157.615 127.747 159.265 129.252C168.776 137.898 177.244 146.404 184.67 154.771C185.557 155.764 185.495 156.695 184.483 157.549L182.179 159.551C181.136 160.436 180.109 160.421 179.097 159.505C172.014 153.017 164.76 146.916 157.334 141.22C155.949 140.149 154.268 139.776 152.275 140.087C151.637 140.18 151.185 140.692 150.89 141.639C150.718 142.198 150.874 142.787 151.294 143.191L172.543 163.401C173.29 164.099 173.197 164.674 172.263 165.108L165.538 168.244C164.76 168.616 163.841 168.539 163.125 168.042C160.401 166.164 158.377 163.835 157.039 161.072C156.992 160.979 156.992 160.886 157.07 160.809C157.163 160.7 157.272 160.607 157.412 160.529C157.521 160.483 157.63 160.498 157.724 160.576C160.292 162.935 163.188 163.913 166.394 163.494C167.344 163.37 167.422 163.044 166.628 162.516C164.526 161.104 162.238 159.784 159.794 158.542C157.521 157.378 155.715 155.857 154.392 153.979C152.026 150.642 151.357 147.103 148.29 144.355C143.137 139.73 137.596 136.035 132.661 131.084C130.902 129.33 129.096 127.824 127.213 126.582C125.921 125.729 124.193 126.101 123.368 127.405L111.412 146.497C110.805 147.46 109.933 147.941 108.797 147.925C108.221 147.925 107.645 147.925 107.069 147.91C105.964 147.91 105.699 147.429 106.275 146.482C111.49 137.976 114.79 132.869 119.943 129.532C121.686 128.398 122.122 126.039 120.877 124.378C118.028 120.544 114.79 119.101 111.179 120.017C110.556 120.172 110.042 120.017 109.638 119.535C107.754 117.316 104.968 116.027 101.247 115.655C100.017 115.531 99.1455 116.027 98.6474 117.16L91.5801 133.071C91.2999 133.691 90.755 134.126 90.0856 134.266C88.6691 134.545 87.8596 134.064 87.6728 132.822C86.4586 125.139 93.9462 123.695 93.6505 117.098C93.6193 116.54 93.3236 116.214 92.7631 116.105L88.0308 115.298C87.6261 115.22 87.2681 115.313 86.9567 115.577L86.3029 116.152C86.3029 116.152 86.1628 116.183 86.1317 116.12L83.5476 110.827C83.3763 110.455 82.8938 110.377 82.6136 110.672C81.5862 111.774 80.8545 113.016 80.4342 114.413C80.263 115.034 80.4809 115.298 81.1192 115.22L83.1428 114.941C83.3296 114.91 83.5164 115.034 83.5787 115.22C83.9212 116.183 84.0769 117.362 84.0613 118.759C84.0613 119.271 83.8278 119.613 83.3452 119.799C82.5824 120.094 82.0065 120.079 81.6329 119.737C80.73 118.945 79.7181 118.371 78.5818 117.999C78.0992 117.843 77.8501 117.502 77.8501 116.99C77.8345 115.36 77.7256 113.916 77.5232 112.69C77.3053 111.417 76.9317 111.371 76.3868 112.535C75.842 113.699 75.4217 115.018 75.1259 116.462C75.0014 117.067 74.2542 117.285 73.8183 116.85L73.4291 116.462C72.8999 115.934 72.7442 115.143 73.0088 114.46L74.5655 110.548C74.7679 110.036 74.7212 109.555 74.4254 109.104C74.0362 108.468 73.756 108.127 73.6159 108.08C71.4677 107.35 69.4596 109.461 70.2846 111.557C70.8606 113.047 71.2342 114.522 71.3899 115.981C71.4366 116.477 71.2186 116.726 70.7205 116.71L66.5486 116.633C66.0972 116.617 65.8637 116.4 65.8481 115.95C65.241 101.312 66.1127 86.4577 68.4633 71.4168C68.5411 70.9356 68.8369 70.7028 69.3351 70.7183C76.4491 71.1374 83.641 72.1774 90.8796 73.8227C91.9381 74.0556 91.9537 74.335 90.9107 74.6609C89.1516 75.2042 88.6224 76.3373 89.3229 78.0603C89.8055 79.2244 91.1753 79.7366 92.3117 79.1934C96.7638 77.0513 101.169 75.0645 105.185 72.1774C109.248 69.2747 113.202 66.3876 117.063 63.5316C119.414 61.7776 122.06 61.0791 124.971 61.4516C127.882 61.8086 130.84 62.1191 133.86 62.3519C136.459 62.5692 136.646 63.3608 134.436 64.7423C125.158 70.532 118.184 78.6967 113.514 89.2362C111.116 94.6379 107.598 101.607 114.417 105.767C120.13 109.244 125.422 109.865 130.295 107.645C132.272 106.73 135.385 104.168 139.619 99.9464C143.309 96.2677 150.298 88.4911 155.653 88.3825C163.203 88.2272 171.625 94.6534 177.649 99.0306C189.278 107.475 200.486 117.005 210.978 127.436C211.507 127.948 211.632 128.554 211.351 129.237V129.221ZM242.158 101.561C241.738 107.226 241.426 112.923 241.24 118.651C241.208 119.365 240.835 119.691 240.119 119.628L238.048 119.458C237.566 119.411 237.083 119.566 236.71 119.877C236.134 120.358 235.48 120.653 234.717 120.731C234.235 120.777 234.141 120.622 234.452 120.249L236.429 117.906C236.756 117.533 237.146 117.316 237.628 117.238C238.142 117.176 238.531 116.974 238.811 116.648C239.2 116.198 239.138 115.81 238.624 115.5C238.173 115.22 237.675 115.065 237.13 115.034C236.383 114.972 236.134 114.584 236.383 113.885L236.803 112.612C237.037 111.914 236.725 111.169 236.071 110.843L234.655 110.16C233.908 109.803 233.41 110.02 233.16 110.812C232.771 112.038 232.678 113.342 232.865 114.708C232.927 115.22 232.88 115.717 232.74 116.198L231.37 120.762C231.277 121.041 230.997 121.196 230.716 121.134L230.265 121.025C230.078 120.979 229.985 120.87 229.985 120.668L230.421 112.131C230.452 111.495 230.156 111.2 229.518 111.215C228.63 111.231 227.774 111.572 226.934 112.209C226.42 112.597 226.436 112.985 226.949 113.358C228.942 114.786 229.3 117.114 228.008 120.342C227.774 120.948 227.323 121.289 226.669 121.351L221.548 121.895C221.096 121.941 220.691 122.081 220.302 122.329C219.944 122.562 219.555 122.702 219.135 122.733C218.714 122.764 218.325 122.64 217.983 122.376C212.721 118.325 207.989 113.715 203.801 108.546C203.319 107.956 203.443 107.77 204.175 107.971C207.382 108.856 209.732 107.087 211.211 102.632C211.694 101.219 211.18 100.459 209.67 100.35C208.378 100.272 206.977 100.645 205.451 101.499C205 101.747 204.642 102.104 204.377 102.554C203.708 103.718 202.743 104.479 201.482 104.836C201.046 104.96 200.641 104.882 200.268 104.619C190.507 97.7268 180.903 90.9436 171.454 84.2691C164.059 79.0382 156.338 78.3397 148.259 82.1581C139.339 86.3646 135.65 91.4714 130.155 97.913C128.084 100.35 125.656 101.312 122.885 100.785C119.6 100.164 118.557 98.1614 119.74 94.762C122.371 87.2338 126.403 80.9629 131.867 75.9493C136.817 71.3858 146.733 67.0396 152.836 65.3787C155.793 64.5871 159.311 64.556 163.405 65.2856C180.436 68.3745 198.695 76.8651 213.764 85.3401C214.184 85.573 214.714 85.278 214.745 84.7969L215.056 78.9761C215.103 78.2776 214.807 77.6101 214.293 77.1445L213.624 76.5546C213.048 76.0269 213.141 75.6699 213.904 75.4836C218.699 74.3505 223.167 73.6675 227.323 73.4192C231.043 73.1863 234.297 71.5565 238.282 72.1308C238.796 72.2084 239.123 72.5033 239.247 73.0156C241.8 84.0518 242.765 93.5668 242.158 101.561ZM312.785 117.176C312.614 117.657 312.271 117.968 311.773 118.107C304.457 120.079 296.595 118.837 289.061 119.225C281.776 119.597 276.592 119.784 273.525 119.784C266.8 119.768 260.076 119.877 253.335 120.094C252.759 120.11 252.292 119.675 252.261 119.101L249.397 68.9954C249.35 68.1727 249.941 67.4276 250.767 67.2879C257.071 66.1858 262.924 64.8975 268.357 63.3919C272.545 62.2277 276.716 62.445 281.013 61.4982C282.865 61.0946 284.889 60.8618 287.084 60.7997C290.073 60.7065 293.248 59.5113 296.097 60.1322C296.611 60.2409 297.109 60.2098 297.592 60.0391C303.056 58.0678 309.921 57.866 311.041 65.3321C312.8 76.9892 313.781 91.6111 313.999 109.198C314.03 112.162 313.625 114.817 312.785 117.176Z" fill="#002657"/>
<path d="M17.6214 64.1064C17.528 63.501 17.9483 62.9422 18.5398 62.8491L19.3338 62.7249C21.1706 62.4455 22.8674 63.5786 23.1321 65.2706L23.35 66.7452C23.6146 68.4215 22.3382 70.0203 20.5013 70.2997L19.7229 70.4239C19.1158 70.517 18.5554 70.1135 18.462 69.5081L17.6214 64.1064Z" fill="#002657"/>
<path d="M35.5238 67.2419C36.0998 67.4747 36.38 68.1422 36.1465 68.7165L36.0686 68.9027C35.1502 71.1224 32.6595 72.2089 30.5113 71.3242L29.3749 70.874C27.2267 69.9893 26.2148 67.4747 27.1333 65.255L27.2111 65.0688C27.4446 64.4789 28.114 64.1995 28.6899 64.4479L35.5238 67.2419Z" fill="#002657"/>
<path d="M281.9 66.652C281.994 65.7828 282.461 65.193 283.286 64.898L284.967 64.2927C285.652 64.0443 286.368 64.5565 286.368 65.2861V71.2931C286.352 71.9451 286.057 72.4107 285.465 72.6901C284.827 73.0161 284.157 73.0782 283.488 72.9074C282.974 72.7833 282.616 72.4728 282.43 71.9606C281.869 70.4239 281.698 68.6544 281.9 66.652Z" fill="#002657"/>
<path d="M37.2207 66.1242C37.2207 65.3792 37.5943 65.0377 38.3259 65.1153L38.793 65.1774C39.6491 65.2705 40.1317 65.7362 40.2718 66.5899C40.6298 68.763 40.6921 70.7032 40.4897 72.4262C40.2718 74.1957 39.7425 74.2888 38.8864 72.7211C37.8122 70.7343 37.2518 68.5301 37.2207 66.1242Z" fill="#002657"/>
<path d="M44.8791 65.8758C46.5292 66.4346 47.65 67.3038 48.2571 68.499C48.4906 68.9802 48.4127 69.4148 48.0236 69.7719C46.6693 71.0447 45.1126 71.9294 43.3691 72.4261C42.8554 72.5814 42.5285 72.3951 42.4195 71.8673C41.9681 69.7718 42.2327 67.9713 43.1823 66.4656C43.6026 65.8292 44.163 65.6274 44.8791 65.8758Z" fill="#002657"/>
<path d="M276.125 74.0716C273.759 72.4728 272.498 70.5481 272.342 68.2818C272.249 67.0245 273.214 65.938 274.475 65.8759L276.779 65.7517C278.04 65.6741 278.662 66.2795 278.647 67.5523L278.585 72.7832C278.585 74.0405 277.168 74.7701 276.125 74.0716Z" fill="#002657"/>
<path d="M264.636 75.7479C264.34 76.0118 264.013 76.1515 263.624 76.1825C262.877 76.2291 262.721 75.9497 263.141 75.3443C264.371 73.5903 264.76 71.588 264.309 69.3683C264.138 68.5457 264.465 68.08 265.29 67.9713L268.092 67.5678C268.886 67.4591 269.275 67.8006 269.275 68.5922V74.7235C269.29 75.3133 268.995 75.6703 268.419 75.7945C267.578 75.9963 266.784 75.9031 266.052 75.5461C265.539 75.2978 265.056 75.3599 264.636 75.7479Z" fill="#002657"/>
<path d="M52.2116 74.3198L49.8454 69.9736C49.4407 69.244 49.9077 68.3438 50.7327 68.2351L55.1537 67.6763C55.9632 67.5677 56.6325 68.2972 56.4457 69.1043L55.4806 73.404C55.4183 73.7299 55.2004 74.0093 54.9202 74.1801L53.8305 74.7854C53.2545 75.1114 52.5229 74.8941 52.2116 74.3198Z" fill="#002657"/>
<path d="M115.303 76.524C115.334 71.976 117.42 69.3062 121.545 68.5301C122.479 68.3438 123.227 69.3372 122.775 70.1754C120.907 73.6989 118.354 76.1204 115.132 77.4398C115.023 77.4863 114.914 77.3622 114.976 77.2535C115.054 77.1449 115.116 77.0207 115.194 76.8965C115.272 76.7878 115.303 76.6637 115.303 76.524Z" fill="#002657"/>
<path d="M261.538 75.8877C261.538 76.7569 260.838 77.4865 259.951 77.502H259.67C258.799 77.5175 258.067 76.8035 258.052 75.9187L257.989 70.3929C257.989 69.5236 258.69 68.7941 259.577 68.7786H259.857C260.729 68.763 261.461 69.4771 261.476 70.3618L261.538 75.8877Z" fill="#002657"/>
<path d="M225.797 80.6994C227.229 81.0099 228.319 80.5908 229.066 79.4266C229.362 78.9765 229.33 78.5419 228.972 78.1383L228.552 77.6416C228.225 77.2846 228.225 76.912 228.552 76.5395C229.206 75.81 229.953 75.2201 230.809 74.801C231.307 74.5682 231.65 74.7079 231.852 75.2201C232.506 76.9276 232.475 78.5729 231.759 80.1717C231.557 80.6374 231.198 80.9167 230.685 81.0099C229.315 81.2582 228.038 81.7239 226.855 82.4224C225.159 83.4158 222.964 82.6863 222.232 80.8857L221.64 79.4577C221.407 78.9144 221.5 78.4177 221.905 77.9831C223.041 76.7723 224.583 76.3532 226.528 76.7258C227.073 76.8344 227.12 77.0362 226.653 77.3622C225.89 77.8744 225.376 78.604 225.112 79.5508C224.925 80.1872 225.159 80.5597 225.797 80.6994Z" fill="#002657"/>
<path d="M113.607 80.5907L112.719 83.0277C112.314 84.1297 111.007 84.5644 110.026 83.9435L107.458 82.2981C106.788 81.879 106.477 81.0564 106.695 80.2958L107.006 79.1627C107.24 78.3089 108.065 77.7346 108.952 77.8278L112.081 78.1537C113.264 78.2779 114.011 79.4731 113.607 80.5907Z" fill="#002657"/>
<path d="M157.007 91.9531C157.692 92.7137 154.236 96.9667 149.286 101.484C144.335 105.985 139.759 109.027 139.074 108.282C138.389 107.522 141.845 103.269 146.795 98.7517C151.745 94.2503 156.322 91.208 157.007 91.9531Z" fill="#002657"/>
<path d="M230.607 93.3345L230.343 96.9356C230.28 97.8049 229.549 98.4568 228.693 98.4413L226.778 98.3947C226.031 98.3947 225.392 97.867 225.237 97.1374L224.707 94.8867C224.536 94.1572 224.894 93.3966 225.579 93.0706L228.288 91.7513C229.409 91.2235 230.701 92.0928 230.607 93.3345Z" fill="#002657"/>
<path d="M13.4811 107.211L13.3877 101.251C13.3877 100.335 14.1038 99.5899 15.0222 99.5744L18.0733 99.5278C18.8205 99.5278 19.4899 100.025 19.6923 100.739L21.5291 107.382C21.8405 108.515 20.8909 109.602 19.7234 109.446L14.9132 108.826C14.1038 108.717 13.4811 108.034 13.4811 107.211Z" fill="#002657"/>
<path d="M28.254 101.949C29.0168 104.604 28.9856 107.537 27.8181 109.586C27.6469 109.912 27.3667 110.067 26.9931 110.052C26.5572 110.052 26.168 109.928 25.8411 109.664C25.4208 109.338 25.2496 108.903 25.2963 108.375C25.5142 106.032 25.0628 103.905 23.9575 101.98C23.3504 100.956 23.6462 100.428 24.8448 100.397L26.0902 100.366C27.2266 100.335 27.9426 100.863 28.254 101.949Z" fill="#002657"/>
<path d="M50.0011 111.371L49.5964 111.775C49.0359 112.318 48.1019 111.868 48.2109 111.092C48.6312 107.894 48.6779 104.883 48.3666 102.042C48.3199 101.53 48.5378 101.22 49.0515 101.142L51.9158 100.661C52.4918 100.568 52.772 100.816 52.7876 101.39L53.0522 111.185C53.0833 112.008 52.1026 112.458 51.4799 111.914L50.8573 111.356C50.5615 111.092 50.2813 111.092 50.0011 111.371Z" fill="#002657"/>
<path d="M33.2352 110.424C32.7682 110.424 32.4102 110.005 32.4413 109.555L32.7682 103.331C32.8461 102.042 33.749 101.033 34.7919 101.095L35.6014 101.142C36.66 101.189 37.4539 102.291 37.376 103.579L37.0336 109.803C37.018 110.254 36.6132 110.611 36.1462 110.595L33.2352 110.424Z" fill="#002657"/>
<path d="M43.8989 101.204C44.3659 101.158 44.7707 101.499 44.8018 101.965L44.8329 102.182C45.2377 106.823 45.0664 110.642 44.4282 110.688L42.1087 110.89C41.4861 110.952 40.6455 107.227 40.2407 102.586V102.368C40.1784 101.903 40.5209 101.499 40.9879 101.453L43.8989 101.204Z" fill="#002657"/>
<path d="M285.2 114.134C285.231 114.817 284.717 115.391 284.032 115.422L281.666 115.547C280.997 115.578 280.421 115.065 280.374 114.382L279.969 106.916C279.938 106.233 280.452 105.659 281.137 105.628L283.503 105.504C284.172 105.473 284.748 105.985 284.795 106.668L285.2 114.134Z" fill="#002657"/>
<path d="M258.938 110.579C258.425 112.287 258.253 114.103 258.409 116.012C258.44 116.509 257.973 116.881 257.506 116.726C256.526 116.416 255.887 115.655 255.56 114.444C255.514 114.274 255.498 114.087 255.545 113.917L256.79 107.475C257.07 106.047 258.814 105.488 259.872 106.497C261.413 107.987 261.834 109.679 261.102 111.573C260.9 112.101 260.635 112.116 260.339 111.635C260.106 111.278 259.888 110.89 259.654 110.502C259.359 109.959 259.11 109.99 258.938 110.579Z" fill="#002657"/>
<path d="M275.814 113.606C275.814 114.708 274.911 115.593 273.805 115.577H272.84C271.751 115.562 270.863 114.662 270.863 113.56L270.91 107.847C270.91 106.745 271.813 105.861 272.918 105.876H273.883C274.973 105.892 275.86 106.792 275.86 107.894L275.814 113.606Z" fill="#002657"/>
<path d="M264.341 112.458C263.531 110.797 263.547 109.105 264.372 107.382C265.103 105.845 265.897 105.814 266.753 107.289C268.014 109.493 268.294 112.473 267.578 116.229C267.516 116.555 267.329 116.68 267.002 116.602L262.566 115.407C262.052 115.267 261.601 115.376 261.18 115.702L260.791 116.012C260.496 116.245 260.278 116.198 260.106 115.857C259.717 115.034 259.717 114.274 260.106 113.591C260.527 112.892 260.916 112.908 261.305 113.606C261.414 113.777 261.554 113.932 261.725 114.056C262.099 114.336 262.597 114.398 263.017 114.227L263.78 113.917C264.481 113.622 264.667 113.141 264.341 112.458Z" fill="#002657"/>
<path d="M220.069 121.724C219.29 122.159 218.294 121.849 217.921 121.026C216.271 117.316 217.967 112.24 222.886 112.271C223.509 112.271 223.758 112.582 223.618 113.187C223.494 113.73 223.244 114.196 222.871 114.584C222.482 115.003 222.342 115.5 222.466 116.059C223.027 118.635 222.233 120.529 220.069 121.724Z" fill="#002657"/>
<path d="M225.065 117.689C225.049 117.409 225.158 117.192 225.407 117.037C226.077 116.618 226.684 116.633 227.244 117.052C227.696 117.394 227.82 117.828 227.587 118.356C227.384 118.806 227.073 119.163 226.668 119.412C226.155 119.737 225.734 119.629 225.423 119.101C225.221 118.744 225.112 118.278 225.065 117.689Z" fill="#002657"/>
<path d="M184.732 202.983C181.805 191.155 168.9 184.139 155.917 187.336C142.95 190.534 134.809 202.734 137.735 214.578C140.662 226.406 153.567 233.422 166.55 230.224C179.517 227.026 187.658 214.826 184.732 202.983ZM157.614 217.791C151.73 217.123 150.578 209.114 152.337 204.83C152.524 204.38 152.882 204.007 153.333 203.805C154.563 203.278 155.98 203.06 157.583 203.153C158.206 203.2 158.517 203.526 158.533 204.162L158.797 216.72C158.813 217.356 158.252 217.868 157.614 217.791ZM166.036 217.496C164.417 217.853 162.938 216.471 163.187 214.842L165.04 202.936C165.273 201.462 166.129 200.903 167.577 201.275L168.791 201.586C170.286 201.958 171.36 203.262 171.453 204.799C171.671 208.493 170.628 216.487 166.036 217.496Z" fill="#002657"/>
</g>
<defs>
<clipPath id="clip0_374_21707">
<rect width="322" height="231" fill="white"/>
</clipPath>
</defs>
</svg>
