<svg width="252" height="154" viewBox="0 0 252 154" fill="none" xmlns="http://www.w3.org/2000/svg">
<g clip-path="url(#clip0_1433_12653)">
<path d="M13.7629 140.248C8.3929 145.371 7.27832 153.773 7.27832 153.773C7.27832 153.773 14.8702 153.869 20.2401 148.746C25.6101 143.624 26.7247 135.222 26.7247 135.222C26.7247 135.222 19.1328 135.125 13.7629 140.248Z" fill="#F2F2F2"/>
<path d="M16.2443 142.286C13.9569 149.755 7.38058 154 7.38058 154C7.38058 154 4.51292 146.135 6.80033 138.666C9.08774 131.197 15.664 126.952 15.664 126.952C15.664 126.952 18.5317 134.817 16.2443 142.286Z" fill="#F2F2F2"/>
<path d="M72.2964 31.7818C71.0813 30.0205 69.3642 28.3908 69.2554 26.2173C69.1557 24.2238 70.4844 22.2446 69.9241 20.3374C69.4932 18.871 68.0718 17.9862 66.6828 17.5176C64.0237 16.6334 61.178 16.756 58.5875 17.8663L58.7281 17.7554C57.147 17.1253 55.2988 17.7757 54.0549 18.9805C52.8108 20.1853 52.0715 21.8553 51.4979 23.5287C50.9241 25.2022 50.4797 26.9369 49.6826 28.5058C48.8854 30.0748 47.665 31.5015 46.0547 32.0438C46.5938 33.2468 48.2789 33.6595 49.2673 32.8305C49.5198 32.6011 49.7467 32.3386 49.9433 32.0487C50.6024 31.1519 51.2616 30.2552 51.9209 29.3585C52.5991 30.7081 51.5858 32.5708 52.4196 33.8202C52.8495 34.4645 53.6346 34.7092 54.3639 34.8847C60.0634 36.2452 65.9758 35.9999 71.5696 34.1707C72.0192 34.0225 72.5152 33.8184 72.7017 33.3631C72.917 32.8376 72.6159 32.245 72.2964 31.7818Z" fill="#0079FC"/>
<path d="M88.4566 38.6556C88.421 38.8306 88.3978 39.0085 88.3872 39.1877L75.9298 47.2278L72.9018 45.2777L69.6738 50.0054L74.7343 54.0406C75.1432 54.3666 75.6355 54.5354 76.1374 54.5218C76.6392 54.5081 77.1236 54.3126 77.5178 53.9647L90.3635 42.6271C90.9433 42.8672 91.5746 42.9041 92.1735 42.733C92.7725 42.5618 93.3107 42.1907 93.7165 41.6691C94.1223 41.1474 94.3766 40.4999 94.4454 39.8126C94.5143 39.1253 94.3945 38.4309 94.102 37.8216C93.8094 37.2124 93.3581 36.7172 92.8078 36.402C92.2576 36.0867 91.6347 35.9664 91.0218 36.0569C90.409 36.1474 89.8353 36.4446 89.377 36.9088C88.9188 37.373 88.5978 37.9822 88.4566 38.6556Z" fill="#FFB7B7"/>
<path d="M75.5136 47.6087L71.4874 53.4466C71.3729 53.6127 71.2277 53.7493 71.0617 53.8469C70.8957 53.9446 70.7129 54.0011 70.5256 54.0126C70.3384 54.024 70.1511 53.9902 69.9766 53.9134C69.8021 53.8366 69.6444 53.7187 69.5143 53.5676L64.9564 48.2724C64.199 47.6122 63.7067 46.6429 63.5876 45.5771C63.4685 44.5113 63.7322 43.4361 64.3209 42.5876C64.9096 41.7392 65.7752 41.1867 66.7277 41.0515C67.6801 40.9164 68.6416 41.2095 69.401 41.8666L75.1177 45.4428C75.2814 45.5453 75.4234 45.686 75.534 45.8554C75.6447 46.0247 75.7214 46.2188 75.759 46.4244C75.7966 46.6299 75.7941 46.8421 75.7518 47.0465C75.7094 47.2509 75.6282 47.4426 75.5136 47.6087Z" fill="#0079FC"/>
<path d="M69.9723 149.327L73.5276 149.327L75.2189 133.985L69.9717 133.985L69.9723 149.327Z" fill="#FFB7B7"/>
<path d="M69.0654 148.028L76.0671 148.028H76.0674C77.2507 148.028 78.3856 148.554 79.2224 149.49C80.0592 150.426 80.5293 151.696 80.5294 153.02V153.182L69.0656 153.183L69.0654 148.028Z" fill="#0079FC"/>
<path d="M45.6129 149.327L49.1682 149.327L50.8595 133.985L45.6123 133.985L45.6129 149.327Z" fill="#FFB7B7"/>
<path d="M44.7061 148.028L51.7077 148.028H51.708C52.8914 148.028 54.0262 148.554 54.863 149.49C55.6998 150.426 56.1699 151.696 56.17 153.02V153.182L44.7063 153.183L44.7061 148.028Z" fill="#0079FC"/>
<path d="M67.837 29.6129C68.2073 25.8391 65.7729 22.444 62.3998 22.0298C59.0266 21.6155 55.9919 24.339 55.6216 28.1128C55.2513 31.8865 57.6857 35.2816 61.0589 35.6959C64.432 36.1101 67.4667 33.3867 67.837 29.6129Z" fill="#FFB7B7"/>
<path d="M65.3245 39.168L68.9443 41.1742C68.9443 41.1742 72.9887 49.0375 70.6688 56.4996C69.5424 60.1225 72.7142 71.6712 72.7142 71.6712C72.7142 71.6712 77.6286 123.982 77.6442 140.127C71.5387 141.177 65.7388 142.475 65.4488 139.231C65.1589 135.986 61.9844 97.626 61.9844 97.626C61.9844 97.626 57.619 140.204 54.139 140.853C50.6591 141.502 43.6992 140.528 43.6992 140.528C43.6992 140.528 49.2246 78.1599 52.9946 74.2666L53.5746 71.0223L53.5591 41.9L57.9025 39.581L65.3245 39.168Z" fill="#0079FC"/>
<path d="M52.376 83.3788C52.7765 83.1364 53.1247 82.7986 53.3959 82.3893C53.6672 81.98 53.8549 81.5091 53.9459 81.0098C54.0369 80.5106 54.0289 79.9951 53.9226 79.4996C53.8162 79.0042 53.6141 78.5409 53.3304 78.1423L57.5401 46.7493L52.0402 46.4539L48.7585 77.7169C48.1916 78.2946 47.8338 79.0848 47.7529 79.9378C47.6719 80.7909 47.8735 81.6475 48.3194 82.3454C48.7653 83.0433 49.4245 83.534 50.1722 83.7245C50.9198 83.9149 51.7039 83.792 52.376 83.3788Z" fill="#FFB7B7"/>
<path d="M57.4206 54.6153L50.8429 54.1507C50.6557 54.1374 50.4733 54.0792 50.3081 53.98C50.1428 53.8808 49.9986 53.743 49.8853 53.5758C49.772 53.4086 49.6922 53.2161 49.6514 53.0113C49.6106 52.8066 49.6097 52.5944 49.6488 52.3892L51.0194 45.1996C51.0851 44.1285 51.5278 43.1304 52.2504 42.424C52.973 41.7176 53.9165 41.3607 54.874 41.4314C55.8315 41.5022 56.7249 41.995 57.3581 42.8016C57.9913 43.6082 58.3128 44.6628 58.252 45.7342L58.8032 53.0358C58.819 53.2448 58.7942 53.4552 58.7307 53.6526C58.6672 53.85 58.5664 54.0298 58.4352 54.1797C58.304 54.3296 58.1455 54.4461 57.9704 54.5213C57.7953 54.5964 57.6078 54.6285 57.4206 54.6153Z" fill="#0079FC"/>
<path d="M239.212 24.8467H93.7527C92.6909 24.8467 91.6725 25.3186 90.9217 26.1586C90.1708 26.9986 89.749 28.1379 89.749 29.3258V119.999C89.749 121.187 90.1708 122.326 90.9217 123.166C91.6725 124.006 92.6909 124.478 93.7527 124.478H239.212C240.274 124.478 241.293 124.006 242.043 123.166C242.794 122.326 243.216 121.187 243.216 119.999V29.3258C243.216 28.1379 242.794 26.9986 242.043 26.1586C241.293 25.3186 240.274 24.8467 239.212 24.8467Z" fill="black"/>
<path d="M237.849 32.7625H95.1172V122.84H237.849V32.7625Z" fill="white"/>
<path d="M166.361 30.3058C167.17 30.3058 167.825 29.5726 167.825 28.668C167.825 27.7635 167.17 27.0303 166.361 27.0303C165.553 27.0303 164.897 27.7635 164.897 28.668C164.897 29.5726 165.553 30.3058 166.361 30.3058Z" fill="white"/>
<path d="M197.03 122.84H95.1172V32.7625L197.03 122.84Z" fill="#F2F2F2"/>
<path d="M247.224 121.202H233.294V120.08C233.294 120.021 233.273 119.964 233.236 119.922C233.198 119.88 233.148 119.857 233.095 119.857H228.319C228.293 119.857 228.267 119.863 228.243 119.874C228.219 119.885 228.197 119.901 228.178 119.922C228.16 119.943 228.145 119.967 228.135 119.994C228.125 120.021 228.12 120.05 228.12 120.08V121.202H225.135V120.08C225.135 120.05 225.13 120.021 225.12 119.994C225.11 119.967 225.095 119.943 225.077 119.922C225.058 119.901 225.036 119.885 225.012 119.874C224.988 119.863 224.962 119.857 224.936 119.857H220.16C220.134 119.857 220.108 119.863 220.084 119.874C220.06 119.885 220.038 119.901 220.02 119.922C220.001 119.943 219.986 119.967 219.976 119.994C219.966 120.021 219.961 120.05 219.961 120.08V121.202H216.976V120.08C216.976 120.05 216.971 120.021 216.961 119.994C216.951 119.967 216.937 119.943 216.918 119.922C216.9 119.901 216.878 119.885 216.854 119.874C216.829 119.863 216.803 119.857 216.777 119.857H212.001C211.975 119.857 211.949 119.863 211.925 119.874C211.901 119.885 211.879 119.901 211.861 119.922C211.842 119.943 211.828 119.967 211.818 119.994C211.808 120.021 211.802 120.05 211.802 120.08V121.202H208.818V120.08C208.818 120.05 208.812 120.021 208.802 119.994C208.792 119.967 208.778 119.943 208.759 119.922C208.741 119.901 208.719 119.885 208.695 119.874C208.671 119.863 208.645 119.857 208.619 119.857H203.843C203.817 119.857 203.791 119.863 203.766 119.874C203.742 119.885 203.72 119.901 203.702 119.922C203.683 119.943 203.669 119.967 203.659 119.994C203.649 120.021 203.644 120.05 203.644 120.08V121.202H200.659V120.08C200.659 120.05 200.654 120.021 200.644 119.994C200.634 119.967 200.619 119.943 200.6 119.922C200.582 119.901 200.56 119.885 200.536 119.874C200.512 119.863 200.486 119.857 200.46 119.857H195.684C195.658 119.857 195.632 119.863 195.608 119.874C195.584 119.885 195.562 119.901 195.543 119.922C195.525 119.943 195.51 119.967 195.5 119.994C195.49 120.021 195.485 120.05 195.485 120.08V121.202H192.5V120.08C192.5 120.05 192.495 120.021 192.485 119.994C192.475 119.967 192.46 119.943 192.442 119.922C192.423 119.901 192.401 119.885 192.377 119.874C192.353 119.863 192.327 119.857 192.301 119.857H187.525C187.499 119.857 187.473 119.863 187.449 119.874C187.425 119.885 187.403 119.901 187.384 119.922C187.366 119.943 187.351 119.967 187.341 119.994C187.331 120.021 187.326 120.05 187.326 120.08V121.202H184.341V120.08C184.341 120.05 184.336 120.021 184.326 119.994C184.316 119.967 184.301 119.943 184.283 119.922C184.264 119.901 184.242 119.885 184.218 119.874C184.194 119.863 184.168 119.857 184.142 119.857H146.731C146.705 119.857 146.679 119.863 146.655 119.874C146.631 119.885 146.609 119.901 146.59 119.922C146.572 119.943 146.557 119.967 146.547 119.994C146.537 120.021 146.532 120.05 146.532 120.08V121.202H143.547V120.08C143.547 120.05 143.542 120.021 143.532 119.994C143.522 119.967 143.507 119.943 143.489 119.922C143.47 119.901 143.448 119.885 143.424 119.874C143.4 119.863 143.374 119.857 143.348 119.857H138.572C138.546 119.857 138.52 119.863 138.496 119.874C138.472 119.885 138.45 119.901 138.431 119.922C138.413 119.943 138.398 119.967 138.388 119.994C138.378 120.021 138.373 120.05 138.373 120.08V121.202H135.388V120.08C135.388 120.05 135.383 120.021 135.373 119.994C135.363 119.967 135.348 119.943 135.33 119.922C135.311 119.901 135.29 119.885 135.265 119.874C135.241 119.863 135.215 119.857 135.189 119.857H130.413C130.387 119.857 130.361 119.863 130.337 119.874C130.313 119.885 130.291 119.901 130.273 119.922C130.254 119.943 130.239 119.967 130.229 119.994C130.219 120.021 130.214 120.05 130.214 120.08V121.202H127.229V120.08C127.229 120.05 127.224 120.021 127.214 119.994C127.204 119.967 127.19 119.943 127.171 119.922C127.153 119.901 127.131 119.885 127.107 119.874C127.082 119.863 127.057 119.857 127.03 119.857H122.255C122.228 119.857 122.203 119.863 122.178 119.874C122.154 119.885 122.132 119.901 122.114 119.922C122.095 119.943 122.081 119.967 122.071 119.994C122.061 120.021 122.056 120.05 122.056 120.08V121.202H119.071V120.08C119.071 120.05 119.065 120.021 119.055 119.994C119.045 119.967 119.031 119.943 119.012 119.922C118.994 119.901 118.972 119.885 118.948 119.874C118.924 119.863 118.898 119.857 118.872 119.857H114.096C114.07 119.857 114.044 119.863 114.02 119.874C113.995 119.885 113.973 119.901 113.955 119.922C113.937 119.943 113.922 119.967 113.912 119.994C113.902 120.021 113.897 120.05 113.897 120.08V121.202H110.912V120.08C110.912 120.05 110.907 120.021 110.897 119.994C110.887 119.967 110.872 119.943 110.854 119.922C110.835 119.901 110.813 119.885 110.789 119.874C110.765 119.863 110.739 119.857 110.713 119.857H105.937C105.884 119.857 105.834 119.88 105.796 119.922C105.759 119.964 105.738 120.02 105.738 120.08V121.202H102.753V120.08C102.753 120.05 102.748 120.021 102.738 119.994C102.728 119.967 102.713 119.943 102.695 119.922C102.676 119.901 102.654 119.885 102.63 119.874C102.606 119.863 102.58 119.857 102.554 119.857H97.7781C97.7253 119.857 97.6747 119.88 97.6374 119.922C97.6001 119.964 97.5791 120.021 97.5791 120.08V121.202H88.4253C87.7981 121.202 87.1771 121.341 86.5976 121.609C86.0182 121.878 85.4917 122.271 85.0482 122.767C84.6048 123.263 84.253 123.853 84.013 124.501C83.7729 125.149 83.6494 125.844 83.6494 126.545V128.961C83.6494 130.379 84.1526 131.738 85.0482 132.74C85.9439 133.742 87.1587 134.305 88.4253 134.305H247.224C248.49 134.305 249.705 133.742 250.601 132.74C251.496 131.738 252 130.379 252 128.961V126.545C252 125.844 251.876 125.149 251.636 124.501C251.396 123.853 251.044 123.263 250.601 122.767C250.157 122.271 249.631 121.878 249.051 121.609C248.472 121.341 247.851 121.202 247.224 121.202Z" fill="black"/>
<path d="M169.228 111.029C169.181 111.155 169.127 111.279 169.068 111.4C168.756 112.043 168.316 112.596 167.782 113.018C167.15 113.516 166.407 113.81 165.635 113.868C164.863 113.926 164.092 113.746 163.406 113.347C162.719 112.949 162.144 112.347 161.742 111.607C161.34 110.868 161.128 110.019 161.128 109.153V108.391H161.706C163.954 110.016 166.554 110.928 169.228 111.029Z" fill="black"/>
<path d="M177.483 108.614V109.153C177.483 110.203 177.171 111.223 176.595 112.053C176.019 112.882 175.213 113.473 174.304 113.732C173.394 113.992 172.433 113.904 171.573 113.485C170.713 113.065 170.002 112.337 169.553 111.415C169.491 111.291 169.435 111.164 169.386 111.034C169.509 111.038 169.631 111.04 169.755 111.04C172.481 111.044 175.156 110.204 177.483 108.614Z" fill="black"/>
<path d="M183.173 51.5823C183.046 51.5615 182.918 51.5483 182.789 51.5388C184.25 55.3051 184.351 59.5578 183.072 63.4057C183.2 63.3887 183.327 63.366 183.454 63.3395C184.693 63.071 185.806 62.3194 186.596 61.2185C187.386 60.1177 187.801 58.7389 187.767 57.3278C187.733 55.9167 187.253 54.5647 186.412 53.5126C185.571 52.4604 184.423 51.7764 183.173 51.5823Z" fill="black"/>
<path d="M156.72 51.5388C156.591 51.5483 156.463 51.5615 156.336 51.5823C155.086 51.7765 153.939 52.4605 153.097 53.5126C152.256 54.5647 151.776 55.9167 151.742 57.3278C151.708 58.7389 152.123 60.1176 152.913 61.2185C153.703 62.3194 154.816 63.071 156.055 63.3395C156.182 63.366 156.309 63.3887 156.437 63.4057C155.158 59.5578 155.259 55.3051 156.72 51.5388Z" fill="black"/>
<path d="M183.173 51.5822C181.779 47.8584 179.198 44.847 175.931 43.1331C172.664 41.4192 168.944 41.1251 165.494 42.308C162.044 43.4909 159.11 46.0662 157.262 49.5338C155.415 53.0014 154.785 57.1135 155.496 61.0714C156.207 65.0293 158.207 68.5503 161.109 70.9503C164.01 73.3504 167.605 74.4582 171.196 74.0585C174.787 73.6588 178.116 71.7801 180.538 68.7874C182.96 65.7948 184.301 61.9018 184.301 57.8648C184.3 55.7077 183.917 53.5723 183.173 51.5822ZM183.071 63.4056C181.834 67.1266 179.396 70.1947 176.239 72.006C173.081 73.8173 169.431 74.2406 166.009 73.1927C162.586 72.1448 159.638 69.7015 157.744 66.3438C155.851 62.986 155.149 58.957 155.778 55.0497C156.407 51.1424 158.32 47.6398 161.141 45.2314C163.962 42.8229 167.487 41.683 171.021 42.0361C174.556 42.3891 177.844 44.2095 180.239 47.139C182.634 50.0684 183.963 53.8948 183.963 57.8648C183.962 59.7564 183.66 61.6326 183.071 63.4056Z" fill="black"/>
<path d="M177.198 54.1748H162.313C161.528 54.1748 160.775 54.5237 160.22 55.1448C159.664 55.7658 159.353 56.6081 159.353 57.4864C159.353 58.3647 159.664 59.207 160.22 59.8281C160.775 60.4491 161.528 60.798 162.313 60.798H177.198C177.983 60.798 178.735 60.4491 179.291 59.8281C179.846 59.207 180.158 58.3647 180.158 57.4864C180.158 56.6081 179.846 55.7658 179.291 55.1448C178.735 54.5237 177.983 54.1748 177.198 54.1748Z" fill="black"/>
<path d="M183.072 86.1443C183.018 86.0327 182.962 85.9229 182.904 85.8151C182.903 85.8113 182.901 85.8094 182.899 85.8056C181.568 83.2568 179.668 81.1389 177.385 79.6598C175.101 78.1808 172.513 77.3914 169.875 77.3691C167.236 77.3469 164.638 78.0925 162.335 79.5329C160.032 80.9733 158.103 83.0589 156.738 85.585C155.373 88.1111 154.618 90.9909 154.548 93.9417C154.478 96.8926 155.095 99.8131 156.339 102.417C157.583 105.02 159.41 107.217 161.641 108.792C163.873 110.367 166.432 111.265 169.068 111.4C169.229 111.409 169.391 111.415 169.554 111.415C169.621 111.419 169.687 111.419 169.755 111.419C172.474 111.423 175.144 110.606 177.483 109.055C180.024 107.373 182.076 104.905 183.393 101.949C183.395 101.945 183.397 101.944 183.398 101.94C183.449 101.826 183.498 101.711 183.547 101.593C184.565 99.1595 185.052 96.4904 184.969 93.805C184.887 91.1196 184.236 88.4944 183.072 86.1443ZM183.217 101.489C183.168 101.607 183.118 101.722 183.065 101.836C181.807 104.634 179.873 106.982 177.483 108.614C175.156 110.204 172.482 111.044 169.755 111.04C169.631 111.04 169.51 111.038 169.386 111.034C169.334 111.034 169.281 111.033 169.229 111.029C166.646 110.928 164.132 110.076 161.933 108.558C159.733 107.04 157.925 104.907 156.686 102.37C155.448 99.833 154.82 96.9787 154.867 94.0881C154.913 91.1974 155.631 88.3701 156.951 85.8843C158.27 83.3985 160.146 81.3399 162.392 79.9109C164.638 78.482 167.179 77.732 169.763 77.7347C172.347 77.7375 174.886 78.4929 177.13 79.9266C179.374 81.3603 181.246 83.423 182.561 85.9116C182.563 85.9154 182.564 85.9173 182.566 85.921C182.625 86.0289 182.683 86.1386 182.737 86.2484C183.898 88.5618 184.547 91.1523 184.631 93.8037C184.714 96.455 184.23 99.0903 183.217 101.489Z" fill="black"/>
<path d="M181.455 86.6477C181.158 86.4114 180.804 86.2838 180.44 86.2825H173.787C173.324 86.2825 172.879 86.4884 172.552 86.855C172.224 87.2216 172.04 87.7188 172.04 88.2373C172.04 88.7557 172.224 89.2529 172.552 89.6195C172.879 89.9861 173.324 90.1921 173.787 90.1921H180.44C180.559 90.1925 180.677 90.1791 180.793 90.1523C180.909 90.1244 181.022 90.0845 181.132 90.0331C181.416 89.896 181.663 89.6768 181.847 89.3979C182.03 89.119 182.144 88.7905 182.177 88.446C182.21 88.1015 182.161 87.7534 182.034 87.4374C181.907 87.1214 181.707 86.8489 181.455 86.6477Z" fill="black"/>
<path d="M174.23 89.2295C174.72 89.2295 175.117 88.7852 175.117 88.2371C175.117 87.689 174.72 87.2446 174.23 87.2446C173.74 87.2446 173.343 87.689 173.343 88.2371C173.343 88.7852 173.74 89.2295 174.23 89.2295Z" fill="#F1F1F1"/>
<path d="M177.113 89.2295C177.603 89.2295 178 88.7852 178 88.2371C178 87.689 177.603 87.2446 177.113 87.2446C176.623 87.2446 176.226 87.689 176.226 88.2371C176.226 88.7852 176.623 89.2295 177.113 89.2295Z" fill="#F1F1F1"/>
<path d="M179.996 89.2295C180.486 89.2295 180.884 88.7852 180.884 88.2371C180.884 87.689 180.486 87.2446 179.996 87.2446C179.507 87.2446 179.109 87.689 179.109 88.2371C179.109 88.7852 179.507 89.2295 179.996 89.2295Z" fill="#0079FC"/>
<path d="M213.407 55.5281C211.1 57.0759 206.99 59.0154 202.79 57.0222L200.075 55.7338L205.515 48.9105C201.174 43.5549 198.772 36.5814 198.778 29.3513C198.785 22.1211 201.2 15.1532 205.551 9.80752C209.902 4.46188 215.878 1.12222 222.312 0.4404C228.746 -0.241418 235.176 1.78355 240.347 6.12004C245.518 10.4565 249.06 16.7933 250.28 23.8935C251.5 30.9937 250.311 38.3477 246.945 44.52C243.579 50.6924 238.279 55.2401 232.077 57.2755C225.876 59.3109 219.219 58.6879 213.407 55.5281Z" fill="white"/>
<path d="M213.421 55.8961C211.204 57.3521 206.982 59.3643 202.676 57.321L199.589 55.8559L205.126 48.9115C201.681 44.5759 199.459 39.1966 198.741 33.4512C198.023 27.7058 198.841 21.8512 201.091 16.6246C203.342 11.3981 206.924 7.03344 211.388 4.08026C215.851 1.12709 220.995 -0.282511 226.173 0.0289882C231.351 0.340487 236.331 2.35915 240.486 5.83076C244.64 9.30237 247.784 14.0717 249.52 19.538C251.256 25.0044 251.508 30.9234 250.244 36.5495C248.979 42.1756 246.255 47.2574 242.414 51.1547C238.556 55.0925 233.733 57.6484 228.566 58.4934C223.399 59.3384 218.124 58.4338 213.421 55.8961ZM243.795 10.0697C241.528 7.2724 238.792 5.00203 235.741 3.38826C232.69 1.77449 229.384 0.848935 226.014 0.664454C222.643 0.479972 219.273 1.04018 216.096 2.31308C212.918 3.58599 209.997 5.54664 207.497 8.08308C204.997 10.6195 202.968 13.682 201.527 17.0957C200.085 20.5094 199.258 24.2074 199.094 27.9785C198.93 31.7496 199.432 35.5199 200.571 39.0741C201.709 42.6283 203.462 45.8968 205.73 48.6928L205.905 48.909L200.56 55.6122L202.903 56.7238C207.061 58.6971 211.175 56.6473 213.258 55.2501L213.392 55.1596L213.533 55.2365C218.902 58.1546 225.011 58.891 230.811 57.3191C236.612 55.7473 241.743 51.9652 245.322 46.6223C248.902 41.2794 250.708 34.709 250.429 28.039C250.15 21.3691 247.805 15.0157 243.795 10.0697Z" fill="#0079FC"/>
<path opacity="0.1" d="M246.699 29.2C246.699 22.5145 244.461 16.0714 240.426 11.1396C236.392 6.20773 230.853 3.14461 224.9 2.55344C225.597 2.48517 226.301 2.44824 227.014 2.44824C233.353 2.45252 239.432 5.27289 243.913 10.2894C248.394 15.3058 250.911 22.1078 250.911 29.2C250.911 36.2922 248.394 43.0942 243.913 48.1107C239.432 53.1271 233.353 55.9475 227.014 55.9518C226.303 55.9518 225.599 55.9144 224.904 55.8463C230.855 55.2542 236.393 52.1908 240.427 47.2591C244.461 42.3274 246.699 35.8849 246.699 29.2Z" fill="black"/>
<path d="M228.136 23.8652H211.05V25.6404H228.136V23.8652Z" fill="#0079FC"/>
<path d="M240.83 30.0061H211.05V31.7813H240.83V30.0061Z" fill="#0079FC"/>
<path d="M240.801 36.147H211.05V37.9221H240.801V36.147Z" fill="#0079FC"/>
<path d="M110.778 153.521H0.289995C0.213084 153.521 0.139322 153.487 0.0849374 153.426C0.0305527 153.365 0 153.283 0 153.197C0 153.111 0.0305527 153.028 0.0849374 152.967C0.139322 152.906 0.213084 152.872 0.289995 152.872H110.778C110.855 152.872 110.929 152.906 110.983 152.967C111.038 153.028 111.068 153.111 111.068 153.197C111.068 153.283 111.038 153.365 110.983 153.426C110.929 153.487 110.855 153.521 110.778 153.521Z" fill="#CBCBCB"/>
<path d="M68.1697 24.3945C67.9303 23.1794 67.1526 22.1726 66.2567 21.4353C64.7799 20.2199 62.9687 19.6224 61.1386 19.7469C59.3086 19.8714 57.5755 20.71 56.2411 22.1167C55.4956 22.8534 54.958 23.8173 54.6943 24.8904C54.5685 25.4267 54.5618 25.9893 54.6748 26.5292C54.7877 27.0691 55.0169 27.57 55.3424 27.9881L55.4652 28.0741C55.3539 27.546 55.7206 27.0182 56.1587 26.7852C56.6144 26.5981 57.09 26.4788 57.5734 26.4303C58.3049 26.2756 58.9981 25.9471 59.6063 25.467C60.2145 24.9869 60.7235 24.3663 61.0988 23.6472C61.377 24.5322 61.8213 25.3404 62.4019 26.0174C62.9825 26.6943 63.686 27.2243 64.4649 27.5717C65.277 27.927 67.5075 28.4156 68.2806 27.9645C69.2669 27.3891 68.4092 25.6097 68.1697 24.3945Z" fill="#0079FC"/>
</g>
<defs>
<clipPath id="clip0_1433_12653">
<rect width="252" height="154" fill="white"/>
</clipPath>
</defs>
</svg>
