<svg width="212" height="200" viewBox="0 0 212 200" fill="none" xmlns="http://www.w3.org/2000/svg">
<path d="M80.4389 138.517H73.7021V179.819H80.4389V138.517Z" fill="#EBEBEB"/>
<path d="M165.754 138.615H159.018V179.921H165.754V138.615Z" fill="#EBEBEB"/>
<path d="M180.147 163.702H173.41V179.917H180.147V163.702Z" fill="#EBEBEB"/>
<path d="M24.1655 141.127H17.4287V179.819H24.1655V141.127Z" fill="#EBEBEB"/>
<path d="M38.2338 111.525H31.4971V179.819H38.2338V111.525Z" fill="#EBEBEB"/>
<path d="M52.3022 155.67H45.5654V179.823H52.3022V155.67Z" fill="#EBEBEB"/>
<path d="M66.3706 108.381H59.6338V179.823H66.3706V108.381Z" fill="#EBEBEB"/>
<path d="M94.5043 114.557H87.7676V179.819H94.5043V114.557Z" fill="#EBEBEB"/>
<path d="M108.573 131.517H101.836V179.823H108.573V131.517Z" fill="#EBEBEB"/>
<path d="M122.641 107.891H115.904V179.819H122.641V107.891Z" fill="#EBEBEB"/>
<path d="M136.709 95.5701H129.973V179.819H136.709V95.5701Z" fill="#EBEBEB"/>
<path d="M150.774 120.137H144.037V179.823H150.774V120.137Z" fill="#EBEBEB"/>
<path d="M179.661 179.902C179.661 179.955 142.35 180 96.3341 180C50.3177 180 13 179.955 13 179.902C13 179.849 50.3026 179.804 96.3341 179.804C142.366 179.804 179.661 179.846 179.661 179.902Z" fill="#263238"/>
<path d="M151.444 157.858C145.796 155.467 139.293 150.763 136.382 144.998C142.634 147.587 147.907 152.088 151.444 157.858Z" fill="#263238"/>
<path d="M150.247 148.907C144.599 146.519 138.095 141.816 135.185 136.047C141.436 138.638 146.708 143.139 150.247 148.907Z" fill="#263238"/>
<path d="M148.616 140.204C142.968 137.813 136.465 133.11 133.554 127.345C139.628 129.785 144.982 134.36 148.616 140.204Z" fill="#263238"/>
<path d="M146.575 131.092C141.262 127.94 135.339 122.374 133.132 116.262C139.035 119.7 143.731 124.88 146.575 131.092Z" fill="#263238"/>
<path d="M144.391 124.121C140.52 119.056 136.912 111.521 136.957 104.992C141.261 110.499 143.847 117.153 144.391 124.121Z" fill="#263238"/>
<path d="M145.472 127.435C146.255 120.589 148.917 111.996 153.44 106.844C152.676 114.298 149.924 121.409 145.472 127.435Z" fill="#263238"/>
<path d="M147.295 134.925C148.673 127.864 152.156 119.135 157.289 114.184C155.883 121.87 152.431 129.035 147.295 134.925Z" fill="#263238"/>
<path d="M149.385 144.057C150.763 137 154.246 128.267 159.383 123.315C157.978 131.003 154.524 138.169 149.385 144.057Z" fill="#263238"/>
<path d="M151.064 155.271C152.443 148.21 155.926 139.481 161.059 134.53C159.653 142.216 156.201 149.382 151.064 155.271Z" fill="#263238"/>
<path d="M144.128 122.766C144.128 122.766 144.147 122.8 144.173 122.871C144.199 122.943 144.237 123.056 144.278 123.184L144.655 124.407C144.994 125.469 145.45 127.013 145.988 128.926C146.527 130.839 147.118 133.14 147.732 135.704C148.345 138.269 148.944 141.097 149.509 144.083C150.074 147.069 150.526 149.931 150.895 152.537C151.264 155.143 151.535 157.504 151.731 159.485C151.927 161.465 152.062 163.07 152.134 164.184C152.166 164.726 152.193 165.152 152.213 165.461C152.213 165.596 152.213 165.705 152.213 165.796C152.219 165.833 152.219 165.871 152.213 165.909C152.203 165.872 152.197 165.834 152.194 165.796C152.194 165.709 152.171 165.6 152.156 165.464C152.126 165.156 152.088 164.73 152.036 164.188C151.938 163.081 151.78 161.477 151.565 159.5C151.35 157.523 151.053 155.173 150.684 152.567C150.315 149.961 149.84 147.107 149.283 144.124C148.726 141.142 148.112 138.314 147.524 135.75C146.937 133.185 146.346 130.892 145.826 128.971C145.306 127.051 144.873 125.5 144.561 124.43C144.414 123.91 144.297 123.496 144.211 123.199C144.177 123.067 144.147 122.961 144.124 122.875C144.12 122.838 144.122 122.802 144.128 122.766Z" fill="#263238"/>
<path d="M154.186 161.586C151.798 156.585 150.062 149.536 151.233 144.064C153.905 149.492 154.931 155.582 154.186 161.586Z" fill="#455A64"/>
<path d="M158.159 155.109C155.772 150.108 154.036 143.078 155.207 137.587C157.879 143.015 158.905 149.106 158.159 155.109Z" fill="#455A64"/>
<path d="M161.721 148.523C159.333 143.522 157.597 136.492 158.768 131.001C161.44 136.429 162.467 142.519 161.721 148.523Z" fill="#455A64"/>
<path d="M165.242 141.421C163.464 136.13 162.572 128.911 164.387 123.632C166.389 129.353 166.686 135.534 165.242 141.421Z" fill="#455A64"/>
<path d="M167.501 135.607C167.678 129.958 169.335 122.92 172.829 118.763C172.754 124.78 170.9 130.64 167.501 135.607Z" fill="#455A64"/>
<path d="M166.462 138.401C170.604 134.488 176.904 130.61 182.564 130.116C178.133 134.408 172.53 137.291 166.462 138.401Z" fill="#455A64"/>
<path d="M163.668 144.324C168.311 140.645 175.206 137.192 181.171 137.169C176.175 141.237 170.083 143.727 163.668 144.324Z" fill="#455A64"/>
<path d="M160.177 151.468C164.82 147.788 171.715 144.335 177.68 144.313C172.685 148.382 166.592 150.872 160.177 151.468Z" fill="#455A64"/>
<path d="M155.312 159.692C159.956 156.013 166.854 152.559 172.815 152.537C167.821 156.607 161.728 159.097 155.312 159.692Z" fill="#455A64"/>
<path d="M168.059 134.586C168.059 134.586 168.059 134.616 168.033 134.676L167.939 134.944C167.841 135.192 167.713 135.527 167.562 135.957C167.223 136.834 166.707 138.096 166.056 139.643C164.73 142.739 162.768 146.964 160.328 151.49C159.108 153.749 157.884 155.873 156.736 157.782C155.587 159.692 154.507 161.382 153.573 162.783C152.639 164.184 151.867 165.31 151.313 166.071C151.046 166.447 150.835 166.737 150.677 166.952L150.507 167.178C150.47 167.227 150.447 167.253 150.443 167.249L150.492 167.163L150.643 166.925L151.245 166.026C151.776 165.246 152.53 164.113 153.445 162.7C154.36 161.288 155.418 159.59 156.566 157.685C157.715 155.779 158.897 153.644 160.117 151.385C162.554 146.866 164.534 142.656 165.894 139.575C166.575 138.039 167.114 136.785 167.472 135.915C167.652 135.497 167.796 135.162 167.897 134.921C167.946 134.816 167.984 134.733 168.014 134.661C168.044 134.59 168.055 134.582 168.059 134.586Z" fill="#263238"/>
<path d="M165.561 162.188H141.834V166.764H144.27L146.326 179.804H160.994L163.102 166.764H165.561V162.188Z" fill="#0079FC"/>
<path d="M165.562 166.666C165.562 166.606 160.29 166.557 153.783 166.557C147.276 166.557 142.004 166.606 142.004 166.666C142.004 166.726 147.276 166.775 153.783 166.775C160.29 166.775 165.562 166.726 165.562 166.666Z" fill="#263238"/>
<path d="M161.777 20.0874H51.1306C48.7285 20.0874 46.7812 22.0347 46.7812 24.4367V98.899C46.7812 101.301 48.7285 103.248 51.1306 103.248H161.777C164.179 103.248 166.126 101.301 166.126 98.899V24.4367C166.126 22.0347 164.179 20.0874 161.777 20.0874Z" fill="#E0E0E0"/>
<path d="M166.126 24.4367C166.126 24.4367 166.126 24.3501 166.108 24.1806C166.092 23.9265 166.053 23.6743 165.991 23.4275C165.753 22.446 165.177 21.5796 164.364 20.9798C164.085 20.7691 163.782 20.5933 163.46 20.4564C163.098 20.3083 162.719 20.2083 162.331 20.1589C161.906 20.118 161.48 20.1042 161.054 20.1175H159.668H152.984L110.387 20.1514H80.9697H51.639C51.2756 20.1398 50.9119 20.1549 50.5507 20.1966C50.1925 20.2445 49.842 20.3382 49.5076 20.4752C48.8342 20.7554 48.2432 21.2025 47.7905 21.7744C47.3341 22.3489 47.0368 23.0333 46.9281 23.7589C46.8788 24.1245 46.8599 24.4935 46.8717 24.8622V25.9919C46.8717 27.4982 46.8717 29.012 46.8717 30.5333V39.7893C46.8717 46.0152 46.8717 52.3641 46.8717 58.836V98.8914C46.8771 99.3105 46.9379 99.7271 47.0524 100.13C47.2955 100.936 47.7717 101.653 48.421 102.189C49.0703 102.725 49.8637 103.057 50.7013 103.143C51.1156 103.173 51.5448 103.162 51.9704 103.162H121.673L155.451 103.184H161.321C161.64 103.193 161.96 103.184 162.278 103.158C162.589 103.119 162.896 103.049 163.193 102.947C163.781 102.742 164.316 102.412 164.763 101.978C165.21 101.545 165.557 101.02 165.78 100.439C165.992 99.861 166.088 99.2468 166.062 98.6316C166.062 98.014 166.062 97.3964 166.062 96.7826C166.062 91.8772 166.062 87.1727 166.062 82.6689C166.062 64.6841 166.089 50.1298 166.096 40.0717C166.096 35.0446 166.096 31.1396 166.096 28.4923C166.096 31.1283 166.096 35.0446 166.115 40.0717C166.115 50.1298 166.134 64.6841 166.145 82.6689C166.145 87.1651 166.145 91.8697 166.145 96.7826V98.6316C166.17 99.2649 166.07 99.8969 165.852 100.492C165.622 101.095 165.263 101.641 164.8 102.091C164.337 102.54 163.781 102.883 163.17 103.094C162.863 103.202 162.545 103.276 162.221 103.312C161.898 103.34 161.574 103.352 161.25 103.346H155.451H121.688H84.3701H51.9854C51.5561 103.346 51.1381 103.346 50.6976 103.327C50.2647 103.277 49.8404 103.17 49.4361 103.007C49.0299 102.838 48.6496 102.612 48.3064 102.337C47.9709 102.056 47.6757 101.73 47.429 101.369C47.1892 101.003 47.0017 100.605 46.8717 100.187C46.7495 99.7656 46.6849 99.3299 46.6796 98.8914C46.6796 85.1731 46.6796 71.7786 46.6796 58.836V39.7893C46.6796 36.6789 46.6796 33.6011 46.6796 30.5559V24.9074C46.6669 24.5299 46.6858 24.152 46.7361 23.7777C46.8506 23.0212 47.1623 22.3082 47.6398 21.7104C48.1118 21.106 48.7318 20.6339 49.4398 20.3397C49.7885 20.1962 50.1543 20.0987 50.5281 20.0497C50.8967 20.0066 51.2681 19.9915 51.639 20.0045H64.5816H80.9697H110.387L152.984 20.0346H159.668H161.065C161.494 20.0228 161.923 20.0378 162.349 20.0798C162.738 20.1309 163.118 20.2334 163.479 20.3848C163.802 20.5266 164.108 20.7047 164.39 20.9158C164.86 21.2679 165.253 21.711 165.546 22.2187C165.756 22.5939 165.908 22.999 165.995 23.42C166.055 23.6669 166.092 23.9191 166.104 24.1731C166.123 24.3501 166.126 24.4367 166.126 24.4367Z" fill="#263238"/>
<path d="M55.2949 23.0207L55.2949 100.936H154.961V23.0207H55.2949Z" fill="white"/>
<path d="M160.128 64.5221C161.89 64.5221 163.318 63.0941 163.318 61.3326C163.318 59.5711 161.89 58.1431 160.128 58.1431C158.366 58.1431 156.938 59.5711 156.938 61.3326C156.938 63.0941 158.366 64.5221 160.128 64.5221Z" fill="#263238"/>
<path d="M50.2158 49.6064V73.733C50.2158 73.9867 50.4215 74.1924 50.6752 74.1924H51.0744C51.3281 74.1924 51.5338 73.9867 51.5338 73.733V49.6064C51.5338 49.3526 51.3281 49.147 51.0744 49.147H50.6752C50.4215 49.147 50.2158 49.3526 50.2158 49.6064Z" fill="#263238"/>
<path d="M64.63 22.7498H55.2949V100.936H64.63V22.7498Z" fill="#0079FC"/>
<path d="M56.1879 56.7686H65.0373V64.541H56.1879C56.0695 64.5425 55.9519 64.5204 55.8421 64.4759C55.7322 64.4315 55.6323 64.3657 55.5482 64.2823C55.4641 64.1988 55.3974 64.0995 55.3521 63.99C55.3068 63.8806 55.2837 63.7632 55.2842 63.6447V57.6611C55.2842 57.5429 55.3076 57.4259 55.3532 57.3169C55.3987 57.2079 55.4655 57.109 55.5496 57.026C55.6336 56.943 55.7334 56.8775 55.8429 56.8333C55.9525 56.7891 56.0698 56.7671 56.1879 56.7686Z" fill="white"/>
<path d="M59.9648 33.9978C59.7409 33.9978 59.5193 33.9536 59.3125 33.8679C59.1058 33.7821 58.918 33.6564 58.7599 33.4979C58.6018 33.3395 58.4765 33.1514 58.3912 32.9445C58.3059 32.7375 58.2622 32.5158 58.2627 32.292C58.2622 32.0679 58.3058 31.846 58.3911 31.6389C58.4764 31.4317 58.6016 31.2434 58.7597 31.0846C58.9177 30.9259 59.1055 30.7998 59.3123 30.7136C59.519 30.6275 59.7408 30.5828 59.9648 30.5823C60.1904 30.5803 60.4141 30.6231 60.6231 30.7082C60.832 30.7933 61.022 30.9189 61.1821 31.0779C61.3421 31.2369 61.4691 31.4261 61.5555 31.6345C61.6419 31.8429 61.6862 32.0663 61.6857 32.292C61.6857 32.5172 61.6411 32.7403 61.5544 32.9482C61.4677 33.1562 61.3407 33.3449 61.1807 33.5035C61.0207 33.6621 60.8309 33.7875 60.6222 33.8723C60.4135 33.9571 60.1901 33.9998 59.9648 33.9978Z" fill="white"/>
<path d="M61.3804 40.1282C60.8743 40.2245 60.3582 40.2574 59.844 40.2261C59.3298 40.2574 58.8137 40.2245 58.3076 40.1282C58.8137 40.0318 59.3298 39.9989 59.844 40.0303C60.3582 39.9989 60.8743 40.0318 61.3804 40.1282Z" fill="white"/>
<path d="M61.652 48.7817C61.1472 48.8782 60.6324 48.9111 60.1194 48.8796C59.6052 48.9112 59.089 48.8783 58.583 48.7817C59.0888 48.6828 59.6052 48.6499 60.1194 48.6838C60.6324 48.65 61.1475 48.683 61.652 48.7817Z" fill="white"/>
<path d="M61.652 70.7995C61.1472 70.896 60.6324 70.9289 60.1194 70.8974C59.6052 70.929 59.089 70.8961 58.583 70.7995C59.089 70.7028 59.6052 70.67 60.1194 70.7016C60.6324 70.6701 61.1472 70.703 61.652 70.7995Z" fill="white"/>
<path d="M61.652 82.1379C61.1472 82.2344 60.6324 82.2673 60.1194 82.2358C59.6052 82.2674 59.089 82.2345 58.583 82.1379C59.089 82.0412 59.6052 82.0083 60.1194 82.04C60.6324 82.0085 61.1472 82.0413 61.652 82.1379Z" fill="white"/>
<path d="M61.652 60.7717C61.1472 60.8682 60.6324 60.9011 60.1194 60.8696C59.6052 60.9012 59.089 60.8683 58.583 60.7717C59.0888 60.6728 59.6052 60.6399 60.1194 60.6738C60.6324 60.64 61.1475 60.6729 61.652 60.7717Z" fill="#263238"/>
<path d="M154.961 100.925C154.961 100.251 154.931 69.9032 154.882 22.7383L154.961 22.8211H55.3027L55.4006 22.7232C55.4006 50.9243 55.4006 77.5852 55.4006 100.91L55.314 100.823L154.961 100.925L55.2839 101.023H55.1973V100.925C55.1973 77.6002 55.1973 50.9393 55.1973 22.7383V22.6404H55.3027H154.961H155.044V22.7195C154.995 69.9145 154.961 100.262 154.961 100.925Z" fill="#263238"/>
<path d="M124.629 87.1086H123.284V91.6048H124.629V87.1086Z" fill="#0079FC"/>
<path d="M113.415 86.4573H112.07V91.6049H113.415V86.4573Z" fill="#0079FC"/>
<path d="M116.216 85.384H114.872V91.6049H116.216V85.384Z" fill="#0079FC"/>
<path d="M119.022 85.7266H117.678V91.6085H119.022V85.7266Z" fill="#0079FC"/>
<path d="M121.823 83.7346H120.479V91.6049H121.823V83.7346Z" fill="#0079FC"/>
<path d="M127.43 83.7722H126.086V91.6048H127.43V83.7722Z" fill="#0079FC"/>
<path d="M130.236 86.3442H128.892V91.6049H130.236V86.3442Z" fill="#0079FC"/>
<path d="M133.038 84.1187H131.693V91.6048H133.038V84.1187Z" fill="#0079FC"/>
<path d="M135.842 82.4316H134.498V91.6048H135.842V82.4316Z" fill="#0079FC"/>
<path d="M138.645 84.0811H137.301V91.6048H138.645V84.0811Z" fill="#0079FC"/>
<path d="M141.45 97.1816H108.426C107.703 97.1807 107.01 96.8931 106.499 96.382C105.988 95.8709 105.7 95.1781 105.699 94.4553V74.7119C105.7 73.9892 105.988 73.2963 106.499 72.7852C107.01 72.2742 107.703 71.9866 108.426 71.9856H141.45C142.173 71.9866 142.866 72.2742 143.377 72.7852C143.888 73.2963 144.176 73.9892 144.177 74.7119V94.4553C144.176 95.1781 143.888 95.8709 143.377 96.382C142.866 96.8931 142.173 97.1807 141.45 97.1816ZM108.426 72.253C107.774 72.254 107.15 72.5135 106.689 72.9745C106.229 73.4355 105.97 74.0604 105.97 74.7119V94.4553C105.97 95.1068 106.229 95.7317 106.689 96.1927C107.15 96.6538 107.774 96.9133 108.426 96.9143H141.45C142.102 96.9133 142.727 96.6539 143.188 96.193C143.649 95.732 143.908 95.1072 143.909 94.4553V74.7119C143.908 74.0601 143.649 73.4352 143.188 72.9743C142.727 72.5133 142.102 72.254 141.45 72.253H108.426Z" fill="#E0E0E0"/>
<path d="M127.227 78.5492C127.227 78.5869 123.405 78.6208 118.694 78.6208C113.983 78.6208 110.161 78.5869 110.161 78.5492C110.161 78.5116 113.98 78.4814 118.694 78.4814C123.409 78.4814 127.227 78.5116 127.227 78.5492Z" fill="#E0E0E0"/>
<path d="M72.1924 72.208V96.5944H75.1447H79.2078H98.1416V72.208H72.1924Z" fill="#F5F5F5"/>
<path d="M85.0517 74.9719C83.4683 74.9719 81.9205 75.4415 80.6039 76.3211C79.2874 77.2008 78.2612 78.4512 77.6553 79.914C77.0494 81.3769 76.8908 82.9866 77.1997 84.5396C77.5086 86.0926 78.2711 87.519 79.3907 88.6387C80.5104 89.7583 81.9369 90.5208 83.4898 90.8297C85.0428 91.1386 86.6525 90.9801 88.1154 90.3741C89.5783 89.7682 90.8286 88.7421 91.7083 87.4255C92.588 86.109 93.0575 84.5611 93.0575 82.9777C93.0575 80.8545 92.214 78.8181 90.7127 77.3168C89.2113 75.8154 87.175 74.9719 85.0517 74.9719ZM85.1722 87.7752C84.1998 87.7752 83.2493 87.4869 82.4407 86.9469C81.6321 86.4068 81.0018 85.6392 80.6293 84.741C80.2569 83.8428 80.159 82.8543 80.3482 81.9005C80.5373 80.9468 81.005 80.0704 81.692 79.3824C82.3791 78.6943 83.2547 78.2253 84.2081 78.0347C85.1616 77.8441 86.1502 77.9404 87.049 78.3115C87.9478 78.6825 88.7164 79.3117 89.2577 80.1195C89.799 80.9272 90.0887 81.8773 90.0902 82.8497C90.0911 83.4962 89.9647 84.1365 89.718 84.734C89.4713 85.3316 89.1092 85.8746 88.6524 86.3321C88.1956 86.7896 87.6531 87.1525 87.056 87.4001C86.4588 87.6477 85.8187 87.7752 85.1722 87.7752Z" fill="#263238"/>
<path d="M85.1758 74.9756V77.9542C85.948 77.9557 86.7091 78.1389 87.3975 78.489C88.0858 78.8391 88.6821 79.3462 89.1382 79.9695C89.5942 80.5927 89.8972 81.3145 90.0227 82.0765C90.1481 82.8385 90.0925 83.6193 89.8603 84.3559L92.7636 85.1429C93.0939 83.9627 93.149 82.7226 92.9246 81.5178C92.7002 80.313 92.2024 79.1758 91.4695 78.1937C90.7365 77.2115 89.7879 76.4107 88.6968 75.8528C87.6057 75.2949 86.4011 74.9948 85.1758 74.9756Z" fill="#0079FC"/>
<path d="M80.2541 82.8497C80.2539 81.8993 80.5291 80.9693 81.0463 80.172C81.5636 79.3747 82.3008 78.7444 83.1687 78.3573L81.9374 75.5933C80.4863 76.2051 79.2479 77.2313 78.3771 78.5435C77.5064 79.8556 77.042 81.3954 77.042 82.9702C77.042 83.0832 77.042 83.1961 77.042 83.3053H80.2654C80.254 83.1537 80.2503 83.0017 80.2541 82.8497Z" fill="#455A64"/>
<path d="M85.1724 87.7752C84.8228 87.7761 84.4743 87.7382 84.1331 87.6622C84.0088 88.3777 83.7565 89.7597 83.5908 90.848C84.0728 90.937 84.5618 90.9824 85.0519 90.9835C86.7993 90.9835 88.4988 90.4119 89.8912 89.3561C91.2835 88.3003 92.2924 86.818 92.764 85.1355L89.8607 84.356C89.5428 85.3494 88.9173 86.2161 88.0745 86.8307C87.2318 87.4453 86.2155 87.7761 85.1724 87.7752Z" fill="#0079FC"/>
<g opacity="0.3">
<path d="M85.1724 87.7752C84.8228 87.7761 84.4743 87.7382 84.1331 87.6622C84.0088 88.3777 83.7565 89.7597 83.5908 90.848C84.0728 90.937 84.5618 90.9824 85.0519 90.9835C86.7993 90.9835 88.4988 90.4119 89.8912 89.3561C91.2835 88.3003 92.2924 86.818 92.764 85.1355L89.8607 84.356C89.5428 85.3494 88.9173 86.2161 88.0745 86.8307C87.2318 87.4453 86.2155 87.7761 85.1724 87.7752Z" fill="black"/>
</g>
<path d="M84.1108 83.2564H83.8134V83.6329H83.4029V83.2564H82.4238V82.9702L83.2824 81.8179H83.723L82.9284 82.9099H83.418V82.571H83.7945V82.9099H84.092L84.1108 83.2564Z" fill="#263238"/>
<path d="M84.2344 82.7255C84.2344 82.1268 84.5658 81.7878 85.0139 81.7878C85.462 81.7878 85.7934 82.1268 85.7934 82.7255C85.7934 83.3242 85.4657 83.6669 85.0139 83.6669C84.562 83.6669 84.2344 83.328 84.2344 82.7255ZM85.3641 82.7255C85.3641 82.315 85.2172 82.1418 84.9875 82.1418C84.7578 82.1418 84.6335 82.315 84.6335 82.7255C84.6335 83.136 84.7804 83.3129 84.9875 83.3129C85.1946 83.3129 85.3716 83.1397 85.3716 82.7255H85.3641Z" fill="#263238"/>
<path d="M85.9675 82.2999C85.9606 82.2361 85.9673 82.1716 85.987 82.1105C86.0068 82.0495 86.0393 81.9933 86.0823 81.9456C86.1253 81.898 86.1779 81.86 86.2367 81.8341C86.2954 81.8082 86.3589 81.795 86.4231 81.7953C86.5244 81.7855 86.6264 81.8065 86.7155 81.8556C86.8047 81.9047 86.8769 81.9796 86.9227 82.0705C86.9685 82.1614 86.9857 82.264 86.9722 82.3649C86.9586 82.4658 86.9148 82.5602 86.8466 82.6357C86.7784 82.7113 86.6889 82.7644 86.5899 82.7882C86.491 82.812 86.3871 82.8053 86.292 82.7689C86.1969 82.7326 86.1151 82.6684 86.0571 82.5847C85.9992 82.501 85.968 82.4017 85.9675 82.2999ZM86.6114 82.2999C86.6114 82.1041 86.5361 82.01 86.4231 82.01C86.3102 82.01 86.2311 82.1079 86.2311 82.2999C86.2311 82.492 86.3102 82.5861 86.4231 82.5861C86.5361 82.5861 86.6114 82.492 86.6114 82.2999ZM87.5039 81.8179H87.8164L86.5738 83.6368H86.2612L87.5039 81.8179ZM87.2064 83.1548C87.2159 83.067 87.2506 82.9839 87.3064 82.9156C87.3622 82.8472 87.4367 82.7966 87.5207 82.7697C87.6048 82.7428 87.6948 82.741 87.7799 82.7643C87.865 82.7877 87.9415 82.8352 88.0001 82.9012C88.0587 82.9672 88.0969 83.0487 88.11 83.136C88.1231 83.2232 88.1106 83.3124 88.074 83.3927C88.0374 83.473 87.9783 83.5409 87.9038 83.5883C87.8293 83.6356 87.7427 83.6603 87.6545 83.6594C87.5908 83.6593 87.5278 83.6457 87.4697 83.6195C87.4115 83.5933 87.3596 83.5552 87.3173 83.5075C87.275 83.4599 87.2432 83.4038 87.2241 83.343C87.205 83.2822 87.199 83.2181 87.2064 83.1548ZM87.8465 83.1548C87.8465 82.9627 87.7712 82.8686 87.6545 82.8686C87.5378 82.8686 87.4662 82.9627 87.4662 83.1548C87.4662 83.3468 87.5453 83.4447 87.6545 83.4447C87.7637 83.4447 87.8465 83.3468 87.8465 83.1548Z" fill="#263238"/>
<path d="M91.6791 93.0171C91.6791 93.0585 88.7118 93.0924 85.0515 93.0924C81.3913 93.0924 78.4277 93.0585 78.4277 93.0171C78.4277 92.9756 81.3913 92.938 85.0515 92.938C88.7118 92.938 91.6791 92.9606 91.6791 93.0171Z" fill="#263238"/>
<path d="M88.7275 94.2219C88.7275 94.2633 87.0819 94.2972 85.0522 94.2972C83.0226 94.2972 81.377 94.2633 81.377 94.2219C81.377 94.1805 83.0226 94.1428 85.0522 94.1428C87.0819 94.1428 88.7275 94.1805 88.7275 94.2219Z" fill="#263238"/>
<path d="M149.452 36.4641H149.075H147.945H143.543L127.148 36.5319L71.5213 36.5658L71.6569 36.4679C71.6569 40.8398 71.6569 45.3737 71.6569 50.0243C71.6569 54.8067 71.6569 59.4723 71.6569 63.9798L71.5213 63.8819L126.76 63.9158L143.009 63.9459L147.373 63.9648H148.503H148.879C148.879 63.9648 148.751 63.9648 148.503 63.9648H147.373H143.009L126.76 63.9949L71.5213 64.0288H71.3857V63.9309C71.3857 59.4121 71.3857 54.7577 71.3857 49.9753C71.3857 45.336 71.3857 40.8022 71.3857 36.419V36.321H71.5213L127.148 36.3549L143.521 36.3851H147.923H149.053L149.452 36.4641Z" fill="#E0E0E0"/>
<path d="M149.452 41.0961C149.452 41.1488 132.006 41.194 110.489 41.194C88.9716 41.194 71.5215 41.1488 71.5215 41.0961C71.5215 41.0433 88.964 40.9944 110.489 40.9944C132.013 40.9944 149.452 41.0509 149.452 41.0961Z" fill="#E0E0E0"/>
<path d="M149.452 44.8844C149.452 44.9371 132.006 44.9823 110.489 44.9823C88.9716 44.9823 71.5215 44.9371 71.5215 44.8844C71.5215 44.8317 88.964 44.7827 110.489 44.7827C132.013 44.7827 149.452 44.8166 149.452 44.8844Z" fill="#E0E0E0"/>
<path d="M149.452 48.6724C149.452 48.7251 132.006 48.7703 110.489 48.7703C88.9716 48.7703 71.5215 48.7251 71.5215 48.6724C71.5215 48.6197 88.964 48.582 110.489 48.582C132.013 48.582 149.452 48.6159 149.452 48.6724Z" fill="#E0E0E0"/>
<path d="M149.452 52.4606C149.452 52.5133 132.006 52.5585 110.489 52.5585C88.9716 52.5585 71.5215 52.5133 71.5215 52.4606C71.5215 52.4079 88.964 52.3477 110.489 52.3477C132.013 52.3477 149.452 52.4041 149.452 52.4606Z" fill="#E0E0E0"/>
<path d="M149.452 56.2491C149.452 56.3019 132.006 56.347 110.489 56.347C88.9716 56.347 71.5215 56.3019 71.5215 56.2491C71.5215 56.1964 88.964 56.1475 110.489 56.1475C132.013 56.1475 149.452 56.1927 149.452 56.2491Z" fill="#E0E0E0"/>
<path d="M71.5215 60.0335C71.5215 59.9807 88.9678 59.9355 110.485 59.9355C132.002 59.9355 149.452 59.9807 149.452 60.0335C149.452 60.0862 132.009 60.1351 110.485 60.1351C88.9603 60.1351 71.5215 60.0899 71.5215 60.0335Z" fill="#E0E0E0"/>
<path d="M82.5667 64.3979C82.5102 64.3979 82.4688 58.1506 82.4688 50.4423C82.4688 42.734 82.5102 36.4792 82.5667 36.4792C82.6231 36.4792 82.6683 42.7303 82.6683 50.4423C82.6683 58.1544 82.6231 64.3979 82.5667 64.3979Z" fill="#E0E0E0"/>
<path d="M93.7921 64.3979C93.7356 64.3979 93.6904 58.1506 93.6904 50.4423C93.6904 42.734 93.7356 36.4792 93.7921 36.4792C93.8486 36.4792 93.89 42.7303 93.89 50.4423C93.89 58.1544 93.8448 64.3979 93.7921 64.3979Z" fill="#E0E0E0"/>
<path d="M105.014 64.3979C104.961 64.3979 104.916 58.1506 104.916 50.4423C104.916 42.734 104.961 36.4792 105.014 36.4792C105.067 36.4792 105.116 42.7303 105.116 50.4423C105.116 58.1544 105.07 64.3979 105.014 64.3979Z" fill="#E0E0E0"/>
<path d="M116.238 64.3979C116.182 64.3979 116.137 58.1506 116.137 50.4423C116.137 42.734 116.182 36.4792 116.238 36.4792C116.295 36.4792 116.336 42.7303 116.336 50.4423C116.336 58.1544 116.287 64.3979 116.238 64.3979Z" fill="#E0E0E0"/>
<path d="M127.461 64.3979C127.408 64.3979 127.363 58.1506 127.363 50.4423C127.363 42.734 127.408 36.4792 127.461 36.4792C127.514 36.4792 127.563 42.7303 127.563 50.4423C127.563 58.1544 127.518 64.3979 127.461 64.3979Z" fill="#E0E0E0"/>
<path d="M138.328 64.3979C138.272 64.3979 138.227 58.1506 138.227 50.4423C138.227 42.734 138.272 36.4792 138.328 36.4792C138.385 36.4792 138.426 42.7303 138.426 50.4423C138.426 58.1544 138.381 64.3979 138.328 64.3979Z" fill="#E0E0E0"/>
<path d="M149.55 64.3979C149.497 64.3979 149.452 58.1506 149.452 50.4423C149.452 42.734 149.497 36.4792 149.55 36.4792C149.603 36.4792 149.652 42.7303 149.652 50.4423C149.652 58.1544 149.607 64.3979 149.55 64.3979Z" fill="#E0E0E0"/>
<path d="M83.2516 60.0336C83.2523 60.1693 83.2127 60.3022 83.1379 60.4154C83.063 60.5286 82.9563 60.617 82.8311 60.6695C82.7059 60.7219 82.568 60.7361 82.4348 60.71C82.3016 60.684 82.1792 60.619 82.0829 60.5234C81.9867 60.4277 81.9211 60.3055 81.8943 60.1725C81.8676 60.0395 81.8809 59.9015 81.9327 59.776C81.9844 59.6506 82.0723 59.5433 82.1851 59.4678C82.2978 59.3923 82.4305 59.3521 82.5662 59.3521C82.7473 59.352 82.9211 59.4237 83.0495 59.5515C83.1779 59.6792 83.2506 59.8525 83.2516 60.0336Z" fill="#0079FC"/>
<path d="M94.4732 52.4608C94.4732 52.5965 94.4329 52.7291 94.3575 52.8419C94.282 52.9547 94.1747 53.0425 94.0493 53.0943C93.9238 53.146 93.7858 53.1594 93.6528 53.1326C93.5197 53.1059 93.3976 53.0402 93.3019 52.944C93.2062 52.8478 93.1413 52.7253 93.1153 52.5921C93.0892 52.4589 93.1033 52.321 93.1558 52.1959C93.2082 52.0707 93.2967 51.9639 93.4099 51.8891C93.5231 51.8142 93.6559 51.7747 93.7917 51.7754C93.8815 51.7754 93.9704 51.7932 94.0534 51.8276C94.1363 51.8621 94.2116 51.9127 94.2749 51.9764C94.3383 52.0401 94.3884 52.1156 94.4224 52.1988C94.4565 52.2819 94.4737 52.3709 94.4732 52.4608Z" fill="#0079FC"/>
<path d="M105.699 56.1813C105.7 56.317 105.66 56.4499 105.585 56.5631C105.51 56.6763 105.404 56.7648 105.278 56.8172C105.153 56.8697 105.015 56.8838 104.882 56.8577C104.749 56.8317 104.626 56.7668 104.53 56.6711C104.434 56.5754 104.368 56.4532 104.342 56.3202C104.315 56.1872 104.328 56.0492 104.38 55.9237C104.432 55.7983 104.52 55.691 104.632 55.6155C104.745 55.5401 104.878 55.4998 105.013 55.4998C105.194 55.5007 105.367 55.5727 105.496 55.7002C105.624 55.8277 105.697 56.0005 105.699 56.1813Z" fill="#0079FC"/>
<path d="M116.853 48.2055C116.986 48.3383 117.06 48.5185 117.06 48.7063C117.06 48.8942 116.986 49.0743 116.853 49.2072C116.72 49.34 116.54 49.4146 116.352 49.4146C116.164 49.4146 115.984 49.34 115.851 49.2072C115.718 49.0743 115.644 48.8942 115.644 48.7063C115.644 48.5185 115.718 48.3383 115.851 48.2055C115.984 48.0727 116.164 47.998 116.352 47.998C116.54 47.998 116.72 48.0727 116.853 48.2055Z" fill="#0079FC"/>
<path d="M128.206 48.2055C128.272 48.2713 128.324 48.3493 128.36 48.4353C128.395 48.5212 128.414 48.6133 128.414 48.7063C128.414 48.7993 128.395 48.8914 128.36 48.9774C128.324 49.0633 128.272 49.1414 128.206 49.2072C128.14 49.2729 128.062 49.3251 127.976 49.3607C127.89 49.3963 127.798 49.4146 127.705 49.4146C127.612 49.4146 127.52 49.3963 127.434 49.3607C127.348 49.3251 127.27 49.2729 127.205 49.2072C127.072 49.0743 126.997 48.8942 126.997 48.7063C126.997 48.5185 127.072 48.3383 127.205 48.2055C127.337 48.0727 127.518 47.998 127.705 47.998C127.893 47.998 128.073 48.0727 128.206 48.2055Z" fill="#0079FC"/>
<path d="M138.825 55.6391C138.958 55.7719 139.033 55.9521 139.033 56.1399C139.033 56.3278 138.958 56.5079 138.825 56.6408C138.693 56.7736 138.512 56.8482 138.324 56.8482C138.137 56.8482 137.956 56.7736 137.824 56.6408C137.691 56.5079 137.616 56.3278 137.616 56.1399C137.616 55.9521 137.691 55.7719 137.824 55.6391C137.956 55.5063 138.137 55.4316 138.324 55.4316C138.512 55.4316 138.693 55.5063 138.825 55.6391Z" fill="#0079FC"/>
<path d="M94.4732 44.8843C94.4732 45.02 94.4329 45.1527 94.3575 45.2655C94.282 45.3783 94.1747 45.4661 94.0493 45.5179C93.9238 45.5696 93.7858 45.583 93.6528 45.5562C93.5197 45.5295 93.3976 45.4638 93.3019 45.3676C93.2062 45.2714 93.1413 45.1489 93.1153 45.0157C93.0892 44.8825 93.1033 44.7446 93.1558 44.6194C93.2082 44.4943 93.2967 44.3875 93.4099 44.3127C93.5231 44.2378 93.6559 44.1982 93.7917 44.199C93.8815 44.199 93.9704 44.2167 94.0534 44.2512C94.1363 44.2857 94.2116 44.3363 94.2749 44.3999C94.3383 44.4636 94.3884 44.5392 94.4224 44.6223C94.4565 44.7055 94.4737 44.7945 94.4732 44.8843Z" fill="#455A64"/>
<path d="M83.2516 56.2491C83.2516 56.3846 83.2114 56.5171 83.1361 56.6298C83.0607 56.7425 82.9537 56.8304 82.8285 56.8823C82.7032 56.9341 82.5654 56.9477 82.4325 56.9213C82.2996 56.8948 82.1774 56.8295 82.0816 56.7337C81.9857 56.6378 81.9205 56.5157 81.894 56.3828C81.8676 56.2498 81.8812 56.112 81.933 55.9868C81.9849 55.8616 82.0727 55.7545 82.1854 55.6792C82.2982 55.6039 82.4307 55.5637 82.5662 55.5637C82.748 55.5637 82.9223 55.6359 83.0508 55.7645C83.1794 55.893 83.2516 56.0673 83.2516 56.2491Z" fill="#455A64"/>
<path d="M138.829 59.5365C138.95 59.6715 139.014 59.8478 139.009 60.029C139.004 60.2102 138.93 60.3825 138.801 60.5105C138.673 60.6384 138.5 60.7122 138.319 60.7167C138.138 60.7211 137.962 60.6559 137.827 60.5344C137.706 60.3994 137.642 60.2231 137.647 60.0419C137.652 59.8607 137.726 59.6884 137.855 59.5604C137.983 59.4325 138.156 59.3587 138.337 59.3542C138.518 59.3498 138.694 59.415 138.829 59.5365Z" fill="#455A64"/>
<path d="M128.146 52.4608C128.146 52.5963 128.106 52.7288 128.031 52.8415C127.955 52.9542 127.848 53.0421 127.723 53.0939C127.598 53.1458 127.46 53.1594 127.327 53.1329C127.194 53.1065 127.072 53.0412 126.976 52.9454C126.88 52.8495 126.815 52.7274 126.789 52.5945C126.762 52.4615 126.776 52.3237 126.828 52.1985C126.879 52.0732 126.967 51.9662 127.08 51.8909C127.193 51.8156 127.325 51.7754 127.461 51.7754C127.551 51.7749 127.64 51.7923 127.724 51.8266C127.807 51.8608 127.883 51.9113 127.946 51.975C128.01 52.0388 128.061 52.1145 128.095 52.1979C128.129 52.2813 128.147 52.3706 128.146 52.4608Z" fill="#455A64"/>
<path d="M117.042 52.3478C117.042 52.4836 117.003 52.6164 116.928 52.7296C116.853 52.8428 116.746 52.9313 116.621 52.9837C116.496 53.0362 116.358 53.0503 116.225 53.0242C116.092 52.9982 115.969 52.9333 115.873 52.8376C115.777 52.7419 115.711 52.6198 115.684 52.4867C115.658 52.3537 115.671 52.2157 115.723 52.0902C115.774 51.9648 115.862 51.8575 115.975 51.782C116.088 51.7066 116.221 51.6663 116.356 51.6663C116.537 51.6672 116.71 51.7392 116.838 51.8667C116.967 51.9943 117.04 52.167 117.042 52.3478Z" fill="#455A64"/>
<path d="M77.8783 67.1017C77.1637 67.232 76.4314 67.232 75.7168 67.1017C76.4309 66.9661 77.1642 66.9661 77.8783 67.1017Z" fill="#E0E0E0"/>
<path d="M89.3519 67.1017C88.6373 67.232 87.905 67.232 87.1904 67.1017C87.9046 66.9661 88.6378 66.9661 89.3519 67.1017Z" fill="#E0E0E0"/>
<path d="M100.823 67.1016C100.109 67.2321 99.3784 67.2321 98.665 67.1016C99.3779 66.9661 100.11 66.9661 100.823 67.1016Z" fill="#E0E0E0"/>
<path d="M112.296 67.1017C111.582 67.232 110.849 67.232 110.135 67.1017C110.849 66.9661 111.582 66.9661 112.296 67.1017Z" fill="#E0E0E0"/>
<path d="M123.767 67.1017C123.052 67.232 122.32 67.232 121.605 67.1017C122.32 66.9661 123.053 66.9661 123.767 67.1017Z" fill="#E0E0E0"/>
<path d="M134.028 67.1017C133.313 67.232 132.581 67.232 131.866 67.1017C132.58 66.9661 133.314 66.9661 134.028 67.1017Z" fill="#E0E0E0"/>
<path d="M144.286 67.1017C143.571 67.232 142.839 67.232 142.124 67.1017C142.838 66.9661 143.571 66.9661 144.286 67.1017Z" fill="#E0E0E0"/>
<path d="M69.8988 63.8141C69.6193 63.9094 69.3225 63.9428 69.0289 63.912C68.734 63.9427 68.436 63.9093 68.1553 63.8141C68.435 63.7146 68.7338 63.6798 69.0289 63.7125C69.3228 63.6796 69.6204 63.7144 69.8988 63.8141Z" fill="#E0E0E0"/>
<path d="M69.8988 59.4084C69.6193 59.5037 69.3225 59.5371 69.0289 59.5063C68.734 59.5369 68.436 59.5035 68.1553 59.4084C68.435 59.3088 68.7338 59.274 69.0289 59.3067C69.3228 59.2738 69.6204 59.3086 69.8988 59.4084Z" fill="#E0E0E0"/>
<path d="M69.8988 55.0026C69.6193 55.0979 69.3225 55.1313 69.0289 55.1005C68.734 55.1311 68.436 55.0977 68.1553 55.0026C68.435 54.903 68.7338 54.8683 69.0289 54.9009C69.3228 54.8681 69.6204 54.9028 69.8988 55.0026Z" fill="#E0E0E0"/>
<path d="M69.8988 50.5966C69.6193 50.6919 69.3225 50.7253 69.0289 50.6945C68.734 50.7251 68.436 50.6917 68.1553 50.5966C68.435 50.497 68.7338 50.4623 69.0289 50.4949C69.3228 50.4621 69.6204 50.4968 69.8988 50.5966Z" fill="#E0E0E0"/>
<path d="M69.8988 46.1908C69.6193 46.2861 69.3225 46.3195 69.0289 46.2888C68.734 46.3194 68.436 46.286 68.1553 46.1908C68.435 46.0913 68.7338 46.0565 69.0289 46.0892C69.3228 46.0563 69.6204 46.0911 69.8988 46.1908Z" fill="#E0E0E0"/>
<path d="M69.8988 41.8039C69.6193 41.8992 69.3225 41.9326 69.0289 41.9018C68.734 41.9324 68.436 41.899 68.1553 41.8039C68.435 41.7043 68.7338 41.6695 69.0289 41.7022C69.3228 41.6693 69.6204 41.7041 69.8988 41.8039Z" fill="#E0E0E0"/>
<path d="M69.8988 37.3793C69.6193 37.4745 69.3225 37.508 69.0289 37.4772C68.734 37.5078 68.436 37.4744 68.1553 37.3793C68.4356 37.2822 68.7343 37.2501 69.0289 37.2851C69.3223 37.2498 69.6198 37.282 69.8988 37.3793Z" fill="#E0E0E0"/>
<path d="M71.4465 64.1418L71.3223 63.7878L82.4799 59.8677L93.7618 52.2498L104.987 55.974L116.296 48.5143L127.623 48.4841L127.672 48.518L138.43 56.1171L148.857 49.2297L149.064 49.546L138.423 56.5765L138.317 56.5012L127.502 48.8607L116.409 48.8908L105.044 56.3883L93.8183 52.6678L82.6305 60.2142L71.4465 64.1418Z" fill="#0079FC"/>
<path d="M138.49 60.1164L127.506 52.6491H116.182L104.851 45.1705L93.8669 45.0726L82.6453 56.4336H71.5215V56.057H82.4871L93.7125 44.6923L104.968 44.7939L116.295 52.2725H127.619L138.366 59.5742L149.094 40.7195L149.422 40.904L138.49 60.1164Z" fill="#455A64"/>
<path d="M149.335 30.9551C149.335 31.0116 145.103 31.053 139.883 31.053C134.664 31.053 130.432 31.0116 130.432 30.9551C130.432 30.8986 134.664 30.8572 139.883 30.8572C145.103 30.8572 149.335 30.9024 149.335 30.9551Z" fill="#263238"/>
<path d="M72.0789 30.5521H71.3936V30.1492H73.2764V30.5521H72.591V32.2918H72.0789V30.5521Z" fill="#263238"/>
<path d="M74.8918 32.2918L74.4888 31.6931H74.0294V32.2918H73.5361V30.1492H74.4625C75.0349 30.1492 75.3926 30.4467 75.3926 30.9249C75.3988 31.0697 75.3597 31.2128 75.2807 31.3342C75.2017 31.4557 75.0868 31.5496 74.952 31.6027L75.434 32.2918H74.8918ZM74.4286 30.5521H74.0219V31.3052H74.4286C74.7298 31.3052 74.8842 31.1659 74.8842 30.9287C74.8842 30.6914 74.7298 30.5521 74.4286 30.5521Z" fill="#263238"/>
<path d="M77.437 31.8927V32.2918H75.7764V30.1492H77.3956V30.5257H76.2659V30.9927H77.26V31.3692H76.2659V31.8663L77.437 31.8927Z" fill="#263238"/>
<path d="M79.7984 30.1492V32.2918H79.3842L78.3147 30.9889V32.2918H77.8252V30.1492H78.2545L79.3239 31.4483V30.1492H79.7984Z" fill="#263238"/>
<path d="M80.3033 30.1492H81.2673C81.4172 30.1338 81.5687 30.15 81.712 30.1968C81.8553 30.2436 81.9871 30.32 82.099 30.421C82.2109 30.522 82.3003 30.6453 82.3616 30.783C82.4228 30.9208 82.4544 31.0698 82.4544 31.2205C82.4544 31.3713 82.4228 31.5203 82.3616 31.658C82.3003 31.7958 82.2109 31.9191 82.099 32.0201C81.9871 32.1211 81.8553 32.1974 81.712 32.2442C81.5687 32.2911 81.4172 32.3073 81.2673 32.2919H80.292L80.3033 30.1492ZM81.2673 31.8852C81.3588 31.8921 81.4507 31.88 81.5373 31.8497C81.6239 31.8194 81.7034 31.7716 81.7706 31.7092C81.8379 31.6468 81.8915 31.5712 81.9282 31.4871C81.9649 31.403 81.9839 31.3123 81.9839 31.2205C81.9839 31.1288 81.9649 31.038 81.9282 30.9539C81.8915 30.8698 81.8379 30.7942 81.7706 30.7319C81.7034 30.6695 81.6239 30.6216 81.5373 30.5914C81.4507 30.5611 81.3588 30.549 81.2673 30.5559H80.8154V31.8852H81.2673Z" fill="#263238"/>
<path d="M53.4879 81.1326L52.1662 82.7858V79.9389H47.9938C47.9938 79.9389 47.5306 86.461 47.6172 87.8468C47.7038 89.2326 49.2741 93.2091 49.2741 93.2091C50.8877 92.2509 52.312 91.0053 53.4766 89.5338C55.3293 87.1539 58.4096 81.3473 58.4096 81.3473L55.1975 79.408L53.4879 81.1326Z" fill="#FFBE9D"/>
<path d="M53.751 80.8276C53.5956 81.0878 53.4139 81.3313 53.2088 81.5544C52.8548 81.9912 52.369 82.5899 51.8117 83.2414C51.2544 83.8929 50.7272 84.4615 50.3055 84.8493C50.0995 85.077 49.8594 85.2714 49.5938 85.4255C49.7822 85.1889 49.986 84.965 50.2038 84.7552C50.5804 84.3447 51.0887 83.7611 51.646 83.1134C52.7644 81.8104 53.7059 80.7824 53.751 80.8276Z" fill="#EB996E"/>
<path d="M53.6269 70.472C53.6269 70.472 52.4408 60.7378 47.7412 59.7437L45.3086 69.0976L47.3308 75.8456L54.0374 74.9419L53.6269 70.472Z" fill="#0079FC"/>
<path d="M22.5947 76.9377L22.8169 77.6343L27.4185 92.0982C27.4185 92.0982 38.8097 96.4061 42.8992 94.7116C46.9887 93.017 48.879 90.5694 48.879 90.5694L47.9678 59.7813L41.4795 58.7985L30.2917 57.9775L22.7981 60.3838L22.5947 76.9377Z" fill="#0079FC"/>
<g opacity="0.3">
<path d="M36.716 82.5748C32.4433 80.7382 28.4582 78.2942 24.8842 75.3184L22.5947 76.5384C24.3156 80.0141 25.7504 83.1848 28.1227 86.2538C28.9435 87.3532 30.0308 88.2254 31.2821 88.7881C32.1818 89.1059 33.1508 89.1735 34.0858 88.9839C35.0209 88.7942 35.887 88.3543 36.5917 87.7112C37.9549 86.4421 38.9791 82.7141 38.531 79.6752C37.7666 79.7204 37.4239 82.8685 36.716 82.5748Z" fill="black"/>
</g>
<path d="M48.6079 73.6803C48.4682 72.6332 48.2157 71.6042 47.8547 70.6113C47.4273 69.6443 46.8944 68.7274 46.2656 67.8774C46.5127 68.0731 46.7297 68.304 46.9096 68.5628C47.3712 69.168 47.751 69.8315 48.0393 70.536C48.3268 71.2412 48.5168 71.9823 48.6041 72.7389C48.6514 73.0508 48.6527 73.368 48.6079 73.6803Z" fill="#263238"/>
<path d="M48.5892 50.6985C48.2888 50.7357 47.9841 50.6906 47.7075 50.5678C47.4308 50.4451 47.1928 50.2495 47.0189 50.0018C47.418 50.1032 47.8386 50.0795 48.2239 49.9341C48.6005 49.7495 48.7963 49.2111 48.5101 48.9173C48.2879 48.6876 47.9189 48.7291 47.6026 48.7065C47.2308 48.6728 46.8763 48.5343 46.5803 48.307C46.2843 48.0796 46.059 47.7728 45.9306 47.4224C45.6595 46.6466 45.9042 45.8031 46.0022 44.9897C46.1302 43.8002 45.9376 42.5981 45.4443 41.5082C44.951 40.4183 44.175 39.4802 43.1967 38.7915L38.0943 35.8542C36.2453 38.2191 35.6692 41.4124 36.0533 44.391C36.4374 47.3696 37.6989 50.1751 39.2202 52.7658C39.6369 53.538 40.1548 54.251 40.7604 54.8859C41.3701 55.5233 42.1765 55.9371 43.0499 56.0608C43.1622 55.7007 43.1867 55.3189 43.1212 54.9475C43.0556 54.576 42.9021 54.2256 42.6733 53.9257C43.3649 53.966 44.0575 53.8663 44.7097 53.6327C45.3619 53.3992 45.9603 53.0364 46.4691 52.5663L45.3733 51.7303C45.9522 51.8041 46.5402 51.7499 47.0958 51.5716C47.6515 51.3934 48.1613 51.0953 48.5892 50.6985Z" fill="#263238"/>
<path d="M28.9436 42.38C28.9601 41.3543 29.3062 40.3611 29.9308 39.5473C30.5554 38.7336 31.4253 38.1424 32.4118 37.8612L38.8134 36.0348C41.5887 35.6583 43.5469 39.0248 43.8067 41.8151C44.1004 44.9143 44.3188 48.1866 44.0213 50.5138C43.4264 55.1945 39.8791 55.8987 39.8791 55.8987C39.8791 55.8987 39.9431 58.1129 39.9808 59.4761L38.9377 65.5727L30.4913 58.3728L28.9248 42.4365C28.9248 42.3574 28.9248 42.4854 28.9436 42.38Z" fill="#FFBE9D"/>
<path d="M42.9933 45.3888C42.9996 45.5445 42.9449 45.6966 42.8408 45.8126C42.7367 45.9286 42.5915 45.9995 42.436 46.0101C42.3601 46.019 42.2832 46.0124 42.2099 45.9909C42.1366 45.9693 42.0683 45.9332 42.0093 45.8847C41.9502 45.8362 41.9016 45.7763 41.8662 45.7086C41.8308 45.6408 41.8094 45.5667 41.8034 45.4905C41.7961 45.3351 41.85 45.1831 41.9535 45.0669C42.0569 44.9508 42.2018 44.8798 42.3569 44.8691C42.433 44.8608 42.5099 44.8677 42.5832 44.8894C42.6565 44.9111 42.7248 44.9472 42.784 44.9956C42.8433 45.044 42.8923 45.1037 42.9282 45.1712C42.9642 45.2387 42.9863 45.3127 42.9933 45.3888Z" fill="#263238"/>
<path d="M43.1553 43.6867C43.08 43.7658 42.6205 43.4457 41.9766 43.4683C41.3327 43.4909 40.8733 43.8449 40.8017 43.7469C40.7302 43.649 40.8356 43.57 41.0352 43.4156C41.3088 43.215 41.6374 43.1033 41.9766 43.0955C42.3103 43.0821 42.6393 43.1772 42.9143 43.3666C43.1176 43.5022 43.1892 43.6377 43.1553 43.6867Z" fill="#263238"/>
<path d="M37.3634 45.3965C37.3697 45.5522 37.315 45.7042 37.2109 45.8202C37.1068 45.9363 36.9616 46.0071 36.8061 46.0178C36.7302 46.0266 36.6533 46.0201 36.58 45.9985C36.5067 45.977 36.4384 45.9409 36.3794 45.8924C36.3203 45.8439 36.2717 45.784 36.2363 45.7162C36.2009 45.6485 36.1796 45.5743 36.1735 45.4981C36.1663 45.3422 36.2207 45.1896 36.3249 45.0734C36.4292 44.9571 36.575 44.8865 36.7308 44.8768C36.8065 44.869 36.8831 44.8763 36.9559 44.8983C37.0288 44.9202 37.0967 44.9564 37.1555 45.0047C37.2143 45.053 37.263 45.1125 37.2987 45.1798C37.3344 45.247 37.3564 45.3207 37.3634 45.3965Z" fill="#263238"/>
<path d="M37.0468 43.8487C36.9753 43.9316 36.5121 43.6077 35.8682 43.6303C35.2243 43.6529 34.7648 44.0069 34.6933 43.9128C34.6217 43.8186 34.7272 43.7358 34.9305 43.5776C35.2028 43.3771 35.5302 43.2654 35.8682 43.2575C36.2028 43.246 36.5324 43.3409 36.8096 43.5287C37.0092 43.6868 37.0845 43.8149 37.0468 43.8487Z" fill="#263238"/>
<path d="M39.2012 48.8419C39.5372 48.7254 39.8863 48.6508 40.2405 48.6197C40.4024 48.6197 40.5568 48.5632 40.5832 48.4502C40.5903 48.2796 40.5471 48.1107 40.4589 47.9645C40.2895 47.5879 40.1162 47.1624 39.9355 46.7293C39.2049 44.9708 38.6702 43.5247 38.7418 43.4946C38.8133 43.4645 39.461 44.8691 40.1916 46.6276L40.6962 47.8703C40.8051 48.0648 40.8424 48.2913 40.8016 48.5105C40.7796 48.5693 40.7444 48.6223 40.6987 48.6654C40.653 48.7085 40.598 48.7405 40.538 48.759C40.4478 48.788 40.354 48.8045 40.2593 48.808C39.9096 48.8657 39.5539 48.8771 39.2012 48.8419Z" fill="#263238"/>
<path d="M33.6387 54.4302C33.6387 54.4302 35.2466 57.5896 39.8934 57.0097L39.8633 55.9138C37.691 56.0063 35.5357 55.4926 33.6387 54.4302Z" fill="#EB996E"/>
<path d="M36.7796 41.5328C36.7231 41.7098 36.0754 41.6458 35.326 41.7588C34.5767 41.8718 33.9704 42.0977 33.865 41.9433C33.8198 41.8718 33.9214 41.7023 34.1587 41.5253C34.4809 41.3067 34.8497 41.1662 35.2357 41.1149C35.6147 41.059 36.0016 41.0926 36.3654 41.2128C36.6591 41.3144 36.8059 41.45 36.7796 41.5328Z" fill="#263238"/>
<path d="M42.8874 41.7136C42.7782 41.8642 42.3301 41.7136 41.7991 41.7362C41.2681 41.7588 40.8163 41.8642 40.7108 41.7136C40.6619 41.6421 40.7108 41.4952 40.9217 41.337C41.1812 41.1628 41.4866 41.0698 41.7991 41.0698C42.1116 41.0698 42.417 41.1628 42.6765 41.337C42.8572 41.4952 42.9363 41.6421 42.8874 41.7136Z" fill="#263238"/>
<path d="M36.7908 50.0885C36.8322 49.8967 36.9398 49.7255 37.0947 49.6051C37.2496 49.4846 37.4419 49.4224 37.6381 49.4295C37.7847 49.442 37.9258 49.4914 38.0482 49.573C38.1707 49.6547 38.2705 49.7659 38.3385 49.8964C38.4039 50.0247 38.4429 50.1647 38.4533 50.3083C38.4636 50.4519 38.4451 50.5961 38.3987 50.7324V50.7927C38.2696 50.9418 38.0972 51.0469 37.9055 51.0935C37.7138 51.14 37.5124 51.1257 37.3293 51.0525C37.1439 50.9761 36.9899 50.8393 36.8921 50.6643C36.7944 50.4893 36.7587 50.2864 36.7908 50.0885Z" fill="#EB996E"/>
<path d="M38.8437 50.7926C38.8437 50.6985 38.1923 50.7474 37.6877 50.2278C37.1831 49.7081 37.2019 49.0115 37.1115 49.0115C37.0211 49.0115 36.9948 49.1772 37.0098 49.4709C37.0368 49.8515 37.1952 50.2109 37.458 50.4876C37.7116 50.7506 38.0569 50.9058 38.422 50.9207C38.7157 50.9244 38.8512 50.8416 38.8437 50.7926Z" fill="#263238"/>
<path d="M31.0938 34.958C31.9929 33.6789 33.3233 32.7671 34.8406 32.3898C36.3468 32.1262 37.2732 32.3898 38.2711 33.2973C38.6973 33.7067 39.213 34.011 39.7774 34.186C40.5041 34.3291 41.1142 34.2086 41.9803 34.653C43.1665 35.2593 43.6861 36.8408 44.2397 38.0421C44.9213 39.5483 45.8928 40.9379 46.3371 42.5308C46.7815 44.1236 46.548 46.0818 45.2075 47.0495C45.4635 45.6901 45.6744 44.1763 44.9288 43.0128C44.3602 42.1241 43.3434 41.6308 42.6129 40.8701C41.7317 39.9513 41.6188 38.7199 40.6924 37.8576C38.5837 35.858 34.8745 39.3638 31.105 34.9618" fill="#263238"/>
<path d="M44.4841 41.3295C43.9965 39.9721 43.2962 38.701 42.4092 37.5638C41.2297 36.1916 39.5837 35.3048 37.7889 35.0746C35.9941 34.8444 34.1777 35.2872 32.69 36.3174L32.3135 36.3475C32.8898 37.0675 33.6204 37.649 34.4513 38.0492C35.2823 38.4493 36.1924 38.6579 37.1147 38.6596C38.2105 38.6596 39.3967 38.3734 40.3381 38.9383C41.2795 39.5031 41.5808 40.6178 42.3264 41.3634C42.831 41.868 43.5088 42.1805 44.0021 42.7039C44.4829 43.2952 44.8356 43.98 45.0376 44.7148C45.3615 43.5926 44.9322 42.4064 44.4841 41.3295Z" fill="#263238"/>
<path d="M34.6858 37.2286L31.6997 34.5926C29.3725 34.4721 27.8775 36.6713 27.0792 38.3583C26.4842 39.6198 26.2997 41.0319 25.8516 42.3537C25.4035 43.6754 24.6579 44.967 24.2399 46.334C23.8219 47.7009 23.7654 49.2976 24.5901 50.4762L25.1098 49.5197C25.1968 50.8578 25.7467 52.1238 26.665 53.1009C26.7328 52.7695 26.8005 52.4381 26.8646 52.103C27.3589 53.1177 28.1458 53.9611 29.124 54.5243L30.5248 58.2636C32.5884 51.9712 27.2713 51.4967 34.6858 37.2286Z" fill="#263238"/>
<path d="M34.2568 37.7747C34.1036 38.6286 33.869 39.4659 33.5564 40.2751C33.2405 41.0873 32.7094 41.7981 32.02 42.3312C30.9995 43.0843 29.6815 43.2236 28.4539 43.5211C27.2263 43.8186 25.9196 44.3797 25.415 45.5357C25.6147 43.8386 25.9651 42.1625 26.4619 40.5274C27.0079 38.7237 27.7949 36.9086 29.3012 35.7525C29.9924 35.2339 30.802 34.8959 31.6568 34.769C32.5116 34.6421 33.3845 34.7303 34.1966 35.0258" fill="#263238"/>
<path d="M31.0824 46.0026C31.0184 45.8482 28.1226 44.8955 28.1715 47.9456C28.2167 50.9092 31.184 50.2389 31.184 50.1523C31.184 50.0657 31.0824 46.0026 31.0824 46.0026Z" fill="#FFBE9D"/>
<path d="M30.2572 49.049C30.2572 49.049 30.2082 49.0866 30.1216 49.1281C30.0007 49.1759 29.866 49.1759 29.7451 49.1281C29.4287 49.0189 29.1576 48.5293 29.1313 47.9984C29.1188 47.7407 29.1638 47.4834 29.2631 47.2452C29.2883 47.1525 29.3359 47.0674 29.4015 46.9972C29.4671 46.927 29.5488 46.8738 29.6396 46.8423C29.6988 46.8245 29.7624 46.8283 29.819 46.8532C29.8756 46.878 29.9215 46.9222 29.9484 46.9779C29.9898 47.057 29.971 47.1172 29.9861 47.1247C30.0011 47.1323 30.0501 47.072 30.0237 46.9515C30.0055 46.8782 29.963 46.8132 29.9032 46.767C29.8205 46.7075 29.7181 46.6819 29.617 46.6954C29.4967 46.7242 29.3852 46.7823 29.2926 46.8644C29.2 46.9465 29.1291 47.0501 29.0861 47.1662C28.9652 47.4249 28.9096 47.7094 28.9241 47.9946C28.9543 48.5933 29.2706 49.1469 29.6999 49.2599C29.7797 49.2824 29.8637 49.2863 29.9453 49.2713C30.0269 49.2563 30.104 49.2227 30.1706 49.1733C30.2534 49.1205 30.2685 49.0528 30.2572 49.049Z" fill="#EB996E"/>
<path d="M29.9378 49.5839C29.7927 49.5637 29.6453 49.5995 29.5257 49.6841C29.406 49.7688 29.3231 49.8958 29.2938 50.0394C29.2646 50.183 29.2911 50.3323 29.3681 50.457C29.445 50.5818 29.5666 50.6725 29.7081 50.7107C29.8495 50.7489 30.0002 50.7318 30.1295 50.6629C30.2588 50.5939 30.357 50.4782 30.404 50.3394C30.4511 50.2007 30.4435 50.0492 30.3827 49.9158C30.322 49.7824 30.2127 49.6772 30.0772 49.6215" fill="white"/>
<path d="M30.0774 49.6214C30.2038 49.7174 30.2994 49.8483 30.3523 49.998C30.3767 50.078 30.3801 50.163 30.3623 50.2447C30.3445 50.3264 30.3061 50.4023 30.2507 50.4649C30.1864 50.5439 30.1004 50.6023 30.0032 50.6328C29.9061 50.6633 29.8021 50.6646 29.7042 50.6365C29.6063 50.6085 29.5188 50.5522 29.4526 50.4749C29.3864 50.3975 29.3444 50.3024 29.3318 50.2013C29.3192 50.1185 29.3273 50.0338 29.3556 49.9549C29.3839 49.876 29.4314 49.8054 29.4938 49.7495C29.6195 49.6444 29.7748 49.5812 29.9381 49.5687C29.9381 49.5687 29.8891 49.5386 29.7988 49.5386C29.6613 49.5421 29.5288 49.5911 29.4222 49.6779C29.3415 49.7414 29.2787 49.8248 29.2397 49.9198C29.2008 50.0148 29.1871 50.1183 29.2 50.2202C29.2155 50.3444 29.267 50.4613 29.3482 50.5565C29.4294 50.6518 29.5368 50.7211 29.657 50.756C29.7772 50.7908 29.905 50.7897 30.0246 50.7527C30.1441 50.7157 30.2502 50.6444 30.3297 50.5478C30.3815 50.4809 30.4191 50.4042 30.4402 50.3223C30.4613 50.2404 30.4654 50.1551 30.4524 50.0715C30.4393 49.988 30.4094 49.908 30.3643 49.8364C30.3193 49.7648 30.2601 49.7032 30.1904 49.6553C30.1302 49.6214 30.0774 49.6139 30.0774 49.6214Z" fill="#263238"/>
<path d="M28.0399 49.4483C28.0399 49.4483 28.0023 49.4483 27.9458 49.3805C27.8648 49.3111 27.7893 49.2355 27.7199 49.1545C27.4592 48.8549 27.2505 48.5138 27.1023 48.1453C26.8764 47.5938 26.796 46.9934 26.8688 46.4018C26.9706 45.6656 27.344 44.994 27.9157 44.519C28.4762 44.0669 29.1005 43.7001 29.7684 43.4307C30.3709 43.1709 30.8981 42.945 31.3424 42.7077C31.8056 42.4597 32.2368 42.1562 32.6265 41.804C32.5548 41.9306 32.4632 42.0451 32.3554 42.1429C32.0718 42.4192 31.7541 42.6583 31.4102 42.8546C30.9012 43.1321 30.3783 43.3834 29.8437 43.6077C29.1969 43.8764 28.592 44.2366 28.0475 44.6772C27.5096 45.1184 27.152 45.7413 27.042 46.4282C26.9672 46.9913 27.0319 47.5641 27.2303 48.0964C27.4289 48.586 27.702 49.042 28.0399 49.4483Z" fill="#455A64"/>
<path d="M27.7945 47.6896C27.7325 47.6022 27.6877 47.5038 27.6627 47.3996C27.575 47.1211 27.5393 46.8288 27.5573 46.5373C27.5812 46.1 27.7104 45.675 27.9338 45.2984C28.2036 44.8311 28.6077 44.4559 29.0936 44.2214C29.5654 44.0013 30.048 43.8052 30.5397 43.634C30.9301 43.492 31.296 43.29 31.6242 43.0352C31.919 42.7908 32.1514 42.4797 32.302 42.1277C32.3047 42.235 32.2801 42.3413 32.2304 42.4365C32.1145 42.7075 31.938 42.9484 31.7145 43.1406C31.385 43.4207 31.0108 43.6435 30.6074 43.7996C30.1669 43.9879 29.6623 44.1461 29.184 44.3946C28.7313 44.6146 28.3511 44.9596 28.0882 45.3887C27.8788 45.7429 27.7502 46.139 27.7116 46.5486C27.6864 46.9309 27.7142 47.3149 27.7945 47.6896Z" fill="#455A64"/>
<path d="M34.4488 37.9705C34.1495 37.2846 33.7608 36.6414 33.2928 36.0575C32.7799 35.5138 32.1975 35.0403 31.5605 34.6492C31.7838 34.688 31.9967 34.7726 32.1856 34.8977C32.6605 35.1676 33.0859 35.5165 33.4434 35.9295C33.8037 36.3391 34.0903 36.8079 34.2907 37.3153C34.3872 37.5207 34.441 37.7436 34.4488 37.9705Z" fill="#455A64"/>
<path d="M48.0651 48.8607C47.9379 48.8627 47.8111 48.8462 47.6886 48.8118C47.3467 48.7432 47.0096 48.6526 46.6794 48.5406C46.4496 48.4595 46.2267 48.36 46.0129 48.2432C45.7542 48.1123 45.5307 47.9212 45.3614 47.6858C45.2719 47.5518 45.2116 47.4004 45.1844 47.2415L45.1505 47.0118C45.1358 46.9297 45.1269 46.8466 45.1242 46.7633C45.1317 46.4269 45.1927 46.0938 45.3049 45.7766C45.4127 45.4778 45.4823 45.1666 45.512 44.8503C45.5171 44.562 45.4357 44.2787 45.2786 44.0369C44.9839 43.6205 44.64 43.2412 44.2543 42.9072C44.0073 42.6678 43.7457 42.4439 43.471 42.2369C43.3648 42.168 43.2629 42.0926 43.166 42.011C43.6188 42.1916 44.0272 42.4678 44.3635 42.8206C44.7749 43.1459 45.1397 43.526 45.448 43.9503C45.6277 44.22 45.7222 44.5375 45.7191 44.8616C45.6925 45.1958 45.6216 45.5251 45.5083 45.8407C45.401 46.1382 45.3413 46.4509 45.3313 46.767C45.3349 46.8402 45.3424 46.9131 45.3539 46.9854L45.384 47.2151C45.4059 47.349 45.4546 47.4771 45.5271 47.5917C45.6786 47.8056 45.8769 47.982 46.107 48.1076C46.3118 48.2239 46.5245 48.3258 46.7434 48.4126C47.5379 48.7176 48.0764 48.8268 48.0651 48.8607Z" fill="#455A64"/>
<path d="M37.5098 174.766L37.6717 170.612L44.9168 170.337L44.8039 175.425L42.1717 177.014L37.5098 174.766Z" fill="#FFBE9D"/>
<path d="M44.9623 174.48V174.954C44.9623 174.954 53.0058 178.275 53.0773 179.808L37.0469 179.571L37.3444 174.239C38.5224 174.823 39.8125 175.148 41.1271 175.189C42.4416 175.231 43.7497 174.989 44.9623 174.48Z" fill="#0079FC"/>
<g opacity="0.3">
<path d="M44.9623 174.48V174.954C44.9623 174.954 53.0058 178.275 53.0773 179.808L37.0469 179.571L37.3444 174.239C38.5224 174.823 39.8125 175.148 41.1271 175.189C42.4416 175.231 43.7497 174.989 44.9623 174.48Z" fill="black"/>
</g>
<g opacity="0.6">
<path d="M38.9378 175.971C38.7805 176.016 38.6457 176.118 38.56 176.257C38.4743 176.397 38.4438 176.563 38.4746 176.724C38.5132 176.881 38.6105 177.016 38.7465 177.103C38.8825 177.19 39.0467 177.222 39.2051 177.191C39.3688 177.142 39.5089 177.035 39.5985 176.89C39.6882 176.745 39.7211 176.572 39.6909 176.404C39.6336 176.245 39.5167 176.114 39.365 176.04C39.2132 175.965 39.0384 175.953 38.8775 176.005" fill="white"/>
</g>
<g opacity="0.6">
<path d="M37.043 179.571L37.1145 178.29L52.4521 178.983C52.4521 178.983 53.16 179.303 53.0734 179.808L37.043 179.571Z" fill="white"/>
</g>
<path d="M45.0153 174.999C45.0153 175.078 44.6387 175.109 44.232 175.353C43.8253 175.598 43.6333 175.926 43.5617 175.896C43.4902 175.865 43.6144 175.41 44.0889 175.142C44.5634 174.875 45.0341 174.928 45.0153 174.999Z" fill="#263238"/>
<path d="M46.6869 175.718C46.6869 175.798 46.363 175.926 46.0919 176.253C45.8208 176.581 45.7379 176.927 45.6626 176.923C45.5873 176.92 45.5383 176.475 45.8848 176.076C46.2312 175.677 46.6869 175.647 46.6869 175.718Z" fill="#263238"/>
<path d="M47.6127 177.744C47.5412 177.744 47.4357 177.368 47.6429 176.938C47.85 176.509 48.219 176.347 48.2529 176.415C48.2868 176.483 48.0533 176.705 47.8763 177.059C47.6993 177.413 47.688 177.744 47.6127 177.744Z" fill="#263238"/>
<path d="M30.9951 174.86L31.1608 170.706L38.4022 170.431L38.293 175.519L35.6608 177.108L30.9951 174.86Z" fill="#FFBE9D"/>
<path d="M38.4516 174.574V175.048C38.4516 175.048 46.495 178.37 46.5666 179.902L30.5361 179.665L30.8336 174.333C32.0116 174.918 33.3018 175.242 34.6163 175.283C35.9309 175.325 37.2389 175.083 38.4516 174.574Z" fill="#0079FC"/>
<g opacity="0.6">
<path d="M32.4266 176.065C32.2689 176.109 32.1336 176.211 32.0477 176.351C31.9619 176.49 31.9318 176.657 31.9635 176.818C32.0052 176.971 32.1033 177.103 32.2381 177.187C32.3729 177.27 32.5344 177.3 32.6902 177.27C32.8539 177.221 32.994 177.114 33.0836 176.969C33.1733 176.824 33.2062 176.651 33.176 176.483C33.1187 176.324 33.0018 176.193 32.8501 176.119C32.6983 176.044 32.5235 176.032 32.3626 176.084" fill="white"/>
</g>
<g opacity="0.6">
<path d="M30.5322 179.665L30.6038 178.385L45.9413 179.077C45.9413 179.077 46.6493 179.401 46.5627 179.902L30.5322 179.665Z" fill="white"/>
</g>
<path d="M38.5038 175.108C38.5038 175.187 38.1273 175.218 37.7206 175.462C37.3139 175.707 37.1218 176.035 37.0503 176.005C36.9787 175.974 37.0992 175.523 37.5775 175.251C38.0557 174.98 38.5227 175.022 38.5038 175.108Z" fill="#263238"/>
<path d="M40.1764 175.812C40.1764 175.892 39.8526 176.02 39.5814 176.347C39.3103 176.675 39.2274 177.021 39.1484 177.017C39.0693 177.014 39.0279 176.569 39.3743 176.17C39.7208 175.771 40.1764 175.741 40.1764 175.812Z" fill="#263238"/>
<path d="M41.0988 177.842C41.0272 177.842 40.9256 177.466 41.1327 177.036C41.3398 176.607 41.7088 176.445 41.7427 176.513C41.7766 176.581 41.5431 176.803 41.3662 177.157C41.1892 177.511 41.1779 177.835 41.0988 177.842Z" fill="#263238"/>
<path d="M20.1162 72.43C20.1162 72.43 26.1413 81.7688 29.3044 85.5345C32.4676 89.3001 37.668 85.9863 38.2705 80.865C38.873 75.7437 38.7148 66.2505 38.7148 66.2505L34.5048 63.7463L31.7822 76.704L28.3931 70.3965L20.1162 72.43Z" fill="#FFBE9D"/>
<path d="M38.7149 66.2506L40.5224 61.7318C40.895 61.5575 41.2516 61.3508 41.5881 61.1142C41.8555 60.8657 41.8027 59.2314 41.7274 58.9452C41.6521 58.659 42.0211 57.8155 41.7613 57.6649C41.5015 57.5142 40.7747 57.6649 40.7484 57.3636C40.7484 57.2996 41.1249 56.5314 40.594 56.1511C40.3281 56.0504 40.046 55.9993 39.7617 56.0004L39.468 54.4942C39.468 54.4942 38.263 52.9164 37.5852 53.741C37.5852 53.741 35.0208 56.8289 34.7948 57.2808C34.5689 57.7326 34.5049 62.9669 34.5049 63.946" fill="#FFBE9D"/>
<path d="M34.5127 63.9535C34.5023 63.8634 34.5023 63.7724 34.5127 63.6824C34.5127 63.4828 34.5127 63.2229 34.5127 62.8991C34.5127 62.2175 34.5127 61.2347 34.5504 60.0146C34.5504 59.4046 34.588 58.738 34.6407 58.0188C34.6407 57.838 34.6709 57.6422 34.7048 57.4652C34.746 57.2687 34.8367 57.0859 34.9684 56.9343C35.1943 56.618 35.4353 56.3092 35.6876 55.9891C36.1884 55.3527 36.7232 54.6937 37.2805 54.0084C37.4172 53.8176 37.5808 53.6476 37.7662 53.5038C37.8798 53.4453 38.0057 53.4148 38.1334 53.4148C38.2611 53.4148 38.387 53.4453 38.5005 53.5038C38.9251 53.7301 39.2942 54.0477 39.5813 54.4339V54.4602C39.6114 54.6033 39.6415 54.7615 39.6717 54.9197C39.7394 55.2699 39.811 55.6201 39.8788 55.959L39.7846 55.8799C39.9817 55.8852 40.178 55.9054 40.3721 55.9401C40.4801 55.9577 40.5837 55.996 40.6771 56.0531C40.7639 56.1174 40.8358 56.1996 40.888 56.2941C40.9825 56.4813 41.0129 56.6943 40.9746 56.9004C40.9631 56.9965 40.9416 57.0911 40.9106 57.1828L40.8691 57.3146V57.3447C40.8671 57.3488 40.8661 57.3533 40.8661 57.3579C40.8661 57.3625 40.8671 57.367 40.8691 57.3711C40.9184 57.4142 40.9808 57.4395 41.0461 57.4426C41.1321 57.4572 41.2189 57.466 41.306 57.469C41.3963 57.469 41.4867 57.469 41.5809 57.4954C41.6916 57.5049 41.7968 57.5483 41.8821 57.6196C41.9483 57.7109 41.9766 57.8243 41.9612 57.9359C41.9612 58.0313 41.9499 58.1217 41.9273 58.2071C41.8934 58.3803 41.852 58.546 41.8332 58.7079C41.8199 58.7801 41.8199 58.8541 41.8332 58.9263C41.8332 59.0205 41.8557 59.0995 41.867 59.1861C41.867 59.3569 41.8746 59.5225 41.8896 59.6832C41.8963 60.0041 41.8799 60.325 41.8407 60.6435C41.8257 60.8073 41.777 60.9663 41.6976 61.1104C41.5888 61.224 41.4615 61.3183 41.321 61.3891C41.0687 61.5397 40.8164 61.664 40.5679 61.7656L40.6055 61.728L39.2537 65.0154C39.0955 65.392 38.9675 65.6894 38.8771 65.9116C38.8373 66.0168 38.7894 66.1188 38.734 66.2166C38.7604 66.1072 38.7956 66.0002 38.8395 65.8966C38.9223 65.6706 39.039 65.3656 39.1821 64.9853C39.4947 64.1832 39.9353 63.0535 40.47 61.6715V61.6451H40.4963C40.7373 61.5284 40.9859 61.3966 41.2495 61.2497C41.3701 61.1877 41.4805 61.1077 41.5771 61.0125C41.6388 60.8877 41.6758 60.7522 41.6863 60.6133C41.7218 60.3047 41.7344 59.9938 41.7239 59.6832C41.7239 59.52 41.7164 59.3581 41.7014 59.1974C41.6964 59.1188 41.6851 59.0408 41.6675 58.964C41.6506 58.8706 41.6506 58.7749 41.6675 58.6816C41.6901 58.5046 41.7315 58.3351 41.7616 58.1694C41.777 58.0886 41.787 58.0068 41.7917 57.9246C41.8012 57.8611 41.7893 57.7962 41.7578 57.7401C41.7007 57.7048 41.6363 57.683 41.5696 57.6761C41.4867 57.6761 41.4001 57.6761 41.3097 57.6535C41.2194 57.6309 41.129 57.6535 41.0311 57.6272C40.9148 57.6184 40.8066 57.5643 40.7298 57.4765C40.706 57.4476 40.6916 57.4122 40.6884 57.3749C40.6806 57.3504 40.6806 57.324 40.6884 57.2995V57.2619L40.7298 57.1339C40.754 57.0498 40.7729 56.9643 40.7863 56.8778C40.8185 56.7128 40.7947 56.5419 40.7185 56.392C40.6795 56.3221 40.6255 56.2616 40.5604 56.215C40.4908 56.1745 40.4141 56.1477 40.3344 56.136C40.147 56.1145 39.9582 56.107 39.7696 56.1134H39.6905V56.0343C39.6227 55.6954 39.5512 55.3452 39.4834 54.995C39.4533 54.8368 39.4231 54.6824 39.393 54.5356V54.577C39.1247 54.2177 38.7817 53.9209 38.3876 53.7071C38.3013 53.661 38.2049 53.6368 38.107 53.6368C38.0092 53.6368 37.9128 53.661 37.8265 53.7071C37.6613 53.838 37.5166 53.9929 37.3972 54.1665C36.8324 54.8443 36.2976 55.5033 35.793 56.136C35.5407 56.4485 35.296 56.7611 35.0738 57.0661C34.9539 57.1965 34.8708 57.3563 34.8328 57.5293C34.8027 57.7062 34.7838 57.9058 34.765 58.064C34.7048 58.7757 34.6784 59.446 34.652 60.0523C34.6106 61.2535 34.5767 62.2326 34.5541 62.933C34.5541 63.2568 34.5541 63.5167 34.5278 63.7162C34.5289 63.7956 34.5238 63.8749 34.5127 63.9535Z" fill="#EB996E"/>
<path d="M39.7693 56.0006C39.5101 56.0946 39.2461 56.1751 38.9785 56.2416C38.7003 56.3455 38.4308 56.4714 38.1727 56.6182C37.822 56.7575 37.4528 56.845 37.0769 56.878C36.7552 56.9045 36.4438 57.0041 36.1665 57.1692C35.8891 57.3343 35.6531 57.5606 35.4765 57.8307C35.345 58.0643 35.2558 58.3193 35.2129 58.5839C35.1784 58.4434 35.1733 58.2973 35.1979 58.1547C35.2226 58.0122 35.2764 57.8762 35.356 57.7554C35.5092 57.4802 35.723 57.2432 35.9811 57.0625C36.2996 56.8507 36.6658 56.7213 37.0468 56.686C37.4061 56.6518 37.7601 56.5747 38.1011 56.4563C38.367 56.3041 38.647 56.178 38.9371 56.0797C39.2072 56.0018 39.4894 55.975 39.7693 56.0006Z" fill="#EB996E"/>
<path d="M38.6553 56.1699C38.6139 56.2038 38.4482 56.0494 38.403 55.7934C38.3578 55.5373 38.4708 55.3339 38.5198 55.3528C38.5687 55.3716 38.5612 55.5524 38.5988 55.7632C38.6365 55.9741 38.7156 56.136 38.6553 56.1699Z" fill="#EB996E"/>
<path d="M40.8655 57.3974C40.0983 57.6503 39.2932 57.7688 38.4856 57.7476C38.1878 57.7176 37.887 57.747 37.6007 57.8342C37.3872 57.9335 37.2191 58.1097 37.13 58.3275C37.0579 58.5445 37.0001 58.7658 36.9568 58.9903C36.8884 58.7538 36.9044 58.5009 37.0019 58.2748C37.0904 58.0109 37.28 57.7928 37.5291 57.6685C37.8348 57.5624 38.1594 57.5213 38.4819 57.548C39.7961 57.5367 40.8542 57.3409 40.8655 57.3974Z" fill="#EB996E"/>
<path d="M41.5957 58.7154C41.4169 58.801 41.2215 58.846 41.0233 58.8472C40.6467 58.8886 40.161 58.8736 39.6187 58.8924C39.3649 58.8915 39.112 58.9218 38.8656 58.9828C38.6771 59.0295 38.5092 59.1366 38.3873 59.2878C38.2832 59.4392 38.2304 59.62 38.2367 59.8037C38.2367 59.8037 38.1878 59.7585 38.1689 59.653C38.1501 59.4988 38.1861 59.3429 38.2706 59.2125C38.3985 59.0203 38.5887 58.8781 38.8091 58.8095C39.0647 58.7346 39.3297 58.6966 39.5961 58.6966C40.1534 58.6777 40.643 58.6966 41.0007 58.6966C41.1991 58.6799 41.3988 58.6862 41.5957 58.7154Z" fill="#EB996E"/>
<path d="M40.9257 60.0449C40.9634 60.0449 40.7638 60.3951 40.2818 60.5043L40.3571 60.3988L40.3834 60.6549C40.4477 60.9971 40.4477 61.3483 40.3834 61.6905C40.2554 61.368 40.189 61.0244 40.1876 60.6775L40.165 60.4214V60.3311H40.2479C40.6546 60.2557 40.8918 60.0072 40.9257 60.0449Z" fill="#EB996E"/>
<path d="M48.882 90.0044C48.882 90.0044 54.2405 101.832 54.2405 109.232C54.2405 116.631 48.9686 140.83 48.9686 140.83C48.9686 140.83 48.2644 147.521 47.5565 156.45C47.093 162.035 46.1902 167.575 44.8565 173.018H39.5845L31.0101 173.252C31.0101 173.252 27.3687 158.336 27.6022 152.699C27.8357 147.062 28.7771 140.6 28.7771 140.6C28.7771 140.6 24.198 121.926 23.3734 118.518C23.0533 117.185 22.9064 114.643 22.8801 111.936C22.8246 106.367 23.8476 100.84 25.8926 95.6604L27.3989 91.8609L48.882 90.0044Z" fill="#263238"/>
<path d="M40.9742 113.672C40.9177 113.672 40.2813 126.912 39.5545 143.251C38.8277 159.59 38.2666 172.849 38.3382 172.849C38.4097 172.849 39.0311 159.609 39.7578 143.266C40.4846 126.923 41.0193 113.672 40.9742 113.672Z" fill="#455A64"/>
<path d="M42.104 108.381C42.1616 108.166 42.2007 107.947 42.2208 107.726C42.2848 107.304 42.3563 106.686 42.4203 105.926C42.5785 103.937 42.5898 101.94 42.4542 99.9495C42.3202 97.9596 42.0395 95.9823 41.6145 94.0337C41.4488 93.2805 41.2944 92.6856 41.1739 92.2789C41.1235 92.0623 41.0542 91.8506 40.9668 91.6462C40.992 91.8665 41.0348 92.0843 41.0948 92.2977C41.189 92.7119 41.3208 93.3182 41.4714 94.0638C41.859 96.0121 42.1231 97.983 42.2622 99.9646C42.3956 101.945 42.4032 103.933 42.2848 105.914C42.2396 106.667 42.1944 107.293 42.1567 107.718C42.1205 107.937 42.1029 108.159 42.104 108.381Z" fill="#455A64"/>
<path d="M24.1045 101.414C24.2127 101.514 24.3411 101.59 24.4811 101.637C24.8471 101.787 25.242 101.854 25.6371 101.832C26.6425 101.806 27.9681 101.29 29.1768 100.39C30.2094 99.6119 31.0462 98.6036 31.6208 97.4454C31.7928 97.0955 31.9376 96.733 32.0538 96.3609C32.1026 96.2262 32.133 96.0856 32.1442 95.9429C32.1028 95.9429 31.9521 96.5228 31.489 97.3738C30.8914 98.4883 30.0588 99.4597 29.0488 100.221C28.0602 101.009 26.8755 101.513 25.6221 101.678C25.1023 101.716 24.5812 101.625 24.1045 101.414Z" fill="#455A64"/>
<path d="M46.2461 94.3688C46.2569 94.4978 46.2861 94.6246 46.3327 94.7454C46.4352 95.0826 46.561 95.4123 46.7093 95.732C47.1883 96.7936 47.8383 97.7693 48.6335 98.6203C49.4307 99.471 50.3634 100.184 51.3938 100.729C51.7029 100.897 52.0238 101.041 52.354 101.162C52.4738 101.217 52.6005 101.255 52.7306 101.275C52.7306 101.237 52.2335 101.038 51.4728 100.601C49.4792 99.4509 47.8713 97.7355 46.8524 95.6717C46.4457 94.8998 46.28 94.3575 46.2461 94.3688Z" fill="#455A64"/>
<path d="M38.6813 94.1014C38.6813 94.1014 38.7039 94.0186 38.7491 93.8868C38.8121 93.7024 38.9321 93.5429 39.0917 93.4312C39.2154 93.3414 39.3614 93.2875 39.5137 93.2755C39.666 93.2636 39.8186 93.2939 39.9548 93.3633C40.0909 93.4327 40.2052 93.5383 40.285 93.6686C40.3648 93.7989 40.4071 93.9487 40.4071 94.1014C40.4071 94.2542 40.3648 94.404 40.285 94.5343C40.2052 94.6645 40.0909 94.7702 39.9548 94.8396C39.8186 94.9089 39.666 94.9393 39.5137 94.9273C39.3614 94.9154 39.2154 94.8615 39.0917 94.7717C38.9321 94.66 38.8121 94.5005 38.7491 94.3161C38.7039 94.1843 38.7001 94.1014 38.6813 94.1014C38.6625 94.1014 38.6474 94.1843 38.6813 94.3349C38.7194 94.5552 38.8373 94.7536 39.0127 94.8922C39.1431 94.998 39.2984 95.0687 39.4638 95.0977C39.6292 95.1267 39.7992 95.113 39.9579 95.0579C40.1563 94.9887 40.3284 94.8594 40.4501 94.6881C40.5719 94.5167 40.6373 94.3117 40.6373 94.1014C40.6373 93.8912 40.5719 93.6862 40.4501 93.5148C40.3284 93.3434 40.1563 93.2142 39.9579 93.145C39.7992 93.0899 39.6292 93.0762 39.4638 93.1052C39.2984 93.1341 39.1431 93.2049 39.0127 93.3106C38.8373 93.4493 38.7194 93.6477 38.6813 93.868C38.6474 94.0186 38.67 94.1014 38.6813 94.1014Z" fill="#455A64"/>
<path d="M31.3721 140.261C32.2759 140.891 33.2193 141.462 34.1963 141.971C35.1456 142.533 36.1291 143.036 37.1411 143.477C36.2314 142.849 35.2817 142.282 34.298 141.779C33.3544 141.214 32.3773 140.707 31.3721 140.261Z" fill="#455A64"/>
<path d="M53.9478 65.9344C52.3135 68.4198 45.6897 78.4929 43.7278 81.4715C43.6799 81.5454 43.6541 81.6315 43.6533 81.7195C43.6526 81.8076 43.677 81.894 43.7236 81.9687C43.7702 82.0434 43.8372 82.1033 43.9167 82.1413C43.9961 82.1793 44.0847 82.1938 44.1721 82.1832L55.9436 80.6996C56.0057 80.6923 56.0656 80.6722 56.1194 80.6404C56.1732 80.6086 56.2198 80.5659 56.2562 80.5151L67.4967 65.1512C67.5487 65.0805 67.5794 64.9964 67.5851 64.9088C67.5908 64.8212 67.5713 64.7338 67.5289 64.657C67.4865 64.5801 67.423 64.517 67.3459 64.4751C67.2688 64.4332 67.1813 64.4143 67.0937 64.4206L54.9834 65.3168C54.7747 65.3326 54.5726 65.3966 54.3929 65.5038C54.2132 65.6109 54.0609 65.7584 53.9478 65.9344Z" fill="#E0E0E0"/>
<path d="M53.9472 65.9344C53.9747 65.8842 54.0062 65.8364 54.0414 65.7913C54.146 65.6622 54.2737 65.5536 54.4179 65.4712C54.6607 65.3445 54.9311 65.2798 55.2049 65.2829L56.297 65.1925L63.2785 64.6427L65.5944 64.4657L66.822 64.3716C66.9312 64.3716 67.0254 64.3528 67.1496 64.3528C67.2444 64.3573 67.3363 64.3867 67.416 64.4381C67.4957 64.4895 67.5605 64.5611 67.6037 64.6455C67.6468 64.73 67.667 64.8244 67.6619 64.9191C67.6569 65.0138 67.627 65.1056 67.5752 65.185L64.3216 69.6699L56.7903 79.9351C56.6208 80.1686 56.4664 80.3832 56.2819 80.6242C56.2248 80.6889 56.1523 80.7381 56.0711 80.7673C55.9974 80.7896 55.9217 80.8048 55.8451 80.8125L55.4309 80.8615L53.7815 81.0686L50.5619 81.4715L44.4766 82.2246C44.3523 82.2246 44.2469 82.2585 44.1 82.266C44.0297 82.2651 43.9602 82.2504 43.8956 82.2226C43.831 82.1948 43.7725 82.1546 43.7234 82.1041C43.6242 82.0033 43.5664 81.8689 43.5615 81.7276C43.5697 81.5904 43.6196 81.459 43.7046 81.351C43.9682 80.9744 44.2243 80.564 44.4803 80.1761C44.9824 79.4054 45.477 78.6523 45.964 77.9167L48.6339 73.8837L52.505 68.0507L53.5669 66.4691C53.6874 66.2959 53.7778 66.1603 53.8493 66.0624C53.9209 65.9645 53.9472 65.9231 53.9472 65.9268C53.9242 65.9782 53.8965 66.0274 53.8644 66.0737L53.6008 66.4917L52.569 68.0921L48.7468 73.959L46.1109 78.0071L44.6347 80.2665L43.8816 81.4451C43.8141 81.5226 43.7755 81.6211 43.7724 81.7238C43.7724 81.8237 43.8121 81.9194 43.8827 81.9901C43.9533 82.0607 44.0491 82.1004 44.149 82.1004C44.2469 82.1004 44.3824 82.0702 44.4992 82.0589L50.5845 81.3058L53.8041 80.8991L55.4497 80.692L55.8639 80.6393C55.9264 80.6341 55.9882 80.6227 56.0485 80.6054C56.0993 80.5847 56.1454 80.554 56.184 80.515C56.3459 80.2891 56.5116 80.0669 56.6773 79.8447L64.2086 69.5871L67.4885 65.1172C67.538 65.0423 67.5592 64.9523 67.5481 64.8632C67.5371 64.7741 67.4946 64.6919 67.4283 64.6314C67.3631 64.572 67.2792 64.5374 67.1911 64.5335C67.1044 64.5335 66.9839 64.5335 66.8823 64.5335L65.6547 64.6201L63.3388 64.7858L56.3535 65.2716L55.2577 65.3431C54.9909 65.3371 54.7265 65.3939 54.4857 65.5088C54.2784 65.6114 54.095 65.7564 53.9472 65.9344Z" fill="#263238"/>
<path d="M67.4966 65.1511C67.4166 65.1723 67.3346 65.185 67.2519 65.1887L66.5364 65.2603L63.8778 65.4975L54.8402 66.2507L54.9118 66.2092C54.3469 67.049 53.7633 67.9226 53.1758 68.8264C50.7884 72.4941 48.706 75.8644 47.1282 78.2669C46.3449 79.4681 45.6972 80.4284 45.2453 81.0911L44.7144 81.8443C44.6584 81.9364 44.5928 82.0222 44.5186 82.1003C44.5681 82.0042 44.6235 81.9112 44.6842 81.8217C44.8047 81.6296 44.9742 81.3698 45.1813 81.046L47.0152 78.1878C48.5591 75.7703 50.6265 72.3849 53.0139 68.7134C53.6013 67.8096 54.1888 66.936 54.7574 66.0774L54.7837 66.0398H54.8289L63.8665 65.3695L66.5326 65.1887L67.2481 65.1511C67.3308 65.1453 67.4139 65.1453 67.4966 65.1511Z" fill="#263238"/>
<path d="M60.4922 67.5347C60.4852 67.5038 60.472 67.4747 60.4535 67.449C60.435 67.4233 60.4116 67.4016 60.3845 67.3851C60.3575 67.3686 60.3275 67.3577 60.2962 67.353C60.2649 67.3483 60.2329 67.3499 60.2023 67.3577C60.0821 67.3854 59.9724 67.4468 59.8859 67.5347C59.8306 67.5845 59.7946 67.6522 59.7843 67.7259C59.774 67.7996 59.79 67.8745 59.8295 67.9376C59.9462 68.0845 60.206 68.0318 60.3303 67.9075C60.387 67.8645 60.4317 67.8076 60.4601 67.7423C60.4885 67.677 60.4995 67.6055 60.4922 67.5347Z" fill="white"/>
<path d="M54.9939 76.2447C54.9939 76.2447 54.5308 75.115 55.7094 74.9945C57.1331 74.9198 58.5597 74.9198 59.9834 74.9945C59.9834 74.9945 61.6742 75.1715 61.3165 76.3841C61.3165 76.3841 62.3181 77.2803 61.7797 78.2443C61.2412 79.2083 61.0265 78.9221 61.0265 78.9221C61.0265 78.9221 61.1696 80.1008 60.2734 80.2778C60.2734 80.2778 59.3056 81.4075 58.4132 81.351C57.5207 81.2945 53.7362 79.4681 53.4877 79.0916C53.2391 78.715 52.8776 78.5343 53.0923 78.1351C53.0923 78.1351 52.6291 77.0882 53.6308 76.9301C53.6383 76.9376 53.7098 76.0715 54.9939 76.2447Z" fill="#FFBE9D"/>
<path d="M60.3633 76.6439C60.1016 76.6939 59.8349 76.7128 59.5688 76.7004C59.0755 76.7004 58.3977 76.7004 57.6483 76.7004C57.0035 76.7166 56.3584 76.6775 55.7203 76.5836C55.2119 76.4669 55.0123 76.1694 55.0349 76.1619C55.2515 76.3023 55.4931 76.3995 55.7466 76.4481C56.2136 76.5271 56.9027 76.4782 57.652 76.5045C58.4014 76.5309 59.0792 76.5347 59.5688 76.561C59.836 76.5563 60.1028 76.5841 60.3633 76.6439Z" fill="#EB996E"/>
<path d="M59.5205 78.4288C59.5205 78.4288 59.4339 78.4816 59.2644 78.5155C59.0169 78.5666 58.7634 78.5831 58.5113 78.5644C58.1479 78.5356 57.7883 78.47 57.4381 78.3686C57.0615 78.2594 56.6247 78.105 56.1804 77.9694C55.7685 77.8354 55.3428 77.7483 54.9113 77.7096C54.5376 77.741 54.1628 77.6652 53.8306 77.4912C53.7001 77.4032 53.6084 77.2683 53.5745 77.1146C53.5503 77.0011 53.5662 76.8826 53.6197 76.7795C53.7101 76.61 53.8381 76.6025 53.8343 76.61C53.8306 76.6176 53.744 76.6628 53.6875 76.8134C53.6526 76.917 53.6558 77.0297 53.6965 77.1311C53.7372 77.2326 53.8128 77.3162 53.9097 77.3669C54.2273 77.5086 54.5772 77.562 54.9226 77.5213C55.3695 77.5504 55.811 77.6352 56.2368 77.7736L57.4908 78.1878C57.8285 78.2951 58.175 78.372 58.5264 78.4176C58.857 78.4467 59.1893 78.4505 59.5205 78.4288Z" fill="#EB996E"/>
<path d="M58.2553 79.9387C57.9847 79.9232 57.7175 79.8713 57.4608 79.7843C56.975 79.6638 56.3122 79.4718 55.5779 79.2383C54.8436 79.0048 54.2072 78.76 53.7441 78.5718C53.4856 78.4878 53.2389 78.3714 53.0098 78.2253C53.0324 78.1726 54.1959 78.5793 55.6457 79.05C57.0955 79.5207 58.2704 79.886 58.2553 79.9387Z" fill="#EB996E"/>
<path d="M58.5606 81.3433C58.3369 81.363 58.1115 81.3374 57.8979 81.268C57.3789 81.143 56.8742 80.9651 56.3916 80.737C55.823 80.4772 55.3297 80.2136 54.9682 80.0253C54.7646 79.9385 54.5744 79.8231 54.4033 79.6826C55.1174 79.9124 55.8093 80.2061 56.4707 80.56C57.1537 80.856 57.8513 81.1174 58.5606 81.3433Z" fill="#EB996E"/>
<path d="M22.7977 60.3799C22.7977 60.3799 17.9551 62.3945 19.1564 68.8037C20.3576 75.2128 20.9827 77.3517 20.9827 77.3517L30.5287 72.3283L22.7977 60.3799Z" fill="#0079FC"/>
<path d="M30.3282 72.4338C30.2196 72.5209 30.1022 72.5967 29.978 72.6598C29.7483 72.7953 29.4094 72.9836 28.9914 73.2133C28.1555 73.6765 26.9919 74.2978 25.7002 74.9794C24.4086 75.661 23.2375 76.2635 22.3827 76.6928C21.9572 76.9074 21.6107 77.0694 21.3697 77.1899C21.2502 77.2568 21.124 77.3111 20.9932 77.3518C21.0999 77.2609 21.2175 77.1838 21.3434 77.1221C21.5731 76.9865 21.912 76.7982 22.33 76.5685C23.166 76.1091 24.3295 75.484 25.6212 74.8062C26.9128 74.1284 28.0839 73.5221 28.9349 73.0928L29.9517 72.592C30.0707 72.525 30.1971 72.4719 30.3282 72.4338Z" fill="#263238"/>
<path d="M30.3284 72.4339C30.1299 72.1552 29.9548 71.8604 29.805 71.5527L28.5924 69.3912C28.133 68.5779 27.715 67.8436 27.3724 67.2335C27.1879 66.9434 27.0327 66.6356 26.9092 66.3147C27.1307 66.5767 27.325 66.8606 27.4891 67.162C27.828 67.7005 28.2836 68.4536 28.7619 69.2971C29.2401 70.1406 29.6543 70.9163 29.9292 71.4887C30.0943 71.7893 30.2281 72.106 30.3284 72.4339Z" fill="#263238"/>
</svg>
