<svg width="170" height="160" viewBox="0 0 170 160" fill="none" xmlns="http://www.w3.org/2000/svg">
<path d="M67.4389 118.517H60.7021V159.819H67.4389V118.517Z" fill="#EBEBEB"/>
<path d="M152.754 118.615H146.018V159.921H152.754V118.615Z" fill="#EBEBEB"/>
<path d="M167.147 143.702H160.41V159.917H167.147V143.702Z" fill="#EBEBEB"/>
<path d="M11.1655 121.127H4.42871V159.819H11.1655V121.127Z" fill="#EBEBEB"/>
<path d="M25.2338 91.5251H18.4971V159.819H25.2338V91.5251Z" fill="#EBEBEB"/>
<path d="M39.3022 135.67H32.5654V159.823H39.3022V135.67Z" fill="#EBEBEB"/>
<path d="M53.3706 88.3809H46.6338V159.823H53.3706V88.3809Z" fill="#EBEBEB"/>
<path d="M81.5043 94.5566H74.7676V159.819H81.5043V94.5566Z" fill="#EBEBEB"/>
<path d="M95.5727 111.517H88.8359V159.823H95.5727V111.517Z" fill="#EBEBEB"/>
<path d="M109.641 87.8914H102.904V159.819H109.641V87.8914Z" fill="#EBEBEB"/>
<path d="M123.709 75.5701H116.973V159.819H123.709V75.5701Z" fill="#EBEBEB"/>
<path d="M137.774 100.137H131.037V159.823H137.774V100.137Z" fill="#EBEBEB"/>
<path d="M166.661 159.902C166.661 159.955 129.35 160 83.3341 160C37.3177 160 0 159.955 0 159.902C0 159.849 37.3026 159.804 83.3341 159.804C129.366 159.804 166.661 159.846 166.661 159.902Z" fill="#263238"/>
<path d="M138.444 137.858C132.796 135.467 126.293 130.763 123.382 124.998C129.634 127.587 134.907 132.088 138.444 137.858Z" fill="#263238"/>
<path d="M137.247 128.907C131.599 126.519 125.095 121.816 122.185 116.047C128.436 118.638 133.708 123.139 137.247 128.907Z" fill="#263238"/>
<path d="M135.616 120.204C129.968 117.813 123.465 113.11 120.554 107.345C126.628 109.785 131.982 114.36 135.616 120.204Z" fill="#263238"/>
<path d="M133.575 111.092C128.262 107.94 122.339 102.374 120.132 96.2625C126.035 99.7003 130.731 104.88 133.575 111.092Z" fill="#263238"/>
<path d="M131.391 104.121C127.52 99.0565 123.912 91.5214 123.957 84.9917C128.261 90.4993 130.847 97.1529 131.391 104.121Z" fill="#263238"/>
<path d="M132.472 107.435C133.255 100.589 135.917 91.9959 140.44 86.8445C139.676 94.2979 136.924 101.409 132.472 107.435Z" fill="#263238"/>
<path d="M134.295 114.925C135.673 107.864 139.156 99.1354 144.289 94.1836C142.883 101.87 139.431 109.035 134.295 114.925Z" fill="#263238"/>
<path d="M136.385 124.057C137.763 117 141.246 108.267 146.383 103.315C144.978 111.003 141.524 118.169 136.385 124.057Z" fill="#263238"/>
<path d="M138.064 135.271C139.443 128.21 142.926 119.481 148.059 114.53C146.653 122.216 143.201 129.382 138.064 135.271Z" fill="#263238"/>
<path d="M131.128 102.766C131.128 102.766 131.147 102.8 131.173 102.871C131.199 102.943 131.237 103.056 131.278 103.184L131.655 104.407C131.994 105.469 132.45 107.013 132.988 108.926C133.527 110.839 134.118 113.14 134.732 115.704C135.345 118.269 135.944 121.097 136.509 124.083C137.074 127.069 137.526 129.931 137.895 132.537C138.264 135.143 138.535 137.504 138.731 139.485C138.927 141.465 139.062 143.07 139.134 144.184C139.166 144.726 139.193 145.152 139.213 145.461C139.213 145.596 139.213 145.705 139.213 145.796C139.219 145.833 139.219 145.871 139.213 145.909C139.203 145.872 139.197 145.834 139.194 145.796C139.194 145.709 139.171 145.6 139.156 145.464C139.126 145.156 139.088 144.73 139.036 144.188C138.938 143.081 138.78 141.477 138.565 139.5C138.35 137.523 138.053 135.173 137.684 132.567C137.315 129.961 136.84 127.107 136.283 124.124C135.726 121.142 135.112 118.314 134.524 115.75C133.937 113.185 133.346 110.892 132.826 108.971C132.306 107.051 131.873 105.5 131.561 104.43C131.414 103.91 131.297 103.496 131.211 103.199C131.177 103.067 131.147 102.961 131.124 102.875C131.12 102.838 131.122 102.802 131.128 102.766Z" fill="#263238"/>
<path d="M141.186 141.586C138.798 136.585 137.062 129.536 138.233 124.064C140.905 129.492 141.931 135.582 141.186 141.586Z" fill="#455A64"/>
<path d="M145.159 135.109C142.772 130.108 141.036 123.078 142.207 117.587C144.879 123.015 145.905 129.106 145.159 135.109Z" fill="#455A64"/>
<path d="M148.721 128.523C146.333 123.522 144.597 116.492 145.768 111.001C148.44 116.429 149.467 122.519 148.721 128.523Z" fill="#455A64"/>
<path d="M152.242 121.421C150.464 116.13 149.572 108.911 151.387 103.632C153.389 109.353 153.686 115.534 152.242 121.421Z" fill="#455A64"/>
<path d="M154.501 115.607C154.678 109.958 156.335 102.92 159.829 98.7627C159.754 104.78 157.9 110.64 154.501 115.607Z" fill="#455A64"/>
<path d="M153.462 118.401C157.604 114.488 163.904 110.61 169.564 110.116C165.133 114.408 159.53 117.291 153.462 118.401Z" fill="#455A64"/>
<path d="M150.668 124.324C155.311 120.645 162.206 117.192 168.171 117.169C163.175 121.237 157.083 123.727 150.668 124.324Z" fill="#455A64"/>
<path d="M147.177 131.468C151.82 127.788 158.715 124.335 164.68 124.313C159.685 128.382 153.592 130.872 147.177 131.468Z" fill="#455A64"/>
<path d="M142.312 139.692C146.956 136.013 153.854 132.559 159.815 132.537C154.821 136.607 148.728 139.097 142.312 139.692Z" fill="#455A64"/>
<path d="M155.059 114.586C155.059 114.586 155.059 114.616 155.033 114.676L154.939 114.944C154.841 115.192 154.713 115.527 154.562 115.957C154.223 116.834 153.707 118.096 153.056 119.643C151.73 122.739 149.768 126.964 147.328 131.49C146.108 133.749 144.884 135.873 143.736 137.782C142.587 139.692 141.507 141.382 140.573 142.783C139.639 144.184 138.867 145.31 138.313 146.071C138.046 146.447 137.835 146.737 137.677 146.952L137.507 147.178C137.47 147.227 137.447 147.253 137.443 147.249L137.492 147.163L137.643 146.925L138.245 146.026C138.776 145.246 139.53 144.113 140.445 142.7C141.36 141.288 142.418 139.59 143.566 137.685C144.715 135.779 145.897 133.644 147.117 131.385C149.554 126.866 151.534 122.656 152.894 119.575C153.575 118.039 154.114 116.785 154.472 115.915C154.652 115.497 154.796 115.162 154.897 114.921C154.946 114.816 154.984 114.733 155.014 114.661C155.044 114.59 155.055 114.582 155.059 114.586Z" fill="#263238"/>
<path d="M152.561 142.188H128.834V146.764H131.27L133.326 159.804H147.994L150.102 146.764H152.561V142.188Z" fill="#FF725E"/>
<path d="M152.562 146.666C152.562 146.606 147.29 146.557 140.783 146.557C134.276 146.557 129.004 146.606 129.004 146.666C129.004 146.726 134.276 146.775 140.783 146.775C147.29 146.775 152.562 146.726 152.562 146.666Z" fill="#263238"/>
<path d="M148.777 0.0874023H38.1306C35.7285 0.0874023 33.7812 2.03467 33.7812 4.43674V78.899C33.7812 81.301 35.7285 83.2483 38.1306 83.2483H148.777C151.179 83.2483 153.126 81.301 153.126 78.899V4.43674C153.126 2.03467 151.179 0.0874023 148.777 0.0874023Z" fill="#E0E0E0"/>
<path d="M153.126 4.4367C153.126 4.4367 153.126 4.35009 153.108 4.18063C153.092 3.92648 153.053 3.67432 152.991 3.4275C152.753 2.44601 152.177 1.57958 151.364 0.97982C151.085 0.769086 150.782 0.593301 150.46 0.456393C150.098 0.308278 149.719 0.208263 149.331 0.158905C148.906 0.118026 148.48 0.104191 148.054 0.117482H146.668H139.984L97.3871 0.151373H67.9697H38.639C38.2756 0.139789 37.9119 0.154892 37.5507 0.196561C37.1925 0.244539 36.842 0.338188 36.5076 0.475221C35.8342 0.75536 35.2432 1.20248 34.7905 1.77438C34.3341 2.3489 34.0368 3.03325 33.9281 3.75888C33.8788 4.12446 33.8599 4.49351 33.8717 4.86222V5.99192C33.8717 7.49818 33.8717 9.01198 33.8717 10.5333V19.7893C33.8717 26.0152 33.8717 32.3641 33.8717 38.836V78.8914C33.8771 79.3105 33.9379 79.7271 34.0524 80.1303C34.2955 80.9365 34.7717 81.6527 35.421 82.1888C36.0703 82.7248 36.8637 83.0568 37.7013 83.1428C38.1156 83.173 38.5448 83.1617 38.9704 83.1617H108.673L142.451 83.1842H148.321C148.64 83.1926 148.96 83.1838 149.278 83.1579C149.589 83.1194 149.896 83.0487 150.193 82.947C150.781 82.7421 151.316 82.4116 151.763 81.9784C152.21 81.5453 152.557 81.02 152.78 80.4391C152.992 79.861 153.088 79.2468 153.062 78.6316C153.062 78.014 153.062 77.3964 153.062 76.7826C153.062 71.8772 153.062 67.1727 153.062 62.6689C153.062 44.6841 153.089 30.1298 153.096 20.0717C153.096 15.0446 153.096 11.1396 153.096 8.49232C153.096 11.1283 153.096 15.0446 153.115 20.0717C153.115 30.1298 153.134 44.6841 153.145 62.6689C153.145 67.1651 153.145 71.8697 153.145 76.7826V78.6316C153.17 79.2649 153.07 79.8969 152.852 80.4918C152.622 81.0954 152.263 81.6412 151.8 82.0908C151.337 82.5405 150.781 82.8829 150.17 83.0939C149.863 83.2025 149.545 83.2757 149.221 83.3123C148.898 83.3404 148.574 83.3517 148.25 83.3462H142.451H108.688H71.3701H38.9854C38.5561 83.3462 38.1381 83.3462 37.6976 83.3273C37.2647 83.2773 36.8404 83.1696 36.4361 83.0073C36.0299 82.8379 35.6496 82.6123 35.3064 82.337C34.9709 82.0561 34.6757 81.7305 34.429 81.3692C34.1892 81.0028 34.0017 80.6049 33.8717 80.1868C33.7495 79.7656 33.6849 79.3299 33.6796 78.8914C33.6796 65.1731 33.6796 51.7786 33.6796 38.836V19.7893C33.6796 16.6789 33.6796 13.6011 33.6796 10.5559V4.90741C33.6669 4.52992 33.6858 4.15204 33.7361 3.77771C33.8506 3.02119 34.1623 2.30816 34.6398 1.71036C35.1118 1.10605 35.7318 0.633895 36.4398 0.339657C36.7885 0.196166 37.1543 0.0986941 37.5281 0.0497004C37.8967 0.0066156 38.2681 -0.00848985 38.639 0.00451282H51.5816H67.9697H97.3871L139.984 0.0346374H146.668H148.065C148.494 0.022752 148.923 0.0378455 149.349 0.0798264C149.738 0.130862 150.118 0.233437 150.479 0.384844C150.802 0.526585 151.108 0.704724 151.39 0.915803C151.86 1.26787 152.253 1.71103 152.546 2.21872C152.756 2.59389 152.908 2.99901 152.995 3.41997C153.055 3.66694 153.092 3.91914 153.104 4.1731C153.123 4.35009 153.126 4.4367 153.126 4.4367Z" fill="#263238"/>
<path d="M42.2949 3.0207L42.2949 80.936H141.961V3.0207H42.2949Z" fill="white"/>
<path d="M147.128 44.5221C148.89 44.5221 150.318 43.0941 150.318 41.3326C150.318 39.5711 148.89 38.1431 147.128 38.1431C145.366 38.1431 143.938 39.5711 143.938 41.3326C143.938 43.0941 145.366 44.5221 147.128 44.5221Z" fill="#263238"/>
<path d="M37.2158 29.6064V53.733C37.2158 53.9867 37.4215 54.1924 37.6752 54.1924H38.0744C38.3281 54.1924 38.5338 53.9867 38.5338 53.733V29.6064C38.5338 29.3526 38.3281 29.147 38.0744 29.147H37.6752C37.4215 29.147 37.2158 29.3526 37.2158 29.6064Z" fill="#263238"/>
<path d="M51.63 2.74976H42.2949V80.9362H51.63V2.74976Z" fill="#FF725E"/>
<path d="M43.1879 36.7686H52.0373V44.541H43.1879C43.0695 44.5425 42.9519 44.5204 42.8421 44.4759C42.7322 44.4315 42.6323 44.3657 42.5482 44.2823C42.4641 44.1988 42.3974 44.0995 42.3521 43.99C42.3068 43.8806 42.2837 43.7632 42.2842 43.6447V37.6611C42.2842 37.5429 42.3076 37.4259 42.3532 37.3169C42.3987 37.2079 42.4655 37.109 42.5496 37.026C42.6336 36.943 42.7334 36.8775 42.8429 36.8333C42.9525 36.7891 43.0698 36.7671 43.1879 36.7686Z" fill="white"/>
<path d="M46.9648 13.9978C46.7409 13.9978 46.5193 13.9536 46.3125 13.8679C46.1058 13.7821 45.918 13.6564 45.7599 13.4979C45.6018 13.3395 45.4765 13.1514 45.3912 12.9445C45.3059 12.7375 45.2622 12.5158 45.2627 12.292C45.2622 12.0679 45.3058 11.846 45.3911 11.6389C45.4764 11.4317 45.6016 11.2434 45.7597 11.0846C45.9177 10.9259 46.1055 10.7998 46.3123 10.7136C46.519 10.6275 46.7408 10.5828 46.9648 10.5823C47.1904 10.5803 47.4141 10.6231 47.6231 10.7082C47.832 10.7933 48.022 10.9189 48.1821 11.0779C48.3421 11.2369 48.4691 11.4261 48.5555 11.6345C48.6419 11.8429 48.6862 12.0663 48.6857 12.292C48.6857 12.5172 48.6411 12.7403 48.5544 12.9482C48.4677 13.1562 48.3407 13.3449 48.1807 13.5035C48.0207 13.6621 47.8309 13.7875 47.6222 13.8723C47.4135 13.9571 47.1901 13.9998 46.9648 13.9978Z" fill="white"/>
<path d="M48.3804 20.1282C47.8743 20.2245 47.3582 20.2574 46.844 20.2261C46.3298 20.2574 45.8137 20.2245 45.3076 20.1282C45.8137 20.0318 46.3298 19.9989 46.844 20.0303C47.3582 19.9989 47.8743 20.0318 48.3804 20.1282Z" fill="white"/>
<path d="M48.652 28.7817C48.1472 28.8782 47.6324 28.9111 47.1194 28.8796C46.6052 28.9112 46.089 28.8783 45.583 28.7817C46.0888 28.6828 46.6052 28.6499 47.1194 28.6838C47.6324 28.65 48.1475 28.683 48.652 28.7817Z" fill="white"/>
<path d="M48.652 50.7995C48.1472 50.896 47.6324 50.9289 47.1194 50.8974C46.6052 50.929 46.089 50.8961 45.583 50.7995C46.089 50.7028 46.6052 50.67 47.1194 50.7016C47.6324 50.6701 48.1472 50.703 48.652 50.7995Z" fill="white"/>
<path d="M48.652 62.1379C48.1472 62.2344 47.6324 62.2673 47.1194 62.2358C46.6052 62.2674 46.089 62.2345 45.583 62.1379C46.089 62.0412 46.6052 62.0083 47.1194 62.04C47.6324 62.0085 48.1472 62.0413 48.652 62.1379Z" fill="white"/>
<path d="M48.652 40.7717C48.1472 40.8682 47.6324 40.9011 47.1194 40.8696C46.6052 40.9012 46.089 40.8683 45.583 40.7717C46.0888 40.6728 46.6052 40.6399 47.1194 40.6738C47.6324 40.64 48.1475 40.6729 48.652 40.7717Z" fill="#263238"/>
<path d="M141.961 80.9247C141.961 80.2507 141.931 49.9032 141.882 2.73829L141.961 2.82113H42.3027L42.4006 2.72323C42.4006 30.9243 42.4006 57.5852 42.4006 80.9097L42.314 80.8231L141.961 80.9247L42.2839 81.0227H42.1973V80.9247C42.1973 57.6002 42.1973 30.9393 42.1973 2.73829V2.64038H42.3027H141.961H142.044V2.71946C141.995 49.9145 141.961 80.262 141.961 80.9247Z" fill="#263238"/>
<path d="M111.629 67.1086H110.284V71.6048H111.629V67.1086Z" fill="#FF725E"/>
<path d="M100.415 66.4573H99.0703V71.6049H100.415V66.4573Z" fill="#FF725E"/>
<path d="M103.216 65.384H101.872V71.6049H103.216V65.384Z" fill="#FF725E"/>
<path d="M106.022 65.7266H104.678V71.6085H106.022V65.7266Z" fill="#FF725E"/>
<path d="M108.823 63.7346H107.479V71.6049H108.823V63.7346Z" fill="#FF725E"/>
<path d="M114.43 63.7722H113.086V71.6048H114.43V63.7722Z" fill="#FF725E"/>
<path d="M117.236 66.3442H115.892V71.6049H117.236V66.3442Z" fill="#FF725E"/>
<path d="M120.038 64.1187H118.693V71.6048H120.038V64.1187Z" fill="#FF725E"/>
<path d="M122.842 62.4316H121.498V71.6048H122.842V62.4316Z" fill="#FF725E"/>
<path d="M125.645 64.0811H124.301V71.6048H125.645V64.0811Z" fill="#FF725E"/>
<path d="M128.45 77.1816H95.4256C94.7028 77.1807 94.0099 76.8931 93.4988 76.382C92.9878 75.8709 92.7002 75.1781 92.6992 74.4553V54.7119C92.7002 53.9892 92.9878 53.2963 93.4988 52.7852C94.0099 52.2742 94.7028 51.9866 95.4256 51.9856H128.45C129.173 51.9866 129.866 52.2742 130.377 52.7852C130.888 53.2963 131.176 53.9892 131.177 54.7119V74.4553C131.176 75.1781 130.888 75.8709 130.377 76.382C129.866 76.8931 129.173 77.1807 128.45 77.1816ZM95.4256 52.253C94.774 52.254 94.1496 52.5135 93.6892 52.9745C93.2289 53.4355 92.9703 54.0604 92.9703 54.7119V74.4553C92.9703 75.1068 93.2289 75.7317 93.6892 76.1927C94.1496 76.6538 94.774 76.9133 95.4256 76.9143H128.45C129.102 76.9133 129.727 76.6539 130.188 76.193C130.649 75.732 130.908 75.1072 130.909 74.4553V54.7119C130.908 54.0601 130.649 53.4352 130.188 52.9743C129.727 52.5133 129.102 52.254 128.45 52.253H95.4256Z" fill="#E0E0E0"/>
<path d="M114.227 58.5492C114.227 58.5869 110.405 58.6208 105.694 58.6208C100.983 58.6208 97.1611 58.5869 97.1611 58.5492C97.1611 58.5116 100.98 58.4814 105.694 58.4814C110.409 58.4814 114.227 58.5116 114.227 58.5492Z" fill="#E0E0E0"/>
<path d="M59.1924 52.208V76.5944H62.1447H66.2078H85.1416V52.208H59.1924Z" fill="#F5F5F5"/>
<path d="M72.0517 54.9719C70.4683 54.9719 68.9205 55.4415 67.6039 56.3211C66.2874 57.2008 65.2612 58.4512 64.6553 59.914C64.0494 61.3769 63.8908 62.9866 64.1997 64.5396C64.5086 66.0926 65.2711 67.519 66.3907 68.6387C67.5104 69.7583 68.9369 70.5208 70.4898 70.8297C72.0428 71.1386 73.6525 70.9801 75.1154 70.3741C76.5783 69.7682 77.8286 68.7421 78.7083 67.4255C79.588 66.109 80.0575 64.5611 80.0575 62.9777C80.0575 60.8545 79.214 58.8181 77.7127 57.3168C76.2113 55.8154 74.175 54.9719 72.0517 54.9719ZM72.1722 67.7752C71.1998 67.7752 70.2493 67.4869 69.4407 66.9469C68.6321 66.4068 68.0018 65.6392 67.6293 64.741C67.2569 63.8428 67.159 62.8543 67.3482 61.9005C67.5373 60.9468 68.005 60.0704 68.692 59.3824C69.3791 58.6943 70.2547 58.2253 71.2081 58.0347C72.1616 57.8441 73.1502 57.9404 74.049 58.3115C74.9478 58.6825 75.7164 59.3117 76.2577 60.1195C76.799 60.9272 77.0887 61.8773 77.0902 62.8497C77.0911 63.4962 76.9647 64.1365 76.718 64.734C76.4713 65.3316 76.1092 65.8746 75.6524 66.3321C75.1956 66.7896 74.6531 67.1525 74.056 67.4001C73.4588 67.6477 72.8187 67.7752 72.1722 67.7752Z" fill="#263238"/>
<path d="M72.1758 54.9756V57.9542C72.948 57.9557 73.7091 58.1389 74.3975 58.489C75.0858 58.8391 75.6821 59.3462 76.1382 59.9695C76.5942 60.5927 76.8972 61.3145 77.0227 62.0765C77.1481 62.8385 77.0925 63.6193 76.8603 64.3559L79.7636 65.1429C80.0939 63.9627 80.149 62.7226 79.9246 61.5178C79.7002 60.313 79.2024 59.1758 78.4695 58.1937C77.7365 57.2115 76.7879 56.4107 75.6968 55.8528C74.6057 55.2949 73.4011 54.9948 72.1758 54.9756Z" fill="#FF725E"/>
<path d="M67.2541 62.8497C67.2539 61.8993 67.5291 60.9693 68.0463 60.172C68.5636 59.3747 69.3008 58.7444 70.1687 58.3573L68.9374 55.5933C67.4863 56.2051 66.2479 57.2313 65.3771 58.5435C64.5064 59.8556 64.042 61.3954 64.042 62.9702C64.042 63.0832 64.042 63.1961 64.042 63.3053H67.2654C67.254 63.1537 67.2503 63.0017 67.2541 62.8497Z" fill="#455A64"/>
<path d="M72.1724 67.7752C71.8228 67.7761 71.4743 67.7382 71.1331 67.6622C71.0088 68.3777 70.7565 69.7597 70.5908 70.848C71.0728 70.937 71.5618 70.9824 72.0519 70.9835C73.7993 70.9835 75.4988 70.4119 76.8912 69.3561C78.2835 68.3003 79.2924 66.818 79.764 65.1355L76.8607 64.356C76.5428 65.3494 75.9173 66.2161 75.0745 66.8307C74.2318 67.4453 73.2155 67.7761 72.1724 67.7752Z" fill="#FF725E"/>
<g opacity="0.3">
<path d="M72.1724 67.7752C71.8228 67.7761 71.4743 67.7382 71.1331 67.6622C71.0088 68.3777 70.7565 69.7597 70.5908 70.848C71.0728 70.937 71.5618 70.9824 72.0519 70.9835C73.7993 70.9835 75.4988 70.4119 76.8912 69.3561C78.2835 68.3003 79.2924 66.818 79.764 65.1355L76.8607 64.356C76.5428 65.3494 75.9173 66.2161 75.0745 66.8307C74.2318 67.4453 73.2155 67.7761 72.1724 67.7752Z" fill="black"/>
</g>
<path d="M71.1108 63.2564H70.8134V63.6329H70.4029V63.2564H69.4238V62.9702L70.2824 61.8179H70.723L69.9284 62.9099H70.418V62.571H70.7945V62.9099H71.092L71.1108 63.2564Z" fill="#263238"/>
<path d="M71.2344 62.7255C71.2344 62.1268 71.5658 61.7878 72.0139 61.7878C72.462 61.7878 72.7934 62.1268 72.7934 62.7255C72.7934 63.3242 72.4657 63.6669 72.0139 63.6669C71.562 63.6669 71.2344 63.328 71.2344 62.7255ZM72.3641 62.7255C72.3641 62.315 72.2172 62.1418 71.9875 62.1418C71.7578 62.1418 71.6335 62.315 71.6335 62.7255C71.6335 63.136 71.7804 63.3129 71.9875 63.3129C72.1946 63.3129 72.3716 63.1397 72.3716 62.7255H72.3641Z" fill="#263238"/>
<path d="M72.9675 62.2999C72.9606 62.2361 72.9673 62.1716 72.987 62.1105C73.0068 62.0495 73.0393 61.9933 73.0823 61.9456C73.1253 61.898 73.1779 61.86 73.2367 61.8341C73.2954 61.8082 73.3589 61.795 73.4231 61.7953C73.5244 61.7855 73.6264 61.8065 73.7155 61.8556C73.8047 61.9047 73.8769 61.9796 73.9227 62.0705C73.9685 62.1614 73.9857 62.264 73.9722 62.3649C73.9586 62.4658 73.9148 62.5602 73.8466 62.6357C73.7784 62.7113 73.6889 62.7644 73.5899 62.7882C73.491 62.812 73.3871 62.8053 73.292 62.7689C73.1969 62.7326 73.1151 62.6684 73.0571 62.5847C72.9992 62.501 72.968 62.4017 72.9675 62.2999ZM73.6114 62.2999C73.6114 62.1041 73.5361 62.01 73.4231 62.01C73.3102 62.01 73.2311 62.1079 73.2311 62.2999C73.2311 62.492 73.3102 62.5861 73.4231 62.5861C73.5361 62.5861 73.6114 62.492 73.6114 62.2999ZM74.5039 61.8179H74.8164L73.5738 63.6368H73.2612L74.5039 61.8179ZM74.2064 63.1548C74.2159 63.067 74.2506 62.9839 74.3064 62.9156C74.3622 62.8472 74.4367 62.7966 74.5207 62.7697C74.6048 62.7428 74.6948 62.741 74.7799 62.7643C74.865 62.7877 74.9415 62.8352 75.0001 62.9012C75.0587 62.9672 75.0969 63.0487 75.11 63.136C75.1231 63.2232 75.1106 63.3124 75.074 63.3927C75.0374 63.473 74.9783 63.5409 74.9038 63.5883C74.8293 63.6356 74.7427 63.6603 74.6545 63.6594C74.5908 63.6593 74.5278 63.6457 74.4697 63.6195C74.4115 63.5933 74.3596 63.5552 74.3173 63.5075C74.275 63.4599 74.2432 63.4038 74.2241 63.343C74.205 63.2822 74.199 63.2181 74.2064 63.1548ZM74.8465 63.1548C74.8465 62.9627 74.7712 62.8686 74.6545 62.8686C74.5378 62.8686 74.4662 62.9627 74.4662 63.1548C74.4662 63.3468 74.5453 63.4447 74.6545 63.4447C74.7637 63.4447 74.8465 63.3468 74.8465 63.1548Z" fill="#263238"/>
<path d="M78.6791 73.0171C78.6791 73.0585 75.7118 73.0924 72.0515 73.0924C68.3913 73.0924 65.4277 73.0585 65.4277 73.0171C65.4277 72.9756 68.3913 72.938 72.0515 72.938C75.7118 72.938 78.6791 72.9606 78.6791 73.0171Z" fill="#263238"/>
<path d="M75.7275 74.2219C75.7275 74.2633 74.0819 74.2972 72.0522 74.2972C70.0226 74.2972 68.377 74.2633 68.377 74.2219C68.377 74.1805 70.0226 74.1428 72.0522 74.1428C74.0819 74.1428 75.7275 74.1805 75.7275 74.2219Z" fill="#263238"/>
<path d="M136.452 16.4641H136.075H134.945H130.543L114.148 16.5319L58.5213 16.5658L58.6569 16.4679C58.6569 20.8398 58.6569 25.3737 58.6569 30.0243C58.6569 34.8067 58.6569 39.4723 58.6569 43.9798L58.5213 43.8819L113.76 43.9158L130.009 43.9459L134.373 43.9648H135.503H135.879C135.879 43.9648 135.751 43.9648 135.503 43.9648H134.373H130.009L113.76 43.9949L58.5213 44.0288H58.3857V43.9309C58.3857 39.4121 58.3857 34.7577 58.3857 29.9753C58.3857 25.336 58.3857 20.8022 58.3857 16.419V16.321H58.5213L114.148 16.3549L130.521 16.3851H134.923H136.053L136.452 16.4641Z" fill="#E0E0E0"/>
<path d="M136.452 21.0961C136.452 21.1488 119.006 21.194 97.4886 21.194C75.9716 21.194 58.5215 21.1488 58.5215 21.0961C58.5215 21.0433 75.964 20.9944 97.4886 20.9944C119.013 20.9944 136.452 21.0509 136.452 21.0961Z" fill="#E0E0E0"/>
<path d="M136.452 24.8844C136.452 24.9371 119.006 24.9823 97.4886 24.9823C75.9716 24.9823 58.5215 24.9371 58.5215 24.8844C58.5215 24.8317 75.964 24.7827 97.4886 24.7827C119.013 24.7827 136.452 24.8166 136.452 24.8844Z" fill="#E0E0E0"/>
<path d="M136.452 28.6724C136.452 28.7251 119.006 28.7703 97.4886 28.7703C75.9716 28.7703 58.5215 28.7251 58.5215 28.6724C58.5215 28.6197 75.964 28.582 97.4886 28.582C119.013 28.582 136.452 28.6159 136.452 28.6724Z" fill="#E0E0E0"/>
<path d="M136.452 32.4606C136.452 32.5133 119.006 32.5585 97.4886 32.5585C75.9716 32.5585 58.5215 32.5133 58.5215 32.4606C58.5215 32.4079 75.964 32.3477 97.4886 32.3477C119.013 32.3477 136.452 32.4041 136.452 32.4606Z" fill="#E0E0E0"/>
<path d="M136.452 36.2491C136.452 36.3019 119.006 36.347 97.4886 36.347C75.9716 36.347 58.5215 36.3019 58.5215 36.2491C58.5215 36.1964 75.964 36.1475 97.4886 36.1475C119.013 36.1475 136.452 36.1927 136.452 36.2491Z" fill="#E0E0E0"/>
<path d="M58.5215 40.0335C58.5215 39.9807 75.9678 39.9355 97.4848 39.9355C119.002 39.9355 136.452 39.9807 136.452 40.0335C136.452 40.0862 119.009 40.1351 97.4848 40.1351C75.9603 40.1351 58.5215 40.0899 58.5215 40.0335Z" fill="#E0E0E0"/>
<path d="M69.5667 44.3979C69.5102 44.3979 69.4688 38.1506 69.4688 30.4423C69.4688 22.734 69.5102 16.4792 69.5667 16.4792C69.6231 16.4792 69.6683 22.7303 69.6683 30.4423C69.6683 38.1544 69.6231 44.3979 69.5667 44.3979Z" fill="#E0E0E0"/>
<path d="M80.7921 44.3979C80.7356 44.3979 80.6904 38.1506 80.6904 30.4423C80.6904 22.734 80.7356 16.4792 80.7921 16.4792C80.8486 16.4792 80.89 22.7303 80.89 30.4423C80.89 38.1544 80.8448 44.3979 80.7921 44.3979Z" fill="#E0E0E0"/>
<path d="M92.0139 44.3979C91.9612 44.3979 91.916 38.1506 91.916 30.4423C91.916 22.734 91.9612 16.4792 92.0139 16.4792C92.0666 16.4792 92.1156 22.7303 92.1156 30.4423C92.1156 38.1544 92.0704 44.3979 92.0139 44.3979Z" fill="#E0E0E0"/>
<path d="M103.238 44.3979C103.182 44.3979 103.137 38.1506 103.137 30.4423C103.137 22.734 103.182 16.4792 103.238 16.4792C103.295 16.4792 103.336 22.7303 103.336 30.4423C103.336 38.1544 103.287 44.3979 103.238 44.3979Z" fill="#E0E0E0"/>
<path d="M114.461 44.3979C114.408 44.3979 114.363 38.1506 114.363 30.4423C114.363 22.734 114.408 16.4792 114.461 16.4792C114.514 16.4792 114.563 22.7303 114.563 30.4423C114.563 38.1544 114.518 44.3979 114.461 44.3979Z" fill="#E0E0E0"/>
<path d="M125.328 44.3979C125.272 44.3979 125.227 38.1506 125.227 30.4423C125.227 22.734 125.272 16.4792 125.328 16.4792C125.385 16.4792 125.426 22.7303 125.426 30.4423C125.426 38.1544 125.381 44.3979 125.328 44.3979Z" fill="#E0E0E0"/>
<path d="M136.55 44.3979C136.497 44.3979 136.452 38.1506 136.452 30.4423C136.452 22.734 136.497 16.4792 136.55 16.4792C136.603 16.4792 136.652 22.7303 136.652 30.4423C136.652 38.1544 136.607 44.3979 136.55 44.3979Z" fill="#E0E0E0"/>
<path d="M70.2516 40.0336C70.2523 40.1693 70.2127 40.3022 70.1379 40.4154C70.063 40.5286 69.9563 40.617 69.8311 40.6695C69.7059 40.7219 69.568 40.7361 69.4348 40.71C69.3016 40.684 69.1792 40.619 69.0829 40.5234C68.9867 40.4277 68.9211 40.3055 68.8943 40.1725C68.8676 40.0395 68.8809 39.9015 68.9327 39.776C68.9844 39.6506 69.0723 39.5433 69.1851 39.4678C69.2978 39.3923 69.4305 39.3521 69.5662 39.3521C69.7473 39.352 69.9211 39.4237 70.0495 39.5515C70.1779 39.6792 70.2506 39.8525 70.2516 40.0336Z" fill="#FF725E"/>
<path d="M81.4732 32.4608C81.4732 32.5965 81.4329 32.7291 81.3575 32.8419C81.282 32.9547 81.1747 33.0425 81.0493 33.0943C80.9238 33.146 80.7858 33.1594 80.6528 33.1326C80.5197 33.1059 80.3976 33.0402 80.3019 32.944C80.2062 32.8478 80.1413 32.7253 80.1153 32.5921C80.0892 32.4589 80.1033 32.321 80.1558 32.1959C80.2082 32.0707 80.2967 31.9639 80.4099 31.8891C80.5231 31.8142 80.6559 31.7747 80.7917 31.7754C80.8815 31.7754 80.9704 31.7932 81.0534 31.8276C81.1363 31.8621 81.2116 31.9127 81.2749 31.9764C81.3383 32.0401 81.3884 32.1156 81.4224 32.1988C81.4565 32.2819 81.4737 32.3709 81.4732 32.4608Z" fill="#FF725E"/>
<path d="M92.6988 36.1813C92.6996 36.317 92.66 36.4499 92.5852 36.5631C92.5103 36.6763 92.4035 36.7648 92.2784 36.8172C92.1532 36.8697 92.0153 36.8838 91.8821 36.8577C91.7489 36.8317 91.6264 36.7668 91.5302 36.6711C91.434 36.5754 91.3683 36.4532 91.3416 36.3202C91.3148 36.1872 91.3282 36.0492 91.3799 35.9237C91.4317 35.7983 91.5195 35.691 91.6323 35.6155C91.7451 35.5401 91.8778 35.4998 92.0135 35.4998C92.1943 35.5007 92.3675 35.5727 92.4957 35.7002C92.6239 35.8277 92.6968 36.0005 92.6988 36.1813Z" fill="#FF725E"/>
<path d="M103.853 28.2055C103.986 28.3383 104.06 28.5185 104.06 28.7063C104.06 28.8942 103.986 29.0743 103.853 29.2072C103.72 29.34 103.54 29.4146 103.352 29.4146C103.164 29.4146 102.984 29.34 102.851 29.2072C102.718 29.0743 102.644 28.8942 102.644 28.7063C102.644 28.5185 102.718 28.3383 102.851 28.2055C102.984 28.0727 103.164 27.998 103.352 27.998C103.54 27.998 103.72 28.0727 103.853 28.2055Z" fill="#FF725E"/>
<path d="M115.206 28.2055C115.272 28.2713 115.324 28.3493 115.36 28.4353C115.395 28.5212 115.414 28.6133 115.414 28.7063C115.414 28.7993 115.395 28.8914 115.36 28.9774C115.324 29.0633 115.272 29.1414 115.206 29.2072C115.14 29.2729 115.062 29.3251 114.976 29.3607C114.89 29.3963 114.798 29.4146 114.705 29.4146C114.612 29.4146 114.52 29.3963 114.434 29.3607C114.348 29.3251 114.27 29.2729 114.205 29.2072C114.072 29.0743 113.997 28.8942 113.997 28.7063C113.997 28.5185 114.072 28.3383 114.205 28.2055C114.337 28.0727 114.518 27.998 114.705 27.998C114.893 27.998 115.073 28.0727 115.206 28.2055Z" fill="#FF725E"/>
<path d="M125.825 35.6391C125.958 35.7719 126.033 35.9521 126.033 36.1399C126.033 36.3278 125.958 36.5079 125.825 36.6408C125.693 36.7736 125.512 36.8482 125.324 36.8482C125.137 36.8482 124.956 36.7736 124.824 36.6408C124.691 36.5079 124.616 36.3278 124.616 36.1399C124.616 35.9521 124.691 35.7719 124.824 35.6391C124.956 35.5063 125.137 35.4316 125.324 35.4316C125.512 35.4316 125.693 35.5063 125.825 35.6391Z" fill="#FF725E"/>
<path d="M81.4732 24.8843C81.4732 25.02 81.4329 25.1527 81.3575 25.2655C81.282 25.3783 81.1747 25.4661 81.0493 25.5179C80.9238 25.5696 80.7858 25.583 80.6528 25.5562C80.5197 25.5295 80.3976 25.4638 80.3019 25.3676C80.2062 25.2714 80.1413 25.1489 80.1153 25.0157C80.0892 24.8825 80.1033 24.7446 80.1558 24.6194C80.2082 24.4943 80.2967 24.3875 80.4099 24.3127C80.5231 24.2378 80.6559 24.1982 80.7917 24.199C80.8815 24.199 80.9704 24.2167 81.0534 24.2512C81.1363 24.2857 81.2116 24.3363 81.2749 24.3999C81.3383 24.4636 81.3884 24.5392 81.4224 24.6223C81.4565 24.7055 81.4737 24.7945 81.4732 24.8843Z" fill="#455A64"/>
<path d="M70.2516 36.2491C70.2516 36.3846 70.2114 36.5171 70.1361 36.6298C70.0607 36.7425 69.9537 36.8304 69.8285 36.8823C69.7032 36.9341 69.5654 36.9477 69.4325 36.9213C69.2996 36.8948 69.1774 36.8295 69.0816 36.7337C68.9857 36.6378 68.9205 36.5157 68.894 36.3828C68.8676 36.2498 68.8812 36.112 68.933 35.9868C68.9849 35.8616 69.0727 35.7545 69.1854 35.6792C69.2982 35.6039 69.4307 35.5637 69.5662 35.5637C69.748 35.5637 69.9223 35.6359 70.0508 35.7645C70.1794 35.893 70.2516 36.0673 70.2516 36.2491Z" fill="#455A64"/>
<path d="M125.829 39.5365C125.95 39.6715 126.014 39.8478 126.009 40.029C126.004 40.2102 125.93 40.3825 125.801 40.5105C125.673 40.6384 125.5 40.7122 125.319 40.7167C125.138 40.7211 124.962 40.6559 124.827 40.5344C124.706 40.3994 124.642 40.2231 124.647 40.0419C124.652 39.8607 124.726 39.6884 124.855 39.5604C124.983 39.4325 125.156 39.3587 125.337 39.3542C125.518 39.3498 125.694 39.415 125.829 39.5365Z" fill="#455A64"/>
<path d="M115.146 32.4608C115.146 32.5963 115.106 32.7288 115.031 32.8415C114.955 32.9542 114.848 33.0421 114.723 33.0939C114.598 33.1458 114.46 33.1594 114.327 33.1329C114.194 33.1065 114.072 33.0412 113.976 32.9454C113.88 32.8495 113.815 32.7274 113.789 32.5945C113.762 32.4615 113.776 32.3237 113.828 32.1985C113.879 32.0732 113.967 31.9662 114.08 31.8909C114.193 31.8156 114.325 31.7754 114.461 31.7754C114.551 31.7749 114.64 31.7923 114.724 31.8266C114.807 31.8608 114.883 31.9113 114.946 31.975C115.01 32.0388 115.061 32.1145 115.095 32.1979C115.129 32.2813 115.147 32.3706 115.146 32.4608Z" fill="#455A64"/>
<path d="M104.042 32.3478C104.042 32.4836 104.003 32.6164 103.928 32.7296C103.853 32.8428 103.746 32.9313 103.621 32.9837C103.496 33.0362 103.358 33.0503 103.225 33.0242C103.092 32.9982 102.969 32.9333 102.873 32.8376C102.777 32.7419 102.711 32.6198 102.684 32.4867C102.658 32.3537 102.671 32.2157 102.723 32.0902C102.774 31.9648 102.862 31.8575 102.975 31.782C103.088 31.7066 103.221 31.6663 103.356 31.6663C103.537 31.6672 103.71 31.7392 103.838 31.8667C103.967 31.9943 104.04 32.167 104.042 32.3478Z" fill="#455A64"/>
<path d="M64.8783 47.1017C64.1637 47.232 63.4314 47.232 62.7168 47.1017C63.4309 46.9661 64.1642 46.9661 64.8783 47.1017Z" fill="#E0E0E0"/>
<path d="M76.3519 47.1017C75.6373 47.232 74.905 47.232 74.1904 47.1017C74.9046 46.9661 75.6378 46.9661 76.3519 47.1017Z" fill="#E0E0E0"/>
<path d="M87.8228 47.1016C87.1094 47.2321 86.3784 47.2321 85.665 47.1016C86.3779 46.9661 87.1099 46.9661 87.8228 47.1016Z" fill="#E0E0E0"/>
<path d="M99.2963 47.1017C98.5816 47.232 97.8494 47.232 97.1348 47.1017C97.8489 46.9661 98.5821 46.9661 99.2963 47.1017Z" fill="#E0E0E0"/>
<path d="M110.767 47.1017C110.052 47.232 109.32 47.232 108.605 47.1017C109.32 46.9661 110.053 46.9661 110.767 47.1017Z" fill="#E0E0E0"/>
<path d="M121.028 47.1017C120.313 47.232 119.581 47.232 118.866 47.1017C119.58 46.9661 120.314 46.9661 121.028 47.1017Z" fill="#E0E0E0"/>
<path d="M131.286 47.1017C130.571 47.232 129.839 47.232 129.124 47.1017C129.838 46.9661 130.571 46.9661 131.286 47.1017Z" fill="#E0E0E0"/>
<path d="M56.8988 43.8141C56.6193 43.9094 56.3225 43.9428 56.0289 43.912C55.734 43.9427 55.436 43.9093 55.1553 43.8141C55.435 43.7146 55.7338 43.6798 56.0289 43.7125C56.3228 43.6796 56.6204 43.7144 56.8988 43.8141Z" fill="#E0E0E0"/>
<path d="M56.8988 39.4084C56.6193 39.5037 56.3225 39.5371 56.0289 39.5063C55.734 39.5369 55.436 39.5035 55.1553 39.4084C55.435 39.3088 55.7338 39.274 56.0289 39.3067C56.3228 39.2738 56.6204 39.3086 56.8988 39.4084Z" fill="#E0E0E0"/>
<path d="M56.8988 35.0026C56.6193 35.0979 56.3225 35.1313 56.0289 35.1005C55.734 35.1311 55.436 35.0977 55.1553 35.0026C55.435 34.903 55.7338 34.8683 56.0289 34.9009C56.3228 34.8681 56.6204 34.9028 56.8988 35.0026Z" fill="#E0E0E0"/>
<path d="M56.8988 30.5966C56.6193 30.6919 56.3225 30.7253 56.0289 30.6945C55.734 30.7251 55.436 30.6917 55.1553 30.5966C55.435 30.497 55.7338 30.4623 56.0289 30.4949C56.3228 30.4621 56.6204 30.4968 56.8988 30.5966Z" fill="#E0E0E0"/>
<path d="M56.8988 26.1908C56.6193 26.2861 56.3225 26.3195 56.0289 26.2888C55.734 26.3194 55.436 26.286 55.1553 26.1908C55.435 26.0913 55.7338 26.0565 56.0289 26.0892C56.3228 26.0563 56.6204 26.0911 56.8988 26.1908Z" fill="#E0E0E0"/>
<path d="M56.8988 21.8039C56.6193 21.8992 56.3225 21.9326 56.0289 21.9018C55.734 21.9324 55.436 21.899 55.1553 21.8039C55.435 21.7043 55.7338 21.6695 56.0289 21.7022C56.3228 21.6693 56.6204 21.7041 56.8988 21.8039Z" fill="#E0E0E0"/>
<path d="M56.8988 17.3793C56.6193 17.4745 56.3225 17.508 56.0289 17.4772C55.734 17.5078 55.436 17.4744 55.1553 17.3793C55.4356 17.2822 55.7343 17.2501 56.0289 17.2851C56.3223 17.2498 56.6198 17.282 56.8988 17.3793Z" fill="#E0E0E0"/>
<path d="M58.4465 44.1418L58.3223 43.7878L69.4799 39.8677L80.7618 32.2498L91.9873 35.974L103.296 28.5143L114.623 28.4841L114.672 28.518L125.43 36.1171L135.857 29.2297L136.064 29.546L125.423 36.5765L125.317 36.5012L114.502 28.8607L103.409 28.8908L92.0438 36.3883L80.8183 32.6678L69.6305 40.2142L58.4465 44.1418Z" fill="#FF725E"/>
<path d="M125.49 40.1164L114.506 32.6491H103.182L91.8514 25.1705L80.8669 25.0726L69.6453 36.4336H58.5215V36.057H69.4871L80.7125 24.6923L91.9681 24.7939L103.295 32.2725H114.619L125.366 39.5742L136.094 20.7195L136.422 20.904L125.49 40.1164Z" fill="#455A64"/>
<path d="M136.335 10.9551C136.335 11.0116 132.103 11.053 126.883 11.053C121.664 11.053 117.432 11.0116 117.432 10.9551C117.432 10.8986 121.664 10.8572 126.883 10.8572C132.103 10.8572 136.335 10.9024 136.335 10.9551Z" fill="#263238"/>
<path d="M59.0789 10.5521H58.3936V10.1492H60.2764V10.5521H59.591V12.2918H59.0789V10.5521Z" fill="#263238"/>
<path d="M61.8918 12.2918L61.4888 11.6931H61.0294V12.2918H60.5361V10.1492H61.4625C62.0349 10.1492 62.3926 10.4467 62.3926 10.9249C62.3988 11.0697 62.3597 11.2128 62.2807 11.3342C62.2017 11.4557 62.0868 11.5496 61.952 11.6027L62.434 12.2918H61.8918ZM61.4286 10.5521H61.0219V11.3052H61.4286C61.7298 11.3052 61.8842 11.1659 61.8842 10.9287C61.8842 10.6914 61.7298 10.5521 61.4286 10.5521Z" fill="#263238"/>
<path d="M64.437 11.8927V12.2918H62.7764V10.1492H64.3956V10.5257H63.2659V10.9927H64.26V11.3692H63.2659V11.8663L64.437 11.8927Z" fill="#263238"/>
<path d="M66.7984 10.1492V12.2918H66.3842L65.3147 10.9889V12.2918H64.8252V10.1492H65.2545L66.3239 11.4483V10.1492H66.7984Z" fill="#263238"/>
<path d="M67.3033 10.1492H68.2673C68.4172 10.1338 68.5687 10.15 68.712 10.1968C68.8553 10.2436 68.9871 10.32 69.099 10.421C69.2109 10.522 69.3003 10.6453 69.3616 10.783C69.4228 10.9208 69.4544 11.0698 69.4544 11.2205C69.4544 11.3713 69.4228 11.5203 69.3616 11.658C69.3003 11.7958 69.2109 11.9191 69.099 12.0201C68.9871 12.1211 68.8553 12.1974 68.712 12.2442C68.5687 12.2911 68.4172 12.3073 68.2673 12.2919H67.292L67.3033 10.1492ZM68.2673 11.8852C68.3588 11.8921 68.4507 11.88 68.5373 11.8497C68.6239 11.8194 68.7034 11.7716 68.7706 11.7092C68.8379 11.6468 68.8915 11.5712 68.9282 11.4871C68.9649 11.403 68.9839 11.3123 68.9839 11.2205C68.9839 11.1288 68.9649 11.038 68.9282 10.9539C68.8915 10.8698 68.8379 10.7942 68.7706 10.7319C68.7034 10.6695 68.6239 10.6216 68.5373 10.5914C68.4507 10.5611 68.3588 10.549 68.2673 10.5559H67.8154V11.8852H68.2673Z" fill="#263238"/>
<path d="M40.4879 61.1326L39.1662 62.7858V59.9389H34.9938C34.9938 59.9389 34.5306 66.461 34.6172 67.8468C34.7038 69.2326 36.2741 73.2091 36.2741 73.2091C37.8877 72.2509 39.312 71.0053 40.4766 69.5338C42.3293 67.1539 45.4096 61.3473 45.4096 61.3473L42.1975 59.408L40.4879 61.1326Z" fill="#FFBE9D"/>
<path d="M40.751 60.8276C40.5956 61.0878 40.4139 61.3313 40.2088 61.5544C39.8548 61.9912 39.369 62.5899 38.8117 63.2414C38.2544 63.8929 37.7272 64.4615 37.3055 64.8493C37.0995 65.077 36.8594 65.2714 36.5938 65.4255C36.7822 65.1889 36.986 64.965 37.2038 64.7552C37.5804 64.3447 38.0887 63.7611 38.646 63.1134C39.7644 61.8104 40.7059 60.7824 40.751 60.8276Z" fill="#EB996E"/>
<path d="M40.6269 50.472C40.6269 50.472 39.4408 40.7378 34.7412 39.7437L32.3086 49.0976L34.3308 55.8456L41.0374 54.9419L40.6269 50.472Z" fill="#FF725E"/>
<path d="M9.59473 56.9377L9.8169 57.6343L14.4185 72.0982C14.4185 72.0982 25.8097 76.4061 29.8992 74.7116C33.9887 73.017 35.879 70.5694 35.879 70.5694L34.9678 39.7813L28.4795 38.7985L17.2917 37.9775L9.79807 40.3838L9.59473 56.9377Z" fill="#FF725E"/>
<g opacity="0.3">
<path d="M23.716 62.5748C19.4433 60.7382 15.4582 58.2942 11.8842 55.3184L9.59473 56.5384C11.3156 60.0141 12.7504 63.1848 15.1227 66.2538C15.9435 67.3532 17.0308 68.2254 18.2821 68.7881C19.1818 69.1059 20.1508 69.1735 21.0858 68.9839C22.0209 68.7942 22.887 68.3543 23.5917 67.7112C24.9549 66.4421 25.9791 62.7141 25.531 59.6752C24.7666 59.7204 24.4239 62.8685 23.716 62.5748Z" fill="black"/>
</g>
<path d="M35.6079 53.6803C35.4682 52.6332 35.2157 51.6042 34.8547 50.6113C34.4273 49.6443 33.8944 48.7274 33.2656 47.8774C33.5127 48.0731 33.7297 48.304 33.9096 48.5628C34.3712 49.168 34.751 49.8315 35.0393 50.536C35.3268 51.2412 35.5168 51.9823 35.6041 52.7389C35.6514 53.0508 35.6527 53.368 35.6079 53.6803Z" fill="#263238"/>
<path d="M35.5892 30.6985C35.2888 30.7357 34.9841 30.6906 34.7075 30.5678C34.4308 30.4451 34.1928 30.2495 34.0189 30.0018C34.418 30.1032 34.8386 30.0795 35.2239 29.9341C35.6005 29.7495 35.7963 29.2111 35.5101 28.9173C35.2879 28.6876 34.9189 28.7291 34.6026 28.7065C34.2308 28.6728 33.8763 28.5343 33.5803 28.307C33.2843 28.0796 33.059 27.7728 32.9306 27.4224C32.6595 26.6466 32.9042 25.8031 33.0022 24.9897C33.1302 23.8002 32.9376 22.5981 32.4443 21.5082C31.951 20.4183 31.175 19.4802 30.1967 18.7915L25.0943 15.8542C23.2453 18.2191 22.6692 21.4124 23.0533 24.391C23.4374 27.3696 24.6989 30.1751 26.2202 32.7658C26.6369 33.538 27.1548 34.251 27.7604 34.8859C28.3701 35.5233 29.1765 35.9371 30.0499 36.0608C30.1622 35.7007 30.1867 35.3189 30.1212 34.9475C30.0556 34.576 29.9021 34.2256 29.6733 33.9257C30.3649 33.966 31.0575 33.8663 31.7097 33.6327C32.3619 33.3992 32.9603 33.0364 33.4691 32.5663L32.3733 31.7303C32.9522 31.8041 33.5402 31.7499 34.0958 31.5716C34.6515 31.3934 35.1613 31.0953 35.5892 30.6985Z" fill="#263238"/>
<path d="M15.9436 22.38C15.9601 21.3543 16.3062 20.3611 16.9308 19.5473C17.5554 18.7336 18.4253 18.1424 19.4118 17.8612L25.8134 16.0348C28.5887 15.6583 30.5469 19.0248 30.8067 21.8151C31.1004 24.9143 31.3188 28.1866 31.0213 30.5138C30.4264 35.1945 26.8791 35.8987 26.8791 35.8987C26.8791 35.8987 26.9431 38.1129 26.9808 39.4761L25.9377 45.5727L17.4913 38.3728L15.9248 22.4365C15.9248 22.3574 15.9248 22.4854 15.9436 22.38Z" fill="#FFBE9D"/>
<path d="M29.9933 25.3888C29.9996 25.5445 29.9449 25.6966 29.8408 25.8126C29.7367 25.9286 29.5915 25.9995 29.436 26.0101C29.3601 26.019 29.2832 26.0124 29.2099 25.9909C29.1366 25.9693 29.0683 25.9332 29.0093 25.8847C28.9502 25.8362 28.9016 25.7763 28.8662 25.7086C28.8308 25.6408 28.8094 25.5667 28.8034 25.4905C28.7961 25.3351 28.85 25.1831 28.9535 25.0669C29.0569 24.9508 29.2018 24.8798 29.3569 24.8691C29.433 24.8608 29.5099 24.8677 29.5832 24.8894C29.6565 24.9111 29.7248 24.9472 29.784 24.9956C29.8433 25.044 29.8923 25.1037 29.9282 25.1712C29.9642 25.2387 29.9863 25.3127 29.9933 25.3888Z" fill="#263238"/>
<path d="M30.1553 23.6867C30.08 23.7658 29.6205 23.4457 28.9766 23.4683C28.3327 23.4909 27.8733 23.8449 27.8017 23.7469C27.7302 23.649 27.8356 23.57 28.0352 23.4156C28.3088 23.215 28.6374 23.1033 28.9766 23.0955C29.3103 23.0821 29.6393 23.1772 29.9143 23.3666C30.1176 23.5022 30.1892 23.6377 30.1553 23.6867Z" fill="#263238"/>
<path d="M24.3634 25.3965C24.3697 25.5522 24.315 25.7042 24.2109 25.8202C24.1068 25.9363 23.9616 26.0071 23.8061 26.0178C23.7302 26.0266 23.6533 26.0201 23.58 25.9985C23.5067 25.977 23.4384 25.9409 23.3794 25.8924C23.3203 25.8439 23.2717 25.784 23.2363 25.7162C23.2009 25.6485 23.1796 25.5743 23.1735 25.4981C23.1663 25.3422 23.2207 25.1896 23.3249 25.0734C23.4292 24.9571 23.575 24.8865 23.7308 24.8768C23.8065 24.869 23.8831 24.8763 23.9559 24.8983C24.0288 24.9202 24.0967 24.9564 24.1555 25.0047C24.2143 25.053 24.263 25.1125 24.2987 25.1798C24.3344 25.247 24.3564 25.3207 24.3634 25.3965Z" fill="#263238"/>
<path d="M24.0468 23.8487C23.9753 23.9316 23.5121 23.6077 22.8682 23.6303C22.2243 23.6529 21.7648 24.0069 21.6933 23.9128C21.6217 23.8186 21.7272 23.7358 21.9305 23.5776C22.2028 23.3771 22.5302 23.2654 22.8682 23.2575C23.2028 23.246 23.5324 23.3409 23.8096 23.5287C24.0092 23.6868 24.0845 23.8149 24.0468 23.8487Z" fill="#263238"/>
<path d="M26.2012 28.8419C26.5372 28.7254 26.8863 28.6508 27.2405 28.6197C27.4024 28.6197 27.5568 28.5632 27.5832 28.4502C27.5903 28.2796 27.5471 28.1107 27.4589 27.9645C27.2895 27.5879 27.1162 27.1624 26.9355 26.7293C26.2049 24.9708 25.6702 23.5247 25.7418 23.4946C25.8133 23.4645 26.461 24.8691 27.1916 26.6276L27.6962 27.8703C27.8051 28.0648 27.8424 28.2913 27.8016 28.5105C27.7796 28.5693 27.7444 28.6223 27.6987 28.6654C27.653 28.7085 27.598 28.7405 27.538 28.759C27.4478 28.788 27.354 28.8045 27.2593 28.808C26.9096 28.8657 26.5539 28.8771 26.2012 28.8419Z" fill="#263238"/>
<path d="M20.6387 34.4302C20.6387 34.4302 22.2466 37.5896 26.8934 37.0097L26.8633 35.9138C24.691 36.0063 22.5357 35.4926 20.6387 34.4302Z" fill="#EB996E"/>
<path d="M23.7796 21.5328C23.7231 21.7098 23.0754 21.6458 22.326 21.7588C21.5767 21.8718 20.9704 22.0977 20.865 21.9433C20.8198 21.8718 20.9214 21.7023 21.1587 21.5253C21.4809 21.3067 21.8497 21.1662 22.2357 21.1149C22.6147 21.059 23.0016 21.0926 23.3654 21.2128C23.6591 21.3144 23.8059 21.45 23.7796 21.5328Z" fill="#263238"/>
<path d="M29.8874 21.7136C29.7782 21.8642 29.3301 21.7136 28.7991 21.7362C28.2681 21.7588 27.8163 21.8642 27.7108 21.7136C27.6619 21.6421 27.7108 21.4952 27.9217 21.337C28.1812 21.1628 28.4866 21.0698 28.7991 21.0698C29.1116 21.0698 29.417 21.1628 29.6765 21.337C29.8572 21.4952 29.9363 21.6421 29.8874 21.7136Z" fill="#263238"/>
<path d="M23.7908 30.0885C23.8322 29.8967 23.9398 29.7255 24.0947 29.6051C24.2496 29.4846 24.4419 29.4224 24.6381 29.4295C24.7847 29.442 24.9258 29.4914 25.0482 29.573C25.1707 29.6547 25.2705 29.7659 25.3385 29.8964C25.4039 30.0247 25.4429 30.1647 25.4533 30.3083C25.4636 30.4519 25.4451 30.5961 25.3987 30.7324V30.7927C25.2696 30.9418 25.0972 31.0469 24.9055 31.0935C24.7138 31.14 24.5124 31.1257 24.3293 31.0525C24.1439 30.9761 23.9899 30.8393 23.8921 30.6643C23.7944 30.4893 23.7587 30.2864 23.7908 30.0885Z" fill="#EB996E"/>
<path d="M25.8437 30.7926C25.8437 30.6985 25.1923 30.7474 24.6877 30.2278C24.1831 29.7081 24.2019 29.0115 24.1115 29.0115C24.0211 29.0115 23.9948 29.1772 24.0098 29.4709C24.0368 29.8515 24.1952 30.2109 24.458 30.4876C24.7116 30.7506 25.0569 30.9058 25.422 30.9207C25.7157 30.9244 25.8512 30.8416 25.8437 30.7926Z" fill="#263238"/>
<path d="M18.0938 14.958C18.9929 13.6789 20.3233 12.7671 21.8406 12.3898C23.3468 12.1262 24.2732 12.3898 25.2711 13.2973C25.6973 13.7067 26.213 14.011 26.7774 14.186C27.5041 14.3291 28.1142 14.2086 28.9803 14.653C30.1665 15.2593 30.6861 16.8408 31.2397 18.0421C31.9213 19.5483 32.8928 20.9379 33.3371 22.5308C33.7815 24.1236 33.548 26.0818 32.2075 27.0495C32.4635 25.6901 32.6744 24.1763 31.9288 23.0128C31.3602 22.1241 30.3434 21.6308 29.6129 20.8701C28.7317 19.9513 28.6188 18.7199 27.6924 17.8576C25.5837 15.858 21.8745 19.3638 18.105 14.9618" fill="#263238"/>
<path d="M31.4841 21.3295C30.9965 19.9721 30.2962 18.701 29.4092 17.5638C28.2297 16.1916 26.5837 15.3048 24.7889 15.0746C22.9941 14.8444 21.1777 15.2872 19.69 16.3174L19.3135 16.3475C19.8898 17.0675 20.6204 17.649 21.4513 18.0492C22.2823 18.4493 23.1924 18.6579 24.1147 18.6596C25.2105 18.6596 26.3967 18.3734 27.3381 18.9383C28.2795 19.5031 28.5808 20.6178 29.3264 21.3634C29.831 21.868 30.5088 22.1805 31.0021 22.7039C31.4829 23.2952 31.8356 23.98 32.0376 24.7148C32.3615 23.5926 31.9322 22.4064 31.4841 21.3295Z" fill="#263238"/>
<path d="M21.6858 17.2286L18.6997 14.5926C16.3725 14.4721 14.8775 16.6713 14.0792 18.3583C13.4842 19.6198 13.2997 21.0319 12.8516 22.3537C12.4035 23.6754 11.6579 24.967 11.2399 26.334C10.8219 27.7009 10.7654 29.2976 11.5901 30.4762L12.1098 29.5197C12.1968 30.8578 12.7467 32.1238 13.665 33.1009C13.7328 32.7695 13.8005 32.4381 13.8646 32.103C14.3589 33.1177 15.1458 33.9611 16.124 34.5243L17.5248 38.2636C19.5884 31.9712 14.2713 31.4967 21.6858 17.2286Z" fill="#263238"/>
<path d="M21.2568 17.7747C21.1036 18.6286 20.869 19.4659 20.5564 20.2751C20.2405 21.0873 19.7094 21.7981 19.02 22.3312C17.9995 23.0843 16.6815 23.2236 15.4539 23.5211C14.2263 23.8186 12.9196 24.3797 12.415 25.5357C12.6147 23.8386 12.9651 22.1625 13.4619 20.5274C14.0079 18.7237 14.7949 16.9086 16.3012 15.7525C16.9924 15.2339 17.802 14.8959 18.6568 14.769C19.5116 14.6421 20.3845 14.7303 21.1966 15.0258" fill="#263238"/>
<path d="M18.0824 26.0026C18.0184 25.8482 15.1226 24.8955 15.1715 27.9456C15.2167 30.9092 18.184 30.2389 18.184 30.1523C18.184 30.0657 18.0824 26.0026 18.0824 26.0026Z" fill="#FFBE9D"/>
<path d="M17.2572 29.049C17.2572 29.049 17.2082 29.0866 17.1216 29.1281C17.0007 29.1759 16.866 29.1759 16.7451 29.1281C16.4287 29.0189 16.1576 28.5293 16.1313 27.9984C16.1188 27.7407 16.1638 27.4834 16.2631 27.2452C16.2883 27.1525 16.3359 27.0674 16.4015 26.9972C16.4671 26.927 16.5488 26.8738 16.6396 26.8423C16.6988 26.8245 16.7624 26.8283 16.819 26.8532C16.8756 26.878 16.9215 26.9222 16.9484 26.9779C16.9898 27.057 16.971 27.1172 16.9861 27.1247C17.0011 27.1323 17.0501 27.072 17.0237 26.9515C17.0055 26.8782 16.963 26.8132 16.9032 26.767C16.8205 26.7075 16.7181 26.6819 16.617 26.6954C16.4967 26.7242 16.3852 26.7823 16.2926 26.8644C16.2 26.9465 16.1291 27.0501 16.0861 27.1662C15.9652 27.4249 15.9096 27.7094 15.9241 27.9946C15.9543 28.5933 16.2706 29.1469 16.6999 29.2599C16.7797 29.2824 16.8637 29.2863 16.9453 29.2713C17.0269 29.2563 17.104 29.2227 17.1706 29.1733C17.2534 29.1205 17.2685 29.0528 17.2572 29.049Z" fill="#EB996E"/>
<path d="M16.9378 29.5839C16.7927 29.5637 16.6453 29.5995 16.5257 29.6841C16.406 29.7688 16.3231 29.8958 16.2938 30.0394C16.2646 30.183 16.2911 30.3323 16.3681 30.457C16.445 30.5818 16.5666 30.6725 16.7081 30.7107C16.8495 30.7489 17.0002 30.7318 17.1295 30.6629C17.2588 30.5939 17.357 30.4782 17.404 30.3394C17.4511 30.2007 17.4435 30.0492 17.3827 29.9158C17.322 29.7824 17.2127 29.6772 17.0772 29.6215" fill="white"/>
<path d="M17.0774 29.6214C17.2038 29.7174 17.2994 29.8483 17.3523 29.998C17.3767 30.078 17.3801 30.163 17.3623 30.2447C17.3445 30.3264 17.3061 30.4023 17.2507 30.4649C17.1864 30.5439 17.1004 30.6023 17.0032 30.6328C16.9061 30.6633 16.8021 30.6646 16.7042 30.6365C16.6063 30.6085 16.5188 30.5522 16.4526 30.4749C16.3864 30.3975 16.3444 30.3024 16.3318 30.2013C16.3192 30.1185 16.3273 30.0338 16.3556 29.9549C16.3839 29.876 16.4314 29.8054 16.4938 29.7495C16.6195 29.6444 16.7748 29.5812 16.9381 29.5687C16.9381 29.5687 16.8891 29.5386 16.7988 29.5386C16.6613 29.5421 16.5288 29.5911 16.4222 29.6779C16.3415 29.7414 16.2787 29.8248 16.2397 29.9198C16.2008 30.0148 16.1871 30.1183 16.2 30.2202C16.2155 30.3444 16.267 30.4613 16.3482 30.5565C16.4294 30.6518 16.5368 30.7211 16.657 30.756C16.7772 30.7908 16.905 30.7897 17.0246 30.7527C17.1441 30.7157 17.2502 30.6444 17.3297 30.5478C17.3815 30.4809 17.4191 30.4042 17.4402 30.3223C17.4613 30.2404 17.4654 30.1551 17.4524 30.0715C17.4393 29.988 17.4094 29.908 17.3643 29.8364C17.3193 29.7648 17.2601 29.7032 17.1904 29.6553C17.1302 29.6214 17.0774 29.6139 17.0774 29.6214Z" fill="#263238"/>
<path d="M15.0399 29.4483C15.0399 29.4483 15.0023 29.4483 14.9458 29.3805C14.8648 29.3111 14.7893 29.2355 14.7199 29.1545C14.4592 28.8549 14.2505 28.5138 14.1023 28.1453C13.8764 27.5938 13.796 26.9934 13.8688 26.4018C13.9706 25.6656 14.344 24.994 14.9157 24.519C15.4762 24.0669 16.1005 23.7001 16.7684 23.4307C17.3709 23.1709 17.8981 22.945 18.3424 22.7077C18.8056 22.4597 19.2368 22.1562 19.6265 21.804C19.5548 21.9306 19.4632 22.0451 19.3554 22.1429C19.0718 22.4192 18.7541 22.6583 18.4102 22.8546C17.9012 23.1321 17.3783 23.3834 16.8437 23.6077C16.1969 23.8764 15.592 24.2366 15.0475 24.6772C14.5096 25.1184 14.152 25.7413 14.042 26.4282C13.9672 26.9913 14.0319 27.5641 14.2303 28.0964C14.4289 28.586 14.702 29.042 15.0399 29.4483Z" fill="#455A64"/>
<path d="M14.7945 27.6896C14.7325 27.6022 14.6877 27.5038 14.6627 27.3996C14.575 27.1211 14.5393 26.8288 14.5573 26.5373C14.5812 26.1 14.7104 25.675 14.9338 25.2984C15.2036 24.8311 15.6077 24.4559 16.0936 24.2214C16.5654 24.0013 17.048 23.8052 17.5397 23.634C17.9301 23.492 18.296 23.29 18.6242 23.0352C18.919 22.7908 19.1514 22.4797 19.302 22.1277C19.3047 22.235 19.2801 22.3413 19.2304 22.4365C19.1145 22.7075 18.938 22.9484 18.7145 23.1406C18.385 23.4207 18.0108 23.6435 17.6074 23.7996C17.1669 23.9879 16.6623 24.1461 16.184 24.3946C15.7313 24.6146 15.3511 24.9596 15.0882 25.3887C14.8788 25.7429 14.7502 26.139 14.7116 26.5486C14.6864 26.9309 14.7142 27.3149 14.7945 27.6896Z" fill="#455A64"/>
<path d="M21.4488 17.9705C21.1495 17.2846 20.7608 16.6414 20.2928 16.0575C19.7799 15.5138 19.1975 15.0403 18.5605 14.6492C18.7838 14.688 18.9967 14.7726 19.1856 14.8977C19.6605 15.1676 20.0859 15.5165 20.4434 15.9295C20.8037 16.3391 21.0903 16.8079 21.2907 17.3153C21.3872 17.5207 21.441 17.7436 21.4488 17.9705Z" fill="#455A64"/>
<path d="M35.0651 28.8607C34.9379 28.8627 34.8111 28.8462 34.6886 28.8118C34.3467 28.7432 34.0096 28.6526 33.6794 28.5406C33.4496 28.4595 33.2267 28.36 33.0129 28.2432C32.7542 28.1123 32.5307 27.9212 32.3614 27.6858C32.2719 27.5518 32.2116 27.4004 32.1844 27.2415L32.1505 27.0118C32.1358 26.9297 32.1269 26.8466 32.1242 26.7633C32.1317 26.4269 32.1927 26.0938 32.3049 25.7766C32.4127 25.4778 32.4823 25.1666 32.512 24.8503C32.5171 24.562 32.4357 24.2787 32.2786 24.0369C31.9839 23.6205 31.64 23.2412 31.2543 22.9072C31.0073 22.6678 30.7457 22.4439 30.471 22.2369C30.3648 22.168 30.2629 22.0926 30.166 22.011C30.6188 22.1916 31.0272 22.4678 31.3635 22.8206C31.7749 23.1459 32.1397 23.526 32.448 23.9503C32.6277 24.22 32.7222 24.5375 32.7191 24.8616C32.6925 25.1958 32.6216 25.5251 32.5083 25.8407C32.401 26.1382 32.3413 26.4509 32.3313 26.767C32.3349 26.8402 32.3424 26.9131 32.3539 26.9854L32.384 27.2151C32.4059 27.349 32.4546 27.4771 32.5271 27.5917C32.6786 27.8056 32.8769 27.982 33.107 28.1076C33.3118 28.2239 33.5245 28.3258 33.7434 28.4126C34.5379 28.7176 35.0764 28.8268 35.0651 28.8607Z" fill="#455A64"/>
<path d="M24.5098 154.766L24.6717 150.612L31.9168 150.337L31.8039 155.425L29.1717 157.014L24.5098 154.766Z" fill="#FFBE9D"/>
<path d="M31.9623 154.48V154.954C31.9623 154.954 40.0058 158.275 40.0773 159.808L24.0469 159.571L24.3444 154.239C25.5224 154.823 26.8125 155.148 28.1271 155.189C29.4416 155.231 30.7497 154.989 31.9623 154.48Z" fill="#FF725E"/>
<g opacity="0.3">
<path d="M31.9623 154.48V154.954C31.9623 154.954 40.0058 158.275 40.0773 159.808L24.0469 159.571L24.3444 154.239C25.5224 154.823 26.8125 155.148 28.1271 155.189C29.4416 155.231 30.7497 154.989 31.9623 154.48Z" fill="black"/>
</g>
<g opacity="0.6">
<path d="M25.9378 155.971C25.7805 156.016 25.6457 156.118 25.56 156.257C25.4743 156.397 25.4438 156.563 25.4746 156.724C25.5132 156.881 25.6105 157.016 25.7465 157.103C25.8825 157.19 26.0467 157.222 26.2051 157.191C26.3688 157.142 26.5089 157.035 26.5985 156.89C26.6882 156.745 26.7211 156.572 26.6909 156.404C26.6336 156.245 26.5167 156.114 26.365 156.04C26.2132 155.965 26.0384 155.953 25.8775 156.005" fill="white"/>
</g>
<g opacity="0.6">
<path d="M24.043 159.571L24.1145 158.29L39.4521 158.983C39.4521 158.983 40.16 159.303 40.0734 159.808L24.043 159.571Z" fill="white"/>
</g>
<path d="M32.0153 154.999C32.0153 155.078 31.6387 155.109 31.232 155.353C30.8253 155.598 30.6333 155.926 30.5617 155.896C30.4902 155.865 30.6144 155.41 31.0889 155.142C31.5634 154.875 32.0341 154.928 32.0153 154.999Z" fill="#263238"/>
<path d="M33.6869 155.718C33.6869 155.798 33.363 155.926 33.0919 156.253C32.8208 156.581 32.7379 156.927 32.6626 156.923C32.5873 156.92 32.5383 156.475 32.8848 156.076C33.2312 155.677 33.6869 155.647 33.6869 155.718Z" fill="#263238"/>
<path d="M34.6127 157.744C34.5412 157.744 34.4357 157.368 34.6429 156.938C34.85 156.509 35.219 156.347 35.2529 156.415C35.2868 156.483 35.0533 156.705 34.8763 157.059C34.6993 157.413 34.688 157.744 34.6127 157.744Z" fill="#263238"/>
<path d="M17.9951 154.86L18.1608 150.706L25.4022 150.431L25.293 155.519L22.6608 157.108L17.9951 154.86Z" fill="#FFBE9D"/>
<path d="M25.4516 154.574V155.048C25.4516 155.048 33.495 158.37 33.5666 159.902L17.5361 159.665L17.8336 154.333C19.0116 154.918 20.3018 155.242 21.6163 155.283C22.9309 155.325 24.2389 155.083 25.4516 154.574Z" fill="#FF725E"/>
<g opacity="0.6">
<path d="M19.4266 156.065C19.2689 156.109 19.1336 156.211 19.0477 156.351C18.9619 156.49 18.9318 156.657 18.9635 156.818C19.0052 156.971 19.1033 157.103 19.2381 157.187C19.3729 157.27 19.5344 157.3 19.6902 157.27C19.8539 157.221 19.994 157.114 20.0836 156.969C20.1733 156.824 20.2062 156.651 20.176 156.483C20.1187 156.324 20.0018 156.193 19.8501 156.119C19.6983 156.044 19.5235 156.032 19.3626 156.084" fill="white"/>
</g>
<g opacity="0.6">
<path d="M17.5322 159.665L17.6038 158.385L32.9413 159.077C32.9413 159.077 33.6493 159.401 33.5627 159.902L17.5322 159.665Z" fill="white"/>
</g>
<path d="M25.5038 155.108C25.5038 155.187 25.1273 155.218 24.7206 155.462C24.3139 155.707 24.1218 156.035 24.0503 156.005C23.9787 155.974 24.0992 155.523 24.5775 155.251C25.0557 154.98 25.5227 155.022 25.5038 155.108Z" fill="#263238"/>
<path d="M27.1764 155.812C27.1764 155.892 26.8526 156.02 26.5814 156.347C26.3103 156.675 26.2274 157.021 26.1484 157.017C26.0693 157.014 26.0279 156.569 26.3743 156.17C26.7208 155.771 27.1764 155.741 27.1764 155.812Z" fill="#263238"/>
<path d="M28.0988 157.842C28.0272 157.842 27.9256 157.466 28.1327 157.036C28.3398 156.607 28.7088 156.445 28.7427 156.513C28.7766 156.581 28.5431 156.803 28.3662 157.157C28.1892 157.511 28.1779 157.835 28.0988 157.842Z" fill="#263238"/>
<path d="M7.11621 52.43C7.11621 52.43 13.1413 61.7688 16.3044 65.5345C19.4676 69.3001 24.668 65.9863 25.2705 60.865C25.873 55.7437 25.7148 46.2505 25.7148 46.2505L21.5048 43.7463L18.7822 56.704L15.3931 50.3965L7.11621 52.43Z" fill="#FFBE9D"/>
<path d="M25.7149 46.2506L27.5224 41.7318C27.895 41.5575 28.2516 41.3508 28.5881 41.1142C28.8555 40.8657 28.8027 39.2314 28.7274 38.9452C28.6521 38.659 29.0211 37.8155 28.7613 37.6649C28.5015 37.5142 27.7747 37.6649 27.7484 37.3636C27.7484 37.2996 28.1249 36.5314 27.594 36.1511C27.3281 36.0504 27.046 35.9993 26.7617 36.0004L26.468 34.4942C26.468 34.4942 25.263 32.9164 24.5852 33.741C24.5852 33.741 22.0208 36.8289 21.7948 37.2808C21.5689 37.7326 21.5049 42.9669 21.5049 43.946" fill="#FFBE9D"/>
<path d="M21.5127 43.9535C21.5023 43.8634 21.5023 43.7724 21.5127 43.6824C21.5127 43.4828 21.5127 43.2229 21.5127 42.8991C21.5127 42.2175 21.5127 41.2347 21.5504 40.0146C21.5504 39.4046 21.588 38.738 21.6407 38.0188C21.6407 37.838 21.6709 37.6422 21.7048 37.4652C21.746 37.2687 21.8367 37.0859 21.9684 36.9343C22.1943 36.618 22.4353 36.3092 22.6876 35.9891C23.1884 35.3527 23.7232 34.6937 24.2805 34.0084C24.4172 33.8176 24.5808 33.6476 24.7662 33.5038C24.8798 33.4453 25.0057 33.4148 25.1334 33.4148C25.2611 33.4148 25.387 33.4453 25.5005 33.5038C25.9251 33.7301 26.2942 34.0477 26.5813 34.4339V34.4602C26.6114 34.6033 26.6415 34.7615 26.6717 34.9197C26.7394 35.2699 26.811 35.6201 26.8788 35.959L26.7846 35.8799C26.9817 35.8852 27.178 35.9054 27.3721 35.9401C27.4801 35.9577 27.5837 35.996 27.6771 36.0531C27.7639 36.1174 27.8358 36.1996 27.888 36.2941C27.9825 36.4813 28.0129 36.6943 27.9746 36.9004C27.9631 36.9965 27.9416 37.0911 27.9106 37.1828L27.8691 37.3146V37.3447C27.8671 37.3488 27.8661 37.3533 27.8661 37.3579C27.8661 37.3625 27.8671 37.367 27.8691 37.3711C27.9184 37.4142 27.9808 37.4395 28.0461 37.4426C28.1321 37.4572 28.2189 37.466 28.306 37.469C28.3963 37.469 28.4867 37.469 28.5809 37.4954C28.6916 37.5049 28.7968 37.5483 28.8821 37.6196C28.9483 37.7109 28.9766 37.8243 28.9612 37.9359C28.9612 38.0313 28.9499 38.1217 28.9273 38.2071C28.8934 38.3803 28.852 38.546 28.8332 38.7079C28.8199 38.7801 28.8199 38.8541 28.8332 38.9263C28.8332 39.0205 28.8557 39.0995 28.867 39.1861C28.867 39.3569 28.8746 39.5225 28.8896 39.6832C28.8963 40.0041 28.8799 40.325 28.8407 40.6435C28.8257 40.8073 28.777 40.9663 28.6976 41.1104C28.5888 41.224 28.4615 41.3183 28.321 41.3891C28.0687 41.5397 27.8164 41.664 27.5679 41.7656L27.6055 41.728L26.2537 45.0154C26.0955 45.392 25.9675 45.6894 25.8771 45.9116C25.8373 46.0168 25.7894 46.1188 25.734 46.2166C25.7604 46.1072 25.7956 46.0002 25.8395 45.8966C25.9223 45.6706 26.039 45.3656 26.1821 44.9853C26.4947 44.1832 26.9353 43.0535 27.47 41.6715V41.6451H27.4963C27.7373 41.5284 27.9859 41.3966 28.2495 41.2497C28.3701 41.1877 28.4805 41.1077 28.5771 41.0125C28.6388 40.8877 28.6758 40.7522 28.6863 40.6133C28.7218 40.3047 28.7344 39.9938 28.7239 39.6832C28.7239 39.52 28.7164 39.3581 28.7014 39.1974C28.6964 39.1188 28.6851 39.0408 28.6675 38.964C28.6506 38.8706 28.6506 38.7749 28.6675 38.6816C28.6901 38.5046 28.7315 38.3351 28.7616 38.1694C28.777 38.0886 28.787 38.0068 28.7917 37.9246C28.8012 37.8611 28.7893 37.7962 28.7578 37.7401C28.7007 37.7048 28.6363 37.683 28.5696 37.6761C28.4867 37.6761 28.4001 37.6761 28.3097 37.6535C28.2194 37.6309 28.129 37.6535 28.0311 37.6272C27.9148 37.6184 27.8066 37.5643 27.7298 37.4765C27.706 37.4476 27.6916 37.4122 27.6884 37.3749C27.6806 37.3504 27.6806 37.324 27.6884 37.2995V37.2619L27.7298 37.1339C27.754 37.0498 27.7729 36.9643 27.7863 36.8778C27.8185 36.7128 27.7947 36.5419 27.7185 36.392C27.6795 36.3221 27.6255 36.2616 27.5604 36.215C27.4908 36.1745 27.4141 36.1477 27.3344 36.136C27.147 36.1145 26.9582 36.107 26.7696 36.1134H26.6905V36.0343C26.6227 35.6954 26.5512 35.3452 26.4834 34.995C26.4533 34.8368 26.4231 34.6824 26.393 34.5356V34.577C26.1247 34.2177 25.7817 33.9209 25.3876 33.7071C25.3013 33.661 25.2049 33.6368 25.107 33.6368C25.0092 33.6368 24.9128 33.661 24.8265 33.7071C24.6613 33.838 24.5166 33.9929 24.3972 34.1665C23.8324 34.8443 23.2976 35.5033 22.793 36.136C22.5407 36.4485 22.296 36.7611 22.0738 37.0661C21.9539 37.1965 21.8708 37.3563 21.8328 37.5293C21.8027 37.7062 21.7838 37.9058 21.765 38.064C21.7048 38.7757 21.6784 39.446 21.652 40.0523C21.6106 41.2535 21.5767 42.2326 21.5541 42.933C21.5541 43.2568 21.5541 43.5167 21.5278 43.7162C21.5289 43.7956 21.5238 43.8749 21.5127 43.9535Z" fill="#EB996E"/>
<path d="M26.7693 36.0006C26.5101 36.0946 26.2461 36.1751 25.9785 36.2416C25.7003 36.3455 25.4308 36.4714 25.1727 36.6182C24.822 36.7575 24.4528 36.845 24.0769 36.878C23.7552 36.9045 23.4438 37.0041 23.1665 37.1692C22.8891 37.3343 22.6531 37.5606 22.4765 37.8307C22.345 38.0643 22.2558 38.3193 22.2129 38.5839C22.1784 38.4434 22.1733 38.2973 22.1979 38.1547C22.2226 38.0122 22.2764 37.8762 22.356 37.7554C22.5092 37.4802 22.723 37.2432 22.9811 37.0625C23.2996 36.8507 23.6658 36.7213 24.0468 36.686C24.4061 36.6518 24.7601 36.5747 25.1011 36.4563C25.367 36.3041 25.647 36.178 25.9371 36.0797C26.2072 36.0018 26.4894 35.975 26.7693 36.0006Z" fill="#EB996E"/>
<path d="M25.6553 36.1699C25.6139 36.2038 25.4482 36.0494 25.403 35.7934C25.3578 35.5373 25.4708 35.3339 25.5198 35.3528C25.5687 35.3716 25.5612 35.5524 25.5988 35.7632C25.6365 35.9741 25.7156 36.136 25.6553 36.1699Z" fill="#EB996E"/>
<path d="M27.8655 37.3974C27.0983 37.6503 26.2932 37.7688 25.4856 37.7476C25.1878 37.7176 24.887 37.747 24.6007 37.8342C24.3872 37.9335 24.2191 38.1097 24.13 38.3275C24.0579 38.5445 24.0001 38.7658 23.9568 38.9903C23.8884 38.7538 23.9044 38.5009 24.0019 38.2748C24.0904 38.0109 24.28 37.7928 24.5291 37.6685C24.8348 37.5624 25.1594 37.5213 25.4819 37.548C26.7961 37.5367 27.8542 37.3409 27.8655 37.3974Z" fill="#EB996E"/>
<path d="M28.5957 38.7154C28.4169 38.801 28.2215 38.846 28.0233 38.8472C27.6467 38.8886 27.161 38.8736 26.6187 38.8924C26.3649 38.8915 26.112 38.9218 25.8656 38.9828C25.6771 39.0295 25.5092 39.1366 25.3873 39.2878C25.2832 39.4392 25.2304 39.62 25.2367 39.8037C25.2367 39.8037 25.1878 39.7585 25.1689 39.653C25.1501 39.4988 25.1861 39.3429 25.2706 39.2125C25.3985 39.0203 25.5887 38.8781 25.8091 38.8095C26.0647 38.7346 26.3297 38.6966 26.5961 38.6966C27.1534 38.6777 27.643 38.6966 28.0007 38.6966C28.1991 38.6799 28.3988 38.6862 28.5957 38.7154Z" fill="#EB996E"/>
<path d="M27.9257 40.0449C27.9634 40.0449 27.7638 40.3951 27.2818 40.5043L27.3571 40.3988L27.3834 40.6549C27.4477 40.9971 27.4477 41.3483 27.3834 41.6905C27.2554 41.368 27.189 41.0244 27.1876 40.6775L27.165 40.4214V40.3311H27.2479C27.6546 40.2557 27.8918 40.0072 27.9257 40.0449Z" fill="#EB996E"/>
<path d="M35.882 70.0044C35.882 70.0044 41.2405 81.8323 41.2405 89.2319C41.2405 96.6314 35.9686 120.83 35.9686 120.83C35.9686 120.83 35.2644 127.521 34.5565 136.45C34.093 142.035 33.1902 147.575 31.8565 153.018H26.5845L18.0101 153.252C18.0101 153.252 14.3687 138.336 14.6022 132.699C14.8357 127.062 15.7771 120.6 15.7771 120.6C15.7771 120.6 11.198 101.926 10.3734 98.518C10.0533 97.1849 9.90643 94.6431 9.88007 91.9356C9.82462 86.367 10.8476 80.8403 12.8926 75.6604L14.3989 71.8609L35.882 70.0044Z" fill="#263238"/>
<path d="M27.9742 93.6716C27.9177 93.6716 27.2813 106.912 26.5545 123.251C25.8277 139.59 25.2666 152.849 25.3382 152.849C25.4097 152.849 26.0311 139.609 26.7578 123.266C27.4846 106.923 28.0193 93.6716 27.9742 93.6716Z" fill="#455A64"/>
<path d="M29.104 88.3808C29.1616 88.1662 29.2007 87.947 29.2208 87.7256C29.2848 87.3039 29.3563 86.6863 29.4203 85.9256C29.5785 83.9371 29.5898 81.9397 29.4542 79.9495C29.3202 77.9596 29.0395 75.9823 28.6145 74.0337C28.4488 73.2805 28.2944 72.6856 28.1739 72.2789C28.1235 72.0623 28.0542 71.8506 27.9668 71.6462C27.992 71.8665 28.0348 72.0843 28.0948 72.2977C28.189 72.7119 28.3208 73.3182 28.4714 74.0638C28.859 76.0121 29.1231 77.983 29.2622 79.9646C29.3956 81.9454 29.4032 83.9326 29.2848 85.9143C29.2396 86.6675 29.1944 87.2926 29.1567 87.7181C29.1205 87.9371 29.1029 88.1588 29.104 88.3808Z" fill="#455A64"/>
<path d="M11.1045 81.4144C11.2127 81.5145 11.3411 81.5903 11.4811 81.6366C11.8471 81.7869 12.242 81.8538 12.6371 81.8324C13.6425 81.806 14.9681 81.2901 16.1768 80.3901C17.2094 79.6119 18.0462 78.6036 18.6208 77.4454C18.7928 77.0955 18.9376 76.733 19.0538 76.3609C19.1026 76.2262 19.133 76.0856 19.1442 75.9429C19.1028 75.9429 18.9521 76.5228 18.489 77.3738C17.8914 78.4883 17.0588 79.4597 16.0488 80.2207C15.0602 81.0089 13.8755 81.5127 12.6221 81.678C12.1023 81.7156 11.5812 81.625 11.1045 81.4144Z" fill="#455A64"/>
<path d="M33.2461 74.3688C33.2569 74.4978 33.2861 74.6246 33.3327 74.7454C33.4352 75.0826 33.561 75.4123 33.7093 75.732C34.1883 76.7936 34.8383 77.7693 35.6335 78.6203C36.4307 79.471 37.3634 80.1835 38.3938 80.729C38.7029 80.8965 39.0238 81.0412 39.354 81.1621C39.4738 81.2166 39.6005 81.2546 39.7306 81.275C39.7306 81.2374 39.2335 81.0378 38.4728 80.601C36.4792 79.4509 34.8713 77.7355 33.8524 75.6717C33.4457 74.8998 33.28 74.3575 33.2461 74.3688Z" fill="#455A64"/>
<path d="M25.6813 74.1014C25.6813 74.1014 25.7039 74.0186 25.7491 73.8868C25.8121 73.7024 25.9321 73.5429 26.0917 73.4312C26.2154 73.3414 26.3614 73.2875 26.5137 73.2755C26.666 73.2636 26.8186 73.2939 26.9548 73.3633C27.0909 73.4327 27.2052 73.5383 27.285 73.6686C27.3648 73.7989 27.4071 73.9487 27.4071 74.1014C27.4071 74.2542 27.3648 74.404 27.285 74.5343C27.2052 74.6645 27.0909 74.7702 26.9548 74.8396C26.8186 74.9089 26.666 74.9393 26.5137 74.9273C26.3614 74.9154 26.2154 74.8615 26.0917 74.7717C25.9321 74.66 25.8121 74.5005 25.7491 74.3161C25.7039 74.1843 25.7001 74.1014 25.6813 74.1014C25.6625 74.1014 25.6474 74.1843 25.6813 74.3349C25.7194 74.5552 25.8373 74.7536 26.0127 74.8922C26.1431 74.998 26.2984 75.0687 26.4638 75.0977C26.6292 75.1267 26.7992 75.113 26.9579 75.0579C27.1563 74.9887 27.3284 74.8594 27.4501 74.6881C27.5719 74.5167 27.6373 74.3117 27.6373 74.1014C27.6373 73.8912 27.5719 73.6862 27.4501 73.5148C27.3284 73.3434 27.1563 73.2142 26.9579 73.145C26.7992 73.0899 26.6292 73.0762 26.4638 73.1052C26.2984 73.1341 26.1431 73.2049 26.0127 73.3106C25.8373 73.4493 25.7194 73.6477 25.6813 73.868C25.6474 74.0186 25.67 74.1014 25.6813 74.1014Z" fill="#455A64"/>
<path d="M18.3721 120.261C19.2759 120.891 20.2193 121.462 21.1963 121.971C22.1456 122.533 23.1291 123.036 24.1411 123.477C23.2314 122.849 22.2817 122.282 21.298 121.779C20.3544 121.214 19.3773 120.707 18.3721 120.261Z" fill="#455A64"/>
<path d="M40.9478 45.9344C39.3135 48.4198 32.6897 58.4929 30.7278 61.4715C30.6799 61.5454 30.6541 61.6315 30.6533 61.7195C30.6526 61.8076 30.677 61.894 30.7236 61.9687C30.7702 62.0434 30.8372 62.1033 30.9167 62.1413C30.9961 62.1793 31.0847 62.1938 31.1721 62.1832L42.9436 60.6996C43.0057 60.6923 43.0656 60.6722 43.1194 60.6404C43.1732 60.6086 43.2198 60.5659 43.2562 60.5151L54.4967 45.1512C54.5487 45.0805 54.5794 44.9964 54.5851 44.9088C54.5908 44.8212 54.5713 44.7338 54.5289 44.657C54.4865 44.5801 54.423 44.517 54.3459 44.4751C54.2688 44.4332 54.1813 44.4143 54.0937 44.4206L41.9834 45.3168C41.7747 45.3326 41.5726 45.3966 41.3929 45.5038C41.2132 45.6109 41.0609 45.7584 40.9478 45.9344Z" fill="#E0E0E0"/>
<path d="M40.9472 45.9344C40.9747 45.8842 41.0062 45.8364 41.0414 45.7913C41.146 45.6622 41.2737 45.5536 41.4179 45.4712C41.6607 45.3445 41.9311 45.2798 42.2049 45.2829L43.297 45.1925L50.2785 44.6427L52.5944 44.4657L53.822 44.3716C53.9312 44.3716 54.0254 44.3528 54.1496 44.3528C54.2444 44.3573 54.3363 44.3867 54.416 44.4381C54.4957 44.4895 54.5605 44.5611 54.6037 44.6455C54.6468 44.73 54.667 44.8244 54.6619 44.9191C54.6569 45.0138 54.627 45.1056 54.5752 45.185L51.3216 49.6699L43.7903 59.9351C43.6208 60.1686 43.4664 60.3832 43.2819 60.6242C43.2248 60.6889 43.1523 60.7381 43.0711 60.7673C42.9974 60.7896 42.9217 60.8048 42.8451 60.8125L42.4309 60.8615L40.7815 61.0686L37.5619 61.4715L31.4766 62.2246C31.3523 62.2246 31.2469 62.2585 31.1 62.266C31.0297 62.2651 30.9602 62.2504 30.8956 62.2226C30.831 62.1948 30.7725 62.1546 30.7234 62.1041C30.6242 62.0033 30.5664 61.8689 30.5615 61.7276C30.5697 61.5904 30.6196 61.459 30.7046 61.351C30.9682 60.9744 31.2243 60.564 31.4803 60.1761C31.9824 59.4054 32.477 58.6523 32.964 57.9167L35.6339 53.8837L39.505 48.0507L40.5669 46.4691C40.6874 46.2959 40.7778 46.1603 40.8493 46.0624C40.9209 45.9645 40.9472 45.9231 40.9472 45.9268C40.9242 45.9782 40.8965 46.0274 40.8644 46.0737L40.6008 46.4917L39.569 48.0921L35.7468 53.959L33.1109 58.0071L31.6347 60.2665L30.8816 61.4451C30.8141 61.5226 30.7755 61.6211 30.7724 61.7238C30.7724 61.8237 30.8121 61.9194 30.8827 61.9901C30.9533 62.0607 31.0491 62.1004 31.149 62.1004C31.2469 62.1004 31.3824 62.0702 31.4992 62.0589L37.5845 61.3058L40.8041 60.8991L42.4497 60.692L42.8639 60.6393C42.9264 60.6341 42.9882 60.6227 43.0485 60.6054C43.0993 60.5847 43.1454 60.554 43.184 60.515C43.3459 60.2891 43.5116 60.0669 43.6773 59.8447L51.2086 49.5871L54.4885 45.1172C54.538 45.0423 54.5592 44.9523 54.5481 44.8632C54.5371 44.7741 54.4946 44.6919 54.4283 44.6314C54.3631 44.572 54.2792 44.5374 54.1911 44.5335C54.1044 44.5335 53.9839 44.5335 53.8823 44.5335L52.6547 44.6201L50.3388 44.7858L43.3535 45.2716L42.2577 45.3431C41.9909 45.3371 41.7265 45.3939 41.4857 45.5088C41.2784 45.6114 41.095 45.7564 40.9472 45.9344Z" fill="#263238"/>
<path d="M54.4966 45.1511C54.4166 45.1723 54.3346 45.185 54.2519 45.1887L53.5364 45.2603L50.8778 45.4975L41.8402 46.2507L41.9118 46.2092C41.3469 47.049 40.7633 47.9226 40.1758 48.8264C37.7884 52.4941 35.706 55.8644 34.1282 58.2669C33.3449 59.4681 32.6972 60.4284 32.2453 61.0911L31.7144 61.8443C31.6584 61.9364 31.5928 62.0222 31.5186 62.1003C31.5681 62.0042 31.6235 61.9112 31.6842 61.8217C31.8047 61.6296 31.9742 61.3698 32.1813 61.046L34.0152 58.1878C35.5591 55.7703 37.6265 52.3849 40.0139 48.7134C40.6013 47.8096 41.1888 46.936 41.7574 46.0774L41.7837 46.0398H41.8289L50.8665 45.3695L53.5326 45.1887L54.2481 45.1511C54.3308 45.1453 54.4139 45.1453 54.4966 45.1511Z" fill="#263238"/>
<path d="M47.4922 47.5347C47.4852 47.5038 47.472 47.4747 47.4535 47.449C47.435 47.4233 47.4116 47.4016 47.3845 47.3851C47.3575 47.3686 47.3275 47.3577 47.2962 47.353C47.2649 47.3483 47.2329 47.3499 47.2023 47.3577C47.0821 47.3854 46.9724 47.4468 46.8859 47.5347C46.8306 47.5845 46.7946 47.6522 46.7843 47.7259C46.774 47.7996 46.79 47.8745 46.8295 47.9376C46.9462 48.0845 47.206 48.0318 47.3303 47.9075C47.387 47.8645 47.4317 47.8076 47.4601 47.7423C47.4885 47.677 47.4995 47.6055 47.4922 47.5347Z" fill="white"/>
<path d="M41.9939 56.2447C41.9939 56.2447 41.5308 55.115 42.7094 54.9945C44.1331 54.9198 45.5597 54.9198 46.9834 54.9945C46.9834 54.9945 48.6742 55.1715 48.3165 56.3841C48.3165 56.3841 49.3181 57.2803 48.7797 58.2443C48.2412 59.2083 48.0265 58.9221 48.0265 58.9221C48.0265 58.9221 48.1696 60.1008 47.2734 60.2778C47.2734 60.2778 46.3056 61.4075 45.4132 61.351C44.5207 61.2945 40.7362 59.4681 40.4877 59.0916C40.2391 58.715 39.8776 58.5343 40.0923 58.1351C40.0923 58.1351 39.6291 57.0882 40.6308 56.9301C40.6383 56.9376 40.7098 56.0715 41.9939 56.2447Z" fill="#FFBE9D"/>
<path d="M47.3633 56.6439C47.1016 56.6939 46.8349 56.7128 46.5688 56.7004C46.0755 56.7004 45.3977 56.7004 44.6483 56.7004C44.0035 56.7166 43.3584 56.6775 42.7203 56.5836C42.2119 56.4669 42.0123 56.1694 42.0349 56.1619C42.2515 56.3023 42.4931 56.3995 42.7466 56.4481C43.2136 56.5271 43.9027 56.4782 44.652 56.5045C45.4014 56.5309 46.0792 56.5347 46.5688 56.561C46.836 56.5563 47.1028 56.5841 47.3633 56.6439Z" fill="#EB996E"/>
<path d="M46.5205 58.4288C46.5205 58.4288 46.4339 58.4816 46.2644 58.5155C46.0169 58.5666 45.7634 58.5831 45.5113 58.5644C45.1479 58.5356 44.7883 58.47 44.4381 58.3686C44.0615 58.2594 43.6247 58.105 43.1804 57.9694C42.7685 57.8354 42.3428 57.7483 41.9113 57.7096C41.5376 57.741 41.1628 57.6652 40.8306 57.4912C40.7001 57.4032 40.6084 57.2683 40.5745 57.1146C40.5503 57.0011 40.5662 56.8826 40.6197 56.7795C40.7101 56.61 40.8381 56.6025 40.8343 56.61C40.8306 56.6176 40.744 56.6628 40.6875 56.8134C40.6526 56.917 40.6558 57.0297 40.6965 57.1311C40.7372 57.2326 40.8128 57.3162 40.9097 57.3669C41.2273 57.5086 41.5772 57.562 41.9226 57.5213C42.3695 57.5504 42.811 57.6352 43.2368 57.7736L44.4908 58.1878C44.8285 58.2951 45.175 58.372 45.5264 58.4176C45.857 58.4467 46.1893 58.4505 46.5205 58.4288Z" fill="#EB996E"/>
<path d="M45.2553 59.9387C44.9847 59.9232 44.7175 59.8713 44.4608 59.7843C43.975 59.6638 43.3122 59.4718 42.5779 59.2383C41.8436 59.0048 41.2072 58.76 40.7441 58.5718C40.4856 58.4878 40.2389 58.3714 40.0098 58.2253C40.0324 58.1726 41.1959 58.5793 42.6457 59.05C44.0955 59.5207 45.2704 59.886 45.2553 59.9387Z" fill="#EB996E"/>
<path d="M45.5606 61.3433C45.3369 61.363 45.1115 61.3374 44.8979 61.268C44.3789 61.143 43.8742 60.9651 43.3916 60.737C42.823 60.4772 42.3297 60.2136 41.9682 60.0253C41.7646 59.9385 41.5744 59.8231 41.4033 59.6826C42.1174 59.9124 42.8093 60.2061 43.4707 60.56C44.1537 60.856 44.8513 61.1174 45.5606 61.3433Z" fill="#EB996E"/>
<path d="M9.79775 40.3799C9.79775 40.3799 4.95511 42.3945 6.15635 48.8037C7.3576 55.2128 7.9827 57.3517 7.9827 57.3517L17.5287 52.3283L9.79775 40.3799Z" fill="#FF725E"/>
<path d="M17.3282 52.4338C17.2196 52.5209 17.1022 52.5967 16.978 52.6598C16.7483 52.7953 16.4094 52.9836 15.9914 53.2133C15.1555 53.6765 13.9919 54.2978 12.7002 54.9794C11.4086 55.661 10.2375 56.2635 9.38269 56.6928C8.95717 56.9074 8.61073 57.0694 8.36973 57.1899C8.25021 57.2568 8.124 57.3111 7.99316 57.3518C8.09988 57.2609 8.21753 57.1838 8.34337 57.1221C8.57308 56.9865 8.91199 56.7982 9.32998 56.5685C10.166 56.1091 11.3295 55.484 12.6212 54.8062C13.9128 54.1284 15.0839 53.5221 15.9349 53.0928L16.9517 52.592C17.0707 52.525 17.1971 52.4719 17.3282 52.4338Z" fill="#263238"/>
<path d="M17.3284 52.4339C17.1299 52.1552 16.9548 51.8604 16.805 51.5527L15.5924 49.3912C15.133 48.5779 14.715 47.8436 14.3724 47.2335C14.1879 46.9434 14.0327 46.6356 13.9092 46.3147C14.1307 46.5767 14.325 46.8606 14.4891 47.162C14.828 47.7005 15.2836 48.4536 15.7619 49.2971C16.2401 50.1406 16.6543 50.9163 16.9292 51.4887C17.0943 51.7893 17.2281 52.106 17.3284 52.4339Z" fill="#263238"/>
</svg>
