<svg width="225" height="233" viewBox="0 0 225 233" fill="none" xmlns="http://www.w3.org/2000/svg">
<path d="M94.3937 199.881C40.5737 190.128 47.7737 161.297 30.8357 128.015C13.8977 94.7331 11.8952 81.1865 28.6712 52.658C45.4472 24.1295 81.7352 8.08511 115.553 31.949C149.37 55.8128 174.053 48.4128 194.51 67.0015C214.967 85.5902 217.712 111.537 193.461 134.655C169.211 157.774 160.755 211.895 94.3937 199.881Z" fill="#FFD900"/>
<path opacity="0.7" d="M94.3937 199.881C40.5737 190.128 47.7737 161.297 30.8357 128.015C13.8977 94.7331 11.8952 81.1865 28.6712 52.658C45.4472 24.1295 81.7352 8.08511 115.553 31.949C149.37 55.8128 174.053 48.4128 194.51 67.0015C214.967 85.5902 217.712 111.537 193.461 134.655C169.211 157.774 160.755 211.895 94.3937 199.881Z" fill="#FFF19E"/>
<path d="M28.9297 124.385V43.0911H35.6077" stroke="#263238" stroke-linecap="round" stroke-linejoin="round"/>
<path d="M28.9375 137.675V134.711" stroke="#263238" stroke-linecap="round" stroke-linejoin="round"/>
<path d="M52.7752 43.0911H121.652V148.081H28.9297" stroke="#263238" stroke-linecap="round" stroke-linejoin="round"/>
<path d="M44.3281 43.0911H50.3806" stroke="#263238" stroke-linecap="round" stroke-linejoin="round"/>
<path d="M118.162 46.698H32.4141V144.479H118.162V46.698Z" stroke="#263238" stroke-linecap="round" stroke-linejoin="round"/>
<path d="M114.18 53.5574V91.5876H36.4062V88.1206" stroke="#263238" stroke-linecap="round" stroke-linejoin="round"/>
<path d="M36.4062 79.9842V50.4724H114.18" stroke="#263238" stroke-linecap="round" stroke-linejoin="round"/>
<path d="M36.4062 85.4505V82.0767" stroke="#263238" stroke-linecap="round" stroke-linejoin="round"/>
<path d="M101.047 95.5859H118.165" stroke="#263238" stroke-linecap="round" stroke-linejoin="round"/>
<path d="M94.9609 95.5859H97.3819" stroke="#263238" stroke-linecap="round" stroke-linejoin="round"/>
<path d="M32.4141 95.5859H92.0616" stroke="#263238" stroke-linecap="round" stroke-linejoin="round"/>
<path d="M70.9844 91.5877V89.761H78.1529V90.8002H75.2954V91.5877" stroke="#263238" stroke-linecap="round" stroke-linejoin="round"/>
<path d="M32.5625 128.36C32.5625 128.36 33.7505 129.292 34.5875 134.93C34.5875 134.93 36.0275 125.922 37.7735 125.783C39.5195 125.643 39.1505 131.645 39.1505 131.645C39.1505 131.645 39.4385 128.686 40.8065 128.821C42.1745 128.956 40.8065 134.93 40.8065 134.93C40.8065 134.93 42.449 130.27 44.0015 130.354C45.554 130.438 42.971 138.793 42.971 138.793C42.971 138.793 46.958 135.802 48.5735 137.265C50.189 138.728 47.6735 142.419 47.6735 142.419C47.6735 142.419 53.393 141.133 54.2795 144.604" stroke="#263238" stroke-linecap="round" stroke-linejoin="round"/>
<path d="M54.2969 141.24C54.2969 141.24 56.7899 139.548 58.7474 140.336C58.7474 140.336 57.5009 138.369 58.7474 137.167C59.9939 135.965 61.5959 140.336 61.5959 140.336C61.5959 140.336 61.7759 133.015 64.2689 133.383C66.7619 133.751 64.2689 140.336 64.2689 140.336C64.2689 140.336 68.7194 136.254 69.7859 137.675C70.8524 139.096 69.0749 141.24 69.0749 141.24C69.0749 141.24 71.7434 140.355 73.7009 142.419C73.7009 142.419 76.6844 139.264 80.0009 138.812C80.0009 138.812 77.7959 132.186 78.8669 130.848C79.9379 129.511 81.8729 136.631 81.8729 136.631C81.8729 136.631 82.7234 131.999 85.5089 131.645C85.5089 131.645 83.1869 130.336 83.8754 128.36C84.5639 126.384 87.7679 128.826 87.7679 128.826C87.7679 128.826 86.4494 125.345 88.5329 124.389C90.6164 123.434 91.4849 127.302 91.4849 127.302C91.4849 127.302 92.0654 123.248 94.5134 123.471C96.9614 123.695 96.1694 128.364 96.1694 128.364C96.1694 128.364 98.4779 124.636 99.7154 125.032C102.186 125.787 101.434 131.65 101.434 131.65C101.434 131.65 104.886 129.166 105.772 130.308C106.731 131.542 102.172 134.716 102.172 134.716C102.172 134.716 105.597 135.107 107.725 137.172" stroke="#263238" stroke-linecap="round" stroke-linejoin="round"/>
<path d="M118.164 129.697C118.164 129.697 117.772 125.969 114.177 125.783C110.581 125.596 115.167 133.938 115.167 133.938C115.167 133.938 112.201 131.398 111.139 132.181C110.077 132.964 114.177 137.265 114.177 137.265C114.177 137.265 112.21 135.401 110.127 135.965C108.043 136.529 111.31 142.536 111.31 142.536C108.231 141.892 105.033 142.279 102.18 143.64" stroke="#263238" stroke-linecap="round" stroke-linejoin="round"/>
<path d="M153.93 179.699V133.248H204.438" stroke="#263238" stroke-linecap="round" stroke-linejoin="round"/>
<path d="M202.601 138.052H157.992V181.321" stroke="#263238" stroke-linecap="round" stroke-linejoin="round"/>
<path d="M166.922 161.651V142.419H169.842V146.385H173.739V144.604H177.222V146.762H181.925V142.419H186.735V145.336H189.327V143.64H193.971V154.968" stroke="#263238" stroke-linecap="round" stroke-linejoin="round"/>
<path d="M189.328 145.336V161.651" stroke="#263238" stroke-linecap="round" stroke-linejoin="round"/>
<path d="M187.109 147.778V150.69" stroke="#263238" stroke-linecap="round" stroke-linejoin="round"/>
<path d="M187.109 152.778V164.74" stroke="#263238" stroke-linecap="round" stroke-linejoin="round"/>
<path d="M181.922 146.767V157.513" stroke="#263238" stroke-linecap="round" stroke-linejoin="round"/>
<path d="M182.102 161.054V164.4" stroke="#263238" stroke-linecap="round" stroke-linejoin="round"/>
<path d="M177.219 146.767V152.778" stroke="#263238" stroke-linecap="round" stroke-linejoin="round"/>
<path d="M177.219 156.473V169.139" stroke="#263238" stroke-linecap="round" stroke-linejoin="round"/>
<path d="M173.742 146.385V161.315" stroke="#263238" stroke-linecap="round" stroke-linejoin="round"/>
<path d="M169.844 146.385V152.032" stroke="#263238" stroke-linecap="round" stroke-linejoin="round"/>
<path d="M169.844 154.968V168.394" stroke="#263238" stroke-linecap="round" stroke-linejoin="round"/>
<path d="M166.922 164.4V170.463" stroke="#263238" stroke-linecap="round" stroke-linejoin="round"/>
<path d="M160.898 170.463H196.349" stroke="#263238" stroke-linecap="round" stroke-linejoin="round"/>
<path d="M189.328 170.463V166.581" stroke="#263238" stroke-linecap="round" stroke-linejoin="round"/>
<path d="M182.102 167.606V170.281" stroke="#263238" stroke-linecap="round" stroke-linejoin="round"/>
<path d="M194.367 148.621H197.805" stroke="#263238" stroke-linecap="round" stroke-linejoin="round"/>
<path d="M161.031 173.846H193.971" stroke="#263238" stroke-linecap="round" stroke-linejoin="round"/>
<path d="M168.102 183.711V179.191H174.204V182.103H179.113V187.784H181.926V179.363H188.158V181.321H191.988" stroke="#263238" stroke-linecap="round" stroke-linejoin="round"/>
<path d="M188.156 181.321V186.167" stroke="#263238" stroke-linecap="round" stroke-linejoin="round"/>
<path d="M182.102 189.834V193.096" stroke="#263238" stroke-linecap="round" stroke-linejoin="round"/>
<path d="M179.109 187.784V192.08" stroke="#263238" stroke-linecap="round" stroke-linejoin="round"/>
<path d="M174.203 182.104V184.569" stroke="#263238" stroke-linecap="round" stroke-linejoin="round"/>
<path d="M202.752 34.0972H94.9141V111.253H202.752V34.0972Z" fill="#FFF3AC" stroke="#263238" stroke-linecap="round" stroke-linejoin="round"/>
<path d="M202.752 34.0972H94.9141V41.7256H202.752V34.0972Z" fill="#263238"/>
<path d="M138.599 86.9975L136.07 83.3533C136.069 82.5923 136.032 81.8317 135.957 81.0746C135.863 80.7344 134.328 78.232 134.292 77.6402C134.286 77.3576 134.252 77.0764 134.189 76.8014C134.189 76.8014 133.401 77.0064 133.41 77.505C133.419 78.0037 133.505 79.6859 133.505 79.6859C133.505 79.6859 131.453 78.4464 131.223 78.1202C130.994 77.794 128.492 75.8927 128.258 75.6084C128.024 75.3242 127.07 75.3055 126.957 75.6084L127.092 75.9579L126.305 76.3447L126.831 77.9617C126.681 78.3257 126.589 78.7131 126.561 79.1081C126.647 79.3085 126.926 80.5061 126.926 80.5061C126.926 80.5061 126.755 80.6878 126.777 81.3216C126.8 81.9553 130.161 85.194 130.827 85.5435C131.623 85.8896 132.437 86.1868 133.266 86.4336L135.377 89.2622L138.599 86.9975Z" fill="white" stroke="#263238" stroke-linecap="round" stroke-linejoin="round"/>
<path d="M133.501 79.686C133.109 80.612 133.008 81.6425 133.213 82.6312" stroke="#263238" stroke-linecap="round" stroke-linejoin="round"/>
<path d="M127.086 75.958C127.765 76.2283 128.616 77.5424 129.007 77.9478C129.362 78.2786 129.741 78.5793 130.141 78.8472" stroke="#263238" stroke-linecap="round" stroke-linejoin="round"/>
<path d="M126.828 77.9477C127.386 77.8266 127.764 78.0502 127.751 78.6141C127.737 79.178 128.943 80.0354 128.943 80.0354" stroke="#263238" stroke-linecap="round" stroke-linejoin="round"/>
<path d="M126.922 80.4921C126.922 80.4921 127.313 79.7698 127.624 80.1007C127.934 80.4315 128.033 81.2796 128.605 81.4567" stroke="#263238" stroke-linecap="round" stroke-linejoin="round"/>
<path d="M171.488 83.0364C171.488 83.0364 162.609 83.6049 160.652 84.4344C159.045 85.1194 147.746 92.8224 147.746 92.8224C147.746 92.8224 141.099 87.6312 139.169 85.8324C138.797 85.646 138.396 85.5263 137.985 85.4782L136.973 84.8119L134.484 88.442L135.182 89.4439C135.182 89.4439 135.294 91.0609 135.605 91.4663C139.736 96.8393 147.647 104.361 148.835 105.102C150.023 105.842 160.562 99.3837 160.562 99.3837L162.519 111.267H193.952C193.952 111.267 193.871 90.4132 192.548 88.8148C191.225 87.2164 176.06 80.9487 176.06 80.9487L171.488 83.0364Z" fill="#757575" stroke="#263238" stroke-linecap="round" stroke-linejoin="round"/>
<path d="M182.101 75.4919C182.101 75.4919 179.284 77.4491 180.778 83.7029C180.778 83.7029 176.534 86.8437 172.336 83.6749C172.336 83.6749 173.303 78.6887 172.336 77.6868" fill="white"/>
<path d="M182.101 75.4919C182.101 75.4919 179.284 77.4491 180.778 83.7029C180.778 83.7029 176.534 86.8437 172.336 83.6749C172.336 83.6749 173.303 78.6887 172.336 77.6868" stroke="#263238" stroke-linecap="round" stroke-linejoin="round"/>
<path d="M191.986 89.7842C191.986 89.7842 188.156 94.3463 187.711 102.156" stroke="#263238" stroke-linecap="round" stroke-linejoin="round"/>
<path d="M175.132 62.9613C175.132 62.9613 172.621 62.5698 171.743 65.7573C171.232 67.7094 171.439 69.7884 172.324 71.5916L176.941 67.104L175.132 62.9613Z" fill="#263238"/>
<path d="M181.242 77.3932C184.477 73.3949 186.763 66.7311 181.903 64.0703C172.525 58.935 169.425 68.9679 171 78.2879C171.486 81.1632 175.257 79.8817 178.015 78.8425" fill="white"/>
<path d="M181.242 77.3932C184.477 73.3949 186.763 66.7311 181.903 64.0703C172.525 58.935 169.425 68.9679 171 78.2879C171.486 81.1632 175.257 79.8817 178.015 78.8425" stroke="#263238" stroke-linecap="round" stroke-linejoin="round"/>
<path d="M174.688 68.7024C174.688 68.7024 176.235 69.1358 176.627 69.9932" stroke="#263238" stroke-linecap="round" stroke-linejoin="round"/>
<path d="M172.45 68.2782C172.267 68.1851 172.065 68.1422 171.861 68.1537C171.658 68.1651 171.461 68.2304 171.289 68.3434" stroke="#263238" stroke-linecap="round" stroke-linejoin="round"/>
<path d="M174.66 70.9111C174.633 71.1953 174.754 71.4423 174.93 71.461C175.105 71.4796 175.272 71.2606 175.299 70.995C175.326 70.7293 175.204 70.459 175.029 70.4404C174.853 70.4218 174.687 70.6221 174.66 70.9111Z" fill="#263238"/>
<path d="M171.307 70.049C171.285 70.3379 171.406 70.5849 171.582 70.6035C171.757 70.6222 171.924 70.4031 171.951 70.1375C171.978 69.8719 171.856 69.6063 171.676 69.5877C171.496 69.569 171.334 69.7647 171.307 70.049Z" fill="#263238"/>
<path d="M179.794 72.7798C179.794 72.7798 178.34 74.9607 177.364 75.6597C176.733 76.0781 175.973 76.2345 175.235 76.0977C175.235 76.0977 173.989 74.504 172.171 74.4807C171.7 74.1704 171.165 73.9804 170.609 73.9262L170.713 71.4937C170.713 71.4937 169.331 76.7082 169.462 78.5769C169.592 80.4455 174.029 81.741 176.248 81.2191C178.466 80.6972 179.596 77.1229 180.271 73.7631C180.32 73.4835 179.794 72.7798 179.794 72.7798Z" fill="#263238"/>
<path d="M170.883 75.6831C170.883 75.6831 172.638 76.5545 174.199 76.3495" stroke="white" stroke-linecap="round" stroke-linejoin="round"/>
<path d="M181.247 66.1347C181.823 65.6687 180.347 63.6649 179.519 63.7068C178.691 63.7488 174.628 63.9072 174.628 63.9072C174.628 63.9072 173.773 59.2752 180.613 61.7776C181.733 62.1877 182.093 63.2735 183.097 63.828C184.1 64.3825 185.459 67.2997 185.072 69.7881C184.685 72.2766 183.403 76.643 181.076 77.9524C181.076 77.9524 180.275 77.8686 180.761 77.2954C183.052 74.6252 180.653 69.6017 180.271 73.7538L179.465 73.2552C179.459 72.7992 179.504 72.3441 179.6 71.8991C179.771 70.7574 178.552 68.4227 181.247 66.1347Z" fill="#263238"/>
<path d="M180.901 72.4768C180.901 72.4768 182.373 70.6688 183.264 71.2839C184.155 71.899 183.556 74.0799 183.079 74.6251C182.602 75.1703 182.215 75.2915 181.554 76.1629C180.892 77.0343 180.06 76.7407 180.204 76.0417" fill="white"/>
<path d="M180.901 72.4768C180.901 72.4768 182.373 70.6688 183.264 71.2839C184.155 71.899 183.556 74.0799 183.079 74.6251C182.602 75.1703 182.215 75.2915 181.554 76.1629C180.892 77.0343 180.06 76.7407 180.204 76.0417" stroke="#263238" stroke-linecap="round" stroke-linejoin="round"/>
<path d="M176.404 71.1441C176.453 72.1554 175.859 73.0081 175.054 73.0501C174.248 73.092 173.591 72.3091 173.542 71.2979C173.492 70.2867 174.086 69.4339 174.892 69.392C175.697 69.3501 176.345 70.1329 176.404 71.1441Z" stroke="#263238" stroke-width="0.5" stroke-miterlimit="10"/>
<path d="M172.254 70.2262C172.308 71.2374 171.709 72.0902 170.926 72.1368C170.143 72.1834 169.464 71.3912 169.41 70.38C169.356 69.3687 169.959 68.516 170.76 68.474C171.561 68.4321 172.204 69.215 172.254 70.2262Z" stroke="#263238" stroke-width="0.5" stroke-miterlimit="10"/>
<path d="M172.679 69.3594C172.679 69.8254 170.348 72.5794 170.321 73.1852C170.294 73.791 172.49 73.8283 172.49 73.8283" fill="white"/>
<path d="M172.679 69.3594C172.679 69.8254 170.348 72.5794 170.321 73.1852C170.294 73.791 172.49 73.8283 172.49 73.8283" stroke="#263238" stroke-linecap="round" stroke-linejoin="round"/>
<path d="M172.25 70.2261C172.25 70.2261 172.948 70.0443 173.533 71.0183" stroke="#263238" stroke-width="0.5" stroke-miterlimit="10"/>
<path d="M176.406 71.4983L177.162 71.6148L181.406 71.9224" stroke="#263238" stroke-width="0.5" stroke-miterlimit="10"/>
<path d="M189.322 92.2679L188.476 91.1821C188.476 91.1821 181.348 92.0256 178.198 96.4246C178.198 96.4246 172.348 93.5634 167.083 94.9567L166.93 96.9093L178.445 104.044L182.945 102.105L189.322 92.2679Z" fill="white" stroke="#263238" stroke-linecap="round" stroke-linejoin="round"/>
<path d="M190.478 91.6108L189.263 99.9988C189.263 99.9988 182.558 103.046 181.163 105.498L180.83 105.544L179.255 105.773L178.404 105.512C176.323 104.884 174.204 104.405 172.059 104.076C171.315 103.957 170.56 103.928 169.809 103.988L165.273 96.6669C165.273 96.6669 172.289 95.6604 177.14 97.3799L179.462 97.2122L179.547 97.1376C180.245 96.5458 185.132 92.5242 190.478 91.6108Z" fill="#FFD900"/>
<mask id="mask0_2249_28436" style="mask-type:luminance" maskUnits="userSpaceOnUse" x="165" y="91" width="26" height="15">
<path d="M190.478 91.6108L189.263 99.9988C189.263 99.9988 182.558 103.046 181.163 105.498L180.83 105.544L179.255 105.773L178.404 105.512C176.323 104.884 174.204 104.405 172.059 104.076C171.315 103.957 170.56 103.928 169.809 103.988L165.273 96.6669C165.273 96.6669 172.289 95.6604 177.14 97.3799L179.462 97.2122L179.547 97.1376C180.245 96.5458 185.132 92.5242 190.478 91.6108Z" fill="white"/>
</mask>
<g mask="url(#mask0_2249_28436)">
<path opacity="0.3" d="M180.739 103.587L179.547 97.1329C180.24 96.5458 185.127 92.5242 190.473 91.6108L189.258 99.9988C189.258 99.9988 182.553 103.046 181.158 105.498L180.825 105.544L180.739 103.587Z" fill="black" fill-opacity="0.7"/>
<path opacity="0.3" d="M178.431 104.044L178.4 105.507C176.319 104.88 174.199 104.4 172.055 104.072C172.15 102.591 172.709 101.184 173.647 100.063C174.585 98.9415 175.851 98.1681 177.252 97.8599L178.431 104.044Z" fill="black" fill-opacity="0.7"/>
</g>
<path d="M190.478 91.6108L189.263 99.9988C189.263 99.9988 182.558 103.046 181.163 105.498L180.83 105.544L179.255 105.773L178.404 105.512C176.323 104.884 174.204 104.405 172.059 104.076C171.315 103.957 170.56 103.928 169.809 103.988L165.273 96.6669C165.273 96.6669 172.289 95.6604 177.14 97.3799L179.462 97.2122L179.547 97.1376C180.245 96.5458 185.132 92.5242 190.478 91.6108Z" stroke="#263238" stroke-linecap="round" stroke-linejoin="round"/>
<path d="M180.712 107.543C178.309 107.385 173.737 103.573 173.737 103.573C173.462 102.862 173.076 102.202 172.594 101.62C171.942 100.945 172.81 100.381 172.81 100.381C172.81 100.381 172.05 99.873 171.618 99.5934C171.186 99.3138 171.942 98.5775 171.942 98.5775C171.942 98.5775 175.204 99.0435 175.542 98.9177C175.879 98.7919 179.011 100.889 179.497 100.945C180.157 100.957 180.808 100.782 181.378 100.437C181.702 100.157 182.706 98.4097 183.358 98.0696C184.011 97.7294 185.158 97.7341 184.609 98.4657C184.06 99.1973 184.159 100.828 183.889 101.057C183.619 101.285 183.174 103.736 183.174 104.58L186.729 107.944L184.704 110.801L180.712 107.543Z" fill="white" stroke="#263238" stroke-linecap="round" stroke-linejoin="round"/>
<path d="M172.797 100.381C173.436 100.455 174.059 100.636 174.642 100.917" stroke="#263238" stroke-linecap="round" stroke-linejoin="round"/>
<path d="M175.22 101.714C175.22 101.714 175.018 102.567 174.964 102.697C174.91 102.828 175.634 103.662 175.531 104.044C175.427 104.426 176.264 105.442 176.264 105.442" stroke="#263238" stroke-linecap="round" stroke-linejoin="round"/>
<path d="M174.402 102.697C173.776 102.386 173.175 102.026 172.602 101.621" stroke="#263238" stroke-linecap="round" stroke-linejoin="round"/>
<path d="M172.662 81.4753L174.219 84.7234L180.618 81.0513L182.026 84.304L175.497 88.5958L174.241 85.236L171.703 87.7663L170.844 83.6749L172.662 81.4753Z" fill="#757575" stroke="#263238" stroke-linecap="round" stroke-linejoin="round"/>
<path d="M192.568 88.801C194.12 90.5206 199.642 103.131 200.173 111.253H183.352V110.526L181.516 109.412C181.516 109.412 182.654 105.265 185.899 105.913L186.844 107.311L188.936 108.942C188.936 108.942 192.608 109.039 193.675 110.135" fill="#757575"/>
<path d="M192.568 88.801C194.12 90.5206 199.642 103.131 200.173 111.253H183.352V110.526L181.516 109.412C181.516 109.412 182.654 105.265 185.899 105.913L186.844 107.311L188.936 108.942C188.936 108.942 192.608 109.039 193.675 110.135" stroke="#263238" stroke-linecap="round" stroke-linejoin="round"/>
<path d="M188.93 108.96C188.93 108.96 190.968 105.917 193.965 107.203" stroke="#263238" stroke-linecap="round" stroke-linejoin="round"/>
<path d="M188.156 104.044C188.81 105.301 189.393 106.598 189.902 107.925" stroke="#263238" stroke-linecap="round" stroke-linejoin="round"/>
<path d="M160.562 99.3698C160.562 99.3698 159.316 91.8486 159.662 89.2483L160.562 99.3698Z" fill="#757575"/>
<path d="M160.562 99.3698C160.562 99.3698 159.316 91.8486 159.662 89.2483" stroke="#263238" stroke-linecap="round" stroke-linejoin="round"/>
<path d="M158.07 92.1794C158.07 92.1794 158.763 95.8748 160.32 97.8553L158.07 92.1794Z" fill="#757575"/>
<path d="M158.07 92.1794C158.07 92.1794 158.763 95.8748 160.32 97.8553" stroke="#263238" stroke-linecap="round" stroke-linejoin="round"/>
<path d="M147.742 92.8271C147.742 92.8271 149.7 94.5047 148.453 98.6894L147.742 92.8271Z" fill="#757575"/>
<path d="M147.742 92.8271C147.742 92.8271 149.7 94.5047 148.453 98.6894" stroke="#263238" stroke-linecap="round" stroke-linejoin="round"/>
<path d="M173.924 87.8968C173.924 87.9836 173.899 88.0685 173.853 88.1406C173.806 88.2128 173.74 88.2689 173.662 88.3019C173.584 88.3349 173.499 88.3433 173.417 88.3261C173.335 88.3088 173.259 88.2666 173.2 88.2049C173.141 88.1431 173.102 88.0647 173.086 87.9794C173.07 87.8941 173.079 87.8059 173.112 87.7259C173.144 87.646 173.199 87.5779 173.269 87.5303C173.34 87.4828 173.422 87.4578 173.506 87.4588C173.561 87.4588 173.616 87.4701 173.667 87.4922C173.718 87.5143 173.764 87.5466 173.803 87.5873C173.842 87.6281 173.873 87.6764 173.894 87.7295C173.914 87.7826 173.925 87.8395 173.924 87.8968Z" fill="#263238"/>
<path d="M172.814 94.3089C173.047 94.3089 173.237 94.1128 173.237 93.8709C173.237 93.629 173.047 93.4329 172.814 93.4329C172.58 93.4329 172.391 93.629 172.391 93.8709C172.391 94.1128 172.58 94.3089 172.814 94.3089Z" fill="#263238"/>
<path d="M172.173 107.763C172.407 107.763 172.596 107.566 172.596 107.325C172.596 107.083 172.407 106.886 172.173 106.886C171.939 106.886 171.75 107.083 171.75 107.325C171.75 107.566 171.939 107.763 172.173 107.763Z" fill="#263238"/>
<path d="M117.424 67.7935H122.725L125.38 63.0357L122.725 58.2825H117.424L114.773 63.0357L117.424 67.7935Z" stroke="#263238" stroke-linecap="round" stroke-linejoin="round"/>
<path d="M116.655 78.2227L114.004 73.4695H108.703" stroke="#263238" stroke-linecap="round" stroke-linejoin="round"/>
<path d="M109.416 63.0357H114.717L117.368 58.2825L114.717 53.5247H109.416L106.766 58.2825L109.416 63.0357Z" stroke="#263238" stroke-linecap="round" stroke-linejoin="round"/>
<path d="M117.424 58.2825H122.725L125.38 53.5247L122.725 48.7715H117.424L114.773 53.5247L117.424 58.2825Z" stroke="#263238" stroke-linecap="round" stroke-linejoin="round"/>
<path d="M116.656 58.2825C116.655 58.1355 116.697 57.9916 116.775 57.8691C116.853 57.7465 116.965 57.6508 117.096 57.5942C117.227 57.5375 117.371 57.5224 117.51 57.5509C117.649 57.5793 117.777 57.65 117.878 57.7539C117.978 57.8578 118.046 57.9902 118.074 58.1344C118.101 58.2786 118.087 58.4279 118.032 58.5635C117.977 58.6991 117.885 58.8147 117.766 58.8958C117.648 58.9769 117.509 59.0197 117.367 59.0187C117.179 59.0187 116.998 58.9412 116.865 58.8031C116.731 58.665 116.656 58.4777 116.656 58.2825Z" fill="#263238"/>
<path d="M106.297 49.037C106.69 49.037 107.008 48.7074 107.008 48.3007C107.008 47.8941 106.69 47.5645 106.297 47.5645C105.904 47.5645 105.586 47.8941 105.586 48.3007C105.586 48.7074 105.904 49.037 106.297 49.037Z" fill="#263238"/>
<path d="M115.945 78.2226C115.945 78.077 115.987 77.9346 116.065 77.8135C116.143 77.6925 116.254 77.5981 116.384 77.5424C116.514 77.4866 116.657 77.4721 116.795 77.5005C116.933 77.5289 117.06 77.599 117.159 77.702C117.259 77.8049 117.326 77.9361 117.354 78.079C117.381 78.2218 117.367 78.3698 117.313 78.5044C117.259 78.6389 117.168 78.7539 117.051 78.8348C116.934 78.9157 116.797 78.9589 116.656 78.9589C116.468 78.9589 116.287 78.8813 116.154 78.7432C116.02 78.6052 115.945 78.4179 115.945 78.2226Z" fill="#263238"/>
<path d="M108.703 74.2057C109.096 74.2057 109.414 73.8761 109.414 73.4694C109.414 73.0628 109.096 72.7332 108.703 72.7332C108.311 72.7332 107.992 73.0628 107.992 73.4694C107.992 73.8761 108.311 74.2057 108.703 74.2057Z" fill="#263238"/>
<path d="M130.5 53.6506C130.5 53.5039 130.542 53.3604 130.621 53.2385C130.7 53.1165 130.812 53.0216 130.943 52.9656C131.074 52.9097 131.218 52.8953 131.357 52.9242C131.496 52.9532 131.623 53.0243 131.723 53.1283C131.823 53.2324 131.891 53.3649 131.918 53.5089C131.945 53.653 131.93 53.8021 131.875 53.9374C131.82 54.0727 131.728 54.1881 131.61 54.2689C131.491 54.3498 131.353 54.3925 131.211 54.3915C131.117 54.3915 131.024 54.3723 130.938 54.335C130.851 54.2978 130.773 54.2431 130.707 54.1742C130.641 54.1054 130.588 54.0237 130.553 53.9338C130.517 53.8439 130.499 53.7477 130.5 53.6506Z" fill="#263238"/>
<path d="M113.945 74.2057C114.338 74.2057 114.656 73.8761 114.656 73.4694C114.656 73.0628 114.338 72.7332 113.945 72.7332C113.553 72.7332 113.234 73.0628 113.234 73.4694C113.234 73.8761 113.553 74.2057 113.945 74.2057Z" fill="#263238"/>
<path d="M124.648 53.6506C124.648 53.5041 124.69 53.3608 124.769 53.239C124.848 53.1171 124.959 53.0222 125.09 52.9661C125.221 52.91 125.365 52.8953 125.504 52.9239C125.642 52.9525 125.77 53.0231 125.87 53.1267C125.97 53.2303 126.038 53.3623 126.066 53.5061C126.093 53.6498 126.079 53.7988 126.025 53.9342C125.971 54.0695 125.879 54.1853 125.761 54.2667C125.644 54.3481 125.505 54.3915 125.364 54.3915C125.174 54.3915 124.992 54.3135 124.858 54.1745C124.724 54.0356 124.648 53.8471 124.648 53.6506Z" fill="#263238"/>
<path d="M116.656 67.7937C116.655 67.6467 116.697 67.5029 116.775 67.3803C116.853 67.2577 116.965 67.162 117.096 67.1054C117.227 67.0487 117.371 67.0337 117.51 67.0621C117.649 67.0905 117.777 67.1612 117.878 67.2651C117.978 67.369 118.046 67.5015 118.074 67.6456C118.101 67.7898 118.087 67.9391 118.032 68.0747C117.977 68.2103 117.885 68.326 117.766 68.407C117.648 68.4881 117.509 68.5309 117.367 68.53C117.179 68.5287 116.999 68.4508 116.866 68.313C116.733 68.1751 116.657 67.9886 116.656 67.7937Z" fill="#263238"/>
<path d="M125.383 53.6506H131.219" stroke="#263238" stroke-linecap="round" stroke-linejoin="round"/>
<path d="M117.361 67.7937L113.945 73.4696" stroke="#263238" stroke-linecap="round" stroke-linejoin="round"/>
<path d="M109.415 53.5246L106.297 48.3008" stroke="#263238" stroke-linecap="round" stroke-linejoin="round"/>
<path d="M103.305 90.7722C103.783 90.3266 104.319 89.9532 104.898 89.6631C104.921 89.8127 104.999 89.9473 105.115 90.0392C105.232 90.1311 105.378 90.1733 105.523 90.157C105.843 90.1058 106.203 89.7796 106.423 90.0172C106.513 90.1104 106.531 90.2596 106.626 90.3481C106.914 90.623 107.404 90.0312 107.728 90.2549C107.814 90.3155 107.859 90.418 107.949 90.4786C108.02 90.5104 108.096 90.5268 108.174 90.5268C108.251 90.5268 108.328 90.5104 108.399 90.4786C109.203 90.2889 110.028 90.2152 110.851 90.2596L114.627 90.2875L114.339 90.1337" stroke="#263238" stroke-linecap="round" stroke-linejoin="round"/>
<path d="M103.102 94.0341C103.133 93.881 103.215 93.744 103.334 93.647C103.453 93.55 103.6 93.4991 103.751 93.5029C103.903 93.5068 104.048 93.5653 104.161 93.6682C104.275 93.7712 104.351 93.9121 104.375 94.0667C104.469 94.0216 104.552 93.9568 104.62 93.8766C104.688 93.7964 104.74 93.7025 104.771 93.6007C105.014 94.1646 105.766 94.2112 106.364 94.1692L109.033 93.9735C109.834 93.9129 110.77 93.7638 111.13 93.0415C111.525 93.789 111.683 94.6469 111.58 95.4927C111.827 94.8839 112.149 94.3107 112.538 93.7871C112.619 94.0853 112.7 94.3836 112.777 94.6818C114.635 93.3351 117.178 94.2158 119.428 93.9222" stroke="#263238" stroke-linecap="round" stroke-linejoin="round"/>
<path d="M103.338 98.354C103.329 98.2682 103.352 98.1823 103.401 98.1126C103.45 98.0429 103.522 97.9944 103.603 97.9765C103.628 98.061 103.67 98.1393 103.726 98.2065C103.781 98.2737 103.849 98.3284 103.926 98.3673C104.003 98.4062 104.086 98.4283 104.172 98.4325C104.257 98.4366 104.342 98.4225 104.422 98.3912C104.743 98.2516 105.018 98.0185 105.214 97.7202C105.281 97.7766 105.359 97.8175 105.443 97.8402C105.526 97.8629 105.614 97.8669 105.699 97.8519C105.784 97.8369 105.865 97.8033 105.937 97.7533C106.008 97.7032 106.069 97.6379 106.114 97.5618C106.315 97.8984 106.481 98.2561 106.609 98.6289C106.852 97.9858 107.676 97.8833 108.346 97.888H113.746" stroke="#263238" stroke-linecap="round" stroke-linejoin="round"/>
<path d="M145.084 47.6344C143.795 47.602 142.531 48.0061 141.484 48.7854C140.188 49.6428 138.955 51.0874 139.279 52.6439C139.603 54.2003 141.376 55.0251 142.937 55.3374C144.28 55.6082 145.647 55.7331 147.014 55.7102C147.541 55.7184 148.067 55.6605 148.58 55.5377C149.099 55.3855 149.603 55.181 150.083 54.9273L153.566 53.231C154.043 52.998 154.579 52.6998 154.709 52.1686C154.871 51.5115 154.327 50.901 153.809 50.5049C151.855 49.0571 149.443 48.4278 147.059 48.7435" stroke="#263238" stroke-linecap="round" stroke-linejoin="round"/>
<path d="M140.945 51.1202C141.15 50.8821 141.415 50.7078 141.71 50.6169C141.652 50.7952 141.652 50.9886 141.71 51.1668C141.791 51.3346 142.039 51.4185 142.16 51.2787C142.282 51.1389 142.309 50.9152 142.444 50.9851L142.606 51.3579C142.826 51.2787 142.997 51.0923 143.213 50.9944C143.459 50.909 143.721 50.8834 143.978 50.9198C145.91 51.0225 147.847 50.9618 149.77 50.7381" stroke="#263238" stroke-linecap="round" stroke-linejoin="round"/>
<path d="M144.094 53.124C144.122 53.0288 144.171 52.9417 144.238 52.8697C144.304 52.7976 144.386 52.7427 144.476 52.7093C144.373 52.8258 144.499 53.0261 144.652 53.0541C144.807 53.057 144.961 53.0235 145.102 52.9562C145.272 52.9106 145.448 52.8856 145.624 52.8817L148.904 52.6487" stroke="#263238" stroke-linecap="round" stroke-linejoin="round"/>
<path d="M145.493 57.8584C144.544 61.3612 142.577 64.4762 139.858 66.7799C137.139 69.0837 133.8 70.4643 130.297 70.734" stroke="#263238" stroke-linecap="round" stroke-linejoin="round"/>
<path d="M130.35 69.7229C129.714 70.1301 129.147 70.6434 128.672 71.2421C128.953 71.1812 129.244 71.202 129.514 71.3024C129.785 71.4027 130.022 71.5787 130.202 71.8106" stroke="#263238" stroke-linecap="round" stroke-linejoin="round"/>
<path d="M144.414 70.832L144.824 71.764L145.409 71.0464C145.518 71.1309 145.595 71.2533 145.625 71.3912C145.67 71.5217 145.737 71.6662 145.863 71.7034C145.989 71.7407 146.147 71.5637 146.052 71.4658C146.135 71.5238 146.229 71.5626 146.327 71.5795C146.426 71.5964 146.527 71.591 146.624 71.5637C146.709 71.5637 146.786 71.4984 146.871 71.4751C146.973 71.452 147.077 71.4426 147.182 71.4472H153.261" stroke="#263238" stroke-linecap="round" stroke-linejoin="round"/>
<path d="M144.695 75.958C144.724 75.8834 144.771 75.8176 144.831 75.7672C144.892 75.7168 144.963 75.6834 145.04 75.6703C145.117 75.6572 145.195 75.6648 145.268 75.6923C145.341 75.7199 145.405 75.7664 145.456 75.8275C145.476 75.8872 145.506 75.9425 145.546 75.9906C145.6 76.0302 145.667 76.0474 145.732 76.0388C145.798 76.0302 145.858 75.9964 145.901 75.944C146 75.8508 146.063 75.725 146.167 75.6411C146.45 75.4128 146.855 75.5899 147.202 75.6877C147.645 75.7838 148.101 75.809 148.552 75.7623L152.003 75.5759" stroke="#263238" stroke-linecap="round" stroke-linejoin="round"/>
<path d="M144.805 79.9189C144.92 79.922 145.032 79.8851 145.124 79.8142C145.216 79.7432 145.283 79.6422 145.313 79.5274C145.37 79.5374 145.423 79.565 145.465 79.6065C145.507 79.6481 145.535 79.7017 145.547 79.7604C145.712 79.6546 145.854 79.5132 145.961 79.3457C148.184 79.3737 150.41 79.3737 152.639 79.3457" stroke="#263238" stroke-linecap="round" stroke-linejoin="round"/>
<path d="M144.805 82.878C144.942 82.9369 145.096 82.941 145.237 82.8894C145.377 82.8377 145.494 82.7341 145.565 82.5984C145.706 82.7167 145.805 82.8809 145.844 83.0644C145.933 83.0022 146.033 82.9597 146.138 82.9396C146.244 82.9196 146.352 82.9224 146.456 82.9479C146.542 82.9479 146.627 83.0085 146.713 83.0318C146.929 83.089 147.152 83.1095 147.374 83.0923L155.132 82.9758" stroke="#263238" stroke-linecap="round" stroke-linejoin="round"/>
<path d="M123.973 101.718L127.496 101.364C127.531 101.369 127.566 101.365 127.598 101.352C127.63 101.339 127.659 101.318 127.681 101.29C127.704 101.263 127.719 101.23 127.726 101.195C127.733 101.16 127.731 101.124 127.721 101.089V98.7593C127.73 98.6819 127.711 98.604 127.667 98.5403C127.638 98.513 127.604 98.4919 127.567 98.4783C127.53 98.4647 127.491 98.4588 127.451 98.4611C126.686 98.3912 124.963 97.9951 124.301 98.531C123.64 99.0669 123.977 100.922 123.973 101.718Z" stroke="#263238" stroke-linecap="round" stroke-linejoin="round"/>
<path d="M124.977 99.6401C125.022 99.8592 125.062 100.078 125.107 100.302C125.641 100.186 126.189 100.157 126.732 100.213" stroke="#263238" stroke-linecap="round" stroke-linejoin="round"/>
<path d="M126.771 102.725C126.738 102.778 126.72 102.839 126.719 102.901C126.718 102.964 126.733 103.026 126.764 103.079C126.795 103.133 126.84 103.177 126.894 103.206C126.947 103.235 127.008 103.247 127.068 103.242C127.307 103.196 127.496 102.865 127.716 102.967" stroke="#263238" stroke-linecap="round" stroke-linejoin="round"/>
<path d="M124.352 97.352C124.396 97.2826 124.459 97.2281 124.533 97.1952C124.607 97.1623 124.688 97.1525 124.768 97.1668C124.847 97.1811 124.92 97.2191 124.979 97.2759C125.038 97.3328 125.079 97.4062 125.099 97.4871L125.945 97.3846" stroke="#263238" stroke-linecap="round" stroke-linejoin="round"/>
<path d="M131.372 105.078C132.572 105.078 133.772 105.078 134.972 105.078C135.905 105.091 136.837 105.033 137.762 104.906C137.866 104.9 137.964 104.857 138.041 104.785C138.105 104.69 138.132 104.573 138.117 104.458V98.7919C138.117 98.7267 132.605 98.5449 131.961 99.0063C130.665 99.9476 131.372 103.629 131.372 105.078Z" stroke="#263238" stroke-linecap="round" stroke-linejoin="round"/>
<path d="M133.32 100.469L134.18 100.493C134.025 101.098 133.781 101.675 133.455 102.203C133.338 102.366 133.199 102.571 133.284 102.753C133.734 102.827 134.261 102.869 134.544 102.511C134.913 102.045 134.589 101.313 134.868 100.791L134.976 101.895L135.35 102.264C135.447 102.376 135.569 102.462 135.705 102.515C135.774 102.54 135.848 102.539 135.916 102.514C135.984 102.488 136.041 102.44 136.079 102.375" stroke="#263238" stroke-linecap="round" stroke-linejoin="round"/>
<path d="M135.82 106.029C136.104 105.922 136.221 106.472 136.513 106.551C136.806 106.63 136.963 106.229 137.211 106.052C137.328 105.972 137.47 105.938 137.61 105.956C137.749 105.975 137.878 106.046 137.971 106.155" stroke="#263238" stroke-linecap="round" stroke-linejoin="round"/>
<path d="M133.5 97.063C133.77 97.1329 133.662 97.5989 133.864 97.7993C134.067 97.9996 134.404 97.7993 134.634 97.6082C134.863 97.4172 135.282 97.3333 135.367 97.6082" stroke="#263238" stroke-linecap="round" stroke-linejoin="round"/>
<path d="M202.752 111.146H94.9141V119.03H202.752V111.146Z" fill="#494949" stroke="#263238" stroke-linecap="round" stroke-linejoin="round"/>
<path d="M182.797 114.249H112.336V115.927H182.797V114.249Z" fill="#263238"/>
<path d="M152.297 115.102C152.297 115.344 152.227 115.581 152.097 115.783C151.967 115.984 151.782 116.142 151.566 116.234C151.35 116.327 151.112 116.351 150.882 116.304C150.653 116.257 150.442 116.14 150.276 115.969C150.111 115.797 149.998 115.579 149.952 115.341C149.907 115.103 149.93 114.857 150.02 114.633C150.109 114.409 150.261 114.218 150.456 114.083C150.65 113.948 150.879 113.876 151.113 113.876C151.427 113.876 151.728 114.006 151.95 114.235C152.172 114.465 152.297 114.777 152.297 115.102Z" fill="#FFD900" stroke="#263238" stroke-linecap="round" stroke-linejoin="round"/>
<path d="M199.26 113.578H196.344V116.598H199.26V113.578Z" stroke="#263238" stroke-linecap="round" stroke-linejoin="round"/>
<path d="M194.369 113.578H191.453V116.598H194.369V113.578Z" stroke="#263238" stroke-linecap="round" stroke-linejoin="round"/>
<path d="M103.331 113.545H98.25V116.63H103.331V113.545Z" stroke="#263238" stroke-linecap="round" stroke-linejoin="round"/>
<path d="M98.1953 37.9089H117.365" stroke="white" stroke-linecap="round" stroke-linejoin="round"/>
<path d="M200.017 37.8391C200.018 38.0708 199.952 38.2976 199.828 38.4907C199.705 38.6837 199.528 38.8344 199.322 38.9235C199.115 39.0126 198.888 39.0361 198.668 38.9911C198.449 38.9462 198.247 38.8347 198.089 38.6708C197.93 38.5069 197.823 38.2981 197.779 38.0708C197.736 37.8435 197.759 37.6079 197.845 37.394C197.931 37.1801 198.076 36.9974 198.263 36.8693C198.449 36.7411 198.668 36.6732 198.892 36.6741C199.19 36.6741 199.476 36.7968 199.687 37.0153C199.898 37.2338 200.017 37.5301 200.017 37.8391Z" stroke="white" stroke-linecap="round" stroke-linejoin="round"/>
<path d="M195.57 37.9091C195.57 38.1396 195.504 38.3648 195.381 38.5564C195.257 38.748 195.081 38.8973 194.876 38.9855C194.67 39.0736 194.444 39.0967 194.226 39.0518C194.008 39.0068 193.807 38.8958 193.65 38.7329C193.492 38.57 193.385 38.3624 193.342 38.1364C193.299 37.9104 193.321 37.6762 193.406 37.4633C193.491 37.2504 193.635 37.0685 193.82 36.9405C194.005 36.8125 194.223 36.7441 194.445 36.7441C194.744 36.7441 195.03 36.8669 195.241 37.0854C195.452 37.3038 195.57 37.6002 195.57 37.9091Z" stroke="white" stroke-linecap="round" stroke-linejoin="round"/>
<path d="M191.117 37.9836C191.116 38.2138 191.05 38.4386 190.925 38.6296C190.801 38.8206 190.625 38.9692 190.42 39.0566C190.214 39.1441 189.988 39.1665 189.77 39.121C189.552 39.0755 189.352 38.9642 189.195 38.8011C189.038 38.638 188.932 38.4304 188.888 38.2045C188.845 37.9787 188.868 37.7447 188.953 37.5321C189.039 37.3195 189.183 37.1378 189.368 37.01C189.553 36.8822 189.77 36.814 189.992 36.814C190.14 36.814 190.287 36.8443 190.424 36.9031C190.561 36.9619 190.685 37.0482 190.789 37.1568C190.894 37.2655 190.977 37.3945 191.033 37.5364C191.089 37.6782 191.118 37.8302 191.117 37.9836Z" stroke="white" stroke-linecap="round" stroke-linejoin="round"/>
<path d="M105.647 192.085H94.9914L89.2224 190.193L87.4224 189.601L86.8959 195.226L23.7969 195.347C23.7969 195.347 24.7599 192.831 26.3304 189.14C29.7189 181.176 35.9289 167.727 41.3604 162.233C45.7704 157.774 56.7864 157.648 56.7864 157.648C57.911 156.876 59.2305 156.464 60.5799 156.464C62.6049 156.567 77.9139 158.286 78.8634 158.794C79.5244 159.191 80.0917 159.735 80.5239 160.388C80.5239 160.388 85.8879 157.932 91.1574 160.146C96.4269 162.359 105.647 192.085 105.647 192.085Z" fill="#494949"/>
<mask id="mask1_2249_28436" style="mask-type:luminance" maskUnits="userSpaceOnUse" x="23" y="156" width="83" height="40">
<path d="M105.647 192.085H94.9914L89.2224 190.193L87.4224 189.601L86.8959 195.226L23.7969 195.347C23.7969 195.347 24.7599 192.831 26.3304 189.14C29.7189 181.176 35.9289 167.727 41.3604 162.233C45.7704 157.774 56.7864 157.648 56.7864 157.648C57.911 156.876 59.2305 156.464 60.5799 156.464C62.6049 156.567 77.9139 158.286 78.8634 158.794C79.5244 159.191 80.0917 159.735 80.5239 160.388C80.5239 160.388 85.8879 157.932 91.1574 160.146C96.4269 162.359 105.647 192.085 105.647 192.085Z" fill="white"/>
</mask>
<g mask="url(#mask1_2249_28436)">
<path opacity="0.2" d="M89.2224 190.193L87.4224 189.601L86.8959 195.226L23.7969 195.347C23.7969 195.347 24.7599 192.831 26.3304 189.14C28.7649 189.08 31.5099 188.949 31.5099 188.949L32.9229 184.163C32.9229 184.163 35.1414 181.735 37.9134 183.166C37.8209 182.804 37.8402 182.421 37.9685 182.071C38.0968 181.721 38.3277 181.421 38.6289 181.213C39.6999 180.477 44.0919 182.84 44.0919 182.84C44.0919 182.84 46.2069 178.646 46.9269 175.901C47.6469 173.156 48.1239 179.783 48.1239 179.783C48.1239 179.783 49.9239 176.735 49.9239 175.901C49.9239 175.067 53.2449 184.163 53.2449 184.163C53.2449 184.163 57.6369 184.708 58.8249 185.174C60.0129 185.64 71.8389 186.106 75.6459 185.174C79.4529 184.242 72.9459 189.834 72.9459 189.834C72.9459 189.834 79.6329 192.164 83.4129 190.636C87.1929 189.108 88.8849 187.472 88.8849 187.472C88.8849 187.472 89.0244 188.604 89.2224 190.193Z" fill="black" fill-opacity="0.7"/>
</g>
<path d="M105.647 192.085H94.9914L89.2224 190.193L87.4224 189.601L86.8959 195.226L23.7969 195.347C23.7969 195.347 24.7599 192.831 26.3304 189.14C29.7189 181.176 35.9289 167.727 41.3604 162.233C45.7704 157.774 56.7864 157.648 56.7864 157.648C57.911 156.876 59.2305 156.464 60.5799 156.464C62.6049 156.567 77.9139 158.286 78.8634 158.794C79.5244 159.191 80.0917 159.735 80.5239 160.388C80.5239 160.388 85.8879 157.932 91.1574 160.146C96.4269 162.359 105.647 192.085 105.647 192.085Z" stroke="#263238" stroke-linecap="round" stroke-linejoin="round"/>
<path d="M85.7452 177.714C84.8081 179.082 83.7391 180.348 82.5547 181.493" stroke="#263238" stroke-linecap="round" stroke-linejoin="round"/>
<path d="M79.4377 184.21C74.8532 187.717 69.465 189.925 63.8047 190.617" stroke="#263238" stroke-linecap="round" stroke-linejoin="round"/>
<path d="M99.1434 182.621C99.1434 182.621 100.781 181.567 102.217 181.912C103.652 182.257 104.84 183.725 104.84 183.725C104.84 183.725 116.756 182.704 119.461 182.793C122.165 182.882 128.218 184.718 128.218 184.718C128.218 184.718 131.152 184.102 131.467 184.228C131.782 184.354 130.832 194.695 130.832 194.695H92.1324C90.2334 194.695 88.8249 191.847 87.3984 189.611C89.856 180.71 91.1129 171.5 91.1334 162.242" fill="#494949"/>
<mask id="mask2_2249_28436" style="mask-type:luminance" maskUnits="userSpaceOnUse" x="87" y="162" width="45" height="33">
<path d="M99.1434 182.621C99.1434 182.621 100.781 181.567 102.217 181.912C103.652 182.257 104.84 183.725 104.84 183.725C104.84 183.725 116.756 182.704 119.461 182.793C122.165 182.882 128.218 184.718 128.218 184.718C128.218 184.718 131.152 184.102 131.467 184.228C131.782 184.354 130.832 194.695 130.832 194.695H92.1324C90.2334 194.695 88.8249 191.847 87.3984 189.611C89.856 180.71 91.1129 171.5 91.1334 162.242" fill="white"/>
</mask>
<g mask="url(#mask2_2249_28436)">
<path opacity="0.2" d="M109.762 194.685H92.1402C90.2412 194.685 88.8328 191.838 87.4062 189.601C88.8172 184.58 89.8211 179.445 90.4077 174.251C90.4077 174.251 92.2797 177.126 91.1412 180.458L92.2798 177.126C92.2798 177.126 93.3733 180.696 92.2798 183.72C91.1863 186.745 90.4077 187.611 90.4077 187.611C90.4077 187.611 91.7577 189.438 93.1887 188.949C94.6197 188.46 96.1767 191.423 96.1767 191.423C96.1767 191.423 99.6148 191.558 100.33 191.423C100.659 191.363 105.109 192.952 109.762 194.685Z" fill="black" fill-opacity="0.7"/>
</g>
<path d="M99.1434 182.621C99.1434 182.621 100.781 181.567 102.217 181.912C103.652 182.257 104.84 183.725 104.84 183.725C104.84 183.725 116.756 182.704 119.461 182.793C122.165 182.882 128.218 184.718 128.218 184.718C128.218 184.718 131.152 184.102 131.467 184.228C131.782 184.354 130.832 194.695 130.832 194.695H92.1324C90.2334 194.695 88.8249 191.847 87.3984 189.611C89.856 180.71 91.1129 171.5 91.1334 162.242" stroke="#263238" stroke-linecap="round" stroke-linejoin="round"/>
<path d="M77.0226 150.42V160.374C75.8041 161.233 74.5423 162.025 73.2426 162.746C70.6191 164.186 67.2531 165.612 65.2506 164.801C61.6191 163.324 59.2656 157.648 59.2656 157.648C63.1851 154.554 63.6576 150.42 64.2516 148.454L77.0226 150.42Z" fill="white" stroke="#263238" stroke-linecap="round" stroke-linejoin="round"/>
<path d="M57.3672 158.407C57.3672 158.407 60.6927 165.905 64.7292 167.261C68.7657 168.617 75.6012 163.324 75.6012 163.324" stroke="#263238" stroke-linecap="round" stroke-linejoin="round"/>
<path d="M39.2109 167.48C39.2109 167.48 45.5109 172.56 46.5684 174.27C47.6259 175.98 46.5684 192.085 46.5684 192.085" stroke="#263238" stroke-linecap="round" stroke-linejoin="round"/>
<path d="M30.6315 183.87C34.344 181.39 36.954 184.103 39.2085 184.592C41.463 185.081 46.449 182.444 50.1885 184.592C53.928 186.74 53.928 185.99 53.928 185.99C53.928 185.99 57.843 189.084 55.8225 195.277L23.7825 195.338C23.7825 195.338 21.645 190.608 28.6695 183.86" fill="#494949"/>
<path d="M30.6315 183.87C34.344 181.39 36.954 184.103 39.2085 184.592C41.463 185.081 46.449 182.444 50.1885 184.592C53.928 186.74 53.928 185.99 53.928 185.99C53.928 185.99 57.843 189.084 55.8225 195.277L23.7825 195.338C23.7825 195.338 21.645 190.608 28.6695 183.86" stroke="#263238" stroke-linecap="round" stroke-linejoin="round"/>
<path d="M62.0297 174.284L70.4852 190.3L70.7507 192.099L69.4007 190.855L60.6797 174.955C60.808 174.71 61.0075 174.514 61.2498 174.393C61.4922 174.273 61.7651 174.235 62.0297 174.284Z" fill="#FFD900" stroke="#263238" stroke-linecap="round" stroke-linejoin="round"/>
<path d="M54.0033 186.829C54.6419 186.637 55.2979 186.513 55.9608 186.461C56.6763 186.461 61.0773 183.091 62.5713 182.84C64.0653 182.588 66.7518 184.895 68.1198 185.263C69.4878 185.631 69.4023 187.476 70.2033 188.213C71.0043 188.949 69.8478 189.778 68.8533 188.949C68.9243 189.237 68.9288 189.538 68.8662 189.828C68.8036 190.118 68.6759 190.388 68.4933 190.617C68.4933 190.617 68.7633 191.624 68.4933 192.085H52.6533C52.6533 192.085 52.4148 188.949 54.0033 186.829Z" fill="white" stroke="#263238" stroke-linecap="round" stroke-linejoin="round"/>
<path d="M68.8807 188.949L67.4542 187.49L63.8047 186.279" stroke="#263238" stroke-linecap="round" stroke-linejoin="round"/>
<path d="M68.5254 190.617L66.3429 189.601L63.3594 189.019" stroke="#263238" stroke-linecap="round" stroke-linejoin="round"/>
<path d="M63.3594 191.423L66.3429 191.563L68.5254 192.085" stroke="#263238" stroke-linecap="round" stroke-linejoin="round"/>
<path d="M62.579 182.84C61.229 184.065 62.579 185.356 61.9355 186.279C61.292 187.201 60.5855 187.476 61.1345 188.949" stroke="#263238" stroke-linecap="round" stroke-linejoin="round"/>
<path d="M81.8489 192.863H153.93C153.93 193.522 153.677 194.154 153.227 194.62C152.778 195.085 152.167 195.347 151.531 195.347H87.6314C87.3808 195.347 87.1318 195.306 86.8934 195.226L81.7589 193.511C81.6856 193.488 81.6226 193.439 81.5814 193.372C81.5403 193.305 81.5236 193.225 81.5345 193.147C81.5454 193.069 81.5831 192.997 81.6408 192.945C81.6985 192.893 81.7724 192.864 81.8489 192.863Z" fill="#FFD900"/>
<mask id="mask3_2249_28436" style="mask-type:luminance" maskUnits="userSpaceOnUse" x="81" y="192" width="73" height="4">
<path d="M81.8489 192.863H153.93C153.93 193.522 153.677 194.154 153.227 194.62C152.778 195.085 152.167 195.347 151.531 195.347H87.6314C87.3808 195.347 87.1318 195.306 86.8934 195.226L81.7589 193.511C81.6856 193.488 81.6226 193.439 81.5814 193.372C81.5403 193.305 81.5236 193.225 81.5345 193.147C81.5454 193.069 81.5831 192.997 81.6408 192.945C81.6985 192.893 81.7724 192.864 81.8489 192.863Z" fill="white"/>
</mask>
<g mask="url(#mask3_2249_28436)">
<path opacity="0.2" d="M153.93 192.863C153.929 193.522 153.677 194.153 153.228 194.62L153.156 194.685C152.715 195.11 152.134 195.347 151.532 195.347H87.6316C87.3811 195.346 87.1321 195.306 86.8936 195.226L81.7591 193.511C81.685 193.488 81.6215 193.438 81.5803 193.37C81.5391 193.302 81.5231 193.221 81.5352 193.142C81.5473 193.063 81.5867 192.991 81.6461 192.94C81.7055 192.889 81.7808 192.861 81.8581 192.863H153.93Z" fill="black" fill-opacity="0.7"/>
<path opacity="0.2" d="M153.929 192.863C153.928 193.522 153.676 194.154 153.227 194.62L153.155 194.685H111.912C111.445 194.685 110.997 194.494 110.667 194.152C110.336 193.81 110.15 193.347 110.148 192.863H153.929Z" fill="black" fill-opacity="0.7"/>
</g>
<path d="M81.8489 192.863H153.93C153.93 193.522 153.677 194.154 153.227 194.62C152.778 195.085 152.167 195.347 151.531 195.347H87.6314C87.3808 195.347 87.1318 195.306 86.8934 195.226L81.7589 193.511C81.6856 193.488 81.6226 193.439 81.5814 193.372C81.5403 193.305 81.5236 193.225 81.5345 193.147C81.5454 193.069 81.5831 192.997 81.6408 192.945C81.6985 192.893 81.7724 192.864 81.8489 192.863Z" stroke="#263238" stroke-linecap="round" stroke-linejoin="round"/>
<path d="M110.148 192.863C110.15 193.347 110.336 193.81 110.667 194.152C110.997 194.494 111.445 194.685 111.912 194.685H118.757" stroke="#263238" stroke-linecap="round" stroke-linejoin="round"/>
<path d="M166.826 162.224V162.284L158.438 192.505C158.313 192.893 158.077 193.232 157.761 193.478C157.445 193.723 157.064 193.863 156.67 193.879H112.975C112.809 193.893 112.643 193.863 112.492 193.793C112.34 193.723 112.208 193.614 112.108 193.477C112.007 193.34 111.942 193.18 111.917 193.01C111.893 192.84 111.91 192.666 111.967 192.505L120.346 162.284C120.47 161.896 120.706 161.556 121.022 161.311C121.338 161.065 121.719 160.925 122.114 160.91H165.809C165.97 160.895 166.131 160.921 166.279 160.987C166.427 161.052 166.557 161.155 166.658 161.285C166.758 161.415 166.826 161.568 166.856 161.732C166.885 161.896 166.875 162.065 166.826 162.224Z" fill="#FFD900"/>
<mask id="mask4_2249_28436" style="mask-type:luminance" maskUnits="userSpaceOnUse" x="111" y="160" width="56" height="34">
<path d="M166.826 162.224V162.284L158.438 192.505C158.313 192.893 158.077 193.232 157.761 193.478C157.445 193.723 157.064 193.863 156.67 193.879H112.975C112.809 193.893 112.643 193.863 112.492 193.793C112.34 193.723 112.208 193.614 112.108 193.477C112.007 193.34 111.942 193.18 111.917 193.01C111.893 192.84 111.91 192.666 111.967 192.505L120.346 162.284C120.47 161.896 120.706 161.556 121.022 161.311C121.338 161.065 121.719 160.925 122.114 160.91H165.809C165.97 160.895 166.131 160.921 166.279 160.987C166.427 161.052 166.557 161.155 166.658 161.285C166.758 161.415 166.826 161.568 166.856 161.732C166.885 161.896 166.875 162.065 166.826 162.224Z" fill="white"/>
</mask>
<g mask="url(#mask4_2249_28436)">
<path opacity="0.4" d="M166.829 162.224V162.284L158.441 192.505C158.316 192.893 158.08 193.232 157.764 193.478C157.448 193.723 157.067 193.863 156.673 193.879H113.266V193.819L121.64 163.599C121.765 163.211 122.001 162.871 122.317 162.625C122.633 162.38 123.014 162.24 123.409 162.224H166.829Z" fill="white"/>
</g>
<path d="M166.826 162.224V162.284L158.438 192.505C158.313 192.893 158.077 193.232 157.761 193.478C157.445 193.723 157.064 193.863 156.67 193.879H112.975C112.809 193.893 112.643 193.863 112.492 193.793C112.34 193.723 112.208 193.614 112.108 193.477C112.007 193.34 111.942 193.18 111.917 193.01C111.893 192.84 111.91 192.666 111.967 192.505L120.346 162.284C120.47 161.896 120.706 161.556 121.022 161.311C121.338 161.065 121.719 160.925 122.114 160.91H165.809C165.97 160.895 166.131 160.921 166.279 160.987C166.427 161.052 166.557 161.155 166.658 161.285C166.758 161.415 166.826 161.568 166.856 161.732C166.885 161.896 166.875 162.065 166.826 162.224Z" stroke="#263238" stroke-linecap="round" stroke-linejoin="round"/>
<path d="M142.543 177.951C142.171 178.745 141.597 179.418 140.884 179.9C140.171 180.382 139.344 180.654 138.493 180.687C136.657 180.687 135.573 179.214 136.077 177.397C136.378 176.467 136.945 175.654 137.703 175.065C138.461 174.477 139.374 174.141 140.32 174.102H140.401C140.316 174.282 140.247 174.469 140.194 174.661C139.677 176.465 140.734 177.923 142.543 177.951Z" fill="white" stroke="#263238" stroke-linecap="round" stroke-linejoin="round"/>
<path d="M113.492 192.397L121.669 162.899C121.742 162.673 121.879 162.475 122.063 162.332C122.247 162.189 122.469 162.107 122.699 162.098H165.053" stroke="#263238" stroke-linecap="round" stroke-linejoin="round"/>
<path d="M93.1906 195.347H32.8906L33.6196 193.772C33.6196 193.772 39.3166 194.322 43.8301 192.863C45.8236 192.22 48.8926 191.931 51.9706 191.969C53.9101 191.996 58.6306 192.015 61.5601 192.001C62.6041 192.001 63.4231 192.001 63.8101 191.973C63.9586 191.973 64.1071 191.973 64.2601 191.973C65.0956 191.963 65.9297 192.044 66.7486 192.216C67.5388 192.123 68.3339 192.082 69.1291 192.094C70.5196 192.094 76.5001 192.071 78.1291 192.094C80.2756 192.122 82.7551 192.56 85.1086 192.896L85.1716 192.873V192.905C88.0156 193.315 90.6796 193.595 92.3716 192.873L93.1906 195.347Z" fill="white"/>
<mask id="mask5_2249_28436" style="mask-type:luminance" maskUnits="userSpaceOnUse" x="32" y="191" width="62" height="5">
<path d="M93.1906 195.347H32.8906L33.6196 193.772C33.6196 193.772 39.3166 194.322 43.8301 192.863C45.8236 192.22 48.8926 191.931 51.9706 191.969C53.9101 191.996 58.6306 192.015 61.5601 192.001C62.6041 192.001 63.4231 192.001 63.8101 191.973C63.9586 191.973 64.1071 191.973 64.2601 191.973C65.0956 191.963 65.9297 192.044 66.7486 192.216C67.5388 192.123 68.3339 192.082 69.1291 192.094C70.5196 192.094 76.5001 192.071 78.1291 192.094C80.2756 192.122 82.7551 192.56 85.1086 192.896L85.1716 192.873V192.905C88.0156 193.315 90.6796 193.595 92.3716 192.873L93.1906 195.347Z" fill="white"/>
</mask>
<g mask="url(#mask5_2249_28436)">
<path opacity="0.4" d="M93.1868 195.347H46.4453L47.3948 193.656C47.3948 193.656 49.9463 195.198 52.4393 194.122C54.9323 193.045 57.4433 192.458 61.5563 191.992C62.4532 191.893 63.3571 191.88 64.2563 191.955C66.0467 192.097 67.8071 192.511 69.4808 193.185C69.4808 193.185 71.9333 192.076 78.1253 192.076C80.2718 192.104 82.7513 192.542 85.1048 192.877L85.1678 192.854V192.887C88.0118 193.297 90.6758 193.576 92.3678 192.854L93.1868 195.347Z" fill="#FFD900"/>
<path d="M47.3963 193.656L33.6353 193.772L32.9062 195.347H46.4468L47.3963 193.656Z" fill="#FFD900"/>
<path d="M46.8359 194.653L47.3984 193.656C48.6151 194.204 49.928 194.486 51.2549 194.485C53.2709 194.424 56.4569 191.838 62.5814 191.964" stroke="#263238" stroke-linecap="round" stroke-linejoin="round"/>
<path d="M66.7344 192.206C67.8639 192.635 69.4704 193.194 69.4704 193.194C69.4704 193.194 71.5494 191.955 76.1169 192.085" stroke="#263238" stroke-linecap="round" stroke-linejoin="round"/>
<path d="M47.3972 193.656C47.3972 193.656 40.2782 193.786 37.4297 193.851" stroke="#263238" stroke-linecap="round" stroke-linejoin="round"/>
<path d="M68.5156 195.347C68.5544 195.043 68.6843 194.76 68.8869 194.537C69.0896 194.313 69.3548 194.162 69.6451 194.103C70.6531 193.93 71.3056 195.221 71.3056 195.221" stroke="#263238" stroke-linecap="round" stroke-linejoin="round"/>
<path d="M69.4688 193.194L69.6494 194.103" stroke="#263238" stroke-linecap="round" stroke-linejoin="round"/>
<path d="M70.4844 194.103C70.4844 194.103 73.6884 192.588 76.7844 192.863" stroke="#263238" stroke-linecap="round" stroke-linejoin="round"/>
<path d="M69.1654 194.285C68.8819 194.056 64.0714 192.518 59.1484 193.656" stroke="#263238" stroke-linecap="round" stroke-linejoin="round"/>
<path d="M68.5188 194.914C68.5188 194.914 64.4688 194.117 60.9453 194.671" stroke="#263238" stroke-linecap="round" stroke-linejoin="round"/>
<path d="M70.9297 194.681C73.618 193.904 76.4315 193.708 79.1962 194.103C81.9189 194.522 84.6699 194.712 87.4222 194.671" stroke="#263238" stroke-linecap="round" stroke-linejoin="round"/>
</g>
<path d="M93.1906 195.347H32.8906L33.6196 193.772C33.6196 193.772 39.3166 194.322 43.8301 192.863C45.8236 192.22 48.8926 191.931 51.9706 191.969C53.9101 191.996 58.6306 192.015 61.5601 192.001C62.6041 192.001 63.4231 192.001 63.8101 191.973C63.9586 191.973 64.1071 191.973 64.2601 191.973C65.0956 191.963 65.9297 192.044 66.7486 192.216C67.5388 192.123 68.3339 192.082 69.1291 192.094C70.5196 192.094 76.5001 192.071 78.1291 192.094C80.2756 192.122 82.7551 192.56 85.1086 192.896L85.1716 192.873V192.905C88.0156 193.315 90.6796 193.595 92.3716 192.873L93.1906 195.347Z" stroke="#263238" stroke-linecap="round" stroke-linejoin="round"/>
<path d="M77.0193 158.719V160.374C75.8008 161.233 74.539 162.025 73.2393 162.746C70.3548 160.001 69.9453 154.786 69.9453 154.786L77.0193 158.719Z" fill="#263238"/>
<path d="M64.73 149.19C61.337 143.994 62.03 134.278 66.3905 128.975C72.7985 121.23 89.5205 126.887 89.507 137.829C89.4939 139.349 89.3676 140.867 89.129 142.367C88.9085 143.812 87.698 145.271 87.329 146.711C86.96 148.151 87.1085 150.439 86.96 151.837C86.627 155.019 82.3745 161.334 81.2225 162.019C79.6115 162.951 70.904 160.42 69.005 154.637" fill="white"/>
<path d="M64.73 149.19C61.337 143.994 62.03 134.278 66.3905 128.975C72.7985 121.23 89.5205 126.887 89.507 137.829C89.4939 139.349 89.3676 140.867 89.129 142.367C88.9085 143.812 87.698 145.271 87.329 146.711C86.96 148.151 87.1085 150.439 86.96 151.837C86.627 155.019 82.3745 161.334 81.2225 162.019C79.6115 162.951 70.904 160.42 69.005 154.637" stroke="#263238" stroke-linecap="round" stroke-linejoin="round"/>
<path d="M76.5938 142.768C76.5938 142.768 78.9653 141.874 81.0938 142.768" stroke="#263238" stroke-linecap="round" stroke-linejoin="round"/>
<path d="M85.9531 142.768C85.9531 142.768 87.6811 141.874 88.8376 142.768" stroke="#263238" stroke-linecap="round" stroke-linejoin="round"/>
<path d="M78.8128 146.944C78.6868 147.573 78.2728 148.02 77.9128 147.941C77.5528 147.862 77.3143 147.279 77.4403 146.645C77.5663 146.012 77.9803 145.569 78.3628 145.653C78.7453 145.737 78.9388 146.324 78.8128 146.944Z" fill="#263238"/>
<path d="M86.4456 146.944C86.3196 147.573 85.9056 148.02 85.5456 147.941C85.1856 147.862 84.9471 147.279 85.0731 146.645C85.1991 146.012 85.6086 145.569 85.9956 145.653C86.3826 145.737 86.5716 146.324 86.4456 146.944Z" fill="#263238"/>
<path d="M85.1966 143.724C85.1966 143.724 84.0671 145.751 83.9501 147.452C83.8331 149.153 85.7501 152.675 85.1966 153.78C84.6431 154.884 82.2896 154.828 81.5156 154.153" fill="white"/>
<path d="M85.1966 143.724C85.1966 143.724 84.0671 145.751 83.9501 147.452C83.8331 149.153 85.7501 152.675 85.1966 153.78C84.6431 154.884 82.2896 154.828 81.5156 154.153" stroke="#263238" stroke-linecap="round" stroke-linejoin="round"/>
<path d="M81.9392 156.38C80.3841 156.608 78.7986 156.374 77.3672 155.705" stroke="#263238" stroke-linecap="round" stroke-linejoin="round"/>
<path d="M68.1292 144.399C68.1292 144.399 69.2362 143.29 70.5412 143.724C71.8462 144.157 72.0847 147.838 72.0847 147.838L73.0342 146.79C73.0342 146.79 72.6787 144.707 74.1007 141.785C75.5227 138.863 74.8117 135.424 74.8117 135.424C74.8117 135.424 77.2642 136.282 78.1147 138.248C78.1147 138.248 79.0417 136.16 78.1147 134.562C78.1147 134.562 81.9352 135.545 82.8847 138.495C82.8847 138.495 83.6362 136.282 83.3797 135.177C83.3797 135.177 85.9672 136.035 86.9167 138.616C86.9167 138.616 87.7807 136.65 87.4072 135.051C87.4072 135.051 88.4512 135.983 88.8517 138.742C89.6312 137.06 89.8603 135.161 89.5042 133.332C89.5042 133.332 90.8542 134.93 91.0702 136.282C91.0702 136.282 92.1682 132.349 85.7467 127.064C79.3252 121.78 68.3317 122.977 66.6217 127.064C66.6217 127.064 67.1887 124.054 68.3317 122.977C68.3317 122.977 65.1817 124.431 65.2492 127.432C65.2492 127.432 62.4682 127.064 61.0462 128.909C61.9178 128.841 62.7941 128.882 63.6562 129.031C63.6562 129.031 59.8582 131.361 60.0967 136.897C60.3352 142.433 63.6562 150.411 63.6562 150.411L66.2572 149.623C66.2572 149.623 66.6712 145.858 68.1292 144.399Z" fill="#263238"/>
<path d="M71.0174 145.751C71.0174 145.751 69.0014 142.065 67.9349 141.818C66.8684 141.571 64.8479 143.048 65.3204 145.015C65.7929 146.981 66.1529 150.299 66.7469 150.667C67.3409 151.035 68.2904 153.249 69.2399 152.634C69.3648 152.567 69.4729 152.471 69.5556 152.353C69.6382 152.236 69.6931 152.1 69.7159 151.956C69.7386 151.812 69.7286 151.665 69.6866 151.526C69.6446 151.388 69.5717 151.261 69.4739 151.156" fill="white"/>
<path d="M71.0174 145.751C71.0174 145.751 69.0014 142.065 67.9349 141.818C66.8684 141.571 64.8479 143.048 65.3204 145.015C65.7929 146.981 66.1529 150.299 66.7469 150.667C67.3409 151.035 68.2904 153.249 69.2399 152.634C69.3648 152.567 69.4729 152.471 69.5556 152.353C69.6382 152.236 69.6931 152.1 69.7159 151.956C69.7386 151.812 69.7286 151.665 69.6866 151.526C69.6446 151.388 69.5717 151.261 69.4739 151.156" stroke="#263238" stroke-linecap="round" stroke-linejoin="round"/>
<path d="M93.5643 174.251C93.3603 175.16 93.0987 176.053 92.7812 176.926" stroke="#263238" stroke-linecap="round" stroke-linejoin="round"/>
<path d="M92.0558 178.706C91.3385 180.4 90.287 181.919 88.9688 183.166" stroke="#263238" stroke-linecap="round" stroke-linejoin="round"/>
<path d="M104.852 183.725C104.236 183.641 102.98 184.447 101.828 185.486" stroke="#263238" stroke-linecap="round" stroke-linejoin="round"/>
<path d="M100.98 186.311C100.08 187.276 99.3828 188.296 99.3828 188.949" stroke="#263238" stroke-linecap="round" stroke-linejoin="round"/>
<path d="M35.5547 181.213C35.5547 181.213 38.1152 181.95 38.1377 184.224" stroke="#263238" stroke-linecap="round" stroke-linejoin="round"/>
<path d="M45.1484 168.799C45.5735 169.292 45.9602 169.818 46.3049 170.374" stroke="#263238" stroke-linecap="round" stroke-linejoin="round"/>
<path d="M47.3169 172.294C47.8205 173.426 48.0917 174.655 48.1134 175.901C48.1134 179.736 47.0469 181.959 47.0469 181.959" stroke="#263238" stroke-linecap="round" stroke-linejoin="round"/>
<path d="M60.6953 165.039C61.3742 165.692 62.1009 166.29 62.8688 166.828" stroke="#263238" stroke-linecap="round" stroke-linejoin="round"/>
<path d="M65.125 168.226C67.4245 169.428 70.399 170.332 73.486 169.535" stroke="#263238" stroke-linecap="round" stroke-linejoin="round"/>
<g opacity="0.2">
<path d="M69.9453 127.26C70.7492 127.132 71.5623 127.078 72.3753 127.097" stroke="white" stroke-linecap="round" stroke-linejoin="round"/>
<path d="M73.5625 127.162C75.763 127.376 78.472 128.173 80.155 130.578" stroke="white" stroke-linecap="round" stroke-linejoin="round"/>
<path d="M75.2891 125.391C75.2891 125.391 79.4156 125.438 82.3721 127.577" stroke="white" stroke-linecap="round" stroke-linejoin="round"/>
<path d="M83.5312 128.616C84.0604 129.189 84.4844 129.857 84.7822 130.587" stroke="white" stroke-linecap="round" stroke-linejoin="round"/>
<path d="M68.8828 129.082C68.8828 129.082 72.9328 130.559 74.3413 133.201" stroke="white" stroke-linecap="round" stroke-linejoin="round"/>
<path d="M66.9219 130.578C67.7995 131.837 68.4308 133.262 68.7804 134.772" stroke="white" stroke-linecap="round" stroke-linejoin="round"/>
<path d="M69.0319 136.845C69.0373 137.402 68.9873 137.958 68.8828 138.504" stroke="white" stroke-linecap="round" stroke-linejoin="round"/>
<path d="M64.1894 132.297C63.9809 132.845 63.808 133.407 63.6719 133.979" stroke="white" stroke-linecap="round" stroke-linejoin="round"/>
<path d="M63.3567 135.606C63.1195 137.059 63.1012 138.541 63.3025 140" stroke="white" stroke-linecap="round" stroke-linejoin="round"/>
</g>
<path d="M117.303 203.633H174.093V195.347H15.8906V203.633H47.8766" fill="white"/>
<path d="M117.303 203.633H174.093V195.347H15.8906V203.633H47.8766" stroke="#263238" stroke-linecap="round" stroke-linejoin="round"/>
<path d="M113.228 203.633H105.164" stroke="#263238" stroke-linecap="round" stroke-linejoin="round"/>
</svg>
