<svg width="380" height="276" viewBox="0 0 380 276" fill="none" xmlns="http://www.w3.org/2000/svg">
<path fill-rule="evenodd" clip-rule="evenodd" d="M333.241 7.49732C342.326 8.1119 351.353 9.91119 360.342 11.5274C369.413 13.1586 375.095 18.6494 376.255 27.5276C377.659 38.2881 379.082 49.1322 379.2 59.9478C379.6 96.682 379.453 133.419 379.388 170.156C379.386 171.471 378.269 254.815 377.559 256.125C376.527 254.84 372.087 258.501 374.388 170.235C374.658 159.849 374.342 149.428 374.251 139.022C373.981 108.113 373.724 77.2052 373.239 46.2987C373.152 40.6697 372.286 35.0079 371.3 29.4383C369.804 21.0032 366.231 17.2448 357.367 16.165C338.131 13.8307 318.865 11.1913 299.536 10.2395C271.502 8.85819 243.404 8.77307 215.329 8.2977C189.777 7.86671 164.218 7.73362 138.666 7.32388C102.228 6.73784 65.791 5.99998 29.3544 5.398C26.694 5.35443 24.0038 5.72477 21.3676 6.13784C16.1353 6.96084 12.5744 9.61307 10.8008 14.7344C6.26449 27.836 5.05342 41.3543 5.46225 55.0293C6.40714 86.5324 7.18308 118.045 8.79235 149.522C10.3757 180.523 12.9238 211.482 15.0002 242.461C15.8279 254.776 22.1147 262.397 34.9175 264.288C47.3729 266.126 59.8336 268.832 72.349 269.219C99.1336 270.042 125.96 269.815 152.762 269.638C175.623 269.483 198.491 269.071 221.333 268.255C238.014 267.659 254.662 266.22 271.325 265.157C272.267 265.097 352.714 257.153 353.425 257.523C354.762 258.222 376.366 255.168 377.559 256.125C376.397 256.916 275.446 270.089 274.239 270.151C248.758 271.442 223.274 272.788 197.774 273.686C171.783 274.598 145.772 275.594 119.768 275.541C91.5687 275.483 63.2184 276.122 35.4485 269.716C30.427 268.558 25.3104 266.919 20.903 264.4C17.7803 262.617 14.318 259.304 13.5473 256.105C10.9409 245.287 8.48363 234.277 7.74449 223.232C5.21034 185.376 3.18074 147.484 1.46685 109.586C0.497665 88.1881 -0.0306598 66.7439 0.34243 45.3417C0.51763 35.367 2.56065 25.2558 5.11199 15.5468C8.01408 4.50063 13.545 0.937009 25.2881 0.500523C33.7928 0.1846 42.3186 0.0269214 50.8275 0.190578C92.6329 0.986035 134.433 2.03952 176.237 2.75239C204.63 3.23643 233.029 3.30532 260.168 3.5452C285.367 4.86587 309.324 5.88168 333.241 7.49732Z" fill="#072C5C" fill-opacity="0.2"/>
</svg>
