<svg width="412" height="300" viewBox="0 0 412 300" fill="none" xmlns="http://www.w3.org/2000/svg">
<path fill-rule="evenodd" clip-rule="evenodd" d="M361.304 8.94705C371.141 9.61253 380.917 11.5609 390.65 13.311C400.473 15.0774 406.625 21.0231 407.882 30.6369C409.402 42.289 410.943 54.0315 411.07 65.7432C411.504 105.521 411.345 145.302 411.275 185.082C411.272 186.507 410.063 276.755 409.294 278.174C408.177 276.783 403.369 280.747 405.86 185.168C406.153 173.922 405.81 162.637 405.712 151.368C405.419 117.899 405.141 84.4304 404.616 50.9633C404.522 44.8679 403.584 38.737 402.516 32.706C400.896 23.5719 397.027 19.5021 387.428 18.3329C366.599 15.8052 345.737 12.947 324.806 11.9164C294.45 10.4207 264.024 10.3285 233.622 9.81374C205.954 9.34705 178.277 9.20294 150.608 8.75926C111.151 8.12465 71.695 7.32565 32.2396 6.67379C29.3587 6.62662 26.4457 7.02763 23.591 7.47495C17.9253 8.36611 14.0693 11.2381 12.1488 16.7838C7.23661 30.9709 5.92518 45.6091 6.3679 60.4172C7.39105 94.5304 8.23127 128.654 9.97388 162.739C11.6885 196.309 14.4476 229.832 16.6961 263.378C17.5924 276.714 24.4001 284.966 38.2636 287.013C51.751 289.003 65.244 291.934 78.7964 292.353C107.8 293.244 136.849 292.999 165.872 292.807C190.626 292.639 215.39 292.193 240.124 291.309C258.187 290.664 276.215 289.105 294.258 287.954C295.278 287.89 382.391 279.287 383.16 279.688C384.608 280.445 408.002 277.137 409.294 278.174C408.036 279.031 298.72 293.295 297.414 293.362C269.822 294.76 242.226 296.217 214.613 297.19C186.469 298.177 158.302 299.256 130.144 299.199C99.6085 299.136 68.9092 299.828 38.8385 292.892C33.401 291.638 27.8606 289.862 23.0879 287.135C19.7065 285.204 15.9574 281.617 15.1228 278.153C12.3005 266.438 9.6396 254.516 8.83923 242.556C6.0951 201.564 3.89733 160.532 2.04145 119.494C0.991973 96.3233 0.419885 73.1024 0.823871 49.9269C1.0136 39.1258 3.22591 28.1769 5.98861 17.6634C9.13116 5.70207 15.1203 1.84321 27.8364 1.37056C37.0457 1.02846 46.2779 0.857715 55.4918 1.03491C100.761 1.89628 146.024 3.03706 191.292 3.80899C222.037 4.33314 252.789 4.40775 282.176 4.66748C309.464 6.09758 335.406 7.19755 361.304 8.94705Z" fill="#FFE01B"/>
</svg>
