<svg width="228" height="228" viewBox="0 0 228 228" fill="none" xmlns="http://www.w3.org/2000/svg">
<g clip-path="url(#clip0_525_3363)">
<path d="M121.966 13.9742L125.325 1.6415C125.618 0.565716 126.689 -0.13299 127.806 0.022278L129.508 0.25518C130.793 0.432629 131.661 1.65259 131.391 2.90583L128.753 14.9169C128.527 15.904 127.67 16.6138 126.644 16.6581L124.22 16.7469C122.71 16.8134 121.571 15.416 121.966 13.9742Z" fill="#002657"/>
<path d="M53.9926 21.1496C54.9622 22.4916 54.6465 24.3437 53.2823 25.2975L53.0568 25.4528C51.7039 26.3955 49.8098 26.0849 48.8402 24.754L43.3384 17.1459C42.3688 15.804 42.6845 13.9518 44.0486 12.998L44.2741 12.8428C45.6271 11.9001 47.5211 12.2106 48.4907 13.5415L53.9926 21.1496Z" fill="#002657"/>
<path d="M177.458 23.9002C176.668 25.2421 174.921 25.6858 173.568 24.9094L173.331 24.7763C171.978 24 171.516 22.2921 172.305 20.9501L176.511 13.841C177.3 12.4991 179.047 12.0555 180.4 12.8318L180.637 12.9649C181.99 13.7412 182.452 15.4492 181.663 16.7911L177.458 23.9002Z" fill="#002657"/>
<path d="M227.121 21.8152C228.282 22.9687 228.282 24.8208 227.121 25.952L217.617 35.3014C216.455 36.4437 214.573 36.4437 213.411 35.3014L213.175 35.0685C212.013 33.9151 212.013 32.0629 213.175 30.9317L222.679 21.5823C223.84 20.44 225.723 20.44 226.884 21.5823L227.121 21.8152Z" fill="#002657"/>
<path d="M13.6757 32.8835C14.8144 34.0258 14.7918 35.8668 13.6193 36.987L12.909 37.6635C11.7365 38.7836 9.86498 38.7615 8.73755 37.608L4.88175 33.7153C3.74304 32.5729 3.76559 30.7319 4.93812 29.6117L5.6484 28.9352C6.82093 27.8151 8.69246 27.8373 9.81989 28.9907L13.6757 32.8835Z" fill="#002657"/>
<path d="M226.252 105.405C225.362 85.9742 210.389 53.5342 185.484 58.5028C185.09 58.5805 184.842 58.4363 184.729 58.0592C181.212 46.0037 171.876 36.2995 161.019 28.9354C154.322 24.3771 147.445 21.8485 140.399 21.3494C127.411 20.4178 118.696 26.2293 109.62 35.3346C109.349 35.6008 109.067 35.623 108.774 35.3901C106.835 33.8818 105.234 32.196 103.193 30.8208C91.3667 22.8466 78.5253 21.7708 64.6579 27.5934C53.8008 32.1627 41.8838 42.5324 37.9829 54.2219C37.3516 56.1294 36.8555 57.5269 36.4834 58.4141C36.3369 58.7579 36.0776 58.9464 35.7055 58.9686C15.3892 60.2773 -0.935931 77.5342 0.0449325 97.7524C0.913053 115.32 13.0893 131.623 27.9263 139.808C33.6198 142.946 39.6064 144.089 45.8749 143.213C46.2357 143.157 46.5176 143.279 46.7205 143.579C50.3846 149.002 54.8154 153.715 60.0242 157.708C60.2046 157.852 60.5428 158.041 61.0501 158.263C61.4673 158.451 61.8055 158.695 62.0535 158.983C62.3129 159.283 62.2678 159.527 61.9183 159.715C57.2394 162.255 55.1762 166.192 55.7287 171.538C56.1233 175.331 58.6036 178.081 63.1584 179.8C64.2069 180.189 64.1618 180.41 63.0457 180.444C62.2903 180.466 61.5237 180.421 60.7683 180.311C56.5404 179.689 52.7297 185.534 52.0532 189.017C51.9631 189.494 51.7376 189.571 51.3655 189.25C50.069 188.141 49.5053 187.542 47.6901 187.397C40.8241 186.821 36.9344 190.004 36.0437 196.946C35.8634 198.355 35.5815 199.719 35.1869 201.05C35.0854 201.405 34.8712 201.671 34.5443 201.848C31.8497 203.368 29.189 204.943 26.5508 206.562C25.9984 206.906 25.367 207.793 24.6567 209.224C23.3489 211.897 21.1955 213.238 18.6024 214.436C18.2529 214.592 18.0049 214.836 17.8358 215.168C15.1299 220.536 17.4637 225.616 23.1347 227.434C27.5429 228.843 31.3987 227.612 34.7134 223.73C35.4237 222.898 35.8295 221.945 36.3707 221.024C36.5624 220.714 36.9457 220.58 37.2839 220.725C45.6494 224.107 54.6125 220.969 55.4806 211.264C56.0894 204.466 50.6891 198.854 44.2965 197.102C43.9245 197.002 43.7441 196.769 43.7328 196.392C43.7215 195.494 44.1274 194.806 44.9617 194.329C47.3631 192.965 49.1896 193.386 50.441 195.582C53.3723 200.706 59.483 193.653 61.5687 199.054C61.8506 199.786 62.8653 199.841 63.2373 199.153C63.7672 198.133 63.8011 197.068 63.3275 195.97C63.181 195.627 62.9104 195.438 62.5383 195.405C60.3737 195.205 59.111 194.085 58.7502 192.044C58.1752 188.739 59.4154 186.787 62.482 186.189C66.1348 185.479 69.9455 188.451 70.6897 191.756C71.5465 195.516 69.4044 199.409 65.7402 200.828C62.73 202.004 58.5134 200.695 55.2777 199.908C54.7591 199.775 54.2517 200.174 54.263 200.695C54.3419 208.414 60.6104 210.011 67.0142 208.281C73.3842 206.562 77.0371 202.048 77.9728 194.739C78.0179 194.373 78.2096 194.263 78.5591 194.385C81.0282 195.261 83.4409 195.438 85.7972 194.906C98.2778 192.1 100.273 177.604 92.1108 169.298C91.7613 168.932 91.8402 168.743 92.3476 168.732C98.4695 168.61 103.949 166.536 108.763 162.51C109.18 162.166 109.62 162.122 110.082 162.377C111.142 162.954 112.303 163.608 113.566 164.351C122.878 169.808 133.014 171.161 143.725 168.277C161.132 163.597 175.033 156.144 184.03 140.263C184.459 139.497 185.112 139.187 185.981 139.331C192.238 140.318 198.585 139.497 205 136.88C218.27 131.479 226.906 119.656 226.252 105.405ZM24.7131 222.932C24.2734 223.176 23.5293 222.699 23.0558 221.878C22.5822 221.046 22.5597 220.181 22.9881 219.937C23.4278 219.693 24.1719 220.17 24.6454 220.991C25.119 221.823 25.1415 222.688 24.7131 222.932ZM30.6659 218.052C30.3728 219.05 30.012 219.072 29.5949 218.118L27.2385 212.717C26.7988 211.686 27.1371 211.142 28.2758 211.076L29.5272 210.998C30.136 210.965 30.6772 211.364 30.8125 211.941C31.3085 214.015 31.2634 216.044 30.6659 218.052ZM47.5323 210.765C47.2278 213.715 44.7362 215.878 41.9628 215.612C39.1893 215.335 37.1825 212.717 37.4756 209.778C37.78 206.839 40.2716 204.665 43.0451 204.932C45.8186 205.209 47.8254 207.826 47.5323 210.765ZM216.455 97.342C216.996 99.2385 217.143 100.98 216.906 102.566C216.85 102.909 216.703 103.242 216.455 103.497C212.858 107.434 209.916 110.861 205.012 113.601C200.885 115.897 197.041 118.769 192.914 121.198C190.941 122.373 188.641 125.157 185.958 125.501C184.74 125.656 184.605 125.346 185.541 124.569L195.361 116.529C195.631 116.307 195.97 116.196 196.308 116.218C196.793 116.24 197.198 116.085 197.525 115.741C200.051 113.08 203.659 111.372 206.195 109.342C210.48 105.915 212.994 104.573 214.234 98.9723C214.403 98.1849 214.91 97.5527 215.733 97.0647C216.105 96.8429 216.342 96.9317 216.455 97.342ZM202.103 110.429C201.9 110.229 204.132 107.634 207.097 104.629C210.074 101.623 212.644 99.3605 212.858 99.549C213.061 99.7487 210.829 102.344 207.864 105.349C204.888 108.355 202.317 110.617 202.103 110.429ZM214.471 88.2145C215.519 89.6119 216.004 91.83 214.64 93.2274C208.428 99.5823 202.655 105.482 197.323 110.906C195.327 112.946 192.971 114.898 190.276 116.762C187.108 118.969 183.962 121.176 180.851 123.383C178.9 124.769 176.397 126.987 173.331 130.037C170.422 132.921 166.645 136.348 162.665 138.122C162.338 138.266 162 138.277 161.662 138.144C161.008 137.9 160.444 138.022 159.96 138.499C159.294 139.153 158.934 139.497 158.855 139.553C151.628 144.61 144.266 149.479 136.791 154.17C133.724 156.089 130.59 156.765 127.399 156.189C126.125 155.956 126.092 155.623 127.298 155.168C129.248 154.436 131.063 153.56 132.732 152.551C139.497 148.436 145.754 144.399 151.504 140.451C154.04 138.71 156.837 137.179 159.869 135.837C160.219 135.682 160.534 135.715 160.828 135.948C160.985 136.07 161.166 136.126 161.369 136.137C161.515 136.137 161.684 136.104 161.854 135.993C166.408 133.231 169.994 129.017 173.635 125.168C175.338 123.372 177.22 121.63 179.284 119.934C181.29 118.303 183.23 116.64 185.101 114.954C187.007 113.246 188.303 110.806 190.242 108.843C190.378 108.71 190.513 108.71 190.648 108.843L190.851 109.043C190.851 109.043 190.896 109.109 190.862 109.142C189.949 110.196 189.318 111.172 188.968 112.081C188.686 112.824 188.878 112.969 189.543 112.536C193.264 110.107 196.263 106.403 199.16 103.985C202.712 101.013 206.229 97.7524 209.702 94.2145C211.37 92.5176 212.656 90.5546 213.569 88.3365C213.715 87.9594 214.223 87.8928 214.471 88.2145ZM170.738 136.802C168.675 139.331 166.025 141.771 162.801 144.122C155.574 149.401 148.685 153.516 142.112 156.455C140.804 157.043 139.373 157.087 137.862 156.577C137.851 156.577 137.828 156.588 137.817 156.588C137.828 156.577 137.828 156.566 137.839 156.566C137.839 156.566 137.851 156.566 137.862 156.566C137.884 156.566 137.918 156.555 137.941 156.532C138.809 156.1 139.609 155.645 140.354 155.157C150.354 148.603 160.298 142.259 170.163 136.148C171.628 135.238 171.82 135.449 170.738 136.791V136.802ZM209.059 78.3882C209.206 78.6655 209.285 79.0093 209.285 79.3975C209.285 79.7634 209.172 80.0962 208.935 80.3956C205.722 84.4659 201.911 89.5342 197.48 95.6008C197.176 96.0111 197.086 96.4548 197.21 96.9206C197.255 97.1202 197.503 97.1978 197.661 97.0647C202.734 92.9612 206.849 88.1257 209.995 82.5583C210.525 81.6378 211.01 81.6489 211.472 82.6026L211.968 83.623C212.408 84.5213 212.317 85.5749 211.731 86.3845C207.684 91.9742 202.903 97.1202 197.39 101.834C197.21 101.989 197.007 102.089 196.793 102.122C196.624 102.155 196.466 102.177 196.297 102.189C196.037 102.222 195.812 102.333 195.643 102.521L190.795 107.922C190.704 108.022 190.592 108.1 190.468 108.133C189.69 108.355 188.991 108.743 188.359 109.287C184.876 112.325 181.358 115.342 177.807 118.348C174.864 120.843 172.034 123.494 169.295 126.311C166.465 129.238 163.68 132.044 160.94 134.728C160.681 134.983 160.388 135.039 160.061 134.906C159.723 134.773 159.385 134.717 159.058 134.751C158.753 134.784 158.483 134.884 158.235 135.072C157.118 135.86 155.912 136.514 154.615 137.035C153.973 137.29 153.871 137.146 154.3 136.614C156.577 133.752 159.655 131.989 162.011 129.305C162.913 128.274 163.86 127.298 164.841 126.355C165.101 126.1 165.292 125.8 165.394 125.446C165.676 124.503 165.709 124.048 166.544 123.394C169.024 121.442 171.583 119.312 174.233 117.017C174.943 116.396 175.642 115.775 176.318 115.153C179.532 112.237 182.418 109.73 185 107.634C186.837 106.159 188.45 104.673 189.859 103.198C191.9 101.046 195.034 99.172 195.981 96.5435C196.962 93.8152 198.912 91.4418 199.938 89.1794C200.761 87.3605 201.46 85.6414 202.847 84.0777C204.459 82.2699 205.913 80.3623 207.21 78.3328C207.864 77.3124 208.484 77.3346 209.059 78.3882ZM87.229 185.911C85.335 188.041 80.7914 187.841 77.9277 188.007C77.5557 188.03 77.3077 187.863 77.1949 187.508C76.8454 186.366 76.7214 185.257 76.8229 184.203C77.0596 181.664 75.6503 180.255 73.745 178.847C70.746 176.617 67.7132 174.421 64.6466 172.281C63.305 171.349 62.5271 170.03 62.8089 168.388C63.2486 165.915 64.9285 164.651 67.8598 164.606C76.8116 164.484 83.3845 167.933 87.5898 174.954C89.4839 178.115 89.9123 182.895 87.229 185.911ZM176.082 132.056C174.041 139.098 170.659 144.577 165.957 148.514C159.215 154.148 151.008 158.373 142.259 159.826C140.083 160.192 137.783 160.946 135.708 161.002C129.023 161.157 123.171 159.482 118.166 155.978C116.486 154.802 116.644 154.292 118.628 154.447C119 154.481 119.406 154.492 119.834 154.481C120.229 154.47 120.601 154.314 120.872 154.026C123.476 151.275 126.678 149.978 129.451 147.516C130.748 146.351 131.616 146.207 133.217 145.797C133.578 145.708 133.871 145.519 134.108 145.231C135.043 144.078 136.283 143.368 137.806 143.102C138.178 143.035 138.516 142.891 138.809 142.658C141.481 140.606 145.01 138.222 146.442 135.039C146.983 133.841 147.648 132.688 148.437 131.579C148.651 131.268 148.933 131.013 149.271 130.836C150.241 130.314 150.963 129.616 151.425 128.739C151.763 128.096 151.56 127.752 150.827 127.708C149.271 127.619 148.392 128.362 148.178 129.937C147.772 133.054 144.626 134.673 142.642 136.924C140.928 138.865 138.854 140.096 136.813 141.682C134.412 143.556 131.932 144.222 129.271 145.597C128.854 145.808 128.775 145.719 129.034 145.331C131.007 142.281 133.487 139.963 136.486 138.388C137.016 138.111 137.817 137.279 138.877 135.915C139.012 135.738 139.012 135.56 138.888 135.372C138.809 135.272 138.719 135.194 138.606 135.15C138.505 135.117 138.414 135.116 138.324 135.172C133.961 137.556 130.522 140.662 128.031 144.477C127.219 145.708 125.956 146.706 124.231 147.471C122.799 148.104 121.965 148.913 121.018 150.011C120.398 150.721 119.812 150.743 119.259 150.089C119.113 149.911 118.944 149.9 118.752 150.044C118.448 150.288 118.098 150.41 117.703 150.399C117.241 150.388 117.151 150.211 117.422 149.845C117.827 149.279 118.346 149.113 118.966 149.346C119.293 149.468 119.395 149.368 119.282 149.046C119.214 148.847 119.203 148.636 119.259 148.414C119.293 148.248 119.372 148.092 119.519 147.937C121.176 146.118 123.104 144.477 125.28 143.013C125.979 142.536 126.08 141.893 125.595 141.072C125.28 140.529 124.694 140.207 124.062 140.229C122.518 140.263 121.661 141.039 121.492 142.558C121.447 142.98 121.244 143.379 120.928 143.667C116.937 147.372 112.889 150.909 108.098 153.649C102.99 156.577 98.943 160.592 92.776 161.046C91.9417 161.102 91.8628 160.891 92.528 160.403C99.4955 155.357 105.832 150.299 111.548 145.253C112.81 144.133 114.874 143.102 116.148 141.56C116.475 141.161 116.384 140.917 115.866 140.817C115.144 140.673 114.502 140.773 113.938 141.116C110.578 143.157 107.545 145.031 104.58 147.604C101.468 150.322 98.3342 153.006 95.1661 155.678C92.4152 157.996 88.8638 161.179 85.7408 161.135C85.3462 161.135 85.0531 160.969 84.8614 160.625C84.6472 160.214 84.6134 159.804 84.76 159.394C84.8953 159.039 85.1433 158.795 85.4928 158.651C87.2629 157.952 88.3452 157.453 88.7511 157.153C93.4975 153.616 97.8381 149.723 101.795 145.497C102.1 145.165 102.055 144.909 101.638 144.721L98.7739 143.423C98.3793 143.257 98.0749 143.346 97.8494 143.701C96.3161 146.118 94.1627 146.751 92.7309 148.226C90.3295 150.677 87.8378 153.161 85.2335 155.678C84.3766 156.51 83.5423 156.787 82.7193 156.499C82.2571 156.344 81.9639 156.499 81.8287 156.954L80.9154 159.948C80.7125 160.636 80.0135 161.057 79.2919 160.935L78.2096 160.747C77.2287 160.58 77.0145 160.092 77.5444 159.272C79.9797 155.545 83.9257 154.403 86.5188 151.586C88.3339 149.612 90.0476 147.438 91.6598 145.076C91.9079 144.71 91.9304 144.311 91.7275 143.856C91.5696 143.501 91.0961 143.401 90.803 143.667C88.5368 145.763 86.4737 147.882 84.6359 150.033C84.2188 150.532 83.4521 150.887 82.3585 151.109C81.4341 151.298 80.6787 151.575 80.0811 151.963C78.0856 153.238 75.2783 154.725 74.6018 156.976C74.5004 157.32 74.5342 157.575 74.7146 157.741C75.019 158.019 75.3121 158.019 75.6165 157.741C76.3268 157.109 76.8792 156.688 77.2851 156.455C77.6346 156.266 77.691 156.333 77.4542 156.654C76.0449 158.562 74.3087 158.795 72.2568 157.342C68.773 154.88 65.8192 152.629 63.3952 150.588C60.1595 147.871 56.7208 143.401 53.0792 137.19C52.3577 135.948 50.5876 135.494 49.2234 135.505C43.2818 135.582 38.3437 135.105 34.4315 134.052C32.5713 133.553 30.5193 132.433 28.2758 130.702C16.6745 121.763 6.71931 107.412 8.5232 92.196C9.47024 84.2219 13.1344 77.7893 19.5269 72.8873C25.9533 67.9742 33.4845 65.8559 41.3427 68.1294C42.3686 68.4289 43.4397 67.7967 43.6652 66.7653C46.4837 53.7228 54.714 40.8799 67.1721 35.2015C75.0077 31.6193 84.4781 30.1886 92.201 33.7265C96.5416 35.7117 99.9352 37.7745 102.37 39.9039C104.659 41.9113 106.846 43.5195 108.943 44.7394C109.89 45.294 111.108 45.0611 111.784 44.196C115.494 39.4381 119.992 35.7006 125.268 32.9834C136.227 27.3383 146.622 28.0592 156.453 35.135C159.757 37.5195 163.026 39.4825 165.563 42.7653C168.19 46.1812 169.915 48.6655 170.738 50.2182C172.643 53.8226 173.782 58.4252 174.176 64.0148C174.21 64.403 174.345 64.7468 174.594 65.0463L176.657 67.4751C177.39 68.3513 178.652 68.6063 179.69 68.0851C182.948 66.4548 186.432 65.2681 190.118 64.5139C196.308 63.2607 200.062 65.4788 204.628 68.5065C206.071 69.4603 205.925 69.9594 204.177 70.0037C202.204 70.0481 201.178 71.9446 199.724 72.9871C195.169 76.2477 189.96 79.4418 186.003 83.3679C183.027 86.318 179.836 89.2903 178.28 93.2385C177.841 94.3587 176.127 96.3993 173.15 99.3383C172.812 99.671 172.553 100.203 172.384 100.946C172.294 101.357 172.339 101.723 172.508 102.044C172.666 102.344 173.071 102.41 173.32 102.189C173.985 101.579 174.526 100.913 174.966 100.17C175.518 99.2163 176.296 98.2847 177.299 97.3753C179.633 95.2459 182.204 93.1609 185 91.1091C186.533 89.989 187.739 88.5916 188.63 86.9169C188.889 86.44 188.822 86.3956 188.427 86.7838C185.293 90 182.519 92.0629 180.118 92.9723C178.652 93.5158 178.517 93.294 179.723 92.3069C182.44 90.0777 185.146 87.7819 187.852 85.4196C188.574 84.7986 189.746 84.488 190.276 83.989C194.346 80.1849 198.721 77.013 203.388 74.4622C204.031 74.1073 204.73 73.9742 205.463 74.0518C205.992 74.1183 206.071 74.3402 205.699 74.7172L169.013 112.414C168.776 112.658 168.799 113.057 169.08 113.268C169.261 113.401 169.464 113.446 169.678 113.401C169.881 113.368 170.061 113.268 170.23 113.124C172 111.538 175.169 108.421 179.746 103.797C183.951 99.5601 190.829 93.427 200.378 85.3864C200.513 85.2755 200.637 85.2311 200.739 85.2533C200.829 85.2755 200.908 85.3309 200.987 85.4086C201.066 85.4973 201.077 85.5971 201.009 85.6969C197.852 90.5213 195.147 94.0592 192.903 96.2884C190.366 98.806 187.92 101.357 185.541 103.919C182.948 106.714 179.656 109.397 176.792 112.27C174.075 114.998 170.997 117.394 168.359 120.322C164.052 125.08 159.587 129.128 155.236 133.586C153.702 135.172 152.146 136.536 150.568 137.678C148.73 139.031 147.017 140.24 145.449 141.316C140.996 144.366 136.768 147.272 132.743 150.033C132.394 150.277 132.247 150.189 132.304 149.767C132.394 149.168 132.732 148.691 133.318 148.348C133.51 148.226 133.544 148.07 133.409 147.882C133.33 147.782 133.251 147.704 133.161 147.638C133.036 147.56 132.935 147.571 132.834 147.671C129.643 151.009 126.024 153.394 121.976 154.824C121.514 154.991 121.492 155.19 121.92 155.434C126.576 158.107 131.492 159.139 136.656 158.529C139.914 158.141 142.045 157.841 143.071 157.653C144.908 157.309 146.972 156.654 149.283 155.667C156.228 152.728 162.507 148.425 168.122 142.758C170.197 140.673 172.046 137.434 173.669 133.043C173.906 132.388 174.447 131.889 175.123 131.678L175.552 131.545C176.048 131.39 176.228 131.556 176.082 132.044V132.056ZM95.6735 149.379C96.598 148.081 97.6578 146.906 98.8641 145.863C99.0107 145.741 99.1009 145.597 99.1572 145.42C99.1911 145.309 99.2587 145.209 99.3602 145.12C99.6195 144.909 99.8675 144.854 100.104 144.976C100.488 145.176 100.521 145.42 100.194 145.697C98.8077 146.928 97.4548 148.17 96.1245 149.434C96.0117 149.534 95.899 149.579 95.7975 149.545L95.696 149.512C95.6397 149.479 95.6284 149.434 95.6735 149.379ZM215.282 115.353C214.809 117.383 213.287 119.601 210.705 121.996C204.234 127.996 197.12 131.457 188.134 129.649C185.597 129.139 182.722 128.152 179.509 126.677C179.148 126.51 179.148 126 179.52 125.834L180.4 125.434C180.964 125.179 181.64 125.268 182.136 125.645C183.703 126.854 184.853 127.486 185.609 127.542C191.415 127.985 196.826 128.385 202.024 125.312C206.162 122.873 212.283 118.37 214.583 113.856C214.967 113.091 214.82 112.969 214.144 113.512C209.578 117.172 204.324 120.81 198.36 124.436C196.229 125.734 194.121 126.41 192.024 126.466C190.411 126.51 190.344 126.211 191.809 125.556C193.703 124.725 195.428 123.982 197.12 122.762C200.694 120.2 203.467 118.17 207.875 115.353C212.216 112.569 213.986 109.42 216.917 105.427C217.154 105.105 217.312 105.15 217.368 105.538C217.797 108.311 215.97 112.359 215.282 115.353Z" fill="#002657"/>
<path d="M138.854 37.0647C138.279 38.3623 136.441 38.4399 135.765 37.1867L134.615 35.0573C134.356 34.5693 134.558 33.9593 135.066 33.7264C136.836 32.9168 138.685 32.6506 140.601 32.9279C141.165 33.0055 141.379 33.6931 140.962 34.0813C140.094 34.8576 139.384 35.8558 138.854 37.0647Z" fill="#002657"/>
<path d="M151.515 37.7635C149.249 38.196 143.679 38.7728 143.6 35.3679C143.566 34.3809 144.062 33.8929 145.066 33.904C147.862 33.9373 150.151 34.6582 151.943 36.0556C152.597 36.5657 152.338 37.6082 151.515 37.7635Z" fill="#002657"/>
<path d="M131.436 35.645C131.842 36.3659 130.883 37.6524 129.305 38.5064C127.727 39.3714 126.114 39.4712 125.708 38.7504C125.303 38.0295 126.261 36.743 127.839 35.889C129.418 35.0239 131.03 34.9241 131.436 35.645Z" fill="#002657"/>
<path d="M74.377 37.1979L73.3397 40.8467C73.2383 41.1794 72.8549 41.3568 72.5392 41.2016L69.0668 39.5602C68.6271 39.3494 68.6383 38.7284 69.0668 38.5287L73.5765 36.5324C74.0162 36.3328 74.501 36.7321 74.3657 37.1979H74.377Z" fill="#002657"/>
<path d="M77.0602 36.965C77.1955 36.4437 77.7254 36.1221 78.2666 36.2552L81.3444 37.0093C83.5091 37.5306 85.0311 38.8947 84.738 40.0481L84.6478 40.3919C84.366 41.5454 82.3704 42.0555 80.2057 41.5232L77.1279 40.7801C76.5867 40.647 76.271 40.1147 76.395 39.5934L77.0602 36.965Z" fill="#002657"/>
<path d="M155.134 38.8393C155.405 38.3845 156.013 38.2293 156.476 38.4954L156.566 38.5509C160.061 40.5805 162.372 43.0869 161.752 44.1295L161.594 44.3845C160.963 45.4271 157.626 44.6285 154.131 42.599L154.04 42.5435C153.578 42.2773 153.42 41.6895 153.691 41.2237L155.134 38.8393Z" fill="#002657"/>
<path d="M66.5299 39.3938C66.8004 39.3384 67.0598 39.538 67.0598 39.8152C67.0598 41.3125 66.5862 42.2884 65.6392 42.7432C65.222 42.9428 64.7823 42.9206 64.3201 42.6877C63.7902 42.4215 63.5196 42.0112 63.4858 41.4456C63.4407 40.7025 63.7451 40.2034 64.4103 39.9705C65.1206 39.7265 65.8309 39.538 66.5299 39.3938Z" fill="#002657"/>
<path d="M120.951 41.989C121.086 41.9668 121.221 41.9335 121.357 41.9003C121.661 41.8226 121.819 41.9446 121.808 42.2552C121.808 42.7764 121.605 43.1979 121.233 43.5195C120.477 44.1849 119.339 44.1849 118.595 43.5084C117.963 42.9317 117.783 42.3439 118.042 41.7339C118.211 41.3568 118.493 41.2126 118.888 41.3125C119.271 41.4123 119.632 41.5675 119.959 41.7894C120.263 42.0001 120.59 42.0666 120.951 41.989Z" fill="#002657"/>
<path d="M87.0266 48.1221C86.2148 47.4123 86.6094 45.671 87.906 44.2515C89.2025 42.8319 90.9049 42.2441 91.7167 42.9539C92.5284 43.6636 92.1338 45.4049 90.8373 46.8245C89.5407 48.2441 87.8383 48.8319 87.0266 48.1221Z" fill="#002657"/>
<path d="M166.228 47.4787L167.221 51.183C167.401 51.8817 166.77 52.5471 166.048 52.4029L162.598 51.7042C162.034 51.5933 161.685 51.0499 161.82 50.5064L162.756 46.8022C162.902 46.2033 163.579 45.8817 164.154 46.1478L165.676 46.8355C165.947 46.9685 166.149 47.2014 166.228 47.4787Z" fill="#002657"/>
<path d="M170.332 60.0555C170.354 60.1664 170.354 60.2773 170.332 60.3882C170.32 60.4104 170.309 60.4326 170.287 60.4437C169.757 60.854 169.272 60.9317 168.855 60.6988C168.562 60.5324 168.415 60.2884 168.415 59.9557L168.471 54.9539C168.471 54.721 168.776 54.6322 168.911 54.8097L170.839 57.2607C171.098 57.6045 171.177 57.9705 171.064 58.3808C170.974 58.7247 170.771 59.1239 170.444 59.5564C170.332 59.7117 170.298 59.8781 170.343 60.0555H170.332Z" fill="#002657"/>
<path d="M194.91 67.6524C188.969 67.1755 183.433 71.7227 179.296 76.5027C178.472 77.4454 177.3 78.2217 175.755 78.8317C175.383 78.9759 175.282 78.865 175.428 78.499C176.612 75.5822 177.458 73.7411 177.976 72.9759C180.367 69.4602 188.112 66.8761 192.306 65.8668C192.667 65.7781 193.028 65.7781 193.377 65.8668L199.939 67.4861C200.593 67.6524 200.818 68.4399 200.345 68.9057C197.853 71.3567 195.564 73.1423 193.467 74.2402C190.671 75.7042 188.349 77.1127 186.511 78.4768C181.438 82.2033 175.338 87.4047 172.508 93.2827C172.317 93.6709 171.854 93.8484 171.449 93.682L171.178 93.5711C170.862 93.438 170.75 93.0498 170.953 92.7726C175.18 86.7948 178.146 83.0572 179.825 81.56C183.174 78.621 186.331 75.7264 189.307 72.8983C191.145 71.157 193.355 70.048 195.17 68.3955C195.655 67.9519 195.564 67.7079 194.91 67.6524Z" fill="#002657"/>
<path d="M148.73 68.1516C153.364 67.1202 157.017 69.6599 157.4 74.3069C157.998 81.549 157.242 88.4696 155.145 95.0684C154.908 95.8448 154.232 96.4104 153.42 96.5213C151.177 96.854 148.843 96.7542 146.419 96.233C144.592 95.8337 143.893 94.7246 143.702 93.0167C143.037 87.3272 142.642 81.4714 142.507 75.427C142.417 71.5232 144.491 69.0943 148.73 68.1516Z" fill="#002657"/>
<path d="M116.272 70.3032C121.605 67.1313 126.802 69.4159 127.603 75.5712C128.539 82.7135 128.494 89.8115 127.49 96.854C127.366 97.7523 126.622 98.44 125.698 98.5065C123.499 98.6507 121.334 98.6285 119.192 98.451C117.219 98.2847 115.9 97.2089 115.494 95.379C114.468 90.7875 113.848 85.22 113.623 78.6655C113.521 75.6267 113.454 71.9889 116.272 70.3032Z" fill="#002657"/>
<path d="M66.755 69.6931C75.921 70.3918 73.2941 93.1497 72.3583 98.573C72.2005 99.427 71.5015 100.092 70.6334 100.203C68.5476 100.458 66.2927 100.536 63.8462 100.447C62.0649 100.392 60.9487 99.5268 60.4978 97.8743C58.8292 91.7412 57.7919 85.4861 57.3973 79.109C56.9802 72.3105 60.0919 69.1719 66.755 69.6931Z" fill="#002657"/>
<path d="M89.1793 97.0426C87.646 91.3532 86.8455 84.7321 86.7779 77.1683C86.7328 72.5879 89.6528 69.9594 94.264 69.8818C99.2698 69.8042 100.792 72.4105 101.344 77.0131C102.167 83.9447 101.818 90.9428 100.318 98.0297C100.16 98.7838 99.5065 99.3384 98.7286 99.3827C96.5527 99.5047 94.2753 99.4382 91.8964 99.1942C90.4195 99.0389 89.5175 98.318 89.1793 97.0426Z" fill="#002657"/>
<path d="M27.0358 78.6321C26.4269 79.3641 25.153 79.3086 24.1946 78.5212C23.2363 77.7337 22.9657 76.5138 23.5746 75.7929C24.1834 75.0609 25.4574 75.1164 26.4157 75.9038C27.374 76.6912 27.6446 77.9112 27.0358 78.6321Z" fill="#002657"/>
<path d="M22.0186 84.5878C22.2554 86.9833 21.1505 88.5249 18.6927 89.2125C18.1177 89.3789 17.554 88.9242 17.6103 88.3364C17.7231 87.1719 18.0388 85.9186 18.5574 84.5545C18.9633 83.4676 19.5946 82.9685 20.4515 83.0462C21.4098 83.146 21.9284 83.6561 22.0186 84.5878Z" fill="#002657"/>
<path d="M29.2455 121.331C29.3357 121.508 29.2455 121.719 29.0764 121.808C27.6784 122.429 26.2127 122.362 24.9274 121.386C18.0389 116.129 10.4963 98.817 16.0208 91.0092C16.2462 90.6876 16.5394 90.6099 16.9114 90.7541C17.306 90.9205 17.6555 91.1423 17.9487 91.4085C18.2305 91.6635 18.3771 91.9852 18.3884 92.3622C18.5124 102.344 21.7368 111.194 28.0504 118.913C28.5916 119.579 28.8284 120.499 29.2455 121.331Z" fill="#002657"/>
<path d="M21.0044 94.7246C20.9819 94.5915 21.0721 94.4584 21.2074 94.4362L21.3427 94.414C22.6618 94.2033 23.9245 95.0905 24.15 96.3992L24.2063 96.7098C24.4318 98.0295 23.5411 99.2717 22.2108 99.4935L22.0755 99.5157C21.9402 99.5379 21.8162 99.4491 21.7936 99.3161L21.0044 94.7246Z" fill="#002657"/>
<path d="M154.154 101.8C156.454 104.296 156.183 108.233 153.545 110.573C150.918 112.924 146.916 112.813 144.616 110.307C142.316 107.812 142.586 103.874 145.225 101.534C147.851 99.1831 151.854 99.294 154.154 101.8Z" fill="#002657"/>
<path d="M117.523 110.662C115.201 108.455 115.19 104.75 117.501 102.399C119.812 100.048 123.566 99.9482 125.9 102.155C128.223 104.362 128.234 108.066 125.923 110.418C123.611 112.769 119.857 112.869 117.523 110.662Z" fill="#002657"/>
<path d="M100.804 107.002C100.804 110.14 98.2219 112.68 95.0312 112.68C91.8406 112.68 89.2588 110.14 89.2588 107.002C89.2588 103.863 91.8406 101.323 95.0312 101.323C98.2219 101.323 100.804 103.863 100.804 107.002Z" fill="#002657"/>
<path d="M73.0683 107.301C73.0683 110.307 70.5993 112.736 67.5439 112.736C64.4886 112.736 62.0195 110.307 62.0195 107.301C62.0195 104.296 64.4886 101.867 67.5439 101.867C70.5993 101.867 73.0683 104.296 73.0683 107.301Z" fill="#002657"/>
<path d="M31.6805 122.684C34.8824 124.359 33.0898 129.161 29.4482 127.597C29.0987 127.453 29.0536 126.987 29.358 126.776C30.6997 125.856 31.1957 124.625 30.8688 123.072C30.8124 122.806 30.6884 122.573 30.5193 122.362L30.2938 122.107C30.1247 121.919 30.1585 121.852 30.4178 121.919C30.6095 121.963 30.7898 122.041 30.9477 122.163C31.3648 122.473 31.6016 122.651 31.6805 122.684Z" fill="#002657"/>
<path d="M40.486 128.373C41.6135 128.296 42.1885 128.806 42.2223 129.926C42.2223 130.081 42.2223 130.237 42.2223 130.392C42.2561 131.545 41.6811 132.122 40.5086 132.111L35.7283 132.055C35.3337 132.055 34.9842 131.834 34.8151 131.49C33.9469 129.738 35.841 128.695 40.4748 128.373H40.486Z" fill="#002657"/>
<path d="M79.2691 146.44L85.1769 139.431C85.4362 139.12 85.8759 138.998 86.2705 139.131L86.6763 139.264C87.0484 139.398 87.1724 139.863 86.8906 140.141L80.3289 146.651C80.0809 146.895 79.9794 147.183 80.0358 147.527L80.2049 148.614C80.2725 149.091 80.0809 149.246 79.6186 149.091C75.6275 147.793 74.2408 153.349 70.96 151.464C65.7625 148.481 61.6925 144.311 58.7274 138.976C58.6372 138.832 58.6034 138.666 58.6259 138.499C58.7274 137.645 59.0994 137.224 59.7308 137.246C60.2381 137.257 60.7229 137.512 61.0161 137.922C63.2258 140.928 67.6904 148.059 70.6894 148.747C70.96 148.813 71.1742 148.958 71.332 149.179C71.8281 149.878 72.5497 150.133 73.4854 149.945C74.782 149.69 75.3682 148.314 76.1236 147.316C76.3491 147.017 76.6535 146.828 77.0255 146.773C77.4427 146.706 77.8598 146.706 78.277 146.784C78.6716 146.861 79.0098 146.739 79.2691 146.44Z" fill="#002657"/>
<path d="M70.9718 145.786C70.9041 145.22 71.1522 144.976 71.7272 145.065C72.1443 145.131 72.4262 145.342 72.5953 145.686C72.9335 146.418 72.8997 147.127 72.5051 147.826C72.2232 148.303 71.9414 148.303 71.637 147.848C71.2875 147.327 71.062 146.64 70.9718 145.786Z" fill="#002657"/>
<path d="M82.2007 177.682C81.1635 176.939 80.115 176.351 79.0439 175.919C78.5591 175.719 78.2773 175.209 78.3675 174.688C78.5929 173.446 78.514 172.281 78.1194 171.183C77.9841 170.806 78.39 170.451 78.7508 170.651C82.5728 172.758 84.884 175.686 85.6957 179.423C86.1918 181.708 85.5379 184.625 83.3958 185.889C82.663 186.322 81.9865 186.333 81.3551 185.889C80.6223 185.39 80.4194 184.403 80.9042 183.66L82.787 180.754C83.4522 179.734 83.1929 178.381 82.2007 177.671V177.682Z" fill="#002657"/>
<path d="M42.7856 214.669C41.3989 214.791 40.1587 213.649 40.0121 212.107C39.8656 210.577 40.8802 209.224 42.267 209.102C43.6537 208.98 44.8939 210.122 45.0405 211.664C45.187 213.194 44.1723 214.547 42.7856 214.669Z" fill="#002657"/>
</g>
<defs>
<clipPath id="clip0_525_3363">
<rect width="228" height="228" fill="white"/>
</clipPath>
</defs>
</svg>
