<svg width="178" height="154" viewBox="0 0 178 154" fill="none" xmlns="http://www.w3.org/2000/svg">
<g clip-path="url(#clip0_0_791)">
<path d="M33.7384 23.0296C33.7081 23.748 33.1037 24.3067 32.3784 24.2768L30.5046 24.207C29.7792 24.187 29.2151 23.5783 29.2453 22.8599L29.5274 15.1869C29.5576 14.4685 30.162 13.9097 30.8874 13.9396L32.7612 14.0095C33.4865 14.0294 34.0507 14.6381 34.0204 15.3565L33.7384 23.0296Z" fill="#002657"/>
<path d="M45.274 20.2151C45.818 19.0377 46.7045 18.6785 47.9235 19.1374C48.4272 19.327 48.9007 19.5565 49.3439 19.8459C50.4622 20.5743 50.6032 21.4623 49.7771 22.49L46.0094 27.1996C45.818 27.4491 45.5258 27.6187 45.2035 27.6686C44.1054 27.8482 43.3095 27.4491 42.826 26.4613C42.6648 26.132 42.6648 25.7928 42.826 25.4635L45.2841 20.2151H45.274Z" fill="#002657"/>
<path d="M16.6726 21.4924L19.1307 26.1122C19.2919 26.4116 19.302 26.7109 19.1509 27.0202C18.7681 27.8285 18.1233 28.2775 17.2166 28.3872C16.8741 28.4371 16.5719 28.3373 16.32 28.1078C14.6578 26.5812 13.1769 24.8949 11.8572 23.0291C11.0613 21.9015 11.1822 20.8738 12.2299 19.9558C12.6631 19.5767 13.1769 19.427 13.7511 19.4969C15.0809 19.6565 16.0581 20.325 16.6726 21.4924Z" fill="#002657"/>
<path d="M11.4552 36.5796C10.7298 37.5774 9.32952 37.7969 8.33218 37.0785L4.65511 34.4443C3.65777 33.7259 3.43614 32.3489 4.15141 31.3511L4.37304 31.0418C5.09838 30.054 6.49868 29.8345 7.49602 30.5429L11.1731 33.1771C12.1704 33.8955 12.3921 35.2725 11.6768 36.2703L11.4552 36.5796Z" fill="#002657"/>
<path d="M57.3618 31.2008C58.0871 32.5079 56.8178 34.5734 54.541 35.8206C52.2643 37.0778 49.8163 37.0279 49.0909 35.7208C48.3656 34.4137 49.6349 32.3483 51.9117 31.101C54.1884 29.8438 56.6364 29.8937 57.3618 31.2008Z" fill="#002657"/>
<path d="M44.377 36.4198C49.9782 45.7692 45.1829 55.9068 37.4259 62.1829C32.6809 66.0145 25.7197 65.6852 21.6296 60.5964C17.197 55.0686 14.2453 47.8845 15.5952 40.9099C16.1392 38.1061 17.3582 35.8411 19.242 34.0949C25.4578 28.3676 39.894 28.9463 44.377 36.4198Z" fill="#002657"/>
<path d="M60.8472 45.3396C60.8975 46.3275 60.1319 47.1656 59.1345 47.2155L52.7778 47.5348C51.7804 47.5847 50.9342 46.8264 50.8838 45.8385L50.8637 45.3596C50.8133 44.3718 51.5789 43.5336 52.5763 43.4837L58.9331 43.1644C59.9304 43.1145 60.7766 43.8729 60.827 44.8607L60.8472 45.3396Z" fill="#002657"/>
<path d="M1.5105 43.743L8.73366 43.9326C9.63026 43.9625 10.2851 44.7508 10.144 45.6288L9.95263 46.8262C9.84182 47.4748 9.30789 47.9737 8.64299 48.0435L1.88325 48.6721C1.09746 48.742 0.402348 48.1932 0.291533 47.4149L0.00945662 45.3894C-0.111433 44.5013 0.603831 43.7131 1.5105 43.743Z" fill="#002657"/>
<path d="M6.8699 59.8176C8.81421 59.2489 11.1816 57.0637 12.7028 55.8464C13.2065 55.4472 13.9218 55.4373 14.4255 55.8364C16.803 57.7122 13.2569 60.7755 11.5947 61.7533C11.3529 61.903 11.1413 62.0826 10.96 62.2921L9.5194 64.0383C9.25748 64.3476 8.94518 64.4075 8.58251 64.2179C7.39376 63.5693 5.7416 62.4218 5.87256 60.9551C5.92293 60.3764 6.25538 59.9972 6.8699 59.8176Z" fill="#002657"/>
<path d="M54.8141 64.378C54.4413 64.8569 53.7462 64.9467 53.2627 64.5775L51.7515 63.4201C48.4875 60.9356 46.4425 58.1318 47.198 57.1539L47.4599 56.8246C48.2155 55.8568 51.4695 57.0941 54.7335 59.5786L56.2446 60.736C56.7282 61.1052 56.8188 61.7937 56.4461 62.2726L54.8141 64.378Z" fill="#002657"/>
<path d="M41.1321 74.0365C41.525 75.6829 40.9105 76.7505 39.2684 77.2395C38.7345 77.3891 38.261 77.5288 37.858 77.6486C36.2159 78.1375 35.2387 77.5388 34.9264 75.8725C34.6041 74.1463 34.4126 71.991 34.3522 69.4267C34.322 68.2194 35.3697 67.2615 36.5786 67.3812C39.0568 67.6307 40.5579 71.6518 41.1321 74.0365Z" fill="#002657"/>
<path d="M25.7997 76.0017C25.6486 77.1392 24.5807 77.9375 23.4322 77.7878L22.6968 77.688C21.5383 77.5284 20.7324 76.4807 20.8936 75.3432L21.6189 70.0648C21.77 68.9273 22.8379 68.1291 23.9863 68.2788L24.7217 68.3786C25.8803 68.5382 26.6862 69.5859 26.525 70.7234L25.7997 76.0017Z" fill="#002657"/>
<path d="M177.971 148.143C177.437 141.268 176.178 132.048 174.193 120.464C172.621 111.324 169.418 94.8403 161.671 89.8414C155.939 86.1295 148.625 84.1639 142.127 81.7492C138.762 80.502 136.203 79.2747 134.44 78.0873C131.821 76.3212 129.766 74.3156 128.265 72.0706C127.388 70.7635 127.64 68.3488 128.476 66.8022C130.844 62.4618 132.567 57.8719 133.644 53.0326C133.715 52.7133 133.876 52.4439 134.128 52.2144C135.69 50.7876 137.342 50.0193 138.329 48.1933C140.344 44.4316 140.344 40.6799 138.319 36.9282C137.976 36.2896 137.926 35.5313 138.198 34.8528C141.009 27.7884 141.885 18.2195 138.702 11.0952C137.422 8.22156 135.246 6.60513 132.174 6.2559C131.287 6.15612 130.431 5.90667 129.867 5.29801C127.993 3.26251 125.968 2.06515 123.792 1.71592C120.921 1.25694 117.516 0.827882 113.577 0.418786C112.388 0.29905 111.169 0.319006 109.92 0.488632C108.58 0.658257 107.341 0.638301 106.213 0.428764C104.027 0.00968898 102.223 -0.100069 100.813 0.0994907C96.9746 0.648279 93.7912 2.21482 91.2727 4.77916C90.1947 5.87674 88.8952 7.80248 87.384 10.5664C85.0569 14.837 81.8735 19.5865 82.1757 24.6852C82.4074 28.8161 83.304 32.8173 84.8454 36.6987C84.9763 37.018 84.9864 37.3373 84.8756 37.6566C84.6842 38.2453 84.3819 38.7841 83.9488 39.273C83.7271 39.5224 83.6062 39.8218 83.576 40.1511C83.4048 42.6555 83.7674 45.0502 84.6741 47.3452C85.7319 50.0592 88.6433 51.0869 89.5701 53.5615C91.4741 58.6502 93.1364 62.1625 94.5669 64.1082C95.7254 65.6847 96.7127 67.1714 97.5287 68.5783C99.5032 71.9808 93.5897 77.1294 91.182 79.0651C87.0516 82.3878 78.9419 85.9899 72.6959 88.4045C70.0464 89.4323 67.7798 90.4101 65.8757 91.3381C59.3175 94.531 56.94 99.7295 54.0991 106.544C52.5577 110.236 51.3791 113.808 50.563 117.261C50.422 117.879 49.6161 118.069 49.2131 117.57C48.2561 116.393 47.5912 115.555 47.4199 113.978C47.027 110.296 46.8457 106.355 45.4152 102.893C44.2869 100.169 41.7985 99.2206 39.2095 98.2628C38.8972 98.153 38.6756 97.9435 38.5345 97.6441C36.9126 94.2117 36.3384 88.664 33.1751 86.5287C30.1629 84.5031 23.9975 85.5508 25.146 90.3802C25.9217 93.623 27.1205 96.4867 28.7626 98.9712C28.9339 99.2206 28.8734 99.3803 28.5611 99.4302C26.778 99.7395 24.8639 100.328 22.8088 101.186C19.6254 102.503 17.6911 105.746 17.1169 108.999C16.9456 110.007 17.0867 111.454 17.5602 113.359C17.9631 114.966 18.1646 116.473 18.1545 117.889C18.1445 118.897 18.3862 119.895 18.8597 120.903C20.4313 124.225 19.9377 127.508 24.1688 128.995C25.9519 129.624 27.7854 130.172 29.6894 130.641C30.042 130.731 30.2334 130.961 30.2536 131.32L30.6565 139.023C30.6868 139.582 30.848 140.12 31.1401 140.599C35.2 147.324 37.2652 153.321 46.4226 153.73C56.4363 154.179 65.4829 154.08 73.5522 153.431C74.0358 153.391 74.4488 153.052 74.5597 152.593C75.1339 150.268 75.698 147.993 76.2521 145.748C76.4234 145.04 76.7659 144.411 77.2696 143.862C77.5819 143.533 78.146 143.702 78.2065 144.151C78.5289 146.396 78.6095 151.964 81.1784 152.323C83.4954 152.653 85.8427 152.982 88.2202 152.942C96.8537 152.802 105.477 152.912 114.091 153.261C124.245 153.67 133.06 153.511 142.58 153.311C143.195 153.301 143.638 153.022 143.92 152.493C144.313 151.725 144.666 150.757 144.978 149.609C145.864 146.287 146.63 142.974 147.285 139.681C147.597 138.085 147.99 138.065 148.464 139.621C148.665 140.29 148.756 141.048 148.736 141.896C148.665 145.469 148.725 149.061 148.937 152.663C148.967 153.231 149.269 153.511 149.834 153.511C156.674 153.561 163.444 153.511 170.123 153.351C173.216 153.281 174.868 153.221 175.079 153.172C177.225 152.663 178.192 150.986 177.971 148.143ZM39.3505 105.996C39.3707 105.666 39.683 105.427 40.0054 105.507C40.3176 105.577 40.499 105.776 40.5695 106.085C41.3956 110.246 41.9799 114.208 42.3224 117.969C42.3526 118.289 42.2217 118.608 41.9698 118.807L39.8845 120.504C39.5621 120.763 39.4009 120.693 39.3908 120.284C39.3405 118.099 40.1766 115.964 39.8442 113.788C39.411 111.005 39.2498 108.41 39.3505 105.996ZM22.9297 109.298C24.3904 104.988 28.1985 104.569 32.8124 104.03C33.5478 103.94 34.0818 104.23 34.4142 104.888L34.8373 105.736C35.1899 106.425 34.9683 106.744 34.1926 106.684C29.6995 106.365 27.3119 108.091 23.4334 109.757C23.1412 109.887 22.8289 109.608 22.9297 109.298ZM27.0702 123.168C26.6773 123.118 26.4959 122.898 26.506 122.509C26.5161 121.98 26.6571 121.501 26.9291 121.052C27.0802 120.803 27.3522 120.623 27.6545 120.583C29.7398 120.294 31.9259 119.675 34.2329 118.708C34.5452 118.578 34.6963 118.678 34.6862 119.017C34.5754 122.35 29.5081 123.457 27.0702 123.168ZM35.2705 112.412C35.2302 113.09 34.7265 113.659 34.0515 113.798L25.3173 115.545C23.9472 115.814 23.7054 115.415 24.5919 114.347C26.1433 112.491 32.6412 111.454 34.5452 111.284C34.9683 111.244 35.3209 111.593 35.2907 112.012L35.2705 112.412ZM41.7381 123.198C42.3627 122.629 43.36 122.858 43.6623 123.647C44.0249 124.595 43.9544 125.692 43.4406 126.959C42.5843 129.065 41.0329 130.402 38.7864 130.971C38.4539 131.06 38.1618 130.991 37.8999 130.771C35.1496 128.446 40.0759 124.724 41.7381 123.198ZM45.0525 145.728C44.9215 146.197 44.6294 146.436 44.1861 146.466C43.8033 146.486 43.4406 146.247 43.1082 145.748C42.5944 144.99 42.7657 144.461 43.6421 144.171C43.8033 144.122 43.9645 144.102 44.1156 144.131C44.4178 144.181 44.6596 144.321 44.8309 144.571C45.0928 144.94 45.1633 145.319 45.0525 145.728ZM48.0445 135.53C45.8987 138.125 43.088 139.432 39.6125 139.442C38.8368 139.452 38.2524 139.282 37.8797 138.943C37.1947 138.324 37.5473 137.197 38.464 137.067C39.6326 136.897 40.7508 136.658 41.8187 136.329C45.4051 135.231 49.7269 128.177 50.6235 124.525C50.6839 124.275 50.8451 124.176 51.1071 124.235C51.1977 124.255 51.2884 124.295 51.3589 124.365C51.4194 124.415 51.4496 124.505 51.4597 124.615C51.8122 128.725 50.6739 132.367 48.0445 135.53ZM64.0221 133.435C63.8105 133.834 59.9119 132.188 55.318 129.753L55.2375 129.703C55.036 129.604 54.9655 129.354 55.0662 129.165L55.6404 128.107C55.7412 127.917 55.993 127.837 56.1844 127.947L56.2751 127.997C60.8588 130.432 64.4049 132.737 64.1934 133.136L64.0221 133.435ZM80.6747 96.4767C80.3825 96.8459 79.9695 97.1452 79.4456 97.3548C79.1031 97.4945 78.7908 97.4446 78.5087 97.2151L77.4308 96.357C77.1386 96.1275 76.8163 96.0975 76.4838 96.2672C75.7686 96.6364 75.2346 97.1752 74.9022 97.8836C74.741 98.2328 74.8115 98.5222 75.1238 98.7517L75.7484 99.2206C76.0003 99.4102 76.1211 99.6697 76.101 99.9889C76.0708 100.578 75.8491 101.087 75.4462 101.516C75.154 101.825 74.9425 101.785 74.8115 101.376L74.5697 100.647C74.4589 100.298 74.2474 100.238 73.9552 100.458C73.8343 100.548 73.6933 100.807 73.6933 100.997C73.6933 101.536 73.5825 102.104 73.3911 102.693C73.2601 103.112 73.1291 103.112 73.0183 102.693C72.8874 102.224 72.7564 101.745 72.6456 101.236C72.4139 100.169 71.7893 99.7694 70.7919 100.039C70.4595 100.129 70.2479 100.328 70.1371 100.647C69.5629 102.434 68.8879 104.15 68.1021 105.796C67.8906 106.225 67.7697 106.205 67.7395 105.736L67.4775 102.324C67.4473 101.945 67.2458 101.805 66.8832 101.895C65.9563 102.134 65.2511 102.404 64.7978 103.322C63.7703 105.347 63.055 107.153 62.6419 108.74C61.5539 112.91 60.3853 117.061 59.1462 121.182C59.0253 121.581 58.844 121.881 58.6123 122.09C58.2798 122.389 57.756 122.26 57.6049 121.841C57.0307 120.194 56.9601 118.478 57.4034 116.682C58.5216 112.162 60.0025 107.762 61.836 103.481C62.8434 101.126 64.0826 99.4601 66.46 98.173C69.4319 96.5565 72.5549 95.3093 75.8491 94.4312C76.9573 94.1319 78.6095 93.4334 79.8687 93.8425C80.987 94.2017 81.4 95.5587 80.6747 96.4767ZM128.547 83.0364C128.446 85.6606 127.812 89.0631 126.653 93.2538C126.613 93.4035 126.562 93.4035 126.502 93.2738C125.223 90.5797 123.54 88.2549 121.435 86.2992C120.649 85.5608 120.699 84.3136 121.545 83.6351L126.099 80.0031C126.351 79.7935 126.613 79.7836 126.885 79.9831C128.043 80.8312 128.597 81.849 128.547 83.0364ZM101.579 5.78693C106.807 5.81687 111.572 6.24592 115.874 7.05414C116.005 7.07409 116.115 7.18385 116.156 7.31356C116.216 7.5231 116.176 7.68275 116.045 7.79251C115.954 7.85237 115.864 7.88231 115.753 7.88231C112.882 7.87233 109.658 7.50314 106.061 6.79471C104.571 6.49537 102.928 6.58517 101.125 7.06411C95.4131 8.59074 93.1162 13.3103 91.9577 18.5986C91.9073 18.8381 91.7562 18.9279 91.5144 18.8681L91.2424 18.7982C91.0107 18.7383 90.91 18.5986 90.9201 18.3692C91.2223 12.7316 95.0908 5.74702 101.579 5.78693ZM97.71 57.862C96.1183 54.5792 95.1109 51.1169 94.6878 47.4549C94.6576 47.1257 94.5165 46.8363 94.2647 46.6068C93.2875 45.7088 92.0887 45.3596 90.6884 45.5591C90.3559 45.609 90.1443 45.4693 90.0537 45.14C89.8421 44.2919 89.7817 43.3739 89.8724 42.3662C89.9126 41.9271 90.0839 41.8673 90.3861 42.1866C91.5044 43.354 92.814 43.4937 94.305 42.6056C94.5971 42.436 94.7986 42.1866 94.9094 41.8573C95.4635 40.1311 95.7456 38.385 95.7557 36.6089C95.7657 34.3139 95.8967 32.5878 96.1284 31.4403C96.6019 29.1454 97.0048 26.8405 97.3474 24.5355C97.7201 22.041 98.254 20.3548 98.9492 19.4867C100.702 17.2816 103.341 17.092 106.273 17.4512C111.864 18.1397 117.536 18.2394 123.288 17.7605C124.165 17.6907 124.94 18.3193 125.031 19.1873L125.474 23.6475C125.505 23.9568 125.615 24.2462 125.797 24.5056C127.137 26.4014 127.882 28.2773 128.023 30.1432C128.335 34.3339 128.688 38.4448 129.071 42.4859C129.141 43.2143 129.524 43.4737 130.229 43.2742L132.778 42.5458C133.292 42.4061 133.765 42.875 133.614 43.3839C133.09 45.17 131.962 46.2476 130.229 46.6367C129.524 46.7964 129.111 47.2055 128.98 47.864C128.557 50.0692 128.124 52.1146 127.691 54.0204C126.411 59.648 124.336 63.0605 119.793 66.4131C117.828 67.8599 116.246 67.8599 113.537 67.8699C106.233 67.8998 100.964 64.5572 97.71 57.862ZM99.6443 79.8734C100.329 79.3545 101.307 79.4543 101.891 80.0929C103.321 81.6993 105.054 83.0264 107.099 84.0841C107.21 84.1439 107.24 84.2836 107.16 84.3734C104.913 86.9378 102.999 89.6717 101.417 92.5653C101.246 92.8746 100.813 92.9046 100.611 92.6152C99.6543 91.3081 98.7074 89.8713 97.7805 88.3247C95.8564 85.1018 96.4709 82.2781 99.6443 79.8734ZM106.525 128.656C106.082 128.306 105.749 127.867 105.538 127.359C103.845 123.297 101.951 118.957 99.8558 114.347C97.4783 109.109 94.446 104.639 90.7689 100.957C90.4869 100.667 90.4869 100.398 90.7689 100.129L92.1693 98.8415C92.8442 98.2328 92.9651 97.5344 92.5319 96.7461C90.9201 93.7727 88.8649 91.7172 86.3666 90.5897C85.5304 90.2105 85.3692 89.103 86.0744 88.5243L90.235 85.0519C90.5272 84.8125 90.7085 84.8723 90.7891 85.2415C90.9704 86.0896 91.2424 86.838 91.6152 87.4865C96.1788 95.5687 99.745 104.06 102.324 112.97C103.785 118.029 105.225 123.228 106.646 128.566C106.696 128.726 106.646 128.755 106.515 128.656H106.525ZM108.54 98.0632C108.046 102.344 107.492 106.634 106.888 110.915C106.777 111.703 106.595 111.713 106.364 110.955C105.85 109.288 105.427 107.732 104.772 106.076C102.848 101.176 102.415 97.3548 106.092 93.0144C106.303 92.7749 106.495 92.7849 106.666 93.0543C107.694 94.6008 108.761 96.1275 108.54 98.0632ZM116.478 121.881C116.136 123.497 115.753 125.094 115.32 126.67C115.239 126.979 114.846 127.059 114.635 126.82C112.509 124.295 111.451 121.392 111.451 118.089C111.441 112.561 111.683 107.243 112.156 102.144C112.318 100.418 112.67 100.378 113.224 102.024C114.836 106.844 115.914 111.843 116.629 117.051C116.861 118.728 116.811 120.334 116.478 121.881ZM111.199 89.073C111.199 88.0653 112.025 87.2471 113.043 87.2471C114.06 87.2471 114.886 88.0653 114.886 89.073C114.886 90.0808 114.06 90.899 113.043 90.899C112.025 90.899 111.199 90.0808 111.199 89.073ZM116.226 81.6295C115.723 82.0086 115.027 82.0386 114.494 81.6894C111.562 79.7836 108.782 77.4288 106.152 74.6249C105.699 74.136 105.81 73.9265 106.464 73.9864C110.343 74.3156 114.201 73.7369 118.02 72.2302C119.208 71.7613 120.256 71.9409 121.153 72.7591C121.858 73.3977 122.039 74.4354 121.596 75.2735C120.286 77.7979 118.493 79.9133 116.226 81.6295ZM120.135 112.431C119.299 107.073 118.594 101.875 118.03 96.816C117.838 95.1297 118.322 93.7427 119.48 92.6352C119.833 92.3059 120.125 92.3458 120.377 92.7649C121.102 94.0221 122.049 95.1496 123.228 96.1375C123.601 96.4567 123.822 96.9157 123.832 97.3947C123.883 100.468 123.51 103.182 122.714 105.547C121.838 108.111 121.163 110.416 120.699 112.451C120.478 113.419 120.286 113.419 120.135 112.431ZM128.416 111.933C127.469 114.956 126.391 117.929 125.182 120.833C123.963 123.756 122.724 126.76 121.465 129.823C121.455 129.863 121.425 129.873 121.374 129.863L121.102 129.793C120.971 129.753 120.921 129.663 120.951 129.534C121.556 126.92 122.291 124.365 123.157 121.881C125.202 116.044 127.106 110.166 128.849 104.23C130.572 98.4025 133.393 91.9866 135.075 85.3812C135.216 84.8125 135.538 84.6827 136.052 84.9921C138.41 86.4389 138.943 88.1451 137.664 90.1108C133.221 96.9157 131.076 103.461 128.416 111.933ZM140.636 107.233C140.102 108.999 139.226 110.665 138.017 112.212C137.553 112.811 137.735 113.669 138.389 114.038L141.009 115.545C141.704 115.944 141.653 116.213 140.868 116.353C138.964 116.682 137.291 116.183 135.841 114.836C135.589 114.607 135.518 114.327 135.629 114.008C137.251 109.079 138.42 105.826 139.135 104.26C139.79 102.823 140.958 102.224 142.641 102.454C142.993 102.503 143.205 102.693 143.275 103.042C143.729 105.177 141.15 105.587 140.636 107.233ZM149.199 91.1185C148.725 91.6474 148.04 91.7571 147.164 91.4278C146.469 91.1684 146.016 90.7194 145.814 90.0908C145.693 89.7316 145.824 89.562 146.207 89.5819C147.083 89.6318 148.04 89.9411 149.098 90.5199C149.32 90.6396 149.36 90.9289 149.199 91.1185ZM171.05 147.903C170.607 148.252 170.214 148.202 169.881 147.763C169.75 147.604 169.68 147.374 169.649 147.085C169.277 143.184 168.733 139.302 168.028 135.441C166.083 124.894 164.784 113.798 161.923 104.24C161.288 102.114 160.301 100.159 158.961 98.3725C158.85 98.2328 158.628 98.2528 158.548 98.4124C158.205 99.1209 157.651 99.7096 156.886 100.198C156.533 100.428 156.331 100.338 156.271 99.9291C156.1 98.7317 155.687 97.4945 155.052 96.2073C154.468 95.0199 154.387 93.9922 154.226 92.705C154.186 92.3558 154.317 92.256 154.629 92.4256C159.152 94.8902 162.114 98.153 163.504 102.204C164.663 105.557 165.841 110.396 167.05 116.712C168.35 123.507 169.529 130.312 170.586 137.147C171.12 140.569 171.352 143.982 171.302 147.394C171.292 147.594 171.201 147.783 171.05 147.903Z" fill="#002657"/>
<path d="M108.086 48.9622C108.086 48.0941 108.721 47.236 108.781 45.8491C109.013 40.89 109.255 36.1405 109.527 31.5806C109.567 30.8921 109.94 30.5329 110.635 30.5129L112.609 30.4431C113.173 30.4231 113.657 30.8322 113.727 31.391C114.231 35.3722 114.684 39.3534 115.098 43.3147C115.37 45.9389 115.873 48.124 116.609 49.8502C116.961 50.6585 116.256 51.5265 115.38 51.3569L108.912 50.1196C108.428 50.0298 108.086 49.5409 108.086 48.9622Z" fill="#002657"/>
<path d="M103.21 37.8665C101.366 38.2357 99.5427 36.9485 99.1498 34.9929C98.7468 33.0372 99.9154 31.1513 101.769 30.7822C103.613 30.413 105.436 31.7001 105.829 33.6558C106.232 35.6115 105.063 37.4973 103.21 37.8665Z" fill="#002657"/>
<path d="M121.645 37.807C119.852 37.8668 118.331 36.3302 118.26 34.3745C118.19 32.4189 119.6 30.7725 121.393 30.7126C123.187 30.6528 124.708 32.1894 124.778 34.1451C124.849 36.1007 123.438 37.7471 121.645 37.807Z" fill="#002657"/>
<path d="M119.499 54.4199C119.61 54.4199 119.71 54.5097 119.71 54.6195V54.9188C119.761 56.9743 117.575 58.6905 114.835 58.7504L111.067 58.8302C108.337 58.8901 106.08 57.2636 106.04 55.1982V54.8989C106.03 54.7891 106.12 54.6993 106.231 54.6993L119.499 54.4199Z" fill="#002657"/>
</g>
<defs>
<clipPath id="clip0_0_791">
<rect width="178" height="154" fill="white"/>
</clipPath>
</defs>
</svg>
