<svg width="201" height="200" viewBox="0 0 201 200" fill="none" xmlns="http://www.w3.org/2000/svg">
<path d="M128.37 88.9131L195.666 88.9131V-0.000114441L128.37 -0.000114441V88.9131Z" fill="#EBEBEB"/>
<path d="M163.361 43.1135L192.504 43.1135V3.56385L163.361 3.56385V43.1135Z" fill="white"/>
<path d="M131.522 43.1135L160.665 43.1135V3.56385L131.522 3.56385V43.1135Z" fill="white"/>
<path d="M163.361 85.3538H192.504V45.8041L163.361 45.8041V85.3538Z" fill="white"/>
<path d="M131.522 85.3538H160.665V45.8041L131.522 45.8041V85.3538Z" fill="white"/>
<path d="M150.851 0.00463867H128.364V127.206H141.378L132.297 62.4798L150.851 0.00463867Z" fill="#DBDBDB"/>
<path d="M146.956 3.44238L143.401 18.2262L139.776 32.996L132.522 62.5357L132.527 62.4516L135.88 93.3225L137.553 108.756L139.15 124.198L137.324 108.779L135.568 93.3552L132.064 62.503L132.06 62.4656L132.069 62.4236L139.477 32.9213L143.181 18.1748L146.956 3.44238Z" fill="#EBEBEB"/>
<path d="M129.706 6.04883L129.818 18.8054L129.884 31.5667L129.94 57.0799L129.884 82.5931L129.818 95.3497L129.706 108.106L129.589 95.3497L129.524 82.5931L129.473 57.0799L129.524 31.5667L129.589 18.8054L129.706 6.04883Z" fill="#EBEBEB"/>
<path d="M133.904 8.44043L133.217 22.0005L132.484 35.5605L130.947 62.6712V62.6525L131.694 92.8601L132.021 107.966L132.297 123.072L131.783 107.971L131.321 92.8694L130.489 62.6618V62.6525V62.6432L132.138 35.5371L133.002 21.9911L133.904 8.44043Z" fill="#EBEBEB"/>
<path d="M136.833 121.115L135.353 106.481L133.919 91.8419C133.008 82.0794 132.05 72.3216 131.177 62.5545V62.4937L135.353 39.6991L137.473 28.3064L139.627 16.9231L137.665 28.3438L135.67 39.7551L131.616 62.5731V62.5124C132.55 72.2749 133.41 82.042 134.311 91.8092L135.596 106.458L136.833 121.115Z" fill="#EBEBEB"/>
<path d="M128.37 64.3762H133.447V61.4101H128.37V64.3762Z" fill="#DBDBDB"/>
<path d="M173.122 0.00463867H195.608V127.206H182.595L191.68 62.4798L173.122 0.00463867Z" fill="#DBDBDB"/>
<path d="M177.019 3.44238L180.793 18.1748L184.497 32.9213L191.905 62.4236L191.914 62.4656L191.91 62.503L188.407 93.3552L186.65 108.779L184.824 124.198L186.421 108.756L188.098 93.3225L191.447 62.4516L191.452 62.5357L184.198 32.996L180.573 18.2262L177.019 3.44238Z" fill="#EBEBEB"/>
<path d="M194.269 6.04883L194.386 18.8054L194.451 31.5667L194.502 57.0799L194.451 82.5931L194.386 95.3497L194.269 108.106L194.157 95.3497L194.091 82.5931L194.04 57.0799L194.091 31.5667L194.157 18.8054L194.269 6.04883Z" fill="#EBEBEB"/>
<path d="M190.068 8.44043L190.975 21.9911L191.834 35.5371L193.483 62.6432V62.6525V62.6618L192.651 92.8694L192.189 107.971L191.68 123.072L191.955 107.966L192.278 92.8601L193.025 62.6525V62.6712L191.488 35.5605L190.76 22.0005L190.068 8.44043Z" fill="#EBEBEB"/>
<path d="M187.14 121.115L188.378 106.458L189.667 91.8092C190.564 82.042 191.424 72.2749 192.358 62.5124V62.5731L188.313 39.7551L186.318 28.3438L184.356 16.9231L186.514 28.3064L188.635 39.6991L192.806 62.4937V62.5545C191.928 72.3216 190.975 82.0794 190.06 91.8419L188.63 106.481L187.14 121.115Z" fill="#EBEBEB"/>
<path d="M195.61 61.4148H190.532V64.3809H195.61V61.4148Z" fill="#DBDBDB"/>
<path d="M4.16686 153.378H91.221L93.0287 117.659H2.35449L4.16686 153.378Z" fill="#EBEBEB"/>
<path d="M87.0906 134.007H50.6986L50.0166 121.606H87.8847L87.0906 134.007ZM51.1236 133.568H86.6889L87.4176 122.049H50.479L51.1236 133.568Z" fill="#DBDBDB"/>
<path d="M86.419 148.268H52.1242L51.5684 137.058H87.1196L86.419 148.268ZM52.5399 147.829H86.0173L86.6525 137.525H52.0308L52.5399 147.829Z" fill="#DBDBDB"/>
<path d="M72.4015 129.154H66.2871L65.8994 126.16H72.7845L72.4015 129.154ZM66.6701 128.715H72.0045L72.2754 126.599H66.3992L66.6701 128.715Z" fill="#DBDBDB"/>
<path d="M72.4015 144.172H66.2871L65.8994 141.182H72.7845L72.4015 144.172ZM66.6701 143.733H72.0045L72.2754 141.621H66.3992L66.6701 143.733Z" fill="#DBDBDB"/>
<path d="M44.2867 134.007H7.88998L7.20801 121.606H45.0808L44.2867 134.007ZM8.31972 133.568H43.885L44.6277 122.049H7.67044L8.31972 133.568Z" fill="#DBDBDB"/>
<path d="M43.6131 148.268H9.31367L8.75781 137.058H44.3138L43.6131 148.268ZM9.73406 147.829H43.1974L43.842 137.525H9.22025L9.73406 147.829Z" fill="#DBDBDB"/>
<path d="M29.591 129.154H23.4766L23.0889 126.16H29.9646L29.591 129.154ZM23.8643 128.715H29.2033L29.4788 126.599H23.5887L23.8643 128.715Z" fill="#DBDBDB"/>
<path d="M29.591 144.172H23.4766L23.0889 141.182H29.9646L29.591 144.172ZM23.8643 143.733H29.2033L29.4788 141.621H23.5887L23.8643 143.733Z" fill="#DBDBDB"/>
<path d="M11.9726 153.378L11.4261 157.269L10.3284 165.088H8.17969V153.378H11.9726Z" fill="#EBEBEB"/>
<path d="M11.9726 153.378L11.4261 157.269H8.17969V153.378H11.9726Z" fill="#DBDBDB"/>
<path d="M83.4102 153.378L83.9567 157.269L85.059 165.088H87.2077V153.378H83.4102Z" fill="#EBEBEB"/>
<path d="M83.4102 153.378L83.9567 157.269H87.2077V153.378H83.4102Z" fill="#DBDBDB"/>
<path d="M36.4479 8.58521H10.0752V40.5771H36.4479V8.58521Z" fill="#EBEBEB"/>
<path d="M33.4349 11.5095H13.0879V37.6627H33.4349V11.5095Z" fill="white"/>
<path d="M13.882 11.5095H13.0879V37.6627H13.882V11.5095Z" fill="#DBDBDB"/>
<path d="M37.2423 8.58521H36.4482V40.5771H37.2423V8.58521Z" fill="#DBDBDB"/>
<path d="M24.7054 15.1108H19.9082V29.4042H24.7054V15.1108Z" fill="#DBDBDB"/>
<path d="M30.6094 24.8452H17.8154V31.8471H30.6094V24.8452Z" stroke="#EBEBEB" stroke-miterlimit="10"/>
<path d="M60.7281 48.3406H34.3555V80.3325H60.7281V48.3406Z" fill="#EBEBEB"/>
<path d="M57.7162 51.26H37.3691V77.4131H57.7162V51.26Z" fill="white"/>
<path d="M38.1632 51.26H37.3691V77.4131H38.1632V51.26Z" fill="#DBDBDB"/>
<path d="M61.5226 48.3406H60.7285V80.3325H61.5226V48.3406Z" fill="#DBDBDB"/>
<path d="M49.6808 58.0188H45.5703V68.4119H49.6808V58.0188Z" fill="#EBEBEB"/>
<path d="M54.0121 64.3342H42.9697V71.4996H54.0121V64.3342Z" stroke="#DBDBDB" stroke-miterlimit="10"/>
<path d="M100.497 182.236C138.153 182.236 168.68 179.08 168.68 175.187C168.68 171.294 138.153 168.139 100.497 168.139C62.8401 168.139 32.3135 171.294 32.3135 175.187C32.3135 179.08 62.8401 182.236 100.497 182.236Z" fill="#EBEBEB"/>
<path d="M135.511 197.646C168.341 197.646 194.955 192.888 194.955 187.019C194.955 181.15 168.341 176.392 135.511 176.392C102.681 176.392 76.0674 181.15 76.0674 187.019C76.0674 192.888 102.681 197.646 135.511 197.646Z" fill="#EBEBEB"/>
<path d="M0 164.911L25.1255 164.794L50.251 164.752L100.497 164.677L150.744 164.752L175.869 164.794L200.995 164.911L175.869 165.023L150.744 165.065L100.497 165.14L50.251 165.065L25.1255 165.023L0 164.911Z" fill="#263238"/>
<path d="M23.1855 129.481C26.1517 123.409 31.3412 120.256 37.1987 122.008C43.0561 123.759 43.953 131.891 39.5902 133.951C35.2275 136.011 30.8554 130 28.5479 128.762C26.2404 127.524 23.1855 129.481 23.1855 129.481Z" fill="#FFC727"/>
<path d="M20.3125 145.708C20.3125 144.975 20.3592 144.237 20.3826 143.504C20.4355 142.037 20.4885 140.57 20.5414 139.103C20.6208 136.418 20.9291 133.788 22.0221 131.312C23.0035 129.069 24.644 127.178 26.7259 125.889C27.4968 125.421 28.3282 125.062 29.1968 124.819C29.9861 124.024 30.9887 123.474 32.0835 123.236C33.4387 122.961 34.8315 122.927 36.1987 123.133C36.2501 123.133 36.2454 123.217 36.1987 123.208C34.8945 123.041 33.5701 123.137 32.3031 123.488C31.7627 123.638 31.2385 123.842 30.7383 124.095C30.4224 124.266 30.1195 124.46 29.8321 124.675C31.0118 124.429 32.2304 124.441 33.4054 124.707C33.8289 124.809 34.243 124.947 34.6433 125.118C34.963 125.044 35.2918 125.016 35.6195 125.034C36.0467 125.047 36.4713 125.106 36.8854 125.212C37.7316 125.45 38.541 125.804 39.291 126.263C39.2969 126.269 39.3007 126.277 39.3018 126.286C39.3029 126.295 39.3013 126.303 39.2972 126.311C39.2931 126.319 39.2867 126.325 39.2788 126.329C39.271 126.333 39.2622 126.334 39.2536 126.333C38.5202 125.93 37.7341 125.631 36.9181 125.445C36.5199 125.356 36.1155 125.296 35.7083 125.268C35.4842 125.256 35.2597 125.256 35.0356 125.268C36.7034 126.037 38.0442 127.372 38.8192 129.037C38.8192 129.084 38.7725 129.121 38.7538 129.075C38.2918 128.11 37.6186 127.262 36.7841 126.594C35.9496 125.925 34.9752 125.453 33.9333 125.212C33.8025 125.179 33.6717 125.16 33.5409 125.137C33.5876 125.324 33.5783 125.543 33.6063 125.726C33.6437 126.025 33.6951 126.319 33.7511 126.613C33.8717 127.217 34.0277 127.812 34.2182 128.397C34.4177 128.988 34.6549 129.565 34.9282 130.126C35.1903 130.719 35.5228 131.279 35.9185 131.793C35.9237 131.797 35.9279 131.802 35.9308 131.808C35.9337 131.814 35.9351 131.821 35.935 131.827C35.9349 131.834 35.9332 131.84 35.9302 131.846C35.9271 131.852 35.9227 131.857 35.9174 131.861C35.912 131.865 35.9059 131.867 35.8994 131.868C35.8929 131.869 35.8862 131.869 35.88 131.867C35.8737 131.865 35.868 131.861 35.8633 131.857C35.8587 131.852 35.8552 131.846 35.8531 131.84C35.5027 131.289 35.0964 130.784 34.7741 130.21C34.1505 129.112 33.7073 127.921 33.4615 126.683C33.3961 126.352 33.3447 126.025 33.3074 125.688C33.2669 125.49 33.2543 125.287 33.27 125.086C32.582 124.981 31.8831 124.967 31.1914 125.044C31.453 126.496 31.7285 128.014 32.546 129.276C32.574 129.318 32.4993 129.355 32.4759 129.313C32.0954 128.643 31.7599 127.949 31.4716 127.234C31.2054 126.539 31.0371 125.809 30.9718 125.067C29.7651 125.229 28.6001 125.619 27.5386 126.216C25.54 127.379 23.9444 129.124 22.9657 131.219C21.9336 133.474 21.3574 135.91 21.2701 138.389C21.0739 141.504 21.0365 144.639 20.7236 147.731C20.7236 147.936 20.3826 148.002 20.3406 147.773C20.267 147.087 20.2576 146.396 20.3125 145.708Z" fill="#263238"/>
<path d="M27.1602 125.38C27.3554 125.144 27.5817 124.935 27.8328 124.759C28.0757 124.558 28.3232 124.362 28.5848 124.184C29.0996 123.832 29.6695 123.568 30.2711 123.404C30.3178 123.404 30.3365 123.469 30.2711 123.479C29.6657 123.632 29.0992 123.91 28.6082 124.296C28.3606 124.478 28.1411 124.675 27.8888 124.875C27.6833 125.091 27.4563 125.285 27.2115 125.455C27.1929 125.497 27.1602 125.445 27.1602 125.38Z" fill="#263238"/>
<path d="M36.6333 127.608C37.1258 128.178 37.5799 128.781 37.9926 129.411C38.3996 130.042 38.7393 130.713 39.0062 131.415C39.0062 131.415 39.0062 131.448 38.9688 131.415C38.2915 130.088 37.4908 128.827 36.5773 127.65C36.5446 127.622 36.6006 127.571 36.6333 127.608Z" fill="#263238"/>
<path d="M30.2535 127.005C30.3156 127.386 30.4287 127.757 30.5898 128.108C30.7497 128.449 30.9388 128.775 31.155 129.084C31.155 129.107 31.155 129.126 31.1176 129.112C30.61 128.522 30.2853 127.796 30.1834 127.024C30.1694 126.977 30.2441 126.954 30.2535 127.005Z" fill="#263238"/>
<path d="M20.7285 129.631C20.7285 129.631 16.5246 124.352 8.42499 126.225C0.717778 128 -2.83688 142.13 4.94974 143.816C12.7364 145.503 11.3631 132.438 14.1984 130.219C16.2817 128.589 19.2711 128.939 20.7285 129.631Z" fill="#FFC727"/>
<path d="M2.1606 133.937C2.689 133.474 3.24765 133.046 3.83283 132.657C4.38387 132.284 4.98239 131.985 5.61249 131.77C5.92807 131.29 6.28106 130.835 6.66815 130.411C7.38275 129.64 8.20949 128.982 9.12044 128.458H8.87755C8.44813 128.435 8.01776 128.435 7.58834 128.458C6.72488 128.514 5.87846 128.724 5.08934 129.079C5.04263 129.079 5.00993 129.028 5.05664 129.009C5.85355 128.665 6.68731 128.412 7.54163 128.257C7.95929 128.182 8.3831 128.146 8.80748 128.15C9.0353 128.151 9.26293 128.163 9.48945 128.187H9.62024C10.3641 127.814 11.1475 127.526 11.9558 127.328L11.7316 127.267C11.3351 127.181 10.9344 127.115 10.5311 127.071C9.72313 126.98 8.90696 126.993 8.10216 127.108C8.05545 127.108 8.04143 127.038 8.10216 127.033C8.91556 126.934 9.73559 126.9 10.5545 126.931C11.2419 126.952 11.9256 127.042 12.5957 127.197C13.083 127.106 13.5763 127.049 14.0717 127.029C16.8744 126.907 19.9806 127.963 21.7182 130.299C23.4559 132.634 23.8015 135.726 24.1051 138.529C24.5804 142.437 24.6852 146.381 24.4181 150.309C24.4181 150.543 24.0724 150.501 24.0678 150.281C23.9603 146.951 23.8436 143.616 23.5259 140.299C23.3764 138.762 23.213 137.216 22.9561 135.694C22.7682 134.388 22.3905 133.116 21.835 131.919C21.2344 130.689 20.2817 129.665 19.0978 128.977C17.9117 128.297 16.5888 127.89 15.2255 127.785C14.002 127.683 12.7699 127.798 11.5868 128.126C11.6295 128.362 11.6374 128.603 11.6101 128.841C11.5816 129.142 11.5222 129.44 11.4326 129.729C11.3435 130.002 11.2293 130.266 11.0916 130.518C10.9421 130.798 10.7553 131.046 10.5872 131.312C10.5591 131.354 10.4937 131.312 10.5218 131.27C10.8538 130.792 11.0697 130.244 11.1523 129.668C11.1991 129.396 11.2318 129.121 11.2504 128.846C11.2504 128.636 11.2504 128.425 11.2504 128.215C9.96409 128.612 8.76324 129.246 7.70979 130.084C7.51361 130.242 7.32677 130.411 7.13992 130.583C7.40688 130.83 7.638 131.113 7.82657 131.424C8.10233 131.831 8.34298 132.261 8.54591 132.709C8.92029 133.605 9.17321 134.548 9.29794 135.511C9.29794 135.558 9.22788 135.572 9.21854 135.511C9.06552 134.573 8.74934 133.669 8.28433 132.84C8.0719 132.428 7.83156 132.032 7.56499 131.653C7.42953 131.457 7.2894 131.265 7.13992 131.079C7.06052 130.976 6.97177 130.873 6.89703 130.766C5.94451 131.699 5.16626 132.796 4.59888 134.003C4.97868 134.406 5.2938 134.867 5.53309 135.367C5.82286 135.889 6.07571 136.43 6.28979 136.987C6.69978 138.078 7.03837 139.193 7.30341 140.327C7.30341 140.374 7.23802 140.388 7.22867 140.327C6.98412 139.193 6.59807 138.095 6.0796 137.058C5.8367 136.548 5.5798 136.049 5.31355 135.553C5.03112 135.102 4.77684 134.634 4.55217 134.152C4.00802 135.328 3.69105 136.596 3.61796 137.889C3.61509 137.897 3.60973 137.904 3.60261 137.909C3.5955 137.914 3.58699 137.917 3.57826 137.917C3.56953 137.917 3.56102 137.914 3.5539 137.909C3.54679 137.904 3.54142 137.897 3.53855 137.889C3.68806 135.853 4.31193 133.881 5.36026 132.13C4.86046 132.34 4.36533 132.541 3.88888 132.798C3.28077 133.123 2.71453 133.522 2.20264 133.984C2.17461 134.031 2.12323 133.97 2.1606 133.937Z" fill="#263238"/>
<path d="M8.10696 134.255C8.34986 135.058 8.65815 135.834 8.87768 136.642C9.10068 137.417 9.22005 138.218 9.23268 139.024H9.19532C8.97837 137.397 8.58846 135.799 8.03223 134.255C8.03223 134.245 8.03616 134.235 8.04317 134.228C8.05018 134.221 8.05969 134.218 8.0696 134.218C8.07951 134.218 8.08901 134.221 8.09602 134.228C8.10303 134.235 8.10696 134.245 8.10696 134.255Z" fill="#263238"/>
<path d="M2.97378 132.251C3.29229 131.944 3.6543 131.686 4.04812 131.485C4.44866 131.303 4.86442 131.156 5.29061 131.046C5.33732 131.046 5.35134 131.111 5.29061 131.121C4.87214 131.233 4.47014 131.399 4.09483 131.616C3.71031 131.813 3.34173 132.039 2.99246 132.293C2.98802 132.292 2.98386 132.29 2.98032 132.287C2.97678 132.285 2.97398 132.281 2.97214 132.277C2.97031 132.273 2.9695 132.268 2.96978 132.264C2.97007 132.259 2.97144 132.255 2.97378 132.251Z" fill="#263238"/>
<path d="M16.7353 122.577C16.7353 122.577 15.9505 113.1 8.91127 110.026C3.02576 107.462 -0.342055 114.076 3.81984 118.126C7.18299 121.4 12.5827 119.92 16.7353 122.577Z" fill="#FFC727"/>
<path d="M5.12303 111.862C6.19556 112.296 7.24206 112.792 8.2573 113.347C9.10037 113.837 9.91306 114.376 10.6909 114.964C10.5741 114.725 10.4714 114.473 10.3546 114.24C10.1678 113.871 9.97157 113.516 9.7567 113.165C9.32236 112.447 8.79981 111.787 8.20125 111.199C8.16388 111.166 8.2246 111.11 8.2573 111.147C8.84813 111.736 9.3902 112.372 9.87815 113.049C10.1209 113.395 10.3454 113.753 10.5508 114.123C10.7555 114.464 10.9127 114.832 11.0179 115.216L11.0973 115.272C12.3264 116.254 13.4531 117.357 14.4604 118.565C14.4604 118.472 14.4231 118.378 14.3997 118.294C14.2689 117.827 14.1241 117.36 13.97 116.916C13.6722 115.951 13.2515 115.028 12.7181 114.17C12.6901 114.128 12.7602 114.09 12.7835 114.132C13.3372 114.995 13.8304 115.896 14.2596 116.827C14.4498 117.282 14.6059 117.751 14.7267 118.229C14.8303 118.533 14.9069 118.845 14.9556 119.163C15.2639 119.551 15.5675 119.948 15.8524 120.349C18.8792 124.661 20.3973 129.869 20.7617 135.082C20.8675 136.636 20.894 138.195 20.8411 139.753C20.8258 141.318 20.6868 142.88 20.4254 144.424C20.4254 144.522 20.2525 144.494 20.2572 144.396C20.2899 143.027 20.4347 141.663 20.4581 140.29C20.4845 138.917 20.4409 137.543 20.3273 136.175C20.1063 133.438 19.591 130.734 18.7905 128.108C17.9704 125.418 16.7619 122.863 15.2031 120.522C14.9089 120.461 14.6146 120.382 14.3203 120.307C14.026 120.233 13.6197 120.125 13.2693 120.027C12.5975 119.853 11.9449 119.612 11.3215 119.308C11.2748 119.284 11.3215 119.214 11.3635 119.242C11.9842 119.58 12.6566 119.812 13.3534 119.929C13.9046 120.041 14.4791 120.111 15.0303 120.237C14.5213 119.492 13.9741 118.773 13.3908 118.084C12.0475 118.204 10.6936 118.103 9.38302 117.785C8.68482 117.616 7.9983 117.403 7.32776 117.145C6.62244 116.874 5.95448 116.524 5.2585 116.211C5.20711 116.211 5.2585 116.108 5.29119 116.141C6.55297 116.828 7.9305 117.278 9.355 117.467C10.6126 117.669 11.8836 117.775 13.1572 117.785C12.6574 117.21 12.1389 116.65 11.5878 116.122C9.71934 114.361 7.53796 112.74 5.09968 111.918C5.05297 111.923 5.07632 111.834 5.12303 111.862Z" fill="#263238"/>
<path d="M10.8587 111.89C11.1822 112.292 11.4787 112.715 11.7462 113.156C12.0019 113.625 12.2026 114.121 12.3441 114.636C12.3441 114.636 12.3207 114.664 12.316 114.636C12.0825 114.169 11.8816 113.702 11.6434 113.235C11.4088 112.78 11.127 112.351 10.8026 111.955C10.7699 111.909 10.812 111.834 10.8587 111.89Z" fill="#263238"/>
<path d="M22.2183 120.877C22.2604 121.283 23.2833 117.435 29.2249 114.015C34.6386 110.909 41.0987 102.828 35.7924 97.7274C31.523 93.6169 20.2378 102.585 22.2183 120.877Z" fill="#FFC727"/>
<path d="M18.1119 142.962C18.1941 138.952 18.506 134.95 19.0461 130.976C19.5154 127.318 20.3591 123.718 21.5638 120.233C22.0309 118.981 22.498 117.748 23.0632 116.533C23.0264 116.067 23.0264 115.598 23.0632 115.132C23.0912 114.525 23.1473 113.917 23.2033 113.31C23.2594 112.703 23.3201 112.1 23.3948 111.498C23.4696 110.895 23.591 110.293 23.619 109.69C23.619 109.634 23.7078 109.648 23.6938 109.69C23.5751 110.324 23.5033 110.965 23.4789 111.61C23.4415 112.205 23.4228 112.793 23.4228 113.375C23.4228 113.964 23.4228 114.553 23.4228 115.136C23.4228 115.347 23.4228 115.576 23.4228 115.8C23.9834 114.613 24.5875 113.452 25.2352 112.315C24.8335 109.844 25.3567 107.261 25.8611 104.841C25.8611 104.795 25.9452 104.841 25.9359 104.865C25.6886 106.127 25.5573 107.409 25.5435 108.695C25.5201 109.709 25.5435 110.727 25.5715 111.741C25.7117 111.498 25.8565 111.274 26.0013 111.012C26.7766 109.751 27.6034 108.513 28.4769 107.312C28.4084 106.726 28.4289 106.132 28.5376 105.551C28.6342 104.9 28.7778 104.257 28.9674 103.627C29.1589 102.996 29.3784 102.375 29.626 101.759C29.8735 101.142 30.2285 100.539 30.4808 99.8902C30.4808 99.8388 30.5789 99.8902 30.5508 99.9229C30.2317 100.515 29.981 101.142 29.8035 101.791C29.6102 102.404 29.4542 103.028 29.3364 103.66C29.2103 104.29 29.1028 104.916 29.0187 105.551C28.958 105.972 28.9207 106.406 28.8506 106.827C30.1252 105.113 31.519 103.491 33.0218 101.973C33.0592 101.936 33.1106 101.973 33.0779 102.03C30.8011 104.581 28.7681 107.339 27.0055 110.269C26.9401 110.381 26.8794 110.493 26.814 110.601C27.1457 110.395 27.5193 110.232 27.8276 110.064L29.5699 109.106L31.2562 108.172C31.5458 108.008 31.8307 107.84 32.125 107.705C32.4774 107.549 32.815 107.361 33.1339 107.144C33.1806 107.112 33.2274 107.182 33.1806 107.21C32.6061 107.523 32.097 107.99 31.5458 108.345C30.9946 108.7 30.4201 109.045 29.8455 109.368C28.7852 109.956 27.6314 110.381 26.5758 110.993C25.8502 112.258 25.1823 113.555 24.5719 114.884C25.2025 114.478 25.8518 114.09 26.5057 113.726C26.9308 113.488 27.3512 113.259 27.7809 113.03C28.2078 112.831 28.6119 112.587 28.9861 112.301C28.9935 112.294 29.0033 112.291 29.0134 112.291C29.0235 112.292 29.033 112.296 29.0398 112.303C29.0466 112.311 29.0502 112.321 29.0497 112.331C29.0493 112.341 29.0449 112.35 29.0374 112.357C28.3421 112.979 27.5735 113.514 26.7486 113.95C25.9826 114.394 25.2119 114.828 24.4131 115.216C23.7778 116.617 23.1986 118.018 22.6895 119.485C20.1811 126.585 19.2563 134.129 18.8172 141.617C18.6864 143.849 18.6163 146.082 18.593 148.319C18.5696 150.557 18.6817 152.78 18.6771 155.013C18.6771 155.078 18.5696 155.093 18.5603 155.013C18.2894 153.033 18.2427 151.019 18.1586 149.025C18.0745 147.03 18.0698 144.998 18.1119 142.962Z" fill="#263238"/>
<path d="M28.9399 110.802C30.0306 110.323 31.0899 109.775 32.1116 109.162C33.1468 108.581 34.1494 107.943 35.115 107.252C35.115 107.252 35.1524 107.252 35.115 107.28C34.2012 108.02 33.2366 108.696 32.2283 109.302C31.1719 109.891 30.0799 110.414 28.9586 110.867C28.9353 110.9 28.8979 110.82 28.9399 110.802Z" fill="#263238"/>
<path d="M27.2175 102.772C27.3062 102.426 27.4137 102.085 27.5304 101.744C27.5275 101.742 27.5252 101.739 27.5236 101.736C27.5219 101.733 27.5211 101.729 27.5211 101.726C27.5211 101.722 27.5219 101.719 27.5236 101.715C27.5252 101.712 27.5275 101.709 27.5304 101.707C27.6052 101.516 27.6846 101.324 27.764 101.133C27.764 101.109 27.764 101.081 27.792 101.063L27.8341 100.955L27.778 101.156C27.7693 101.192 27.7583 101.228 27.7453 101.263C27.3535 102.584 27.0599 103.931 26.8672 105.294C26.8672 105.341 26.7924 105.341 26.7971 105.294C26.8563 104.442 26.997 103.598 27.2175 102.772Z" fill="#263238"/>
<path d="M11.8174 144.4L12.2424 149.44L13.5457 164.817H27.4887L28.7919 149.44L29.217 144.4H11.8174Z" fill="#455A64"/>
<path d="M11.8174 144.4L12.2424 149.44H28.7919L29.217 144.4H11.8174Z" fill="#263238"/>
<path d="M10.4471 147.212H30.584V142.378H10.4471V147.212Z" fill="#455A64"/>
<path d="M135.899 12.1633H65.0858C63.1689 12.1818 61.3377 12.9608 59.995 14.329C58.6522 15.6971 57.9077 17.5425 57.9251 19.4595V165.233C57.9089 167.15 58.6538 168.994 59.9963 170.362C61.3389 171.73 63.1693 172.51 65.0858 172.529H135.899C137.817 172.511 139.649 171.732 140.993 170.364C142.337 168.996 143.084 167.151 143.069 165.233V19.4595C143.085 17.5413 142.339 15.6952 140.994 14.327C139.65 12.9589 137.817 12.1806 135.899 12.1633ZM138.589 160.726C138.589 164.565 135.717 167.667 132.176 167.667H68.8226C65.2726 167.667 62.4 164.565 62.4 160.726V24.9853C62.4 17.1707 65.2726 16.7877 68.8226 16.7877H81.5138C82.2472 16.7877 82.8498 17.6284 82.8498 18.6561V19.1232C82.8498 21.5568 84.1857 21.5661 85.8205 21.5661H115.169C116.818 21.5661 118.139 21.5661 118.139 19.1232V18.6561C118.139 17.6191 118.733 16.7877 119.48 16.7877H132.176C135.717 16.7877 138.589 17.8293 138.589 24.9853V160.726Z" fill="#263238"/>
<path d="M104.495 18.5159H96.4932C96.428 18.5165 96.3633 18.5041 96.303 18.4795C96.2426 18.4548 96.1878 18.4184 96.1417 18.3723C96.0956 18.3262 96.0592 18.2713 96.0345 18.211C96.0098 18.1506 95.9974 18.086 95.9981 18.0208C95.9981 17.8895 96.0502 17.7635 96.1431 17.6707C96.2359 17.5778 96.3619 17.5256 96.4932 17.5256H104.495C104.626 17.5256 104.752 17.5778 104.845 17.6707C104.938 17.7635 104.99 17.8895 104.99 18.0208C104.99 18.086 104.978 18.1506 104.953 18.211C104.929 18.2713 104.892 18.3262 104.846 18.3723C104.8 18.4184 104.745 18.4548 104.685 18.4795C104.625 18.5041 104.56 18.5165 104.495 18.5159Z" fill="white"/>
<path d="M138.59 24.9853V160.726C138.59 164.565 135.717 167.667 132.176 167.667H68.8231C65.2731 167.667 62.4004 164.565 62.4004 160.726V24.9853C62.4004 17.1706 65.2731 16.7876 68.8231 16.7876H81.5143C82.2476 16.7876 82.8502 17.6284 82.8502 18.656V19.1231C82.8502 21.5567 84.1861 21.5661 85.821 21.5661H115.169C116.818 21.5661 118.14 21.5661 118.14 19.1231V18.656C118.14 17.619 118.733 16.7876 119.48 16.7876H132.176C135.717 16.7876 138.59 17.8292 138.59 24.9853Z" fill="white"/>
<path d="M79.3239 19.8378L79.2025 19.9592L79.1324 20.0293C78.8159 19.7233 78.3909 19.5553 77.9506 19.5622C77.7325 19.5578 77.5157 19.5968 77.3128 19.677C77.1099 19.7572 76.925 19.8769 76.7689 20.0293L76.6988 19.9639L76.582 19.8425L76.7362 19.7023C76.846 19.6126 76.9669 19.5372 77.0958 19.4781C77.2436 19.4032 77.4007 19.3482 77.5629 19.3146C77.6424 19.3146 77.7218 19.3146 77.8012 19.2866H78.0114H78.1702C78.32 19.3064 78.4672 19.3424 78.6093 19.3941C78.7107 19.4316 78.8091 19.4769 78.9035 19.5295C79.0006 19.5895 79.0942 19.655 79.1838 19.7257L79.3146 19.8425L79.3239 19.8378Z" fill="#A6A6A6"/>
<path d="M77.1425 20.417L76.9463 20.2208C77.1621 20.0007 77.4445 19.8578 77.7497 19.8144C77.9644 19.781 78.184 19.7991 78.3903 19.8673C78.5966 19.9355 78.7837 20.0519 78.9361 20.2068L78.74 20.3983C78.6362 20.294 78.5129 20.2111 78.377 20.1546C78.2411 20.0981 78.0954 20.069 77.9482 20.069C77.8011 20.069 77.6554 20.0981 77.5195 20.1546C77.3836 20.2111 77.2602 20.294 77.1565 20.3983L77.1425 20.417Z" fill="#A6A6A6"/>
<path d="M78.5434 20.6085L78.3519 20.8C78.2986 20.7467 78.2352 20.7043 78.1655 20.6754C78.0958 20.6465 78.021 20.6316 77.9455 20.6316C77.8701 20.6316 77.7953 20.6465 77.7256 20.6754C77.6559 20.7043 77.5925 20.7467 77.5392 20.8L77.3477 20.6085C77.4259 20.5294 77.519 20.4667 77.6216 20.4238C77.7242 20.381 77.8343 20.3589 77.9455 20.3589C78.0568 20.3589 78.1669 20.381 78.2695 20.4238C78.3721 20.4667 78.4652 20.5294 78.5434 20.6085Z" fill="#A6A6A6"/>
<path d="M78.1241 20.9774C78.1173 21.019 78.096 21.0568 78.0639 21.084C78.0318 21.1113 77.9911 21.1262 77.949 21.1262C77.9069 21.1262 77.8661 21.1113 77.8341 21.084C77.802 21.0568 77.7806 21.019 77.7738 20.9774C77.7697 20.952 77.7711 20.926 77.778 20.9012C77.7848 20.8764 77.797 20.8534 77.8137 20.8338C77.8304 20.8142 77.8511 20.7985 77.8745 20.7876C77.8978 20.7768 77.9232 20.7712 77.949 20.7712C77.9747 20.7712 78.0002 20.7768 78.0235 20.7876C78.0469 20.7985 78.0676 20.8142 78.0843 20.8338C78.1009 20.8534 78.1131 20.8764 78.12 20.9012C78.1269 20.926 78.1283 20.952 78.1241 20.9774Z" fill="#A6A6A6"/>
<path d="M67.8707 20.7113C68.1493 20.7113 68.3751 20.4855 68.3751 20.2069C68.3751 19.9282 68.1493 19.7024 67.8707 19.7024C67.5921 19.7024 67.3662 19.9282 67.3662 20.2069C67.3662 20.4855 67.5921 20.7113 67.8707 20.7113Z" fill="#A6A6A6"/>
<path d="M68.959 20.2069C68.959 20.1071 68.9886 20.0096 69.044 19.9266C69.0994 19.8436 69.1782 19.779 69.2704 19.7408C69.3626 19.7026 69.464 19.6926 69.5619 19.7121C69.6597 19.7316 69.7496 19.7796 69.8202 19.8501C69.8907 19.9207 69.9388 20.0106 69.9582 20.1084C69.9777 20.2063 69.9677 20.3077 69.9295 20.3999C69.8913 20.4921 69.8267 20.5709 69.7437 20.6263C69.6608 20.6817 69.5632 20.7113 69.4635 20.7113C69.3297 20.7113 69.2014 20.6582 69.1067 20.5636C69.0121 20.469 68.959 20.3407 68.959 20.2069Z" fill="#A6A6A6"/>
<path d="M71.0513 20.7113C71.33 20.7113 71.5558 20.4855 71.5558 20.2069C71.5558 19.9282 71.33 19.7024 71.0513 19.7024C70.7727 19.7024 70.5469 19.9282 70.5469 20.2069C70.5469 20.4855 70.7727 20.7113 71.0513 20.7113Z" fill="#A6A6A6"/>
<path d="M72.1396 20.2069C72.1396 20.1071 72.1692 20.0096 72.2247 19.9266C72.2801 19.8436 72.3589 19.779 72.4511 19.7408C72.5432 19.7026 72.6447 19.6926 72.7425 19.7121C72.8404 19.7316 72.9303 19.7796 73.0008 19.8501C73.0714 19.9207 73.1194 20.0106 73.1389 20.1084C73.1584 20.2063 73.1484 20.3077 73.1102 20.3999C73.072 20.4921 73.0074 20.5709 72.9244 20.6263C72.8414 20.6817 72.7439 20.7113 72.6441 20.7113C72.5103 20.7113 72.382 20.6582 72.2874 20.5636C72.1928 20.469 72.1396 20.3407 72.1396 20.2069Z" fill="#A6A6A6"/>
<path d="M73.7275 20.2069C73.7275 20.1406 73.7406 20.075 73.7659 20.0138C73.7913 19.9526 73.8284 19.897 73.8753 19.8501C73.9221 19.8033 73.9778 19.7661 74.039 19.7408C74.1002 19.7154 74.1658 19.7024 74.232 19.7024C74.2983 19.7024 74.3639 19.7154 74.4251 19.7408C74.4863 19.7661 74.5419 19.8033 74.5887 19.8501C74.6356 19.897 74.6727 19.9526 74.6981 20.0138C74.7234 20.075 74.7365 20.1406 74.7365 20.2069C74.7365 20.2731 74.7234 20.3387 74.6981 20.3999C74.6727 20.4611 74.6356 20.5167 74.5887 20.5636C74.5419 20.6104 74.4863 20.6476 74.4251 20.6729C74.3639 20.6983 74.2983 20.7113 74.232 20.7113C74.1658 20.7113 74.1002 20.6983 74.039 20.6729C73.9778 20.6476 73.9221 20.6104 73.8753 20.5636C73.8284 20.5167 73.7913 20.4611 73.7659 20.3999C73.7406 20.3387 73.7275 20.2731 73.7275 20.2069Z" fill="#A6A6A6"/>
<path d="M132.769 19.5107H128.869V21.2063H132.769V19.5107Z" fill="#A6A6A6"/>
<path d="M132.886 21.3232H128.752V19.394H132.886V21.3232ZM128.986 21.0896H132.652V19.6276H128.99L128.986 21.0896Z" fill="white"/>
<path d="M131.755 19.7302H129.106V20.9867H131.755V19.7302Z" fill="#A6A6A6"/>
<path d="M133.241 19.8472H132.877V20.8655H133.241V19.8472Z" fill="#A6A6A6"/>
<path d="M116.434 163.467H84.5546C84.3732 163.482 84.204 163.564 84.0806 163.698C83.9572 163.832 83.8887 164.007 83.8887 164.189C83.8887 164.371 83.9572 164.546 84.0806 164.68C84.204 164.814 84.3732 164.896 84.5546 164.911H116.434C116.534 164.919 116.634 164.906 116.729 164.873C116.823 164.841 116.91 164.789 116.983 164.721C117.057 164.653 117.116 164.571 117.156 164.48C117.196 164.388 117.217 164.289 117.217 164.189C117.217 164.089 117.196 163.99 117.156 163.899C117.116 163.807 117.057 163.725 116.983 163.657C116.91 163.589 116.823 163.537 116.729 163.505C116.634 163.472 116.534 163.459 116.434 163.467Z" fill="#A6A6A6"/>
<path d="M105.558 88.8915C108.355 86.0951 108.355 81.5612 105.558 78.7647C102.762 75.9683 98.228 75.9683 95.4315 78.7647C92.6351 81.5612 92.6351 86.0951 95.4315 88.8915C98.228 91.6879 102.762 91.6879 105.558 88.8915Z" fill="#455A64"/>
<path d="M98.5072 80.2529C98.3716 80.2539 98.2393 80.2949 98.127 80.3709C98.0147 80.4469 97.9274 80.5545 97.8761 80.68C97.8249 80.8056 97.8119 80.9435 97.839 81.0764C97.866 81.2093 97.9317 81.3312 98.028 81.4267C98.1242 81.5223 98.2465 81.5872 98.3796 81.6134C98.5127 81.6395 98.6505 81.6256 98.7757 81.5735C98.9009 81.5214 99.0078 81.4334 99.0831 81.3206C99.1583 81.2078 99.1985 81.0752 99.1985 80.9396C99.1985 80.849 99.1806 80.7594 99.1458 80.6757C99.111 80.5921 99.06 80.5162 98.9957 80.4524C98.9315 80.3886 98.8552 80.3381 98.7714 80.3039C98.6875 80.2696 98.5977 80.2523 98.5072 80.2529Z" fill="white"/>
<path d="M100.497 80.2529C100.361 80.2529 100.229 80.2932 100.116 80.3687C100.003 80.4441 99.9148 80.5513 99.8628 80.6768C99.8108 80.8023 99.7972 80.9403 99.8237 81.0735C99.8502 81.2067 99.9156 81.3291 100.012 81.4251C100.108 81.5211 100.23 81.5865 100.363 81.613C100.496 81.6395 100.634 81.6259 100.76 81.574C100.885 81.522 100.993 81.434 101.068 81.321C101.144 81.2081 101.184 81.0754 101.184 80.9396C101.184 80.7575 101.111 80.5828 100.983 80.454C100.854 80.3253 100.679 80.2529 100.497 80.2529Z" fill="white"/>
<path d="M102.482 81.6262C102.618 81.6253 102.75 81.5842 102.863 81.5082C102.975 81.4322 103.062 81.3246 103.113 81.1991C103.165 81.0736 103.178 80.9356 103.151 80.8028C103.124 80.6699 103.058 80.548 102.962 80.4524C102.865 80.3568 102.743 80.2919 102.61 80.2658C102.477 80.2397 102.339 80.2535 102.214 80.3056C102.089 80.3577 101.982 80.4458 101.906 80.5586C101.831 80.6714 101.791 80.804 101.791 80.9396C101.791 81.0301 101.809 81.1198 101.844 81.2034C101.879 81.287 101.93 81.3629 101.994 81.4267C102.058 81.4906 102.134 81.5411 102.218 81.5753C102.302 81.6095 102.392 81.6268 102.482 81.6262Z" fill="white"/>
<path d="M98.5067 82.1775C98.37 82.1775 98.2364 82.2181 98.1227 82.294C98.009 82.37 97.9204 82.4779 97.8681 82.6043C97.8157 82.7306 97.802 82.8696 97.8287 83.0037C97.8554 83.1378 97.9212 83.261 98.0179 83.3577C98.1146 83.4543 98.2378 83.5202 98.3719 83.5469C98.506 83.5735 98.645 83.5598 98.7713 83.5075C98.8976 83.4552 99.0056 83.3666 99.0816 83.2529C99.1575 83.1392 99.1981 83.0056 99.1981 82.8688C99.1987 82.7779 99.1812 82.6877 99.1467 82.6035C99.1122 82.5194 99.0613 82.4429 98.997 82.3786C98.9326 82.3143 98.8562 82.2634 98.772 82.2289C98.6879 82.1943 98.5977 82.1769 98.5067 82.1775Z" fill="white"/>
<path d="M100.498 82.1775C100.361 82.1766 100.227 82.2163 100.112 82.2917C99.9981 82.3671 99.9088 82.4748 99.8557 82.601C99.8027 82.7273 99.7883 82.8664 99.8145 83.0008C99.8406 83.1352 99.9061 83.2588 100.003 83.356C100.099 83.4531 100.222 83.5194 100.356 83.5465C100.491 83.5735 100.63 83.5601 100.757 83.5079C100.883 83.4558 100.991 83.3672 101.068 83.2534C101.144 83.1396 101.184 83.0058 101.184 82.8688C101.184 82.6863 101.112 82.5111 100.984 82.3816C100.855 82.2521 100.68 82.1787 100.498 82.1775Z" fill="white"/>
<path d="M102.482 82.1775C102.345 82.1766 102.211 82.2163 102.097 82.2917C101.982 82.3671 101.893 82.4748 101.84 82.601C101.787 82.7273 101.773 82.8664 101.799 83.0008C101.825 83.1352 101.89 83.2588 101.987 83.356C102.083 83.4531 102.207 83.5194 102.341 83.5465C102.475 83.5735 102.614 83.5601 102.741 83.5079C102.868 83.4558 102.976 83.3672 103.052 83.2534C103.128 83.1396 103.169 83.0058 103.169 82.8688C103.169 82.6863 103.097 82.5111 102.968 82.3816C102.839 82.2521 102.665 82.1787 102.482 82.1775Z" fill="white"/>
<path d="M98.5067 84.1067C98.37 84.1067 98.2364 84.1472 98.1227 84.2232C98.009 84.2992 97.9204 84.4071 97.8681 84.5335C97.8157 84.6598 97.802 84.7988 97.8287 84.9329C97.8554 85.067 97.9212 85.1902 98.0179 85.2869C98.1146 85.3835 98.2378 85.4494 98.3719 85.4761C98.506 85.5027 98.645 85.489 98.7713 85.4367C98.8976 85.3844 99.0056 85.2958 99.0816 85.1821C99.1575 85.0684 99.1981 84.9347 99.1981 84.798C99.1987 84.7071 99.1812 84.6169 99.1467 84.5327C99.1122 84.4486 99.0613 84.3721 98.997 84.3078C98.9326 84.2435 98.8562 84.1926 98.772 84.1581C98.6879 84.1235 98.5977 84.1061 98.5067 84.1067Z" fill="white"/>
<path d="M100.498 84.1067C100.361 84.1058 100.227 84.1455 100.112 84.2209C99.9981 84.2963 99.9088 84.404 99.8557 84.5302C99.8027 84.6564 99.7883 84.7956 99.8145 84.93C99.8406 85.0644 99.9061 85.188 100.003 85.2852C100.099 85.3823 100.222 85.4486 100.356 85.4757C100.491 85.5027 100.63 85.4893 100.757 85.4371C100.883 85.385 100.991 85.2964 101.068 85.1826C101.144 85.0688 101.184 84.9349 101.184 84.798C101.184 84.6155 101.112 84.4403 100.984 84.3108C100.855 84.1813 100.68 84.1079 100.498 84.1067Z" fill="white"/>
<path d="M102.482 84.1067C102.345 84.1058 102.211 84.1455 102.097 84.2209C101.982 84.2963 101.893 84.404 101.84 84.5302C101.787 84.6564 101.773 84.7956 101.799 84.93C101.825 85.0644 101.89 85.188 101.987 85.2852C102.083 85.3823 102.207 85.4486 102.341 85.4757C102.475 85.5027 102.614 85.4893 102.741 85.4371C102.868 85.385 102.976 85.2964 103.052 85.1826C103.128 85.0688 103.169 84.9349 103.169 84.798C103.169 84.6155 103.097 84.4403 102.968 84.3108C102.839 84.1813 102.665 84.1079 102.482 84.1067Z" fill="white"/>
<path d="M100.498 86.0357C100.361 86.0347 100.226 86.0746 100.112 86.1502C99.9975 86.2258 99.9082 86.3337 99.8553 86.4603C99.8024 86.5868 99.7883 86.7261 99.8148 86.8607C99.8413 86.9952 99.9073 87.1188 100.004 87.2158C100.101 87.3127 100.225 87.3787 100.359 87.4052C100.494 87.4317 100.633 87.4177 100.76 87.3647C100.886 87.3118 100.994 87.2225 101.07 87.1081C101.145 86.9937 101.185 86.8594 101.184 86.7223C101.184 86.5402 101.112 86.3655 100.983 86.2368C100.854 86.108 100.68 86.0357 100.498 86.0357Z" fill="white"/>
<path d="M120.765 111.838C124.72 111.838 127.926 108.633 127.926 104.678C127.926 100.723 124.72 97.5171 120.765 97.5171C116.81 97.5171 113.604 100.723 113.604 104.678C113.604 108.633 116.81 111.838 120.765 111.838Z" fill="#455A64"/>
<path d="M122.301 102.632C122.301 102.936 122.211 103.233 122.042 103.486C121.873 103.738 121.633 103.935 121.352 104.052C121.072 104.168 120.763 104.199 120.464 104.139C120.166 104.08 119.893 103.934 119.678 103.719C119.463 103.504 119.316 103.23 119.257 102.932C119.198 102.634 119.228 102.325 119.345 102.044C119.461 101.763 119.658 101.523 119.911 101.354C120.163 101.185 120.46 101.095 120.764 101.095C121.172 101.095 121.563 101.257 121.851 101.545C122.139 101.834 122.301 102.224 122.301 102.632Z" fill="white"/>
<path d="M123.423 106.873V107.508C122.972 107.786 122.48 107.993 121.966 108.12C121.314 108.279 120.637 108.307 119.975 108.202C119.313 108.097 118.678 107.861 118.107 107.508V106.873C118.107 106.168 118.387 105.492 118.886 104.994C119.384 104.495 120.06 104.215 120.765 104.215C121.47 104.215 122.146 104.495 122.645 104.994C123.143 105.492 123.423 106.168 123.423 106.873Z" fill="white"/>
<path d="M85.2878 88.8954C88.0842 86.099 88.0842 81.5651 85.2878 78.7687C82.4914 75.9722 77.9575 75.9722 75.161 78.7687C72.3646 81.5651 72.3646 86.099 75.161 88.8954C77.9575 91.6918 82.4914 91.6918 85.2878 88.8954Z" fill="#455A64"/>
<path d="M80.2299 87.8341C80.1865 87.8341 80.145 87.8169 80.1143 87.7862C80.0836 87.7555 80.0664 87.714 80.0664 87.6706V85.7648C80.0664 85.7214 80.0836 85.6799 80.1143 85.6492C80.145 85.6185 80.1865 85.6013 80.2299 85.6013C80.2733 85.6013 80.3148 85.6185 80.3455 85.6492C80.3762 85.6799 80.3934 85.7214 80.3934 85.7648V87.6706C80.3934 87.714 80.3762 87.7555 80.3455 87.7862C80.3148 87.8169 80.2733 87.8341 80.2299 87.8341Z" fill="white"/>
<path d="M81.271 87.8341H79.183C79.1397 87.8341 79.0981 87.8168 79.0674 87.7862C79.0368 87.7555 79.0195 87.7139 79.0195 87.6706C79.0195 87.6272 79.0368 87.5856 79.0674 87.555C79.0981 87.5243 79.1397 87.5071 79.183 87.5071H81.271C81.3143 87.5071 81.3559 87.5243 81.3866 87.555C81.4172 87.5856 81.4345 87.6272 81.4345 87.6706C81.4345 87.7139 81.4172 87.7555 81.3866 87.7862C81.3559 87.8168 81.3143 87.8341 81.271 87.8341Z" fill="white"/>
<path d="M81.57 81.1732V83.9432C81.5808 84.1262 81.5541 84.3095 81.4915 84.4818C81.4289 84.6541 81.3317 84.8118 81.2059 84.9452C81.0802 85.0786 80.9285 85.1849 80.7602 85.2575C80.5918 85.3302 80.4104 85.3677 80.2271 85.3677C80.0438 85.3677 79.8624 85.3302 79.694 85.2575C79.5257 85.1849 79.374 85.0786 79.2482 84.9452C79.1225 84.8118 79.0253 84.6541 78.9627 84.4818C78.9001 84.3095 78.8734 84.1262 78.8842 83.9432V81.1732C78.8755 80.8177 79.0084 80.4733 79.2537 80.2157C79.499 79.9582 79.8365 79.8086 80.1921 79.8C80.5476 79.7913 80.892 79.9242 81.1496 80.1695C81.4071 80.4148 81.5567 80.7523 81.5653 81.1079C81.5694 81.1294 81.571 81.1513 81.57 81.1732Z" fill="white"/>
<path d="M80.2246 85.9235C79.9686 85.9242 79.715 85.8742 79.4784 85.7765C79.2419 85.6789 79.0269 85.5354 78.8459 85.3544C78.6649 85.1734 78.5214 84.9585 78.4238 84.7219C78.3261 84.4853 78.2761 84.2317 78.2767 83.9757V82.808C78.2727 82.7845 78.2739 82.7605 78.2802 82.7375C78.2864 82.7145 78.2976 82.6932 78.3129 82.675C78.3283 82.6568 78.3474 82.6422 78.369 82.6322C78.3906 82.6221 78.4141 82.6169 78.4379 82.6169C78.4617 82.6169 78.4852 82.6221 78.5068 82.6322C78.5284 82.6422 78.5475 82.6568 78.5629 82.675C78.5782 82.6932 78.5894 82.7145 78.5957 82.7375C78.6019 82.7605 78.6031 82.7845 78.5991 82.808V83.9757C78.6001 84.195 78.6454 84.4119 78.7322 84.6133C78.8191 84.8147 78.9456 84.9965 79.1044 85.1478C79.2631 85.2992 79.4508 85.4169 79.6561 85.494C79.8614 85.5711 80.0802 85.606 80.2993 85.5966C80.7226 85.5669 81.1187 85.3769 81.4069 85.0653C81.695 84.7537 81.8535 84.344 81.8501 83.9197V82.808C81.8501 82.7646 81.8673 82.723 81.898 82.6924C81.9286 82.6617 81.9702 82.6445 82.0136 82.6445C82.0569 82.6445 82.0985 82.6617 82.1292 82.6924C82.1598 82.723 82.1771 82.7646 82.1771 82.808V83.9197C82.1851 84.4304 81.9949 84.9244 81.6466 85.298C81.2982 85.6717 80.8187 85.8958 80.3087 85.9235H80.2246Z" fill="white"/>
<path d="M100.497 111.838C104.451 111.838 107.657 108.633 107.657 104.678C107.657 100.723 104.451 97.5171 100.497 97.5171C96.5419 97.5171 93.3359 100.723 93.3359 104.678C93.3359 108.633 96.5419 111.838 100.497 111.838Z" fill="#455A64"/>
<path d="M104.669 103.772V105.594C104.665 105.668 104.646 105.741 104.611 105.807C104.576 105.873 104.526 105.931 104.466 105.975C104.407 106.02 104.337 106.051 104.264 106.066C104.191 106.08 104.115 106.079 104.043 106.061L103.23 105.855L102.833 105.762V103.59L103.917 103.314L104.061 103.277C104.135 103.261 104.211 103.263 104.284 103.281C104.357 103.298 104.425 103.332 104.483 103.38C104.541 103.427 104.588 103.487 104.62 103.555C104.652 103.623 104.669 103.697 104.669 103.772Z" fill="white"/>
<path d="M101.473 102.445H98.3245C97.8163 102.445 97.4043 102.857 97.4043 103.365V105.995C97.4043 106.503 97.8163 106.915 98.3245 106.915H101.473C101.981 106.915 102.393 106.503 102.393 105.995V103.365C102.393 102.857 101.981 102.445 101.473 102.445Z" fill="white"/>
<path d="M80.2252 111.838C84.1799 111.838 87.3858 108.633 87.3858 104.678C87.3858 100.723 84.1799 97.5171 80.2252 97.5171C76.2704 97.5171 73.0645 100.723 73.0645 104.678C73.0645 108.633 76.2704 111.838 80.2252 111.838Z" fill="#455A64"/>
<path d="M82.9565 104.244H80.6583V101.95C80.6583 101.835 80.6126 101.724 80.5311 101.643C80.4496 101.561 80.3391 101.516 80.2239 101.516C80.1087 101.516 79.9982 101.561 79.9167 101.643C79.8353 101.724 79.7895 101.835 79.7895 101.95V104.244H77.496C77.4349 104.237 77.3731 104.244 77.3146 104.263C77.2562 104.282 77.2024 104.313 77.1567 104.354C77.1111 104.395 77.0746 104.446 77.0496 104.502C77.0246 104.558 77.0117 104.619 77.0117 104.68C77.0117 104.742 77.0246 104.803 77.0496 104.859C77.0746 104.915 77.1111 104.965 77.1567 105.006C77.2024 105.048 77.2562 105.079 77.3146 105.098C77.3731 105.117 77.4349 105.123 77.496 105.117H79.7895V107.41C79.7895 107.526 79.8353 107.636 79.9167 107.718C79.9982 107.799 80.1087 107.845 80.2239 107.845C80.3391 107.845 80.4496 107.799 80.5311 107.718C80.6126 107.636 80.6583 107.526 80.6583 107.41V105.117H82.9565C83.0645 105.106 83.1646 105.055 83.2373 104.974C83.3101 104.894 83.3503 104.789 83.3503 104.68C83.3503 104.572 83.3101 104.467 83.2373 104.386C83.1646 104.306 83.0645 104.255 82.9565 104.244Z" fill="white"/>
<path d="M125.828 88.8954C128.624 86.099 128.624 81.5651 125.828 78.7687C123.031 75.9722 118.498 75.9722 115.701 78.7686C112.905 81.5651 112.905 86.099 115.701 88.8954C118.498 91.6918 123.031 91.6918 125.828 88.8954Z" fill="#455A64"/>
<path d="M124.319 83.5227C124.319 83.3592 124.282 83.191 124.254 83.0275C124.189 82.6819 124.075 82.347 123.918 82.0326C123.791 81.7648 123.635 81.5125 123.451 81.2806L123.166 80.9583L122.913 81.2105L122.769 81.3459C123.094 81.6702 123.353 82.0556 123.529 82.48C123.706 82.9045 123.797 83.3596 123.797 83.8193C123.797 84.2789 123.706 84.734 123.529 85.1585C123.353 85.5829 123.094 85.9684 122.769 86.2926L122.913 86.4374L123.17 86.6943C123.254 86.6055 123.338 86.5168 123.418 86.4234C123.572 86.2398 123.71 86.0429 123.829 85.8348C123.942 85.6376 124.039 85.4314 124.118 85.2182C124.227 84.9246 124.3 84.6187 124.333 84.3074C124.333 84.1953 124.333 84.0785 124.361 83.9664C124.319 83.9477 124.319 83.5787 124.319 83.5227Z" fill="white"/>
<path d="M123.143 83.3967C123.056 82.7711 122.765 82.1916 122.316 81.7478L121.914 82.1542C122.132 82.3717 122.305 82.6301 122.423 82.9147C122.541 83.1993 122.601 83.5044 122.601 83.8124C122.603 84.1207 122.544 84.4263 122.426 84.7112C122.308 84.996 122.134 85.2543 121.914 85.4706L122.32 85.877C122.642 85.5569 122.884 85.1657 123.027 84.7348C123.17 84.304 123.209 83.8456 123.143 83.3967Z" fill="white"/>
<path d="M121.516 82.5605L121.114 82.9623C121.227 83.073 121.317 83.2053 121.378 83.3513C121.439 83.4973 121.47 83.6541 121.469 83.8124C121.47 83.9702 121.439 84.1266 121.379 84.2725C121.319 84.4184 121.231 84.5509 121.119 84.6625L121.521 85.0642C121.686 84.9005 121.818 84.7054 121.908 84.4903C121.997 84.2752 122.043 84.0444 122.043 83.8114C122.042 83.5784 121.995 83.3478 121.905 83.133C121.815 82.9183 121.682 82.7237 121.516 82.5605Z" fill="white"/>
<path d="M118.406 82.6633H117.22V84.9615H118.406V82.6633Z" fill="white"/>
<path d="M118.405 82.6634L120.591 81.7432V85.8817L118.405 84.9615V82.6634Z" fill="white"/>
<path d="M100.498 147.675C105.165 147.675 108.948 143.892 108.948 139.225C108.948 134.558 105.165 130.775 100.498 130.775C95.831 130.775 92.0479 134.558 92.0479 139.225C92.0479 143.892 95.831 147.675 100.498 147.675Z" fill="#FFC727"/>
<path d="M105.295 139.276C105.258 139.142 105.214 139.009 105.164 138.879C105.097 138.751 105.02 138.627 104.935 138.51L104.627 138.202C104.496 138.108 104.375 138.01 104.239 137.926C103.735 137.603 103.171 137.384 102.581 137.282C101.203 137.006 99.7833 137.006 98.4049 137.282C97.8087 137.386 97.2388 137.606 96.728 137.931C96.5972 138.02 96.4758 138.113 96.3544 138.202L96.032 138.519L95.8872 138.739C95.7758 138.904 95.7127 139.096 95.7051 139.295H98.4236C98.443 139.296 98.4622 139.29 98.4782 139.279C98.4943 139.268 98.5063 139.253 98.5124 139.234C98.5877 139.09 98.6993 138.968 98.8361 138.881C98.9729 138.793 99.1302 138.743 99.2924 138.734C100.086 138.683 100.881 138.683 101.675 138.734C101.837 138.738 101.996 138.786 102.133 138.874C102.271 138.961 102.382 139.084 102.455 139.229C102.464 139.25 102.479 139.267 102.498 139.279C102.518 139.29 102.54 139.296 102.562 139.295H105.201L105.295 139.276Z" fill="white"/>
<path d="M95.7 139.86V140.855C95.6938 140.901 95.6982 140.947 95.713 140.991C95.7277 141.034 95.7523 141.074 95.7848 141.107C95.8174 141.139 95.857 141.164 95.9006 141.178C95.9442 141.193 95.9907 141.198 96.0363 141.191H98.0542C98.1008 141.198 98.1483 141.193 98.1929 141.178C98.2375 141.163 98.2779 141.137 98.311 141.104C98.3441 141.07 98.3689 141.029 98.3835 140.985C98.3981 140.94 98.4021 140.892 98.3952 140.846V140.056C98.3952 139.986 98.3952 139.916 98.3952 139.855L95.7 139.86Z" fill="white"/>
<path d="M105.272 139.827H102.605C102.605 140.164 102.605 140.5 102.605 140.841C102.601 140.884 102.607 140.928 102.622 140.969C102.637 141.01 102.661 141.047 102.693 141.077C102.724 141.108 102.762 141.131 102.803 141.145C102.844 141.159 102.888 141.164 102.932 141.159H104.968C105.013 141.164 105.058 141.159 105.1 141.144C105.142 141.13 105.18 141.106 105.212 141.075C105.244 141.043 105.268 141.005 105.284 140.963C105.299 140.921 105.304 140.876 105.3 140.832C105.3 140.514 105.3 140.201 105.3 139.897L105.272 139.827Z" fill="white"/>
<path d="M91.0205 64.0258C91.0303 63.5033 91.2447 63.0055 91.6177 62.6395C91.9907 62.2735 92.4925 62.0685 93.015 62.0686C93.471 62.0662 93.9148 62.2157 94.2762 62.4937C94.3419 62.5445 94.3847 62.6193 94.3952 62.7016C94.4057 62.784 94.3831 62.8671 94.3323 62.9328C94.2815 62.9984 94.2067 63.0412 94.1243 63.0517C94.042 63.0622 93.9589 63.0396 93.8932 62.9888C93.645 62.7886 93.3339 62.6827 93.015 62.6899C92.651 62.6889 92.3009 62.8296 92.0388 63.0822C91.9132 63.2057 91.8135 63.3529 91.7454 63.5153C91.6774 63.6777 91.6423 63.852 91.6423 64.0281C91.6423 64.2042 91.6774 64.3785 91.7454 64.5409C91.8135 64.7033 91.9132 64.8506 92.0388 64.974C92.3027 65.2238 92.6517 65.364 93.015 65.3664C93.3338 65.3728 93.6446 65.267 93.8932 65.0674C93.9603 65.0219 94.0418 65.0029 94.1221 65.0142C94.2024 65.0254 94.2756 65.066 94.3276 65.1282C94.3763 65.1934 94.3982 65.2748 94.3886 65.3556C94.379 65.4365 94.3388 65.5105 94.2762 65.5626C93.9148 65.8405 93.471 65.9901 93.015 65.9876C92.4913 65.9889 91.9882 65.7837 91.6148 65.4164C91.2414 65.0491 91.0279 64.5495 91.0205 64.0258Z" fill="#263238"/>
<path d="M95.9279 65.6887C95.9279 65.7283 95.9201 65.7676 95.9047 65.8042C95.8894 65.8408 95.867 65.8739 95.8387 65.9017C95.8105 65.9296 95.777 65.9515 95.7402 65.9662C95.7033 65.981 95.664 65.9883 95.6243 65.9876C95.5584 65.9861 95.4947 65.9636 95.4426 65.9232C95.3905 65.8828 95.3527 65.8268 95.3347 65.7634C95.3324 65.7386 95.3324 65.7136 95.3347 65.6887V62.475C95.3439 62.4016 95.3795 62.334 95.435 62.285C95.4905 62.236 95.562 62.209 95.636 62.209C95.71 62.209 95.7815 62.236 95.837 62.285C95.8924 62.334 95.9281 62.4016 95.9373 62.475V63.4092C96.1155 63.3082 96.3163 63.2536 96.5212 63.2504C96.8363 63.2516 97.138 63.3777 97.3604 63.6009C97.5828 63.8242 97.7076 64.1264 97.7076 64.4415V65.6747C97.6984 65.7481 97.6628 65.8157 97.6073 65.8647C97.5518 65.9137 97.4803 65.9407 97.4063 65.9407C97.3323 65.9407 97.2608 65.9137 97.2054 65.8647C97.1499 65.8157 97.1142 65.7481 97.105 65.6747V64.4415C97.105 64.2867 97.0435 64.1382 96.934 64.0287C96.8245 63.9192 96.676 63.8576 96.5212 63.8576C96.3663 63.8576 96.2178 63.9192 96.1083 64.0287C95.9988 64.1382 95.9373 64.2867 95.9373 64.4415L95.9279 65.6887Z" fill="#263238"/>
<path d="M101.178 64.6563V65.7213C101.178 65.7973 101.148 65.8703 101.095 65.9245C101.042 65.9787 100.969 66.0097 100.893 66.0109C100.826 66.0102 100.762 65.9867 100.71 65.9443C100.658 65.9018 100.622 65.8429 100.608 65.7774C100.397 65.9285 100.144 66.0101 99.8843 66.0109C99.7097 66.0125 99.5366 65.9781 99.3758 65.9098C99.2151 65.8415 99.0702 65.7407 98.9501 65.6139C98.7104 65.3529 98.5786 65.0107 98.5811 64.6563C98.5808 64.3093 98.7127 63.9753 98.9501 63.7221C99.1543 63.4936 99.4363 63.3492 99.7412 63.3173C100.046 63.2853 100.352 63.368 100.599 63.5493C100.612 63.4829 100.647 63.423 100.699 63.3796C100.751 63.3362 100.816 63.312 100.884 63.3111C100.922 63.3117 100.959 63.3198 100.994 63.3349C101.029 63.35 101.061 63.3719 101.087 63.3992C101.114 63.4265 101.135 63.4588 101.149 63.4942C101.163 63.5295 101.169 63.5673 101.169 63.6054L101.178 64.6563ZM100.604 64.6563C100.608 64.4487 100.531 64.2476 100.389 64.0958C100.326 64.0242 100.248 63.967 100.161 63.9283C100.074 63.8896 99.9796 63.8702 99.8843 63.8716C99.7889 63.8693 99.6941 63.8882 99.6069 63.927C99.5196 63.9657 99.4421 64.0234 99.3798 64.0958C99.2398 64.2483 99.1644 64.4493 99.1696 64.6563C99.1677 64.8628 99.2426 65.0626 99.3798 65.2169C99.4449 65.2848 99.5233 65.3385 99.6101 65.3747C99.6969 65.4109 99.7903 65.4287 99.8843 65.4271C99.9782 65.4276 100.071 65.4093 100.158 65.3732C100.245 65.3371 100.323 65.2839 100.389 65.2169C100.527 65.0631 100.604 64.8633 100.604 64.6563Z" fill="#263238"/>
<path d="M103.925 63.5542C103.925 63.631 103.894 63.7047 103.84 63.759C103.786 63.8133 103.712 63.8438 103.635 63.8438C103.518 63.8404 103.403 63.8766 103.308 63.9466C103.206 64.0143 103.12 64.1036 103.056 64.2081C102.958 64.3509 102.884 64.5086 102.837 64.6752V65.7075C102.836 65.7462 102.828 65.7843 102.812 65.8198C102.797 65.8553 102.775 65.8874 102.747 65.9143C102.719 65.9412 102.687 65.9623 102.651 65.9765C102.615 65.9908 102.576 65.9978 102.538 65.9971C102.461 65.9971 102.387 65.9666 102.333 65.9123C102.279 65.858 102.248 65.7844 102.248 65.7075V63.5635C102.248 63.5257 102.256 63.4883 102.27 63.4534C102.285 63.4185 102.306 63.3869 102.333 63.3604C102.36 63.3339 102.392 63.313 102.427 63.2989C102.462 63.2849 102.5 63.278 102.538 63.2786C102.615 63.2773 102.69 63.3065 102.745 63.3598C102.801 63.4131 102.834 63.4863 102.837 63.5635V63.6009C102.87 63.5616 102.908 63.5256 102.949 63.4935C103.15 63.3533 103.39 63.2783 103.635 63.2786C103.71 63.2773 103.782 63.3055 103.837 63.3571C103.891 63.4086 103.923 63.4794 103.925 63.5542Z" fill="#263238"/>
<path d="M104.977 62.176C105.056 62.176 105.133 62.2074 105.19 62.2633C105.247 62.3192 105.279 62.3953 105.28 62.475V65.6886C105.271 65.7621 105.235 65.8297 105.18 65.8787C105.124 65.9276 105.053 65.9547 104.979 65.9547C104.905 65.9547 104.834 65.9276 104.778 65.8787C104.723 65.8297 104.687 65.7621 104.678 65.6886V62.475C104.678 62.4357 104.685 62.3968 104.7 62.3606C104.716 62.3243 104.738 62.2913 104.765 62.2636C104.793 62.2358 104.826 62.2138 104.862 62.1988C104.899 62.1838 104.937 62.176 104.977 62.176Z" fill="#263238"/>
<path d="M106.569 62.5871C106.569 62.6656 106.538 62.7409 106.483 62.7968C106.428 62.8528 106.353 62.8848 106.275 62.886C106.196 62.8848 106.121 62.8528 106.066 62.7968C106.011 62.7409 105.98 62.6656 105.98 62.5871V62.4703C105.98 62.4317 105.988 62.3934 106.003 62.3577C106.018 62.322 106.039 62.2895 106.067 62.2622C106.094 62.2349 106.126 62.2132 106.162 62.1984C106.198 62.1836 106.236 62.176 106.275 62.176C106.313 62.176 106.352 62.1836 106.387 62.1984C106.423 62.2132 106.456 62.2349 106.483 62.2622C106.51 62.2895 106.532 62.322 106.547 62.3577C106.561 62.3934 106.569 62.4317 106.569 62.4703V62.5871ZM106.569 63.568V65.6933C106.569 65.7714 106.538 65.8462 106.483 65.9014C106.428 65.9566 106.353 65.9876 106.275 65.9876C106.197 65.9876 106.122 65.9566 106.067 65.9014C106.011 65.8462 105.98 65.7714 105.98 65.6933V63.568C105.98 63.5293 105.988 63.4911 106.003 63.4554C106.018 63.4197 106.039 63.3872 106.067 63.3599C106.094 63.3326 106.126 63.3109 106.162 63.2961C106.198 63.2813 106.236 63.2737 106.275 63.2737C106.313 63.2737 106.352 63.2813 106.387 63.2961C106.423 63.3109 106.456 63.3326 106.483 63.3599C106.51 63.3872 106.532 63.4197 106.547 63.4554C106.561 63.4911 106.569 63.5293 106.569 63.568Z" fill="#263238"/>
<path d="M107.33 64.6238C107.328 64.2681 107.466 63.9259 107.714 63.6714C107.963 63.4168 108.301 63.2706 108.657 63.2645C108.997 63.2607 109.326 63.3907 109.571 63.6266C109.817 63.8625 109.96 64.1853 109.97 64.5257V64.5537C109.972 64.5707 109.972 64.588 109.97 64.6051C109.958 64.6703 109.922 64.7288 109.869 64.7686C109.816 64.8085 109.75 64.8269 109.685 64.8199H107.97C107.997 64.9552 108.062 65.0799 108.157 65.1796C108.296 65.3198 108.479 65.4073 108.676 65.4272C108.875 65.4443 109.075 65.3968 109.245 65.2917C109.301 65.2415 109.374 65.2137 109.449 65.2137C109.524 65.2137 109.596 65.2415 109.652 65.2917C109.676 65.3148 109.694 65.3424 109.707 65.3729C109.72 65.4034 109.727 65.4361 109.727 65.4692C109.727 65.5023 109.72 65.5351 109.707 65.5656C109.694 65.596 109.676 65.6236 109.652 65.6467C109.385 65.8874 109.035 66.0162 108.676 66.0064C108.496 66.0052 108.319 65.9683 108.154 65.898C107.988 65.8276 107.839 65.7251 107.714 65.5964C107.589 65.4678 107.49 65.3156 107.424 65.1486C107.359 64.9816 107.327 64.8032 107.33 64.6238ZM107.924 64.3575H109.465C109.402 64.1925 109.292 64.0499 109.148 63.9476C109.004 63.8454 108.833 63.7881 108.657 63.783C108.489 63.7848 108.325 63.8421 108.193 63.9459C108.06 64.0498 107.966 64.1944 107.924 64.3575Z" fill="#263238"/>
<path d="M93.6963 35.696C93.7024 35.3705 93.836 35.0604 94.0684 34.8324C94.3007 34.6044 94.6133 34.4768 94.9388 34.4768C95.2205 34.4761 95.4945 34.568 95.7188 34.7384C95.7574 34.7711 95.7822 34.8172 95.7883 34.8674C95.7943 34.9177 95.7812 34.9683 95.7515 35.0093C95.7201 35.0496 95.6743 35.076 95.6237 35.083C95.5731 35.09 95.5218 35.0769 95.4806 35.0467C95.327 34.9242 95.1352 34.8597 94.9388 34.8645C94.7114 34.865 94.4927 34.9518 94.3269 35.1074C94.2483 35.184 94.1859 35.2755 94.1433 35.3766C94.1007 35.4777 94.0788 35.5863 94.0788 35.696C94.0788 35.8056 94.1007 35.9142 94.1433 36.0153C94.1859 36.1164 94.2483 36.2079 94.3269 36.2845C94.4927 36.4401 94.7114 36.5269 94.9388 36.5274C95.1358 36.5309 95.3277 36.4647 95.4806 36.3406C95.5228 36.3134 95.5733 36.3023 95.623 36.3092C95.6727 36.316 95.7183 36.3404 95.7515 36.3779C95.7812 36.4189 95.7943 36.4696 95.7883 36.5198C95.7822 36.57 95.7574 36.6161 95.7188 36.6488C95.4945 36.8192 95.2205 36.9111 94.9388 36.9104C94.6137 36.9117 94.3011 36.785 94.0687 36.5578C93.8362 36.3306 93.7024 36.021 93.6963 35.696Z" fill="#C7C7C7"/>
<path d="M97.8022 36.0884V36.7517C97.8022 36.7988 97.7835 36.8439 97.7503 36.8772C97.717 36.9105 97.6718 36.9292 97.6247 36.9292C97.5831 36.929 97.5427 36.9146 97.5104 36.8882C97.4781 36.8618 97.4558 36.8252 97.4472 36.7844C97.3119 36.883 97.1476 36.934 96.9801 36.9292C96.8729 36.9301 96.7665 36.9091 96.6677 36.8673C96.5689 36.8255 96.4797 36.7639 96.4056 36.6863C96.2539 36.5244 96.1703 36.3103 96.1721 36.0884C96.1698 35.979 96.1893 35.8702 96.2293 35.7684C96.2694 35.6666 96.3294 35.5737 96.4056 35.4952C96.4775 35.4139 96.566 35.3489 96.6651 35.3046C96.7642 35.2603 96.8716 35.2377 96.9801 35.2383C97.1477 35.2376 97.3112 35.2899 97.4472 35.3878C97.4556 35.3465 97.4778 35.3093 97.51 35.2821C97.5422 35.255 97.5826 35.2396 97.6247 35.2383C97.6722 35.2395 97.7174 35.2592 97.7505 35.2933C97.7837 35.3273 97.8023 35.373 97.8022 35.4205V36.0884ZM97.4426 36.0884C97.4436 35.9595 97.397 35.8348 97.3118 35.7381C97.2712 35.6953 97.2223 35.6612 97.1681 35.6379C97.1139 35.6145 97.0555 35.6025 96.9965 35.6025C96.9375 35.6025 96.8791 35.6145 96.8249 35.6379C96.7707 35.6612 96.7218 35.6953 96.6812 35.7381C96.6 35.8368 96.5555 35.9606 96.5555 36.0884C96.5555 36.2162 96.6 36.3401 96.6812 36.4387C96.7673 36.5175 96.8798 36.5612 96.9965 36.5612C97.1132 36.5612 97.2257 36.5175 97.3118 36.4387C97.397 36.3421 97.4436 36.2173 97.4426 36.0884Z" fill="#C7C7C7"/>
<path d="M98.7212 34.561C98.7704 34.5622 98.8173 34.5823 98.8521 34.6171C98.8868 34.6519 98.9069 34.6987 98.9081 34.7479V36.7471C98.9081 36.7966 98.8884 36.8442 98.8534 36.8792C98.8183 36.9142 98.7708 36.9339 98.7212 36.9339C98.6717 36.9339 98.6242 36.9142 98.5891 36.8792C98.5541 36.8442 98.5344 36.7966 98.5344 36.7471V34.7619C98.5332 34.7364 98.537 34.7108 98.5458 34.6868C98.5546 34.6628 98.5681 34.6408 98.5855 34.6221C98.6029 34.6033 98.6239 34.5883 98.6472 34.5778C98.6705 34.5673 98.6957 34.5616 98.7212 34.561Z" fill="#C7C7C7"/>
<path d="M99.5621 34.561C99.6121 34.561 99.6601 34.5806 99.6959 34.6155C99.7316 34.6504 99.7524 34.6979 99.7536 34.7479V36.7471C99.7465 36.7921 99.7235 36.8332 99.6888 36.8628C99.6542 36.8925 99.61 36.9088 99.5644 36.9088C99.5188 36.9088 99.4747 36.8925 99.44 36.8628C99.4053 36.8332 99.3823 36.7921 99.3752 36.7471V34.7619C99.374 34.7364 99.3778 34.7108 99.3866 34.6868C99.3954 34.6628 99.4089 34.6408 99.4263 34.6221C99.4437 34.6033 99.4647 34.5883 99.488 34.5778C99.5113 34.5673 99.5365 34.5616 99.5621 34.561Z" fill="#C7C7C7"/>
<path d="M100.568 34.8179C100.568 34.8426 100.564 34.8672 100.555 34.8902C100.546 34.9131 100.532 34.934 100.514 34.9515C100.497 34.9689 100.476 34.9827 100.453 34.9918C100.43 35.001 100.406 35.0054 100.381 35.0047C100.332 35.0035 100.286 34.9833 100.252 34.9484C100.218 34.9135 100.199 34.8667 100.199 34.8179V34.7619C100.199 34.7131 100.218 34.6663 100.252 34.6314C100.286 34.5965 100.332 34.5762 100.381 34.575C100.406 34.5744 100.43 34.5788 100.453 34.5879C100.476 34.5971 100.497 34.6108 100.514 34.6283C100.532 34.6458 100.546 34.6666 100.555 34.6896C100.564 34.7126 100.568 34.7371 100.568 34.7619V34.8179ZM100.568 35.4298V36.747C100.561 36.7909 100.538 36.8309 100.504 36.8597C100.471 36.8886 100.428 36.9044 100.383 36.9044C100.339 36.9044 100.296 36.8886 100.262 36.8597C100.228 36.8309 100.206 36.7909 100.199 36.747V35.4298C100.194 35.4031 100.196 35.3758 100.203 35.3498C100.211 35.3238 100.223 35.2997 100.241 35.2791C100.259 35.2585 100.28 35.242 100.305 35.2307C100.329 35.2194 100.356 35.2135 100.383 35.2135C100.41 35.2135 100.437 35.2194 100.461 35.2307C100.486 35.242 100.508 35.2585 100.525 35.2791C100.543 35.2997 100.556 35.3238 100.563 35.3498C100.57 35.3758 100.572 35.4031 100.568 35.4298Z" fill="#C7C7C7"/>
<path d="M102.557 35.9436V36.7517C102.557 36.7988 102.539 36.8439 102.505 36.8772C102.472 36.9105 102.427 36.9292 102.38 36.9292C102.333 36.928 102.289 36.9089 102.256 36.8759C102.223 36.8429 102.204 36.7984 102.202 36.7517V35.9436C102.202 35.8982 102.192 35.8534 102.174 35.8117C102.156 35.77 102.13 35.7322 102.098 35.7006C102.065 35.6689 102.027 35.6439 101.985 35.6271C101.942 35.6103 101.897 35.602 101.852 35.6026C101.807 35.602 101.762 35.6104 101.721 35.6273C101.679 35.6442 101.641 35.6693 101.61 35.7011C101.578 35.7329 101.553 35.7707 101.536 35.8124C101.519 35.854 101.51 35.8987 101.511 35.9436V36.7517C101.513 36.7625 101.513 36.7736 101.511 36.7844C101.502 36.8256 101.478 36.8623 101.445 36.8886C101.412 36.9149 101.371 36.9292 101.329 36.9292C101.282 36.9292 101.237 36.9105 101.203 36.8772C101.17 36.8439 101.151 36.7988 101.151 36.7517V35.4205C101.151 35.3729 101.17 35.3273 101.203 35.2933C101.236 35.2592 101.281 35.2395 101.329 35.2383C101.364 35.2385 101.399 35.2487 101.428 35.2677C101.458 35.2867 101.482 35.3137 101.497 35.3457C101.604 35.276 101.729 35.2387 101.857 35.2383C102.043 35.2407 102.22 35.316 102.351 35.4478C102.482 35.5797 102.556 35.7577 102.557 35.9436Z" fill="#C7C7C7"/>
<path d="M104.734 36.0977V36.7236C104.733 36.9388 104.647 37.1448 104.495 37.297C104.342 37.4491 104.136 37.5352 103.921 37.5364C103.798 37.5379 103.676 37.509 103.566 37.4523C103.523 37.4312 103.49 37.3937 103.474 37.3482C103.458 37.3027 103.461 37.2528 103.482 37.2094C103.493 37.1874 103.507 37.1677 103.526 37.1515C103.544 37.1352 103.565 37.1228 103.588 37.115C103.611 37.1072 103.636 37.104 103.66 37.1058C103.684 37.1076 103.708 37.1142 103.73 37.1253C103.789 37.1555 103.855 37.1715 103.921 37.172C104.025 37.1694 104.125 37.1321 104.206 37.0661C104.286 37.0001 104.342 36.9092 104.365 36.8077C104.234 36.8963 104.079 36.9435 103.921 36.9432C103.813 36.9429 103.706 36.9199 103.607 36.8756C103.508 36.8314 103.419 36.7669 103.347 36.6863C103.193 36.5268 103.108 36.3141 103.108 36.093C103.109 35.8694 103.195 35.6544 103.347 35.4905C103.42 35.4114 103.509 35.3482 103.608 35.3048C103.707 35.2614 103.813 35.2388 103.921 35.2382C104.088 35.2345 104.252 35.2853 104.388 35.383C104.396 35.3418 104.418 35.3047 104.451 35.2782C104.483 35.2517 104.524 35.2375 104.566 35.2382C104.614 35.2382 104.66 35.2574 104.695 35.2916C104.729 35.3258 104.748 35.3721 104.748 35.4204V36.093L104.734 36.0977ZM104.37 36.0977C104.371 35.9709 104.326 35.848 104.243 35.752C104.203 35.7067 104.153 35.6703 104.098 35.6454C104.042 35.6204 103.982 35.6074 103.921 35.6072C103.862 35.6073 103.803 35.6202 103.749 35.6452C103.695 35.6702 103.647 35.7067 103.608 35.752C103.521 35.8459 103.472 35.9695 103.473 36.0977C103.47 36.1615 103.481 36.2251 103.505 36.2846C103.528 36.344 103.563 36.3981 103.608 36.4434C103.647 36.4881 103.695 36.5238 103.749 36.548C103.803 36.5723 103.862 36.5844 103.921 36.5835C103.982 36.5842 104.042 36.572 104.097 36.5479C104.153 36.5237 104.203 36.4881 104.243 36.4434C104.329 36.3469 104.374 36.2216 104.37 36.093V36.0977Z" fill="#C7C7C7"/>
<path d="M105.664 36.4526C105.731 36.4526 105.796 36.4791 105.844 36.5262C105.892 36.5734 105.919 36.6375 105.92 36.7049C105.92 36.738 105.913 36.7707 105.9 36.8011C105.886 36.8314 105.867 36.8589 105.843 36.8819C105.819 36.9049 105.791 36.9229 105.76 36.935C105.73 36.9471 105.697 36.9531 105.664 36.9524C105.598 36.9524 105.535 36.9264 105.489 36.8799C105.442 36.8335 105.416 36.7705 105.416 36.7049C105.416 36.6388 105.442 36.5753 105.488 36.5281C105.535 36.481 105.597 36.4539 105.664 36.4526Z" fill="#C7C7C7"/>
<path d="M106.444 36.4526C106.477 36.4526 106.51 36.4592 106.54 36.4718C106.571 36.4845 106.599 36.5031 106.622 36.5265C106.645 36.5499 106.664 36.5777 106.677 36.6083C106.689 36.6389 106.696 36.6717 106.696 36.7049C106.696 36.7718 106.669 36.8359 106.622 36.8832C106.575 36.9305 106.511 36.9571 106.444 36.9571C106.377 36.9571 106.313 36.9305 106.265 36.8832C106.218 36.8359 106.191 36.7718 106.191 36.7049C106.191 36.638 106.218 36.5738 106.265 36.5265C106.313 36.4792 106.377 36.4526 106.444 36.4526Z" fill="#C7C7C7"/>
<path d="M107.218 36.4526C107.286 36.4526 107.35 36.4791 107.398 36.5262C107.446 36.5734 107.474 36.6375 107.475 36.7049C107.475 36.738 107.467 36.7707 107.454 36.8011C107.441 36.8314 107.422 36.8589 107.398 36.8819C107.374 36.9049 107.346 36.9229 107.315 36.935C107.284 36.9471 107.251 36.9531 107.218 36.9524C107.153 36.9524 107.09 36.9264 107.043 36.8799C106.997 36.8335 106.971 36.7705 106.971 36.7049C106.971 36.6388 106.997 36.5753 107.043 36.5281C107.089 36.481 107.152 36.4539 107.218 36.4526Z" fill="#C7C7C7"/>
<path d="M105.678 57.7715C104.799 58.3176 103.839 58.7198 102.833 58.9626C100.422 59.5517 97.8765 59.2099 95.7058 58.0054C93.535 56.8009 91.8981 54.8223 91.1218 52.4643C90.3454 50.1063 90.4866 47.5422 91.5172 45.2837C92.5478 43.0252 94.3921 41.2383 96.682 40.2794C98.9719 39.3206 101.539 39.2604 103.871 40.1107C106.204 40.9611 108.13 42.6596 109.265 44.8673C110.401 47.075 110.662 49.6296 109.997 52.0214C109.332 54.4133 107.79 56.4665 105.678 57.7715Z" fill="#C7C7C7"/>
<path d="M103.495 48.2564C103.495 48.8504 103.319 49.4311 102.989 49.925C102.659 50.419 102.19 50.8039 101.641 51.0313C101.092 51.2586 100.488 51.3181 99.9058 51.2022C99.3232 51.0863 98.788 50.8002 98.368 50.3802C97.9479 49.9601 97.6619 49.425 97.546 48.8424C97.4301 48.2597 97.4896 47.6558 97.7169 47.107C97.9442 46.5582 98.3292 46.0891 98.8231 45.7591C99.317 45.4291 99.8977 45.2529 100.492 45.2529C100.886 45.2523 101.277 45.3296 101.642 45.4803C102.007 45.631 102.338 45.8522 102.617 46.1313C102.896 46.4103 103.117 46.7416 103.268 47.1063C103.419 47.471 103.496 47.8618 103.495 48.2564Z" fill="white"/>
<path d="M105.678 56.5335V57.7713C104.8 58.3175 103.839 58.7196 102.834 58.9624C101.563 59.2751 100.243 59.3304 98.9503 59.125C97.6579 58.9197 96.4197 58.4578 95.3086 57.7666V56.5335C95.3086 55.1584 95.8549 53.8396 96.8272 52.8672C97.7995 51.8949 99.1183 51.3486 100.493 51.3486C101.869 51.3486 103.187 51.8949 104.16 52.8672C105.132 53.8396 105.678 55.1584 105.678 56.5335Z" fill="white"/>
<path d="M187.589 179.419C187.589 179.419 171.498 187.038 150.361 187.038C127.917 187.038 117.033 179.727 117.033 179.727C100.643 166.859 98.9516 147.792 110.643 136.231C117.72 129.224 122.895 130.649 131.453 129.537H131.476C134.499 129.216 137.439 128.352 140.155 126.987C148.964 122.339 153.934 111.376 161.347 102.151C162.282 100.992 163.248 99.8714 164.248 98.7877C170.32 92.2763 182.465 92.0661 188.822 101.217C204.947 124.446 204.494 159.053 187.589 179.419Z" fill="#FFC727"/>
<g opacity="0.1">
<path d="M187.589 179.419C187.589 179.419 171.498 187.038 150.361 187.038C127.917 187.038 117.033 179.727 117.033 179.727C100.643 166.859 98.9516 147.792 110.643 136.231C117.72 129.224 122.895 130.649 131.453 129.537H131.476C134.499 129.216 137.439 128.352 140.155 126.987C148.964 122.339 153.934 111.376 161.347 102.151C162.282 100.992 163.248 99.8714 164.248 98.7877C170.32 92.2763 182.465 92.0661 188.822 101.217C204.947 124.446 204.494 159.053 187.589 179.419Z" fill="black"/>
</g>
<path opacity="0.1" d="M142.538 160.67C164.025 165.957 183.723 153.887 185.488 126.221C186.782 105.962 172.372 96.3961 161.33 102.132C153.935 111.367 148.97 122.32 140.156 126.968C137.44 128.334 134.5 129.197 131.477 129.518H131.449L130.538 129.631C120.734 135.768 125.853 156.564 142.538 160.67Z" fill="black"/>
<path d="M123.017 197.127C124.072 196.954 149.777 183.394 150.431 182.259C150.678 181.83 148.922 177.971 146.666 173.384C146.199 172.389 145.671 171.366 145.148 170.329C141.766 163.599 138.015 156.531 138.015 156.531L120.798 165.551L128.402 179.097L130.07 182.072C130.07 182.072 122.554 191.657 121.984 192.979C121.414 194.301 121.984 197.314 123.017 197.127Z" fill="#F7A9A0"/>
<path d="M123.017 197.127C124.073 196.954 149.773 183.399 150.427 182.259C150.651 181.881 149.311 178.835 147.447 174.963C146.405 176.406 131.294 188.294 126.427 189.266C124.433 189.663 127.702 185.137 127.828 184.945C125.563 187.888 122.345 192.125 121.971 192.975C121.392 194.301 121.957 197.314 123.017 197.127Z" fill="#263238"/>
<path d="M127.534 185.314C127.534 185.314 129.809 183.488 133.924 185.38L127.534 185.314Z" fill="#263238"/>
<path d="M110.699 144.27C111.909 152.155 127.001 178.994 127.001 178.994L145.4 169.017L134.255 149.721C134.255 149.721 158.628 153.813 168.157 150.323C178.326 146.587 177.434 134.577 177.434 134.577L153.28 130.556C153.018 131.23 152.528 131.792 151.894 132.142C151.261 132.492 150.525 132.608 149.814 132.471C140.439 131.298 127.599 131.069 122.638 131.359C116.239 131.756 109.592 137.058 110.699 144.27Z" fill="#37474F"/>
<path d="M128.991 142.92C129.532 143.502 130.034 144.118 130.495 144.765C131.013 145.414 131.537 146.054 132.05 146.703C131.957 146.512 131.868 146.32 131.77 146.134C131.438 145.484 131.172 144.812 130.785 144.195C130.761 144.158 130.822 144.12 130.845 144.158C131.242 144.77 131.7 145.353 132.041 145.998C132.205 146.302 132.359 146.61 132.508 146.932C132.588 147.1 132.667 147.273 132.737 147.451C132.775 147.533 132.808 147.617 132.835 147.703C133.069 148.002 133.302 148.306 133.517 148.609C134.008 149.296 134.451 150.01 134.946 150.692C134.97 150.73 134.914 150.762 134.886 150.73C134.386 150.095 133.821 149.506 133.312 148.861C132.802 148.217 132.298 147.558 131.807 146.89C131.317 146.222 130.873 145.587 130.406 144.938C129.884 144.298 129.404 143.625 128.967 142.925C128.958 142.929 128.991 142.901 128.991 142.92Z" fill="#263238"/>
<path d="M126.054 174.744C126.521 174.412 127.049 174.108 127.553 173.809C128.058 173.51 128.543 173.202 129.043 172.903C130.066 172.291 131.098 171.698 132.131 171.1C134.2 169.904 136.293 168.737 138.376 167.564C139.548 166.91 140.711 166.275 141.903 165.63C141.926 165.63 141.954 165.63 141.931 165.668C139.927 166.91 137.913 168.143 135.882 169.349C133.85 170.554 131.752 171.763 129.655 172.922C129.071 173.244 128.483 173.557 127.894 173.856C127.306 174.155 126.703 174.501 126.086 174.79C126.058 174.804 126.026 174.762 126.054 174.744Z" fill="#263238"/>
<path d="M174.061 135.189C174.151 138.38 173.021 141.485 170.903 143.873C169.836 145.031 168.554 145.972 167.129 146.643C165.695 147.29 164.167 147.706 162.603 147.876C159.469 148.26 156.309 148.393 153.154 148.273C149.996 148.179 146.838 147.936 143.704 147.549C140.566 147.19 137.453 146.633 134.385 145.881C133.624 145.685 132.863 145.47 132.115 145.223C131.741 145.096 131.372 144.966 131.008 144.826C130.639 144.656 130.254 144.523 129.859 144.429C129.645 144.384 129.424 144.384 129.21 144.429C129.09 144.456 128.979 144.513 128.888 144.595C128.796 144.676 128.727 144.78 128.687 144.896C128.649 145.004 128.632 145.118 128.635 145.232C128.635 145.347 128.655 145.461 128.696 145.568C128.761 145.769 128.845 145.951 128.925 146.133C129.261 146.857 129.63 147.535 130.004 148.259C133.045 153.817 136.319 159.236 139.603 164.645C138.005 161.917 136.423 159.177 134.857 156.424C133.283 153.677 131.713 150.931 130.237 148.133C129.873 147.437 129.504 146.731 129.186 146.017C129.111 145.837 129.045 145.653 128.99 145.465C128.959 145.39 128.942 145.309 128.939 145.227C128.94 145.143 128.954 145.06 128.981 144.98C129.065 144.662 129.448 144.625 129.826 144.695C130.202 144.784 130.566 144.912 130.915 145.078C131.288 145.223 131.662 145.358 132.04 145.484C132.792 145.736 133.559 145.951 134.325 146.157C137.399 146.924 140.519 147.494 143.667 147.862C146.815 148.24 149.982 148.474 153.149 148.558C156.322 148.669 159.498 148.512 162.645 148.091C164.231 147.901 165.778 147.463 167.227 146.792C168.669 146.098 169.96 145.128 171.03 143.938C172.072 142.748 172.866 141.362 173.365 139.86C173.881 138.359 174.117 136.776 174.061 135.189Z" fill="#263238"/>
<path d="M146.119 199.962C147.119 199.575 169.432 180.961 169.834 179.714C169.988 179.246 167.471 175.832 164.304 171.801C163.622 170.927 162.902 170.035 162.183 169.129C157.484 163.248 152.346 157.143 152.346 157.143L137.398 169.554L147.675 181.232L149.926 183.796C149.926 183.796 144.568 194.745 144.274 196.16C143.98 197.576 145.124 200.355 146.119 199.962Z" fill="#F7A9A0"/>
<path d="M146.119 199.963C147.119 199.575 169.432 180.961 169.834 179.714C169.97 179.298 168.026 176.598 165.397 173.198C164.673 174.828 152.369 189.598 147.81 191.564C145.942 192.367 148.198 187.257 148.277 187.042C146.68 190.387 144.41 195.207 144.223 196.114C143.938 197.534 145.12 200.355 146.119 199.963Z" fill="#263238"/>
<path d="M148.077 187.467C148.077 187.467 149.922 185.207 154.341 186.201L148.077 187.467Z" fill="#263238"/>
<path d="M121.518 146.605C122.723 154.49 142.687 176.902 144.994 179.475L145.517 180.059L161.376 167.335L161.184 167.102L150.23 153.841C150.23 153.841 167.733 160.693 175.865 150.057C179.102 145.825 177.435 134.577 177.435 134.577L158.031 131.452C158.031 131.452 157.541 134.774 154.822 134.437C145.452 133.265 138.09 132.223 133.13 132.527C126.726 132.9 120.406 139.393 121.518 146.605Z" fill="#37474F"/>
<path d="M154.294 134.344C148.273 133.484 142.229 132.7 136.142 132.424C135.381 132.396 134.615 132.382 133.853 132.391C133.084 132.392 132.315 132.453 131.555 132.573C131.175 132.649 130.801 132.757 130.439 132.896C130.075 133.022 129.72 133.162 129.369 133.321C128.666 133.628 127.986 133.989 127.337 134.4C126.027 135.213 124.859 136.235 123.881 137.427C122.4 139.228 121.496 141.433 121.288 143.756C121.26 143.947 121.256 144.139 121.246 144.33C121.237 144.522 121.246 144.718 121.246 144.914C121.259 145.303 121.298 145.69 121.363 146.073C121.68 147.577 122.187 149.036 122.872 150.412C124.224 153.149 125.796 155.771 127.571 158.255C129.313 160.754 131.163 163.173 133.069 165.546C134.975 167.919 136.96 170.217 138.964 172.516C137.002 170.18 135.068 167.844 133.2 165.444C131.331 163.043 129.495 160.614 127.786 158.105C126.045 155.619 124.496 153.003 123.152 150.281C122.484 148.928 121.992 147.495 121.685 146.017C121.623 145.651 121.585 145.281 121.573 144.91C121.573 144.541 121.597 144.158 121.629 143.789C121.702 143.042 121.846 142.303 122.059 141.584C122.488 140.142 123.197 138.799 124.147 137.632C125.097 136.461 126.235 135.457 127.515 134.661C128.15 134.256 128.815 133.9 129.505 133.596C129.846 133.442 130.196 133.302 130.551 133.176C130.9 133.042 131.259 132.936 131.625 132.858C132.369 132.742 133.12 132.679 133.872 132.672C134.629 132.672 135.386 132.672 136.147 132.672C139.183 132.76 142.219 133.022 145.241 133.316C148.264 133.61 151.276 133.961 154.294 134.344Z" fill="#263238"/>
<path d="M144.303 146.026C144.842 146.608 145.343 147.225 145.803 147.871C146.321 148.516 146.844 149.156 147.358 149.805C147.265 149.613 147.176 149.422 147.078 149.235C146.751 148.586 146.48 147.913 146.097 147.297C146.097 147.259 146.13 147.222 146.153 147.259C146.55 147.871 147.008 148.455 147.354 149.1C147.512 149.408 147.667 149.716 147.821 150.034C147.895 150.207 147.98 150.375 148.05 150.552C148.082 150.632 148.12 150.716 148.148 150.805C148.377 151.104 148.615 151.407 148.825 151.739C149.32 152.421 149.759 153.14 150.254 153.817C150.282 153.855 150.222 153.892 150.194 153.855C149.694 153.22 149.129 152.631 148.619 151.986C148.11 151.342 147.606 150.683 147.115 150.02C146.625 149.357 146.181 148.712 145.714 148.063C145.194 147.423 144.713 146.752 144.275 146.054C144.275 146.05 144.276 146.047 144.278 146.043C144.279 146.04 144.281 146.037 144.284 146.034C144.286 146.032 144.289 146.03 144.293 146.028C144.296 146.027 144.3 146.026 144.303 146.026Z" fill="#263238"/>
<path d="M143.736 176.425C144.157 176.019 144.614 175.636 145.058 175.248L146.375 174.104C147.282 173.328 148.202 172.572 149.117 171.81C150.958 170.283 152.817 168.779 154.681 167.275C155.722 166.429 156.783 165.607 157.829 164.771C157.829 164.771 157.88 164.771 157.862 164.804C156.096 166.361 154.315 167.918 152.518 169.475C150.721 171.032 148.876 172.556 146.983 174.048C146.46 174.459 145.936 174.87 145.409 175.271C144.881 175.673 144.339 176.112 143.778 176.491C143.755 176.486 143.713 176.449 143.736 176.425Z" fill="#263238"/>
<path d="M174.734 135.53C175.008 137.251 175.052 139.001 174.864 140.734C174.7 142.464 174.212 144.149 173.426 145.699C172.623 147.236 171.402 148.516 169.904 149.389C168.383 150.222 166.69 150.692 164.957 150.763C163.225 150.868 161.487 150.802 159.768 150.566C158.04 150.346 156.324 150.035 154.63 149.632C151.243 148.833 147.915 147.799 144.671 146.54L144.549 146.489L144.489 146.596C144.262 147.004 144.114 147.451 144.054 147.913C143.982 148.368 143.982 148.832 144.054 149.286C144.134 149.737 144.273 150.175 144.465 150.59C144.68 150.987 144.922 151.37 145.189 151.734C146.231 153.182 147.361 154.537 148.496 155.938C149.632 157.339 150.785 158.657 151.953 159.992C153.121 161.328 154.289 162.66 155.484 163.982C154.326 162.636 153.182 161.277 152.042 159.918C150.902 158.558 149.772 157.19 148.651 155.812C147.53 154.434 146.423 153.047 145.404 151.608C145.151 151.254 144.923 150.882 144.722 150.496C144.544 150.104 144.416 149.692 144.339 149.268C144.19 148.421 144.324 147.549 144.722 146.787L144.54 146.844C147.792 148.125 151.131 149.176 154.531 149.987C156.227 150.389 157.942 150.7 159.67 150.921C161.41 151.149 163.168 151.207 164.92 151.094C166.691 151.017 168.418 150.52 169.96 149.646C171.483 148.733 172.718 147.408 173.524 145.825C174.306 144.251 174.772 142.539 174.897 140.785C175.078 139.034 175.023 137.267 174.734 135.53Z" fill="#263238"/>
<path d="M166.387 134.895C166.523 135.829 166.714 136.735 166.929 137.646C167.074 138.476 167.38 139.27 167.831 139.982C168.318 140.61 168.942 141.118 169.657 141.467C170.064 141.684 170.483 141.876 170.914 142.042C171.357 142.189 171.79 142.368 172.207 142.579C172.224 142.589 172.238 142.604 172.245 142.623C172.253 142.641 172.254 142.661 172.249 142.68C172.245 142.7 172.234 142.717 172.219 142.73C172.204 142.742 172.185 142.75 172.165 142.751C171.67 142.72 171.181 142.628 170.708 142.476C170.248 142.355 169.799 142.199 169.363 142.009C168.572 141.643 167.887 141.082 167.373 140.379C166.894 139.611 166.592 138.746 166.49 137.847C166.318 136.879 166.242 135.896 166.266 134.913C166.266 134.815 166.359 134.815 166.387 134.895Z" fill="#263238"/>
<path d="M164.958 85.4286C164.958 85.4286 169.12 83.5602 172.478 86.0498C175.837 88.5395 177.075 94.112 176.094 98.6149C175.113 103.118 178.579 106.43 178.7 109.849C178.822 113.268 176.472 114.646 175.58 116.36C174.557 118.322 177.383 125.824 168.545 126.781C157.489 127.977 153.878 120.942 155.443 115.501C156.209 112.834 157.895 111.035 158.049 108.84C158.204 106.644 156.793 104.767 157.83 102.053C158.867 99.3389 159.909 99.806 160.712 95.476C161.515 91.1459 161.034 85.8536 164.958 85.4286Z" fill="#263238"/>
<path d="M171.727 85.8864C173.911 87.5664 175.528 89.8745 176.361 92.5006C176.782 93.8034 176.984 95.1673 176.959 96.5364C176.921 98.3254 176.515 99.9696 177.033 101.749C177.865 104.603 179.799 107.084 179.444 110.157C179.276 111.589 178.708 112.944 177.804 114.067C176.748 115.379 175.319 116.37 174.408 117.804C174.371 117.864 174.277 117.804 174.315 117.743C175.081 116.472 176.225 115.547 177.211 114.436C178.39 113.137 179.096 111.478 179.215 109.727C179.374 106.789 177.468 104.365 176.711 101.618C176.425 100.412 176.381 99.1612 176.58 97.9377C176.763 96.4531 176.695 94.9482 176.379 93.4862C175.665 90.5347 174.029 87.8875 171.708 85.9284C171.708 85.9284 171.704 85.8677 171.727 85.8864Z" fill="#263238"/>
<path d="M155.537 114.721C155.92 113.431 156.705 112.301 157.083 111.021C157.55 109.475 157.275 107.878 157.083 106.313C156.836 104.08 157.055 102.006 158.2 100.012C158.938 98.7223 159.807 97.5359 160.386 96.1626C161.018 94.6732 161.43 93.0997 161.61 91.4916C161.61 91.4589 161.666 91.4635 161.666 91.4916C161.516 93.8255 160.827 96.0929 159.652 98.1151C158.961 99.3015 158.125 100.404 157.672 101.712C157.207 103.257 157.085 104.884 157.312 106.481C157.455 107.565 157.5 108.659 157.448 109.751C157.294 110.852 156.945 111.917 156.415 112.894C155.152 115.48 154.923 118.451 155.775 121.199C155.775 121.246 155.705 121.274 155.687 121.223C154.968 119.123 154.916 116.852 155.537 114.721Z" fill="#263238"/>
<path d="M179.013 109.499C179.116 107.079 177.57 105.295 176.724 103.127C176.084 101.483 175.697 99.7548 176.099 98.0359C176.099 98.0079 176.155 98.0359 176.15 98.0359C175.814 100.544 176.682 102.917 177.902 105.141C178.714 106.621 179.368 108.032 179.237 109.723C179.107 111.414 178.336 112.712 177.28 114.006C176.528 114.94 175.795 115.781 175.412 116.912C175.091 118.05 174.934 119.228 174.945 120.41C174.945 120.471 174.847 120.462 174.847 120.41C174.847 118.588 174.954 116.837 175.996 115.272C177.294 113.31 178.91 111.937 179.013 109.499Z" fill="#263238"/>
<path d="M155.261 112.974C155.719 112.186 156.248 111.442 156.84 110.75C157.877 109.471 158.12 108.382 157.947 106.747C157.95 106.741 157.954 106.736 157.959 106.732C157.965 106.729 157.971 106.727 157.978 106.727C157.984 106.727 157.991 106.729 157.996 106.732C158.001 106.736 158.006 106.741 158.008 106.747C158.34 108.111 158.354 109.223 157.466 110.377C156.228 111.993 155.028 113.455 154.636 115.473C153.935 119.051 155.701 122.587 158.84 124.689C158.886 124.717 158.84 124.782 158.793 124.754C157.501 124.024 156.409 122.987 155.612 121.735C154.815 120.483 154.339 119.054 154.225 117.575C154.138 115.975 154.497 114.382 155.261 112.974Z" fill="#263238"/>
<path d="M163.249 109.083C161.277 118.322 158.255 126.109 155.71 127.916C153.654 129.378 136.418 132.765 135.816 132.83C134.33 132.98 131.528 123.227 132.546 121.989C132.779 121.704 149.362 120.153 149.885 119.616C150.408 119.079 155.336 112.497 159.288 107.439C162.043 103.893 164.342 103.959 163.249 109.083Z" fill="#F7A9A0"/>
<path d="M138.772 131.728C137.353 132.421 135.891 133.021 134.395 133.526C133.199 133.872 129.724 134.774 129.224 133.498C128.874 132.625 130.85 131.854 132.233 131.28C132.966 130.976 133.863 130.21 133.634 129.743C133.26 128.921 131.382 129.743 130.145 130.462C127.758 131.863 124.577 134.348 123.115 133.134C122.568 132.667 123.208 131.845 124.142 131.027C122.624 131.962 121.003 132.76 120.368 132.275C120.206 132.149 120.098 131.967 120.065 131.765C120.032 131.563 120.077 131.356 120.191 131.186C119.999 131.275 119.785 131.306 119.577 131.273C119.368 131.241 119.174 131.147 119.018 131.004C118.523 130.485 118.766 129.724 119.308 128.944C119.211 128.937 119.118 128.906 119.037 128.854C118.955 128.801 118.888 128.73 118.841 128.645C117.794 127.052 123.045 122.475 124.843 122.045C128.454 121.275 132.154 121.004 135.839 121.242C137.964 122.914 138.772 131.723 138.772 131.728Z" fill="#F7A9A0"/>
<path d="M130.935 126.781C129.665 126.97 128.453 127.438 127.385 128.15C126.137 129.005 125.152 130.172 124.003 131.135C123.998 131.137 123.994 131.14 123.991 131.144C123.988 131.148 123.986 131.153 123.985 131.158C123.984 131.163 123.984 131.168 123.986 131.173C123.987 131.178 123.989 131.182 123.993 131.186C123.996 131.19 124 131.193 124.005 131.194C124.01 131.196 124.015 131.197 124.02 131.197C124.025 131.196 124.03 131.195 124.034 131.192C124.038 131.189 124.042 131.186 124.045 131.181C124.587 130.682 125.18 130.247 125.74 129.78C126.301 129.313 126.824 128.846 127.399 128.379C128.445 127.593 129.655 127.055 130.939 126.805C130.939 126.805 130.949 126.781 130.935 126.781Z" fill="#263238"/>
<path d="M129.925 124.497C128.502 124.833 127.117 125.313 125.791 125.931C124.367 126.655 123.255 127.837 122.162 128.972C121.502 129.66 120.859 130.358 120.233 131.065C120.21 131.093 120.233 131.144 120.275 131.111C121.387 129.939 122.531 128.776 123.713 127.692C124.8 126.659 126.081 125.851 127.482 125.315C128.286 125.011 129.108 124.768 129.93 124.525L129.925 124.497Z" fill="#263238"/>
<path d="M128.45 122.521C127.09 122.802 125.899 123.04 124.713 123.768C123.36 124.666 122.125 125.73 121.037 126.935C120.439 127.571 119.864 128.229 119.299 128.893C119.276 128.921 119.299 128.963 119.346 128.935C120.639 127.475 122.026 126.102 123.498 124.824C124.194 124.203 124.982 123.694 125.834 123.315C126.691 122.979 127.576 122.717 128.478 122.531C128.478 122.531 128.454 122.521 128.45 122.521Z" fill="#263238"/>
<path d="M135.568 120.91L138.838 133.284C138.838 133.284 152.347 130.546 156.084 127.865C159.82 125.184 162.6 113.362 163.557 108.247C164.515 103.132 161.054 104.72 158.938 107.359C156.822 109.998 149.88 119.037 149.647 119.242C149.413 119.448 135.568 120.91 135.568 120.91Z" fill="#DBDBDB"/>
<path d="M141.968 132.134C141.795 131.2 141.501 130.289 141.235 129.379C140.968 128.468 140.716 127.585 140.45 126.693C139.908 124.89 139.404 123.059 138.745 121.293C138.745 121.284 138.742 121.276 138.736 121.27C138.729 121.264 138.721 121.26 138.712 121.26C138.704 121.26 138.695 121.264 138.689 121.27C138.683 121.276 138.68 121.284 138.68 121.293C139.044 123.161 139.614 124.988 140.137 126.809C140.408 127.725 140.688 128.636 140.978 129.542C141.242 130.425 141.554 131.294 141.912 132.144C141.917 132.205 141.973 132.176 141.968 132.134Z" fill="#263238"/>
<path d="M163.556 108.237C162.575 113.376 159.777 125.184 156.082 127.856C154.214 129.196 149.93 130.551 146.086 131.569L161.907 104.991C163.182 104.552 164.116 105.262 163.556 108.237Z" fill="#C7C7C7"/>
<path d="M178.752 136.932L164.631 134.867L154.411 133.372L151.347 132.905L153.682 124.567L154.644 121.106C154.644 121.106 152.958 118.196 153.776 115.688C154.71 112.848 162.305 105.126 162.893 104.753C165.229 103.263 167.807 103.165 170.026 106.233C171.174 107.988 172.091 109.883 172.754 111.871C173.221 113.091 173.637 114.412 174.048 115.781C176.846 125.161 178.752 136.932 178.752 136.932Z" fill="#DBDBDB"/>
<path d="M164.827 123.979C163.958 123.609 163.069 123.288 162.165 123.017C161.698 122.886 161.254 122.778 160.791 122.685C160.567 122.638 160.348 122.596 160.123 122.559C159.899 122.521 159.628 122.507 159.385 122.461C159.362 122.461 159.348 122.498 159.385 122.503C159.61 122.549 159.852 122.638 160.058 122.704L160.74 122.89C161.207 123.021 161.641 123.152 162.099 123.273C163.01 123.521 163.912 123.773 164.813 124.054C164.855 124.058 164.869 123.979 164.827 123.979Z" fill="#263238"/>
<path d="M154.625 121.125C153.904 120.075 153.479 118.85 153.396 117.58C153.355 116.937 153.424 116.292 153.602 115.674C153.804 115.066 154.075 114.483 154.41 113.936C155.093 112.876 155.862 111.873 156.708 110.937C157.546 110.002 158.438 109.118 159.38 108.289C158.539 109.223 157.708 110.157 156.914 111.091C156.107 112.038 155.371 113.042 154.709 114.095C154.38 114.613 154.11 115.166 153.906 115.744C153.736 116.329 153.654 116.937 153.663 117.547C153.699 118.798 154.029 120.024 154.625 121.125Z" fill="#263238"/>
<path d="M158.67 108.513C158.44 109.026 158.139 109.506 157.778 109.938C157.894 109.681 158.027 109.433 158.175 109.195C158.322 108.955 158.488 108.727 158.67 108.513Z" fill="#263238"/>
<path d="M167.761 105.238C167.593 105.706 164.926 108.574 162.73 108.214C162.016 108.097 162.487 104.164 162.487 104.164L162.455 103.87L162.016 99.694L167.154 97.1809L167.892 96.8586C167.892 96.8586 167.938 98.0077 167.981 99.4371C167.981 99.5071 167.981 99.5725 167.981 99.6426C167.981 99.7126 167.981 99.8014 167.981 99.8761C167.981 100.091 167.981 100.311 168.004 100.525C168.027 100.74 168.004 100.852 168.004 101.025C168.004 101.198 168.004 101.371 168.004 101.548C168.007 102.782 167.926 104.015 167.761 105.238Z" fill="#F7A9A0"/>
<path d="M167.99 99.4371C167.45 100.537 166.676 101.506 165.722 102.276C164.768 103.046 163.658 103.598 162.468 103.893L162.029 99.7174L167.167 97.2044L167.905 96.8821C167.905 96.8821 167.947 98.0078 167.99 99.4371Z" fill="#263238"/>
<path d="M162.496 104.178L163.089 107.63L167.91 104.454L168.751 105.986C168.751 105.986 163.51 111.554 163.556 111.26L162.837 108.237L160.534 109.737L161.688 104.982L162.496 104.178Z" fill="white"/>
<path d="M160.978 107.354C161.198 106.574 161.399 105.785 161.655 105.019C161.655 104.991 161.712 104.986 161.712 105.019C161.712 105.813 160.843 108.788 160.693 109.512C160.787 109.447 162.805 108.214 162.819 108.242C163.01 108.737 163.543 110.942 163.571 111.138C164.397 110.25 167.854 106.808 168.784 106C168.812 105.976 168.849 106 168.826 106.037C168.064 106.99 163.557 111.554 163.557 111.53C163.25 110.479 162.999 109.413 162.805 108.335C162.038 108.926 161.231 109.463 160.39 109.942C160.539 109.07 160.736 108.206 160.978 107.354Z" fill="#263238"/>
<path d="M158.105 91.2815C154.835 97.8863 158.441 100.581 159.866 101.282C161.159 101.917 165.644 103.917 169.567 97.6855C173.491 91.4543 171.436 87.8482 168.563 86.2367C165.69 84.6252 161.36 84.6533 158.105 91.2815Z" fill="#F7A9A0"/>
<path d="M159.6 90.5807C159.764 90.6321 159.927 90.6555 160.096 90.6929C160.267 90.7509 160.452 90.7509 160.623 90.6929C160.675 90.6664 160.716 90.6236 160.74 90.5711C160.765 90.5187 160.771 90.4597 160.759 90.4032C160.716 90.2951 160.646 90.2001 160.555 90.1279C160.464 90.0557 160.355 90.0089 160.24 89.9922C160.014 89.924 159.77 89.944 159.558 90.0482C159.503 90.0707 159.457 90.1101 159.425 90.1607C159.394 90.2113 159.38 90.2706 159.385 90.3299C159.389 90.3892 159.413 90.4454 159.452 90.4905C159.49 90.5356 159.542 90.5672 159.6 90.5807Z" fill="#263238"/>
<path d="M164.187 92.6828C164.046 92.5895 163.91 92.4881 163.781 92.3792C163.622 92.2577 163.486 92.1783 163.421 91.9868C163.41 91.9304 163.417 91.8719 163.442 91.8199C163.466 91.7678 163.506 91.7249 163.557 91.6972C163.666 91.6597 163.784 91.6525 163.897 91.6764C164.011 91.7002 164.116 91.7542 164.201 91.8327C164.401 91.9603 164.544 92.159 164.603 92.3885C164.613 92.4412 164.607 92.4956 164.587 92.5453C164.567 92.595 164.533 92.6379 164.489 92.6689C164.446 92.6999 164.394 92.7176 164.34 92.7201C164.287 92.7226 164.234 92.7096 164.187 92.6828Z" fill="#263238"/>
<path d="M162.366 93.8411C162.366 93.8411 162.389 93.8831 162.366 93.9018C162.128 94.3409 161.931 94.8874 162.268 95.2377C162.268 95.2377 162.268 95.2704 162.268 95.2611C161.801 94.9481 162.072 94.2241 162.366 93.8411Z" fill="#263238"/>
<path d="M162.995 93.5701C163.747 93.8737 163.089 95.3545 162.393 95.0742C161.697 94.7939 162.369 93.3179 162.995 93.5701Z" fill="#263238"/>
<path d="M163.253 93.7804C163.346 93.9206 163.407 94.1261 163.552 94.2102C163.697 94.2942 163.93 94.2102 164.117 94.1167C164.117 94.1167 164.14 94.1167 164.117 94.1448C163.996 94.4297 163.757 94.6726 163.435 94.5792C163.113 94.4857 163.057 94.1541 163.113 93.8411C163.136 93.7804 163.216 93.7244 163.253 93.7804Z" fill="#263238"/>
<path d="M159.861 92.6079C159.861 92.6079 159.814 92.6079 159.81 92.6359C159.623 93.103 159.342 93.6028 158.847 93.5701C158.847 93.5701 158.824 93.5935 158.847 93.5935C159.38 93.7523 159.758 93.0797 159.861 92.6079Z" fill="#263238"/>
<path d="M159.661 91.9494C158.946 91.571 158.26 93.0284 158.904 93.3787C159.549 93.7291 160.287 92.267 159.661 91.9494Z" fill="#263238"/>
<path d="M159.311 91.8979C159.161 91.9213 158.979 92.0053 158.843 91.9493C158.708 91.8932 158.638 91.6643 158.61 91.4822C158.61 91.4822 158.61 91.4822 158.582 91.4822C158.494 91.5977 158.451 91.7407 158.459 91.8855C158.468 92.0303 158.528 92.1673 158.629 92.2716C158.853 92.4397 159.147 92.2716 159.348 92.0427C159.376 91.9867 159.353 91.8886 159.311 91.8979Z" fill="#263238"/>
<path d="M159.591 95.1024C159.591 95.1024 159.185 95.7377 159.035 96.0366C159.035 96.0646 159.096 96.116 159.199 96.1721C159.45 96.3497 159.746 96.4545 160.054 96.4751C160.361 96.4957 160.668 96.4313 160.941 96.2889C160.949 96.2848 160.955 96.278 160.959 96.2697C160.962 96.2615 160.962 96.2523 160.959 96.2438C160.957 96.2354 160.951 96.2282 160.943 96.2236C160.936 96.219 160.927 96.2173 160.918 96.2188C160.379 96.3114 159.825 96.2261 159.339 95.9759C159.339 95.8778 160.072 94.9109 160.026 94.8829C159.765 94.7893 159.493 94.7311 159.217 94.71C160.03 93.3601 161.049 92.1503 161.838 90.791C161.845 90.7811 161.849 90.7687 161.847 90.7564C161.845 90.7441 161.839 90.7331 161.829 90.7257C161.819 90.7182 161.806 90.715 161.794 90.7168C161.782 90.7185 161.771 90.7251 161.763 90.735C160.63 91.999 159.625 93.3729 158.764 94.8362C158.666 95.0183 159.442 95.0977 159.591 95.1024Z" fill="#263238"/>
<path d="M169.189 97.307C167.835 97.0875 168.376 94.0046 168.376 94.0046C168.376 94.0046 163.098 91.4355 163.958 86.7738C162.716 88.4085 160.893 89.5024 158.866 89.8287C158.866 89.8287 160.515 84.9288 164.728 85.1156C164.728 85.1156 170.128 84.7699 171.735 89.4457C173.342 94.1214 170.095 97.4518 169.189 97.307Z" fill="#263238"/>
<path d="M164.024 86.4329C163.754 87.1124 163.633 87.8419 163.669 88.5722C163.69 89.3103 163.865 90.0359 164.183 90.7022C164.261 90.8631 164.348 91.019 164.445 91.1693L164.585 91.4075C164.636 91.4869 164.692 91.557 164.748 91.6317C164.865 91.7765 164.973 91.926 165.094 92.0615C165.215 92.1969 165.351 92.323 165.482 92.4492C165.612 92.5753 165.612 92.5799 165.683 92.636L165.897 92.8042L166.332 93.1358C166.64 93.3273 166.958 93.5048 167.266 93.673C166.99 93.4394 166.696 93.2386 166.425 93.005L166.028 92.65L165.832 92.4678C165.771 92.4071 165.715 92.3371 165.659 92.2717C165.603 92.2063 165.426 92.0054 165.304 91.8746C165.183 91.7438 165.103 91.5897 165.001 91.4496L164.846 91.2394L164.716 91.0105C164.626 90.8593 164.545 90.7033 164.473 90.5434C164.172 89.9093 163.982 89.2284 163.912 88.5302C163.876 88.1779 163.869 87.8233 163.889 87.4698C163.905 87.121 163.951 86.7742 164.024 86.4329Z" fill="#263238"/>
<path d="M168.228 99.764C168.111 99.7653 167.995 99.7511 167.882 99.7219C167.767 99.7009 167.657 99.6615 167.555 99.6052C167.42 99.5389 167.302 99.4431 167.209 99.3249C167.133 99.2338 167.072 99.1314 167.027 99.0213C166.962 98.8736 166.924 98.7153 166.915 98.5542L168.008 96.8679C168.008 96.8679 170.344 95.3125 171.105 96.2233C171.866 97.1342 169.526 99.7873 168.228 99.764Z" fill="#F7A9A0"/>
<path d="M170.409 96.952V96.9847C169.475 96.9847 168.774 97.5779 168.176 98.2319C168.254 98.1695 168.344 98.1247 168.44 98.1006C168.537 98.0766 168.638 98.0737 168.735 98.0924C168.833 98.1111 168.926 98.1507 169.006 98.2087C169.087 98.2667 169.155 98.3415 169.204 98.428C169.204 98.428 169.204 98.4748 169.166 98.4654C169.044 98.3652 168.893 98.3056 168.735 98.2947C168.577 98.2838 168.419 98.3222 168.284 98.4047C168.058 98.5454 167.848 98.7099 167.658 98.8951C167.592 98.9512 167.48 98.8624 167.541 98.7924C167.924 97.7461 169.274 96.6297 170.409 96.952Z" fill="#263238"/>
<path d="M168.227 99.4418C168.178 99.5158 168.101 99.5679 168.014 99.587C167.927 99.6061 167.836 99.5909 167.76 99.5446C167.703 99.5086 167.658 99.4563 167.63 99.3945C167.603 99.3327 167.594 99.2641 167.606 99.1974C167.617 99.1307 167.648 99.069 167.695 99.0201C167.742 98.9712 167.802 98.9373 167.868 98.9228C167.934 98.9082 168.003 98.9137 168.066 98.9384C168.129 98.9632 168.184 99.0061 168.222 99.0618C168.261 99.1175 168.282 99.1833 168.283 99.251C168.283 99.3186 168.264 99.3851 168.227 99.4418Z" fill="white"/>
<path d="M169.078 99.2223C169.053 99.2618 169.016 99.2928 168.973 99.3116C168.93 99.3303 168.882 99.336 168.836 99.3278C168.79 99.3196 168.747 99.2979 168.713 99.2655C168.679 99.2331 168.656 99.1914 168.645 99.1456C168.635 99.0998 168.639 99.052 168.655 99.0081C168.672 98.9643 168.701 98.9264 168.74 98.8992C168.778 98.8719 168.823 98.8566 168.87 98.8551C168.917 98.8536 168.963 98.866 169.003 98.8907C169.057 98.9252 169.094 98.9793 169.108 99.0413C169.122 99.1033 169.111 99.1683 169.078 99.2223Z" fill="white"/>
<path d="M159.479 118.518C159.479 118.518 163.472 111.278 165.743 107.565C168.013 103.851 170.18 104.505 170.348 108.849C170.516 113.193 171.796 118.771 167.737 125.889C157.218 144.33 159.479 118.518 159.479 118.518Z" fill="#DBDBDB"/>
<path d="M168.12 93.9906L157.952 101.156C157.878 101.182 157.814 101.227 157.764 101.287C157.715 101.346 157.682 101.418 157.67 101.495C157.658 101.571 157.667 101.65 157.696 101.722C157.725 101.794 157.773 101.856 157.835 101.903L161.147 106.327C161.3 106.439 161.483 106.506 161.673 106.519C161.863 106.533 162.053 106.492 162.221 106.402L172.39 99.2221C172.462 99.1958 172.526 99.1507 172.574 99.0915C172.623 99.0322 172.655 98.961 172.667 98.8852C172.679 98.8094 172.67 98.7318 172.642 98.6605C172.614 98.5891 172.567 98.5266 172.507 98.4795L169.195 94.084C169.043 93.9684 168.861 93.8983 168.671 93.8817C168.481 93.8652 168.29 93.9029 168.12 93.9906Z" fill="#A6A6A6"/>
<path d="M168.419 94.3504L158.25 101.516C158.178 101.543 158.115 101.588 158.066 101.648C158.018 101.708 157.986 101.779 157.974 101.855C157.962 101.931 157.971 102.009 157.999 102.081C158.027 102.152 158.073 102.215 158.134 102.263L161.45 106.687C161.603 106.799 161.785 106.866 161.974 106.879C162.163 106.893 162.353 106.852 162.52 106.761L172.689 99.5959C172.761 99.5702 172.825 99.5254 172.874 99.4664C172.924 99.4074 172.956 99.3363 172.969 99.2604C172.981 99.1846 172.973 99.1068 172.945 99.0352C172.917 98.9636 172.87 98.9007 172.81 98.8532L169.494 94.4298C169.34 94.3164 169.158 94.2487 168.968 94.2347C168.778 94.2206 168.588 94.2607 168.419 94.3504Z" fill="#DBDBDB"/>
<path d="M169.353 95.8824C169.283 95.9596 169.191 96.0142 169.09 96.0395C168.989 96.0647 168.883 96.0594 168.784 96.0242C168.686 95.9891 168.601 95.9256 168.539 95.8419C168.476 95.7581 168.44 95.6579 168.435 95.5537C168.43 95.4495 168.456 95.3462 168.509 95.2567C168.563 95.1671 168.642 95.0955 168.736 95.0507C168.83 95.0059 168.935 94.99 169.038 95.005C169.142 95.02 169.238 95.0653 169.316 95.1351C169.419 95.2297 169.481 95.3612 169.488 95.5011C169.495 95.641 169.446 95.778 169.353 95.8824Z" fill="#263238"/>
<path d="M156.853 129.476C156.886 133.344 162.09 133.895 163.86 132.12C168.008 127.963 171.418 119.214 172.936 114.127C173.426 112.493 162.58 108.644 161.791 110.288C160.833 112.264 156.788 121.9 156.853 129.476Z" fill="#F7A9A0"/>
<path d="M170.423 116.921C172.269 115.326 173.751 113.352 174.767 111.133C175.832 108.686 177.57 103.109 172.899 96.6532C171.787 95.1211 169.125 93.7291 170.026 96.8821C170.671 99.1242 171.75 100.353 171.894 101.721C171.894 101.721 168.298 100.353 166.812 101.52C165.51 102.544 164.282 103.659 163.136 104.856C163.31 105.114 163.498 105.362 163.701 105.598C162.655 106.951 162.008 108.568 161.833 110.269L170.423 116.921Z" fill="#F7A9A0"/>
<path d="M175.393 108.634C174.967 107.303 174.029 104.491 172.459 102.464C170.712 100.208 166.746 96.3354 165.098 97.6387C163.883 98.5729 165.27 100.208 165.27 100.208C165.27 100.208 163.295 98.9512 162.388 100.054C161.562 101.058 162.711 102.244 162.711 102.244C162.711 102.244 161.379 101.688 160.772 102.809C160.039 104.155 162.949 105.098 163.388 107.107C163.486 107.555 175.393 108.634 175.393 108.634Z" fill="#F7A9A0"/>
<path d="M170.381 104.701C169.193 102.721 167.43 101.15 165.326 100.199C165.275 100.175 165.228 100.199 165.275 100.236C167.146 101.519 168.855 103.024 170.362 104.72C170.362 104.72 170.39 104.715 170.381 104.701Z" fill="#263238"/>
<path d="M168.055 106.397C167.429 105.425 165.197 103.099 162.74 102.193C162.688 102.193 162.641 102.193 162.688 102.23C164.623 103.416 166.417 104.817 168.037 106.406C168.037 106.406 168.065 106.411 168.055 106.397Z" fill="#263238"/>
<path d="M156.321 130.126C156.532 134.017 161.927 134.643 163.795 132.882C168.144 128.748 171.647 119.98 173.198 114.879L160.754 111.04C159.759 113.016 155.92 122.741 156.321 130.126Z" fill="#DBDBDB"/>
<path d="M161.357 111.227L160.74 111.049C160.016 112.988 159.367 114.963 158.769 116.944C158.171 118.925 157.624 120.933 157.19 122.956C156.756 124.978 156.359 127.029 156.415 129.079C156.405 130.093 156.661 131.091 157.157 131.975C157.422 132.392 157.78 132.741 158.204 132.994C158.639 133.239 159.113 133.406 159.605 133.489C160.596 133.696 161.625 133.615 162.571 133.255C163.507 132.858 164.347 132.263 165.033 131.513C166.392 129.968 167.526 128.238 168.401 126.375C169.335 124.506 170.119 122.605 170.942 120.7C171.764 118.794 172.572 116.883 173.179 114.898L172.787 114.763L173.184 114.889C172.922 115.898 172.567 116.874 172.212 117.85C171.857 118.826 171.483 119.793 171.1 120.756C170.306 122.675 169.536 124.605 168.639 126.482C168.193 127.425 167.694 128.342 167.144 129.229C166.607 130.125 165.981 130.966 165.276 131.737C164.563 132.529 163.686 133.155 162.707 133.573C161.702 133.96 160.608 134.05 159.554 133.834C159.021 133.746 158.508 133.563 158.04 133.293C157.569 133.012 157.172 132.623 156.882 132.158C156.361 131.221 156.094 130.165 156.106 129.093C156.091 128.046 156.168 126.998 156.335 125.964C156.489 124.931 156.704 123.918 156.933 122.9C157.9 118.852 159.177 114.886 160.754 111.035L161.357 111.227Z" fill="#263238"/>
<path d="M165.617 116.295C164.683 116.029 160.988 115.029 160.044 114.894C160.016 114.894 160.007 114.945 160.044 114.954C160.918 115.347 164.608 116.458 165.533 116.725C167.376 117.288 169.247 117.756 171.138 118.126C171.18 118.126 171.203 118.061 171.166 118.047C169.348 117.366 167.496 116.782 165.617 116.295Z" fill="#263238"/>
</svg>
