<svg width="63" height="62" viewBox="0 0 63 62" fill="none" xmlns="http://www.w3.org/2000/svg">
<circle cx="31.0664" cy="31" r="31" fill="#0079FC"/>
<path d="M41.5391 26.7011L35.401 23.5154C34.9646 23.2938 34.441 23.2938 34.0046 23.5154L27.8664 26.7011C27.751 26.7605 27.6545 26.8485 27.5873 26.9557C27.5201 27.063 27.4846 27.1856 27.4846 27.3106C27.4846 27.4355 27.5201 27.5581 27.5873 27.6654C27.6545 27.7727 27.751 27.8607 27.8664 27.92L34.0046 31.1057C34.441 31.3274 34.9646 31.3274 35.401 31.1057L41.5391 27.92C42.0337 27.6569 42.0337 26.9643 41.5391 26.7011ZM44.1573 19H17.9755C16.3755 19 15.0664 20.2466 15.0664 21.7702V24.5404C15.0664 25.3022 15.721 25.9255 16.521 25.9255C17.321 25.9255 17.9755 25.3022 17.9755 24.5404V23.1553C17.9755 22.3935 18.63 21.7702 19.43 21.7702H42.7028C43.5028 21.7702 44.1573 22.3935 44.1573 23.1553V39.7765C44.1573 40.5383 43.5028 41.1616 42.7028 41.1616H35.43C34.63 41.1616 33.9755 41.7848 33.9755 42.5466C33.9755 43.3085 34.63 43.9317 35.43 43.9317H44.1573C45.7573 43.9317 47.0664 42.6852 47.0664 41.1616V21.7702C47.0664 20.2466 45.7573 19 44.1573 19ZM34.0046 32.4908L29.6119 30.2054V32.1584C29.6119 32.6709 29.9028 33.128 30.3682 33.3773L34.0046 35.261C34.441 35.4827 34.9646 35.4827 35.401 35.261L39.0373 33.3773C39.5028 33.128 39.7937 32.6571 39.7937 32.1584V30.2054L35.401 32.4908C34.9646 32.7125 34.441 32.7125 34.0046 32.4908ZM15.0664 39.7765V43.9317H19.43C19.43 41.6325 17.481 39.7765 15.0664 39.7765ZM16.7246 34.3607C15.8519 34.2222 15.0664 34.9009 15.0664 35.7458C15.0664 36.4245 15.59 36.9924 16.3028 37.1032C19.3282 37.6019 21.7137 39.8734 22.2373 42.7544C22.3537 43.4331 22.95 43.9317 23.6628 43.9317C24.55 43.9317 25.2482 43.1838 25.1173 42.3527C24.7721 40.352 23.7766 38.5048 22.2711 37.0711C20.7655 35.6374 18.8256 34.6895 16.7246 34.3607ZM16.6664 28.7649C15.8082 28.6957 15.0664 29.3328 15.0664 30.15C15.0664 30.8564 15.6191 31.452 16.3464 31.5213C22.5573 32.0892 27.5028 36.7985 28.0991 42.7129C28.1719 43.4054 28.7973 43.9179 29.5391 43.9179C30.4119 43.9179 31.081 43.1976 30.9937 42.3804C30.2228 35.1918 24.2155 29.4852 16.6664 28.7649Z" fill="white"/>
</svg>
