<svg width="32" height="25" viewBox="0 0 32 25" fill="none" xmlns="http://www.w3.org/2000/svg">
<path d="M26.4727 7.70114L20.3345 4.51542C19.8982 4.2938 19.3745 4.2938 18.9382 4.51542L12.8 7.70114C12.6845 7.76048 12.5881 7.84846 12.5209 7.95575C12.4537 8.06304 12.4182 8.18565 12.4182 8.31058C12.4182 8.43552 12.4537 8.55812 12.5209 8.66542C12.5881 8.77271 12.6845 8.86068 12.8 8.92002L18.9382 12.1057C19.3745 12.3274 19.8982 12.3274 20.3345 12.1057L26.4727 8.92002C26.9673 8.65685 26.9673 7.96431 26.4727 7.70114ZM29.0909 0H2.90909C1.30909 0 0 1.24659 0 2.77019V5.54039C0 6.30219 0.654545 6.92548 1.45455 6.92548C2.25455 6.92548 2.90909 6.30219 2.90909 5.54039V4.15529C2.90909 3.39349 3.56364 2.77019 4.36364 2.77019H27.6364C28.4364 2.77019 29.0909 3.39349 29.0909 4.15529V20.7765C29.0909 21.5383 28.4364 22.1616 27.6364 22.1616H20.3636C19.5636 22.1616 18.9091 22.7848 18.9091 23.5466C18.9091 24.3085 19.5636 24.9317 20.3636 24.9317H29.0909C30.6909 24.9317 32 23.6852 32 22.1616V2.77019C32 1.24659 30.6909 0 29.0909 0ZM18.9382 13.4908L14.5455 11.2054V13.1584C14.5455 13.6709 14.8364 14.128 15.3018 14.3773L18.9382 16.261C19.3745 16.4827 19.8982 16.4827 20.3345 16.261L23.9709 14.3773C24.4364 14.128 24.7273 13.6571 24.7273 13.1584V11.2054L20.3345 13.4908C19.8982 13.7125 19.3745 13.7125 18.9382 13.4908ZM0 20.7765V24.9317H4.36364C4.36364 22.6325 2.41455 20.7765 0 20.7765ZM1.65818 15.3607C0.785455 15.2222 0 15.9009 0 16.7458C0 17.4245 0.523636 17.9924 1.23636 18.1032C4.26182 18.6019 6.64727 20.8734 7.17091 23.7544C7.28727 24.4331 7.88364 24.9317 8.59636 24.9317C9.48364 24.9317 10.1818 24.1838 10.0509 23.3527C9.7057 21.352 8.71023 19.5048 7.20466 18.0711C5.69908 16.6374 3.75922 15.6895 1.65818 15.3607ZM1.6 9.76493C0.741818 9.69568 0 10.3328 0 11.15C0 11.8564 0.552727 12.452 1.28 12.5213C7.49091 13.0892 12.4364 17.7985 13.0327 23.7129C13.1055 24.4054 13.7309 24.9179 14.4727 24.9179C15.3455 24.9179 16.0145 24.1976 15.9273 23.3804C15.1564 16.1918 9.14909 10.4852 1.6 9.76493Z" fill="white"/>
</svg>
