<svg width="37" height="37" viewBox="0 0 37 37" fill="none" xmlns="http://www.w3.org/2000/svg">
<path d="M34.6875 34.6875H32.375C32.375 32.7751 30.8187 31.2188 28.9062 31.2188H24.2812C22.3688 31.2188 20.8125 32.7751 20.8125 34.6875H18.5C18.5 31.4997 21.0935 28.9062 24.2812 28.9062H28.9062C32.094 28.9062 34.6875 31.4997 34.6875 34.6875ZM17.3438 18.5C17.0371 18.5 16.743 18.6218 16.5262 18.8387C16.3093 19.0555 16.1875 19.3496 16.1875 19.6562V26.5938H18.5V19.6562C18.5 19.3496 18.3782 19.0555 18.1613 18.8387C17.9445 18.6218 17.6504 18.5 17.3438 18.5Z" fill="white"/>
<path d="M37 13.875H16.1875V16.1875H20.8125V21.9688C20.8125 25.1565 23.406 27.75 26.5938 27.75C29.7815 27.75 32.375 25.1565 32.375 21.9688V16.1875H37V13.875ZM26.5938 25.4375C24.6813 25.4375 23.125 23.8812 23.125 21.9688V20.8125H30.0625V21.9688C30.0625 23.8812 28.5062 25.4375 26.5938 25.4375ZM30.0625 18.5H23.125V16.1875H30.0625V18.5Z" fill="white"/>
<path d="M29.8289 11.5625C28.7559 6.29118 24.0847 2.31252 18.5 2.31252C15.8085 2.30751 13.2 3.24376 11.126 4.95919C9.05206 6.67462 7.64319 9.06124 7.14331 11.7059C3.06984 12.4343 0 16.0129 0 20.2344C0 25.0166 3.89078 28.9063 8.67188 28.9063H13.875V26.5938H8.67188C6.98583 26.5919 5.36936 25.9213 4.17715 24.7291C2.98493 23.5369 2.31434 21.9204 2.3125 20.2344C2.31729 18.6255 2.93066 17.0779 4.02943 15.9026C5.1282 14.7272 6.63099 14.0111 8.23597 13.8981L9.20259 13.8322L9.30666 12.8691C9.54953 10.6018 10.6233 8.50481 12.321 6.98248C14.0186 5.46014 16.2198 4.62033 18.5 4.62502C22.8013 4.62502 26.4145 7.57924 27.4459 11.5625H29.8289Z" fill="white"/>
</svg>
