<svg width="63" height="62" viewBox="0 0 63 62" fill="none" xmlns="http://www.w3.org/2000/svg">
<circle cx="31.0664" cy="31" r="31" fill="#0079FC"/>
<g clip-path="url(#clip0_1121_12835)">
<path d="M46.7539 45.6875H44.4414C44.4414 43.7751 42.8851 42.2188 40.9727 42.2188H36.3477C34.4352 42.2188 32.8789 43.7751 32.8789 45.6875H30.5664C30.5664 42.4997 33.1599 39.9062 36.3477 39.9062H40.9727C44.1604 39.9062 46.7539 42.4997 46.7539 45.6875ZM29.4102 29.5C29.1035 29.5 28.8094 29.6218 28.5926 29.8387C28.3757 30.0555 28.2539 30.3496 28.2539 30.6562V37.5938H30.5664V30.6562C30.5664 30.3496 30.4446 30.0555 30.2277 29.8387C30.0109 29.6218 29.7168 29.5 29.4102 29.5Z" fill="white"/>
<path d="M49.0664 24.875H28.2539V27.1875H32.8789V32.9688C32.8789 36.1565 35.4724 38.75 38.6602 38.75C41.8479 38.75 44.4414 36.1565 44.4414 32.9688V27.1875H49.0664V24.875ZM38.6602 36.4375C36.7477 36.4375 35.1914 34.8812 35.1914 32.9688V31.8125H42.1289V32.9688C42.1289 34.8812 40.5726 36.4375 38.6602 36.4375ZM42.1289 29.5H35.1914V27.1875H42.1289V29.5Z" fill="white"/>
<path d="M41.8953 22.5625C40.8223 17.2912 36.1511 13.3125 30.5664 13.3125C27.8749 13.3075 25.2664 14.2438 23.1924 15.9592C21.1185 17.6746 19.7096 20.0612 19.2097 22.7059C15.1363 23.4343 12.0664 27.0129 12.0664 31.2344C12.0664 36.0166 15.9572 39.9063 20.7383 39.9063H25.9414V37.5938H20.7383C19.0522 37.5919 17.4358 36.9213 16.2436 35.7291C15.0513 34.5369 14.3807 32.9204 14.3789 31.2344C14.3837 29.6255 14.9971 28.0779 16.0958 26.9026C17.1946 25.7272 18.6974 25.0111 20.3024 24.8981L21.269 24.8322L21.3731 23.8691C21.6159 21.6018 22.6897 19.5048 24.3874 17.9825C26.085 16.4601 28.2862 15.6203 30.5664 15.625C34.8677 15.625 38.4809 18.5792 39.5123 22.5625H41.8953Z" fill="white"/>
</g>
<defs>
<clipPath id="clip0_1121_12835">
<rect width="37" height="37" fill="white" transform="translate(12.0664 11)"/>
</clipPath>
</defs>
</svg>
