<svg width="319" height="233" viewBox="0 0 319 233" fill="none" xmlns="http://www.w3.org/2000/svg">
<path d="M318.848 230.802L293.315 229.492C292.871 229.479 292.439 229.569 292.045 229.787C291.677 229.993 291.309 230.057 290.928 229.98C290.281 229.839 290.242 229.62 290.839 229.299C293.417 227.924 296.223 227.423 299.232 227.821C299.663 227.885 300.108 227.847 300.527 227.706C302.799 226.973 305.11 226.742 307.484 226.986C307.891 227.024 308.284 226.96 308.652 226.78C309.503 226.382 310.366 226.382 311.242 226.806C311.979 227.166 312.83 226.6 312.817 225.778C312.817 225.714 312.715 225.585 312.512 225.418C312.411 225.341 312.296 225.303 312.182 225.29L294.94 224.943C294.483 224.93 294.458 224.84 294.877 224.647C297.556 223.388 300.412 222.707 303.46 222.604C306.024 222.514 307.827 221.281 310.328 221.306C311.077 221.306 311.204 221.024 310.709 220.458C310.163 219.829 308.983 220.009 307.142 220.985C306.545 221.306 305.948 221.294 305.351 220.972C304.196 220.343 302.863 220.073 301.377 220.176C300.793 220.214 300.704 220.009 301.098 219.572C301.733 218.865 302.177 218.145 302.444 217.439C302.634 216.95 302.863 216.925 303.142 217.374C303.472 217.901 303.955 218.184 304.577 218.235C305.047 218.274 305.11 218.12 304.78 217.773C304.132 217.117 303.574 216.398 303.079 215.614C302.863 215.267 302.964 215.074 303.371 215.049L308.132 214.792C308.272 214.779 308.348 214.702 308.36 214.56L308.398 214.214C308.437 213.854 308.284 213.674 307.941 213.674H303.866C303.434 213.661 303.218 213.443 303.206 213.006C303.155 211.065 303.307 209.151 303.663 207.236C303.942 205.759 303.764 204.679 303.117 203.998C296.73 197.252 289.811 191.508 282.942 185.328C277.241 180.188 270.245 173.108 263.58 167.377C263.034 166.914 262.793 166.169 262.945 165.463C263.859 161.261 264.316 156.879 264.316 152.317C264.303 109.529 264.215 66.7398 264.075 23.9381C264.075 18.2201 263.605 14.1211 262.704 11.654C261.079 7.16949 258.184 3.96997 254.032 2.02969C251.201 0.706193 246.173 0.0508683 238.949 0.0508683C177.104 0.0637178 115.246 0.0508683 53.3889 -0.000529754C44.7172 -0.000529754 39.0672 -0.347466 33.4173 4.3169C29.3544 7.67062 27.323 11.7054 27.323 16.434C27.2595 54.1216 27.2849 91.822 27.3864 129.51C27.4245 141.408 27.0563 153.898 29.3036 165.591C29.6464 167.313 29.1894 168.893 27.9451 170.345C22.0285 177.284 14.9946 186.124 8.27819 193.886C5.54844 197.034 -0.0888135 202.957 6.20917e-05 207.249C0.0508482 210.037 0.609495 212.967 1.676 216.038C2.7806 219.186 4.34227 221.679 6.38641 223.504C9.12886 225.971 11.7189 227.693 14.1567 228.656C17.7879 230.108 17.6609 230.648 13.7758 230.288C10.6778 230.006 7.1482 230.327 3.17419 231.252C2.62824 231.368 2.22195 231.599 1.94263 231.946C1.62522 232.344 1.71409 232.511 2.22195 232.46C10.462 231.599 17.3308 231.38 22.8538 231.779C33.7855 232.563 41.7208 232.961 46.6598 232.974C120.414 233.025 194.155 232.961 267.897 232.794C273.382 232.794 278.866 232.614 284.339 232.267C285.291 232.216 286.078 231.753 286.916 231.74C297.543 231.663 308.183 231.573 318.835 231.483C318.949 231.483 319 231.432 319 231.316V230.969C319 230.866 318.949 230.815 318.848 230.802ZM294.356 214.458C293.315 215.177 291.893 214.676 291.499 213.455C291.195 212.505 291.22 211.451 291.576 210.294C291.639 210.102 291.83 209.973 292.033 209.999L292.541 210.076C292.909 210.115 293.023 210.32 292.909 210.68L292.236 212.697C292.071 213.173 292.337 213.7 292.82 213.841L293.226 213.969C293.836 214.162 294.242 213.957 294.458 213.353C294.788 212.389 294.775 211.399 294.407 210.384C294.318 210.115 294.394 209.935 294.661 209.832L294.978 209.716C295.118 209.678 295.27 209.729 295.334 209.845C296.375 211.759 296.045 213.301 294.356 214.458ZM33.4046 18.991C33.5062 5.15212 45.8599 5.93594 55.5473 5.93594C116.935 5.98734 178.323 5.98734 239.71 5.94879C245.436 5.93594 249.334 6.47562 251.391 7.54213C255.479 9.6623 257.485 13.697 257.397 19.6464C256.876 56.3445 257.968 105.288 257.65 148.141C257.638 150.493 257.435 154.181 257.054 159.218C257.028 159.642 256.889 160.027 256.635 160.374C256.025 161.184 255.784 162.032 255.911 162.893C255.975 163.381 255.797 163.522 255.352 163.317C254.324 162.841 253.258 162.88 252.166 163.445C251.937 163.548 251.67 163.432 251.607 163.201L251.429 162.546C251.378 162.34 251.48 162.134 251.683 162.07C255.01 161.119 256.063 159.333 254.832 156.699C254.667 156.352 254.781 156.185 255.149 156.211C255.429 156.211 255.644 156.095 255.784 155.8C255.86 155.658 255.886 155.466 255.86 155.221C255.657 153.358 255.568 151.521 255.594 149.696C255.606 148.655 255.289 148.553 254.667 149.362C254.095 150.094 253.994 150.981 254.362 152.022C254.845 153.384 254.21 154.9 252.889 155.491C251.835 155.967 250.82 156.455 249.842 156.956C249.385 157.187 248.953 157.162 248.534 156.879C248.128 156.609 248.154 156.404 248.611 156.237C249.271 156.005 249.931 155.787 250.604 155.581C250.998 155.466 251.277 155.209 251.429 154.81C251.797 153.872 252.458 153.255 253.41 152.986C253.867 152.857 253.943 152.613 253.651 152.24C253.435 151.971 253.118 151.855 252.686 151.881C252.267 151.919 252.039 151.714 252.013 151.277C252.013 151.007 252.153 150.75 252.47 150.519C253.575 149.709 254.172 148.912 254.273 148.129L249.372 148.655C248.738 148.72 248.204 148.167 248.293 147.537L248.877 143.297C248.941 142.899 249.157 142.757 249.537 142.873C249.994 143.014 250.452 143.053 250.909 143.002C251.328 142.95 251.607 142.719 251.721 142.295C252.001 141.293 252.496 140.534 253.219 140.02C253.689 139.686 253.638 139.494 253.067 139.442C252.508 139.391 251.988 139.211 251.505 138.903C251.112 138.658 251.074 138.363 251.391 138.029C252.623 136.718 253.575 137.271 254.235 139.674C254.349 140.085 254.324 140.522 254.146 140.907C253.156 143.13 251.823 144.865 250.16 146.111C249.817 146.355 249.753 146.664 249.969 147.036L250.337 147.679C250.553 148.064 250.82 148.09 251.112 147.769L253.715 144.916C254.019 144.582 254.21 144.646 254.286 145.096C254.464 146.098 254.464 147.113 254.286 148.129L254.591 148.463C254.895 148.797 255.111 148.745 255.251 148.308C255.619 147.113 255.67 145.906 255.378 144.698C255.276 144.299 255.073 143.965 254.756 143.721C254.349 143.387 254.337 142.912 254.73 142.282C254.756 142.243 254.794 142.218 254.845 142.205C254.933 142.192 255.048 142.192 255.162 142.205C255.251 142.218 255.314 142.166 255.34 142.076C255.797 140.149 255.606 138.35 254.756 136.667C254.565 136.294 254.578 135.934 254.781 135.575C255.416 134.469 255.34 133.39 254.54 132.336C254.324 132.041 254.349 131.771 254.616 131.527L254.997 131.18C255.2 131 255.289 130.717 255.213 130.448C255.124 130.049 254.908 129.779 254.591 129.638C254.184 129.445 254.007 129.137 254.057 128.687C254.095 128.366 254.184 128.045 254.324 127.749C254.489 127.364 254.565 126.965 254.527 126.541C254.184 121.98 254.045 117.418 254.134 112.857C254.146 111.829 253.778 110.711 253.588 109.683C253.499 109.207 253.321 109.182 253.054 109.58C252.788 109.978 252.673 110.428 252.737 110.916C252.762 111.148 252.953 111.533 253.296 112.086C253.854 112.972 253.842 113.872 253.258 114.784C252.915 115.311 252.737 115.735 252.737 116.03C252.737 116.66 252.927 117.238 253.346 117.765C253.562 118.035 253.588 118.305 253.397 118.6L253.156 118.96C252.915 119.358 252.877 119.77 253.054 120.194C253.588 121.466 253.346 122.43 252.483 123.445C252.204 123.779 252.013 124.151 251.924 124.575C251.823 124.999 251.988 125.205 252.42 125.192L253.016 125.166C253.562 125.141 253.778 125.398 253.638 125.937C253.397 126.888 252.813 127.569 251.899 127.98C251.455 128.186 251.594 128.854 252.077 128.867C252.699 128.893 253.156 129.086 253.448 129.445C253.892 129.972 253.803 130.396 253.181 130.692C252.305 131.103 251.645 131.668 251.201 132.388C250.452 133.583 248.661 133.326 248.242 131.977C248.065 131.386 248.179 130.795 248.598 130.191C248.991 129.625 249.03 128.88 248.699 128.276C248.306 127.569 248.319 126.875 248.763 126.194C249.042 125.77 249.055 125.346 248.788 124.922C248.725 124.807 248.649 124.704 248.56 124.588C248.369 124.357 248.28 124.087 248.28 123.792C248.166 92.9142 248.141 62.0497 248.179 31.1724C248.179 20.7386 247.328 16.9094 235.851 16.8837C175.237 16.7424 117.367 16.7424 62.2257 16.9094C60.8418 16.9094 59.8387 16.8066 59.2166 16.5882C58.823 16.4468 58.4294 16.4083 58.0104 16.4468C53.6428 16.9351 48.6404 16.4468 44.3363 19.2609C43.9808 19.4922 43.7396 19.8134 43.6126 20.2246C42.9651 22.3448 42.6477 25.0431 42.6604 28.3198C42.8127 65.9046 42.927 103.489 43.0032 141.074C43.0159 146.073 42.9524 150.082 45.0092 153.525C45.3139 154.026 45.187 154.386 44.641 154.592L44.222 154.759C43.7523 154.939 43.3587 154.81 43.0666 154.386C41.4542 152.086 40.8194 149.863 41.1368 147.73C41.2003 147.28 41.0733 147.216 40.7559 147.537L39.6767 148.668C39.3339 149.015 39.3212 149.388 39.6132 149.786C41.3399 152.048 40.1591 154.129 42.6858 156.224C43.3587 156.776 43.4729 157.329 43.5364 158.138C44.2474 159.487 45.5298 159.989 47.3962 159.629C47.8278 159.552 47.9421 159.706 47.7263 160.091C47.4342 160.644 47.0407 161.094 46.5582 161.441C46.1773 161.71 45.8091 161.685 45.4663 161.389C45.1997 161.158 44.9965 160.862 44.8696 160.515C44.7553 160.22 44.5648 159.989 44.2728 159.834C43.638 159.513 43.3968 158.948 43.5364 158.138C41.7081 157.483 40.4004 156.147 39.6005 154.155C39.5116 153.962 39.3847 153.898 39.1942 153.988L38.7244 154.206C38.534 154.296 38.4832 154.438 38.5721 154.63C39.4735 156.635 39.8417 159.295 42.5588 159.5C43.219 159.539 43.6507 160.246 43.3841 160.862C43.1174 161.479 42.7492 162.006 42.2541 162.443C41.8605 162.815 41.9113 162.918 42.4318 162.777C43.6634 162.456 44.7807 162.751 45.8091 163.689C46.1519 164.01 46.1011 164.229 45.6567 164.37C44.5902 164.692 43.5237 164.627 42.4699 164.19C42.0763 164.023 41.67 163.959 41.251 163.998C39.7021 164.139 38.1785 163.998 36.693 163.561C36.2867 163.445 36.0074 163.175 35.855 162.777C34.9282 160.425 34.433 158.01 34.3695 155.53C33.0872 110.03 33.0999 64.504 33.4173 18.991H33.4046ZM251.658 158.549C252.013 157.894 252.42 157.611 252.877 157.676C253.384 157.766 253.562 158.048 253.397 158.549C253.232 159.102 252.826 159.385 252.191 159.41C251.505 159.449 251.328 159.153 251.658 158.549ZM247.011 154.348C246.808 154.72 246.719 154.695 246.732 154.271C246.744 154.078 246.693 153.911 246.605 153.744C246.414 153.371 246.122 153.268 245.741 153.448C244.687 153.962 243.557 154.039 242.377 153.667C241.907 153.525 241.399 153.628 241.005 153.936C240.485 154.348 239.913 154.399 239.304 154.078C238.885 153.859 238.441 153.769 237.971 153.782L208.274 154.386C207.982 154.399 207.715 154.335 207.461 154.206C207.347 154.155 207.245 154.104 207.131 154.052C207.017 154.001 206.89 153.975 206.75 153.975C179.694 154.54 152.65 154.54 125.594 153.962C119.284 153.834 112.466 154.373 105.724 154.412C86.2856 154.502 66.7584 154.489 47.1422 154.348C47.028 154.348 46.9772 154.296 46.9772 154.193V153.859C46.9518 153.512 47.1168 153.345 47.4469 153.333C53.1985 153.114 61.0703 153.011 71.0625 153.05C74.2366 153.05 77.3599 152.587 80.4198 152.549C105.737 152.228 122.306 152.15 130.139 152.33C160.04 152.998 184.48 153.011 203.462 152.382C203.881 152.369 204.706 152.459 205.938 152.677C207.055 152.883 208.286 152.536 209.391 152.677C213.086 153.178 216.082 153.255 218.367 152.909C220.666 152.562 222.71 152.446 224.475 152.562C226.062 152.664 227.699 152.677 229.363 152.587C230.95 152.497 232.575 152.613 234.264 152.921C234.898 153.037 235.47 152.921 235.978 152.587C236.181 152.459 236.409 152.382 236.638 152.382L245.716 152.163C245.932 152.163 246.109 152.253 246.236 152.433L246.439 152.729C246.655 153.05 246.884 153.05 247.1 152.729C247.95 151.534 249.017 150.583 250.299 149.876C250.693 149.658 250.82 149.76 250.667 150.197C250.363 151.033 249.931 151.791 249.385 152.459C249.118 152.78 248.788 153.024 248.395 153.166C247.785 153.384 247.328 153.769 247.011 154.335V154.348ZM247.519 165.899C247.506 166.028 247.43 166.079 247.316 166.066C245.843 165.925 244.37 165.758 242.91 165.591C242.719 165.591 242.631 165.463 242.643 165.257H242.656C242.669 165.051 242.783 164.961 242.973 164.974C244.459 165.064 245.919 165.308 247.379 165.681C247.493 165.707 247.531 165.784 247.519 165.899ZM245.665 185.032C242.77 185.007 240.574 185.379 239.088 186.163C236.409 187.551 235.838 186.985 233.629 185.379C232.283 184.403 232.435 183.991 234.086 184.133C237.73 184.454 241.64 184.518 245.83 184.313C245.868 184.3 245.906 184.338 245.906 184.39V184.775C245.919 184.942 245.83 185.032 245.665 185.032ZM248.331 188.926C248.674 188.682 249.017 188.694 249.36 188.939C250.642 189.877 251.645 191.007 252.356 192.331C252.496 192.588 252.318 192.922 252.013 192.922L241.031 193.153C240.129 193.166 239.291 192.716 238.809 191.958L237.349 189.697C236.676 188.656 236.942 188.27 238.136 188.566C241.97 189.491 244.662 191.508 248.331 188.926ZM202.37 186.69C201.595 186.703 201.049 186.369 200.719 185.662L199.894 183.876C199.589 183.221 199.792 182.874 200.516 182.861C203.233 182.784 206.357 183.503 209.886 185.007C210.737 185.379 211.232 185.919 211.372 186.638C211.435 186.973 211.334 187.088 211.054 186.998C210.991 186.985 210.94 186.96 210.889 186.921C210.75 186.831 210.635 186.78 210.546 186.78C207.69 186.664 204.96 186.638 202.37 186.69ZM203.716 192.267C203.538 192.524 203.259 192.691 202.878 192.768C202.065 192.935 201.291 192.883 200.554 192.626C199.958 192.434 199.945 192.202 200.516 191.932L202.776 190.892C203.043 190.763 203.373 190.827 203.576 191.046C203.944 191.444 203.995 191.855 203.716 192.267ZM48.1453 187.962C50.1132 187.756 52.3351 188.103 54.8363 189.003C55.6108 189.273 56.0425 190.121 55.8139 190.917C55.4965 192.01 54.684 192.549 53.3508 192.549C50.037 192.549 46.9137 192.716 43.9554 193.038C43.511 193.089 43.2444 192.549 43.5491 192.215L46.5963 188.771C47.0153 188.296 47.5231 188.026 48.1453 187.962ZM48.2087 185.354C48.3611 184.968 48.6023 184.647 48.9451 184.403C49.3133 184.133 49.7196 184.081 50.1513 184.261L52.6906 185.341C53.135 185.521 53.1096 185.598 52.6271 185.572C51.1797 185.482 50.3418 185.328 48.615 185.816C48.1707 185.945 48.031 185.79 48.2087 185.354ZM53.8968 180.471C53.3 180.445 52.843 179.944 52.8557 179.34V179.211C52.8811 178.608 53.3889 178.132 53.973 178.158L68.7136 178.685C69.3103 178.71 69.7674 179.211 69.7547 179.815V179.944C69.7293 180.548 69.2215 181.023 68.6374 180.998L53.8968 180.471ZM99.5915 165.295C99.6931 165.308 99.7439 165.36 99.7439 165.463C99.7566 165.668 99.655 165.758 99.4646 165.771C84.7239 165.938 69.9833 165.964 55.2299 165.861C53.7825 165.861 51.5606 165.475 48.5515 164.743C48.1453 164.64 48.0818 164.422 48.3611 164.1C48.4627 163.985 48.5769 163.895 48.7039 163.843C49.0975 163.676 49.3895 163.779 49.6054 164.152C49.7577 164.422 49.9609 164.64 50.2148 164.807C50.4052 164.923 50.5957 164.974 50.7988 164.987C66.9869 165.038 83.2511 165.141 99.5915 165.295ZM52.3605 161.299C52.9826 160.04 53.7571 158.909 54.6967 157.907C55.0522 157.534 55.1664 157.586 55.0268 158.087C54.8871 158.639 54.6078 159.128 54.1888 159.526C53.9476 159.757 53.7825 160.027 53.6809 160.348C53.4905 160.901 53.1604 161.312 52.6906 161.595C52.2462 161.865 52.132 161.775 52.3605 161.299ZM56.9186 161.132C56.9439 161.004 57.0074 160.888 57.0963 160.772C57.1598 160.695 57.1979 160.605 57.1979 160.49C57.1598 159.886 57.2614 159.359 57.528 158.909C57.7819 158.46 57.9978 158.485 58.1628 158.973C58.5437 160.091 58.239 160.888 57.2487 161.389C56.9566 161.543 56.8551 161.453 56.9186 161.132ZM60.9306 160.618C61.4639 159.256 62.3146 158.267 62.9367 157.097C62.9367 157.046 62.9494 156.995 62.9494 156.943C62.9494 156.943 62.9494 156.918 62.9621 156.943H62.9748C62.9748 156.943 63.0002 156.982 63.0002 156.995C62.9748 157.033 62.9621 157.072 62.9367 157.11C62.9113 158.639 62.3654 159.899 61.2988 160.888C60.8037 161.338 60.6894 161.261 60.9306 160.631V160.618ZM59.3309 184.968C59.3309 184.39 63.6858 184.03 69.031 184.146L69.7547 184.171C70.0848 184.171 70.3388 184.454 70.3388 184.788L70.288 186.818C70.288 187.152 70.0087 187.409 69.6786 187.409L68.9548 187.384C63.6096 187.268 59.2928 186.703 59.3055 186.125L59.3309 184.968ZM59.7245 190.056C59.9403 189.504 60.3085 189.35 60.8545 189.568C63.4573 190.635 65.9585 190.673 68.3581 189.684C69.9579 189.028 71.3164 189.375 72.421 190.725C73.0685 191.521 72.548 192.716 71.5322 192.768C69.3103 192.883 66.9742 192.832 64.5365 192.639C64.1175 192.601 63.7239 192.665 63.343 192.832C62.4796 193.192 61.5782 193.295 60.6259 193.14C60.1816 193.076 59.8768 192.832 59.6991 192.421C59.3817 191.701 59.3944 190.917 59.7245 190.056ZM69.6278 171.181C69.2088 171.245 68.9548 171.476 68.866 171.887C68.7009 172.633 68.3327 173.224 67.7614 173.673C67.3043 174.033 66.7837 174.187 66.1997 174.123C63.216 173.815 59.788 174.2 55.9155 175.267C55.6997 175.331 55.5219 175.087 55.6489 174.894L57.8073 171.707C57.9216 171.54 58.0866 171.438 58.2898 171.412C66.1235 170.448 73.9446 170.191 81.7656 170.615C82.8448 170.679 83.0988 170.422 84.0383 170.165C84.3811 170.075 84.5081 170.204 84.4192 170.551L83.5685 173.776C83.4543 174.213 83.1749 174.367 82.756 174.252C82.5655 174.2 82.3751 174.072 82.21 173.879C81.9434 173.558 81.6006 173.352 81.207 173.262C79.1121 172.761 77.0171 172.684 74.8968 173.018C74.4905 173.082 74.1477 172.967 73.8684 172.645C72.7511 171.399 71.3418 170.911 69.6278 171.181ZM73.4113 178.299C73.4494 177.67 73.7795 177.297 74.4016 177.207C77.69 176.68 80.6864 176.642 83.3908 177.078C84.8382 177.31 85.7523 177.978 86.1332 179.07C86.3237 179.61 85.9428 180.188 85.3714 180.201L74.2493 180.561C73.716 180.586 73.2844 180.137 73.3224 179.597L73.4113 178.299ZM88.4567 184.775V185.007C88.4948 185.598 88.0504 186.099 87.4791 186.125L76.8775 186.703C76.2934 186.741 75.7983 186.292 75.7729 185.7V185.469C75.7348 184.878 76.1792 184.377 76.7505 184.351L87.3521 183.773C87.9361 183.734 88.4313 184.184 88.4567 184.775ZM88.2282 178.248C88.6979 177.939 89.0026 178.055 89.1423 178.608C89.2566 179.044 89.2566 179.456 89.1169 179.854C88.9138 180.484 88.0631 180.548 87.7584 179.957C87.4156 179.25 87.5679 178.685 88.2282 178.248ZM75.4047 191.329L75.8491 190.211C76.1157 189.555 76.7505 189.118 77.4615 189.118C80.7245 189.144 83.1242 188.939 84.6604 188.502C86.1713 188.078 87.2124 187.859 87.7965 187.821C88.4694 187.782 89.0534 188.27 89.1677 188.939L89.5867 191.38C89.7263 192.189 89.3835 192.613 88.5837 192.678C87.3394 192.781 86.2729 192.716 85.3714 192.472C85.0032 192.369 84.6223 192.318 84.2415 192.318L76.0268 192.267C75.3666 192.267 75.1634 191.958 75.4047 191.329ZM87.4664 172.941C86.8188 173.005 86.4253 172.71 86.2602 172.08L85.8285 170.358C85.7396 169.973 85.8793 169.78 86.2729 169.78L102.385 169.677C102.753 169.677 102.994 169.844 103.108 170.191L104.048 172.851C104.251 173.429 104.073 173.622 103.502 173.429L102.004 172.928C101.61 172.787 101.229 172.8 100.836 172.954C100.252 173.185 99.6804 173.236 99.1091 173.095C98.6901 173.005 98.525 172.748 98.6393 172.324C98.7536 171.887 98.7663 171.463 98.7028 171.039C98.6139 170.487 98.4362 170.461 98.1695 170.936C97.941 171.335 97.814 171.772 97.7759 172.247C97.7505 172.671 97.522 172.877 97.103 172.89C96.6206 172.902 96.1762 172.787 95.7572 172.543C95.4144 172.35 95.0589 172.26 94.678 172.298L87.4664 172.941ZM92.6973 177.245C92.71 176.86 93.0147 176.564 93.3956 176.577L103.502 176.86C104.594 176.886 105.457 177.67 105.432 178.608V179.019C105.394 179.957 104.492 180.689 103.401 180.663L93.2941 180.368C92.9132 180.368 92.6212 180.047 92.6339 179.661L92.6973 177.245ZM100.823 183.31C104.188 183.143 106.943 183.503 106.981 184.133C107.019 184.75 104.315 185.392 100.937 185.572C97.5728 185.739 94.8177 185.379 94.7796 184.75C94.7415 184.133 97.4458 183.49 100.823 183.31ZM95.5541 187.397L107.121 187.821C107.298 187.833 107.451 187.949 107.501 188.116L108.758 192.189C108.847 192.472 108.644 192.742 108.352 192.742L95.6429 192.459C95.4271 192.446 95.2493 192.267 95.2366 192.048L95.1224 187.833C95.1097 187.589 95.3128 187.397 95.5541 187.397ZM107.006 173.339C106.6 173.378 106.422 173.198 106.486 172.787C106.651 171.566 106.511 170.397 106.067 169.253C105.927 168.906 106.041 168.726 106.41 168.739L119.601 169.176C120.046 169.189 120.452 169.433 120.668 169.818C121.252 170.834 120.934 171.502 119.703 171.823C119.335 171.913 119.297 172.08 119.601 172.324C119.716 172.414 119.842 172.465 119.995 172.504C120.16 172.543 120.325 172.517 120.477 172.427C121.48 171.81 122.318 171.964 122.991 172.877C123.258 173.236 123.182 173.339 122.763 173.198C121.785 172.864 120.833 172.864 119.893 173.185C119.487 173.326 119.081 173.365 118.662 173.326C114.764 172.954 110.879 172.954 107.006 173.339ZM110.384 177.374L123.588 177.605C123.931 177.618 124.109 177.785 124.134 178.132L124.324 180.548C124.35 180.792 124.134 180.985 123.905 180.933C120.084 180.227 116.199 179.944 112.275 180.072C111.349 180.098 110.587 179.751 110.015 179.019C109.863 178.826 109.749 178.62 109.66 178.389C109.482 177.888 109.85 177.361 110.384 177.374ZM124.515 183.76L124.553 184.069C124.616 184.595 124.261 185.084 123.74 185.161L115.145 186.394C114.624 186.471 114.142 186.112 114.066 185.572L114.027 185.264C113.964 184.737 114.32 184.248 114.84 184.171L123.436 182.938C123.956 182.861 124.439 183.221 124.515 183.76ZM113.507 188.823C113.545 188.347 113.799 188.155 114.256 188.232C114.65 188.283 114.98 188.463 115.272 188.759C115.564 189.054 115.919 189.221 116.326 189.26C118.509 189.465 121.036 189.337 123.905 188.887C125.213 188.682 126.051 189.221 126.419 190.493L126.648 191.239C126.991 192.434 126.546 193.025 125.315 192.999L114.853 192.806C114.421 192.793 114.129 192.588 113.977 192.189C113.545 191.072 113.393 189.954 113.507 188.823ZM125.988 172.62L126.191 170.898C126.254 170.358 126.724 169.96 127.27 169.998L131.676 170.268C131.866 170.281 132.069 170.358 132.222 170.487L134.202 172.029C134.977 172.633 134.545 173.879 133.567 173.866L126.991 173.763C126.381 173.763 125.924 173.224 125.988 172.62ZM141.376 172.915C141.884 172.902 142.226 172.645 142.392 172.17C142.569 171.682 142.785 171.206 143.052 170.757C143.268 170.371 143.598 170.165 144.029 170.127C147.33 169.87 150.581 169.947 153.793 170.358C153.933 170.371 153.958 170.435 153.856 170.551L151.444 173.134C151.254 173.339 151.012 173.455 150.733 173.468C148.245 173.558 145.959 173.712 143.877 173.93C141.871 174.149 140.297 173.134 138.456 173.506C138.214 173.558 138.075 173.455 138.049 173.211L137.732 170.127C137.706 169.87 137.821 169.741 138.075 169.741L141.49 169.677C142.265 169.664 142.328 169.857 141.68 170.281C141.058 170.679 140.69 171.283 140.601 172.08C140.551 172.543 140.919 172.941 141.376 172.915ZM227.877 164.961C228.055 164.961 228.207 165.09 228.207 165.27C228.207 165.45 228.08 165.604 227.903 165.604L200.491 167.004C200.313 167.004 200.161 166.876 200.161 166.696C200.161 166.516 200.288 166.362 200.465 166.362L227.877 164.961ZM220.45 159.141C220.564 158.447 220.919 157.933 221.25 157.997C221.58 158.061 221.745 158.665 221.618 159.359C221.504 160.053 221.148 160.567 220.818 160.503C220.488 160.438 220.323 159.834 220.45 159.141ZM237.146 173.699C237.438 173.879 237.412 173.969 237.069 173.956L227.864 173.789C227.445 173.789 227.141 173.596 226.963 173.198C226.684 172.581 226.671 172.003 226.938 171.463C227.153 171.013 227.572 170.705 228.195 170.512C232.981 169.073 233.692 171.515 237.146 173.699ZM225.63 170.757C225.02 171.103 224.373 171.335 223.675 171.463C223.205 171.553 222.976 171.836 222.976 172.311V172.748C222.976 173.159 222.773 173.352 222.367 173.339C221.161 173.301 220.107 172.954 219.18 172.273C218.723 171.939 218.329 172.003 217.999 172.453C217.682 172.877 217.314 173.236 216.869 173.532C216.565 173.738 216.196 173.84 215.815 173.828L209.213 173.673C208.972 173.66 208.807 173.545 208.705 173.326L206.877 169.356C206.788 169.163 206.839 169.06 207.055 169.073C209.962 169.176 212.159 170.294 213.644 172.427C213.886 172.774 214.228 172.954 214.647 172.941C215.803 172.915 216.45 172.196 216.59 170.795C216.628 170.371 216.844 170.127 217.263 170.05C219.028 169.703 220.691 169.934 222.24 170.731C222.608 170.924 222.938 170.885 223.256 170.628C223.954 170.037 224.728 169.883 225.579 170.178C226.049 170.332 226.062 170.525 225.63 170.757ZM200.821 170.217C201.38 170.024 201.849 170.153 202.243 170.602L204.935 173.648C205.201 173.943 205.138 174.085 204.744 174.072L196.796 173.879C196.314 173.866 196.276 173.725 196.682 173.455C197.774 172.697 197.964 171.72 197.24 170.538C197.101 170.294 197.164 170.165 197.444 170.178C197.558 170.191 197.659 170.243 197.774 170.332C197.863 170.422 197.977 170.474 198.117 170.474C199.399 170.487 200.3 170.397 200.821 170.217ZM199.145 167.184L146.226 167.094C146.061 167.094 145.921 166.966 145.921 166.786C145.921 166.606 146.061 166.478 146.226 166.478L199.145 166.568C199.31 166.568 199.45 166.696 199.45 166.876C199.45 167.056 199.31 167.184 199.145 167.184ZM177.459 170.834L175.39 171.283C174.78 171.412 174.59 171.772 174.806 172.363L175.25 173.506C175.402 173.93 175.263 174.149 174.818 174.162C173.587 174.213 172.305 173.506 170.997 172.029C170.806 171.81 170.451 171.913 170.4 172.196C170.4 172.311 170.425 172.427 170.527 172.568C170.616 172.697 170.59 172.761 170.438 172.748L165.537 172.478C165.042 172.453 164.585 172.568 164.166 172.812C162.376 173.879 160.573 173.956 158.757 173.057C158.567 172.967 158.351 172.902 158.135 172.89C157.64 172.864 157.246 172.954 156.954 173.159C156.599 173.429 156.459 173.339 156.535 172.89L156.98 170.448C157.043 170.101 157.246 169.921 157.602 169.908L162.465 169.818C162.655 169.818 162.782 169.908 162.846 170.101L162.947 170.435C163.036 170.705 163.214 170.846 163.506 170.846C167.175 170.911 170.806 170.628 174.412 170.011C177.434 169.497 179.973 170.255 182.906 169.973C183.769 169.896 184.607 170.358 185.001 171.142L185.801 172.71C186.182 173.442 185.966 173.815 185.141 173.815L178.767 173.789C178.158 173.776 177.98 173.493 178.246 172.941L178.564 172.234C178.907 171.489 178.259 170.654 177.459 170.834ZM174.78 181.344C171.72 180.484 168.838 180.406 166.109 181.126C165.588 181.267 165.22 181.088 165.004 180.599L163.988 178.312C163.836 177.965 164.09 177.58 164.471 177.58L173.676 177.811C174.704 177.837 175.352 178.351 175.618 179.353L175.872 180.252C176.152 181.267 175.783 181.64 174.78 181.344ZM180.087 177.824C183.122 177.734 191.108 176.937 193.508 179.032C193.876 179.353 194.016 179.751 193.901 180.201C193.787 180.651 193.52 180.792 193.089 180.638C189.369 179.314 185.382 179.276 181.141 180.548C180.354 180.792 179.795 180.522 179.478 179.764C179.338 179.443 179.25 179.096 179.237 178.736C179.211 178.248 179.605 177.837 180.087 177.824ZM190.537 173.609C190.105 173.699 189.8 173.545 189.61 173.134C189.242 172.324 189.229 171.515 189.559 170.705C189.724 170.294 190.016 170.011 190.422 169.857C191.756 169.356 193.254 169.343 194.93 169.844C195.463 169.998 195.539 170.281 195.171 170.705C193.8 172.26 192.251 173.236 190.537 173.609ZM140.347 166.979C137.973 167.107 135.612 167.069 133.225 166.876C133.06 166.902 132.907 166.927 132.742 166.927C132.755 166.876 132.78 166.85 132.831 166.85C132.958 166.85 133.098 166.85 133.225 166.876C133.25 166.876 133.275 166.876 133.301 166.876C135.675 166.311 138.024 166.323 140.347 166.902C140.373 166.902 140.385 166.927 140.385 166.953C140.385 166.979 140.373 166.992 140.347 166.992V166.979ZM128.146 177.824L139.928 177.528C140.144 177.515 140.322 177.657 140.385 177.849L141.109 180.329C141.198 180.638 140.969 180.946 140.652 180.92L131.409 180.394C131.295 180.394 131.18 180.419 131.092 180.484L129.581 181.704C129.327 181.897 128.971 181.794 128.87 181.499L127.727 178.44C127.613 178.145 127.829 177.824 128.146 177.824ZM130.508 185.174C130.508 184.724 130.876 184.351 131.32 184.351H141.503C141.947 184.351 142.315 184.724 142.315 185.174V185.251C142.315 185.7 141.947 186.073 141.503 186.073H131.32C130.876 186.073 130.508 185.7 130.508 185.251V185.174ZM130.927 191.727C131.079 190.802 131.092 189.851 130.965 188.887C130.901 188.45 131.092 188.18 131.523 188.078C132.044 187.962 132.564 188.039 133.098 188.309C133.504 188.515 133.936 188.604 134.405 188.592L141.706 188.232C142.62 188.193 143.318 188.566 143.801 189.35L144.994 191.329C145.54 192.215 145.299 192.639 144.271 192.613L131.384 192.267C131.015 192.254 130.863 192.074 130.927 191.727ZM144.931 179.443C144.69 179.224 144.499 178.967 144.334 178.672C144.118 178.273 144.232 178.068 144.69 178.081C149.337 178.171 153.869 177.888 158.288 177.233C159.252 177.091 159.786 177.502 159.9 178.492L160.027 179.777C160.116 180.574 159.76 180.92 158.973 180.831C156.853 180.561 154.542 180.702 152.041 181.255C150.174 181.679 148.575 181.1 146.645 181.357C146.2 181.422 145.896 181.242 145.731 180.818L145.502 180.252C145.375 179.944 145.185 179.674 144.931 179.443ZM146.937 186.317L147.013 185.803C147.102 185.251 147.432 184.942 147.991 184.904C149.248 184.788 150.454 184.852 151.622 185.084C153.437 185.456 156.18 185.508 159.837 185.264C160.09 185.238 160.319 185.431 160.344 185.688L160.37 186.022C160.37 186.022 160.344 186.073 160.306 186.086C156.447 186.6 152.346 186.189 147.661 187.037C147.077 187.152 146.835 186.908 146.937 186.317ZM150.416 188.103C153.222 188.142 155.888 188.232 158.415 188.347C160.205 188.437 161.474 189.401 162.223 191.251C162.477 191.868 163.112 192.228 163.76 192.138C164.407 192.048 165.004 192.074 165.537 192.228C166.083 192.382 166.071 192.472 165.512 192.511C159.671 192.858 154.745 192.948 150.72 192.755C150.352 192.742 150.149 192.549 150.111 192.189L149.679 188.951C149.616 188.502 149.971 188.09 150.416 188.103ZM165.804 186.176L165.779 185.251C165.766 184.762 166.147 184.351 166.629 184.338L175.415 184.043C175.898 184.017 176.304 184.403 176.317 184.904L176.342 185.829C176.355 186.317 175.974 186.728 175.491 186.741L166.705 187.037C166.223 187.063 165.817 186.677 165.804 186.176ZM168.559 192.575C168.61 190.827 171.67 189.504 175.39 189.62H175.669C179.389 189.735 182.373 191.239 182.322 192.986V193.166C182.309 193.307 182.195 193.423 182.055 193.41L168.8 193.012C168.661 193.012 168.546 192.896 168.559 192.755V192.575ZM181.827 185.443C181.421 185.122 181.598 184.454 182.119 184.377L192.771 182.886C193.013 182.861 193.241 182.976 193.368 183.182L194.841 185.778C195.069 186.189 194.79 186.677 194.333 186.69L183.744 186.806C183.604 186.806 183.465 186.754 183.363 186.677L181.827 185.443ZM187.236 191.02L193.533 189.581C194.561 189.35 195.653 189.53 196.555 190.095C197.253 190.532 197.939 190.969 198.637 191.419C199.653 192.048 199.577 192.485 198.409 192.729C195.323 193.372 191.895 193.436 188.15 192.909C187.604 192.845 187.159 192.601 186.829 192.202C186.487 191.778 186.702 191.136 187.236 191.02ZM197.888 180.458C197.583 180.471 197.342 180.355 197.152 180.098L196.136 178.672C196.072 178.582 196.085 178.53 196.199 178.543C198.904 178.685 202.218 178.453 206.141 177.849C206.484 177.798 206.826 177.978 206.966 178.299L207.169 178.762C207.499 179.507 207.258 179.905 206.458 179.957L197.888 180.458ZM207.283 189.17L211.778 188.232C212.095 188.168 212.413 188.335 212.54 188.643C213.162 190.198 214.013 191.508 215.092 192.549C215.219 192.678 215.117 192.896 214.939 192.87C212.248 192.536 209.924 192.511 207.982 192.781C207.029 192.922 206.471 192.511 206.28 191.56L206.153 190.879C205.963 189.928 206.344 189.363 207.283 189.17ZM210.661 178.967C209.251 178.338 209.277 177.785 210.762 177.31C211.841 176.963 213.314 176.95 215.155 177.297C217.758 177.785 220.437 178.016 223.167 177.978C224.322 177.965 225.325 178.376 226.15 179.199L227.039 180.098C227.611 180.663 227.217 181.64 226.417 181.653C223.23 181.691 220.031 181.062 216.793 179.738C216.4 179.584 216.006 179.558 215.6 179.661C214.152 180.034 212.502 179.803 210.661 178.967ZM217.136 184.685C217.326 184.21 217.669 183.979 218.19 184.004L229.705 184.557C229.997 184.557 230.086 184.711 229.985 184.981C229.934 185.122 229.82 185.251 229.655 185.341C229.54 185.405 229.413 185.418 229.248 185.405C225.249 184.981 221.491 185.7 217.974 187.589C217.593 187.795 217.326 187.692 217.161 187.294C216.818 186.381 216.806 185.521 217.136 184.685ZM220.45 189.144C223.764 189.979 226.608 189.954 228.994 189.093C230.099 188.694 231.331 189.157 231.915 190.185L232.727 191.611C233.273 192.588 232.994 193.076 231.889 193.076H222.291C221.3 193.076 220.399 192.472 220.018 191.534L219.497 190.262C219.091 189.26 219.409 188.887 220.45 189.144ZM243.418 181.139C243.1 181.126 242.808 181.049 242.542 180.908C239.926 179.635 235.025 180.034 232.27 180.638C232.042 180.689 231.851 180.625 231.712 180.432L230.391 178.685C230.302 178.569 230.34 178.505 230.48 178.492C235.216 178.055 240.002 176.243 243.672 180.625C243.989 180.998 243.913 181.177 243.418 181.139ZM235.851 166.054C232.74 166.092 230.201 165.938 230.201 165.694C230.201 165.45 232.727 165.218 235.838 165.18C238.949 165.141 241.488 165.295 241.488 165.54C241.488 165.784 238.961 166.015 235.851 166.054ZM56.6519 35.0015L56.8297 35.2714C56.8805 35.3613 56.9439 35.3741 57.0328 35.3099C62.1876 31.8148 66.771 27.6516 70.7705 22.833C71.0371 22.5118 71.1894 22.152 71.2402 21.7408C71.2529 21.5352 71.3164 21.3425 71.4053 21.1754C71.5703 20.8414 71.8243 20.6743 72.1925 20.6872C127.689 20.957 183.198 20.9056 238.695 20.5587C240.84 20.5458 242.364 21.2397 243.265 22.6531C243.786 23.4755 244.053 24.9404 244.065 27.0605C244.154 46.3348 244.205 65.5962 244.218 84.8576C244.218 86.785 244.129 88.6996 243.964 90.6141C243.926 91.0382 243.748 91.398 243.418 91.6807C240.599 94.1349 235.762 98.2082 228.893 103.875C222.887 108.822 215.879 115.015 207.867 122.43C200.364 129.368 190.6 137.438 182.411 145.469C181.611 146.252 180.392 147.203 178.78 148.308C177.497 149.182 176.101 149.683 174.577 149.825C172.99 149.966 171.403 150.03 169.816 150.017C145.426 149.966 121.163 149.812 97.0015 149.568C96.0746 149.555 95.9857 149.272 96.7475 148.732C104.442 143.259 110.79 136.397 117.798 129.959C117.938 129.844 117.938 129.702 117.824 129.561C117.709 129.42 117.57 129.394 117.43 129.51C111.475 134.071 106.295 139.429 100.544 144.209C97.1538 147.023 93.4591 148.899 89.4597 149.838C88.7614 150.005 88.4694 149.735 88.571 149.028C88.7106 148.039 89.2058 147.486 90.0438 147.37C90.4374 147.306 90.7548 147.113 90.9706 146.779C91.8848 145.417 93.3195 145.16 94.3606 144.107C97.4458 140.946 101.839 136.705 107.54 131.373C111.018 128.122 114.624 124.113 118.344 119.358C118.395 119.294 118.42 119.217 118.42 119.127C118.408 118.999 118.408 118.883 118.408 118.793C118.408 118.703 118.37 118.69 118.306 118.755C108.923 128.379 99.1091 137.515 88.8376 146.137C87.9996 146.844 87.1109 147.486 86.184 148.077C85.8031 148.321 85.4603 148.424 85.1429 148.386C84.9398 148.36 84.7366 148.308 84.5462 148.244C84.2288 148.103 83.9748 148.193 83.7971 148.501C83.2257 149.439 82.3497 149.735 81.1689 149.413C80.7753 149.311 80.6483 148.81 80.9404 148.527L108.67 120.862C109.634 119.898 109.546 119.795 108.416 120.553C105.368 122.584 102.601 124.884 100.099 127.454C90.4627 137.361 83.5178 144.312 79.2517 148.334C78.0709 149.452 76.7378 149.825 75.2523 149.465C74.8206 149.349 74.7445 149.131 75.0365 148.784C78.2487 144.8 82.045 141.061 85.054 137.284C87.7584 133.891 90.4881 130.538 93.2687 127.222C94.9065 125.256 98.2203 122.275 103.235 118.253C105.038 116.801 107.057 115.285 109.292 113.679C113.05 110.993 116.503 107.807 119.665 104.132C119.779 104.016 119.766 103.888 119.652 103.772L119.258 103.412C119.106 103.271 118.954 103.271 118.814 103.425C114.662 107.781 110.752 111.276 107.108 113.897C100.937 118.331 95.7445 122.609 91.5166 126.734C90.5008 127.724 89.9676 129.6 89.0407 130.807C84.3303 136.962 79.1501 142.68 73.5002 147.974C71.9258 149.452 70.1229 150.082 68.0788 149.889C67.6217 149.85 67.5455 149.658 67.8376 149.311C70.6562 145.957 74.8333 143.76 77.8805 139.622C79.4676 137.451 80.9531 135.703 82.3497 134.354C84.4192 132.349 86.4506 130.306 88.4186 128.212C88.5202 128.096 88.5202 127.993 88.4186 127.878C88.317 127.762 88.2028 127.762 88.0885 127.852C84.6477 130.589 81.4863 132.979 78.5788 136.513C74.1223 141.922 69.7801 146.163 65.5522 149.259C64.7015 149.876 63.3049 150.21 61.375 150.262C60.7529 150.262 60.7148 150.12 61.2608 149.812L61.8956 149.452C62.2892 149.234 62.6193 148.938 62.8859 148.578C63.0764 148.321 63.2922 148.077 63.5207 147.846C67.9391 143.22 72.2306 138.466 76.3823 133.583C80.7118 128.494 87.2759 123.959 91.3642 120.399C94.3225 117.842 97.2554 115.272 100.163 112.664C101.826 111.186 103.87 109.631 106.27 108C109.279 105.944 112.809 103.631 115.094 100.74C115.868 99.7501 116.643 98.7736 117.417 97.7842C117.9 97.1802 118.255 97.2445 118.471 97.9898L119.868 102.667C119.919 102.834 120.008 102.988 120.122 103.117C122.331 105.545 123.728 108.257 126.026 110.775C132.336 117.688 140.258 120.515 149.768 119.243C163.658 117.393 172.343 109.516 175.821 95.6126C176.621 92.4131 176.291 89.2007 176.71 85.8213C176.761 85.3973 176.951 85.0375 177.269 84.7548C188.061 75.1048 199.005 65.6347 210.115 56.3702C212.921 54.0316 215.612 51.1919 218.355 48.6477C218.698 48.3264 218.634 48.1723 218.164 48.1851C217.847 48.1979 217.517 48.3521 217.174 48.622C203.398 59.5826 189.94 70.9416 176.786 82.7117C176.469 82.9944 175.961 82.8402 175.86 82.429C173.434 73.126 168.572 66.5856 161.246 62.8207C154.377 59.2871 147.013 58.4519 139.167 60.315C126.699 63.2833 117.265 75.5931 116.745 89.2393C116.732 89.6761 116.567 90.1002 116.287 90.4342C114.345 92.6958 112.186 94.8031 109.8 96.7434C102.728 102.487 95.7826 108.372 88.9392 114.386C83.8987 118.832 75.8491 125.385 69.6912 131.321C69.6532 131.36 69.6532 131.411 69.6912 131.45L69.9071 131.694C70.0721 131.9 70.2626 131.912 70.4784 131.745C73.9446 128.906 77.4107 126.079 80.8896 123.239C83.5431 121.067 86.9458 118.151 91.0976 114.489C96.5571 109.683 102.156 105.031 107.882 100.547C110.98 98.1183 113.862 95.4584 116.516 92.5544C116.783 92.2717 116.998 92.1047 117.176 92.0661C117.583 91.9505 117.963 92.3103 117.913 92.7343C117.113 98.9406 110.142 104.042 104.734 107.653C100.556 110.441 96.6079 113.525 92.9132 116.93C89.8533 119.744 86.8315 122.417 83.8479 124.922C79.3152 128.726 76.3188 131.488 74.8841 133.21C70.7324 138.183 66.7837 142.372 63.0383 145.764C61.2989 147.332 59.3436 148.54 57.1598 149.388C56.7281 149.555 56.4361 149.426 56.271 148.977C56.1822 148.707 56.1695 148.424 56.2329 148.129C56.2964 147.884 56.4615 147.653 56.7281 147.447C58.7468 145.957 60.8545 144.865 62.5812 143.04C65.3363 140.11 68.1423 137.194 70.999 134.302C71.0625 134.238 71.0625 134.187 70.999 134.123L70.7578 133.866C70.4784 133.57 70.1991 133.57 69.9071 133.866C67.3805 136.371 64.7777 138.838 62.1241 141.254C61.6797 141.652 60.5498 142.436 58.7468 143.593C57.5661 144.351 56.563 145.314 55.7124 146.484C55.4711 146.818 55.141 147.036 54.7474 147.139C53.719 147.396 53.0207 148.026 52.6652 149.041C52.5256 149.439 52.2462 149.67 51.8272 149.722C48.9705 150.082 47.4469 148.707 47.2819 145.597C47.1168 142.552 46.9899 139.507 46.8883 136.461C46.8756 136.166 46.9518 134.958 47.1041 132.85C47.1676 132.041 47.1295 131.219 47.0153 130.396C46.8629 129.355 46.7994 128.559 46.8121 128.006C47.0026 119.615 47.066 111.238 47.0153 102.873C47.0153 102.449 47.1676 102.089 47.485 101.806C47.9802 101.369 48.4627 100.907 48.9578 100.431C61.3369 88.237 74.2747 76.711 87.7965 65.8275C89.447 64.504 91.1103 62.8849 92.7862 60.9447C93.0782 60.5977 93.0401 60.572 92.6973 60.8547C78.0963 72.2779 64.2698 84.0738 51.2305 96.2422C49.7323 97.6428 48.3611 99.0563 47.1041 100.495C46.8756 100.752 46.4693 100.611 46.4439 100.277C46.2281 97.6428 46.6852 95.5098 48.5642 93.4539C50.2783 91.5779 51.5352 90.2929 52.3097 89.6119C59.3817 83.4184 66.5044 77.2764 73.6779 71.1986C78.5661 67.0482 84.9525 61.4072 92.8116 54.3015C100.391 47.4527 108.162 40.8095 116.097 34.3847C116.211 34.2948 116.224 34.2048 116.135 34.0892C116.046 33.9736 115.957 33.9607 115.843 34.0506C112.834 36.3893 109.596 38.4066 106.638 40.848C87.3267 56.7943 68.574 73.0103 50.3671 89.4962C49.3641 90.4086 48.3357 91.3851 47.3073 92.4516C47.0026 92.76 46.8502 92.6958 46.8502 92.2717C46.7106 74.1539 46.6598 56.049 46.7105 37.9697C46.7105 35.4512 46.6979 34.0635 48.5262 32.1489C52.0812 28.4611 56.525 25.3644 60.4482 22.0621C60.7148 21.8436 60.9053 21.5352 60.9687 21.2011C61.0322 20.9185 61.1338 20.6743 61.2862 20.4559C61.502 20.1346 61.794 19.9804 62.1876 19.9933L69.5262 20.3788C69.9452 20.4045 70.0467 20.5972 69.8309 20.957C66.4917 26.4309 62.1368 30.9025 56.7789 34.3847C56.525 34.5518 56.4869 34.7574 56.6519 35.0144V35.0015ZM244.027 127.12C243.926 129.368 243.938 131.604 244.053 133.84C244.078 134.213 244.027 134.521 243.887 134.791C243.697 135.163 243.468 135.51 243.202 135.806C242.973 136.063 242.961 136.32 243.164 136.59C243.253 136.692 243.342 136.782 243.456 136.86C243.634 136.975 243.722 137.142 243.735 137.361C243.849 139.905 243.545 142.372 242.821 144.749C242.719 145.083 242.719 145.443 242.846 145.764C243.164 146.599 243.011 147.319 242.364 147.949C241.805 148.501 241.666 148.411 241.945 147.679C242.072 147.332 242.148 146.998 242.161 146.664C242.161 146.227 241.97 145.995 241.539 145.957C239.863 145.803 238.822 144.916 238.428 143.284C238.326 142.86 238.06 142.693 237.641 142.757C236.727 142.899 236.219 143.516 236.117 144.582C236.041 145.366 235.622 145.751 234.848 145.764C233.667 145.777 233.26 146.394 233.603 147.64C233.705 148.013 234.035 148.27 234.429 148.296L235.495 148.36C235.965 148.386 236.308 147.936 236.168 147.486C236.041 147.075 236.028 146.664 236.13 146.265C236.219 145.893 236.422 145.584 236.739 145.314C237.26 144.89 237.78 144.762 238.326 144.929C238.758 145.07 239.037 145.353 239.152 145.79C239.342 146.522 239.266 147.203 238.923 147.846C238.72 148.231 238.403 148.437 237.971 148.45L236.854 148.475C236.473 148.488 236.155 148.643 235.889 148.925C235.597 149.234 235.241 149.465 234.822 149.619C234.454 149.76 234.048 149.593 233.883 149.234C233.806 149.054 233.692 148.899 233.553 148.771C233.464 148.681 233.349 148.63 233.222 148.617C231.216 148.321 229.375 148.694 227.712 149.735C227.293 150.005 226.912 149.966 226.544 149.619L225.935 149.054C225.63 148.771 225.274 148.668 224.868 148.732C223.459 148.977 222.088 149.298 220.742 149.709C220.666 149.722 220.615 149.696 220.589 149.632L220.488 149.298C220.399 149.015 220.488 148.822 220.754 148.707C221.872 148.218 222.532 147.396 222.735 146.227C222.799 145.828 223.027 145.61 223.421 145.571C223.89 145.507 224.271 145.34 224.589 145.07C226.049 143.837 225.109 142.321 227.738 141.408C228.131 141.267 228.385 141.01 228.525 140.612C228.969 139.237 229.858 138.286 231.191 137.733C231.585 137.566 231.915 137.335 232.207 137.027C234.809 134.238 237.527 131.553 240.345 128.983C241.361 128.058 241.945 126.965 242.453 125.732C242.707 125.102 242.592 125.025 242.097 125.488L220.526 146.124C220.31 146.342 220.132 146.587 220.018 146.869C218.659 150.082 215.549 149.503 212.705 149.401C212.552 149.401 212.476 149.324 212.476 149.156C212.489 148.964 212.578 148.874 212.756 148.874C213.581 148.861 214.165 148.437 214.495 147.602C214.622 147.242 214.863 146.921 215.168 146.689C218.177 144.312 221.059 141.395 223.827 137.913C225.643 135.639 227.864 133.454 230.48 131.373C234.835 127.916 239.101 123.894 243.303 119.307C243.532 119.063 243.748 118.96 243.938 118.999C244.065 118.999 244.179 119.076 244.281 119.179C244.497 119.371 244.548 119.615 244.433 119.885C243.329 122.43 244.129 125.064 244.027 127.12ZM242.212 98.5937C237.4 102.937 232.511 107.177 227.522 111.302C223.446 114.681 218.913 118.78 213.911 123.599C208.578 128.751 203.005 133.634 197.177 138.234C195.031 139.918 192.898 141.858 190.791 144.055C188.34 146.599 186.207 148.578 184.392 149.979C183.465 150.698 182.347 150.865 181.065 150.493C180.633 150.364 180.583 150.146 180.913 149.85C186.017 145.237 191.006 139.751 195.641 135.497C200.224 131.296 204.808 127.081 209.366 122.854C214.101 118.459 219.015 114.116 224.132 109.837C229.172 105.635 234.2 101.395 239.19 97.116C240.726 95.8054 242.085 94.1606 243.57 92.6701C243.887 92.3488 244.053 92.4131 244.053 92.8757L243.964 111.469C243.964 111.867 243.811 112.176 243.494 112.42C236.219 118.022 229.198 123.92 222.443 130.114C221.478 131 219.561 133.107 216.692 136.461C213.517 140.175 209.226 143.862 203.83 147.525C203.436 147.794 203.449 148.051 203.843 148.308C204.312 148.604 204.833 148.578 205.404 148.206C206.953 147.203 208.807 145.79 210.953 143.965C216.653 139.147 220.729 132.94 226.43 128.07C231.521 123.714 236.955 119.063 242.732 114.116C243.57 113.396 244.014 113.589 244.065 114.707C244.065 114.848 244.065 115.041 244.091 115.285C244.141 116.403 243.786 117.367 243.011 118.176C239.317 122.095 235.622 125.565 231.953 128.597C228.791 131.219 226.011 133.891 223.586 136.603C220.754 139.776 218.19 142.346 215.866 144.312C213.949 145.944 212.464 147.396 211.422 148.694C211.156 149.028 210.813 149.234 210.394 149.298C208.642 149.606 206.331 149.503 203.462 148.977C202.395 148.784 200.618 148.758 198.142 148.912C197.99 148.925 196.453 148.938 193.546 148.951C191.527 148.951 189.546 149.324 187.604 150.069C187.109 150.262 186.791 150.274 186.664 150.107C186.372 149.735 186.436 149.182 186.817 148.887C189.064 147.152 191.146 145.276 193.063 143.271C195.133 141.126 197.228 139.314 199.361 137.81C201.697 136.153 203.944 134.392 206.115 132.516C210.254 128.931 214.216 125.205 218.012 121.337C221.783 117.495 225.541 114.077 229.274 111.096C233.476 107.743 237.4 104.504 241.043 101.382C241.92 100.624 242.465 99.7887 242.669 98.8764C242.808 98.2981 242.656 98.1954 242.212 98.5937ZM138.049 73.807C138.176 72.5992 138.836 71.9952 140.043 71.9824C141.096 71.9695 142.379 72.3679 143.877 73.1774C150.974 77.0065 157.602 81.5553 163.76 86.8235C164.623 87.5688 164.699 88.9052 163.925 89.7404C162.541 91.2438 161.144 92.5673 159.748 93.6852C154.783 97.6814 149.692 101.343 144.486 104.684C143.496 105.327 142.379 105.867 141.147 106.291C139.966 106.702 138.684 106.098 138.227 104.928C137.122 102.14 137.288 99.7116 137.173 96.7691C136.907 89.2264 137.199 81.581 138.049 73.807ZM58.9119 20.8028C57.1217 23.09 55.0268 25.1331 52.6271 26.932C50.748 28.3326 48.9832 29.8617 47.32 31.5193C47.2184 31.6221 47.1168 31.7634 47.028 31.9305C46.9772 32.0204 46.9264 32.1104 46.8629 32.2003C46.7867 32.316 46.7232 32.316 46.6725 32.1746C45.7202 29.2835 45.8345 26.6493 47.0153 24.285C47.9421 22.409 49.5673 21.1112 51.8907 20.3916C54.0364 19.7235 56.2202 19.4922 58.4421 19.6978C58.9754 19.7492 59.242 20.3788 58.9119 20.8028ZM46.1519 155.864C47.028 155.864 47.7263 156.172 47.7263 156.532C47.7263 156.892 47.0153 157.175 46.1519 157.175C45.2885 157.175 44.5775 156.866 44.5775 156.506C44.5775 156.147 45.2885 155.864 46.1519 155.864ZM248.712 135.51L248.534 134.701C248.42 134.174 248.636 133.943 249.157 133.981C249.525 134.007 249.88 134.045 250.236 134.084C250.629 134.123 250.921 133.968 251.086 133.596C251.404 132.863 252.064 132.568 253.042 132.709C253.867 132.838 254.222 133.84 253.676 134.469L250.896 137.669C250.617 137.99 250.21 138.17 249.791 138.183C248.293 138.209 247.861 137.733 248.484 136.744C248.725 136.371 248.801 135.96 248.712 135.51ZM249.474 142.051C249.271 142.205 248.966 142.141 248.852 141.909C248.242 140.727 248.242 139.712 248.852 138.864C249.182 138.401 249.868 138.414 250.185 138.89C250.959 140.033 250.718 141.087 249.461 142.051H249.474ZM14.0678 211.04C13.9281 213.07 13.0013 214.65 11.9983 214.586L11.5412 214.548C10.5382 214.483 9.82717 212.774 9.96683 210.757L10.043 209.742C10.0684 209.254 10.4874 208.881 10.9699 208.92L13.3314 209.087C13.8139 209.125 14.1821 209.549 14.144 210.037L14.0678 211.04ZM16.5563 210.975L16.404 214.638C16.3913 214.779 16.277 214.895 16.1373 214.882L15.147 214.843C15.0073 214.843 14.8931 214.715 14.9058 214.573L15.0581 210.898C15.1089 209.78 15.4009 208.894 15.7184 208.907H16.0739C16.3913 208.932 16.6071 209.845 16.5563 210.975ZM20.0733 210.641L19.5273 212.594C19.4257 212.954 19.4638 213.301 19.6543 213.622L19.8701 214.008C20.1113 214.432 19.9971 214.715 19.5527 214.869C19.1718 215.01 18.7909 215.049 18.3973 215.01C17.9275 214.972 17.699 214.702 17.7117 214.226L17.8514 209.344C17.8641 208.611 18.1815 208.457 18.7782 208.881L19.6797 209.523C20.0352 209.78 20.2002 210.23 20.0733 210.641ZM22.8665 214.689C22.8538 215.087 22.5237 215.396 22.1301 215.383H21.7746C21.381 215.357 21.0763 215.023 21.089 214.625L21.2667 209.331C21.2794 208.932 21.6095 208.624 22.0031 208.637H22.3586C22.7522 208.663 23.0569 208.997 23.0442 209.395L22.8665 214.689ZM27.8816 214.342C27.8435 214.83 27.4372 215.203 26.9548 215.229L26.4215 215.254C26.2057 215.267 26.0025 215.319 25.8121 215.409C25.482 215.55 25.1392 215.627 24.7837 215.614C24.3266 215.601 24.0981 215.357 24.0854 214.882V210.204C24.06 209.202 24.9995 208.457 25.9644 208.688L26.6247 208.855C27.615 209.099 28.2752 210.037 28.1863 211.065L27.8816 214.342ZM33.4427 210.282C33.0491 211.888 32.9602 213.455 33.1888 214.972C33.2776 215.524 33.0364 215.768 32.4905 215.704C31.9953 215.64 31.589 215.409 31.297 215.01C31.0557 214.676 30.8526 214.702 30.6875 215.087C30.4844 215.588 30.1162 215.858 29.5829 215.922C29.0878 215.974 28.8592 215.755 28.8846 215.254L29.1005 209.613C29.1132 209.266 29.3417 208.971 29.6591 208.855L30.2432 208.624C30.6622 208.47 30.8526 208.624 30.8145 209.074C30.6622 210.757 30.6114 212.453 30.6748 214.175C30.6748 214.214 30.6875 214.226 30.7256 214.226H31.1192C31.297 214.252 31.4493 214.111 31.4493 213.931L31.5128 209.189C31.5128 208.881 31.8048 208.65 32.1096 208.727L32.592 208.842C33.2268 208.997 33.6077 209.639 33.4427 210.282ZM36.5406 214.92C36.5026 215.55 35.9439 216.025 35.3218 215.987H35.144C34.5092 215.922 34.0394 215.37 34.0902 214.74L34.433 209.999C34.4711 209.369 35.0298 208.894 35.6519 208.932H35.8296C36.4645 208.997 36.9342 209.549 36.8834 210.179L36.5406 214.92ZM39.372 215.755C39.3593 216 39.1688 216.179 38.9276 216.179L38.2674 216.154C38.0261 216.154 37.8484 215.935 37.8484 215.704L38.1023 208.431C38.115 208.187 38.3055 208.007 38.5467 208.007L39.2069 208.033C39.4481 208.033 39.6259 208.251 39.6259 208.483L39.372 215.755ZM45.1362 214.406C44.7426 215.267 44.2601 215.743 43.6634 215.845C43.3968 215.884 42.8508 215.871 42.0382 215.794C41.67 215.755 41.3272 215.653 41.0098 215.486C40.5273 215.216 40.2988 214.805 40.3115 214.239L40.4131 209.382C40.4258 208.932 40.9082 208.663 41.2891 208.881L41.6065 209.061C41.9494 209.254 42.1525 209.626 42.1398 210.025C42.0763 211.824 42.0763 213.378 42.1144 214.676C42.1271 214.856 42.216 214.946 42.4064 214.959H42.4953C42.4953 214.959 42.5969 214.933 42.6096 214.869C42.8381 212.826 43.0413 211.014 43.219 209.434C43.4475 207.416 44.1332 207.249 45.2758 208.907C46.2281 210.282 46.1773 212.119 45.1362 214.406ZM49.5546 215.203C49.5673 215.614 49.3641 215.833 48.9578 215.845L46.4185 215.987C46.0503 216 45.9107 215.833 45.9995 215.473C46.609 213.006 47.028 210.86 47.2692 208.47C47.32 208.046 47.5485 207.879 47.9675 207.994L48.869 208.251C49.326 208.38 49.5546 208.688 49.5546 209.164V215.203ZM53.4143 215.177C53.4016 215.768 52.9318 216.218 52.3478 216.205H51.8399C51.2686 216.179 50.8115 215.704 50.8242 215.113L50.9639 208.611C50.9766 208.02 51.4464 207.57 52.0304 207.583H52.5382C53.1096 207.609 53.5667 208.084 53.554 208.675L53.4143 215.177ZM57.0963 215.049C57.0963 215.653 56.5884 216.115 56.0044 216.102H55.4204C54.8363 216.077 54.3666 215.588 54.3792 214.984L54.5062 209.176C54.5062 208.573 55.0141 208.11 55.5981 208.123H56.1822C56.7662 208.149 57.236 208.637 57.2233 209.241L57.0963 215.049ZM61.5274 212.029C61.2988 214.548 60.3974 216.514 59.5086 216.436C58.6326 216.359 58.112 214.252 58.3406 211.734C58.5691 209.215 59.4706 207.249 60.3593 207.326C61.2481 207.403 61.7559 209.511 61.5274 212.029ZM64.7396 215.691L64.7142 215.91C64.6761 216.205 64.4095 216.411 64.1175 216.372L62.4796 216.179C62.1876 216.141 61.9845 215.871 62.0099 215.576L62.0352 215.357C62.5558 210.975 63.47 207.468 64.0794 207.545L64.5745 207.609C65.184 207.673 65.2602 211.297 64.7396 215.691ZM67.2916 215.717C67.2281 216.038 67.025 216.205 66.6949 216.205H66.1362C65.6284 216.231 65.4252 215.987 65.5268 215.473C65.8315 213.995 65.8442 212.479 65.5649 210.898C65.5014 210.564 65.5141 210.204 65.5776 209.87C65.768 208.945 66.1616 208.264 66.7584 207.827C66.9361 207.699 67.1773 207.789 67.2281 208.007C67.7741 210.693 67.7995 213.263 67.2916 215.717ZM219.104 215.845L214.914 215.91C214.482 215.923 214.203 215.704 214.076 215.28C213.365 212.877 213.416 210.796 214.216 209.035C215.016 207.275 215.536 207.352 215.79 209.266C215.815 209.472 216.057 209.703 216.501 209.947C217.034 210.256 217.695 209.883 217.733 209.266C217.733 208.932 217.695 208.611 217.555 208.303C217.377 207.904 217.504 207.686 217.923 207.647C218.38 207.596 218.786 207.725 219.129 208.033C219.447 208.316 219.612 208.675 219.624 209.099L219.713 215.19C219.726 215.614 219.523 215.833 219.104 215.845ZM222.367 215.409C222.367 215.833 222.024 216.167 221.618 216.167H221.542C221.123 216.167 220.793 215.82 220.793 215.409L220.818 210.063C220.818 209.639 221.161 209.305 221.567 209.305H221.643C222.062 209.305 222.392 209.652 222.392 210.063L222.367 215.409ZM224.271 216.09H224.119C223.573 216.102 223.129 215.665 223.129 215.126L223.027 208.984C223.027 208.444 223.446 207.994 223.992 207.982H224.144C224.69 207.969 225.135 208.406 225.135 208.945L225.236 215.087C225.236 215.627 224.817 216.077 224.271 216.09ZM228.144 215.074C228.055 215.55 227.776 215.845 227.306 215.961C226.531 216.141 226.062 215.858 225.897 215.113C225.528 213.43 225.681 211.502 226.379 209.318C226.468 209.022 226.442 208.752 226.29 208.495L226.049 208.11C225.909 207.879 225.935 207.66 226.1 207.455C226.163 207.365 226.265 207.313 226.392 207.288C226.544 207.249 226.671 207.288 226.785 207.416L228.677 209.678C228.88 209.922 228.969 210.243 228.918 210.564L228.144 215.074ZM231.42 215.627V215.794C231.42 215.987 231.254 216.128 231.064 216.128L229.515 216.077C229.325 216.064 229.172 215.91 229.185 215.717V215.55C229.325 211.335 229.705 207.93 230.048 207.943L231.039 207.969C231.381 207.982 231.559 211.412 231.42 215.627ZM233.908 215.653L233.108 215.858C232.308 216.064 231.953 215.755 232.067 214.92C232.245 213.481 232.321 212.093 232.283 210.77C232.257 209.999 232.486 209.254 232.943 208.624C233.159 208.328 233.438 208.123 233.756 208.007C234.289 207.827 234.86 208.226 234.86 208.804L234.911 214.342C234.911 215.049 234.581 215.486 233.908 215.653ZM238.111 214.124C238.25 214.548 238.174 214.92 237.895 215.254C237.323 215.948 236.587 216.077 235.673 215.627C235.508 215.537 235.432 215.331 235.508 215.152C236.231 213.532 236.371 212.093 235.927 210.834C235.609 209.947 236.143 208.984 237.044 208.791C237.539 208.688 237.882 208.945 238.072 209.562C238.504 210.86 237.527 212.312 238.111 214.124ZM241.653 215.036C241.551 215.473 241.285 215.755 240.866 215.884C240.548 215.987 240.256 215.974 239.99 215.833C239.621 215.653 239.431 215.357 239.393 214.959L239.037 211.194C238.974 210.526 239.19 209.973 239.672 209.523L240.409 208.842C241.005 208.29 241.386 208.418 241.577 209.202C242.046 211.271 242.072 213.224 241.653 215.036ZM245.335 215.203C245.335 215.498 245.106 215.73 244.814 215.73L243.189 215.704C242.897 215.704 242.669 215.46 242.669 215.177L242.707 212.851C242.745 210.217 243.265 208.097 243.875 208.11H244.332C244.941 208.123 245.411 210.256 245.373 212.877L245.335 215.203ZM247.773 215.653C247.76 215.807 247.646 215.923 247.493 215.91H247.049C246.186 215.871 245.525 214.368 245.602 212.543V212.26C245.678 210.436 246.427 208.984 247.303 209.009L247.747 209.035C247.887 209.035 248.001 209.164 248.001 209.305L247.773 215.653ZM253.054 212.119C252.839 212.492 252.75 212.89 252.775 213.314C252.826 213.995 252.762 214.65 252.585 215.28C252.47 215.691 252.229 215.82 251.836 215.678C250.985 215.357 250.147 215.37 249.296 215.717C248.75 215.935 248.484 215.755 248.496 215.152L248.661 209.69C248.674 209.318 249.017 209.061 249.372 209.151L249.741 209.254C250.413 209.421 250.693 209.858 250.553 210.551C250.236 212.26 250.096 213.186 250.147 213.34C250.642 214.817 250.959 214.779 251.086 213.224C251.201 211.913 251.048 209.408 252.445 208.457C252.826 208.187 253.105 208.277 253.283 208.714C253.753 209.883 253.676 211.027 253.054 212.119ZM256.749 210.628C256.444 211.991 256.355 213.301 256.495 214.548C256.546 215.01 256.254 215.434 255.81 215.55C255.352 215.678 254.87 215.666 254.349 215.511C253.892 215.37 253.664 214.843 253.867 214.406C254.248 213.545 254.375 212.594 254.261 211.554C254.197 211.117 254.286 210.718 254.527 210.346L254.832 209.87C254.997 209.626 255.099 209.344 255.149 209.048C255.187 208.727 255.302 208.418 255.492 208.149C255.746 207.75 256.013 207.737 256.305 208.11C256.825 208.804 256.978 209.639 256.749 210.628ZM261.51 215.293C261.459 215.576 261.155 215.743 260.888 215.627L260.533 215.486C260.152 215.319 259.923 214.933 259.961 214.509C260.05 213.545 260.025 212.672 259.86 211.862C259.695 211.053 259.517 211.053 259.339 211.862C259.123 212.89 259.085 213.905 259.225 214.895C259.288 215.357 259.098 215.601 258.628 215.627L258.196 215.653C257.79 215.653 257.574 215.473 257.536 215.062L257.155 210.654C257.117 210.192 257.295 209.845 257.701 209.626C258.209 209.344 258.704 209.369 259.199 209.703C259.517 209.909 259.771 209.858 259.987 209.549C260.177 209.292 260.38 209.074 260.621 208.894C261.079 208.547 261.371 208.663 261.485 209.215C261.878 211.04 261.878 213.07 261.51 215.293ZM263.542 215.897C262.97 215.897 262.513 214.278 262.513 212.286C262.513 210.294 262.97 208.675 263.542 208.675C264.113 208.675 264.57 210.294 264.57 212.286C264.57 214.278 264.113 215.897 263.542 215.897ZM267.198 213.725L267.44 214.329C267.516 214.522 267.478 214.753 267.338 214.907C266.906 215.421 266.411 215.614 265.84 215.498C265.294 215.383 265.091 215.049 265.218 214.509C265.484 213.391 265.535 212.029 265.383 210.397C265.268 209.202 265.713 208.92 266.716 209.562C267.566 210.102 267.732 210.924 267.224 212.042C266.982 212.594 266.97 213.147 267.198 213.725ZM270.322 214.56C270.296 215.01 269.928 215.344 269.496 215.319H269.115C268.684 215.28 268.354 214.907 268.366 214.471L268.595 209.613C268.62 209.164 268.988 208.83 269.42 208.855H269.801C270.233 208.894 270.563 209.266 270.55 209.703L270.322 214.56ZM273.14 212.158C273.064 214.355 272.632 216.115 272.188 216.09C271.731 216.064 271.439 214.278 271.515 212.093C271.591 209.896 272.023 208.136 272.467 208.161C272.924 208.187 273.216 209.973 273.14 212.158ZM275.083 215.922C274.613 215.922 274.219 214.316 274.194 212.312C274.169 210.307 274.524 208.688 274.981 208.675C275.451 208.675 275.845 210.282 275.87 212.286C275.895 214.291 275.54 215.91 275.083 215.922ZM277.457 215.473C277.076 215.473 276.759 214.008 276.759 212.209C276.759 210.41 277.076 208.945 277.457 208.945C277.838 208.945 278.155 210.41 278.155 212.209C278.155 214.008 277.838 215.473 277.457 215.473ZM280.618 212.35C280.517 214.239 280.111 215.755 279.692 215.743C279.273 215.717 279.019 214.162 279.12 212.273C279.222 210.384 279.628 208.868 280.047 208.881C280.466 208.907 280.72 210.461 280.618 212.35ZM283.805 212.003C283.577 213.815 282.993 215.241 282.498 215.177C282.015 215.113 281.825 213.584 282.066 211.772C282.294 209.96 282.878 208.534 283.374 208.598C283.856 208.663 284.047 210.192 283.805 212.003ZM286.484 214.727C286.446 215.049 286.154 215.293 285.837 215.254L285.532 215.216C285.215 215.19 284.986 214.895 285.012 214.56L285.545 209.421C285.583 209.099 285.875 208.855 286.192 208.894L286.497 208.92C286.814 208.945 287.043 209.241 287.018 209.575L286.484 214.715V214.727ZM279.73 205.553C269.509 205.81 264.367 205.938 264.329 205.938C245.906 206.054 227.484 206.08 209.061 206.016C208.655 206.016 208.312 206.157 208.033 206.452C207.906 206.594 207.753 206.684 207.588 206.748C207.309 206.838 207.118 206.748 207.029 206.465C206.915 206.093 206.699 205.848 206.407 205.746C205.912 205.566 205.684 205.746 205.696 206.273L205.811 209.742C205.823 210.359 206.09 210.487 206.585 210.14C206.953 209.87 207.182 209.498 207.258 209.009C207.347 208.406 207.69 208.046 208.286 207.93L208.845 207.814C209.404 207.699 209.67 207.93 209.658 208.508L209.455 214.471C209.455 214.779 209.67 215.036 209.975 215.062L210.521 215.113C210.826 215.139 210.94 215.01 210.864 214.715C210.064 211.849 210.546 209.575 212.286 207.892C213.2 207.005 213.568 207.198 213.378 208.47C213.073 210.564 213.01 212.71 213.187 214.882C213.251 215.704 212.883 216.115 212.07 216.102L206.966 216.051C206.445 216.051 206.103 215.498 206.318 215.023C206.89 213.777 206.953 212.607 206.484 211.489C206.293 211.04 206.141 211.053 206.014 211.515C205.671 212.697 205.595 213.597 205.785 214.226C206.179 215.498 205.709 216.115 204.401 216.077C192.403 215.678 180.71 215.113 168.876 215.177C154.161 215.267 139.459 215.28 124.743 215.216C116.376 215.177 110.028 215.28 105.699 215.498C100.201 215.781 95.2112 215.768 90.7294 215.447C90.3104 215.421 89.8914 215.486 89.4978 215.64C89.0915 215.794 88.6725 215.871 88.2536 215.884C87.8219 215.897 87.5425 215.421 87.7711 215.049C88.2282 214.329 88.4186 213.545 88.3424 212.697C88.3043 212.196 88.1139 212.119 87.7711 212.492C87.4918 212.813 87.3521 213.121 87.3648 213.443C87.4029 215.203 86.6665 216.115 85.1556 216.192C84.7239 216.205 84.5589 216.012 84.6731 215.588C85.0413 214.226 85.0794 212.864 84.7747 211.515C84.6731 211.053 84.5335 211.04 84.3557 211.477C83.9367 212.543 83.7082 213.635 83.6701 214.766C83.6574 215.19 83.4543 215.486 83.048 215.627C81.8037 216.051 80.3563 216.128 78.7185 215.871C76.7886 215.576 73.6145 215.64 69.2088 216.064C68.7898 216.102 68.5232 215.91 68.4343 215.486C68.0407 213.597 68.0661 211.721 68.4851 209.832C68.574 209.395 68.8533 209.202 69.2977 209.254C69.6912 209.292 69.9706 209.498 70.1229 209.845C70.3261 210.346 70.453 210.32 70.5038 209.793C70.5546 209.164 70.4784 208.573 70.2626 208.007C70.0848 207.557 70.1991 207.455 70.6181 207.686C72.7892 208.855 73.3224 210.706 72.2305 213.237C72.1417 213.455 72.1798 213.712 72.3321 213.892L72.6622 214.303C72.8146 214.471 72.9543 214.47 73.0812 214.278C73.6526 213.391 73.8176 212.492 73.551 211.554C73.4367 211.142 73.4621 210.744 73.6272 210.359C73.97 209.562 74.5286 208.958 75.2777 208.534C75.6459 208.341 75.9125 208.431 76.0776 208.804C76.3315 209.395 76.7632 209.78 77.3853 209.947C77.8678 210.089 78.1471 209.909 78.236 209.408C78.3249 208.868 78.0836 208.431 77.525 208.11C77.4742 208.071 77.4742 207.994 77.5377 207.969C77.6393 207.917 77.7408 207.853 77.8297 207.789C77.9059 207.737 77.9694 207.75 78.0329 207.814C78.655 208.47 79.3787 208.585 80.1913 208.136C80.5595 207.943 80.8261 208.033 80.9784 208.431C81.0927 208.752 81.1562 209.099 81.1562 209.446C81.1562 210.14 81.372 210.217 81.8037 209.678C82.3751 208.984 82.7433 208.174 82.9083 207.249C82.921 207.185 82.9591 207.121 83.0226 207.082L83.5304 206.812C83.8606 206.619 84.0383 206.722 84.0764 207.108L84.2795 209.434C84.3176 209.935 84.5462 210.05 84.9525 209.768C86.1078 208.971 86.6157 207.93 86.4887 206.645C86.438 206.208 86.1967 205.99 85.7523 205.99C70.288 205.951 54.849 205.99 39.4227 206.093C28.7196 206.157 18.1307 206.003 7.66876 205.604C7.21168 205.591 6.97045 205.052 7.26247 204.692L34.5854 171.63C35.3726 170.667 36.5406 170.088 37.7849 170.05L52.4494 169.549C53.6048 169.51 53.7444 169.857 52.8557 170.615C52.1447 171.219 51.4464 172.054 50.7734 173.146C48.9832 176.038 47.1295 178.89 45.2378 181.704C42.381 185.957 39.7529 190.211 37.3786 194.438C36.8961 195.299 37.4548 196.378 38.4324 196.468C41.7589 196.764 45.1362 196.918 48.5642 196.931C95.3001 196.982 141.693 196.969 187.718 196.892C214.52 196.841 238.225 196.867 258.844 196.969C259.618 196.969 260.076 196.109 259.644 195.453C255.086 188.553 250.388 181.936 245.551 175.626C244.141 173.776 242.415 172.221 240.383 171.335C236.892 169.806 237.044 169.266 240.815 169.703C243.659 170.024 246.985 170.024 250.782 169.677C255.073 169.279 258.742 170.589 261.79 173.609C272.709 184.441 284.034 194.811 295.765 204.718C296.184 205.065 296.121 205.386 295.6 205.681C295.524 205.72 295.448 205.733 295.359 205.733C290.166 205.489 284.948 205.424 279.73 205.553ZM289.328 214.65C289.328 214.65 289.316 214.727 289.265 214.74L288.782 214.83C288.351 214.895 288.148 214.715 288.173 214.278L288.44 209.973C288.465 209.665 288.757 209.459 289.036 209.549L289.468 209.678C289.557 209.703 289.595 209.768 289.57 209.87C289.201 211.284 289.125 212.877 289.328 214.65Z" fill="#002657"/>
</svg>
