<svg width="211" height="154" viewBox="0 0 211 154" fill="none" xmlns="http://www.w3.org/2000/svg">
<g clip-path="url(#clip0_0_703)">
<path d="M210.899 152.548L194.011 151.681C193.717 151.673 193.431 151.732 193.171 151.877C192.927 152.013 192.684 152.055 192.432 152.004C192.003 151.911 191.978 151.766 192.373 151.554C194.078 150.645 195.934 150.314 197.924 150.577C198.21 150.62 198.503 150.594 198.781 150.501C200.284 150.017 201.812 149.864 203.383 150.025C203.651 150.051 203.912 150.008 204.155 149.889C204.718 149.626 205.289 149.626 205.869 149.906C206.356 150.144 206.918 149.771 206.91 149.227C206.91 149.185 206.843 149.1 206.708 148.989C206.641 148.938 206.566 148.913 206.49 148.904L195.085 148.675C194.783 148.666 194.766 148.607 195.044 148.48C196.815 147.647 198.705 147.197 200.721 147.129C202.417 147.07 203.609 146.255 205.264 146.271C205.759 146.271 205.843 146.085 205.516 145.711C205.155 145.295 204.374 145.414 203.156 146.059C202.761 146.271 202.367 146.263 201.972 146.051C201.208 145.635 200.326 145.456 199.343 145.524C198.957 145.55 198.898 145.414 199.159 145.125C199.578 144.658 199.872 144.182 200.049 143.715C200.175 143.392 200.326 143.375 200.511 143.673C200.729 144.021 201.048 144.208 201.46 144.242C201.77 144.267 201.812 144.165 201.594 143.936C201.166 143.503 200.796 143.027 200.469 142.509C200.326 142.28 200.393 142.152 200.662 142.136L203.811 141.966C203.903 141.957 203.954 141.906 203.962 141.813L203.987 141.583C204.013 141.346 203.912 141.227 203.685 141.227H200.989C200.704 141.218 200.561 141.074 200.553 140.785C200.519 139.503 200.62 138.237 200.855 136.972C201.04 135.995 200.922 135.282 200.494 134.832C196.27 130.373 191.693 126.577 187.149 122.492C183.379 119.095 178.751 114.415 174.342 110.627C173.981 110.321 173.822 109.829 173.923 109.362C174.527 106.585 174.829 103.689 174.829 100.674C174.821 72.3926 174.762 44.1116 174.67 15.822C174.67 12.0427 174.359 9.33353 173.763 7.70291C172.688 4.73892 170.773 2.62422 168.027 1.3418C166.154 0.467043 162.829 0.0339103 158.05 0.0339103C117.144 0.0424031 76.2284 0.0339103 35.3133 -6.09411e-05C29.5775 -6.09411e-05 25.8404 -0.229367 22.1033 2.85352C19.4159 5.07014 18.0722 7.73688 18.0722 10.8622C18.0302 35.7716 18.047 60.6895 18.1142 85.5989C18.1394 93.4632 17.8959 101.718 19.3823 109.447C19.6091 110.585 19.3067 111.629 18.4837 112.589C14.5703 117.175 9.91776 123.018 5.47521 128.148C3.66964 130.229 -0.0590756 134.144 -0.000289553 136.98C0.0333025 138.823 0.402815 140.76 1.10825 142.789C1.83887 144.87 2.87183 146.518 4.22391 147.724C6.03788 149.354 7.75107 150.492 9.36349 151.129C11.7653 152.089 11.6813 152.446 9.11155 152.208C7.06244 152.021 4.72779 152.233 2.09921 152.845C1.7381 152.921 1.46936 153.074 1.28461 153.304C1.07466 153.567 1.13344 153.677 1.46936 153.643C6.91967 153.074 11.463 152.93 15.1161 153.193C22.3468 153.711 27.5956 153.974 30.8624 153.983C79.6464 154.017 128.422 153.974 177.198 153.864C180.826 153.864 184.454 153.745 188.073 153.516C188.703 153.482 189.224 153.176 189.778 153.168C196.807 153.117 203.845 153.057 210.891 152.998C210.966 152.998 211 152.964 211 152.887V152.658C211 152.59 210.966 152.556 210.899 152.548ZM194.699 141.745C194.011 142.22 193.07 141.889 192.81 141.082C192.608 140.454 192.625 139.758 192.86 138.993C192.902 138.866 193.028 138.781 193.162 138.798L193.498 138.849C193.742 138.874 193.817 139.01 193.742 139.248L193.297 140.581C193.188 140.896 193.364 141.244 193.683 141.337L193.952 141.422C194.355 141.55 194.624 141.414 194.766 141.014C194.985 140.378 194.976 139.724 194.733 139.053C194.674 138.874 194.724 138.755 194.901 138.687L195.111 138.611C195.203 138.586 195.304 138.619 195.346 138.696C196.034 139.961 195.816 140.98 194.699 141.745ZM22.0949 12.5523C22.1621 3.40555 30.3333 3.92361 36.741 3.92361C77.3454 3.95759 117.95 3.95759 158.554 3.93211C162.342 3.92361 164.92 4.28031 166.28 4.98521C168.984 6.38653 170.311 9.05327 170.253 12.9854C169.908 37.2409 170.63 69.59 170.421 97.9135C170.412 99.4677 170.278 101.905 170.026 105.234C170.009 105.515 169.917 105.769 169.749 105.999C169.346 106.534 169.186 107.094 169.27 107.663C169.312 107.986 169.194 108.079 168.9 107.943C168.22 107.629 167.515 107.655 166.793 108.028C166.641 108.096 166.465 108.02 166.423 107.867L166.306 107.434C166.272 107.298 166.339 107.162 166.473 107.12C168.674 106.491 169.371 105.311 168.556 103.57C168.447 103.34 168.523 103.23 168.766 103.247C168.951 103.247 169.094 103.171 169.186 102.975C169.236 102.882 169.253 102.754 169.236 102.593C169.102 101.362 169.043 100.147 169.06 98.9411C169.068 98.2532 168.859 98.1852 168.447 98.7203C168.069 99.2044 168.002 99.7904 168.245 100.478C168.565 101.379 168.145 102.381 167.271 102.771C166.574 103.086 165.902 103.408 165.256 103.74C164.953 103.892 164.668 103.875 164.391 103.689C164.122 103.51 164.139 103.374 164.441 103.264C164.878 103.111 165.315 102.967 165.76 102.831C166.02 102.754 166.205 102.585 166.306 102.321C166.549 101.701 166.986 101.294 167.616 101.115C167.918 101.03 167.968 100.869 167.775 100.623C167.632 100.444 167.422 100.368 167.137 100.385C166.86 100.41 166.709 100.274 166.692 99.9857C166.692 99.8074 166.784 99.6375 166.994 99.4846C167.725 98.9496 168.119 98.423 168.187 97.905L164.945 98.2532C164.525 98.2957 164.172 97.9305 164.231 97.5143L164.618 94.7117C164.66 94.4484 164.802 94.355 165.054 94.4314C165.357 94.5248 165.659 94.5503 165.961 94.5164C166.238 94.4824 166.423 94.3295 166.499 94.0492C166.683 93.3868 167.011 92.8857 167.49 92.546C167.8 92.3252 167.767 92.1978 167.389 92.1638C167.019 92.1299 166.675 92.011 166.356 91.8071C166.096 91.6458 166.07 91.4504 166.28 91.2296C167.095 90.3634 167.725 90.7286 168.161 92.3167C168.237 92.5885 168.22 92.8772 168.103 93.132C167.448 94.6013 166.566 95.7478 165.466 96.5716C165.239 96.733 165.197 96.9368 165.34 97.1831L165.583 97.6077C165.726 97.8625 165.902 97.8795 166.096 97.6672L167.817 95.7818C168.019 95.561 168.145 95.6034 168.195 95.9007C168.313 96.5631 168.313 97.234 168.195 97.905L168.397 98.1258C168.598 98.3466 168.741 98.3126 168.833 98.0239C169.077 97.234 169.11 96.4357 168.917 95.6374C168.85 95.3741 168.716 95.1533 168.506 94.992C168.237 94.7711 168.229 94.4569 168.489 94.0408C168.506 94.0153 168.531 93.9983 168.565 93.9898C168.623 93.9813 168.699 93.9813 168.775 93.9898C168.833 93.9983 168.875 93.9643 168.892 93.9049C169.194 92.631 169.068 91.442 168.506 90.3294C168.38 90.0831 168.388 89.8453 168.523 89.6075C168.942 88.8771 168.892 88.1637 168.363 87.4673C168.22 87.272 168.237 87.0936 168.413 86.9323L168.665 86.703C168.8 86.5841 168.859 86.3972 168.808 86.2189C168.749 85.9556 168.607 85.7773 168.397 85.6838C168.128 85.5564 168.01 85.3526 168.044 85.0554C168.069 84.843 168.128 84.6307 168.22 84.4354C168.329 84.1806 168.38 83.9173 168.355 83.6371C168.128 80.6221 168.036 77.6072 168.094 74.5922C168.103 73.9128 167.859 73.1739 167.733 72.4945C167.674 72.1803 167.557 72.1633 167.38 72.4266C167.204 72.6898 167.129 72.9871 167.171 73.3098C167.187 73.4627 167.313 73.7175 167.54 74.0827C167.91 74.6687 167.901 75.2632 167.515 75.8662C167.288 76.2144 167.171 76.4946 167.171 76.69C167.171 77.1061 167.296 77.4883 167.574 77.8365C167.716 78.0148 167.733 78.1932 167.607 78.3885L167.448 78.6263C167.288 78.8896 167.263 79.1614 167.38 79.4416C167.733 80.2824 167.574 80.9194 167.003 81.5903C166.818 81.8111 166.692 82.0574 166.633 82.3377C166.566 82.6179 166.675 82.7538 166.961 82.7453L167.355 82.7283C167.716 82.7114 167.859 82.8812 167.767 83.2379C167.607 83.8664 167.221 84.3165 166.616 84.5883C166.322 84.7242 166.415 85.1658 166.734 85.1743C167.145 85.1913 167.448 85.3186 167.641 85.5564C167.935 85.9046 167.876 86.1849 167.464 86.3802C166.885 86.652 166.448 87.0257 166.154 87.5013C165.659 88.2911 164.475 88.1213 164.198 87.2295C164.08 86.8389 164.156 86.4482 164.433 86.049C164.693 85.6753 164.718 85.1828 164.5 84.7836C164.24 84.3165 164.248 83.8579 164.542 83.4078C164.727 83.1275 164.735 82.8472 164.559 82.567C164.517 82.4905 164.466 82.4226 164.408 82.3462C164.282 82.1933 164.223 82.0149 164.223 81.8196C164.147 61.4114 164.13 41.0117 164.156 20.6035C164.156 13.7073 163.593 11.1765 156.001 11.1595C115.909 11.0661 77.6309 11.0661 41.1584 11.1765C40.243 11.1765 39.5795 11.1085 39.168 10.9641C38.9077 10.8707 38.6474 10.8453 38.3702 10.8707C35.4813 11.1935 32.1725 10.8707 29.3256 12.7307C29.0904 12.8835 28.9309 13.0958 28.8469 13.3676C28.4186 14.7689 28.2086 16.5524 28.217 18.7181C28.3178 43.5595 28.3934 68.401 28.4438 93.2424C28.4522 96.5461 28.4102 99.1959 29.7707 101.472C29.9722 101.803 29.8882 102.041 29.5271 102.177L29.25 102.287C28.9393 102.406 28.6789 102.321 28.4858 102.041C27.4192 100.521 26.9993 99.0515 27.2093 97.6417C27.2513 97.3445 27.1673 97.302 26.9573 97.5143L26.2435 98.2617C26.0167 98.491 26.0083 98.7373 26.2015 99.0006C27.3436 100.495 26.5626 101.871 28.2338 103.255C28.6789 103.621 28.7545 103.986 28.7965 104.521C29.2668 105.413 30.115 105.744 31.3495 105.506C31.635 105.455 31.7106 105.557 31.5678 105.812C31.3747 106.177 31.1143 106.474 30.7952 106.704C30.5433 106.882 30.2997 106.865 30.073 106.67C29.8966 106.517 29.7623 106.321 29.6783 106.092C29.6027 105.897 29.4767 105.744 29.2836 105.642C28.8637 105.43 28.7041 105.056 28.7965 104.521C27.5872 104.088 26.7222 103.204 26.1931 101.888C26.1343 101.761 26.0503 101.718 25.9244 101.778L25.6136 101.922C25.4877 101.982 25.4541 102.075 25.5129 102.202C26.1091 103.527 26.3527 105.285 28.1498 105.421C28.5865 105.447 28.8721 105.914 28.6957 106.321C28.5194 106.729 28.2758 107.077 27.9483 107.366C27.6879 107.612 27.7215 107.68 28.0659 107.587C28.8805 107.374 29.6195 107.57 30.2997 108.19C30.5265 108.402 30.4929 108.546 30.199 108.64C29.4935 108.852 28.7881 108.81 28.0911 108.521C27.8307 108.411 27.562 108.368 27.2848 108.394C26.2603 108.487 25.2525 108.394 24.27 108.105C24.0012 108.028 23.8165 107.85 23.7157 107.587C23.1026 106.033 22.7751 104.436 22.7331 102.797C21.8849 72.7238 21.8933 42.6338 22.1033 12.5523H22.0949ZM166.457 104.793C166.692 104.36 166.961 104.173 167.263 104.215C167.599 104.275 167.716 104.461 167.607 104.793C167.498 105.158 167.229 105.345 166.809 105.362C166.356 105.387 166.238 105.192 166.457 104.793ZM163.383 102.016C163.249 102.262 163.19 102.245 163.198 101.965C163.207 101.837 163.173 101.727 163.114 101.616C162.988 101.37 162.795 101.302 162.543 101.421C161.846 101.761 161.099 101.812 160.318 101.565C160.007 101.472 159.671 101.54 159.411 101.744C159.066 102.016 158.689 102.049 158.285 101.837C158.008 101.693 157.714 101.633 157.404 101.642L137.761 102.041C137.568 102.049 137.391 102.007 137.223 101.922C137.148 101.888 137.08 101.854 137.005 101.82C136.929 101.786 136.845 101.769 136.753 101.769C118.857 102.143 100.969 102.143 83.0728 101.761C78.899 101.676 74.3893 102.032 69.9299 102.058C57.0726 102.117 44.1564 102.109 31.1815 102.016C31.1059 102.016 31.0723 101.982 31.0723 101.914V101.693C31.0555 101.463 31.1647 101.353 31.3831 101.345C35.1874 101.2 40.3941 101.132 47.0034 101.158C49.1029 101.158 51.1688 100.852 53.1927 100.827C69.9383 100.614 80.8977 100.563 86.0793 100.682C105.857 101.124 122.023 101.132 134.578 100.716C134.855 100.708 135.401 100.767 136.215 100.911C136.954 101.047 137.769 100.818 138.5 100.911C140.944 101.243 142.925 101.294 144.437 101.064C145.957 100.835 147.309 100.759 148.477 100.835C149.526 100.903 150.61 100.911 151.71 100.852C152.76 100.793 153.834 100.869 154.951 101.073C155.371 101.149 155.749 101.073 156.085 100.852C156.219 100.767 156.371 100.716 156.522 100.716L162.526 100.572C162.669 100.572 162.787 100.631 162.871 100.75L163.005 100.945C163.148 101.158 163.299 101.158 163.442 100.945C164.004 100.156 164.71 99.5271 165.558 99.06C165.818 98.9156 165.902 98.9836 165.802 99.2723C165.6 99.8244 165.315 100.325 164.953 100.767C164.777 100.979 164.559 101.141 164.298 101.234C163.895 101.379 163.593 101.633 163.383 102.007V102.016ZM163.719 109.651C163.711 109.735 163.66 109.769 163.585 109.761C162.61 109.668 161.636 109.557 160.67 109.447C160.544 109.447 160.486 109.362 160.494 109.226H160.502C160.511 109.09 160.586 109.031 160.712 109.039C161.695 109.099 162.661 109.26 163.627 109.506C163.702 109.523 163.727 109.574 163.719 109.651ZM162.493 122.296C160.578 122.279 159.125 122.526 158.143 123.044C156.371 123.961 155.993 123.587 154.531 122.526C153.641 121.88 153.742 121.608 154.834 121.702C157.244 121.914 159.831 121.957 162.602 121.821C162.627 121.812 162.652 121.838 162.652 121.872V122.126C162.661 122.237 162.602 122.296 162.493 122.296ZM164.256 124.87C164.483 124.708 164.71 124.717 164.937 124.878C165.785 125.498 166.448 126.245 166.919 127.12C167.011 127.29 166.893 127.511 166.692 127.511L159.428 127.664C158.831 127.672 158.277 127.375 157.958 126.874L156.992 125.379C156.547 124.691 156.723 124.437 157.513 124.632C160.049 125.243 161.829 126.577 164.256 124.87ZM133.856 123.392C133.343 123.4 132.982 123.18 132.764 122.712L132.218 121.532C132.016 121.099 132.151 120.87 132.629 120.861C134.427 120.81 136.493 121.286 138.827 122.279C139.39 122.526 139.717 122.882 139.81 123.358C139.852 123.579 139.785 123.655 139.6 123.596C139.558 123.587 139.524 123.57 139.491 123.545C139.398 123.485 139.323 123.451 139.264 123.451C137.374 123.375 135.569 123.358 133.856 123.392ZM134.746 127.078C134.628 127.248 134.443 127.358 134.192 127.409C133.654 127.519 133.142 127.485 132.655 127.316C132.26 127.188 132.252 127.035 132.629 126.857L134.124 126.169C134.301 126.084 134.519 126.127 134.653 126.271C134.897 126.534 134.931 126.806 134.746 127.078ZM31.845 124.233C33.1467 124.097 34.6163 124.326 36.2707 124.921C36.783 125.099 37.0685 125.659 36.9174 126.186C36.7074 126.908 36.1699 127.265 35.2881 127.265C33.0963 127.265 31.0304 127.375 29.0736 127.587C28.7797 127.621 28.6033 127.265 28.8049 127.044L30.8204 124.768C31.0975 124.453 31.4335 124.275 31.845 124.233ZM31.887 122.509C31.9877 122.254 32.1473 122.042 32.374 121.88C32.6176 121.702 32.8863 121.668 33.1718 121.787L34.8515 122.5C35.1454 122.619 35.1286 122.67 34.8095 122.653C33.8521 122.594 33.2978 122.492 32.1557 122.814C31.8618 122.899 31.7694 122.797 31.887 122.509ZM35.6493 119.281C35.2546 119.264 34.9522 118.933 34.9606 118.534V118.449C34.9774 118.05 35.3133 117.736 35.6996 117.753L45.4497 118.101C45.8444 118.118 46.1468 118.449 46.1384 118.848V118.933C46.1216 119.332 45.7857 119.647 45.3994 119.63L35.6493 119.281ZM65.8737 109.251C65.9409 109.26 65.9745 109.294 65.9745 109.362C65.9829 109.498 65.9157 109.557 65.7897 109.566C56.0396 109.676 46.2895 109.693 36.5311 109.625C35.5737 109.625 34.104 109.37 32.1137 108.886C31.845 108.818 31.803 108.674 31.9877 108.462C32.0549 108.385 32.1305 108.326 32.2145 108.292C32.4748 108.181 32.668 108.249 32.8107 108.496C32.9115 108.674 33.0459 108.818 33.2138 108.929C33.3398 109.005 33.4658 109.039 33.6001 109.048C44.3076 109.082 55.0655 109.149 65.8737 109.251ZM34.6331 106.61C35.0446 105.778 35.5569 105.03 36.1783 104.368C36.4135 104.122 36.4891 104.156 36.3967 104.487C36.3043 104.852 36.1196 105.175 35.8424 105.438C35.6829 105.591 35.5737 105.769 35.5065 105.982C35.3805 106.347 35.1622 106.619 34.8515 106.805C34.5575 106.984 34.4819 106.924 34.6331 106.61ZM37.648 106.5C37.6648 106.415 37.7068 106.338 37.7656 106.262C37.8076 106.211 37.8327 106.151 37.8327 106.075C37.8075 105.676 37.8747 105.328 38.0511 105.03C38.2191 104.733 38.3618 104.75 38.471 105.073C38.7229 105.812 38.5214 106.338 37.8663 106.67C37.6732 106.771 37.606 106.712 37.648 106.5ZM40.3018 106.16C40.6545 105.26 41.2171 104.606 41.6286 103.833C41.6286 103.799 41.637 103.765 41.637 103.731C41.637 103.731 41.637 103.714 41.6454 103.731H41.6538C41.6538 103.731 41.6706 103.757 41.6706 103.765C41.6538 103.79 41.6454 103.816 41.6286 103.841C41.6119 104.852 41.2507 105.684 40.5453 106.338C40.2178 106.636 40.1422 106.585 40.3018 106.168V106.16ZM39.2436 122.254C39.2436 121.872 42.1241 121.634 45.6597 121.71L46.1384 121.727C46.3567 121.727 46.5247 121.914 46.5247 122.135L46.4911 123.477C46.4911 123.698 46.3063 123.868 46.088 123.868L45.6093 123.851C42.0737 123.774 39.2184 123.4 39.2268 123.018L39.2436 122.254ZM39.5039 125.617C39.6467 125.252 39.8903 125.15 40.2514 125.294C41.973 125.999 43.6274 126.025 45.2146 125.371C46.2727 124.938 47.1713 125.167 47.902 126.059C48.3303 126.585 47.9859 127.375 47.3141 127.409C45.8444 127.485 44.2992 127.451 42.6868 127.324C42.4097 127.299 42.1493 127.341 41.8974 127.451C41.3263 127.689 40.7301 127.757 40.1002 127.655C39.8063 127.613 39.6047 127.451 39.4872 127.18C39.2772 126.704 39.2856 126.186 39.5039 125.617ZM46.0544 113.141C45.7773 113.184 45.6093 113.336 45.5505 113.608C45.4413 114.101 45.1978 114.491 44.8199 114.789C44.5176 115.026 44.1732 115.128 43.7869 115.086C41.8134 114.882 39.5459 115.137 36.9845 115.842C36.8418 115.884 36.7242 115.723 36.8082 115.595L38.2358 113.489C38.3114 113.379 38.4206 113.311 38.555 113.294C43.7365 112.657 48.9097 112.487 54.0829 112.767C54.7967 112.81 54.9647 112.64 55.5861 112.47C55.8129 112.411 55.8969 112.496 55.8381 112.725L55.2754 114.857C55.1998 115.145 55.0151 115.247 54.7379 115.171C54.612 115.137 54.486 115.052 54.3768 114.925C54.2005 114.712 53.9737 114.576 53.7134 114.517C52.3277 114.186 50.942 114.135 49.5396 114.356C49.2708 114.398 49.0441 114.322 48.8593 114.109C48.1203 113.285 47.1881 112.963 46.0544 113.141ZM48.557 117.846C48.5822 117.43 48.8005 117.184 49.212 117.124C51.3871 116.776 53.3691 116.751 55.1578 117.039C56.1152 117.192 56.7199 117.634 56.9718 118.356C57.0978 118.712 56.8458 119.095 56.4679 119.103L49.1113 119.341C48.7586 119.358 48.473 119.061 48.4982 118.704L48.557 117.846ZM58.5086 122.126V122.279C58.5338 122.67 58.2399 123.001 57.862 123.018L50.8497 123.4C50.4634 123.426 50.1358 123.129 50.119 122.738V122.585C50.0938 122.194 50.3878 121.863 50.7657 121.846L57.778 121.464C58.1643 121.439 58.4918 121.736 58.5086 122.126ZM58.3575 117.812C58.6682 117.608 58.8698 117.685 58.9621 118.05C59.0377 118.339 59.0377 118.61 58.9453 118.874C58.811 119.29 58.2483 119.332 58.0468 118.942C57.82 118.475 57.9208 118.101 58.3575 117.812ZM49.8755 126.458L50.1694 125.719C50.3458 125.286 50.7657 124.997 51.236 124.997C53.3943 125.014 54.9815 124.878 55.9976 124.589C56.997 124.309 57.6856 124.165 58.0719 124.139C58.517 124.114 58.9034 124.437 58.9789 124.878L59.2561 126.492C59.3484 127.027 59.1217 127.307 58.5926 127.35C57.7696 127.417 57.0642 127.375 56.4679 127.214C56.2244 127.146 55.9724 127.112 55.7205 127.112L50.287 127.078C49.8503 127.078 49.7159 126.874 49.8755 126.458ZM57.8536 114.305C57.4253 114.347 57.165 114.152 57.0558 113.736L56.7703 112.598C56.7115 112.343 56.8038 112.215 57.0642 112.215L67.7213 112.147C67.9648 112.147 68.1244 112.258 68.2 112.487L68.8214 114.245C68.9558 114.627 68.8382 114.755 68.4603 114.627L67.4693 114.296C67.209 114.203 66.957 114.211 66.6967 114.313C66.3104 114.466 65.9325 114.5 65.5546 114.407C65.2774 114.347 65.1683 114.177 65.2439 113.897C65.3194 113.608 65.3278 113.328 65.2858 113.048C65.2271 112.682 65.1095 112.665 64.9331 112.98C64.782 113.243 64.698 113.532 64.6728 113.846C64.656 114.126 64.5048 114.262 64.2277 114.271C63.9086 114.279 63.6146 114.203 63.3375 114.041C63.1108 113.914 62.8756 113.854 62.6237 113.88L57.8536 114.305ZM61.3136 117.15C61.322 116.895 61.5235 116.7 61.7755 116.708L68.4603 116.895C69.1825 116.912 69.7536 117.43 69.7368 118.05V118.322C69.7116 118.942 69.1153 119.426 68.3931 119.409L61.7083 119.213C61.4563 119.213 61.2632 119.001 61.2716 118.746L61.3136 117.15ZM66.6883 121.158C68.9138 121.048 70.7362 121.286 70.7613 121.702C70.7865 122.109 68.9978 122.534 66.7639 122.653C64.5384 122.763 62.716 122.526 62.6909 122.109C62.6657 121.702 64.4544 121.277 66.6883 121.158ZM63.2031 123.859L70.8537 124.139C70.9713 124.148 71.0721 124.224 71.1057 124.335L71.9371 127.027C71.9958 127.214 71.8615 127.392 71.6683 127.392L63.2619 127.205C63.1192 127.197 63.0016 127.078 62.9932 126.933L62.9176 124.148C62.9092 123.986 63.0436 123.859 63.2031 123.859ZM70.7781 114.568C70.5094 114.593 70.3918 114.474 70.4338 114.203C70.543 113.396 70.4506 112.623 70.1567 111.867C70.0643 111.638 70.1399 111.519 70.3834 111.527L79.109 111.816C79.4029 111.825 79.6716 111.986 79.8144 112.241C80.2007 112.912 79.9908 113.353 79.1761 113.566C78.9326 113.625 78.9074 113.736 79.109 113.897C79.1845 113.956 79.2685 113.99 79.3693 114.016C79.4785 114.041 79.5877 114.024 79.6884 113.965C80.3519 113.557 80.9061 113.659 81.3512 114.262C81.5276 114.5 81.4772 114.568 81.2001 114.474C80.5534 114.254 79.9236 114.254 79.3021 114.466C79.0334 114.559 78.7646 114.585 78.4875 114.559C75.9093 114.313 73.3395 114.313 70.7781 114.568ZM73.012 117.235L81.7459 117.387C81.9727 117.396 82.0903 117.506 82.107 117.736L82.233 119.332C82.2498 119.494 82.107 119.621 81.9559 119.587C79.4281 119.12 76.8583 118.933 74.2633 119.018C73.6503 119.035 73.1464 118.806 72.7685 118.322C72.6677 118.194 72.5921 118.058 72.5333 117.906C72.4158 117.574 72.6593 117.226 73.012 117.235ZM82.359 121.456L82.3842 121.659C82.4262 122.008 82.191 122.33 81.8467 122.381L76.1613 123.197C75.8169 123.248 75.4978 123.01 75.4474 122.653L75.4222 122.449C75.3802 122.101 75.6154 121.778 75.9597 121.727L81.6452 120.912C81.9895 120.861 82.3086 121.099 82.359 121.456ZM75.0779 124.802C75.1031 124.487 75.2711 124.36 75.5734 124.411C75.8337 124.445 76.0521 124.564 76.2452 124.759C76.4384 124.955 76.6735 125.065 76.9423 125.09C78.3867 125.226 80.0579 125.141 81.9559 124.844C82.8209 124.708 83.3752 125.065 83.6187 125.906L83.7699 126.398C83.9966 127.188 83.7027 127.579 82.8881 127.562L75.9681 127.434C75.6826 127.426 75.4894 127.29 75.3886 127.027C75.1031 126.288 75.0023 125.549 75.0779 124.802ZM83.3332 114.092L83.4675 112.954C83.5095 112.598 83.8202 112.334 84.1814 112.36L87.0955 112.538C87.2214 112.547 87.3558 112.598 87.4566 112.682L88.7667 113.702C89.279 114.101 88.9934 114.925 88.3468 114.916L83.9966 114.848C83.5935 114.848 83.2912 114.491 83.3332 114.092ZM93.5116 114.288C93.8475 114.279 94.0742 114.109 94.1834 113.795C94.301 113.472 94.4437 113.158 94.6201 112.861C94.7629 112.606 94.9812 112.47 95.2667 112.445C97.4502 112.275 99.6001 112.326 101.725 112.598C101.817 112.606 101.834 112.648 101.767 112.725L100.171 114.432C100.045 114.568 99.8856 114.644 99.7009 114.653C98.0549 114.712 96.5432 114.814 95.166 114.959C93.8391 115.103 92.7977 114.432 91.58 114.678C91.4204 114.712 91.3281 114.644 91.3113 114.483L91.1013 112.445C91.0845 112.275 91.1601 112.19 91.3281 112.19L93.5871 112.147C94.0994 112.139 94.1414 112.266 93.7131 112.547C93.3016 112.81 93.0581 113.209 92.9993 113.736C92.9657 114.041 93.2092 114.305 93.5116 114.288ZM150.727 109.031C150.845 109.031 150.946 109.115 150.946 109.234C150.946 109.353 150.862 109.455 150.744 109.455L132.613 110.381C132.495 110.381 132.394 110.296 132.394 110.177C132.394 110.058 132.478 109.956 132.596 109.956L150.727 109.031ZM145.814 105.183C145.89 104.725 146.125 104.385 146.343 104.427C146.562 104.47 146.671 104.869 146.587 105.328C146.511 105.786 146.276 106.126 146.058 106.084C145.84 106.041 145.73 105.642 145.814 105.183ZM156.858 114.806C157.051 114.925 157.034 114.984 156.807 114.976L150.719 114.865C150.442 114.865 150.24 114.738 150.123 114.474C149.938 114.067 149.929 113.685 150.106 113.328C150.249 113.031 150.526 112.827 150.937 112.699C154.103 111.748 154.573 113.362 156.858 114.806ZM149.241 112.861C148.838 113.09 148.409 113.243 147.947 113.328C147.637 113.387 147.486 113.574 147.486 113.888V114.177C147.486 114.449 147.351 114.576 147.082 114.568C146.285 114.542 145.588 114.313 144.975 113.863C144.672 113.642 144.412 113.685 144.194 113.982C143.984 114.262 143.74 114.5 143.446 114.695C143.245 114.831 143.001 114.899 142.749 114.891L138.382 114.789C138.223 114.78 138.113 114.704 138.046 114.559L136.837 111.935C136.778 111.808 136.812 111.74 136.954 111.748C138.878 111.816 140.33 112.555 141.313 113.965C141.473 114.194 141.699 114.313 141.976 114.305C142.741 114.288 143.169 113.812 143.261 112.886C143.287 112.606 143.429 112.445 143.706 112.394C144.874 112.164 145.974 112.317 146.998 112.844C147.242 112.971 147.46 112.946 147.67 112.776C148.132 112.385 148.645 112.283 149.207 112.479C149.518 112.581 149.526 112.708 149.241 112.861ZM132.831 112.504C133.201 112.377 133.511 112.462 133.772 112.759L135.552 114.772C135.728 114.967 135.686 115.06 135.426 115.052L130.169 114.925C129.85 114.916 129.825 114.823 130.093 114.644C130.816 114.143 130.941 113.498 130.463 112.716C130.37 112.555 130.412 112.47 130.597 112.479C130.673 112.487 130.74 112.521 130.816 112.581C130.874 112.64 130.95 112.674 131.042 112.674C131.89 112.682 132.487 112.623 132.831 112.504ZM131.723 110.5L96.7196 110.44C96.6104 110.44 96.518 110.355 96.518 110.237C96.518 110.118 96.6104 110.033 96.7196 110.033L131.723 110.092C131.832 110.092 131.924 110.177 131.924 110.296C131.924 110.415 131.832 110.5 131.723 110.5ZM117.379 112.912L116.01 113.209C115.607 113.294 115.481 113.532 115.624 113.922L115.917 114.678C116.018 114.959 115.926 115.103 115.632 115.111C114.817 115.145 113.969 114.678 113.104 113.702C112.978 113.557 112.743 113.625 112.709 113.812C112.709 113.888 112.726 113.965 112.793 114.058C112.852 114.143 112.835 114.186 112.735 114.177L109.493 113.999C109.165 113.982 108.863 114.058 108.586 114.22C107.402 114.925 106.209 114.976 105.008 114.381C104.882 114.322 104.74 114.279 104.597 114.271C104.269 114.254 104.009 114.313 103.816 114.449C103.581 114.627 103.488 114.568 103.539 114.271L103.833 112.657C103.875 112.428 104.009 112.309 104.244 112.3L107.461 112.241C107.587 112.241 107.671 112.3 107.713 112.428L107.78 112.648C107.839 112.827 107.956 112.92 108.149 112.92C110.576 112.963 112.978 112.776 115.363 112.368C117.362 112.029 119.042 112.53 120.981 112.343C121.553 112.292 122.107 112.598 122.367 113.116L122.896 114.152C123.148 114.636 123.005 114.882 122.46 114.882L118.244 114.865C117.841 114.857 117.723 114.67 117.899 114.305L118.109 113.837C118.336 113.345 117.908 112.793 117.379 112.912ZM115.607 119.859C113.583 119.29 111.676 119.239 109.871 119.715C109.527 119.808 109.283 119.689 109.14 119.366L108.468 117.855C108.368 117.625 108.536 117.37 108.788 117.37L114.876 117.523C115.556 117.54 115.985 117.88 116.161 118.543L116.329 119.137C116.514 119.808 116.27 120.054 115.607 119.859ZM119.117 117.532C121.124 117.472 126.407 116.946 127.994 118.33C128.237 118.543 128.33 118.806 128.254 119.103C128.179 119.4 128.002 119.494 127.717 119.392C125.256 118.517 122.619 118.492 119.814 119.332C119.293 119.494 118.924 119.315 118.714 118.814C118.622 118.602 118.563 118.373 118.554 118.135C118.538 117.812 118.798 117.54 119.117 117.532ZM126.029 114.746C125.743 114.806 125.542 114.704 125.416 114.432C125.172 113.897 125.164 113.362 125.382 112.827C125.491 112.555 125.684 112.368 125.953 112.266C126.835 111.935 127.826 111.927 128.934 112.258C129.287 112.36 129.337 112.547 129.094 112.827C128.187 113.854 127.162 114.5 126.029 114.746ZM92.8313 110.364C91.2609 110.449 89.6989 110.423 88.12 110.296C88.0109 110.313 87.9101 110.33 87.8009 110.33C87.8093 110.296 87.8261 110.279 87.8597 110.279C87.9437 110.279 88.036 110.279 88.12 110.296C88.1368 110.296 88.1536 110.296 88.1704 110.296C89.7408 109.922 91.2945 109.931 92.8313 110.313C92.8481 110.313 92.8565 110.33 92.8565 110.347C92.8565 110.364 92.8481 110.372 92.8313 110.372V110.364ZM84.7608 117.532L92.5542 117.337C92.6969 117.328 92.8145 117.421 92.8565 117.549L93.3352 119.188C93.394 119.392 93.2428 119.596 93.0329 119.579L86.9191 119.23C86.8435 119.23 86.768 119.247 86.7092 119.29L85.7098 120.097C85.5418 120.224 85.3067 120.156 85.2395 119.961L84.4837 117.94C84.4081 117.744 84.5509 117.532 84.7608 117.532ZM86.3229 122.39C86.3229 122.092 86.5664 121.846 86.8603 121.846H93.5955C93.8895 121.846 94.133 122.092 94.133 122.39V122.441C94.133 122.738 93.8895 122.984 93.5955 122.984H86.8603C86.5664 122.984 86.3229 122.738 86.3229 122.441V122.39ZM86.6 126.721C86.7008 126.11 86.7092 125.481 86.6252 124.844C86.5832 124.555 86.7092 124.377 86.9947 124.309C87.339 124.233 87.6833 124.284 88.036 124.462C88.3048 124.598 88.5903 124.657 88.901 124.649L93.7299 124.411C94.3346 124.386 94.7964 124.632 95.1156 125.15L95.905 126.458C96.2661 127.044 96.1065 127.324 95.4263 127.307L86.9023 127.078C86.6588 127.069 86.558 126.95 86.6 126.721ZM95.863 118.602C95.7034 118.458 95.5775 118.288 95.4683 118.092C95.3255 117.829 95.4011 117.693 95.7034 117.702C98.7771 117.761 101.775 117.574 104.698 117.141C105.336 117.048 105.689 117.32 105.764 117.973L105.848 118.823C105.907 119.349 105.672 119.579 105.151 119.519C103.749 119.341 102.22 119.434 100.566 119.799C99.3314 120.08 98.2732 119.698 96.9967 119.867C96.7028 119.91 96.5012 119.791 96.3921 119.511L96.2409 119.137C96.1569 118.933 96.031 118.755 95.863 118.602ZM97.1899 123.146L97.2403 122.806C97.2991 122.441 97.5174 122.237 97.8869 122.211C98.7183 122.135 99.5161 122.177 100.289 122.33C101.49 122.577 103.304 122.611 105.722 122.449C105.89 122.432 106.041 122.56 106.058 122.729L106.075 122.95C106.075 122.95 106.058 122.984 106.033 122.993C103.48 123.332 100.767 123.061 97.6686 123.621C97.2823 123.698 97.1227 123.536 97.1899 123.146ZM99.4909 124.326C101.347 124.352 103.11 124.411 104.782 124.487C105.966 124.547 106.806 125.184 107.301 126.407C107.469 126.814 107.889 127.052 108.317 126.993C108.746 126.933 109.14 126.95 109.493 127.052C109.854 127.154 109.846 127.214 109.476 127.239C105.613 127.468 102.355 127.528 99.6925 127.4C99.4489 127.392 99.3146 127.265 99.2894 127.027L99.0039 124.887C98.9619 124.589 99.197 124.318 99.4909 124.326ZM109.669 123.052L109.653 122.441C109.644 122.118 109.896 121.846 110.215 121.838L116.027 121.642C116.346 121.625 116.614 121.88 116.623 122.211L116.64 122.823C116.648 123.146 116.396 123.417 116.077 123.426L110.266 123.621C109.946 123.638 109.678 123.383 109.669 123.052ZM111.492 127.282C111.525 126.127 113.549 125.252 116.01 125.328H116.195C118.655 125.405 120.629 126.398 120.595 127.553V127.672C120.587 127.766 120.511 127.842 120.419 127.834L111.651 127.57C111.559 127.57 111.483 127.494 111.492 127.4V127.282ZM120.268 122.568C119.999 122.356 120.116 121.914 120.461 121.863L127.507 120.878C127.666 120.861 127.817 120.937 127.901 121.073L128.876 122.789C129.027 123.061 128.842 123.383 128.54 123.392L121.536 123.468C121.443 123.468 121.351 123.434 121.284 123.383L120.268 122.568ZM123.845 126.254L128.011 125.303C128.691 125.15 129.413 125.269 130.009 125.642C130.471 125.931 130.925 126.22 131.387 126.517C132.058 126.933 132.008 127.222 131.235 127.384C129.195 127.808 126.927 127.851 124.45 127.502C124.089 127.46 123.795 127.299 123.576 127.035C123.35 126.755 123.492 126.33 123.845 126.254ZM130.891 119.273C130.69 119.281 130.53 119.205 130.404 119.035L129.732 118.092C129.69 118.033 129.699 117.999 129.774 118.007C131.563 118.101 133.755 117.948 136.35 117.549C136.577 117.515 136.803 117.634 136.896 117.846L137.03 118.152C137.248 118.644 137.089 118.908 136.56 118.942L130.891 119.273ZM137.106 125.031L140.079 124.411C140.288 124.369 140.498 124.479 140.582 124.683C140.994 125.71 141.557 126.577 142.27 127.265C142.354 127.35 142.287 127.494 142.17 127.477C140.389 127.256 138.852 127.239 137.568 127.417C136.938 127.511 136.568 127.239 136.442 126.611L136.358 126.161C136.232 125.532 136.484 125.158 137.106 125.031ZM139.339 118.288C138.407 117.872 138.424 117.506 139.407 117.192C140.121 116.963 141.095 116.954 142.312 117.184C144.034 117.506 145.806 117.659 147.612 117.634C148.376 117.625 149.039 117.897 149.585 118.441L150.173 119.035C150.551 119.409 150.291 120.054 149.761 120.063C147.654 120.088 145.537 119.672 143.396 118.797C143.135 118.695 142.875 118.678 142.606 118.746C141.649 118.993 140.557 118.84 139.339 118.288ZM143.622 122.067C143.748 121.753 143.975 121.6 144.32 121.617L151.937 121.982C152.13 121.982 152.188 122.084 152.121 122.262C152.088 122.356 152.012 122.441 151.903 122.5C151.827 122.543 151.743 122.551 151.634 122.543C148.989 122.262 146.503 122.738 144.177 123.986C143.925 124.122 143.748 124.054 143.639 123.791C143.413 123.188 143.404 122.619 143.622 122.067ZM145.814 125.014C148.006 125.566 149.887 125.549 151.466 124.98C152.197 124.717 153.011 125.023 153.398 125.702L153.935 126.645C154.296 127.29 154.112 127.613 153.381 127.613H147.032C146.377 127.613 145.781 127.214 145.529 126.594L145.185 125.753C144.916 125.09 145.126 124.844 145.814 125.014ZM161.006 119.723C160.796 119.715 160.603 119.664 160.427 119.57C158.697 118.729 155.455 118.993 153.633 119.392C153.482 119.426 153.356 119.383 153.263 119.256L152.39 118.101C152.331 118.024 152.356 117.982 152.449 117.973C155.581 117.685 158.747 116.487 161.174 119.383C161.384 119.63 161.334 119.748 161.006 119.723ZM156.001 109.752C153.944 109.778 152.264 109.676 152.264 109.515C152.264 109.353 153.935 109.2 155.993 109.175C158.05 109.149 159.73 109.251 159.73 109.413C159.73 109.574 158.059 109.727 156.001 109.752ZM37.4716 23.1343L37.5892 23.3127C37.6228 23.3721 37.6648 23.3806 37.7236 23.3382C41.1332 21.0281 44.1648 18.2765 46.8102 15.0917C46.9866 14.8793 47.0874 14.6415 47.1209 14.3698C47.1293 14.2339 47.1713 14.1065 47.2301 13.9961C47.3393 13.7753 47.5073 13.6649 47.7508 13.6734C84.4585 13.8517 121.175 13.8177 157.882 13.5884C159.302 13.5799 160.309 14.0385 160.906 14.9728C161.25 15.5163 161.426 16.4845 161.435 17.8858C161.493 30.625 161.527 43.3557 161.535 56.0864C161.535 57.3603 161.477 58.6258 161.367 59.8912C161.342 60.1715 161.225 60.4093 161.006 60.5961C159.142 62.2182 155.942 64.9104 151.399 68.6558C147.427 71.9255 142.791 76.019 137.492 80.9194C132.529 85.5055 126.071 90.839 120.654 96.147C120.125 96.665 119.319 97.2935 118.252 98.0239C117.404 98.6014 116.48 98.9326 115.472 99.026C114.423 99.1195 113.373 99.1619 112.323 99.1534C96.1905 99.1195 80.1419 99.0175 64.1605 98.8562C63.5475 98.8477 63.4887 98.6608 63.9925 98.3041C69.0817 94.6862 73.2807 90.1511 77.9164 85.8962C78.0088 85.8197 78.0088 85.7263 77.9332 85.6329C77.8577 85.5395 77.7653 85.5225 77.6729 85.5989C73.7342 88.6139 70.3079 92.1554 66.5036 95.3147C64.2613 97.1746 61.8175 98.4146 59.1721 99.0345C58.7102 99.1449 58.517 98.9666 58.5842 98.4995C58.6766 97.8455 59.0041 97.4803 59.5584 97.4039C59.8187 97.3614 60.0287 97.2341 60.1715 97.0132C60.7761 96.113 61.7251 95.9431 62.4137 95.2467C64.4544 93.1575 67.3601 90.3549 71.1309 86.8304C73.4319 84.6817 75.8169 82.0319 78.2776 78.8896C78.3111 78.8471 78.3279 78.7962 78.3279 78.7367C78.3195 78.6518 78.3195 78.5754 78.3195 78.5159C78.3195 78.4565 78.2944 78.448 78.2524 78.4904C72.0462 84.8515 65.5546 90.8899 58.7606 96.5886C58.2063 97.0557 57.6185 97.4803 57.0054 97.871C56.7535 98.0324 56.5267 98.1003 56.3168 98.0748C56.1824 98.0579 56.048 98.0239 55.9221 97.9814C55.7121 97.888 55.5441 97.9474 55.4266 98.1513C55.0487 98.7712 54.4692 98.9666 53.6882 98.7543C53.4278 98.6863 53.3439 98.3551 53.537 98.1683L71.8783 79.8832C72.5165 79.2463 72.4577 79.1784 71.7103 79.6794C69.6948 81.0213 67.864 82.5415 66.2096 84.2401C59.8355 90.788 55.2418 95.3826 52.4201 98.0409C51.6391 98.7797 50.7573 99.026 49.7747 98.7882C49.4892 98.7118 49.4388 98.5674 49.6319 98.3381C51.7566 95.7053 54.2677 93.2339 56.258 90.7371C58.0468 88.4949 59.8523 86.2783 61.6915 84.0872C62.7748 82.7878 64.9667 80.8175 68.2839 78.1592C69.4764 77.1995 70.8117 76.1974 72.2898 75.1358C74.7756 73.3608 77.0599 71.2546 79.151 68.8256C79.2265 68.7492 79.2181 68.6643 79.1426 68.5878L78.8822 68.35C78.7814 68.2566 78.6807 68.2566 78.5883 68.3585C75.8421 71.2376 73.2556 73.5476 70.8453 75.2802C66.7639 78.2102 63.3291 81.0383 60.5326 83.7645C59.8607 84.4184 59.508 85.6584 58.895 86.4567C55.7793 90.5247 52.3529 94.304 48.6158 97.8031C47.5744 98.7797 46.3819 99.1959 45.0298 99.0685C44.7275 99.043 44.6771 98.9156 44.8703 98.6863C46.7346 96.4697 49.4976 95.0174 51.5131 92.2828C52.5629 90.8475 53.5454 89.6924 54.4692 88.8007C55.8381 87.4758 57.1818 86.1255 58.4835 84.7411C58.5506 84.6647 58.5506 84.5968 58.4835 84.5203C58.4163 84.4439 58.3407 84.4439 58.2651 84.5033C55.9892 86.3123 53.8981 87.892 51.975 90.2275C49.0273 93.803 46.1552 96.6056 43.3586 98.6524C42.796 99.06 41.8722 99.2808 40.5957 99.3148C40.1842 99.3148 40.159 99.2214 40.5201 99.0175L40.94 98.7797C41.2003 98.6354 41.4187 98.44 41.5951 98.2022C41.721 98.0324 41.8638 97.871 42.015 97.7181C44.9375 94.6607 47.776 91.5184 50.5221 88.2911C53.3859 84.928 57.7276 81.93 60.4318 79.5775C62.3885 77.8874 64.3285 76.1889 66.2516 74.4648C67.3518 73.4882 68.7038 72.4605 70.2911 71.382C72.2814 70.0231 74.616 68.4944 76.1277 66.5835C76.64 65.9296 77.1522 65.2841 77.6645 64.6302C77.9836 64.231 78.2188 64.2735 78.3615 64.7661L79.2853 67.8574C79.3189 67.9678 79.3777 68.0698 79.4533 68.1547C80.9145 69.7598 81.8383 71.5518 83.3584 73.2164C87.5322 77.7855 92.7725 79.6539 99.0626 78.8132C108.25 77.5902 113.994 72.3841 116.295 63.1949C116.824 61.0802 116.606 58.957 116.883 56.7234C116.917 56.4431 117.043 56.2053 117.253 56.0185C124.391 49.6404 131.63 43.3812 138.978 37.2579C140.834 35.7122 142.615 33.8353 144.429 32.1537C144.655 31.9414 144.613 31.8395 144.303 31.848C144.093 31.8564 143.874 31.9584 143.648 32.1367C134.536 39.3811 125.634 46.8887 116.934 54.6681C116.724 54.855 116.388 54.753 116.321 54.4813C114.717 48.3325 111.5 44.0097 106.654 41.5213C102.111 39.1857 97.2403 38.6337 92.0503 39.8652C83.8035 41.827 77.5637 49.9631 77.2194 58.9825C77.211 59.2712 77.1018 59.5515 76.9171 59.7723C75.6322 61.267 74.2045 62.6598 72.6257 63.9423C67.948 67.7385 63.3543 71.6282 58.8278 75.6029C55.4938 78.5414 50.1694 82.8727 46.0964 86.7964C46.0712 86.8219 46.0712 86.8559 46.0964 86.8813L46.2392 87.0427C46.3483 87.1786 46.4743 87.1871 46.6171 87.0767C48.9097 85.1997 51.2024 83.3313 53.5034 81.4544C55.2586 80.0191 57.5093 78.0913 60.2554 75.6708C63.8666 72.4945 67.5701 69.4201 71.3576 66.4561C73.4067 64.851 75.3131 63.093 77.0682 61.1736C77.2446 60.9868 77.3874 60.8764 77.5049 60.8509C77.7737 60.7744 78.0256 61.0122 77.992 61.2925C77.463 65.3945 72.8524 68.7662 69.2749 71.1526C66.5119 72.9956 63.9002 75.0339 61.4563 77.2845C59.4324 79.1444 57.4337 80.9109 55.4602 82.567C52.4621 85.0808 50.4801 86.9068 49.5312 88.0448C46.785 91.3316 44.1732 94.1002 41.6958 96.3423C40.5453 97.3784 39.252 98.1768 37.8076 98.7373C37.522 98.8477 37.3289 98.7628 37.2197 98.4655C37.1609 98.2872 37.1525 98.1003 37.1945 97.905C37.2365 97.7436 37.3457 97.5908 37.522 97.4549C38.8573 96.4697 40.2514 95.7478 41.3935 94.5418C43.2159 92.6055 45.0718 90.6776 46.9614 88.7667C47.0034 88.7243 47.0034 88.6903 46.9614 88.6478L46.8018 88.478C46.6171 88.2826 46.4323 88.2826 46.2392 88.478C44.568 90.1341 42.8464 91.7647 41.0912 93.3613C40.7972 93.6246 40.0498 94.1427 38.8573 94.907C38.0763 95.4081 37.4128 96.0451 36.8502 96.8179C36.6906 97.0387 36.4723 97.1831 36.2119 97.251C35.5317 97.4209 35.0698 97.837 34.8347 98.508C34.7423 98.7712 34.5575 98.9241 34.2804 98.9581C32.3908 99.1959 31.3831 98.2872 31.2739 96.2319C31.1647 94.2191 31.0807 92.2063 31.0136 90.1935C31.0052 89.9982 31.0555 89.1999 31.1563 87.807C31.1983 87.272 31.1731 86.7285 31.0975 86.1849C30.9968 85.497 30.9548 84.9704 30.9632 84.6053C31.0891 79.0595 31.1311 73.5221 31.0975 67.9933C31.0975 67.7131 31.1983 67.4753 31.4083 67.2884C31.7358 66.9997 32.0549 66.6939 32.3824 66.3797C40.5705 58.32 49.1281 50.702 58.0719 43.5086C59.1637 42.6338 60.2638 41.5637 61.3724 40.2813C61.5655 40.052 61.5403 40.035 61.3136 40.2219C51.6559 47.772 42.5104 55.5684 33.8857 63.611C32.8947 64.5368 31.9877 65.471 31.1563 66.4222C31.0052 66.592 30.7364 66.4986 30.7196 66.2778C30.5769 64.5368 30.8792 63.127 32.1221 61.7681C33.2558 60.5282 34.0872 59.6789 34.5995 59.2288C39.2772 55.1352 43.9885 51.0757 48.7334 47.0586C51.9666 44.3154 56.1908 40.587 61.3892 35.8905C66.4028 31.3639 71.5424 26.9731 76.7911 22.7267C76.8667 22.6672 76.8751 22.6078 76.8163 22.5313C76.7575 22.4549 76.6987 22.4464 76.6232 22.5059C74.6328 24.0516 72.4913 25.3849 70.5346 26.9986C57.7612 37.5381 45.3574 48.2561 33.3146 59.1523C32.6512 59.7553 31.9709 60.4008 31.2907 61.1057C31.0891 61.3095 30.9884 61.267 30.9884 60.9868C30.896 49.0119 30.8624 37.0456 30.896 25.0962C30.896 23.4316 30.8876 22.5144 32.0969 21.2489C34.4483 18.8115 37.3876 16.7647 39.9826 14.5821C40.159 14.4377 40.285 14.2339 40.327 14.0131C40.3689 13.8262 40.4361 13.6649 40.5369 13.5205C40.6797 13.3082 40.8728 13.2063 41.1332 13.2147L45.9872 13.4695C46.2643 13.4865 46.3315 13.6139 46.1888 13.8517C43.9801 17.4696 41.0996 20.4251 37.5556 22.7267C37.3876 22.8371 37.3625 22.973 37.4716 23.1428V23.1343ZM161.409 84.0192C161.342 85.5055 161.351 86.9832 161.426 88.461C161.443 88.7073 161.409 88.9111 161.317 89.0895C161.191 89.3357 161.04 89.565 160.864 89.7604C160.712 89.9302 160.704 90.1001 160.838 90.2785C160.897 90.3464 160.956 90.4058 161.032 90.4568C161.149 90.5332 161.208 90.6436 161.216 90.788C161.292 92.4696 161.09 94.1002 160.612 95.6714C160.544 95.8922 160.544 96.13 160.628 96.3423C160.838 96.8943 160.738 97.3699 160.309 97.7861C159.94 98.1513 159.847 98.0918 160.032 97.6077C160.116 97.3784 160.167 97.1576 160.175 96.9368C160.175 96.648 160.049 96.4952 159.763 96.4697C158.655 96.3678 157.966 95.7818 157.706 94.7032C157.639 94.4229 157.462 94.3125 157.185 94.355C156.581 94.4484 156.245 94.8561 156.178 95.561C156.127 96.079 155.85 96.3338 155.338 96.3423C154.557 96.3508 154.288 96.7585 154.515 97.5823C154.582 97.8286 154.8 97.9984 155.061 98.0154L155.766 98.0579C156.077 98.0748 156.303 97.7776 156.211 97.4803C156.127 97.2086 156.119 96.9368 156.186 96.6735C156.245 96.4272 156.379 96.2234 156.589 96.0451C156.933 95.7648 157.278 95.6799 157.639 95.7903C157.924 95.8837 158.109 96.0705 158.185 96.3593C158.311 96.8434 158.26 97.2935 158.033 97.7181C157.899 97.9729 157.689 98.1088 157.404 98.1173L156.665 98.1343C156.413 98.1428 156.203 98.2447 156.026 98.4315C155.833 98.6354 155.598 98.7882 155.321 98.8902C155.077 98.9836 154.809 98.8732 154.699 98.6354C154.649 98.5165 154.573 98.4146 154.481 98.3296C154.422 98.2702 154.347 98.2362 154.263 98.2277C152.936 98.0324 151.718 98.2787 150.618 98.9666C150.341 99.1449 150.089 99.1195 149.845 98.8902L149.442 98.5165C149.241 98.3296 149.006 98.2617 148.737 98.3041C147.805 98.4655 146.898 98.6778 146.008 98.9496C145.957 98.9581 145.924 98.9411 145.907 98.8986L145.84 98.6778C145.781 98.491 145.84 98.3636 146.016 98.2872C146.755 97.9644 147.192 97.4209 147.326 96.648C147.368 96.3848 147.519 96.2404 147.779 96.2149C148.09 96.1725 148.342 96.062 148.552 95.8837C149.518 95.0684 148.896 94.0662 150.635 93.4632C150.895 93.3698 151.063 93.2 151.156 92.9367C151.449 92.028 152.037 91.3995 152.919 91.0343C153.179 90.9239 153.398 90.771 153.591 90.5672C155.313 88.7243 157.11 86.9493 158.974 85.2507C159.646 84.6392 160.032 83.9173 160.368 83.102C160.536 82.6859 160.46 82.6349 160.133 82.9407L145.865 96.5801C145.722 96.7245 145.604 96.8858 145.529 97.0727C144.63 99.1959 142.573 98.8137 140.692 98.7458C140.591 98.7458 140.54 98.6948 140.54 98.5844C140.549 98.457 140.608 98.3976 140.725 98.3976C141.271 98.3891 141.657 98.1088 141.876 97.5568C141.96 97.319 142.119 97.1067 142.321 96.9538C144.311 95.3826 146.217 93.4548 148.048 91.1532C149.249 89.65 150.719 88.2062 152.449 86.8304C155.329 84.5458 158.151 81.8876 160.931 78.8556C161.082 78.6943 161.225 78.6263 161.351 78.6518C161.435 78.6518 161.51 78.7028 161.577 78.7707C161.72 78.8981 161.754 79.0595 161.678 79.2378C160.948 80.9194 161.477 82.6604 161.409 84.0192ZM160.209 65.1652C157.026 68.0358 153.792 70.8384 150.492 73.5646C147.796 75.7982 144.798 78.5074 141.489 81.6922C137.962 85.0978 134.275 88.3251 130.421 91.3655C129.002 92.4781 127.591 93.7605 126.197 95.2128C124.576 96.8943 123.165 98.2022 121.964 99.1279C121.351 99.6035 120.612 99.714 119.764 99.4677C119.478 99.3827 119.445 99.2384 119.663 99.043C123.039 95.9941 126.339 92.3677 129.405 89.5566C132.436 86.7794 135.468 83.9938 138.483 81.1996C141.615 78.2951 144.865 75.4245 148.25 72.5964C151.584 69.8193 154.909 67.0167 158.21 64.1886C159.226 63.3223 160.125 62.2352 161.107 61.25C161.317 61.0377 161.426 61.0802 161.426 61.3859L161.367 73.675C161.367 73.9383 161.267 74.1421 161.057 74.3035C156.245 78.0063 151.601 81.9045 147.133 85.9981C146.495 86.5841 145.227 87.9769 143.329 90.1935C141.229 92.6479 138.391 95.0854 134.821 97.5058C134.561 97.6842 134.569 97.854 134.83 98.0239C135.141 98.2192 135.485 98.2022 135.863 97.9559C136.887 97.2935 138.113 96.3593 139.533 95.1533C143.303 91.9685 145.999 87.8665 149.77 84.6477C153.137 81.7687 156.732 78.6943 160.553 75.4245C161.107 74.9489 161.401 75.0763 161.435 75.8152C161.435 75.9086 161.435 76.036 161.451 76.1974C161.485 76.9362 161.25 77.5732 160.738 78.1083C158.294 80.6986 155.85 82.9916 153.423 84.9959C151.332 86.7285 149.493 88.495 147.889 90.2869C146.016 92.3847 144.32 94.0832 142.783 95.3826C141.515 96.4612 140.532 97.4209 139.843 98.2787C139.667 98.4995 139.44 98.6354 139.163 98.6778C138.004 98.8817 136.476 98.8137 134.578 98.4655C133.872 98.3381 132.697 98.3211 131.059 98.423C130.958 98.4315 129.942 98.44 128.019 98.4485C126.684 98.4485 125.374 98.6948 124.089 99.1874C123.761 99.3148 123.551 99.3233 123.467 99.2129C123.274 98.9666 123.316 98.6014 123.568 98.4061C125.054 97.2595 126.432 96.0196 127.7 94.6947C129.069 93.2764 130.454 92.0789 131.865 91.0853C133.411 89.9897 134.897 88.8262 136.333 87.5862C139.071 85.2167 141.691 82.7538 144.202 80.1975C146.696 77.6581 149.182 75.399 151.651 73.4287C154.431 71.2121 157.026 69.0719 159.436 67.0082C160.015 66.5071 160.377 65.955 160.511 65.3521C160.603 64.9699 160.502 64.9019 160.209 65.1652ZM91.3113 48.7826C91.3953 47.9843 91.832 47.5851 92.6298 47.5766C93.3268 47.5681 94.175 47.8314 95.166 48.3665C99.8605 50.8973 104.244 53.9038 108.317 57.3858C108.888 57.8784 108.939 58.7616 108.426 59.3137C107.511 60.3073 106.587 61.1821 105.663 61.921C102.38 64.5622 99.0123 66.9827 95.5691 69.1908C94.914 69.6155 94.175 69.9722 93.3604 70.2524C92.5794 70.5242 91.7312 70.125 91.4288 69.3522C90.6982 67.5092 90.8074 65.9041 90.7318 63.9592C90.5555 58.974 90.7486 53.9208 91.3113 48.7826ZM38.9665 13.7498C37.7824 15.2615 36.3967 16.6119 34.8095 17.8009C33.5666 18.7266 32.3992 19.7372 31.2991 20.8328C31.2319 20.9007 31.1647 20.9942 31.1059 21.1046C31.0723 21.164 31.0388 21.2235 30.9968 21.2829C30.9464 21.3593 30.9044 21.3593 30.8708 21.2659C30.2409 19.355 30.3165 17.614 31.0975 16.0513C31.7106 14.8114 32.7855 13.9536 34.3224 13.478C35.7416 13.0364 37.1861 12.8835 38.6558 13.0194C39.0085 13.0534 39.1848 13.4695 38.9665 13.7498ZM30.5265 103.018C31.1059 103.018 31.5678 103.221 31.5678 103.459C31.5678 103.697 31.0975 103.884 30.5265 103.884C29.9554 103.884 29.4851 103.68 29.4851 103.442C29.4851 103.204 29.9554 103.018 30.5265 103.018ZM164.508 89.565L164.391 89.03C164.315 88.6818 164.458 88.5289 164.802 88.5544C165.046 88.5714 165.281 88.5969 165.516 88.6223C165.776 88.6478 165.97 88.5459 166.079 88.2996C166.289 87.8155 166.725 87.6202 167.372 87.7136C167.918 87.7985 168.153 88.461 167.792 88.8771L165.953 90.9918C165.768 91.2042 165.499 91.3231 165.222 91.3316C164.231 91.3485 163.946 91.0343 164.357 90.3804C164.517 90.1341 164.567 89.8623 164.508 89.565ZM165.012 93.8879C164.878 93.9898 164.676 93.9473 164.601 93.7945C164.198 93.0131 164.198 92.3422 164.601 91.7817C164.819 91.4759 165.273 91.4844 165.483 91.7987C165.995 92.5545 165.835 93.2509 165.004 93.8879H165.012ZM9.30471 139.486C9.21233 140.828 8.59927 141.872 7.93583 141.83L7.6335 141.804C6.97006 141.762 6.49977 140.632 6.59215 139.299L6.64254 138.628C6.65933 138.305 6.93647 138.059 7.25559 138.084L8.81762 138.195C9.13675 138.22 9.38029 138.501 9.35509 138.823L9.30471 139.486ZM10.9507 139.443L10.8499 141.864C10.8415 141.957 10.766 142.034 10.6736 142.025L10.0185 142C9.92616 142 9.85058 141.915 9.85897 141.821L9.95975 139.392C9.99334 138.653 10.1865 138.067 10.3964 138.076H10.6316C10.8415 138.093 10.9843 138.696 10.9507 139.443ZM13.277 139.222L12.9159 140.513C12.8487 140.751 12.8739 140.98 12.9998 141.193L13.1426 141.448C13.3022 141.728 13.2266 141.915 12.9326 142.017C12.6807 142.11 12.4288 142.136 12.1684 142.11C11.8577 142.085 11.7065 141.906 11.7149 141.592L11.8073 138.365C11.8157 137.881 12.0257 137.779 12.4204 138.059L13.0166 138.484C13.2518 138.653 13.3609 138.951 13.277 139.222ZM15.1245 141.898C15.1161 142.161 14.8978 142.365 14.6374 142.356H14.4023C14.142 142.339 13.9404 142.119 13.9488 141.855L14.0664 138.356C14.0748 138.093 14.2931 137.889 14.5535 137.898H14.7886C15.0489 137.915 15.2505 138.135 15.2421 138.399L15.1245 141.898ZM18.4417 141.668C18.4165 141.991 18.1478 142.237 17.8287 142.254L17.476 142.271C17.3332 142.28 17.1988 142.314 17.0729 142.373C16.8545 142.467 16.6278 142.518 16.3926 142.509C16.0903 142.501 15.9391 142.339 15.9307 142.025V138.934C15.9139 138.271 16.5354 137.779 17.1736 137.932L17.6103 138.042C18.2654 138.203 18.7021 138.823 18.6433 139.503L18.4417 141.668ZM22.1201 138.985C21.8597 140.046 21.8009 141.082 21.9521 142.085C22.0109 142.45 21.8513 142.611 21.4902 142.569C21.1627 142.526 20.894 142.373 20.7008 142.11C20.5412 141.889 20.4069 141.906 20.2977 142.161C20.1633 142.492 19.9198 142.671 19.5671 142.713C19.2396 142.747 19.0884 142.603 19.1052 142.271L19.2479 138.543C19.2563 138.314 19.4075 138.118 19.6175 138.042L20.0038 137.889C20.2809 137.787 20.4069 137.889 20.3817 138.186C20.2809 139.299 20.2473 140.42 20.2893 141.558C20.2893 141.583 20.2977 141.592 20.3229 141.592H20.5832C20.7008 141.609 20.8016 141.516 20.8016 141.397L20.8436 138.263C20.8436 138.059 21.0367 137.906 21.2383 137.957L21.5574 138.033C21.9773 138.135 22.2292 138.56 22.1201 138.985ZM24.1692 142.051C24.144 142.467 23.7745 142.781 23.363 142.755H23.2454C22.8255 142.713 22.5148 142.348 22.5484 141.932L22.7751 138.798C22.8003 138.382 23.1698 138.067 23.5813 138.093H23.6989C24.1188 138.135 24.4295 138.501 24.3959 138.917L24.1692 142.051ZM26.0419 142.603C26.0335 142.764 25.9076 142.883 25.748 142.883L25.3113 142.866C25.1518 142.866 25.0342 142.722 25.0342 142.569L25.2021 137.762C25.2105 137.6 25.3365 137.481 25.4961 137.481L25.9328 137.498C26.0923 137.498 26.2099 137.643 26.2099 137.796L26.0419 142.603ZM29.8546 141.711C29.5943 142.28 29.2752 142.594 28.8805 142.662C28.7041 142.688 28.343 142.679 27.8055 142.628C27.562 142.603 27.3352 142.535 27.1253 142.424C26.8062 142.246 26.655 141.974 26.6634 141.6L26.7306 138.39C26.739 138.093 27.0581 137.915 27.31 138.059L27.52 138.178C27.7467 138.305 27.8811 138.552 27.8727 138.815C27.8307 140.004 27.8307 141.031 27.8559 141.889C27.8643 142.008 27.9231 142.068 28.0491 142.076H28.1078C28.1078 142.076 28.175 142.059 28.1834 142.017C28.3346 140.666 28.469 139.469 28.5865 138.424C28.7377 137.091 29.1912 136.98 29.947 138.076C30.5769 138.985 30.5433 140.199 29.8546 141.711ZM32.7771 142.237C32.7855 142.509 32.6512 142.654 32.3824 142.662L30.7028 142.755C30.4593 142.764 30.3669 142.654 30.4257 142.416C30.8288 140.785 31.1059 139.367 31.2655 137.787C31.2991 137.507 31.4503 137.397 31.7274 137.473L32.3237 137.643C32.626 137.728 32.7771 137.932 32.7771 138.246V142.237ZM35.3301 142.22C35.3217 142.611 35.011 142.908 34.6247 142.9H34.2888C33.9109 142.883 33.6085 142.569 33.6169 142.178L33.7093 137.881C33.7177 137.49 34.0284 137.193 34.4148 137.201H34.7507C35.1286 137.218 35.4309 137.532 35.4225 137.923L35.3301 142.22ZM37.7656 142.136C37.7656 142.535 37.4296 142.84 37.0433 142.832H36.657C36.2707 142.815 35.96 142.492 35.9684 142.093L36.0524 138.254C36.0524 137.855 36.3883 137.549 36.7746 137.558H37.1609C37.5472 137.575 37.8579 137.898 37.8495 138.297L37.7656 142.136ZM40.6965 140.14C40.5453 141.804 39.949 143.104 39.3612 143.053C38.7817 143.002 38.4374 141.609 38.5886 139.944C38.7397 138.28 39.336 136.98 39.9239 137.031C40.5117 137.082 40.8476 138.475 40.6965 140.14ZM42.8212 142.56L42.8044 142.705C42.7792 142.9 42.6028 143.036 42.4097 143.01L41.3263 142.883C41.1332 142.857 40.9988 142.679 41.0156 142.484L41.0324 142.339C41.3767 139.443 41.9814 137.125 42.3845 137.176L42.712 137.218C43.1151 137.261 43.1655 139.656 42.8212 142.56ZM44.5092 142.577C44.4672 142.789 44.3328 142.9 44.1145 142.9H43.7449C43.409 142.917 43.2747 142.755 43.3418 142.416C43.5434 141.439 43.5518 140.437 43.367 139.392C43.325 139.172 43.3334 138.934 43.3754 138.713C43.5014 138.101 43.7617 137.651 44.1564 137.363C44.274 137.278 44.4336 137.337 44.4672 137.481C44.8283 139.256 44.8451 140.955 44.5092 142.577ZM144.924 142.662L142.153 142.705C141.867 142.713 141.683 142.569 141.599 142.288C141.128 140.7 141.162 139.324 141.691 138.161C142.22 136.997 142.564 137.048 142.732 138.314C142.749 138.45 142.909 138.603 143.203 138.764C143.555 138.968 143.992 138.721 144.017 138.314C144.017 138.093 143.992 137.881 143.9 137.677C143.782 137.414 143.866 137.269 144.143 137.244C144.445 137.21 144.714 137.295 144.941 137.498C145.151 137.685 145.26 137.923 145.268 138.203L145.327 142.229C145.336 142.509 145.201 142.654 144.924 142.662ZM147.082 142.373C147.082 142.654 146.856 142.874 146.587 142.874H146.537C146.259 142.874 146.041 142.645 146.041 142.373L146.058 138.84C146.058 138.56 146.285 138.339 146.553 138.339H146.604C146.881 138.339 147.099 138.569 147.099 138.84L147.082 142.373ZM148.342 142.823H148.241C147.88 142.832 147.586 142.543 147.586 142.186L147.519 138.127C147.519 137.77 147.796 137.473 148.157 137.464H148.258C148.619 137.456 148.913 137.745 148.913 138.101L148.98 142.161C148.98 142.518 148.703 142.815 148.342 142.823ZM150.904 142.152C150.845 142.467 150.66 142.662 150.349 142.739C149.837 142.857 149.526 142.671 149.417 142.178C149.174 141.065 149.274 139.791 149.736 138.348C149.795 138.152 149.778 137.974 149.677 137.804L149.518 137.549C149.426 137.397 149.442 137.252 149.551 137.116C149.593 137.057 149.661 137.023 149.745 137.006C149.845 136.98 149.929 137.006 150.005 137.091L151.256 138.586C151.391 138.747 151.449 138.959 151.416 139.172L150.904 142.152ZM153.07 142.518V142.628C153.07 142.755 152.961 142.849 152.835 142.849L151.811 142.815C151.685 142.806 151.584 142.705 151.592 142.577V142.467C151.685 139.681 151.937 137.43 152.163 137.439L152.818 137.456C153.045 137.464 153.163 139.732 153.07 142.518ZM154.716 142.535L154.187 142.671C153.658 142.806 153.423 142.603 153.499 142.051C153.616 141.099 153.667 140.182 153.641 139.307C153.625 138.798 153.776 138.305 154.078 137.889C154.221 137.694 154.406 137.558 154.615 137.481C154.968 137.363 155.346 137.626 155.346 138.008L155.38 141.668C155.38 142.136 155.161 142.424 154.716 142.535ZM157.496 141.524C157.588 141.804 157.538 142.051 157.353 142.271C156.975 142.73 156.488 142.815 155.884 142.518C155.774 142.458 155.724 142.322 155.774 142.203C156.253 141.133 156.345 140.182 156.052 139.35C155.842 138.764 156.194 138.127 156.791 138C157.118 137.932 157.345 138.101 157.471 138.509C157.756 139.367 157.11 140.327 157.496 141.524ZM159.839 142.127C159.772 142.416 159.596 142.603 159.318 142.688C159.108 142.755 158.915 142.747 158.739 142.654C158.495 142.535 158.369 142.339 158.344 142.076L158.109 139.588C158.067 139.146 158.21 138.781 158.529 138.484L159.016 138.033C159.411 137.668 159.663 137.753 159.789 138.271C160.099 139.639 160.116 140.93 159.839 142.127ZM162.274 142.237C162.274 142.433 162.123 142.586 161.93 142.586L160.855 142.569C160.662 142.569 160.511 142.407 160.511 142.22L160.536 140.683C160.561 138.942 160.906 137.541 161.309 137.549H161.611C162.014 137.558 162.325 138.968 162.3 140.7L162.274 142.237ZM163.887 142.535C163.878 142.637 163.803 142.713 163.702 142.705H163.408C162.837 142.679 162.4 141.685 162.451 140.479V140.293C162.501 139.087 162.997 138.127 163.576 138.144L163.87 138.161C163.962 138.161 164.038 138.246 164.038 138.339L163.887 142.535ZM167.38 140.199C167.238 140.445 167.179 140.709 167.196 140.989C167.229 141.439 167.187 141.872 167.07 142.288C166.994 142.56 166.835 142.645 166.574 142.552C166.012 142.339 165.457 142.348 164.895 142.577C164.534 142.722 164.357 142.603 164.366 142.203L164.475 138.594C164.483 138.348 164.71 138.178 164.945 138.237L165.189 138.305C165.634 138.416 165.818 138.704 165.726 139.163C165.516 140.293 165.424 140.904 165.457 141.006C165.785 141.983 165.995 141.957 166.079 140.93C166.154 140.063 166.054 138.407 166.977 137.779C167.229 137.6 167.414 137.66 167.532 137.949C167.842 138.721 167.792 139.477 167.38 140.199ZM169.824 139.214C169.623 140.114 169.564 140.98 169.656 141.804C169.69 142.11 169.497 142.39 169.203 142.467C168.9 142.552 168.581 142.543 168.237 142.441C167.935 142.348 167.784 142 167.918 141.711C168.17 141.142 168.254 140.513 168.178 139.825C168.136 139.537 168.195 139.273 168.355 139.027L168.556 138.713C168.665 138.552 168.733 138.365 168.766 138.169C168.791 137.957 168.867 137.753 168.993 137.575C169.161 137.312 169.337 137.303 169.53 137.549C169.875 138.008 169.975 138.56 169.824 139.214ZM172.974 142.297C172.94 142.484 172.738 142.594 172.562 142.518L172.327 142.424C172.075 142.314 171.924 142.059 171.949 141.779C172.008 141.142 171.991 140.564 171.882 140.029C171.773 139.494 171.655 139.494 171.537 140.029C171.395 140.709 171.37 141.38 171.462 142.034C171.504 142.339 171.378 142.501 171.067 142.518L170.782 142.535C170.513 142.535 170.37 142.416 170.345 142.144L170.093 139.231C170.068 138.925 170.185 138.696 170.454 138.552C170.79 138.365 171.118 138.382 171.445 138.603C171.655 138.738 171.823 138.704 171.966 138.501C172.092 138.331 172.226 138.186 172.386 138.067C172.688 137.838 172.881 137.915 172.957 138.28C173.217 139.486 173.217 140.828 172.974 142.297ZM174.317 142.696C173.939 142.696 173.637 141.626 173.637 140.31C173.637 138.993 173.939 137.923 174.317 137.923C174.695 137.923 174.997 138.993 174.997 140.31C174.997 141.626 174.695 142.696 174.317 142.696ZM176.736 141.261L176.895 141.66C176.946 141.787 176.921 141.94 176.828 142.042C176.543 142.382 176.215 142.509 175.837 142.433C175.476 142.356 175.342 142.136 175.426 141.779C175.602 141.04 175.636 140.14 175.535 139.061C175.459 138.271 175.753 138.084 176.417 138.509C176.979 138.866 177.089 139.409 176.753 140.148C176.593 140.513 176.585 140.879 176.736 141.261ZM178.802 141.813C178.785 142.11 178.541 142.331 178.256 142.314H178.004C177.718 142.288 177.5 142.042 177.508 141.753L177.66 138.543C177.676 138.246 177.92 138.025 178.205 138.042H178.457C178.743 138.067 178.961 138.314 178.953 138.603L178.802 141.813ZM180.666 140.225C180.616 141.677 180.33 142.84 180.036 142.823C179.734 142.806 179.541 141.626 179.591 140.182C179.642 138.73 179.927 137.566 180.221 137.583C180.523 137.6 180.717 138.781 180.666 140.225ZM181.951 142.713C181.64 142.713 181.38 141.651 181.363 140.327C181.346 139.002 181.581 137.932 181.884 137.923C182.195 137.923 182.455 138.985 182.472 140.31C182.488 141.634 182.253 142.705 181.951 142.713ZM183.521 142.416C183.269 142.416 183.06 141.448 183.06 140.259C183.06 139.07 183.269 138.101 183.521 138.101C183.773 138.101 183.983 139.07 183.983 140.259C183.983 141.448 183.773 142.416 183.521 142.416ZM185.613 140.352C185.545 141.6 185.277 142.603 184.999 142.594C184.722 142.577 184.554 141.549 184.622 140.301C184.689 139.053 184.958 138.05 185.235 138.059C185.512 138.076 185.68 139.104 185.613 140.352ZM187.72 140.123C187.569 141.32 187.183 142.263 186.855 142.22C186.536 142.178 186.41 141.167 186.57 139.97C186.721 138.772 187.107 137.83 187.435 137.872C187.754 137.915 187.88 138.925 187.72 140.123ZM189.492 141.923C189.467 142.136 189.274 142.297 189.064 142.271L188.863 142.246C188.653 142.229 188.501 142.034 188.518 141.813L188.871 138.416C188.896 138.203 189.089 138.042 189.299 138.067L189.501 138.084C189.711 138.101 189.862 138.297 189.845 138.518L189.492 141.915V141.923ZM185.025 135.859C178.264 136.029 174.863 136.114 174.838 136.114C162.652 136.191 150.467 136.208 138.281 136.165C138.013 136.165 137.786 136.258 137.601 136.454C137.517 136.547 137.416 136.607 137.307 136.649C137.122 136.709 136.996 136.649 136.938 136.462C136.862 136.216 136.719 136.055 136.526 135.987C136.199 135.868 136.047 135.987 136.056 136.335L136.131 138.628C136.14 139.036 136.316 139.121 136.644 138.891C136.887 138.713 137.038 138.467 137.089 138.144C137.148 137.745 137.374 137.507 137.769 137.431L138.139 137.354C138.508 137.278 138.684 137.43 138.676 137.813L138.542 141.753C138.542 141.957 138.684 142.127 138.886 142.144L139.247 142.178C139.449 142.195 139.524 142.11 139.474 141.915C138.945 140.021 139.264 138.518 140.414 137.405C141.019 136.819 141.263 136.946 141.137 137.787C140.935 139.172 140.893 140.59 141.011 142.025C141.053 142.569 140.809 142.84 140.272 142.832L136.896 142.798C136.551 142.798 136.325 142.433 136.467 142.119C136.845 141.295 136.887 140.522 136.577 139.783C136.451 139.486 136.35 139.494 136.266 139.8C136.039 140.581 135.989 141.176 136.115 141.592C136.375 142.433 136.064 142.84 135.199 142.815C127.263 142.552 119.529 142.178 111.702 142.22C101.968 142.28 92.2435 142.288 82.5102 142.246C76.9759 142.22 72.7769 142.288 69.9131 142.433C66.2768 142.62 62.9764 142.611 60.0119 142.399C59.7348 142.382 59.4576 142.424 59.1973 142.526C58.9285 142.628 58.6514 142.679 58.3743 142.688C58.0887 142.696 57.904 142.382 58.0551 142.136C58.3575 141.66 58.4835 141.142 58.4331 140.581C58.4079 140.25 58.2819 140.199 58.0551 140.445C57.8704 140.658 57.778 140.862 57.7864 141.074C57.8116 142.237 57.3245 142.84 56.3252 142.891C56.0396 142.9 55.9305 142.772 56.006 142.492C56.2496 141.592 56.2748 140.692 56.0732 139.8C56.006 139.494 55.9137 139.486 55.7961 139.775C55.519 140.479 55.3678 141.201 55.3426 141.949C55.3342 142.229 55.1998 142.424 54.9311 142.518C54.1081 142.798 53.1507 142.849 52.0674 142.679C50.7909 142.484 48.6914 142.526 45.7773 142.806C45.5001 142.832 45.3238 142.705 45.265 142.424C45.0046 141.176 45.0214 139.936 45.2986 138.687C45.3574 138.399 45.5421 138.271 45.836 138.305C46.0964 138.331 46.2811 138.467 46.3819 138.696C46.5163 139.027 46.6003 139.01 46.6339 138.662C46.6674 138.246 46.6171 137.855 46.4743 137.481C46.3567 137.184 46.4323 137.116 46.7094 137.269C48.1455 138.042 48.4982 139.265 47.776 140.938C47.7172 141.082 47.7424 141.252 47.8432 141.371L48.0615 141.643C48.1623 141.753 48.2547 141.753 48.3387 141.626C48.7166 141.04 48.8257 140.445 48.6494 139.825C48.5738 139.554 48.5906 139.29 48.6998 139.036C48.9265 138.509 49.296 138.11 49.7915 137.83C50.0351 137.702 50.2114 137.762 50.3206 138.008C50.4885 138.399 50.7741 138.653 51.1856 138.764C51.5047 138.857 51.6895 138.738 51.7482 138.407C51.807 138.05 51.6475 137.762 51.278 137.549C51.2444 137.524 51.2444 137.473 51.2864 137.456C51.3535 137.422 51.4207 137.38 51.4795 137.337C51.5299 137.303 51.5719 137.312 51.6139 137.354C52.0254 137.787 52.5041 137.864 53.0415 137.566C53.2851 137.439 53.4614 137.498 53.5622 137.762C53.6378 137.974 53.6798 138.203 53.6798 138.433C53.6798 138.891 53.8226 138.942 54.1081 138.586C54.486 138.127 54.7295 137.592 54.8387 136.98C54.8471 136.938 54.8723 136.895 54.9143 136.87L55.2502 136.692C55.4686 136.564 55.5861 136.632 55.6113 136.887L55.7457 138.424C55.7709 138.755 55.9221 138.832 56.1908 138.645C56.955 138.118 57.2909 137.431 57.207 136.581C57.1734 136.292 57.0138 136.148 56.7199 136.148C46.4911 136.123 36.2791 136.148 26.0755 136.216C18.996 136.258 11.9921 136.157 5.07211 135.893C4.76978 135.885 4.61022 135.528 4.80337 135.29L22.8759 113.438C23.3966 112.801 24.1692 112.419 24.9922 112.394L34.6919 112.062C35.4561 112.037 35.5485 112.266 34.9606 112.767C34.4903 113.167 34.0284 113.719 33.5834 114.44C32.3992 116.351 31.1731 118.237 29.9218 120.097C28.0323 122.908 26.2939 125.719 24.7235 128.513C24.4043 129.082 24.7738 129.795 25.4205 129.855C27.6208 130.05 29.8546 130.152 32.1221 130.161C63.0352 130.195 93.7215 130.186 124.164 130.135C141.893 130.101 157.572 130.118 171.21 130.186C171.722 130.186 172.025 129.617 171.739 129.184C168.724 124.623 165.617 120.25 162.417 116.08C161.485 114.857 160.343 113.829 158.999 113.243C156.69 112.232 156.791 111.876 159.285 112.164C161.166 112.377 163.366 112.377 165.877 112.147C168.716 111.884 171.143 112.75 173.158 114.746C180.381 121.906 187.872 128.759 195.631 135.307C195.908 135.537 195.867 135.749 195.522 135.944C195.472 135.97 195.421 135.978 195.363 135.978C191.928 135.817 188.476 135.774 185.025 135.859ZM191.374 141.872C191.374 141.872 191.365 141.923 191.332 141.932L191.012 141.991C190.727 142.034 190.593 141.915 190.609 141.626L190.786 138.781C190.803 138.577 190.996 138.441 191.18 138.501L191.466 138.586C191.525 138.602 191.55 138.645 191.533 138.713C191.29 139.647 191.239 140.7 191.374 141.872Z" fill="#002657"/>
<path d="M42.8381 15.3206C42.9557 15.2612 43.0565 15.1933 43.1489 15.0998C43.2916 14.9639 43.3504 14.8026 43.3252 14.6242C43.3084 14.4799 43.258 14.3355 43.1657 14.1911C42.9893 13.9278 42.771 13.8769 42.5022 14.0467C42.2671 14.1911 42.1243 14.4289 42.0739 14.7431C42.0319 15.0149 41.8976 15.2357 41.6792 15.3971C39.0842 17.3674 36.7244 19.5925 34.6081 22.0724C34.5577 22.1234 34.5577 22.1743 34.6165 22.2253C34.6669 22.2762 34.7173 22.2762 34.7677 22.2253C37.2703 19.8813 39.8568 17.6392 42.5358 15.4905C42.603 15.4395 42.7038 15.3801 42.8381 15.3122V15.3206Z" fill="#002657"/>
<path d="M36.6156 14.3446C34.5245 14.9306 33.0884 16.162 32.3158 18.0474C32.0807 18.6249 32.1982 18.7099 32.6685 18.3107C32.7021 18.2852 32.7441 18.2088 32.8029 18.0899C32.8449 18.0135 32.8953 17.9455 32.9541 17.8861C34.1886 16.799 35.4651 15.7204 36.7668 14.6418C37.1867 14.2936 37.1363 14.2002 36.6156 14.3446Z" fill="#002657"/>
<path d="M50.8755 16.1958C50.9847 16.1363 51.0771 16.0514 51.1527 15.941C51.2283 15.8391 51.2283 15.7456 51.1443 15.6522C51.0351 15.5333 50.8504 15.5163 50.7244 15.6097C49.9266 16.2127 49.2379 16.9601 48.6417 17.8519C48.3225 18.3359 48.3897 18.3954 48.8348 18.0302C49.5487 17.4442 50.0945 16.6629 50.8755 16.1958Z" fill="#002657"/>
<path d="M47.3062 19.8392C47.9276 19.2192 48.3727 18.6502 48.2971 18.5652C48.2215 18.4888 47.6589 18.9304 47.0374 19.5589C46.416 20.1789 45.9709 20.7479 46.0465 20.8243C46.122 20.9008 46.6847 20.4591 47.3062 19.8307V19.8392Z" fill="#002657"/>
<path d="M117.656 58.9486L117.581 59.0251C117.513 59.0845 117.505 59.1949 117.564 59.2629L118.017 59.7639C118.084 59.8319 118.185 59.8404 118.261 59.7809L118.336 59.7045C130.883 48.1628 140.935 38.6678 140.784 38.5064L140.641 38.3451C140.49 38.1752 130.203 47.4069 117.656 58.9486Z" fill="#002657"/>
<path d="M160.016 70.108L152.937 76.588C152.895 76.6305 152.861 76.673 152.836 76.7324C152.794 76.8343 152.743 76.9278 152.693 77.0127C152.55 77.2335 152.349 77.3099 152.097 77.242L151.878 77.1825C151.635 77.1146 151.417 77.174 151.24 77.3524C149.015 79.4841 146.42 81.378 144.371 83.4587C140.272 87.6287 136.006 91.8581 131.572 96.147C131.303 96.4102 130.598 96.9198 129.464 97.6757C129.279 97.8031 129.347 98.1003 129.573 98.1173L130.463 98.1937C130.615 98.2107 130.774 98.1598 130.892 98.0494C135.847 93.6331 140.591 88.9706 145.118 84.0532C145.748 83.3738 146.739 82.4566 148.091 81.31C149.208 80.3673 150.711 78.2187 152.055 77.8705C152.433 77.777 152.785 77.5987 153.105 77.3524C155.691 75.3311 158.143 73.0211 160.453 70.4308C160.478 70.4053 160.478 70.3713 160.453 70.3458L160.226 70.1165C160.159 70.0486 160.092 70.0486 160.016 70.108Z" fill="#002657"/>
<path d="M26.4031 76.2905C26.5627 76.2905 26.697 75.7725 26.7054 75.1355C26.7138 74.4985 26.5879 73.9805 26.4199 73.9805C26.252 73.9805 26.126 74.4985 26.1176 75.1355C26.1092 75.7725 26.2352 76.2905 26.4031 76.2905Z" fill="#002657"/>
<path d="M32.3824 76.4441L32.7351 76.0449C32.8359 75.926 32.9534 75.8241 33.0794 75.7477C33.3565 75.5694 33.4993 75.425 33.5077 75.3146C33.6001 74.3719 33.3313 74.2445 32.6931 74.9324C32.3488 75.2976 32.164 75.7732 32.1388 76.3422C32.122 76.6055 32.206 76.6394 32.3824 76.4441Z" fill="#002657"/>
<path d="M76.1871 76.9707C76.1284 76.8943 76.0528 76.8858 75.9772 76.9453C75.045 77.7096 74.0288 78.3636 72.9455 78.9071C72.8447 78.9581 72.8195 79.0345 72.8699 79.1364C72.9203 79.2468 72.9959 79.2723 73.0883 79.2213C74.1968 78.6693 75.2214 77.9899 76.1619 77.2001C76.2375 77.1321 76.2459 77.0557 76.1871 76.9792V76.9707Z" fill="#002657"/>
<path d="M32.5506 80.3505C33.0797 80.1042 33.2813 79.6541 33.1469 79.0001C33.1049 78.7878 33.1553 78.6095 33.3065 78.4651C33.4324 78.3377 33.4996 78.2613 33.508 78.2273C33.7431 77.4714 33.55 77.3271 32.9285 77.8112C32.1979 78.3802 31.9124 79.136 32.0551 80.0787C32.0971 80.393 32.2651 80.4779 32.5506 80.3505Z" fill="#002657"/>
<path d="M26.5465 78.6856C26.4038 78.6771 26.2526 79.2631 26.2022 80.002C26.1518 80.7324 26.2358 81.3439 26.3786 81.3524C26.5213 81.3609 26.6725 80.7749 26.7229 80.036C26.7733 79.3056 26.6893 78.6941 26.5465 78.6856Z" fill="#002657"/>
<path d="M34.4908 81.3268C34.9023 81.2674 35.171 80.9956 35.3054 80.5285C35.3642 80.3162 35.4817 80.1293 35.6413 79.9849C35.8848 79.7556 36.0024 79.5009 35.994 79.2036C35.994 78.8894 35.9016 78.8639 35.7085 79.1102L34.2892 80.9956C34.0793 81.2674 34.1464 81.3778 34.4908 81.3268Z" fill="#002657"/>
<path d="M26.6221 82.7109H26.6137C26.5213 82.7109 26.4625 82.7534 26.4541 82.8553C26.3785 83.9084 26.3197 84.9615 26.2861 86.0231C26.2861 86.1675 26.3533 86.2355 26.4961 86.2439H26.706C26.706 86.2439 26.7648 86.2185 26.7648 86.193C26.7564 85.0804 26.7564 83.9679 26.7564 82.8468C26.748 82.7619 26.706 82.7194 26.6221 82.7109Z" fill="#002657"/>
<path d="M32.1557 85.5222C33.2307 85.3439 33.7178 84.656 33.6086 83.45C33.5834 83.1357 33.4238 83.0338 33.1299 83.1357C32.4497 83.3735 32.0886 83.9171 32.0382 84.7749C32.0382 84.8513 32.0214 84.9277 31.9878 85.0042C31.9626 85.0721 31.929 85.1485 31.9038 85.225C31.8282 85.4628 31.9122 85.5647 32.1557 85.5222Z" fill="#002657"/>
<path d="M35.3729 84.5714C35.3896 84.6988 35.5408 84.7668 35.65 84.6988C36.2714 84.3421 36.4898 83.892 36.2966 83.34C36.2462 83.1956 36.0615 83.1446 35.9439 83.255C35.482 83.6882 35.2973 84.1213 35.3729 84.5714Z" fill="#002657"/>
<path d="M35.2882 86.932C35.1874 87.2378 35.1538 87.4161 35.1874 87.4756C35.5989 88.2569 35.8676 88.206 35.9852 87.3312C36.086 86.5753 36.4387 86.0998 37.0434 85.9129C37.5053 85.7685 37.7488 85.3864 37.774 84.7664C37.7908 84.4606 37.69 84.4097 37.4633 84.6135C36.8166 85.2165 36.1868 85.8365 35.5653 86.4734C35.4393 86.6093 35.347 86.7622 35.2882 86.932Z" fill="#002657"/>
<path d="M33.6924 87.1704C33.7176 86.7288 34.0787 86.3806 34.5154 86.3891C34.8681 86.3976 35.0697 86.2277 35.1285 85.888C35.204 85.4124 35.0445 85.302 34.6414 85.5653C33.1213 86.5589 32.0632 88.0706 31.4837 90.1004C31.3746 90.4571 31.4837 90.5336 31.7861 90.3212C32.987 89.4805 33.6168 88.4358 33.6924 87.1704Z" fill="#002657"/>
<path d="M35.9353 92.1219C36.8255 90.8565 37.7072 89.5741 38.5722 88.2747C38.7486 88.0199 38.9753 87.833 39.2609 87.7141L39.706 87.5358C39.9747 87.4254 40.1007 87.23 40.0839 86.9328C40.0671 86.6355 39.9495 86.4147 39.7396 86.2704C39.5632 86.143 39.4288 86.1854 39.3449 86.3893L39.1517 86.8733C39.0761 87.0517 38.9502 87.1281 38.7738 87.1111C38.2951 87.0687 37.9172 87.2895 37.6317 87.7906C37.5309 87.9689 37.4889 88.2831 37.5141 88.7503C37.5225 89.0135 37.4385 89.2343 37.2454 89.4127C36.5483 90.0836 35.9017 90.814 35.3222 91.6038C34.6924 92.4616 33.9701 93.3449 33.1387 94.2451C32.8784 94.5254 32.7272 94.4744 32.6852 94.0922L32.6097 93.4468C32.6013 93.3703 32.6265 93.3024 32.6768 93.2514C33.3991 92.5805 33.9281 91.8586 34.2641 91.0688C34.4572 90.6187 34.3312 90.4913 33.8862 90.6866C32.9876 91.0858 32.2989 91.7312 31.837 92.623C31.6943 92.8862 31.6691 93.158 31.7531 93.4468C32.0386 94.4489 32.1142 95.553 31.9798 96.7675C31.9714 96.8099 32.005 96.8439 32.0386 96.8524L32.2653 96.8864C32.4081 96.9033 32.4921 96.8439 32.5173 96.6995C32.7356 95.6209 33.2059 94.7462 33.9365 94.0837C35.1039 93.0051 35.7757 92.3512 35.9353 92.1219Z" fill="#002657"/>
<path d="M160.125 86.5589C160.016 86.474 159.915 86.491 159.84 86.6099C158.58 88.6227 157.077 90.3382 155.322 91.7735C154.356 92.5633 153.827 93.5655 152.937 94.4318C152.844 94.5252 152.735 94.5422 152.617 94.4742L152.374 94.3299C152.114 94.1685 151.962 94.2449 151.937 94.5507L151.828 95.6208C151.803 95.7906 151.878 95.8671 152.055 95.8501L153.104 95.7227C153.39 95.6887 153.541 95.5273 153.566 95.2386C153.592 94.8904 153.734 94.6101 153.986 94.3978C156.573 92.1217 158.748 89.6843 160.503 87.094C160.579 86.9751 160.562 86.8732 160.453 86.7882L160.125 86.5589Z" fill="#002657"/>
<path d="M26.0424 91.3396L26.4119 91.4331C26.6387 91.4925 26.7562 91.3991 26.7646 91.1613L26.8402 87.4584C26.8402 87.2291 26.6219 87.0678 26.4119 87.1442L26.1096 87.2546C26.0592 87.2716 26.034 87.3056 26.0424 87.3565C26.2188 88.5965 26.1348 89.777 25.7905 90.8895C25.7233 91.0849 25.8409 91.2972 26.0424 91.3396Z" fill="#002657"/>
<path d="M44.627 87.2211C44.1399 87.374 43.7452 87.6882 43.4345 88.1638C43.3925 88.2233 43.3505 88.2742 43.2917 88.3167C43.233 88.3592 43.1658 88.4101 43.107 88.4611C42.7795 88.7243 42.8131 88.8093 43.2246 88.7243C43.9216 88.5885 44.4843 88.2148 44.9042 87.6118C45.1897 87.2126 45.0973 87.0767 44.627 87.2211Z" fill="#002657"/>
<path d="M41.8726 88.4182C41.7718 88.3333 41.671 88.3333 41.5618 88.4182C38.2782 91.2633 35.7504 93.964 33.9784 96.5033C33.7685 96.8091 33.4829 97.0129 33.105 97.1233C32.9035 97.1828 32.7775 97.3102 32.7271 97.5225C32.618 98.0066 33.0295 98.1594 33.9616 97.9641C34.012 97.9556 34.054 97.9301 34.0792 97.8877L35.7924 95.5097C35.8176 95.4672 35.8596 95.4332 35.9016 95.4078C36.607 94.9237 37.1529 94.5075 37.6568 93.7941C38.9417 91.9512 40.5121 90.38 42.3596 89.0976C42.4772 89.0127 42.4772 88.9193 42.368 88.8258L41.8726 88.4097V88.4182Z" fill="#002657"/>
<path d="M159.05 93.0892C158.84 92.8259 158.848 92.5626 159.083 92.3163L159.352 92.0361C159.612 91.7643 159.562 91.6963 159.209 91.8237C158.605 92.053 158.201 92.3928 157.991 92.8429C157.849 93.1486 157.916 93.4119 158.176 93.6242L159.688 94.8302C159.755 94.8811 159.822 94.8811 159.898 94.8387C159.99 94.7792 160.057 94.7113 160.083 94.6264C160.125 94.5075 160.108 94.3971 160.032 94.3036L159.05 93.0892Z" fill="#002657"/>
<path d="M26.6135 92.4356C26.3364 92.529 26.1264 92.7074 25.9836 92.9707C25.8409 93.2509 25.9081 93.4632 26.1684 93.6161L26.9746 94.0662C27.1762 94.1851 27.2601 94.1257 27.2265 93.8964C27.2014 93.7605 27.1174 93.6501 26.9746 93.5652C26.9662 93.3019 26.9746 93.0301 26.9998 92.7414C27.025 92.4441 26.899 92.3422 26.6135 92.4356Z" fill="#002657"/>
<path d="M131.748 92.5547C130.53 93.1492 129.464 94.2193 128.54 95.765C128.229 96.3 128.305 96.3594 128.767 95.9603C128.792 95.9348 128.834 95.8584 128.893 95.7395C128.935 95.663 128.977 95.5951 129.035 95.5441C130.22 94.3806 131.177 93.4634 131.916 92.8095C132.462 92.3254 132.411 92.2404 131.748 92.5547Z" fill="#002657"/>
<path d="M26.1938 94.9832C26.0846 95.1531 26.0174 95.3399 25.9922 95.5353C25.9587 95.8155 26.0678 96.0193 26.3282 96.1382C26.6053 96.2741 26.832 96.461 27 96.7073C27.2268 97.0385 27.3275 97.0045 27.2939 96.5969C27.2351 95.9599 27.042 95.4248 26.7313 94.9747C26.5465 94.7115 26.3702 94.7114 26.1938 94.9832Z" fill="#002657"/>
<path d="M150.686 96.3762C150.006 96.3508 149.577 96.716 149.409 97.4633C149.342 97.7776 149.46 98.0918 149.695 98.2616C149.804 98.3381 149.922 98.3551 150.048 98.3041C150.09 98.2871 150.132 98.2786 150.174 98.2871C150.871 98.3805 151.24 97.9729 151.299 97.0642C151.324 96.699 151.047 96.3932 150.686 96.3762Z" fill="#002657"/>
<path d="M26.4288 107.162C26.7311 106.661 26.7899 106.202 26.6052 105.803C26.4624 105.489 26.3112 105.489 26.1517 105.786C25.8577 106.338 25.7822 106.788 25.9333 107.128C26.0761 107.451 26.244 107.459 26.4288 107.162Z" fill="#002657"/>
<path d="M77.1018 113.336C77.3286 113.565 77.5805 113.65 77.8409 113.599C78.1852 113.531 78.2104 113.404 77.9165 113.209C76.556 112.317 73.9946 112.122 72.5753 112.682C72.399 112.75 72.3234 112.903 72.3402 113.141C72.357 113.336 72.5333 113.48 72.7265 113.463L76.4216 113.098C76.6819 113.073 76.9087 113.149 77.1018 113.336Z" fill="#002657"/>
<path d="M180.977 128.794C180.649 128.938 180.423 129.244 180.372 129.601C180.297 130.195 180.49 130.603 180.969 130.824C181.481 131.07 181.54 130.976 181.162 130.56C180.927 130.306 180.826 130.025 180.859 129.711C180.901 129.363 181.128 129.1 181.556 128.913C182.749 128.403 183.648 128.802 184.252 130.102C184.311 130.229 184.403 130.263 184.529 130.204L184.756 130.085C184.882 130.017 184.916 129.923 184.857 129.796C184.126 128.284 182.833 127.953 180.977 128.794Z" fill="#002657"/>
<path d="M122.762 133.414C122.519 133.252 122.401 133.32 122.393 133.617C122.393 134.152 122.25 134.73 121.998 135.367C121.922 135.554 122.09 135.758 122.284 135.707C122.779 135.579 123.123 135.29 123.333 134.84C123.459 134.569 123.451 134.305 123.325 134.042C123.199 133.779 123.006 133.566 122.762 133.414Z" fill="#002657"/>
<path d="M75.9938 134.279C75.5571 134.628 75.3135 135.12 75.2715 135.757C75.2631 135.8 75.2463 135.825 75.2043 135.842C75.1288 135.867 75.0448 135.867 74.9692 135.85C74.8264 135.808 74.7593 135.715 74.776 135.562C74.8096 135.23 74.7341 134.984 74.5493 134.84C74.3226 134.661 74.1714 134.712 74.0874 134.993C73.8271 135.901 74.1294 136.521 74.9944 136.853C75.2715 136.955 75.5151 136.904 75.7334 136.708C76.3969 136.122 76.632 135.366 76.4556 134.458C76.3969 134.143 76.2373 134.084 75.9938 134.279Z" fill="#002657"/>
<path d="M70.9549 135.019C70.6946 135.01 70.4594 136.055 70.4258 137.346C70.3922 138.637 70.577 139.69 70.8373 139.698C71.0977 139.707 71.3328 138.662 71.3664 137.371C71.4 136.08 71.2152 135.027 70.9549 135.019Z" fill="#002657"/>
<path d="M116.942 135.553C116.791 135.358 116.589 135.265 116.346 135.265L80.7381 135.299C80.0327 135.299 79.3945 135.732 79.1341 136.403L77.9416 139.418C77.7148 140.012 77.9164 140.309 78.5463 140.309L117.941 140.377C118.126 140.377 118.294 140.479 118.378 140.649C118.512 140.929 118.739 141.031 119.05 140.938C119.344 140.844 119.445 140.658 119.369 140.36C118.89 138.568 118.084 136.963 116.942 135.553Z" fill="#002657"/>
<path d="M127.406 135.129L127.196 135.112C127.07 135.104 126.986 135.163 126.961 135.29C126.759 136.335 126.776 137.354 127.011 138.365C127.036 138.458 127.095 138.509 127.188 138.518L127.557 138.543C127.675 138.543 127.775 138.458 127.767 138.339L127.624 135.358C127.624 135.24 127.523 135.138 127.406 135.129Z" fill="#002657"/>
<path d="M135.023 136.488C135.057 136.174 134.922 136.021 134.611 136.013C134.427 136.004 134.242 136.055 134.049 136.149C133.814 136.276 133.587 136.267 133.36 136.132C132.781 135.8 132.176 135.724 131.546 135.902C131.269 135.979 131.093 136.166 131.017 136.446C130.58 138.153 131.462 139.452 131.084 141.066C131.051 141.202 131.101 141.287 131.244 141.312L131.529 141.355C131.672 141.38 131.748 141.321 131.756 141.176C131.882 139.673 131.966 138.204 132.008 136.768C132.017 136.607 132.084 136.531 132.226 136.531C132.411 136.539 132.512 136.633 132.529 136.819C132.579 137.346 132.848 137.626 133.327 137.669C133.587 137.694 133.73 137.839 133.747 138.11C133.805 139.07 133.705 140.089 133.453 141.159C133.243 142.068 133.52 142.263 134.284 141.737C134.863 141.338 134.931 140.921 134.486 140.48C134.242 140.234 134.175 139.953 134.292 139.622C134.653 138.611 134.897 137.567 135.023 136.488Z" fill="#002657"/>
<path d="M64.1275 136.216L58.652 136.114C58.3665 136.105 58.1733 136.241 58.081 136.504C57.8374 137.167 57.8206 137.829 58.0306 138.483C58.1229 138.763 58.2489 138.78 58.4085 138.526C58.5932 138.237 58.778 137.948 58.9627 137.668C59.1223 137.413 59.2567 137.422 59.3658 137.702C59.5506 138.169 59.7354 138.695 59.9117 139.281C60.0041 139.579 60.1133 139.587 60.256 139.315C60.5416 138.772 60.6171 138.152 60.4828 137.464C60.3736 136.912 60.5752 136.742 61.0874 136.954L61.4821 137.124C61.9608 137.32 62.196 137.676 62.196 138.194C62.196 138.95 62.1876 139.749 62.1792 140.581C62.1708 140.963 62.28 141.235 62.5067 141.396C62.6999 141.541 62.809 141.49 62.8258 141.243L63.0946 137.413C63.1282 136.98 63.3045 136.903 63.632 137.184C64.6482 138.059 64.9841 139.171 64.6398 140.538C64.581 140.759 64.581 140.938 64.6398 141.073C64.7154 141.269 64.833 141.405 65.0009 141.481C65.278 141.608 65.4208 141.515 65.446 141.209L65.6728 137.923C65.7315 137.014 65.0345 136.233 64.1359 136.216H64.1275Z" fill="#002657"/>
<path d="M124.963 136.105C124.719 135.927 124.602 135.986 124.602 136.284C124.602 136.632 124.711 136.887 124.921 137.031C124.988 137.073 125.038 137.124 125.08 137.201C125.164 137.345 125.282 137.439 125.441 137.481C125.618 137.524 125.685 137.464 125.643 137.286C125.509 136.742 125.282 136.351 124.963 136.105Z" fill="#002657"/>
<path d="M67.1844 137.363C67.4531 138.433 67.4615 139.588 67.2012 140.836C67.176 140.981 67.2264 141.066 67.3691 141.1L67.6127 141.159C67.7134 141.185 67.8142 141.108 67.831 140.998L67.9738 139.596C68.0074 139.231 68.1082 138.883 68.2761 138.552C68.6708 137.753 68.6036 137.151 68.0914 136.751C67.2096 136.072 66.9072 136.276 67.1844 137.363Z" fill="#002657"/>
<path d="M73.466 136.649C73.2309 136.709 73.2813 137.66 73.5836 138.764C73.8775 139.868 74.3058 140.709 74.541 140.65C74.7761 140.59 74.7257 139.639 74.4234 138.535C74.1295 137.431 73.7012 136.59 73.466 136.649Z" fill="#002657"/>
<path d="M129.271 137.898C129.094 137.906 129.019 137.991 129.035 138.161C129.069 138.475 129.178 138.696 129.355 138.832C129.632 139.036 129.833 138.959 129.959 138.611C130.01 138.492 129.984 138.348 129.909 138.237C129.749 138.008 129.539 137.898 129.271 137.898Z" fill="#002657"/>
<path d="M7.87776 139.172C7.58383 140.14 7.58383 140.794 7.86936 141.134C8.09611 141.414 8.26407 141.372 8.35645 141.023C8.5664 140.251 8.51601 139.622 8.20528 139.121C8.06252 138.892 7.95334 138.909 7.87776 139.172Z" fill="#002657"/>
<path d="M143.463 139.834C143.304 139.715 143.068 139.792 143.018 139.987C142.858 140.624 143.018 141.048 143.488 141.261C143.681 141.354 143.799 141.295 143.849 141.082C143.875 140.989 143.875 140.896 143.849 140.802C143.833 140.709 143.765 140.488 143.656 140.14C143.614 140.012 143.547 139.91 143.455 139.834H143.463Z" fill="#002657"/>
<path d="M53.4366 139.936C53.1679 139.919 52.9159 140.454 52.8655 141.125C52.8236 141.796 52.9999 142.356 53.2687 142.382C53.5374 142.399 53.7893 141.864 53.8397 141.193C53.8817 140.522 53.7053 139.961 53.4366 139.936Z" fill="#002657"/>
<path d="M51.0518 140.318L50.7999 140.488C50.6487 140.599 50.5227 140.573 50.4219 140.412C50.3296 140.276 50.2456 140.208 50.1616 140.208C49.8761 140.217 49.6661 140.488 49.7333 140.769C49.8761 141.372 50.17 141.601 50.6151 141.465C51.0938 141.321 51.3709 141.015 51.4381 140.565C51.4885 140.2 51.3625 140.115 51.0518 140.318Z" fill="#002657"/>
</g>
<defs>
<clipPath id="clip0_0_703">
<rect width="211" height="154" fill="white"/>
</clipPath>
</defs>
</svg>
