<svg width="24" height="24" viewBox="0 0 24 24" fill="none" xmlns="http://www.w3.org/2000/svg">
<path id="Shape" opacity="0.6" fill-rule="evenodd" clip-rule="evenodd" d="M5 0H19C21.762 0 24 2.239 24 5V19C24 21.761 21.762 24 19 24H5C2.239 24 0 21.761 0 19V5C0 2.239 2.239 0 5 0ZM8 19V8H5V19H8ZM6.5 6.732C5.534 6.732 4.75 5.942 4.75 4.968C4.75 3.994 5.534 3.204 6.5 3.204C7.466 3.204 8.25 3.994 8.25 4.968C8.25 5.942 7.467 6.732 6.5 6.732ZM17 19H20V12.241C20 6.988 14.396 7.179 13 9.765V8H10V19H13V13.396C13 10.283 17 10.028 17 13.396V19Z" fill="#121247"/>
</svg>
