<svg width="204" height="178" viewBox="0 0 204 178" fill="none" xmlns="http://www.w3.org/2000/svg">
<path fill-rule="evenodd" clip-rule="evenodd" d="M16.8456 71.6094C38.3836 71.4125 59.8366 71.6608 81.3978 71.2331C81.7239 71.1763 82.0538 71.3103 82.248 71.5783C82.4423 71.8464 82.4668 72.2017 82.3113 72.494C82.1558 72.7862 81.8474 72.9643 81.5167 72.9529C60.198 73.375 38.2697 73.861 16.9623 73.2962C15.7344 73.2638 15.5825 71.6214 16.8456 71.6094ZM65.2542 38.957C68.8457 54.9557 46.8288 63.8882 36.8087 53.7677C32.2129 49.1225 31.4921 41.5595 33.9922 35.7122C37.7258 26.9795 47.3654 24.4726 55.7313 28.0592C60.2913 30.014 64.098 33.8046 65.2542 38.957ZM63.2607 37.1563C61.8863 33.6176 59.0705 30.8314 55.5178 29.4949C46.1265 26.2051 37.0334 28.0881 34.3153 38.5891C32.8799 44.1326 34.4257 50.8465 39.2936 54.2524C50.4783 62.0777 69.0359 51.2123 63.2607 37.157V37.1563ZM17.6331 23.4239C17.6331 22.89 16.766 22.9026 16.7189 23.4168C15.5494 35.7199 16.1281 48.6097 16.1718 60.9782C16.1788 62.8324 16.8265 62.9681 17.9869 63.0441C36.4221 64.2582 61.7353 63.578 80.1339 62.7627C80.7985 62.7332 80.8175 61.6035 80.1339 61.5916C59.5791 61.2068 37.9559 62.6199 17.7302 61.4066C18.0466 49.0015 17.6985 35.9042 17.6331 23.4239ZM81.9734 61.8034C82.0438 62.3514 83.1296 62.4252 83.1183 61.8119C82.8778 48.8912 82.9889 35.8741 82.6549 22.9935C82.6085 21.2224 82.5782 21.3757 80.6569 21.2976C60.9657 20.5309 39 20.9094 19.3875 22.039C19.0768 22.0534 18.8366 22.317 18.8509 22.6278C18.8653 22.9385 19.1288 23.1788 19.4396 23.1644C40.0099 23.0941 60.8011 22.2627 81.3475 22.9281C80.5965 33.1632 80.697 51.7688 81.9734 61.8034ZM55.9479 42.0034C53.5308 40.5854 50.1354 38.3662 47.4272 36.8855C45.6191 35.8951 45.4785 37.2506 46.7725 38.146C48.5967 39.4079 51.9836 41.0264 54.3212 42.6604C51.639 44.3141 49.0679 46.0571 46.3378 47.7052C45.9468 44.1066 45.7661 40.5643 45.2506 36.9559C45.1585 36.3087 44.2597 36.4979 44.2766 37.112C44.3856 41.108 44.9334 45.0337 45.0699 48.9762C45.1042 49.1922 45.2371 49.3798 45.4293 49.484C45.6215 49.5882 45.8512 49.5971 46.0509 49.508C48.4012 48.2932 54.0322 44.9521 56.1167 43.1387C56.2871 42.9837 56.3691 42.7539 56.3352 42.526C56.3013 42.2981 56.1561 42.1021 55.9479 42.0034ZM122.688 32.0505C125.631 31.8613 125.529 29.9586 122.496 30.1703C113.222 30.8181 103.729 30.6416 94.4363 30.4031C90.3476 30.2983 89.9411 31.997 94.1388 32.156C103.21 32.5007 113.654 32.6301 122.685 32.0505H122.688ZM131.791 64.5051C131.952 61.4469 131.933 58.3819 131.735 55.3258C131.692 54.8616 130.844 54.7976 130.765 55.2702C130.368 57.6477 130.87 61.9736 130.773 64.5551C130.749 65.1122 131.753 65.0636 131.788 64.5051H131.791ZM18.0233 0.450303C29.7755 0.415837 117.337 -0.149694 121.969 0.0381125C132.158 0.45171 132.762 12.3933 131.54 12.5839C130.238 12.7872 8.86121 11.9973 7.58058 11.8946C6.69025 11.8228 6.27111 0.48477 18.0233 0.450303ZM120.279 6.92156C120.272 7.56942 120.546 8.18837 121.031 8.61844C121.515 9.04851 122.162 9.2475 122.805 9.16398C123.703 9.02641 124.432 8.36511 124.656 7.48445C124.88 6.60379 124.556 5.67441 123.833 5.12406C123.11 4.57371 122.128 4.50903 121.339 4.95978C120.668 5.38321 120.266 6.12549 120.279 6.91874V6.92156ZM112.666 8.41471C113.37 9.24608 114.562 9.46691 115.517 8.94297C116.39 8.34841 116.77 7.25125 116.451 6.24403C116.077 5.24095 115.065 4.6251 114.002 4.75494C113.204 4.88389 112.539 5.43395 112.262 6.19311C111.984 6.95227 112.139 7.80197 112.666 8.41471ZM104.278 8.55557C105.046 9.20227 106.137 9.299 107.006 8.79754C108.501 7.97175 108.466 5.48102 106.76 4.89439C105.742 4.59416 104.645 4.95896 104.011 5.80881C103.422 6.66729 103.535 7.82427 104.277 8.55346L104.278 8.55557ZM130.75 15.2892C130.945 25.0509 130.08 34.8176 130.599 44.649C130.629 45.225 131.599 45.1849 131.59 44.6264C131.433 34.9456 132.454 24.925 131.76 15.2667C131.717 14.6842 130.738 14.7152 130.748 15.2871L130.75 15.2892ZM123.705 22.2322C112.766 22.7436 102.045 22.0163 91.1508 22.0149C90.7218 22.0149 90.6424 22.7886 91.0594 22.9708C94.4083 24.417 118.794 24.2524 123.752 23.8789C124.192 23.8479 124.53 23.4749 124.518 23.0333C124.505 22.5917 124.147 22.2383 123.705 22.2322ZM15.3125 87.2101C23.1138 87.2509 31.2941 87.9677 37.5074 87.514C38.07 87.4725 38.148 86.5173 37.5566 86.5004C30.2012 86.2894 23.1595 85.8167 16.2 85.6627C11.4882 85.5579 8.86712 83.6847 8.38609 78.7659C7.57523 70.4615 7.89381 59.9148 7.84739 51.4515C7.79394 42.1737 8.66247 16.575 8.44305 13.9802C8.43297 13.6974 8.21457 13.4662 7.93292 13.4399C7.65127 13.4137 7.39396 13.6008 7.3319 13.8768C7.02317 15.413 6.54636 34.1635 6.38039 48.6717C6.2749 57.8637 5.86771 70.5614 6.83118 79.4102C7.34034 84.1032 10.4966 87.1869 15.3125 87.2101ZM99.9941 85.6922C86.6448 86.5151 71.2891 85.9735 57.5172 86.3252C56.9257 86.34 56.9236 87.3529 57.5242 87.3691C71.1618 87.7327 86.3965 87.1172 100.001 87.132C100.82 87.132 100.82 85.6436 99.9941 85.6943V85.6922ZM93.1211 39.8306C91.5443 40.2041 91.7518 41.2248 93.3433 41.2255C95.8638 41.2255 98.5861 40.9441 101.197 40.9124C102.868 40.8928 103.581 39.576 100.861 39.365C98.2719 39.2433 95.6771 39.3992 93.1211 39.8299V39.8306ZM135.909 107.025C134.725 103.518 132.924 100.251 130.591 97.3776C130.257 96.9338 130.818 96.2522 131.279 96.6363C134.209 99.3137 136.246 102.826 137.116 106.699C144.184 104.801 151.729 106.702 157.055 111.721C157.744 93.8656 142.787 81.732 127.899 80.6312C125.704 85.7315 116.051 87.7306 114.249 82.4452C106.736 83.9385 95.9101 89.3385 92.026 95.7901C96.9432 95.7584 100.361 95.7507 102.985 96.2332C105.489 96.6939 107.174 98.4714 107.304 100.599C107.488 104.682 107.98 108.745 108.774 112.755C110.681 107.815 115.184 106.575 119.206 106.482C122.69 106.402 131.135 108.162 135.909 107.024V107.025ZM133.048 71.2176C139.577 69.8505 146.279 69.5182 152.911 70.2328C159.39 70.9123 163.49 71.7718 165.021 78.8846C167.304 89.4996 164.927 106.574 161.27 116.793C158.123 125.585 152.357 124.755 144.664 125.34C144.073 125.385 143.915 126.404 144.564 126.425C151.884 126.664 158.067 126.374 161.423 120.416C166.597 111.229 168.473 90.6981 166.955 80.1817C165.961 73.2954 163.038 69.9824 156.016 69.068C148.816 68.1297 139.67 67.9257 132.731 70.1695C132.456 70.2681 132.306 70.565 132.391 70.8445C132.476 71.124 132.765 71.2878 133.048 71.2169V71.2176ZM166.096 73.0711C170.803 74.7733 175.897 76.6015 179.317 80.4434C187.022 89.0952 182.903 103.304 180.982 113.411C178.849 124.636 176.814 135.88 174.691 147.104C174.027 150.614 175.355 151.705 175.979 148.567C178.206 137.367 180.299 126.111 182.439 114.892C184.47 104.241 188.639 90.0814 181.569 80.4955C177.964 75.6104 172.052 73.7168 166.458 72.1419C165.859 71.9773 165.48 72.8481 166.096 73.0718V73.0711ZM138.88 172.483C138.616 173.576 140.254 173.885 140.525 172.731C142.956 162.406 146.257 150.129 147.433 139.892C148.365 131.779 147.7 126.552 138.527 125.683C131.164 124.98 125.071 127.942 123.73 135.685C121.978 145.806 123.027 162.159 123.388 172.961C123.385 173.244 123.612 173.475 123.894 173.478C124.176 173.481 124.408 173.255 124.411 172.973C124.723 162.168 124.231 151.05 124.877 140.347C125.32 133.015 127.076 127.587 135.558 127.158C144.879 126.688 146.739 130.243 145.923 138.927C144.885 149.944 140.597 165.383 138.882 172.482L138.88 172.483ZM184.074 156.339C185.074 154.415 188.421 150.993 190.366 150.982C191.984 150.974 190.945 154.155 191.459 155.948C195.637 156.315 196.408 156.266 199.21 159C199.568 159.351 199.999 159.166 199.692 158.655C199.055 157.555 198.155 156.63 197.074 155.961C198.498 153.818 200.751 152.568 201.426 152.661C202.7 152.836 201.106 157.142 201.925 160.555C202.479 162.862 203.472 165.54 202.514 168.244C201.769 170.347 200.571 172.262 196.948 173.407C193.621 174.462 187.325 173.658 184.488 172.085C188.631 169.571 187.125 163.392 180.773 165.423C172.161 168.176 167.824 168.799 158.761 167.276C158.122 167.169 157.972 167.876 158.637 168.003C165.905 169.546 173.452 169.133 180.509 166.807C183.947 165.722 186.37 167.877 184.723 170.165C183.053 172.486 178.585 173.341 175.875 173.752C167.689 174.997 159.021 174.082 155.247 173.627C148.231 172.783 151.819 154.895 170.095 152.455C175.33 151.756 180.706 153.219 183.646 155.162C182.241 157.524 181.373 160.165 181.102 162.9C181.064 163.431 181.646 163.306 181.764 162.786C182.252 160.546 183.029 158.378 184.076 156.339L184.074 156.339ZM165.737 154.63C164.672 155.193 163.925 156.589 163.557 157.693C163.148 158.883 163.091 160.166 163.391 161.388C163.532 161.958 164.108 162.014 164.107 161.414C164.088 160.28 164.327 159.158 164.804 158.13C164.981 157.752 165.935 156.259 166.315 155.637C166.714 154.989 166.378 154.294 165.739 154.629L165.737 154.63ZM171.167 153.364C169.658 154.179 168.776 155.983 168.243 157.544C167.711 159.204 167.662 160.982 168.103 162.669C168.227 163.212 168.81 163.172 168.845 162.634C168.973 160.664 169.304 157.878 170.732 156.052C171.176 155.482 171.58 154.883 171.943 154.258C172.353 153.554 171.701 153.072 171.169 153.36L171.167 153.364ZM175.78 154.455C174.886 155.284 174.156 156.274 173.63 157.374C172.938 158.799 172.709 160.404 172.975 161.966C173.082 162.521 173.678 162.616 173.741 162.007C173.916 160.486 174.446 159.027 175.288 157.749C175.763 157.023 176.31 156.347 176.922 155.732C178.492 154.134 177.242 153.164 175.782 154.455L175.78 154.455ZM197.58 164.672C198.152 164.336 198.884 164.482 199.283 165.011C199.72 165.613 200.184 165.274 199.936 164.53C199.711 164.011 199.243 163.638 198.687 163.533C198.131 163.429 197.559 163.607 197.16 164.008C197.029 164.142 197.008 164.348 197.108 164.506C197.209 164.664 197.405 164.731 197.582 164.668L197.58 164.672ZM193.227 166.021C193.298 166.542 194.224 167.603 194.81 167.575C195.499 167.542 196.465 166.821 196.398 166.131C196.33 165.442 193.127 165.253 193.229 166.017L193.227 166.021ZM189.793 164.414C190.297 163.881 191.106 163.773 191.732 164.155C192.305 164.582 192.818 164.051 192.329 163.557C191.888 163.099 191.255 162.879 190.625 162.963C189.995 163.048 189.443 163.428 189.138 163.987C188.835 164.48 189.462 164.732 189.794 164.41L189.793 164.414ZM67.3198 111.553C67.5554 109.589 67.6714 108.623 65.5785 108.521C59.5614 108.229 55.2842 109.748 51.5914 112.623C47.5546 115.765 44.5131 120.797 44.2332 125.979C44.1864 126.249 44.3668 126.505 44.6361 126.552C44.9055 126.598 45.1618 126.418 45.2086 126.149C46.1573 121.281 48.3922 116.831 52.3755 113.738C56.6056 110.453 61.1262 109.413 66.338 109.795C65.9764 115.01 63.8348 119.942 60.2717 123.766C56.0458 128.273 52.5358 129.276 46.921 130.548C46.6856 130.614 46.5342 130.842 46.5654 131.085C46.5967 131.327 46.8011 131.51 47.0455 131.514C51.9282 131.453 57.8307 128.13 61.1459 124.652C64.5207 121.037 66.6796 116.457 67.3198 111.553ZM109.599 172.997C107.954 169.389 103.866 164.76 99.4141 165.659C96.6363 166.222 93.5701 169.193 92.2107 171.606C91.4968 172.872 91.8182 174.329 93.4224 174.531C97.1397 174.866 100.875 174.963 104.604 174.821C108.232 174.778 113.69 174.567 117.136 173.656C117.78 173.487 117.461 172.608 116.896 172.601C114.474 172.551 112.032 172.823 109.599 172.997ZM77.0429 174.519C81.2343 174.756 86.9497 174.738 90.9203 173.759C91.5364 173.608 91.2614 172.732 90.7002 172.732C90.1235 172.732 89.5476 172.752 88.9723 172.772C88.07 170.564 86.9701 168.318 84.7914 167.127C81.2878 165.212 77.5879 167.976 75.1807 170.411C72.0687 173.56 73.8325 174.337 77.0429 174.519ZM32.0053 124.951C32.2969 124.937 32.5254 124.695 32.5218 124.403C32.5182 124.111 32.2838 123.875 31.992 123.868C26.3286 123.841 20.8615 122.936 15.8233 120.227C8.42993 116.25 4.01135 110.281 1.26864 102.536C5.8124 101.974 13.1284 101.622 19.5217 103.444C29.1993 106.197 33.1727 112.793 34.9984 122.057C35.1102 122.625 36.0821 122.558 36.0308 121.957C34.4224 103.344 17.7179 99.4955 1.76092 101.207C-0.00215338 101.396 -0.365739 101.495 0.334708 103.346C2.02253 107.808 4.37494 112.284 7.61978 115.67C13.5405 121.849 23.3658 126.057 32.0053 124.951ZM203.469 175.727C189.74 175.375 189.092 175.446 175.361 175.46C161.631 175.474 147.891 175.557 134.156 175.576C106.827 175.611 79.4972 175.69 52.1671 175.811C36.8416 175.862 21.2011 175.626 5.91507 176.182C5.37496 176.202 5.36441 177.119 5.90733 177.136C19.6272 177.558 33.3872 177.294 47.1106 177.265C60.8476 177.236 74.5825 177.205 88.3153 177.171C115.645 177.093 142.975 176.96 170.304 176.944C185.714 176.935 188.055 177.335 203.459 176.859C204.101 176.84 204.112 175.744 203.469 175.727ZM50.7663 173.265C52.0089 166.636 53.701 157.294 54.1419 150.694C55.7165 150.573 55.9001 150.404 56.2194 148.752C56.5207 147.398 56.7352 146.025 56.8614 144.643C56.9831 142.674 57.2679 141.815 55.0182 141.766C45.7513 141.564 34.471 141.476 25.3125 142.096C25.0494 142.11 24.8456 142.332 24.8534 142.595C24.8612 142.859 25.0778 143.068 25.3413 143.066C35.3227 143.699 45.9637 142.454 55.611 143.306C55.5969 145.326 55.3611 147.339 54.9078 149.307C44.9974 149.994 35.5864 149.896 25.6824 149.774C25.0267 147.715 24.5329 145.608 24.2056 143.471C24.1099 142.909 23.1563 142.925 23.1711 143.527C23.2513 145.702 23.6557 147.853 24.3708 149.909C24.7302 150.986 25.5192 151.157 26.6684 151.15C35.5709 151.09 44.0438 151.342 52.9858 150.771C52.0624 159.473 50.6439 165.196 49.7015 171.836C49.3745 174.179 50.5075 174.65 50.7663 173.269V173.265ZM74.309 128.339C74.8315 128.351 75.0432 127.508 74.4834 127.394C71.1176 126.708 67.3193 126.471 64.4789 128.776C60.9316 131.655 62.2692 137.563 62.9 141.586C64.0871 149.165 68.017 165.537 71.0121 173.385C71.2604 174.036 72.3216 173.613 72.1374 172.973C69.7582 164.654 66.2504 152.705 64.386 141.442C63.9275 138.68 62.9211 133.974 64.1673 131.438C65.9895 127.732 70.9081 128.267 74.309 128.343V128.339ZM26.6435 153.084C26.9382 157.346 29.0508 169.34 30.6148 173.041C30.7417 173.284 31.023 173.402 31.2846 173.322C31.5463 173.242 31.7142 172.988 31.6845 172.716C30.067 166.152 28.9369 161.25 27.6337 152.914C27.536 152.287 26.6006 152.471 26.6435 153.084ZM39.3315 112.171C39.4769 112.384 39.7618 112.449 39.9848 112.32C40.2078 112.19 40.2934 111.911 40.181 111.679C37.511 106.915 36.6426 101.349 37.7344 95.9982C39.4383 88.3075 45.194 82.1549 52.7532 79.9439C54.0823 84.7225 54.4262 89.7215 53.7638 94.6371C52.4677 103.115 49.1047 107.618 43.7733 113.77C43.3781 114.226 44.0173 114.93 44.5047 114.554C47.9464 111.899 51.083 106.905 52.7511 102.909C55.671 95.9166 56.3687 87.1403 53.8911 79.8883C53.4262 78.5279 53.2849 78.4267 51.9459 78.8466C47.1942 80.353 43.0546 83.3511 40.141 87.3964C34.8906 94.7324 34.5712 104.508 39.3315 112.171ZM39.5375 140.403C39.5495 141.027 40.6142 141.036 40.6367 140.407C40.6564 139.857 40.678 139.306 40.7014 138.755C45.6313 128.284 50.5225 122.572 59.4785 115.361C59.9004 115.02 59.361 114.221 58.8681 114.468C52.0999 117.866 43.9646 128.637 40.8456 135.654C41.5629 120.254 42.826 109.181 46.7108 93.7588C46.8515 93.1961 45.9035 92.9316 45.7185 93.4943C42.0721 104.563 40.1979 119.496 39.6388 131.158C35.446 121.667 26.8873 114.072 17.4397 110.076C16.8441 109.824 16.5255 110.749 17.0986 111.012C27.3409 115.684 34.8531 124.081 39.5326 134.181C39.4897 136.252 39.4975 138.323 39.5375 140.403Z" fill="#002657"/>
<path fill-rule="evenodd" clip-rule="evenodd" d="M112.701 41.4295C119.998 41.8569 130.082 46.8826 135.805 51.3813V51.3841C135.976 51.5274 136.055 51.7522 136.012 51.9711C135.97 52.19 135.812 52.3684 135.6 52.4368C132.55 53.0416 129.908 53.8104 127.152 54.6122C125.767 55.0154 124.352 55.4269 122.843 55.8301C122.599 55.8977 122.345 55.76 122.268 55.5181C122.191 55.2763 122.318 55.0166 122.556 54.9297C126.396 53.576 130.319 52.4741 134.301 51.6311C128.851 47.5016 119.112 42.8247 112.312 42.3987C105.347 43.8494 97.364 48.7017 91.4278 52.6502C94.6957 53.3604 97.8924 54.3668 100.979 55.6568C101.59 55.92 101.32 56.9418 100.68 56.6737C98.2577 55.6571 95.7608 54.9484 93.1846 54.2173L93.1845 54.2173L93.1845 54.2173C92.1968 53.937 91.1975 53.6533 90.1863 53.3478C89.8503 53.246 89.5956 52.7765 89.9203 52.5056C95.2015 48.1003 104.645 43.4507 111.293 41.612C111.74 41.4328 112.224 41.37 112.701 41.4295ZM137.271 82.0508C133.548 78.9903 131.721 73.3136 130.229 68.6761L130.229 68.676L130.229 68.6759L130.229 68.6757L130.229 68.6756L130.229 68.6754L130.228 68.6752C129.624 66.7964 129.074 65.0881 128.475 63.7937C124.353 54.863 115.504 52.0775 106.351 54.1394C99.2185 55.7466 99.3165 63.4035 109.821 62.5213C115.426 62.0503 118.096 60.6376 118.115 60.6263C118.745 63.0904 121.488 66.8599 121.811 66.163C122.603 64.4548 124.274 65.1763 124.546 66.7476C124.941 69.0271 123.7 70.1753 122.411 70.1248C121.951 70.1072 124.241 78.1066 124.812 79.5994C124.94 79.9338 125.323 79.9338 125.656 79.9339C125.712 79.9339 125.767 79.9339 125.819 79.9355C128.709 80.0226 133.669 80.4788 137.271 82.0543V82.0508ZM110.203 124.277C111.027 124.689 123.108 124.335 123.968 124.253C125.911 124.07 126.368 127.737 123.865 128.241C120.83 128.852 80.0908 129.205 77.53 127.83C75.1749 126.565 70.8071 110.976 70.4649 102.679C70.3207 99.1879 71.642 98.5036 73.3819 98.3197C75.4052 98.1092 98.1682 97.8923 101.058 98.3197C104.624 98.8468 105.082 100.2 105.31 103.134C106.104 113.328 109.379 123.864 110.203 124.277ZM154.946 111.729C154.837 111.085 153.839 111.158 153.843 111.775C153.87 116.01 152.443 120.415 145.111 121.872C136.93 123.498 128.859 121.54 121.876 117.152C121.668 117.009 121.384 117.058 121.237 117.263C121.089 117.468 121.13 117.753 121.331 117.907C127.97 123.039 137.166 124.811 145.35 123.277C151.463 122.13 156.108 118.67 154.946 111.729ZM115.1 114.81C115.377 114.544 115.672 114.26 115.986 113.85C116.1 113.676 116.099 113.45 115.984 113.276C115.87 113.102 115.663 113.013 115.458 113.049C114.099 113.334 112.872 115.226 112.483 116.481C111.979 118.102 112.178 119.861 113.029 121.328C113.152 121.559 113.434 121.65 113.668 121.535C113.902 121.42 114.003 121.14 113.896 120.902C113.352 119.621 113.294 118.185 113.734 116.865C114.117 115.755 114.574 115.315 115.1 114.81ZM119.199 115.942C119.266 116.111 119.236 116.302 119.122 116.443C119.017 116.546 118.876 116.645 118.716 116.757C118.178 117.135 117.436 117.656 117.21 118.955C117.056 120.087 117.459 121.224 118.289 122.006C118.502 122.175 118.537 122.485 118.369 122.699C118.2 122.912 117.891 122.947 117.678 122.778C116.365 121.905 115.693 120.334 115.967 118.778C116.182 117.538 117.374 115.579 118.8 115.631C118.98 115.654 119.132 115.774 119.199 115.942ZM91.5203 113.038C91.0745 111.111 89.6671 109.95 87.9881 110.013C86.102 110.084 85.7584 112.318 86.1356 113.899C86.5177 115.503 87.7369 116.925 89.4949 116.858C91.281 116.789 91.9669 114.965 91.5203 113.038ZM93.3102 158.179C93.271 157.628 94.1332 157.407 94.283 157.968H94.2837C94.6238 159.235 95.8024 165.174 95.6295 166.113C95.5567 166.512 94.8107 166.741 94.7267 166.306C94.6852 166.089 94.6388 165.848 94.5888 165.588L94.5883 165.585L94.5883 165.585C94.1388 163.247 93.3958 159.383 93.3102 158.179ZM100.349 157.853C100.069 157.412 99.299 157.72 99.4914 158.242C99.6945 158.799 99.896 159.323 100.092 159.833L100.092 159.834L100.092 159.834C100.73 161.491 101.313 163.008 101.718 165.036C101.825 165.578 102.698 165.442 102.677 164.873C102.41 162.393 101.616 159.999 100.349 157.853H100.349ZM111.735 157.985C111.765 160.304 112.167 162.602 112.925 164.793H112.926C113.079 165.203 113.283 165.64 113.496 166.093C114.224 167.646 115.042 169.391 114.18 170.915C114.055 171.145 113.782 171.25 113.535 171.163C113.289 171.076 113.141 170.823 113.187 170.565C113.425 169.022 112.817 167.694 112.194 166.332L112.194 166.332C111.899 165.687 111.6 165.033 111.387 164.346C110.714 162.275 110.509 160.079 110.787 157.918C110.842 157.689 111.055 157.533 111.289 157.549C111.524 157.566 111.713 157.75 111.735 157.985ZM84.2015 158.146C84.0824 157.939 83.8298 157.85 83.6081 157.938C83.3864 158.026 83.2624 158.264 83.3169 158.497C83.4179 158.973 83.601 159.56 83.8003 160.198L83.8003 160.198C84.3918 162.093 85.1255 164.444 84.2764 165.718C84.1744 165.893 84.1857 166.113 84.3054 166.277C84.425 166.441 84.6302 166.518 84.8279 166.474C87.1556 165.717 85.1351 159.57 84.2022 158.146H84.2015ZM95.8208 130.485C91.5754 134.56 93.0759 143.193 94.3749 148.311H94.3756C94.2434 150.915 94.2815 153.525 94.4897 156.124C91.658 156.48 83.8413 156.354 81.5548 156.171C78.3096 148.88 74.9873 138.87 75.93 134.457C76.6992 130.858 79.7723 130.259 82.2876 130.259C82.9758 130.26 84.7129 130.292 87.1122 130.336L87.115 130.336L87.1157 130.336L87.1189 130.336L87.1332 130.336C89.508 130.38 92.5283 130.436 95.8208 130.485ZM98.2687 130.517C91.1777 135.138 96.286 150.339 98.4122 156.4C103.009 156.66 107.617 156.644 112.211 156.352C111.689 154.106 111.598 148.006 112.603 146.722C113.551 145.512 116.29 145.552 120.379 145.611H120.379L120.389 145.611L120.625 145.615L121.142 145.622C121.144 145.217 121.145 144.797 121.146 144.364V144.363C121.156 139.207 121.17 132.335 124.081 130.051C121.272 130.69 108.887 130.658 98.2694 130.517H98.2687ZM125.314 108.821C130.131 109.147 133.497 109.375 139.035 107.217L139.035 107.219C139.276 107.117 139.554 107.218 139.674 107.45C139.795 107.682 139.717 107.968 139.497 108.107C135.029 110.946 129.139 110.536 124.134 110.083C119.128 109.63 112.618 109.748 110.487 115.321C110.387 115.549 110.134 115.666 109.897 115.595C109.66 115.523 109.513 115.285 109.555 115.041C110.834 109.639 117.289 108.401 121.973 108.62C123.177 108.677 124.279 108.751 125.313 108.821L125.314 108.821L125.314 108.821ZM89.3565 70.0215C90.2055 71.8876 90.6487 73.9135 90.6569 75.9646C90.5995 76.4909 89.8492 76.4678 89.6883 76.0277C89.5475 75.6439 89.4553 75.2019 89.3624 74.7564C89.2876 74.3979 89.2123 74.0371 89.1109 73.7026C89.0674 74.4029 89.0552 75.1023 89.043 75.8012V75.8012C89.0319 76.4408 89.0207 77.0799 88.9856 77.7191C88.9873 77.9797 88.7859 78.1962 88.5266 78.2126C88.2672 78.229 88.0402 78.0396 88.0093 77.7809C87.8511 76.4608 87.781 75.1317 87.7993 73.8022C87.4191 74.7236 87.1271 75.6791 86.9273 76.6558C86.8661 76.8935 86.6295 77.0409 86.3899 76.9909C86.1504 76.9408 85.9923 76.7108 86.0308 76.4685C86.1862 75.2354 86.7866 71.9922 87.4165 70.842C87.7168 70.2924 88.7847 69.0944 89.3593 70.0215H89.3565ZM90.0033 54.1423C89.7783 54.0996 89.5554 54.2259 89.4757 54.4412L89.4764 54.4454C88.6268 57.9602 88.2565 64.2639 88.4014 67.9134C88.4259 68.5471 89.4008 68.6299 89.4008 67.9716C89.3562 63.4993 89.6856 59.031 90.3855 54.6139C90.3898 54.3843 90.2284 54.185 90.0033 54.1423ZM107.778 49.2562C107.684 48.8204 106.931 48.7278 106.875 49.2092C106.79 49.9328 106.735 52.2972 106.749 52.9941C106.744 53.2728 106.96 53.5056 107.237 53.5205C107.515 53.5355 107.754 53.3272 107.779 53.0496C107.864 51.7866 107.864 50.5192 107.779 49.2562H107.778ZM108.74 47.7605C111.516 46.9787 115.62 47.1331 118.264 48.5929L118.266 48.5922C119.016 49.0078 119.006 49.2739 118.977 49.9892V49.9893V49.9893V49.9894V49.9896C118.973 50.0872 118.969 50.1931 118.966 50.3089C118.942 51.3658 118.934 52.3399 118.984 53.3969C118.99 53.5779 118.898 53.748 118.744 53.8431C118.591 53.9381 118.398 53.9438 118.239 53.8578C118.08 53.7718 117.979 53.6074 117.974 53.4263C117.852 52.1819 117.869 50.9276 118.026 49.687C115.199 48.423 112.055 48.0557 109.015 48.6343C108.856 48.6955 108.676 48.6633 108.548 48.5506C108.421 48.4379 108.366 48.2634 108.406 48.0976C108.446 47.9317 108.575 47.8019 108.74 47.7605ZM116.282 79.8275C117.982 79.0811 119.489 77.9525 120.685 76.529C121.04 76.124 120.401 75.559 120.004 75.8973C119.862 76.0183 119.72 76.1408 119.576 76.2639C117.734 77.846 115.773 79.5307 113.172 79.2513C110.187 78.9306 109.323 75.8826 108.7 73.4045C108.553 72.8135 107.634 72.9644 107.76 73.5743C108.357 76.4833 109.467 79.7061 112.794 80.2591C113.636 80.3954 114.496 80.3553 115.321 80.1412C115.407 80.7019 115.388 81.2519 115.37 81.7761C115.356 82.1739 115.343 82.5568 115.376 82.9183C115.419 83.1497 115.623 83.3153 115.858 83.3081C116.092 83.301 116.286 83.1231 116.314 82.8896C116.429 81.8717 116.418 80.8435 116.282 79.8282V79.8275ZM117.328 72.0447C117.567 72.0163 117.791 72.1653 117.857 72.3966V72.3994C118.353 74.9414 115.937 75.773 114.27 75.9317C114.111 75.972 113.942 75.9241 113.828 75.806C113.713 75.6878 113.67 75.5174 113.715 75.3589C113.76 75.2004 113.886 75.0779 114.045 75.0375L114.151 75.0087C115.459 74.6546 117.069 74.2189 116.897 72.511C116.907 72.2705 117.09 72.0731 117.328 72.0447ZM112.559 72.102C112.204 72.2027 111.83 72.2153 111.469 72.1385L111.531 71.9214C111.662 71.4665 111.793 71.0123 111.899 70.5502C111.964 70.3102 111.828 70.0614 111.591 69.988C111.354 69.9147 111.101 70.0433 111.021 70.2786C110.84 70.7699 110.656 71.3265 110.52 71.8374C110.391 72.1114 110.406 72.4315 110.561 72.6918C110.715 72.9521 110.988 73.1187 111.289 73.1364C111.831 73.2407 112.39 73.2096 112.917 73.0459C113.09 72.9861 113.217 72.8366 113.249 72.6555C113.28 72.4745 113.211 72.2905 113.068 72.1754C112.925 72.0603 112.731 72.0321 112.562 72.102H112.559ZM107.897 69.0489C108.361 69.0812 108.528 69.5331 108.554 69.936C108.578 70.303 108.582 70.9571 108.093 71.014C107.584 71.0743 107.281 70.4567 107.215 70.0532C107.136 69.5661 107.291 69.0075 107.897 69.0489ZM115.19 67.7316C115.129 67.5138 114.973 67.3356 114.765 67.2477C114.557 67.1598 114.321 67.1718 114.123 67.2803C113.811 67.6001 113.713 68.0734 113.872 68.4916C114.032 68.9098 114.42 69.1964 114.866 69.225C115.471 69.0896 115.422 68.3323 115.19 67.7316ZM117.206 65.3398C118.063 65.1134 118.963 65.1153 119.818 65.3454L119.816 65.3517C120.013 65.4273 120.135 65.6246 120.116 65.8348C120.097 66.0449 119.941 66.2169 119.734 66.2557C119.009 66.1875 118.279 66.1924 117.555 66.2704C118.032 67.9499 117.75 70.7031 115.709 71.1888C113.585 71.6934 112.138 69.5402 111.811 67.712C111.325 67.5624 110.8 67.7653 110.54 68.2032C110.528 68.2177 110.53 68.3152 110.532 68.4721V68.4722C110.545 69.3813 110.586 72.2816 108.387 72.5545C106.672 72.7679 105.535 71.1972 105.168 69.7121C104.699 67.799 105.187 64.2801 107.828 64.711C109.064 64.9124 109.82 65.9237 110.301 67.0101C110.696 66.6917 111.206 66.5526 111.708 66.6262C111.601 65.1538 112.032 63.228 113.746 62.9473C115.284 62.696 116.586 64.0695 117.206 65.3398ZM115.708 70.0623C117.185 69.3675 116.703 66.5925 116.158 65.577C115.725 64.7734 114.659 63.5312 113.621 64.0274C112.719 64.459 112.47 65.7686 112.732 67.0494C113.157 69.1282 114.054 70.8393 115.708 70.0623ZM107.484 65.7111C108.684 65.742 109.299 66.8333 109.491 68.0411L109.492 68.0418C109.629 68.9058 109.597 71.4408 108.191 71.546C107.033 71.6324 106.271 70.3284 106.066 69.3648C105.836 68.284 105.955 65.6718 107.484 65.7111Z" fill="black"/>
</svg>
