<svg width="203" height="175" viewBox="0 0 203 175" fill="none" xmlns="http://www.w3.org/2000/svg">
<path fill-rule="evenodd" clip-rule="evenodd" d="M52.4908 69.2333C52.2256 68.6145 51.1764 68.9934 51.3963 69.6185C54.5911 78.7124 56.8274 88.1218 58.0681 97.6902C58.1784 98.4599 59.3154 98.1996 59.2247 97.4468C58.3871 90.5133 55.3667 75.9466 52.4908 69.2333ZM75.0793 151.218C72.9712 150.624 71.6066 150.225 69.4643 149.761C69.1447 149.676 68.8161 149.864 68.7243 150.185C68.6325 150.506 68.8111 150.843 69.1265 150.943C70.9749 151.589 73.8361 151.958 74.0127 152.376C74.0825 152.543 69.6982 167.898 68.9492 169.08C68.3161 170.079 67.2949 169.247 66.4517 168.885C65.51 168.481 64.8176 168.321 63.8732 167.926C62.9839 167.552 62.5644 169.021 63.4543 169.39C64.5167 169.83 65.339 170.013 66.4035 170.442C68.1835 171.159 69.4748 171.808 70.2594 169.463C72.1601 163.79 73.8033 157.828 75.5511 152.086C75.6499 151.715 75.44 151.331 75.0765 151.218H75.0793ZM35.9531 134.969C46.3851 140.41 57.6527 143.913 68.8497 147.632C66.2049 152 60.8727 164.365 60.8727 175C48.438 171.766 5.78579 152.789 1.74491 142.238C-2.29597 131.686 1.0762 87.2677 7.80867 77.9093C12.4233 71.4952 25.4038 65.4007 34.5808 62.6772C41.8766 70.6069 55.114 96.6332 59.9485 108.453C59.8703 118.435 59.9646 128.439 60.7163 138.395C60.7722 139.129 61.8157 138.97 61.8178 138.266C61.8429 127.577 61.5288 116.878 61.5637 106.164C61.6098 91.6414 64.1164 77.8007 62.6352 63.0434C68.9303 64.1746 75.1121 65.8748 81.1064 68.1234C81.1064 73.7812 80.3763 130.39 80.2743 146.604C67.2694 145.895 50.0121 139.714 38.2105 134.01C32.7436 131.367 28.7306 129.302 29.2374 122.688C29.8824 114.262 29.8028 105.763 31.0027 97.4037C31.0357 97.0926 30.8198 96.8108 30.5136 96.7651C30.2074 96.7194 29.9202 96.9262 29.8628 97.2336C28.2741 105.047 27.8728 115.917 27.6606 123.956C27.5175 129.372 31.2728 132.526 35.951 134.966L35.9531 134.969ZM62.7009 111.882C62.576 112.188 62.7107 112.539 63.0071 112.68C63.3034 112.82 63.6567 112.7 63.8094 112.408C66.4303 107.327 68.6929 102.066 70.5803 96.6635C72.1997 92.1677 73.5476 89.9693 69.8034 86.1932C68.1923 84.5669 67.8287 84.1365 69.7266 83.6384C70.8766 83.3598 71.974 82.894 72.9759 82.259C74.1758 81.3129 73.8659 79.9124 73.3375 78.6769C71.7492 74.8372 69.8389 71.1417 67.6276 67.6309C67.2137 66.9959 66.3488 67.6471 66.6846 68.2863C67.8971 70.5984 72.0398 77.8656 72.4259 80.1191C72.6855 81.6431 69.4369 82.2357 68.1944 82.7C65.5866 83.6659 66.9498 85.3394 68.3668 86.7153C72.0196 90.2635 71.0535 91.2971 69.4781 95.7153C67.4943 101.283 65.1447 106.51 62.703 111.882H62.7009ZM32.1903 69.0639C32.4046 68.3986 33.4467 68.7655 33.2911 69.4329C32.7452 71.7662 31.6786 76.3092 31.9167 78.6756C32.0346 79.8497 32.8939 80.3224 33.8481 80.6688C35.4899 81.2671 37.1798 81.7413 38.839 82.2838C42.7808 83.5729 41.7798 85.3882 41.5313 88.8567C41.1397 94.3092 40.7502 94.3226 44.937 97.8983C48.9548 101.33 53.0927 105.336 57.2557 108.482C57.9244 108.987 57.0966 109.97 56.446 109.489C52.0017 106.206 46.3595 101.169 42.3012 97.415C39.3206 94.657 39.9977 92.0641 40.2581 88.4073C40.4298 85.9922 41.3156 84.5578 38.6093 83.654C36.9341 83.0959 35.2414 82.6013 33.5773 82.0157C32.4123 81.6051 31.2235 80.9694 30.8026 79.6549C30.1039 77.4677 31.5034 71.1968 32.1903 69.0639Z" fill="#002657"/>
<path fill-rule="evenodd" clip-rule="evenodd" d="M53.61 0.00975415C52.9317 0.0358919 52.9681 1.1146 53.6169 1.19726C56.7557 1.59639 61.5307 2.49779 61.086 6.82606C61.0793 7.11573 61.2904 7.36363 61.5749 7.40004C61.8595 7.43645 62.1251 7.24957 62.1901 6.96735C63.1816 2.2463 57.5053 -0.146366 53.61 0.00692844V0.00975415ZM67.4211 44.102C65.3136 49.6538 60.2219 50.9331 54.9924 49.5563L54.9917 49.5598C55.149 50.8837 55.3532 56.2645 55.1092 57.6357C54.9896 58.3082 53.9625 58.3414 53.9205 57.6442C53.8947 57.2149 53.902 56.3664 53.9107 55.342V55.3419V55.3419V55.3418V55.3418V55.3417V55.3417V55.3417V55.3416V55.3416V55.3415V55.3415V55.3414V55.3414V55.3414V55.3413V55.3413V55.3412V55.3412V55.3411V55.3411V55.341V55.341V55.341V55.3409V55.3409V55.3408V55.3408V55.3407C53.9276 53.3642 53.95 50.7329 53.752 49.1918C52.4691 48.7561 51.2105 48.2505 49.9818 47.6772C49.3476 47.3876 49.6231 46.3428 50.309 46.6013C50.5688 46.6993 50.8303 46.7993 51.0935 46.8998L51.0935 46.8998L51.0936 46.8998L51.0936 46.8999L51.0937 46.8999L51.0938 46.8999L51.094 46.9C52.2837 47.3546 53.5069 47.822 54.7498 48.1823C61.0148 49.9978 65.6164 48.0092 66.9218 41.1675C68.8866 30.8692 66.0751 19.1093 62.351 9.43766C62.0825 8.73123 63.0593 8.16256 63.3998 8.87252C67.5651 17.5488 70.734 35.3769 67.4211 44.102ZM40.9108 25.2652C41.4576 25.6813 42.04 24.9932 42.2694 24.551C44.0223 21.1679 45.2061 16.1544 44.4418 12.3701C44.316 11.7463 43.2664 11.7011 43.2776 12.4061C43.3476 16.7563 43.1776 19.8236 41.1282 23.7888C39.0047 21.8857 35.273 21.8751 34.708 25.025C34.2059 27.8288 35.5512 32.4029 37.5643 34.4156C38.3252 35.2697 39.5205 35.5765 40.5926 35.1926C40.8235 37.1947 41.0842 39.1944 41.3461 41.204C42.0193 46.3689 42.7009 51.5984 42.9077 57.0975C42.968 57.3906 43.229 57.5967 43.5251 57.585C43.8211 57.5733 44.0654 57.3471 44.1027 57.0502C44.4801 51.5687 43.2927 44.296 42.2882 38.1435L42.2882 38.1434C42.0533 36.7047 41.8284 35.3272 41.6359 34.0482C41.531 33.3474 40.8891 33.0684 40.422 33.4541C39.3096 34.3725 38.3768 33.0769 37.8272 32.1465C36.9021 30.5811 35.6953 27.0207 36.2847 25.1797C37.0042 22.934 39.6892 24.337 40.9108 25.2652ZM59.3639 59.9952C59.4723 61.3226 59.6744 69.4013 58.5689 69.7269C57.919 69.9184 56.5093 68.9734 54.9824 67.9498C53.5625 66.998 52.0413 65.9782 50.9355 65.7413C49.8518 66.6059 44.3013 70.9095 42.9316 69.8908C41.2534 68.6447 40.7968 60.7779 40.8975 59.0034C40.9268 58.7802 41.0557 58.5829 41.2472 58.4679C41.4388 58.3529 41.6719 58.3329 41.8799 58.4135C44.9981 59.3289 47.9664 60.7015 50.6901 62.4875C52.4965 61.6796 54.2155 60.6853 55.8196 59.5205C55.8724 59.482 55.9263 59.4425 55.9812 59.4023C57.2903 58.4429 59.1292 57.0953 59.3674 59.9959L59.3639 59.9952ZM57.2278 8.16468C57.3303 7.99078 57.3333 7.77482 57.2355 7.59815H57.2362C54.9707 2.97459 49.4056 0.911824 44.5607 1.25162C40.7262 1.52076 32.5152 3.82936 31.9558 8.46988C31.8636 9.23635 33.1669 9.42426 33.2928 8.65355C33.9283 4.75266 41.7925 2.72593 45.0837 2.59877C49.5206 2.30937 53.7754 4.42387 56.2565 8.15128C56.3543 8.32795 56.538 8.43848 56.7383 8.44124C56.9387 8.44401 57.1253 8.33858 57.2278 8.16468ZM48.7925 9.65666C49.3442 10.0141 48.8373 10.9883 48.2478 10.6916C44.6685 8.88877 40.2159 8.13148 36.5156 10.0876C32.1147 12.4131 33.0992 17.2168 35.4451 20.7073C35.6493 20.9872 35.5989 21.3799 35.3309 21.598C35.0629 21.8161 34.6724 21.7822 34.4452 21.5211C31.4707 17.9649 31.019 11.9843 35.2976 9.2547C39.2132 6.75466 44.9741 7.18134 48.7925 9.65666ZM64.1842 24.6943C64.7351 24.6435 65.0456 24.1786 64.4387 23.74C63.6189 23.323 62.6441 23.3639 61.8613 23.848C61.1733 24.3764 61.6005 24.967 62.1655 24.8257C62.8296 24.6917 63.5085 24.6475 64.1842 24.6943ZM55.4362 24.2614C56.6192 24.563 56.664 25.5746 55.3662 25.4863C54.4309 25.4634 53.4999 25.6221 52.6239 25.954C52.0883 26.1214 51.8044 25.4736 52.289 25.0356C53.1777 24.3303 54.3256 24.0491 55.4355 24.2649L55.4362 24.2614ZM64.0237 20.2432C64.5425 20.6162 65.0047 20.1365 64.6446 19.5474C63.6321 17.888 60.5115 18.0342 59.6326 19.8709C59.4868 20.134 59.5535 20.4652 59.7894 20.6498C60.0253 20.8344 60.3595 20.8168 60.5751 20.6084C61.5897 19.5269 62.6042 19.2189 64.0237 20.2432ZM55.8486 20.0313C56.5947 20.5025 55.8178 21.6561 55.0795 21.1736C53.4579 20.1216 51.2999 20.5881 50.2464 22.2184C50.0599 22.4682 49.7121 22.526 49.4563 22.3497C49.2004 22.1735 49.1265 21.8253 49.2885 21.5586C50.5555 19.1808 53.6677 18.6531 55.85 20.0313H55.8486ZM64.202 39.3054C65.6794 39.6756 66.0311 39.3224 64.7299 38.2627V38.2641C64.2547 37.8662 63.7142 37.5554 63.1329 37.3458C62.5337 37.2136 61.9098 37.2532 61.3317 37.4602C61.0696 37.5321 60.8925 37.7787 60.9061 38.0527C60.9198 38.3266 61.1205 38.554 61.3883 38.599C62.3446 38.7519 63.286 38.9883 64.202 39.3054ZM59.3383 37.6072C59.7977 37.8191 59.9585 38.4026 59.5243 38.6873C58.6621 39.0808 57.7715 39.4074 56.8603 39.6643C56.2348 39.9039 55.6972 40.1506 55.1226 40.4143C54.884 40.5237 54.6391 40.6362 54.3788 40.7522C53.3299 41.2192 52.4867 40.9316 53.7117 39.9928C53.9889 39.7802 54.2576 39.5392 54.5282 39.2966C55.0765 38.8049 55.6324 38.3064 56.2827 38.0226C57.0673 37.68 58.6664 37.2921 59.3411 37.6072H59.3383ZM62.4821 34.5222C62.4431 30.6084 61.5915 26.7465 59.9824 23.1862H59.9852C59.6915 22.5511 58.6483 22.8414 58.9252 23.5224C60.3916 27.0217 61.1648 30.7775 61.2012 34.5773C61.2116 35.5811 60.3097 35.4038 59.1524 34.9574C58.8883 34.8545 58.6296 34.7347 58.3709 34.6149C57.9865 34.4369 57.6022 34.2589 57.2002 34.1365C56.9456 34.0878 56.6897 34.2146 56.5718 34.4477C56.4539 34.6809 56.5023 34.9646 56.6905 35.1446C57.3921 35.6299 58.1645 36.0015 58.9797 36.2459C60.8781 36.9318 62.4695 37.2773 62.4821 34.5222ZM118.716 153.785C119.555 152.767 120.149 153.862 119.677 154.482C118.182 156.443 114.304 156.81 111.583 157.067L111.581 157.067C111.173 157.106 110.791 157.142 110.447 157.18C103.618 157.944 100.842 159.417 96.4986 161.721C95.1111 162.456 93.5636 163.277 91.6729 164.187C86.4803 166.759 80.7043 167.891 74.9363 167.466C72.7422 167.33 73.7714 165.957 75 166.016C79.9505 166.255 85.3114 165.599 92.4169 161.983C93.1414 161.614 93.819 161.265 94.4602 160.935C100.029 158.067 102.862 156.608 110.027 155.794C110.49 155.741 111.049 155.702 111.66 155.66H111.66C114.152 155.487 117.505 155.254 118.716 153.785ZM141.401 67.2474C133.417 67.2474 127.345 74.234 127.176 81.164C132.011 81.277 146.515 80.993 155.767 80.1983C155.687 75.1431 150.62 67.2474 141.401 67.2474ZM140.278 51.5951C144.029 51.2511 147.026 53.1295 147.137 57.6167C147.248 62.1039 144.044 64.1483 141.514 64.1483C138.985 64.1483 134.824 62.3879 134.543 58.4686C134.261 54.5494 136.57 51.9363 140.276 51.5951H140.278ZM165.526 32.5239C165.68 32.2705 165.983 32.1536 166.265 32.239V32.2404C167.938 32.7787 169.471 35.4787 169.162 37.2518C168.865 38.9494 167.738 38.6534 167.585 37.2744C167.407 35.67 166.855 34.9497 166.068 33.9252L166.068 33.9248L166.067 33.9236L166.067 33.9229C165.922 33.7343 165.769 33.5352 165.61 33.3185C165.406 33.1035 165.372 32.7773 165.526 32.5239ZM160.292 31.0904C163.099 30.7153 165.555 35.7486 165.442 38.2641C165.354 40.2188 164.12 40.7211 163.749 38.38C163.469 36.5899 162.351 32.5944 160.29 32.3196C159.991 32.2714 159.771 32.0108 159.771 31.705C159.771 31.3991 159.991 31.1386 160.29 31.0904H160.292ZM153.605 30.8205C157.865 29.7396 160.547 34.633 160.522 38.3665C160.505 41.1173 159.115 41.443 158.67 38.7049C158.13 35.3797 157.476 32.5385 153.611 32.008C152.957 31.9183 153.092 30.9512 153.605 30.8205ZM147.317 32.458C150.981 29.3971 156.127 34.3407 155.148 39.0681C154.934 40.1037 153.81 39.4976 153.734 38.6138C153.533 36.2734 151.986 32.0441 147.922 33.476C147.377 33.6674 146.851 32.8473 147.317 32.458ZM201.757 75.6109C201.677 81.3447 201.596 87.0727 201.667 92.6963L201.663 92.6999C201.691 94.8983 201.845 98.5583 202.03 102.944L202.03 102.946C202.475 113.495 203.096 128.244 202.557 136.95C201.67 151.236 196.473 151.371 184.886 151.672C184.607 151.679 184.325 151.686 184.04 151.694L183.753 151.702L183.305 151.714C161.837 152.32 138.095 151.997 115.725 151.692L115.723 151.692L115.715 151.692L115.708 151.692L115.702 151.692C109.494 151.607 103.391 151.524 97.4715 151.462C96.8199 151.456 96.8192 150.3 97.4715 150.295C108.047 150.215 118.87 150.238 129.76 150.262H129.762H129.764H129.766H129.768H129.77H129.772H129.774H129.776H129.778H129.78H129.78H129.781H129.781H129.782H129.782H129.782H129.783H129.783H129.784H129.784C148.175 150.301 166.758 150.341 184.664 149.889L184.827 149.885L185.173 149.877C185.374 149.872 185.573 149.868 185.771 149.863L185.985 149.859L185.987 149.859L185.99 149.859C194.716 149.673 200.498 149.55 200.877 136.514C201.123 128.056 200.808 118.949 200.497 109.944V109.944V109.943V109.943V109.943V109.943V109.942V109.942V109.942V109.942V109.942C200.299 104.2 200.102 98.4998 200.053 93.0361C199.984 85.4444 200.069 77.8635 200.154 70.2844C200.221 64.2874 200.288 58.2915 200.279 52.2923C200.264 42.3861 198.986 37.6389 190.007 37.0928C187.091 36.9154 183.774 36.8816 180.395 36.8471C177.25 36.8151 174.051 36.7825 171.076 36.6329C170.749 36.6151 170.494 36.3412 170.496 36.0108C170.499 35.6804 170.757 35.41 171.084 35.3967C172.728 35.3861 174.52 35.3317 176.383 35.2751L176.383 35.2751C181.205 35.1288 186.494 34.9683 190.879 35.5161C201.061 36.7883 201.295 42.1756 201.667 51.3591C201.987 59.2638 201.872 67.442 201.757 75.6086V75.6088V75.6091V75.6093V75.6095V75.6097V75.61V75.6102V75.6104V75.6107V75.6109ZM138.413 35.1699H138.413C125.725 34.975 112.694 34.7747 100.322 35.2124C92.5863 35.4857 83.4391 38.3595 83.4391 47.7027C83.4326 57.8274 83.4072 67.9513 83.3818 78.0755C83.3442 93.0183 83.3067 107.962 83.33 122.908C83.3324 124.585 83.2965 126.394 83.2596 128.252C83.1685 132.838 83.0714 137.725 83.5307 141.685C83.83 144.261 84.6648 146.058 86.5436 147.536C87.0869 147.964 88.1519 147.249 87.4324 146.524C85.6885 144.771 85.1949 142.967 85.0396 140.721C84.7555 136.525 84.8492 131.848 84.9403 127.299C84.9838 125.133 85.0266 122.995 85.0277 120.952C85.0337 107.968 85.0135 94.9823 84.9933 81.9975L84.9933 81.9929V81.9918V81.9907V81.9896V81.9885V81.9874V81.9863V81.9852V81.9841V81.983C84.9756 70.5749 84.9578 59.1671 84.9578 47.7606C84.9578 38.6131 94.6231 36.9106 101.77 36.8223C110.464 36.7145 119.169 36.7875 127.873 36.8606C134.903 36.9197 141.934 36.9787 148.96 36.9424C149.985 36.9367 150.131 35.3317 149.087 35.3176L149.089 35.3197C145.573 35.28 142.007 35.2252 138.414 35.17L138.413 35.1699ZM156.765 95.5721C156.348 95.1385 155.76 94.9165 155.164 94.9669L155.167 94.9648C154.528 95.0423 153.98 95.4602 153.731 96.0592C153.482 96.6583 153.57 97.3463 153.963 97.8612C154.86 99.1497 157.1 99.1567 157.319 97.2063C157.386 96.6053 157.182 96.0057 156.765 95.5721ZM147.64 95.1012C148.228 95.2245 148.711 95.6469 148.917 96.2175C149.122 96.7881 149.02 97.4254 148.647 97.9014C147.686 99.221 145.313 98.5132 145.225 97.1343C145.23 96.5225 145.501 95.9439 145.966 95.5523C146.431 95.1606 147.043 94.9957 147.64 95.1012ZM141.326 97.5467C141.415 97.0516 141.301 96.5412 141.01 96.1326C140.582 95.4907 139.798 95.1946 139.058 95.3957C138.318 95.5968 137.787 96.2506 137.735 97.0227C137.741 97.6978 138.091 98.3223 138.661 98.6751C139.23 99.028 139.94 99.0595 140.538 98.7584C140.952 98.4791 141.237 98.0418 141.326 97.5467ZM132.166 95.8443C133.451 96.3233 133.977 97.9247 132.703 98.6559C131.821 99.1828 130.717 99.1501 129.867 98.5718C128.329 97.3398 129.668 94.9147 132.166 95.8443ZM124.235 96.0653C123.775 95.6787 123.164 95.5284 122.579 95.6579V95.6586C121.931 95.7433 121.393 96.2047 121.205 96.8368C121.017 97.4688 121.214 98.1536 121.708 98.5853C122.778 99.4669 124.838 99.4055 124.935 97.6359C124.954 97.0314 124.696 96.4518 124.235 96.0653ZM115.412 95.9207C115.987 95.9914 116.493 96.3353 116.775 96.846C117.056 97.3567 117.079 97.9727 116.837 98.5034C116.247 99.8604 113.938 100.102 113.4 98.3734C113.211 97.7595 113.342 97.0906 113.748 96.5956C114.154 96.1006 114.78 95.8467 115.412 95.9207ZM176.945 123.181C177.003 125.785 177.065 128.622 176.904 130.748H176.908C171.577 130.762 166.271 130.957 160.952 131.153H160.952H160.951C157.401 131.283 153.845 131.414 150.273 131.491C144.371 131.618 138.499 131.686 132.632 131.754C124.504 131.847 116.388 131.941 108.226 132.193C108.312 130.092 108.29 127.741 108.268 125.31C108.247 122.996 108.226 120.609 108.295 118.294C118.118 118.603 130.33 118.306 143.092 117.995H143.092H143.093C153.657 117.739 164.599 117.472 174.876 117.533C175.279 117.517 175.598 117.182 175.6 116.774C175.601 116.367 175.284 116.03 174.881 116.011C167.83 116.125 160.27 116.199 152.618 116.275L152.617 116.275L152.616 116.275H152.615C136.828 116.43 120.649 116.589 107.736 117.108C107.255 117.135 106.864 117.508 106.81 117.992C106.835 120.296 106.809 122.413 106.786 124.347V124.347V124.347V124.347V124.347C106.752 127.231 106.723 129.707 106.872 131.787C106.887 132.004 106.889 132.198 106.89 132.37C106.896 133.118 106.899 133.466 108.016 133.49C115.292 133.647 122.418 133.53 129.637 133.411H129.637H129.638C131.321 133.383 133.011 133.355 134.708 133.331C138.076 133.282 141.467 133.25 144.868 133.219H144.871C155.48 133.119 166.195 133.018 176.661 132.412C178.353 132.314 178.358 132.176 178.41 130.891L178.414 130.79C178.418 130.683 178.423 130.568 178.429 130.446C178.593 127.33 178.33 117.149 178.301 117.003C178.14 116.196 177.083 116.47 176.996 117.168C176.84 118.404 176.89 120.685 176.945 123.181ZM176.684 96.062C176.793 98.5933 176.905 101.164 176.624 103.615C164.343 103.695 151.939 103.907 139.513 104.119L139.512 104.119L139.51 104.119C129.994 104.282 120.465 104.445 110.967 104.549C110.186 104.557 110.091 105.784 110.897 105.794C132.772 106.078 154.701 105.708 177.341 105.187C177.721 105.178 178.044 104.902 178.116 104.525C178.582 102.62 178.358 93.3046 178.051 90.9155C177.811 89.0435 177.537 88.982 175.819 88.9375C154.895 88.4028 129.446 88.8188 108.484 89.2907L108.482 89.2908C106.9 89.3268 106.68 89.3318 106.61 91.0723C106.44 95.2388 106.526 100.425 106.676 104.54C106.706 105.373 107.896 105.287 107.934 104.484C108.018 102.724 108.029 100.138 108.039 97.5334V97.5332V97.5331C108.049 95.0164 108.059 92.4822 108.136 90.6584C130.84 90.6329 153.916 90.587 176.612 90.3991C176.517 92.2159 176.6 94.1273 176.684 96.0619V96.062ZM97.8872 146.67C99.8807 144.704 99.522 142.531 96.472 143.291C93.3896 144.058 90.7778 146.277 88.1884 148.477C85.1064 151.096 82.056 153.688 78.281 153.774C76.2204 153.819 75.7813 154.93 78.281 155.116C82.3846 155.423 85.6532 152.604 88.9135 149.793C91.413 147.637 93.9076 145.486 96.7698 144.75C97.9739 144.44 98.0508 144.51 97.1041 145.466C95.1624 147.369 93.5936 149.626 92.4801 152.118C92.1137 152.948 93.429 153.439 93.7918 152.612C94.7602 150.38 96.1515 148.362 97.8872 146.67Z" fill="black"/>
</svg>
