<svg width="275" height="208" viewBox="0 0 275 208" fill="none" xmlns="http://www.w3.org/2000/svg">
<g clip-path="url(#clip0_525_3304)">
<path d="M22.1401 196.118C22.2023 194.629 22.2489 193.124 22.2645 191.573C22.2956 187.927 27.271 184.561 30.0541 182.452C32.4329 180.652 34.0033 181.63 36.2889 182.731C36.7553 182.948 37.2995 182.622 37.3151 182.11C37.5172 172.819 37.5327 163.76 37.3462 154.902C37.3151 153.025 36.8175 151.583 35.8846 150.544C31.9821 146.154 33.9722 142.338 38.4034 139.561C39.2275 139.065 39.7095 138.181 39.7095 137.219C39.7406 112.617 39.7406 88.0769 39.7095 63.6145C39.7095 57.3942 32.9149 55.5482 30.5983 50.1811C30.4428 49.8243 30.4894 49.4055 30.7071 49.0953C31.7022 47.6682 32.9149 46.6134 34.3454 45.9463C50.9041 38.3144 66.2346 29.5192 80.3368 19.576C88.6084 13.728 94.1124 9.64833 98.3415 1.78376C98.808 0.915087 99.7098 0.325632 100.705 0.263584C103.426 0.0619284 106.209 -0.0156314 109.07 0.0153925C124.727 0.186024 142.452 0.23256 162.275 0.139488C165.385 0.139488 168.79 0.170512 172.522 0.294608C174.139 0.356656 175.212 1.30289 175.74 3.11779C177.793 10.1602 183.685 14.0537 190.526 18.5522C200.493 25.0982 210.428 30.9463 220.332 36.1117C229.039 40.6568 235.476 43.4799 239.612 44.5813C243.033 45.4965 246.235 46.4582 249.205 47.482C251.024 48.118 251.693 50.3207 250.527 51.8409C249.003 53.8264 247.184 55.7344 245.085 57.5803C244.292 58.2628 243.888 59.3952 243.888 60.9619C243.794 86.9445 243.794 112.927 243.888 138.91C243.888 139.902 243.981 140.88 244.183 141.841C244.261 142.229 244.447 142.524 244.774 142.772C249.547 146.417 248.972 150.575 244.09 153.692C243.375 154.158 242.97 154.964 243.017 155.818C243.546 165.047 243.686 173.517 243.437 181.242C243.375 183.041 244.105 183.444 245.614 182.467C249.361 180.032 252.393 180.202 254.74 182.964C256.295 184.794 257.415 185.895 258.083 186.283C262.53 188.874 267.257 189.665 264.847 196.552C264.551 197.405 264.847 197.84 265.748 197.886C268.889 198.057 276.881 200.197 274.673 205.177C274.082 206.511 273.196 207.193 271.641 207.24C269.091 207.317 266.728 207.364 264.52 207.348C229.024 207.271 194.522 207.348 161.047 207.643C153.413 207.705 145.623 207.69 137.709 207.612C104.903 207.255 77.3204 207.162 54.9156 207.395C37.1285 207.566 23.9437 207.69 15.3455 207.752C13.3087 207.752 11.1164 207.845 8.83087 207.969C6.10994 208.124 3.40457 207.845 0.730288 207.131C0.341584 207.023 0.139458 206.774 0.0928138 206.387C-0.155956 203.284 0.54371 200.601 2.22291 198.32C8.84642 189.339 13.6352 193.651 21.5959 196.521C21.9535 196.645 22.1556 196.521 22.1867 196.133M169.428 6.17365C169.428 6.01853 169.288 5.87892 169.117 5.87892L102.788 6.22018C102.617 6.22018 102.493 6.35979 102.493 6.53042V8.29878C102.508 8.4539 102.633 8.59351 102.804 8.59351L169.132 8.25225C169.303 8.25225 169.428 8.11264 169.428 7.94201V6.17365ZM105.882 18.1489C105.758 17.9317 105.245 17.9783 104.732 18.2575C104.219 18.5367 103.908 18.9555 104.032 19.1727C104.157 19.3898 104.67 19.3433 105.183 19.0641C105.696 18.7849 106.007 18.3661 105.882 18.1489ZM100.083 19.3588C100.083 19.0486 99.6787 18.8004 99.2122 18.8159C98.7458 18.8314 98.3726 19.1106 98.3882 19.4209C98.3882 19.7311 98.7924 19.9793 99.2589 19.9638C99.7253 19.9483 100.098 19.6691 100.083 19.3588ZM185.846 42.8284C173.843 37.2751 161.933 31.5512 150.148 25.5946C147.272 24.1365 144.535 22.849 141.954 21.7166C140.726 21.1737 139.342 21.1737 138.114 21.7166C129.173 25.5636 118.414 30.543 105.836 36.6236C99.5543 39.664 93.2106 42.3786 86.7737 44.7829C85.7631 45.1552 85.0479 45.8843 84.597 46.9546C84.1927 47.9164 85.0479 48.9246 86.074 48.692C91.1272 47.513 96.227 46.5978 101.078 44.7054C112.972 40.0518 121.337 35.755 135.408 28.5574C138.767 26.8356 140.881 26.2461 144.084 28.1076C150.677 31.9545 157.938 35.9256 165.852 40.0053C175.398 44.9226 182.846 47.5596 192.75 46.6599C193.869 46.5513 193.9 46.3031 192.874 45.8843C190.666 44.9691 188.319 43.9453 185.846 42.8129M91.4537 24.3692C91.9046 24.3692 91.9979 24.1986 91.7025 23.8418C91.2982 23.3609 90.6452 23.3144 89.7434 23.6867C89.2459 23.8883 89.2614 24.0434 89.79 24.1675C90.3187 24.2916 90.8784 24.3537 91.4537 24.3692ZM85.5299 24.2296C85.4832 24.0434 84.4415 24.09 83.1976 24.3692C81.9538 24.6329 80.9743 25.0207 81.0209 25.2223C81.0675 25.4085 82.1093 25.362 83.3531 25.0827C84.597 24.819 85.5765 24.4312 85.5299 24.2296ZM103.768 27.5647C103.768 27.2854 103.037 27.0372 102.135 27.0372C101.233 27.0372 100.503 27.2699 100.503 27.5491C100.503 27.8284 101.233 28.0765 102.135 28.0765C103.037 28.0765 103.768 27.8439 103.768 27.5647ZM80.5389 28.9142C79.3106 28.6195 78.7975 28.2627 78.9685 27.8128C79.0929 27.4871 78.9996 27.394 78.6576 27.5181C77.2893 28.061 76.061 28.6815 74.9571 29.3951C74.3663 29.7518 74.4129 29.9845 75.1126 30.0931C78.3155 30.574 81.2852 30.1551 84.0061 28.8987C84.5814 28.635 84.5503 28.4643 83.9284 28.4178C83.0577 28.3403 82.2337 28.4799 81.4407 28.8366C81.1764 28.9607 80.8499 29.0073 80.5545 28.9297M129.982 36.1583C132.858 34.452 136.015 33.1645 139.435 32.2648C139.933 32.1407 140.213 31.6288 140.073 31.1324C139.948 30.6515 139.513 30.3878 138.782 30.3413C138.596 30.3413 138.409 30.3723 138.254 30.4344C135.377 31.6133 132.563 33.2731 129.795 35.3982C129.624 35.5223 129.593 35.6929 129.718 35.8791L129.889 36.1273C129.889 36.1273 129.951 36.1738 129.998 36.1428M94.2368 32.1717C94.2368 31.939 93.5682 31.7063 92.7131 31.6443C91.858 31.5823 91.1583 31.7219 91.1427 31.9545C91.1427 32.1872 91.8113 32.4199 92.6665 32.4819C93.5216 32.544 94.2213 32.4044 94.2368 32.1717ZM81.4096 33.3972C81.4096 33.1024 79.8237 32.8542 77.8491 32.8542C75.8745 32.8542 74.2886 33.0869 74.2886 33.3816C74.2886 33.6764 75.8745 33.9246 77.8491 33.9246C79.8237 33.9246 81.4096 33.6919 81.4096 33.3972ZM73.791 33.7384C73.5733 33.5833 73.3401 33.4282 73.1224 33.2575C72.8115 33.0404 72.4383 32.9163 72.0652 32.9163C69.1266 32.9163 66.8254 33.9246 65.1618 35.9566C64.6332 36.6236 64.7109 36.7012 65.4106 36.2203C67.8672 34.514 70.6969 33.7384 73.9154 33.878C73.962 33.878 73.9931 33.8625 73.9931 33.816C73.9931 33.816 73.9931 33.7539 73.962 33.7539H73.8998C73.8998 33.7539 73.8221 33.7539 73.791 33.7229M147.816 38.361C148.033 38.1593 147.847 37.6164 147.396 37.12C146.945 36.6392 146.416 36.391 146.199 36.5926C145.981 36.7943 146.168 37.3372 146.618 37.8336C147.069 38.3144 147.598 38.5626 147.816 38.361ZM67.8672 37.6009C66.9187 37.6474 65.9703 37.6009 64.9908 37.4458C62.2543 36.9959 59.2535 38.6402 57.3255 40.4396C57.2944 40.4706 57.2789 40.5016 57.2944 40.5637L57.3566 40.9515C57.3877 41.1376 57.481 41.1842 57.652 41.0756C58.616 40.4551 59.4401 40.1138 60.1553 40.0363C67.1209 39.3072 74.3041 38.7643 81.6895 38.4075C82.2647 38.392 82.7467 38.0042 82.9489 37.4768C82.98 37.3837 82.9489 37.2751 82.8556 37.1511C82.6845 36.9494 82.4824 36.8718 82.2181 36.9029C81.5495 36.9959 80.6633 37.3527 80.0103 37.3527C75.9678 37.3062 71.9252 37.3837 67.8827 37.5854M146.09 40.998L148.298 41.9598C148.562 42.0683 148.702 41.9753 148.733 41.7116L148.811 40.998C148.811 40.8429 148.733 40.6723 148.593 40.6102L145.779 39.2607C145.499 39.1366 145.219 39.1521 144.955 39.3072C141.581 41.3393 137.865 42.3165 133.791 42.208C133.107 42.208 132.703 42.9525 133.092 43.511L133.34 43.8677C133.869 44.6278 134.709 45.0932 135.61 45.1552C140.104 45.481 144.426 45.4965 148.562 45.1707C149.526 45.1087 149.573 44.876 148.671 44.5192L144.955 42.9836C144.504 42.7974 144.302 42.2545 144.551 41.8202L144.784 41.4324C145.095 40.8894 145.546 40.7498 146.105 40.9825M150.801 41.7891C150.988 41.9598 151.516 41.7271 151.967 41.2462C152.418 40.7653 152.636 40.2224 152.449 40.0518C152.262 39.8812 151.734 40.1138 151.283 40.5947C150.832 41.0756 150.614 41.6185 150.801 41.7891ZM218 42.8595C218.047 42.4561 215.015 41.7581 211.237 41.3083C207.458 40.8429 204.333 40.7964 204.302 41.2152C204.255 41.6185 207.287 42.3165 211.066 42.7664C214.844 43.2317 217.969 43.2783 218 42.8595ZM57.4344 42.2855C55.5064 41.8357 52.0547 43.3248 50.6865 44.5347C50.049 45.1087 50.1578 45.3879 51.013 45.4034C60.1708 45.6361 68.2403 45.5275 75.2214 45.0932C76.1077 45.0311 76.9162 44.7519 77.6469 44.2555C78.6576 43.573 78.5487 43.2007 77.3204 43.2007C71.21 43.1387 63.7469 43.7436 57.4344 42.2855ZM157.378 42.968C155.481 42.6268 153.631 42.968 151.858 43.9763C150.801 44.5658 150.879 44.814 152.091 44.7054C154.393 44.5037 156.134 44.3486 157.347 44.24C160.565 43.9453 160.581 43.5265 157.393 42.968M198.254 52.0425C198.254 50.9722 197.383 50.1191 196.31 50.1191L88.2663 50.3052C87.1935 50.3052 86.3384 51.1739 86.3384 52.2442V54.0591C86.3384 55.1294 87.2091 55.9826 88.2819 55.9826L196.326 55.7964C197.399 55.7964 198.254 54.9278 198.254 53.8574V52.0425ZM238.912 55.5638C239.161 55.5638 239.41 55.4862 239.612 55.3466L242.115 53.6093C243.126 52.8957 242.628 51.3135 241.384 51.3135H206.386C205.764 51.3135 205.251 51.7788 205.142 52.3838L204.8 54.4934C204.675 55.269 205.282 55.9671 206.059 55.9516L238.897 55.5638M42.1505 52.3373C40.7979 52.3063 40.2537 54.0436 41.3576 54.8037L46.4574 58.2628C46.675 58.418 46.9549 58.511 47.2192 58.511L77.1494 58.2008C77.9735 58.2008 78.6109 57.4562 78.471 56.6341L78.0823 54.2608C77.9735 53.6248 77.4293 53.1439 76.7763 53.1284L42.135 52.3373M129.189 59.8916C129.08 59.6744 128.412 59.752 127.712 60.0777C126.997 60.4035 126.499 60.8533 126.624 61.086C126.732 61.3032 127.401 61.2256 128.101 60.8999C128.816 60.5741 129.313 60.1243 129.189 59.8916ZM178.446 61.2101C178.446 60.7913 177.202 60.388 175.616 60.3104C174.03 60.2329 172.739 60.5121 172.708 60.9464C172.708 61.3652 173.952 61.7685 175.538 61.8461C177.124 61.9237 178.414 61.6445 178.446 61.2101ZM102.726 62.296C103.006 62.4511 103.286 62.4666 103.566 62.3735C103.861 62.2649 104.048 62.0788 104.11 61.8151C104.219 61.3963 104.063 61.1481 103.643 61.0705C99.9896 60.4035 96.4757 60.3414 93.0863 60.8999C92.1689 61.055 91.8424 61.5669 92.1378 62.4666C92.1689 62.5752 92.2156 62.6838 92.2622 62.7768C92.5265 63.4594 93.2573 63.8627 93.988 63.7075L101.529 62.1408C101.949 62.0478 102.353 62.0943 102.726 62.296ZM195.999 61.2411C195.999 60.8533 194.445 60.5431 192.532 60.5431C190.62 60.5431 189.065 60.8533 189.065 61.2411C189.065 61.6289 190.62 61.9392 192.532 61.9392C194.445 61.9392 195.999 61.6289 195.999 61.2411ZM155.528 142.369C154.937 141.004 155.03 139.608 155.839 138.181C156.01 137.855 155.963 137.56 155.683 137.327C154.595 136.366 154.082 135.016 154.082 133.31C154.128 123.382 154.082 105.993 153.988 81.112C153.957 74.7366 153.149 68.5783 152.542 62.2649C152.48 61.6289 151.858 61.1946 151.236 61.3652C151.05 61.4273 150.863 61.4893 150.661 61.5669C149.806 61.9237 149.386 62.5752 149.386 63.4904C149.324 86.6187 149.277 109.127 149.231 130.983C149.231 136.055 149.635 141.05 150.49 145.952C150.568 146.371 150.941 146.681 151.361 146.681H180.669C181.493 146.681 181.991 146.262 182.146 145.456L182.333 144.556C182.473 143.842 182.177 143.455 181.446 143.362C177.326 142.958 173.548 142.198 169.303 142.663C165.167 143.129 160.954 143.284 156.647 143.16C156.15 143.16 155.699 142.85 155.496 142.384M202.141 90.5277C202.188 90.3881 202.048 90.2485 201.908 90.3106C200.99 90.6674 200.446 91.3809 200.322 92.4357C200.275 92.777 200.415 92.8856 200.726 92.7615C200.882 92.6994 201.068 92.8856 201.239 93.3354C201.27 93.413 201.27 93.506 201.239 93.5836C200.897 95.1038 200.726 96.5154 200.71 97.8029C200.571 110.771 200.586 124.747 200.757 139.763C200.757 141.019 201.799 142.027 203.058 142.027H235.787C236.969 142.027 237.948 141.081 237.948 139.887C237.948 115.486 237.979 91.1948 237.995 67.0271C237.995 65.5535 237.886 64.1419 237.668 62.7923C237.606 62.3425 237.218 62.0012 236.751 61.9857C226.831 61.5824 217.425 61.753 208.516 62.4976C207.552 62.5752 207.039 63.1026 207.039 64.0643L206.588 90.1865C206.557 91.6291 205.437 92.8235 203.991 92.9166C202.188 93.0407 201.55 92.2496 202.125 90.5588M83.1199 96.686C80.8343 97.9425 78.6265 95.5846 77.1339 94.0955C75.9678 92.9476 74.584 92.5288 72.9981 92.9011C70.0284 93.5681 66.8721 93.1493 63.778 93.6612C59.751 94.3437 57.31 94.4678 53.6873 94.2816C52.8943 94.2351 52.3968 93.8318 52.2102 93.0717C51.9148 91.9238 52.3501 91.2568 53.5007 91.0707C55.6152 90.7294 57.6831 90.7449 59.7355 91.0862C61.3836 91.3809 63.0628 91.3809 64.7731 91.1172C67.8516 90.6208 71.0079 90.7449 74.273 91.474C74.6462 91.5515 74.9882 91.474 75.2992 91.2568C77.7247 89.4729 82.5446 89.566 85.3433 89.7987C85.7942 89.8297 86.0429 89.6281 86.074 89.1782L86.1518 88.2475C86.1829 87.8597 85.8564 87.5339 85.4677 87.5805L77.6003 88.294C77.0872 88.3406 76.8229 88.1079 76.7918 87.5805C76.4342 81.4067 76.3409 75.1399 76.5586 68.78C76.5897 67.57 76.9162 66.4532 77.4915 65.4139C77.7091 65.0416 78.0201 64.7934 78.4244 64.6848L83.462 63.2112C83.6485 63.1491 83.804 62.994 83.8196 62.7923L83.8818 62.327C83.9128 62.0788 83.804 62.0012 83.5708 62.0633C81.4873 62.6372 79.7926 62.9319 78.5021 62.963C73.0292 63.056 62.5653 63.0716 47.0793 63.0095C46.6906 63.0095 46.4885 63.1957 46.4885 63.5835C46.4729 72.689 46.3641 81.7945 46.1931 90.9C45.9287 103.93 46.333 121.939 45.4778 137.607C45.4467 138.398 45.9754 139.111 46.7372 139.297C50.1112 140.088 53.8583 139.561 57.2944 139.421C59.4712 139.328 61.9433 139.344 64.6954 139.499C71.5676 139.856 78.3777 139.933 85.1256 139.701C85.7942 139.67 86.3228 139.096 86.2917 138.413C85.7786 129.649 85.732 120.9 86.1673 112.198C86.5094 105.109 86.0274 98.1441 86.0585 91.1017C86.0585 90.838 85.8253 90.6053 85.561 90.6208C83.0266 90.7759 80.4612 91.3654 77.8335 92.3582C77.3826 92.5288 77.3204 92.7925 77.6625 93.1182C79.3728 94.8401 81.0986 95.6777 82.8245 95.6157C84.4259 95.5691 84.5348 95.9259 83.1199 96.717M108.852 110.073C109.396 109.607 109.661 109.732 109.661 110.445V136.831C109.676 137.374 109.427 137.545 108.914 137.374L103.472 135.466C103.161 135.357 102.959 135.466 102.882 135.776C102.602 136.784 102.571 137.839 102.819 138.941C102.897 139.328 103.146 139.53 103.535 139.577C106.395 139.918 108.634 139.964 110.282 139.701C116.424 138.754 123.281 138.398 130.822 138.661C131.941 138.692 132.812 139.189 133.418 140.104C133.543 140.306 133.682 140.507 133.822 140.693C134.444 141.624 134.18 142.09 133.076 142.09C124.4 142.121 115.382 141.593 106.675 142.943C105.494 143.129 104.623 143.749 104.079 144.82C104.001 144.944 103.939 145.083 103.877 145.207C103.332 146.247 103.659 146.759 104.825 146.759H133.9C135.408 146.759 136.466 145.285 135.968 143.858C134.926 140.911 135.673 138.041 135.564 135.512C135.502 134.225 135.486 132.922 135.47 131.619C135.439 109.204 135.346 87.7666 135.222 67.2908C135.222 66.9185 135.144 66.5462 134.988 66.205C134.444 64.933 133.807 64.3591 133.107 64.4676C131.801 64.6848 131.133 65.2587 131.086 66.2205C130.79 71.9444 130.588 77.2805 130.433 82.2288C130.433 82.5856 130.231 82.7718 129.873 82.7718L122.068 82.7252C121.788 82.7252 121.633 82.5856 121.617 82.3064L121.057 69.0902C121.057 69.0126 121.011 68.9506 120.917 68.9351L120.56 68.8575C120.373 68.8265 120.28 68.8885 120.28 69.0747L120.202 81.5618C120.202 82.3064 119.814 82.6942 119.067 82.7252L114.372 82.8959C113.781 82.9114 113.283 82.446 113.268 81.8566L113.019 68.0199C113.019 67.6941 112.708 67.4459 112.397 67.508L112.055 67.57C111.573 67.6321 111.2 68.0509 111.184 68.5318C110.936 73.3095 110.733 77.9475 110.562 82.415C110.516 83.6559 110.018 84.8659 109.832 86.0758C109.692 86.9135 110.049 87.3323 110.889 87.3478L129.516 87.4564C130.277 87.4564 130.651 87.8442 130.651 88.6043V90.5743C130.651 91.4895 130.2 91.9083 129.267 91.7842C122.612 90.9155 116.02 90.6518 109.505 91.0241C108.65 91.0707 108.028 91.8773 108.199 92.7149C108.603 94.7005 108.541 96.6084 108.075 98.4389C107.468 100.766 108.199 101.293 110.236 100.006C110.982 99.5557 111.791 99.2765 112.646 99.1834C112.708 99.1834 112.77 99.2144 112.801 99.261C112.863 99.3696 112.895 99.4781 112.879 99.6022C112.879 99.7574 112.77 99.866 112.615 99.9125C110.236 100.704 109.085 102.301 109.147 104.69C109.179 105.326 109.085 105.838 108.899 106.257C108.557 106.97 108.028 107.11 107.266 106.691C106.815 106.443 106.535 106.567 106.427 107.048C106.162 108.149 106.131 109.158 106.364 110.088C106.458 110.476 106.706 110.678 107.095 110.662C107.826 110.662 108.417 110.445 108.821 110.088M98.9013 66.872L93.1484 66.1895C92.9308 66.1584 92.7442 66.3136 92.7286 66.4997L92.511 68.3146C92.3399 69.6641 93.3506 70.9051 94.7499 71.0602L96.1959 71.2309C97.5952 71.4015 98.8546 70.4553 99.0101 69.1057L99.2278 67.2908C99.2589 67.0892 99.1034 66.8875 98.9013 66.872ZM172.879 82.9424C168.744 83.4388 164.592 83.4388 160.441 82.9734C160.161 82.9424 159.943 82.6942 159.974 82.3995C160.285 77.8079 160.13 72.7821 159.461 67.3063C159.384 66.6393 159.228 66.6238 159.01 67.2598C158.015 70.2536 158.948 75.1709 159.337 78.2423C159.586 80.3209 158.995 82.6011 159.866 84.9745C159.99 85.3312 160.021 85.7035 159.959 86.0913L159.819 86.8669C159.757 87.1927 160.005 87.4874 160.332 87.4874H177.59C178.026 87.4874 178.212 87.2702 178.166 86.8514L175.927 67.3373C175.849 66.7944 175.398 66.4221 174.854 66.4687L174.232 66.5307C173.641 66.5928 173.361 66.9185 173.408 67.508C173.859 72.4718 173.937 77.3426 173.672 82.1203C173.641 82.6321 173.361 82.9114 172.864 82.9734M195.642 68.2215C195.642 68.0819 195.657 67.9423 195.657 67.7872C195.688 67.2908 195.3 66.8875 194.802 66.872L188.396 66.7324C188.023 66.7324 187.728 67.0426 187.774 67.3994C187.821 67.8648 188.132 68.2215 188.723 68.4542C190.091 68.9971 191.957 69.3074 194.32 69.4004C195.004 69.4315 195.595 68.9041 195.642 68.2215ZM166.613 67.6476C166.613 67.3839 166.396 67.1667 166.116 67.1667H166.069C165.789 67.1667 165.587 67.3839 165.587 67.6631L165.681 81.1585C165.681 81.4222 165.898 81.6394 166.178 81.6394H166.225C166.505 81.6394 166.707 81.4222 166.707 81.143L166.613 67.6476ZM146.51 68.3146C146.51 67.9578 145.219 67.6476 143.602 67.6166C141.985 67.5855 140.679 67.8492 140.664 68.206C140.664 68.5628 141.954 68.873 143.571 68.9041C145.188 68.9351 146.494 68.6714 146.51 68.3146ZM83.7418 69.9899C83.6796 69.6952 83.493 69.5711 83.2132 69.5866C82.358 69.6486 81.9849 70.1916 82.1093 71.1998C82.1715 71.7428 82.4824 72.0995 83.0111 72.2546C83.4309 72.3632 83.6952 72.2081 83.804 71.7893C83.9284 71.3084 83.9128 70.7034 83.7418 70.0054M193.667 73.2009L191.257 73.7593C190.511 73.9299 190.122 74.3953 190.122 75.1554C190.044 81.6549 190.091 85.8742 190.262 87.7976C191.04 96.5309 191.257 104.628 190.884 112.058C190.418 121.521 190.184 126.283 190.184 126.376C190.06 133.062 189.998 139.67 190.013 146.216C190.013 146.526 190.169 146.697 190.48 146.712L194.895 146.759C195.238 146.759 195.533 146.479 195.549 146.123C195.72 134.473 195.611 122.777 195.222 111.004C194.787 97.5547 194.74 86.4946 194.693 74.0385C194.693 73.3405 194.351 73.0768 193.667 73.2164M142.716 73.9144C142.716 73.7283 142.576 73.5887 142.405 73.6042H140.85C140.664 73.5732 140.524 73.7128 140.539 73.8989L139.668 144.416C139.668 144.602 139.808 144.742 139.979 144.727H141.55C141.736 144.758 141.876 144.618 141.861 144.432L142.731 73.9144M97.9995 74.5969C97.9995 74.1161 97.6108 73.7128 97.1288 73.7283H93.1173C92.6354 73.7283 92.2311 74.1161 92.2467 74.5969L92.1223 145.859C92.1223 146.34 92.511 146.743 92.993 146.728H97.0044C97.4864 146.728 97.8906 146.34 97.8751 145.859L97.9995 74.5969ZM83.7574 84.4781C84.2238 84.4471 84.4881 82.2288 84.3482 79.4987C84.1927 76.7841 83.6796 74.597 83.2132 74.628C82.7467 74.659 82.4824 76.8772 82.6224 79.6073C82.7778 82.3219 83.2909 84.5091 83.7574 84.4781ZM186.391 88.9145C186.391 88.7284 186.251 88.5887 186.064 88.5887H186.017C185.846 88.5887 185.691 88.7439 185.691 88.9145L185.722 99.4781C185.722 99.6643 185.862 99.8039 186.049 99.8039H186.095C186.266 99.8039 186.422 99.6488 186.422 99.4781L186.391 88.9145ZM160.316 109.654C160.596 109.514 160.923 109.685 160.954 109.995C162.244 119.411 162.54 127.865 161.856 135.326C161.809 135.9 161.638 136.474 161.358 137.064C160.721 138.382 161.716 139.887 163.162 139.84C165.618 139.732 167.997 139.84 170.298 140.12C172.273 140.368 174.232 140.368 176.176 140.12C178.212 139.856 180.249 139.778 182.255 139.902C182.706 139.933 183.079 139.577 183.094 139.127C183.141 132.488 183.157 126.267 183.126 120.481C183.094 111.438 181.602 101.82 180.949 92.3426C180.902 91.5981 180.296 91.0241 179.549 91.0241H161.016C159.632 91.0241 158.559 92.2651 158.777 93.6456C159.523 98.2837 159.912 102.984 159.974 107.715C159.974 108.211 159.523 108.615 159.026 108.522L157.036 108.211C156.352 108.103 156.227 108.32 156.663 108.847C157.673 110.119 158.886 110.399 160.301 109.67M145.592 93.2734C145.592 93.0562 145.421 92.9011 145.219 92.9011H145.173C144.955 92.9011 144.799 93.0717 144.799 93.2734V142.462C144.799 142.679 144.97 142.834 145.173 142.834H145.219C145.421 142.834 145.592 142.679 145.592 142.462V93.2734ZM103.783 119.427C103.783 119.24 103.643 119.085 103.441 119.085H103.348C103.161 119.085 103.006 119.24 103.006 119.411L102.866 133.465C102.866 133.651 103.006 133.806 103.208 133.806H103.301C103.488 133.806 103.643 133.651 103.643 133.48L103.783 119.427ZM82.5757 147.1C83.7574 146.728 84.1927 146.092 83.8973 145.207C83.7729 144.835 83.3998 144.587 83.0111 144.587L42.3993 144.525C41.6219 144.525 40.9533 145.099 40.8134 145.859L40.7046 146.433C40.5024 147.534 40.9689 148.093 42.1039 148.093C55.1177 148.062 67.0276 147.984 77.8335 147.844C79.4505 147.844 81.0364 147.581 82.5757 147.1ZM204.24 146.572C207.039 149.023 210.972 150.326 214.673 150.342C222.12 150.373 228.884 150.311 234.979 150.187C237.902 150.125 239.97 149.675 241.198 148.822C241.82 148.387 241.913 147.953 241.509 147.488C241.167 147.1 240.654 146.867 240.125 146.867C230.718 146.867 221.358 146.867 212.076 146.867C209.713 146.867 207.054 145.921 204.442 146.03C203.913 146.045 203.836 146.247 204.24 146.588M88.9815 151.722C87.7843 151.722 86.7426 152.467 86.3228 153.568C85.8253 154.949 86.2606 155.694 87.6289 155.849C92.6043 156.392 98.0461 156.361 103.939 155.787C109.085 155.29 114.17 155.027 119.192 155.027C144.784 154.964 171.713 155.027 199.995 155.228C200.944 155.228 201.535 154.778 201.799 153.879C201.97 153.289 201.737 152.7 201.115 152.095C200.804 151.8 200.4 151.645 199.98 151.629C163.286 151.428 126.282 151.474 88.9815 151.753M52.8943 175.27C51.0907 174.975 49.3804 175.099 47.7634 175.657C45.9132 176.293 45.9598 176.666 47.9189 176.774C49.6136 176.867 51.013 177.612 52.7233 176.914C53.0964 176.759 53.3763 176.867 53.5784 177.224C53.6873 177.426 53.7184 177.643 53.6562 177.891C53.594 178.232 53.3763 178.419 53.0187 178.419L46.0531 178.465C45.9287 178.465 45.8665 178.527 45.8665 178.636L45.8199 181.381C45.8199 181.63 45.9443 181.754 46.1775 181.769L73.9154 182.576C74.3507 182.576 74.5529 182.374 74.5684 181.955L74.7394 159.68C74.7394 159.184 74.9882 158.873 75.4547 158.734L77.3049 158.144C77.8491 157.974 78.3155 157.586 78.5954 157.074C79.0929 156.097 79.3261 154.964 79.264 153.677C79.2329 153.119 78.9374 152.824 78.3777 152.824C73.5267 152.653 68.8933 151.924 64.0734 152.281C57.9008 152.731 51.6971 152.886 45.4467 152.731C44.7782 152.7 44.234 153.258 44.2495 153.925L44.4206 159.959C44.4206 160.502 44.716 160.735 45.2602 160.688C47.0482 160.487 49.2871 160.595 52.0392 160.983C52.2102 161.014 52.3035 161.107 52.3035 161.262L52.3346 161.604C52.3346 161.805 52.2724 161.898 52.0703 161.898L45.4467 162.069C45.1047 162.069 44.9337 162.255 44.9492 162.612L45.1669 166.955C45.198 167.452 45.4156 167.793 45.8665 167.995C45.9909 168.057 46.0998 168.119 46.1931 168.227C46.4729 168.537 46.5351 168.972 46.3641 169.329C45.8199 170.445 45.6022 171.671 45.7266 172.989C45.7577 173.377 45.9754 173.563 46.3641 173.579L52.7855 173.734C53.1897 173.734 53.3763 173.951 53.3918 174.339V174.835C53.3918 175.192 53.2208 175.347 52.8632 175.285M223.846 179.086L215.108 180.264C214.906 180.296 214.735 180.42 214.626 180.59L214.222 181.211C214.004 181.567 214.097 181.738 214.517 181.754L235.398 181.847C235.772 181.847 235.958 181.661 235.958 181.304C236.02 174.68 236.098 168.072 236.207 161.464C236.238 159.572 235.958 157.245 235.383 154.499C235.305 154.111 235.056 153.925 234.668 153.925L211.998 153.987C210.941 153.987 210.257 154.499 209.915 155.507C209.853 155.694 209.822 155.88 209.806 156.066C209.775 156.748 210.304 157.322 210.988 157.322C215.45 157.322 219.601 157.617 223.426 158.175C224.515 158.331 225.059 158.951 225.059 160.052L225.028 177.752C225.028 178.527 224.639 178.993 223.862 179.086M132.268 170.973C132.268 171.097 132.174 171.174 132.034 171.19L121.788 171.407C121.228 171.407 120.777 171.857 120.746 172.415L120.669 173.982C120.638 174.525 120.886 174.789 121.431 174.789C125.162 174.82 128.971 174.789 132.874 174.773C133.029 174.773 133.138 174.835 133.185 174.975L133.48 175.642C133.574 175.875 133.48 175.999 133.247 175.999H121.586C120.902 175.999 120.591 176.324 120.669 177.007C120.669 177.131 120.684 177.271 120.7 177.395C120.762 178.124 121.151 178.403 121.866 178.217C125.286 177.395 128.738 177.131 132.174 177.441C132.579 177.472 132.905 177.658 133.138 178L133.449 178.45C133.714 178.806 133.9 178.791 134.04 178.357C134.164 177.953 134.18 177.472 134.087 176.929C133.978 176.293 133.931 175.813 133.962 175.518C134.273 172.338 134.833 169.189 135.657 166.04C135.89 165.156 136.668 164.52 137.569 164.458C142.467 164.117 146.805 163.356 151.952 164.458C152.34 164.535 152.589 164.753 152.713 165.125C153.584 167.653 154.035 170.368 154.082 173.238C154.082 174.106 154.812 174.82 155.699 174.804C159.85 174.804 163.97 173.765 167.982 173.951C169.832 174.029 171.635 174.137 173.392 174.261C173.672 174.292 173.874 174.556 173.797 174.82L173.719 175.146C173.579 175.704 173.221 175.983 172.662 175.983L155.932 176.03C155.45 176.03 155.061 176.433 155.061 176.898L155.092 178.605C155.092 179.179 155.388 179.458 155.963 179.458H174.232C174.59 179.473 174.792 179.287 174.823 178.93C174.978 175.797 174.621 172.927 175.662 169.716C176.098 168.336 176.284 166.94 176.191 165.513C176.16 164.799 176.471 164.365 177.155 164.163C182.177 162.783 186.966 162.845 191.49 164.365C191.848 164.489 192.081 164.737 192.159 165.109L193.729 171.919C193.838 172.322 194.087 172.54 194.522 172.54C196.963 172.54 199.389 172.291 201.783 171.779C203.043 171.516 203.913 171.717 205.064 172.136C205.639 172.353 206.23 171.904 206.199 171.299L206.168 170.88C206.137 170.383 205.857 170.135 205.359 170.12L195.471 170.089C195.331 170.089 195.206 169.996 195.16 169.887L194.849 169.127C194.693 168.77 194.818 168.631 195.206 168.662L204.038 169.515C204.94 169.608 205.655 169.298 206.199 168.568L206.51 168.165C207.194 167.265 206.961 166.8 205.841 166.785L195.968 166.598C195.284 166.598 194.709 166.087 194.616 165.42L194.553 164.877C194.476 164.365 194.895 163.93 195.409 163.977C199.731 164.287 203.602 164.117 207.039 163.45C207.427 163.387 207.567 162.907 207.303 162.627C203.96 159.06 198.285 159.758 193.9 159.758C164.81 159.727 135.704 159.711 106.598 159.711C99.2433 159.711 91.4537 160.688 83.8507 160.999C83.1665 161.03 82.8245 161.402 82.84 162.084L82.8711 163.558C82.8711 164.241 83.2443 164.566 83.9284 164.52C87.2091 164.287 94.3923 163.806 97.4242 165.42C98.2949 165.885 99.3055 166.056 100.472 165.962C100.907 165.931 101.327 166.226 101.42 166.66L101.482 167.017C101.56 167.359 101.342 167.684 101 167.746C99.8497 167.964 98.8546 167.995 98.0461 167.808C93.335 166.754 88.5617 166.474 83.7418 167.002C83.3531 167.048 83.0888 167.25 82.98 167.638C82.7001 168.568 82.669 169.53 82.9178 170.554C82.9955 170.942 83.2443 171.159 83.6485 171.19C86.1829 171.454 88.7328 171.407 91.2671 171.081C94.6566 170.616 98.0461 170.57 101.405 170.926C101.715 170.957 101.824 171.128 101.762 171.423L101.653 171.873C101.576 172.229 101.249 172.493 100.891 172.493L83.7885 172.555C83.462 172.555 83.2909 172.726 83.2598 173.051L82.8711 176.65C82.8245 177.085 83.0266 177.286 83.462 177.271C85.6076 177.162 87.5822 176.511 89.6346 176.759C93.8015 177.255 98.015 177.364 102.306 177.116C102.524 177.116 102.617 176.976 102.602 176.759V176.293C102.571 176.076 102.446 175.968 102.229 175.983C98.5747 176.154 94.9365 175.921 91.2982 175.27C91.0184 175.223 90.9251 175.068 91.0028 174.804L91.1116 174.479C91.1427 174.37 91.2205 174.323 91.3293 174.339L101.855 174.975C102.337 175.006 102.679 174.804 102.866 174.354C103.13 173.749 103.146 173.113 102.944 172.446C102.819 172.074 102.819 171.702 102.944 171.33C103.612 169.127 104.514 165.342 107.08 164.799C111.495 163.837 115.351 163.977 118.647 165.233C120.124 165.776 120.731 166.831 120.467 168.367L120.28 169.53C120.202 170.027 120.404 170.244 120.917 170.228C124.758 170.042 128.567 170.151 132.376 170.538C132.408 170.538 132.423 170.554 132.423 170.601L132.361 171.019M184.851 169.654C185.131 169.654 185.396 169.251 185.427 168.708C185.458 168.165 185.271 167.715 184.976 167.7C184.696 167.7 184.432 168.103 184.4 168.646C184.369 169.189 184.556 169.639 184.851 169.654ZM196.73 174.944C199.684 175.363 202.732 175.285 205.872 174.711C206.106 174.68 206.215 174.541 206.183 174.308L206.152 173.951C206.137 173.734 205.997 173.61 205.779 173.61L194.491 173.687C194.134 173.687 193.963 173.889 194.009 174.246C194.04 174.463 194.134 174.665 194.274 174.835C194.522 175.13 194.585 175.44 194.429 175.782C194.274 176.154 194.087 176.464 193.838 176.728C193.247 177.348 193.683 178.372 194.553 178.372L205.624 178.325C206.075 178.325 206.448 177.953 206.448 177.503V177.178C206.479 176.542 206.137 176.231 205.499 176.278C202.405 176.495 199.327 176.278 196.31 175.611C196.31 175.611 196.279 175.595 196.279 175.564L196.341 175.223C196.373 175.006 196.497 174.913 196.715 174.944M102.555 178.651C102.555 178.481 102.415 178.341 102.244 178.341H83.2754C83.1043 178.341 82.9644 178.481 82.9644 178.651V179.241C82.9644 179.411 83.1043 179.551 83.2754 179.551H102.244C102.415 179.551 102.555 179.411 102.555 179.241V178.651ZM133.776 179.644C129.624 181.257 125.489 181.319 121.384 179.861C120.84 179.66 120.529 179.861 120.467 180.435L120.218 183.057C120.171 183.569 120.575 184.018 121.088 184.018L133.791 184.096C134.056 184.096 134.196 183.972 134.18 183.693L134.118 179.877C134.118 179.628 133.993 179.566 133.776 179.644ZM206.432 180.342C206.432 180.171 206.308 180.016 206.121 180.016L194.071 179.768C193.9 179.768 193.76 179.908 193.745 180.078L193.698 182.607C193.698 182.777 193.823 182.933 194.009 182.933L206.059 183.181C206.23 183.181 206.37 183.041 206.386 182.87L206.432 180.342ZM145.701 183.987C146.385 184.018 146.976 183.134 147.038 181.986C147.085 180.854 146.587 179.908 145.903 179.877C145.219 179.846 144.628 180.73 144.566 181.878C144.52 183.01 145.017 183.956 145.701 183.987ZM101.591 180.761C95.4185 182.172 89.4791 182.25 83.7418 181.009C83.2443 180.9 82.8089 181.319 82.8711 181.8L82.9333 182.467C83.0422 183.289 83.7107 183.941 84.5503 183.972C91.1272 184.282 97.1754 184.236 102.711 183.817C103.472 183.755 103.985 182.995 103.737 182.266L103.612 181.909C103.27 180.916 102.602 180.544 101.576 180.776M174.978 181.273C174.932 180.994 174.761 180.838 174.481 180.823C169.754 180.482 165.276 180.699 161.047 181.443C159.119 181.785 157.253 181.878 155.481 181.692C154.952 181.63 154.47 182.002 154.377 182.529L154.315 182.902C154.159 183.755 154.533 184.189 155.403 184.189H175.072C175.32 184.22 175.414 184.096 175.383 183.848L174.994 181.257M248.148 189.959C248.117 190.053 248.148 190.146 248.179 190.223L249.718 193.108C249.874 193.419 250.34 193.357 250.433 193.015L251.911 186.888C251.957 186.717 251.879 186.562 251.74 186.469L249.78 185.29C249.563 185.151 249.267 185.259 249.205 185.523L248.148 189.959ZM35.9313 190.006C35.1228 188.672 33.2415 187.648 31.64 187.695C31.2046 187.695 30.8626 187.865 30.5983 188.176C30.2873 188.532 30.2096 188.92 30.3806 189.323C30.5361 189.696 30.8159 189.913 31.2202 189.959L35.6203 190.487C36.0557 190.549 36.149 190.378 35.9313 190.006ZM48.5253 200.725C46.1309 201.423 43.6898 201.733 41.1866 201.64C40.9689 201.64 40.8911 201.749 40.9378 201.95L41 202.292C41.0466 202.586 41.3109 202.788 41.6064 202.788C71.2567 202.819 100.301 202.788 128.707 202.633C130.542 202.633 132.485 202.555 134.553 202.431C139.637 202.121 143.804 202.602 150.055 202.152C153.584 201.888 156.834 201.78 159.788 201.811C170.594 201.919 181.384 202.012 192.19 202.121C199.638 202.198 205.826 202.369 210.755 202.617C216.881 202.927 222.633 202.695 228.604 202.741C236.145 202.772 243.717 200.539 251.133 202.555C251.413 202.617 251.646 202.338 251.522 202.074L251.18 201.407C250.993 201.051 250.636 200.802 250.216 200.756C243.017 199.887 235.725 199.406 228.308 199.344C227.873 199.344 227.593 199.127 227.516 198.693C227.391 198.057 227.655 197.653 228.324 197.467C231.962 196.49 235.336 195.947 238.461 195.839C240.871 195.761 242.659 196.955 245.007 197.157C245.505 197.204 245.551 197.079 245.163 196.785C244.121 196.025 242.83 195.42 241.991 194.691C239.752 192.721 237.824 189.525 234.714 189.23C230.703 188.858 226.474 188.75 222.011 188.92C218.482 189.06 212.994 190.208 208.764 189.649C200.026 188.501 191.848 188.734 182.768 189.277C177.279 189.618 171.387 189.479 165.074 188.874C164.235 188.796 162.524 188.982 159.974 189.463C158.202 189.804 156.523 189.959 154.937 189.975C132.205 190.037 109.49 190.037 86.7737 189.975C83.5863 189.975 78.0667 189.696 70.246 189.122C63.5759 188.641 56.8902 188.641 50.2045 189.122C49.7069 189.153 49.0073 189.432 48.1055 189.944C47.6079 190.239 47.4214 190.658 47.5613 191.216L47.8723 192.364C48.0277 192.922 48.3542 193.062 48.8673 192.798C49.6136 192.395 50.4377 192.379 51.355 192.721C51.7126 192.86 52.0547 192.876 52.4123 192.767C52.6611 192.69 52.9099 192.674 53.1897 192.736C53.6251 192.814 53.765 193.062 53.594 193.465C53.283 194.225 52.6922 194.66 51.8059 194.799C51.2307 194.877 51.1685 195.109 51.5883 195.513C52.2568 196.133 52.7233 196.924 52.9409 197.855C53.0498 198.305 52.8788 198.569 52.4279 198.662L48.0744 199.577C47.6701 199.654 47.6079 199.872 47.8567 200.197C47.9811 200.368 48.1988 200.461 48.4942 200.508C48.8829 200.539 48.8984 200.632 48.5253 200.725ZM260.789 191.557C260.307 190.751 259.078 190.595 258.021 191.2C256.964 191.821 256.482 192.969 256.964 193.775C257.446 194.582 258.674 194.737 259.731 194.132C260.789 193.512 261.271 192.364 260.789 191.557ZM251.506 193.744C251.802 194.179 252.097 194.442 252.393 194.52C252.672 194.598 252.952 194.411 252.999 194.132C253.03 193.931 253.03 193.729 252.968 193.558C252.843 193.155 252.564 193.015 252.159 193.108C251.911 193.17 251.708 193.279 251.537 193.419C251.429 193.512 251.413 193.62 251.506 193.729M29.8053 193.993C29.3078 193.868 28.8724 194.349 29.0435 194.83L29.9919 197.436C30.0696 197.669 30.2873 197.824 30.5361 197.855L33.086 198.134C33.3814 198.165 33.6457 198.01 33.7545 197.731L34.4231 195.932C34.563 195.575 34.3609 195.187 33.9878 195.094L29.8053 193.993ZM52.7077 197.529C52.7077 197.157 51.1529 196.847 49.2405 196.847C47.3281 196.847 45.7733 197.157 45.7733 197.545C45.7733 197.933 47.3281 198.227 49.2405 198.227C51.1529 198.227 52.7077 197.917 52.7077 197.529ZM258.068 198.972C258.425 199.748 259 200.151 259.809 200.166C260.617 200.166 261.022 199.81 261.037 199.049C261.037 198.646 260.835 198.382 260.446 198.289C259.871 198.134 259.265 198.088 258.596 198.134C258.021 198.165 257.85 198.445 258.083 198.972M7.33825 203.703C7.82024 203.812 8.44217 202.834 8.75313 201.531C9.06409 200.228 8.93971 199.065 8.47326 198.956C7.99127 198.848 7.36934 199.825 7.05838 201.128C6.74742 202.431 6.8718 203.595 7.33825 203.703ZM17.1647 203.036C17.5378 202.757 17.1802 201.656 16.3717 200.585C15.5632 199.499 14.5992 198.863 14.2416 199.143C13.8685 199.422 14.2261 200.523 15.0346 201.593C15.8431 202.679 16.8071 203.315 17.1647 203.036Z" fill="#002657"/>
<path d="M227.547 86.6965L227.438 66.9963C227.438 66.5464 227.827 66.1742 228.278 66.2052L232.181 66.4068C232.616 66.4223 232.943 66.8101 232.927 67.229L232.025 86.743C231.994 87.1618 231.652 87.5031 231.232 87.5031H228.325C227.889 87.5031 227.532 87.1463 227.532 86.712L227.547 86.6965Z" fill="#002657"/>
<path d="M209.978 87.8442V66.7479C209.962 66.5617 210.118 66.3911 210.304 66.3911L224.779 66.5462C224.982 66.5462 225.137 66.7014 225.137 66.903V87.0996C225.122 87.2857 224.982 87.4409 224.779 87.4409L210.351 88.2009C210.133 88.2009 209.978 88.0613 209.978 87.8442ZM220.877 71.8668C220.955 71.2774 219.944 70.6414 218.607 70.4552C217.27 70.2691 216.119 70.5949 216.026 71.1843C215.948 71.7738 216.959 72.4098 218.296 72.5959C219.633 72.782 220.784 72.4563 220.877 71.8668ZM219.493 76.9237C219.431 76.4118 218.576 76.0706 217.565 76.1792C216.554 76.2878 215.793 76.7841 215.839 77.3115C215.901 77.8234 216.757 78.1647 217.767 78.0561C218.778 77.9475 219.54 77.4511 219.493 76.9237ZM219.462 81.6084C219.446 80.9569 218.42 80.4605 217.176 80.507C215.933 80.5535 214.953 81.112 214.984 81.7635C215 82.415 216.026 82.9114 217.27 82.8648C218.514 82.8183 219.493 82.2599 219.462 81.6084Z" fill="#002657"/>
<path d="M66.7012 69.9125C66.7945 69.3231 66.7634 68.7026 66.5923 68.0511C66.468 67.5237 66.6545 67.2445 67.2143 67.229L70.837 67.0428C71.6455 67.0118 72.3452 67.6633 72.3452 68.4699L72.4073 86.8206C72.4073 87.2239 72.0808 87.5341 71.6766 87.5031C67.6652 87.2549 62.0678 87.0067 58.1653 88.3563C57.1702 88.6975 56.1751 87.9064 56.2684 86.8671C56.3306 86.0915 56.7037 85.3469 56.626 84.4938C56.2373 79.2507 56.0352 73.9767 56.0352 68.6561C56.0352 67.1824 56.7659 66.5309 58.2274 66.7481C60.1865 67.0273 62.3011 67.1049 64.5866 66.9653C65.4107 66.9187 66.0482 67.6633 65.8771 68.4699C65.7527 69.0283 65.8305 69.5558 66.1259 70.0366C66.4213 70.502 66.6234 70.471 66.7012 69.9125ZM67.5563 72.41C67.5563 72.2238 67.4164 72.0687 67.2298 72.0687H66.5612C66.3747 72.0532 66.2192 72.2083 66.2192 72.3789L65.9704 85.0057C65.9704 85.1918 66.1103 85.3469 66.2969 85.3469H66.981C67.1676 85.3625 67.3231 85.2073 67.3231 85.0212L67.5719 72.3944M61.3682 81.7016C61.6325 81.7016 61.8346 79.8092 61.8035 77.4669C61.7724 75.1401 61.5547 73.2321 61.2904 73.2321C61.0261 73.2321 60.824 75.1245 60.8551 77.4669C60.8706 79.7937 61.1039 81.7016 61.3682 81.7016Z" fill="#002657"/>
<path d="M55.0251 87.0686C55.0251 87.2392 54.8852 87.3788 54.7141 87.3944L52.4286 87.4254C52.2575 87.4254 52.1176 87.2858 52.1021 87.1151L51.8066 68.1595C51.8066 67.9889 51.9466 67.8493 52.1176 67.8338L54.4032 67.8027C54.5742 67.8027 54.7141 67.9423 54.7297 68.113L55.0251 87.0686Z" fill="#002657"/>
<path d="M208.656 94.4213L208.61 94.7626C208.563 95.0883 208.858 95.3675 209.185 95.3055C214.378 94.2662 223.878 93.4595 228.527 96.1586C231.217 97.7098 231.823 102.131 231.947 104.907C232.336 113.873 232.383 122.669 232.15 131.278C232.119 132.084 231.714 132.519 230.937 132.627L228.745 132.922C227.874 133.046 227.407 132.658 227.376 131.79L226.195 101.433C226.148 100.285 225.573 99.6023 224.438 99.3851C219.929 98.532 215.327 99.0439 210.615 100.936C208.361 101.852 207.832 102.922 207.77 105.419C207.568 113.734 207.552 122.048 207.677 130.347C207.677 130.75 207.537 131.061 207.241 131.34C206.744 131.805 206.184 131.898 205.562 131.603C205.158 131.417 204.832 131.014 204.583 130.425C203.557 127.943 203.028 125.647 203.012 123.537C202.95 117.813 202.935 112.089 202.966 106.381C202.966 104.163 203.386 102.038 204.179 99.9901C205.003 97.927 205.096 96.4534 205.376 94.4213C205.438 94.0335 205.624 93.7232 205.935 93.5061C207.832 92.1721 209.201 91.0242 211.673 90.9621C218.98 90.7915 226.319 90.8225 233.658 91.0707C234.078 91.0707 234.326 91.5516 234.109 91.8928C233.409 93.0407 232.305 93.5061 230.797 93.2734C223.862 92.2186 216.835 92.2496 209.683 93.3975C209.092 93.4906 208.75 93.8473 208.672 94.4523L208.656 94.4213Z" fill="#002657"/>
<path d="M61.135 108.46C64.1824 107.389 67.4009 107.048 70.837 107.467C71.6455 107.56 72.2519 108.227 72.2519 109.049L72.4074 133.977C72.4074 135.295 71.7544 135.978 70.4172 136.009C65.504 136.118 60.9795 135.838 56.8281 135.14C56.4083 135.063 56.1907 134.83 56.1596 134.411C55.491 124.747 55.3511 115.518 55.7553 106.707C56.2218 96.3604 64.4467 96.7637 72.0498 96.5C77.9114 96.2829 80.1504 102.984 80.3836 107.684C80.8345 115.999 80.8811 124.297 80.5391 132.612C80.508 133 80.368 133.325 80.1193 133.62C79.2019 134.644 78.0514 135.109 76.6831 135.016C76.2789 134.985 76.0457 134.784 75.9524 134.396C75.0195 129.866 74.5997 125.337 74.7085 120.776C74.8484 114.199 75.0195 110.104 74.1643 105.357C73.4958 101.603 71.1635 99.9282 67.1521 100.347C63.5916 100.735 61.1039 102.969 59.689 107.064C59.378 107.932 60.2332 108.77 61.1039 108.475M68.9246 114.261C68.9246 114.091 68.7536 113.951 68.567 113.967H68.3182C68.1472 113.998 68.0073 114.168 68.0228 114.339L69.4377 130.114C69.4377 130.285 69.6087 130.425 69.7953 130.409H70.0441C70.2151 130.378 70.355 130.208 70.3395 130.037L68.9246 114.261ZM63.4361 117.395C63.6693 117.395 63.8559 116.914 63.887 116.293C63.9181 115.673 63.7471 115.176 63.5138 115.161C63.2806 115.161 63.0941 115.642 63.063 116.262C63.0319 116.883 63.2029 117.379 63.4361 117.395ZM63.4983 128.874C63.6849 128.874 63.8715 128.005 63.887 126.919C63.9181 125.833 63.7782 124.949 63.576 124.949C63.3895 124.949 63.2029 125.818 63.1873 126.903C63.1562 127.989 63.2962 128.874 63.4983 128.874Z" fill="#002657"/>
<path d="M122.395 109.794C121.462 105.652 115.383 107.544 113.19 108.925C112.195 109.545 110.92 108.77 111.06 107.606C111.434 104.178 113.33 101.867 117.015 102.224C124.136 102.891 128.21 106.164 129.252 112.074C130.449 118.884 130.9 126.981 130.589 136.428C130.589 136.769 130.402 136.909 130.06 136.831C127.759 136.304 125.427 136.164 123.032 136.381C122.675 136.412 122.504 136.257 122.504 135.9C122.426 128.051 122.457 120.063 122.582 111.919C122.582 111.205 122.519 110.492 122.364 109.825L122.395 109.794Z" fill="#002657"/>
<path d="M172.662 107.715C172.118 107.234 171.309 107.234 170.765 107.715C169.956 108.444 169.101 108.987 168.215 109.328C166.598 109.949 165.401 109.468 164.67 107.901C164.266 107.033 164.328 106.071 164.857 105.031C165.183 104.411 165.712 103.899 166.365 103.604C171.682 101.153 180.109 103.015 180.56 110.119C181.027 117.193 181.338 125.15 181.509 133.977C181.54 135.59 180.747 136.366 179.145 136.366L176.3 136.335C174.916 136.335 174.279 135.621 174.403 134.241C175.009 128.206 175.103 121.738 174.683 114.851C174.512 111.981 175.087 109.871 172.631 107.731L172.662 107.715Z" fill="#002657"/>
<path d="M224.205 130.44C224.205 131.728 223.194 132.782 221.904 132.813L212.839 132.953C211.346 132.969 210.102 130.083 210.04 126.516L209.807 111.422C209.745 107.855 210.911 104.938 212.388 104.907L221.453 104.768C222.728 104.752 223.8 105.761 223.816 107.064L224.189 130.44M218.576 106.97C218.685 106.521 218.514 106.257 218.079 106.148C217.224 105.931 216.555 106.102 216.057 106.66C215.762 107.017 215.7 107.405 215.902 107.839C216.182 108.46 216.633 108.801 217.286 108.863C217.721 108.894 218.141 108.615 218.25 108.196L218.576 106.986M218.467 111.236C218.219 110.616 217.41 110.383 216.679 110.678C215.949 110.988 215.56 111.733 215.824 112.338C216.073 112.958 216.881 113.191 217.612 112.896C218.343 112.586 218.732 111.841 218.467 111.236ZM218.467 115.983C218.685 115.735 218.514 115.238 218.11 114.882C217.69 114.509 217.177 114.416 216.959 114.664C216.742 114.913 216.913 115.409 217.317 115.766C217.737 116.138 218.25 116.231 218.467 115.983ZM219.089 121.924C218.918 121.521 218.141 121.474 217.363 121.8C216.586 122.126 216.089 122.731 216.26 123.134C216.431 123.537 217.208 123.584 217.985 123.258C218.763 122.932 219.26 122.327 219.089 121.924Z" fill="#002657"/>
<path d="M164.375 111.748C164.375 111.19 164.81 110.74 165.37 110.74L170.314 110.709C171.247 110.709 172.025 113.811 172.056 117.658L172.134 129.339C172.165 133.186 171.434 136.304 170.501 136.319L165.557 136.35C164.997 136.35 164.53 135.9 164.53 135.342L164.375 111.748Z" fill="#002657"/>
<path d="M119.612 135.419C119.596 135.993 119.099 136.428 118.539 136.412L112.102 136.149C111.527 136.118 111.076 135.652 111.107 135.078L111.993 112.943C112.009 112.369 112.506 111.934 113.066 111.95L119.503 112.214C120.078 112.245 120.529 112.71 120.498 113.284L119.612 135.419Z" fill="#002657"/>
<path d="M51.5112 125.058C50.7649 125.042 50.2207 123.15 50.2984 120.838C50.3606 118.527 51.0292 116.681 51.7755 116.712C52.5218 116.728 53.066 118.62 52.9882 120.931C52.9261 123.243 52.2575 125.089 51.5112 125.058Z" fill="#002657"/>
<path d="M53.859 131.216L52.4752 134.504C52.3509 134.799 52.0399 134.939 51.7445 134.861L50.2519 134.473C49.8632 134.365 49.661 133.946 49.8476 133.589L51.9311 129.494C52.1487 129.075 52.7396 129.044 52.9883 129.432L53.7813 130.626C53.9057 130.797 53.9212 131.014 53.8435 131.216H53.859Z" fill="#002657"/>
<path d="M71.024 178.357C71.024 178.527 70.8841 178.667 70.6975 178.667L55.849 178.434C55.678 178.434 55.5381 178.279 55.5381 178.109L55.8335 159.804C55.8335 159.634 55.9734 159.494 56.16 159.494L71.0085 159.727C71.1795 159.727 71.3194 159.882 71.3194 160.053L71.024 178.357ZM66.4529 162.503C66.2041 162.178 65.5355 162.271 64.9758 162.705C64.4005 163.139 64.1673 163.76 64.4005 164.086C64.6493 164.411 65.3179 164.318 65.8776 163.884C66.4529 163.45 66.6861 162.829 66.4529 162.503ZM63.8252 169.686L65.1313 168.817C65.6288 168.476 65.5822 168.227 65.0069 168.057C64.556 167.917 64.074 167.917 63.592 168.057C63.1567 168.196 62.9701 168.507 63.0323 168.956L63.0945 169.375C63.1567 169.701 63.5298 169.872 63.8097 169.686H63.8252Z" fill="#002657"/>
<path d="M230.362 176.728C230.331 177.519 229.662 178.139 228.869 178.108H228.434C227.625 178.062 227.019 177.379 227.05 176.588L227.594 162.317C227.625 161.526 228.294 160.906 229.087 160.937H229.522C230.331 160.983 230.937 161.666 230.906 162.457L230.362 176.728Z" fill="#002657"/>
<path d="M173.268 164.644C173.315 165.078 169.957 165.776 165.79 166.211C161.623 166.645 158.187 166.661 158.14 166.226C158.093 165.792 161.452 165.094 165.619 164.66C169.801 164.225 173.222 164.21 173.268 164.644Z" fill="#002657"/>
<path d="M49.8787 166.754C48.9614 167.095 48.013 167.204 47.049 167.064C46.6136 167.002 46.4581 166.754 46.5514 166.335C46.6136 166.118 46.7536 165.916 46.9557 165.745C47.1112 165.621 47.3599 165.559 47.6398 165.544C49.1635 165.528 50.6872 165.482 52.1799 165.451C52.3975 165.451 52.553 165.528 52.6463 165.73C52.7085 165.823 52.7085 165.932 52.7085 166.04C52.7085 166.118 52.6774 166.164 52.5997 166.18C51.6357 166.412 50.8583 166.397 49.8632 166.754H49.8787Z" fill="#002657"/>
<path d="M173.595 170.12C173.595 170.29 173.47 170.43 173.299 170.43L158.326 171.159C158.155 171.159 158.015 171.035 158.015 170.864L157.953 169.748C157.953 169.577 158.078 169.437 158.249 169.437L173.221 168.708C173.392 168.708 173.532 168.832 173.532 169.003L173.595 170.12Z" fill="#002657"/>
<path d="M50.5628 171.749C49.5211 172.447 48.526 172.664 47.5776 172.416C45.7584 171.919 45.7895 171.5 47.6398 171.144C49.0702 170.864 50.5473 170.818 52.1021 170.989C52.3197 171.02 52.4441 171.128 52.5063 171.345C52.5374 171.485 52.5063 171.64 52.3975 171.795C52.242 172.012 52.071 172.059 51.8533 171.919L51.6045 171.749C51.2625 171.531 50.9204 171.531 50.5628 171.749Z" fill="#002657"/>
<path d="M172.118 177.674C172.118 177.922 171.916 178.108 171.683 178.108L161.919 178.046C161.67 178.046 161.483 177.845 161.483 177.612V177.565C161.483 177.317 161.686 177.131 161.919 177.131L171.683 177.193C171.932 177.193 172.118 177.395 172.118 177.627V177.674Z" fill="#002657"/>
<path d="M220.845 197.421C220.845 197.871 220.457 198.228 220.006 198.212L202.701 197.762C202.25 197.762 201.892 197.374 201.908 196.925V196.04C201.939 195.591 202.312 195.234 202.763 195.249L220.068 195.699C220.519 195.699 220.876 196.087 220.861 196.537L220.83 197.421H220.845Z" fill="#002657"/>
<path d="M55.9266 197.886C55.4135 198.01 54.8538 197.979 54.263 197.778C53.8587 197.638 53.7965 197.405 54.0608 197.08C54.5739 196.459 55.1492 196.025 55.7867 195.777C56.2687 195.59 56.5952 195.637 56.7662 195.901C56.9372 196.18 56.9061 196.614 56.6574 197.235C56.533 197.545 56.2531 197.778 55.9266 197.871V197.886Z" fill="#002657"/>
<path d="M130.589 197.421C130.589 197.793 130.278 198.088 129.905 198.088L113.906 197.871C113.533 197.871 113.237 197.56 113.237 197.188V196.568C113.237 196.195 113.548 195.901 113.937 195.901L129.936 196.118C130.309 196.118 130.605 196.428 130.605 196.8V197.421H130.589Z" fill="#002657"/>
<path d="M177.326 197.452C177.326 197.731 177.093 197.964 176.813 197.964L162.633 197.995C162.353 197.995 162.12 197.762 162.12 197.483V196.18C162.12 195.901 162.353 195.668 162.633 195.668L176.813 195.637C177.093 195.637 177.326 195.87 177.326 196.149V197.452Z" fill="#002657"/>
<path d="M60.1553 196.506C60.2486 196.397 60.4197 196.444 60.4663 196.568C60.7306 197.328 60.5129 197.979 59.7977 198.522C59.4401 198.786 59.0514 198.879 58.6005 198.786C58.2429 198.724 58.1963 198.569 58.445 198.305L60.1553 196.49V196.506Z" fill="#002657"/>
<path d="M106.489 198.367C106.489 198.77 106.178 199.096 105.774 199.096L91.9046 199.189C91.5003 199.189 91.1894 198.879 91.1738 198.476V197.514C91.1738 197.111 91.4848 196.785 91.889 196.785L105.758 196.692C106.162 196.692 106.473 197.002 106.489 197.405V198.367Z" fill="#002657"/>
<path d="M76.7613 199.236L70.8997 198.926C70.5731 198.91 70.4021 198.522 70.6198 198.274L71.7393 196.909C71.817 196.816 71.9414 196.754 72.0658 196.769L80.2752 197.111C80.7105 197.126 80.8038 197.731 80.3996 197.871L76.9323 199.205C76.9323 199.205 76.8235 199.236 76.7769 199.236H76.7613Z" fill="#002657"/>
<path d="M150.257 197.452C150.257 197.731 150.039 197.995 149.759 197.995L138.767 198.507C138.487 198.507 138.223 198.29 138.223 198.01V197.638C138.192 197.359 138.409 197.095 138.705 197.095L149.697 196.583C149.977 196.583 150.241 196.8 150.241 197.08V197.452H150.257Z" fill="#002657"/>
</g>
<defs>
<clipPath id="clip0_525_3304">
<rect width="275" height="208" fill="white"/>
</clipPath>
</defs>
</svg>
