<svg width="258" height="223" viewBox="0 0 258 223" fill="none" xmlns="http://www.w3.org/2000/svg">
<g clip-path="url(#clip0_374_21735)">
<path d="M48.9018 33.3475C48.858 34.3878 47.9819 35.1969 46.9305 35.1535L44.2146 35.0524C43.1633 35.0235 42.3456 34.1421 42.3894 33.1018L42.7982 21.9908C42.842 20.9505 43.7181 20.1414 44.7695 20.1848L47.4854 20.2859C48.5368 20.3148 49.3545 21.1962 49.3106 22.2365L48.9018 33.3475Z" fill="#002657"/>
<path d="M65.6209 29.2729C66.4094 27.568 67.6944 27.0479 69.4612 27.7125C70.1913 27.987 70.8776 28.3193 71.5201 28.7383C73.1409 29.7931 73.3453 31.079 72.148 32.5672L66.6869 39.387C66.4094 39.7482 65.986 39.9938 65.5187 40.0661C63.9271 40.3261 62.7736 39.7482 62.0727 38.3178C61.8391 37.841 61.8391 37.3497 62.0727 36.8729L65.6355 29.2729H65.6209Z" fill="#002657"/>
<path d="M24.1661 31.1223L27.7289 37.812C27.9626 38.2455 27.9772 38.6789 27.7581 39.1268C27.2033 40.2972 26.2688 40.9474 24.9546 41.1063C24.4581 41.1785 24.0201 41.034 23.655 40.7017C21.2457 38.4911 19.0992 36.0493 17.1864 33.3474C16.0329 31.7147 16.2081 30.2265 17.7267 28.8972C18.3546 28.3482 19.0992 28.1314 19.9316 28.2326C21.859 28.4638 23.2754 29.4318 24.1661 31.1223Z" fill="#002657"/>
<path d="M16.6018 52.9686C15.5505 54.4134 13.5208 54.7313 12.0753 53.691L6.74559 49.8766C5.3 48.8363 4.97876 46.8423 6.0155 45.3975L6.33674 44.9496C7.38807 43.5192 9.41773 43.2013 10.8633 44.2271L16.193 48.0416C17.6386 49.0819 17.9598 51.0758 16.9231 52.5206L16.6018 52.9686Z" fill="#002657"/>
<path d="M83.1425 45.1808C84.1938 47.0735 82.354 50.0644 79.054 51.8705C75.7539 53.691 72.2057 53.6188 71.1544 51.726C70.103 49.8332 71.9429 46.8423 75.2429 45.0363C78.5429 43.2157 82.0911 43.288 83.1425 45.1808Z" fill="#002657"/>
<path d="M64.3211 52.7375C72.4398 66.2759 65.4893 80.9557 54.2459 90.0438C47.3684 95.5921 37.2785 95.1153 31.3502 87.7465C24.9253 79.742 20.647 69.339 22.6037 59.2394C23.3922 55.1793 25.159 51.8995 27.8895 49.371C36.8989 41.0775 57.8233 41.9155 64.3211 52.7375Z" fill="#002657"/>
<path d="M88.1955 65.6546C88.2685 67.085 87.1588 68.2987 85.7132 68.371L76.4994 68.8333C75.0538 68.9056 73.8273 67.8075 73.7543 66.3771L73.7251 65.6835C73.6521 64.2531 74.7618 63.0394 76.2074 62.9672L85.4212 62.5048C86.8667 62.4326 88.0933 63.5307 88.1663 64.9611L88.1955 65.6546Z" fill="#002657"/>
<path d="M2.19016 63.3427L12.6597 63.6173C13.9592 63.6606 14.9084 64.8021 14.7039 66.0735L14.4265 67.8074C14.2659 68.7465 13.492 69.469 12.5283 69.5701L2.73043 70.4804C1.59149 70.5815 0.583958 69.7868 0.423337 68.6598L0.0144858 65.7268C-0.160736 64.4408 0.875995 63.2994 2.19016 63.3427Z" fill="#002657"/>
<path d="M9.95816 86.6195C12.7763 85.796 16.2077 82.6317 18.4126 80.869C19.1427 80.291 20.1795 80.2766 20.9095 80.8545C24.3556 83.5709 19.2157 88.0066 16.8064 89.4226C16.456 89.6393 16.1493 89.8994 15.8865 90.2028L13.7984 92.7313C13.4188 93.1792 12.9661 93.2659 12.4405 92.9914C10.7175 92.0522 8.32275 90.3906 8.51258 88.2667C8.58559 87.4286 9.06745 86.8796 9.95816 86.6195Z" fill="#002657"/>
<path d="M79.4482 93.2224C78.9079 93.9159 77.9004 94.046 77.1995 93.5114L75.0092 91.8353C70.2782 88.2376 67.3141 84.1776 68.4092 82.7616L68.7889 82.2848C69.884 80.8833 74.6004 82.6749 79.3314 86.2726L81.5217 87.9487C82.2226 88.4833 82.354 89.4802 81.8137 90.1737L79.4482 93.2224Z" fill="#002657"/>
<path d="M59.619 107.209C60.1885 109.593 59.2977 111.139 56.9176 111.847C56.1437 112.064 55.4575 112.266 54.8734 112.439C52.4933 113.147 51.0769 112.28 50.6242 109.867C50.157 107.368 49.8796 104.247 49.7919 100.534C49.7481 98.7852 51.2667 97.3982 53.019 97.5715C56.611 97.9328 58.7867 103.756 59.619 107.209Z" fill="#002657"/>
<path d="M37.3957 110.055C37.1767 111.702 35.6289 112.858 33.9643 112.641L32.8984 112.497C31.2191 112.266 30.051 110.749 30.2846 109.101L31.336 101.458C31.555 99.811 33.1028 98.6551 34.7674 98.8718L35.8333 99.0163C37.5125 99.2475 38.6807 100.765 38.4471 102.412L37.3957 110.055Z" fill="#002657"/>
<path d="M257.956 214.519C257.182 204.564 255.357 191.213 252.48 174.438C250.203 161.203 245.559 137.334 234.33 130.095C226.022 124.72 215.421 121.874 206.003 118.378C201.126 116.571 197.417 114.794 194.862 113.075C191.065 110.517 188.086 107.613 185.911 104.362C184.64 102.47 185.005 98.973 186.217 96.7335C189.649 90.4483 192.146 83.802 193.708 76.7944C193.81 76.332 194.044 75.9419 194.409 75.6096C196.672 73.5435 199.067 72.4309 200.498 69.7868C203.418 64.3397 203.418 58.907 200.483 53.4743C199.987 52.5496 199.914 51.4515 200.308 50.469C204.382 40.2394 205.652 26.3832 201.038 16.0668C199.184 11.9056 196.03 9.56496 191.576 9.05926C190.291 8.91478 189.05 8.55356 188.232 7.67219C185.516 4.72468 182.581 2.99084 179.427 2.48514C175.266 1.8205 170.331 1.19921 164.621 0.60682C162.898 0.433436 161.131 0.462334 159.321 0.70796C157.379 0.953587 155.583 0.92469 153.947 0.621269C150.779 0.0144265 148.165 -0.144508 146.121 0.144464C140.557 0.939138 135.943 3.20757 132.293 6.92087C130.73 8.51021 128.847 11.2988 126.656 15.3011C123.283 21.4851 118.669 28.3626 119.107 35.7459C119.443 41.7276 120.743 47.5215 122.977 53.142C123.167 53.6044 123.181 54.0667 123.021 54.5291C122.743 55.3815 122.305 56.1618 121.677 56.8697C121.356 57.231 121.181 57.6644 121.137 58.1412C120.889 61.7678 121.414 65.2355 122.729 68.5587C124.262 72.4887 128.482 73.9769 129.825 77.5602C132.585 84.929 134.994 90.0149 137.068 92.8324C138.747 95.1152 140.178 97.2681 141.36 99.3053C144.222 104.232 135.651 111.688 132.161 114.491C126.175 119.302 114.42 124.518 105.367 128.015C101.527 129.503 98.2412 130.919 95.4815 132.263C85.9757 136.886 82.5296 144.414 78.4119 154.282C76.1778 159.628 74.4694 164.801 73.2867 169.8C73.0822 170.696 71.9141 170.971 71.33 170.248C69.9428 168.543 68.9791 167.329 68.7309 165.047C68.1614 159.715 67.8986 154.008 65.8251 148.994C64.1897 145.05 60.583 143.677 56.8304 142.29C56.3777 142.131 56.0565 141.828 55.8521 141.394C53.5012 136.424 52.6689 128.39 48.0839 125.298C43.7179 122.365 34.7816 123.882 36.4462 130.876C37.5705 135.571 39.3082 139.718 41.6883 143.316C41.9365 143.677 41.8489 143.908 41.3962 143.98C38.8117 144.428 36.0373 145.281 33.0586 146.523C28.4444 148.431 25.6408 153.126 24.8085 157.837C24.5603 159.296 24.7647 161.391 25.451 164.151C26.0351 166.477 26.3271 168.659 26.3125 170.71C26.2979 172.17 26.6484 173.615 27.3347 175.074C29.6125 179.885 28.897 184.639 35.0298 186.792C37.6143 187.702 40.2719 188.497 43.0316 189.176C43.5427 189.306 43.8201 189.638 43.8493 190.158L44.4334 201.313C44.4772 202.122 44.7108 202.902 45.1343 203.596C51.0188 213.334 54.0122 222.017 67.2853 222.61C81.7995 223.26 94.912 223.116 106.608 222.176C107.309 222.119 107.908 221.627 108.068 220.963C108.901 217.596 109.718 214.302 110.521 211.051C110.77 210.025 111.266 209.115 111.996 208.32C112.449 207.843 113.267 208.089 113.354 208.739C113.821 211.99 113.938 220.052 117.662 220.573C121.02 221.049 124.422 221.526 127.868 221.468C140.382 221.266 152.881 221.425 165.366 221.931C180.085 222.523 192.861 222.292 206.66 222.003C207.551 221.989 208.193 221.584 208.602 220.818C209.171 219.706 209.682 218.304 210.135 216.643C211.42 211.831 212.53 207.034 213.479 202.266C213.932 199.954 214.501 199.926 215.187 202.18C215.479 203.148 215.611 204.246 215.582 205.474C215.479 210.646 215.567 215.848 215.874 221.064C215.917 221.887 216.356 222.292 217.173 222.292C227.088 222.364 236.9 222.292 246.581 222.061C251.064 221.96 253.459 221.873 253.765 221.801C256.876 221.064 258.277 218.637 257.956 214.519ZM57.0348 153.488C57.064 153.011 57.5167 152.664 57.9839 152.78C58.4366 152.881 58.6994 153.17 58.8016 153.618C59.999 159.643 60.8459 165.379 61.3423 170.826C61.3862 171.288 61.1963 171.751 60.8313 172.04L57.8087 174.496C57.3414 174.872 57.1078 174.77 57.0932 174.178C57.0202 171.014 58.2322 167.922 57.7503 164.772C57.1224 160.741 56.8888 156.984 57.0348 153.488ZM33.2338 158.27C35.3511 152.028 40.8706 151.422 47.5582 150.641C48.6241 150.511 49.398 150.93 49.8799 151.884L50.4932 153.112C51.0042 154.109 50.683 154.571 49.5587 154.485C43.0462 154.022 39.5856 156.522 33.9639 158.935C33.5404 159.123 33.0878 158.718 33.2338 158.27ZM39.2352 178.354C38.6657 178.282 38.4028 177.964 38.4175 177.4C38.4321 176.634 38.6365 175.941 39.0307 175.291C39.2498 174.929 39.644 174.669 40.0821 174.612C43.1046 174.193 46.2732 173.297 49.6171 171.895C50.0697 171.707 50.2887 171.852 50.2741 172.343C50.1135 177.169 42.7688 178.773 39.2352 178.354ZM51.1211 162.778C51.0626 163.761 50.3326 164.584 49.3542 164.786L36.6944 167.315C34.7086 167.705 34.3581 167.127 35.6431 165.581C37.8918 162.894 47.31 161.391 50.0697 161.145C50.683 161.088 51.1941 161.593 51.1503 162.2L51.1211 162.778ZM60.4954 178.397C61.4008 177.574 62.8463 177.906 63.2844 179.047C63.8101 180.42 63.7078 182.009 62.9632 183.844C61.722 186.893 59.4733 188.829 56.2171 189.653C55.7352 189.783 55.3118 189.681 54.9321 189.364C50.9458 185.997 58.0861 180.608 60.4954 178.397ZM65.2994 211.022C65.1096 211.701 64.6862 212.048 64.0437 212.091C63.4888 212.12 62.9632 211.773 62.4813 211.051C61.7366 209.953 61.9848 209.187 63.2552 208.768C63.4888 208.696 63.7224 208.667 63.9415 208.71C64.3795 208.783 64.73 208.985 64.9782 209.346C65.3579 209.881 65.4601 210.43 65.2994 211.022ZM69.6362 196.256C66.526 200.012 62.4521 201.905 57.4144 201.919C56.2901 201.934 55.4432 201.688 54.9029 201.197C53.91 200.301 54.4211 198.669 55.7498 198.481C57.4437 198.235 59.0645 197.888 60.6123 197.411C65.8105 195.822 72.0747 185.607 73.3743 180.319C73.4619 179.958 73.6955 179.813 74.0752 179.9C74.2066 179.929 74.338 179.986 74.4402 180.088C74.5278 180.16 74.5716 180.29 74.5862 180.449C75.0973 186.402 73.4473 191.675 69.6362 196.256ZM92.7947 193.221C92.4881 193.799 86.8372 191.415 80.1787 187.89L80.0619 187.818C79.7699 187.673 79.6677 187.312 79.8137 187.037L80.646 185.506C80.792 185.231 81.1571 185.116 81.4345 185.275L81.5659 185.347C88.2097 188.872 93.3496 192.21 93.043 192.788L92.7947 193.221ZM116.932 139.704C116.508 140.238 115.909 140.672 115.15 140.975C114.654 141.177 114.201 141.105 113.792 140.773L112.23 139.53C111.806 139.198 111.339 139.155 110.857 139.4C109.82 139.935 109.047 140.715 108.565 141.741C108.331 142.247 108.433 142.666 108.886 142.998L109.791 143.677C110.156 143.952 110.332 144.327 110.302 144.79C110.259 145.642 109.937 146.379 109.353 147C108.93 147.448 108.623 147.39 108.433 146.798L108.083 145.743C107.922 145.238 107.616 145.151 107.192 145.469C107.017 145.599 106.812 145.974 106.812 146.249C106.812 147.029 106.652 147.853 106.374 148.705C106.185 149.312 105.995 149.312 105.834 148.705C105.644 148.026 105.455 147.333 105.294 146.596C104.958 145.05 104.053 144.472 102.607 144.862C102.125 144.992 101.819 145.281 101.658 145.743C100.826 148.33 99.8474 150.815 98.7085 153.199C98.4018 153.82 98.2266 153.791 98.1828 153.112L97.8032 148.171C97.7594 147.622 97.4673 147.419 96.9416 147.549C95.5983 147.896 94.5761 148.286 93.9191 149.615C92.4297 152.549 91.3929 155.164 90.7943 157.461C89.2173 163.501 87.5235 169.511 85.7274 175.478C85.5522 176.056 85.2894 176.49 84.9535 176.793C84.4717 177.227 83.7124 177.039 83.4933 176.432C82.661 174.048 82.5588 171.563 83.2013 168.962C84.8221 162.417 86.9686 156.045 89.6261 149.847C91.0863 146.437 92.8823 144.024 96.3284 142.16C100.636 139.819 105.162 138.013 109.937 136.742C111.543 136.308 113.938 135.297 115.763 135.889C117.384 136.409 117.983 138.374 116.932 139.704ZM186.32 120.241C186.174 124.041 185.254 128.968 183.574 135.037C183.516 135.254 183.443 135.254 183.355 135.066C181.501 131.165 179.062 127.798 176.011 124.966C174.872 123.897 174.945 122.091 176.171 121.108L182.771 115.849C183.136 115.546 183.516 115.531 183.91 115.82C185.589 117.048 186.393 118.522 186.32 120.241ZM147.23 8.38018C154.809 8.42352 161.715 9.04481 167.95 10.2152C168.14 10.2441 168.301 10.403 168.359 10.5908C168.447 10.8942 168.388 11.1254 168.199 11.2844C168.067 11.371 167.936 11.4144 167.775 11.4144C163.614 11.3999 158.941 10.8653 153.728 9.83949C151.567 9.40603 149.187 9.53607 146.573 10.2296C138.294 12.4402 134.965 19.2744 133.286 26.9322C133.213 27.279 132.994 27.409 132.643 27.3223L132.249 27.2212C131.913 27.1345 131.767 26.9322 131.782 26.5999C132.22 18.4364 137.827 8.32238 147.23 8.38018ZM141.623 83.7875C139.316 79.0339 137.856 74.0203 137.243 68.7176C137.199 68.2408 136.995 67.8218 136.629 67.4895C135.213 66.1891 133.475 65.6834 131.446 65.9724C130.964 66.0446 130.657 65.8423 130.526 65.3655C130.219 64.1374 130.132 62.8081 130.263 61.3488C130.321 60.7131 130.57 60.6264 131.008 61.0887C132.629 62.7792 134.527 62.9815 136.688 61.6956C137.111 61.45 137.403 61.0887 137.564 60.6119C138.367 58.1123 138.776 55.5838 138.791 53.012C138.805 49.6888 138.995 47.1892 139.331 45.5276C140.017 42.2044 140.601 38.8668 141.098 35.5291C141.638 31.917 142.412 29.4752 143.419 28.2181C145.96 25.025 149.786 24.7505 154.035 25.2706C162.139 26.2676 170.36 26.4121 178.697 25.7185C179.968 25.6174 181.092 26.5276 181.223 27.7847L181.866 34.2432C181.91 34.6911 182.07 35.1101 182.333 35.4858C184.275 38.231 185.356 40.9474 185.56 43.6493C186.013 49.7177 186.524 55.6705 187.079 61.5222C187.181 62.577 187.736 62.9526 188.758 62.6636L192.452 61.6089C193.197 61.4066 193.883 62.0857 193.664 62.8226C192.905 65.4089 191.27 66.9693 188.758 67.5328C187.736 67.764 187.137 68.3564 186.947 69.31C186.334 72.5032 185.706 75.4651 185.078 78.2248C183.224 86.3738 180.216 91.3153 173.631 96.17C170.783 98.265 168.491 98.265 164.563 98.2795C153.976 98.3228 146.34 93.4826 141.623 83.7875ZM144.427 115.661C145.42 114.91 146.836 115.054 147.683 115.979C149.757 118.305 152.268 120.227 155.232 121.758C155.393 121.845 155.437 122.047 155.32 122.178C152.064 125.891 149.289 129.85 146.997 134.04C146.749 134.488 146.121 134.531 145.829 134.112C144.441 132.219 143.069 130.139 141.726 127.899C138.937 123.232 139.827 119.143 144.427 115.661ZM154.4 186.3C153.757 185.795 153.276 185.159 152.969 184.422C150.516 178.542 147.771 172.256 144.733 165.581C141.287 157.996 136.892 151.523 131.563 146.191C131.154 145.772 131.154 145.382 131.563 144.992L133.592 143.128C134.571 142.247 134.746 141.235 134.118 140.094C131.782 135.788 128.803 132.812 125.182 131.179C123.97 130.63 123.736 129.026 124.758 128.188L130.789 123.16C131.212 122.813 131.475 122.9 131.592 123.435C131.855 124.663 132.249 125.746 132.789 126.685C139.404 138.389 144.573 150.685 148.311 163.587C150.428 170.913 152.516 178.44 154.575 186.17C154.648 186.402 154.575 186.445 154.385 186.3H154.4ZM157.32 142.001C156.605 148.199 155.802 154.412 154.926 160.611C154.765 161.752 154.502 161.767 154.166 160.669C153.422 158.256 152.808 156.002 151.859 153.603C149.07 146.509 148.442 140.975 153.772 134.69C154.079 134.343 154.356 134.358 154.604 134.748C156.094 136.987 157.642 139.198 157.32 142.001ZM168.827 176.49C168.33 178.831 167.775 181.142 167.147 183.425C167.031 183.873 166.461 183.989 166.154 183.642C163.073 179.986 161.54 175.782 161.54 170.999C161.526 162.995 161.876 155.294 162.562 147.911C162.796 145.411 163.307 145.353 164.11 147.737C166.446 154.716 168.009 161.955 169.046 169.497C169.381 171.924 169.308 174.25 168.827 176.49ZM161.175 128.983C161.175 127.523 162.373 126.339 163.847 126.339C165.322 126.339 166.519 127.523 166.519 128.983C166.519 130.442 165.322 131.627 163.847 131.627C162.373 131.627 161.175 130.442 161.175 128.983ZM168.461 118.204C167.731 118.753 166.724 118.797 165.95 118.291C161.701 115.531 157.671 112.121 153.86 108.061C153.203 107.353 153.363 107.05 154.312 107.136C159.934 107.613 165.527 106.775 171.061 104.594C172.784 103.914 174.302 104.175 175.602 105.359C176.624 106.284 176.887 107.787 176.244 109C174.346 112.656 171.747 115.719 168.461 118.204ZM174.127 162.807C172.915 155.048 171.893 147.52 171.075 140.195C170.798 137.753 171.499 135.745 173.178 134.141C173.689 133.664 174.112 133.722 174.477 134.329C175.529 136.149 176.901 137.782 178.61 139.212C179.15 139.675 179.471 140.339 179.486 141.033C179.559 145.483 179.019 149.413 177.865 152.837C176.595 156.551 175.616 159.888 174.945 162.836C174.623 164.237 174.346 164.237 174.127 162.807ZM186.13 162.085C184.757 166.463 183.195 170.768 181.443 174.973C179.676 179.206 177.88 183.555 176.054 187.991C176.04 188.049 175.996 188.063 175.923 188.049L175.529 187.948C175.339 187.89 175.266 187.76 175.31 187.572C176.186 183.786 177.252 180.088 178.508 176.49C181.472 168.037 184.231 159.527 186.758 150.93C189.255 142.492 193.343 133.202 195.782 123.637C195.986 122.813 196.453 122.625 197.198 123.073C200.615 125.168 201.389 127.639 199.534 130.485C193.095 140.339 189.985 149.818 186.13 162.085ZM203.842 155.279C203.068 157.837 201.797 160.25 200.045 162.489C199.374 163.356 199.636 164.599 200.586 165.133L204.382 167.315C205.39 167.893 205.317 168.283 204.178 168.485C201.418 168.962 198.994 168.24 196.891 166.289C196.526 165.957 196.424 165.552 196.585 165.09C198.936 157.952 200.629 153.242 201.666 150.974C202.615 148.893 204.309 148.026 206.748 148.358C207.259 148.431 207.565 148.705 207.667 149.211C208.325 152.303 204.586 152.895 203.842 155.279ZM216.253 131.945C215.567 132.711 214.574 132.869 213.304 132.393C212.296 132.017 211.639 131.367 211.347 130.457C211.172 129.936 211.362 129.691 211.917 129.72C213.187 129.792 214.574 130.24 216.107 131.078C216.429 131.251 216.487 131.67 216.253 131.945ZM247.925 214.172C247.282 214.678 246.713 214.605 246.231 213.97C246.041 213.738 245.939 213.406 245.895 212.987C245.355 207.338 244.566 201.717 243.544 196.126C240.726 180.853 238.842 164.786 234.695 150.945C233.776 147.867 232.345 145.035 230.402 142.449C230.242 142.247 229.921 142.276 229.804 142.507C229.307 143.533 228.504 144.385 227.395 145.093C226.883 145.425 226.591 145.295 226.504 144.703C226.256 142.969 225.657 141.177 224.737 139.314C223.89 137.594 223.773 136.106 223.54 134.242C223.481 133.736 223.671 133.592 224.124 133.838C230.68 137.406 234.973 142.131 236.988 147.997C238.667 152.852 240.376 159.86 242.128 169.005C244.011 178.845 245.72 188.699 247.253 198.596C248.027 203.552 248.363 208.494 248.29 213.435C248.275 213.724 248.144 213.998 247.925 214.172Z" fill="#002657"/>
<path d="M156.663 70.8994C156.663 69.6424 157.583 68.3998 157.671 66.3915C158.006 59.2105 158.357 52.333 158.751 45.7299C158.81 44.733 159.35 44.2128 160.357 44.1839L163.219 44.0828C164.037 44.0539 164.738 44.6463 164.84 45.4554C165.57 51.2204 166.227 56.9854 166.826 62.7215C167.22 66.5215 167.95 69.6858 169.016 72.1854C169.527 73.3557 168.505 74.6127 167.235 74.3671L157.86 72.5755C157.16 72.4454 156.663 71.7375 156.663 70.8994Z" fill="#002657"/>
<path d="M149.595 54.8324C146.923 55.367 144.28 53.5031 143.711 50.6712C143.127 47.8393 144.821 45.1085 147.507 44.5739C150.18 44.0393 152.822 45.9031 153.392 48.7351C153.976 51.567 152.282 54.2978 149.595 54.8324Z" fill="#002657"/>
<path d="M176.317 54.7459C173.718 54.8326 171.513 52.6075 171.411 49.7756C171.309 46.9436 173.353 44.5596 175.952 44.4729C178.551 44.3862 180.756 46.6113 180.858 49.4432C180.961 52.2752 178.916 54.6592 176.317 54.7459Z" fill="#002657"/>
<path d="M173.207 78.8027C173.368 78.8027 173.514 78.9328 173.514 79.0917V79.5252C173.587 82.5016 170.418 84.9867 166.447 85.0734L160.986 85.189C157.029 85.2757 153.758 82.9206 153.699 79.9297V79.4963C153.685 79.3373 153.816 79.2073 153.977 79.2073L173.207 78.8027Z" fill="#002657"/>
</g>
<defs>
<clipPath id="clip0_374_21735">
<rect width="258" height="223" fill="white"/>
</clipPath>
</defs>
</svg>
