<svg width="268" height="200" viewBox="0 0 268 200" fill="none" xmlns="http://www.w3.org/2000/svg">
<path d="M260.899 172.068H7V172.195H260.899V172.068Z" fill="#EBEBEB"/>
<path d="M233.101 177.882H207.254V178.009H233.101V177.882Z" fill="#EBEBEB"/>
<path d="M57.6118 176.379H33.6387V176.506H57.6118V176.379Z" fill="#EBEBEB"/>
<path d="M209.103 175.526H199.358V175.653H209.103V175.526Z" fill="#EBEBEB"/>
<path d="M175.193 178.893H168.043V179.02H175.193V178.893Z" fill="#EBEBEB"/>
<path d="M163.518 178.893H145.521V179.02H163.518V178.893Z" fill="#EBEBEB"/>
<path d="M135.071 176.75H106.132V176.877H135.071V176.75Z" fill="#EBEBEB"/>
<path d="M127.348 149.42H29.2978C28.5296 149.419 27.7934 149.113 27.2508 148.569C26.7081 148.025 26.4033 147.289 26.4033 146.521V8.68907C26.41 7.92536 26.7177 7.19512 27.2597 6.65698C27.8016 6.11884 28.534 5.81625 29.2978 5.81494H127.348C128.117 5.81494 128.855 6.12043 129.399 6.66419C129.942 7.20796 130.248 7.94546 130.248 8.71446V146.521C130.248 147.29 129.942 148.027 129.399 148.571C128.855 149.115 128.117 149.42 127.348 149.42ZM29.2978 5.9165C28.5633 5.91785 27.8594 6.21055 27.3405 6.73036C26.8217 7.25017 26.5303 7.95462 26.5303 8.68907V146.521C26.5303 147.255 26.8217 147.959 27.3405 148.479C27.8594 148.999 28.5633 149.292 29.2978 149.293H127.348C128.083 149.292 128.788 148.999 129.307 148.48C129.827 147.96 130.12 147.255 130.121 146.521V8.68907C130.12 7.95415 129.827 7.24972 129.307 6.73005C128.788 6.21038 128.083 5.91784 127.348 5.9165H29.2978Z" fill="#EBEBEB"/>
<path d="M237.19 149.42H139.134C138.365 149.419 137.629 149.113 137.085 148.569C136.542 148.026 136.236 147.289 136.234 146.521V8.68907C136.242 7.9249 136.551 7.19467 137.094 6.65666C137.637 6.11866 138.37 5.81624 139.134 5.81494H237.19C237.952 5.81758 238.684 6.12076 239.224 6.65876C239.765 7.19676 240.072 7.92624 240.079 8.68907V146.521C240.079 147.288 239.775 148.024 239.233 148.567C238.692 149.111 237.957 149.417 237.19 149.42ZM139.134 5.9165C138.399 5.91784 137.695 6.21038 137.175 6.73005C136.655 7.24972 136.363 7.95415 136.361 8.68907V146.521C136.363 147.255 136.655 147.96 137.175 148.48C137.695 148.999 138.399 149.292 139.134 149.293H237.19C237.925 149.292 238.629 148.999 239.149 148.48C239.668 147.96 239.961 147.255 239.962 146.521V8.68907C239.961 7.95415 239.668 7.24972 239.149 6.73005C238.629 6.21038 237.925 5.91784 237.19 5.9165H139.134Z" fill="#EBEBEB"/>
<path d="M120.995 22.5825H36.7109V129.84H120.995V22.5825Z" fill="#E6E6E6"/>
<path d="M119.943 22.5825H35.6592V129.84H119.943V22.5825Z" fill="#FAFAFA"/>
<path d="M117.588 127.483V24.9438L38.0211 24.9438V127.483H117.588Z" fill="white"/>
<path d="M77.802 118.008C83.7419 118.008 88.5572 113.193 88.5572 107.253C88.5572 101.313 83.7419 96.4976 77.802 96.4976C71.8621 96.4976 67.0469 101.313 67.0469 107.253C67.0469 113.193 71.8621 118.008 77.802 118.008Z" fill="#FAFAFA"/>
<path d="M89.2028 76.211C89.2028 78.1711 87.4763 79.6844 86.5623 81.289C85.6483 82.8936 85.1405 85.1635 83.5155 86.108C81.8906 87.0525 79.773 86.3416 77.8129 86.3416C75.8528 86.3416 73.6947 87.022 72.1104 86.108C70.5261 85.194 70.003 82.919 69.0636 81.289C68.1242 79.659 66.418 78.1914 66.418 76.211C66.418 74.2306 68.1445 72.7377 69.0636 71.1584C69.9827 69.5792 70.4854 67.284 72.1104 66.3394C73.7353 65.3949 75.8478 66.1008 77.8079 66.1008C79.768 66.1008 81.9312 65.4254 83.5104 66.3394C85.0897 67.2535 85.6229 69.5233 86.5572 71.1584C87.4916 72.7936 89.2028 74.256 89.2028 76.211Z" fill="#EBEBEB"/>
<path d="M90.1872 45.1694L86.4853 47.9927L87.8208 52.4512L83.1694 52.5578L81.6308 56.9554L77.802 54.2996L73.9783 56.9554L72.4396 52.5578L67.7831 52.4512L69.1186 47.9927L65.4219 45.1694L69.1186 42.3511L67.7831 37.8926L72.4396 37.786L73.9783 33.3936L77.802 36.0443L81.6308 33.3936L83.1694 37.786L87.8208 37.8926L86.4853 42.3511L90.1872 45.1694Z" fill="#E0E0E0"/>
<path d="M218.706 170.189H228.735V129.342H218.706V170.189Z" fill="#F0F0F0"/>
<path d="M143.37 172.068H226.09V170.189H143.37V172.068Z" fill="#F0F0F0"/>
<path d="M218.706 129.342H140.724V170.189H218.706V129.342Z" fill="#F5F5F5"/>
<path d="M213.283 144.104H146.142V153.823H213.283V144.104Z" fill="#F0F0F0"/>
<path d="M213.283 156.824H146.142V166.543H213.283V156.824Z" fill="#F0F0F0"/>
<path d="M159.974 144.769H199.461C199.814 144.769 200.101 144.482 200.101 144.129V144.078C200.101 143.725 199.814 143.438 199.461 143.438H159.974C159.621 143.438 159.335 143.725 159.335 144.078V144.129C159.335 144.482 159.621 144.769 159.974 144.769Z" fill="#F5F5F5"/>
<path d="M159.974 157.489H199.461C199.814 157.489 200.101 157.203 200.101 156.849V156.798C200.101 156.445 199.814 156.159 199.461 156.159H159.974C159.621 156.159 159.335 156.445 159.335 156.798V156.849C159.335 157.203 159.621 157.489 159.974 157.489Z" fill="#F5F5F5"/>
<path d="M213.283 131.383H146.142V141.102H213.283V131.383Z" fill="#F0F0F0"/>
<path d="M159.974 132.053H199.461C199.814 132.053 200.101 131.767 200.101 131.414V131.363C200.101 131.01 199.814 130.723 199.461 130.723H159.974C159.621 130.723 159.335 131.01 159.335 131.363V131.414C159.335 131.767 159.621 132.053 159.974 132.053Z" fill="#F5F5F5"/>
<path d="M218.26 24.0773C221.772 20.5653 221.772 14.8712 218.26 11.3592C214.748 7.84716 209.054 7.84715 205.542 11.3592C202.03 14.8712 202.03 20.5653 205.542 24.0773C209.054 27.5894 214.748 27.5894 218.26 24.0773Z" fill="#F5F5F5"/>
<path d="M215.107 22.4065C217.695 19.8186 217.695 15.6228 215.107 13.0349C212.519 10.447 208.324 10.447 205.736 13.0349C203.148 15.6228 203.148 19.8186 205.736 22.4065C208.324 24.9944 212.519 24.9944 215.107 22.4065Z" fill="#EBEBEB"/>
<path d="M210.266 17.7176C210.266 17.9557 210.196 18.1883 210.064 18.3863C209.931 18.5842 209.743 18.7384 209.523 18.8295C209.303 18.9206 209.062 18.9444 208.828 18.898C208.595 18.8516 208.38 18.7369 208.212 18.5686C208.044 18.4003 207.929 18.1859 207.883 17.9524C207.836 17.719 207.86 17.477 207.951 17.2571C208.042 17.0372 208.196 16.8492 208.394 16.717C208.592 16.5847 208.825 16.5142 209.063 16.5142C209.382 16.5142 209.688 16.641 209.914 16.8667C210.14 17.0923 210.266 17.3985 210.266 17.7176Z" fill="white"/>
<path d="M214.541 28.8385C213.599 28.8413 212.659 28.7425 211.738 28.5439C211.57 28.4948 211.427 28.3825 211.339 28.2305C211.251 28.0785 211.226 27.8984 211.268 27.728C211.31 27.5576 211.416 27.41 211.564 27.316C211.712 27.222 211.891 27.189 212.063 27.2237C212.109 27.2237 216.765 28.3256 219.934 25.8323C221.965 24.2429 222.981 21.5109 222.981 17.7075C222.981 17.5271 223.052 17.354 223.18 17.2264C223.308 17.0988 223.481 17.0271 223.661 17.0271C223.842 17.0271 224.015 17.0988 224.142 17.2264C224.27 17.354 224.342 17.5271 224.342 17.7075C224.342 21.9426 223.138 25.0351 220.762 26.8936C218.963 28.2174 216.774 28.902 214.541 28.8385Z" fill="#EBEBEB"/>
<path d="M223.084 18.8044C222.75 18.8044 222.429 18.6718 222.193 18.4356C221.957 18.1994 221.824 17.8791 221.824 17.5451V15.1635C221.824 14.8268 221.958 14.5039 222.196 14.2659C222.434 14.0278 222.757 13.894 223.094 13.894C223.43 13.894 223.753 14.0278 223.991 14.2659C224.229 14.5039 224.363 14.8268 224.363 15.1635V17.5451C224.363 17.712 224.329 17.8771 224.264 18.031C224.199 18.1848 224.105 18.3242 223.986 18.4413C223.867 18.5584 223.726 18.6508 223.571 18.7131C223.416 18.7754 223.25 18.8065 223.084 18.8044Z" fill="#EBEBEB"/>
<path d="M133.949 195C188.325 195 232.406 192.426 232.406 189.252C232.406 186.077 188.325 183.503 133.949 183.503C79.5728 183.503 35.4922 186.077 35.4922 189.252C35.4922 192.426 79.5728 195 133.949 195Z" fill="#F5F5F5"/>
<path d="M233.673 34.9727H135.78V106.283H233.673V34.9727Z" fill="#263238"/>
<path d="M161.796 67.8472C161.295 67.8151 160.806 67.6803 160.359 67.4511C160.058 67.3114 159.743 67.2025 159.42 67.1261C159.084 67.0729 158.744 67.0525 158.404 67.0652C157.913 67.1041 157.419 67.0437 156.952 66.8875C156.506 66.6633 156.109 66.3526 155.784 65.9734C155.556 65.7284 155.306 65.5041 155.038 65.3031C154.746 65.1297 154.441 64.9818 154.124 64.8614C153.652 64.7092 153.217 64.4621 152.844 64.1352C152.519 63.7633 152.272 63.3298 152.118 62.8606C152.004 62.5411 151.856 62.2346 151.676 61.9466C151.48 61.6733 151.255 61.4214 151.006 61.1951C150.626 60.8726 150.316 60.4749 150.097 60.0271C149.941 59.5615 149.879 59.0696 149.914 58.5799C149.928 58.2404 149.91 57.9002 149.858 57.5643C149.781 57.2423 149.67 56.9292 149.528 56.63C149.269 56.1945 149.132 55.6972 149.132 55.1903C149.132 54.6835 149.269 54.1862 149.528 53.7507C149.669 53.4495 149.78 53.1347 149.858 52.8113C149.91 52.4754 149.929 52.1353 149.914 51.7957C149.879 51.3043 149.942 50.8109 150.097 50.3434C150.317 49.898 150.627 49.5023 151.006 49.1806C151.255 48.9542 151.48 48.7023 151.676 48.429C151.855 48.1404 152.003 47.8341 152.118 47.515C152.273 47.0448 152.52 46.6099 152.844 46.2353C153.22 45.9132 153.654 45.6666 154.124 45.5092C154.443 45.3939 154.749 45.2459 155.038 45.0674C155.308 44.8726 155.558 44.6515 155.784 44.4073C156.112 44.0322 156.508 43.7237 156.952 43.4983C157.419 43.3421 157.913 43.2816 158.404 43.3206C158.744 43.3333 159.084 43.3129 159.42 43.2596C159.743 43.1833 160.058 43.0744 160.359 42.9347C160.806 42.7055 161.295 42.5707 161.796 42.5386C162.299 42.5713 162.79 42.706 163.239 42.9347C163.538 43.0751 163.851 43.184 164.173 43.2596C164.509 43.3129 164.849 43.3333 165.189 43.3206C165.68 43.2816 166.174 43.3421 166.641 43.4983C167.086 43.7223 167.482 44.0311 167.809 44.4073C168.246 44.9274 168.822 45.313 169.469 45.5193C169.961 45.6396 170.411 45.8926 170.769 46.2508C171.127 46.6089 171.38 47.0585 171.5 47.5505C171.616 47.8697 171.764 48.176 171.942 48.4646C172.139 48.7378 172.363 48.9897 172.613 49.2161C172.992 49.5378 173.301 49.9335 173.522 50.379C173.677 50.8465 173.739 51.3399 173.704 51.8313C173.69 52.1708 173.708 52.511 173.76 52.8469C173.838 53.1703 173.949 53.485 174.09 53.7863C174.35 54.2217 174.487 54.7191 174.487 55.2259C174.487 55.7327 174.35 56.2301 174.09 56.6655C173.948 56.9647 173.838 57.2778 173.76 57.5998C173.709 57.9358 173.69 58.2759 173.704 58.6154C173.739 59.1052 173.677 59.597 173.522 60.0627C173.302 60.5105 172.993 60.9081 172.613 61.2306C172.363 61.457 172.139 61.7089 171.942 61.9821C171.763 62.2702 171.615 62.5766 171.5 62.8962C171.377 63.3836 171.123 63.8279 170.765 64.1807C170.407 64.5334 169.959 64.7812 169.469 64.8969C169.152 65.0174 168.847 65.1652 168.555 65.3387C168.287 65.5396 168.037 65.7639 167.809 66.009C167.484 66.3881 167.087 66.6988 166.641 66.923C166.174 67.0792 165.68 67.1397 165.189 67.1007C164.849 67.088 164.509 67.1084 164.173 67.1617C163.851 67.2373 163.538 67.3462 163.239 67.4867C162.787 67.703 162.297 67.8256 161.796 67.8472ZM158.602 66.8316C158.893 66.8239 159.184 66.8443 159.471 66.8925C159.81 66.9733 160.14 67.089 160.456 67.2378C160.86 67.4836 161.324 67.6135 161.796 67.6135C162.269 67.6135 162.733 67.4836 163.137 67.2378C163.453 67.089 163.783 66.9733 164.122 66.8925C164.478 66.8367 164.839 66.8163 165.199 66.8316C165.655 66.8684 166.115 66.8131 166.549 66.6691C166.963 66.46 167.331 66.1699 167.631 65.816C167.869 65.5561 168.133 65.3213 168.418 65.1152C168.721 64.9273 169.043 64.7707 169.378 64.6481C169.815 64.5041 170.221 64.2764 170.571 63.9778C170.873 63.6294 171.101 63.2234 171.242 62.7845C171.366 62.4504 171.523 62.129 171.709 61.8247C171.916 61.5372 172.153 61.2718 172.415 61.0326C172.767 60.7311 173.057 60.3637 173.268 59.951C173.41 59.5157 173.463 59.0564 173.425 58.6002C173.411 58.2417 173.433 57.8828 173.491 57.5288C173.571 57.1798 173.685 56.8397 173.831 56.5132C174.077 56.1101 174.207 55.6472 174.207 55.1751C174.207 54.703 174.077 54.2401 173.831 53.8371C173.686 53.5102 173.572 53.1701 173.491 52.8215C173.434 52.4674 173.411 52.1085 173.425 51.75C173.463 51.2938 173.41 50.8345 173.268 50.3993C173.057 49.9866 172.767 49.6191 172.415 49.3177C172.153 49.0784 171.916 48.813 171.709 48.5255C171.523 48.2212 171.366 47.8999 171.242 47.5658C171.134 47.1131 170.903 46.6992 170.574 46.3701C170.245 46.0411 169.831 45.8098 169.378 45.7022C169.043 45.5795 168.721 45.423 168.418 45.235C168.134 45.0276 167.87 44.7929 167.631 44.5342C167.333 44.1788 166.965 43.8884 166.549 43.6811C166.115 43.5371 165.655 43.4819 165.199 43.5186C164.487 43.5801 163.772 43.4392 163.137 43.1124C162.733 42.8667 162.269 42.7367 161.796 42.7367C161.324 42.7367 160.86 42.8667 160.456 43.1124C159.821 43.4392 159.106 43.5801 158.394 43.5186C157.938 43.4837 157.479 43.5371 157.043 43.676C156.629 43.887 156.261 44.1788 155.962 44.5342C155.724 44.7941 155.46 45.0289 155.175 45.235C154.872 45.423 154.55 45.5795 154.215 45.7022C153.776 45.8436 153.371 46.0715 153.022 46.3724C152.72 46.7209 152.492 47.1268 152.351 47.5658C152.228 47.9003 152.071 48.2218 151.884 48.5255C151.677 48.813 151.44 49.0784 151.178 49.3177C150.825 49.6177 150.535 49.9855 150.325 50.3993C150.183 50.8345 150.13 51.2938 150.168 51.75C150.182 52.1085 150.159 52.4674 150.102 52.8215C150.021 53.1701 149.907 53.5102 149.762 53.8371C149.516 54.2401 149.386 54.703 149.386 55.1751C149.386 55.6472 149.516 56.1101 149.762 56.5132C149.908 56.8397 150.022 57.1798 150.102 57.5288C150.16 57.8828 150.182 58.2417 150.168 58.6002C150.13 59.0564 150.183 59.5157 150.325 59.951C150.536 60.3637 150.826 60.7311 151.178 61.0326C151.44 61.2718 151.677 61.5372 151.884 61.8247C152.07 62.129 152.227 62.4504 152.351 62.7845C152.493 63.2229 152.721 63.6286 153.022 63.9778C153.372 64.2764 153.778 64.5041 154.215 64.6481C154.55 64.7707 154.872 64.9273 155.175 65.1152C155.46 65.3213 155.724 65.5561 155.962 65.816C156.262 66.1699 156.629 66.46 157.043 66.6691C157.479 66.8106 157.938 66.8658 158.394 66.8316H158.602Z" fill="white"/>
<path d="M161.795 62.3023C165.73 62.3023 168.92 59.1126 168.92 55.1779C168.92 51.2432 165.73 48.0535 161.795 48.0535C157.861 48.0535 154.671 51.2432 154.671 55.1779C154.671 59.1126 157.861 62.3023 161.795 62.3023Z" fill="white"/>
<path d="M166.884 48.1804C166.867 48.1811 166.85 48.1783 166.835 48.1722C166.819 48.1661 166.805 48.1567 166.793 48.1448C166.78 48.133 166.771 48.1188 166.764 48.1031C166.757 48.0874 166.754 48.0705 166.754 48.0534C166.754 48.0363 166.757 48.0195 166.764 48.0038C166.771 47.9881 166.78 47.9739 166.793 47.962L172.379 42.3762C172.39 42.3643 172.405 42.355 172.42 42.3489C172.436 42.3427 172.453 42.34 172.47 42.3407H183.489C183.523 42.3407 183.555 42.3541 183.579 42.3779C183.603 42.4017 183.616 42.434 183.616 42.4676C183.616 42.5013 183.603 42.5336 183.579 42.5574C183.555 42.5812 183.523 42.5946 183.489 42.5946H172.521L166.955 48.1448C166.937 48.165 166.911 48.1776 166.884 48.1804Z" fill="white"/>
<path d="M153.021 75.2562H142.002C141.968 75.2562 141.936 75.2429 141.912 75.219C141.888 75.1952 141.875 75.1629 141.875 75.1293C141.875 75.0956 141.888 75.0633 141.912 75.0395C141.936 75.0157 141.968 75.0023 142.002 75.0023H152.97L158.5 69.4724C158.525 69.4541 158.555 69.4452 158.585 69.4473C158.616 69.4495 158.645 69.4626 158.666 69.4842C158.688 69.5058 158.701 69.5345 158.703 69.565C158.705 69.5955 158.696 69.6257 158.678 69.6501L153.092 75.2359C153.071 75.2486 153.046 75.2556 153.021 75.2562Z" fill="white"/>
<path d="M189.917 42.8129C189.9 42.8132 189.883 42.8091 189.868 42.8011C189.853 42.7931 189.84 42.7815 189.831 42.7672C189.811 42.7465 189.801 42.7193 189.801 42.6911C189.801 42.6628 189.811 42.6356 189.831 42.6149C190.267 42.3032 190.725 42.0232 191.202 41.777C191.419 41.6473 191.665 41.5724 191.918 41.5587C192.162 41.5719 192.4 41.6414 192.614 41.7618C192.696 41.8016 192.781 41.8372 192.867 41.8684C193.588 42.1426 194.391 41.9344 195.229 41.711C195.96 41.4568 196.739 41.3701 197.509 41.4571C197.68 41.4996 197.85 41.5504 198.016 41.6094L198.331 41.7059C199.402 41.9128 200.503 41.8938 201.566 41.6501L202.246 41.5536C203.408 41.3249 204.609 41.4126 205.725 41.8075C205.867 41.8684 206.009 41.9395 206.146 42.0106C206.469 42.201 206.826 42.3253 207.197 42.3762C207.623 42.3815 208.045 42.2985 208.436 42.1325L208.843 42.0004C210.072 41.6399 211.427 41.7719 212.738 41.8938H212.976C216.546 42.2238 220.137 42.2493 223.711 41.97C223.725 41.9686 223.739 41.97 223.753 41.9741C223.766 41.9782 223.779 41.9849 223.79 41.9939C223.8 42.0028 223.809 42.0139 223.816 42.0263C223.823 42.0388 223.827 42.0524 223.828 42.0665C223.831 42.0953 223.822 42.1242 223.804 42.1469C223.786 42.1697 223.76 42.1845 223.731 42.1883C220.144 42.4677 216.539 42.4422 212.956 42.1122H212.717C211.427 41.9903 210.092 41.8633 208.904 42.2137C208.772 42.2493 208.64 42.295 208.508 42.3407C208.086 42.5148 207.633 42.6012 207.177 42.5946C206.779 42.5398 206.396 42.4069 206.05 42.2036C205.913 42.1325 205.781 42.0665 205.639 42.0055C204.557 41.6283 203.395 41.5459 202.272 41.7669L201.602 41.8684C200.507 42.1153 199.372 42.1326 198.27 41.9192L197.95 41.8176C197.785 41.7585 197.615 41.711 197.443 41.6755C196.705 41.5931 195.959 41.6781 195.259 41.9243C194.421 42.1426 193.553 42.3711 192.761 42.0766L192.497 41.9598C192.307 41.8601 192.1 41.798 191.887 41.777C191.67 41.7914 191.459 41.8576 191.273 41.97C190.806 42.2107 190.358 42.4856 189.932 42.7926C189.928 42.7998 189.923 42.8065 189.917 42.8129Z" fill="white"/>
<path d="M209.159 45.7226C208.708 45.6938 208.266 45.5909 207.849 45.4179C207.421 45.2374 206.966 45.1326 206.503 45.1082C206.183 45.1265 205.866 45.1828 205.558 45.2757C205.355 45.3361 205.148 45.3853 204.939 45.423C204.384 45.4916 203.823 45.4916 203.268 45.423H203.197C200.719 45.1843 198.18 45.0929 195.722 45.0015C194.874 44.9711 193.925 45.1082 193.808 45.5804C193.804 45.602 193.792 45.6217 193.776 45.6363C193.759 45.651 193.739 45.6599 193.717 45.6617C193.695 45.6645 193.672 45.6608 193.652 45.6508C193.632 45.6409 193.616 45.6252 193.605 45.6058C193.351 45.1437 192.564 44.9457 191.919 44.9914C191.239 45.0696 190.577 45.2601 189.959 45.555C189.946 45.5607 189.931 45.5637 189.917 45.5637C189.902 45.5637 189.888 45.5608 189.875 45.5551C189.861 45.5494 189.849 45.5411 189.839 45.5306C189.829 45.5201 189.822 45.5077 189.817 45.4941C189.807 45.4671 189.807 45.4372 189.819 45.4107C189.83 45.3843 189.851 45.3632 189.878 45.3519C190.518 45.0486 191.205 44.853 191.909 44.773C192.228 44.7364 192.551 44.7672 192.857 44.8634C193.163 44.9596 193.446 45.1192 193.686 45.3316C194.042 44.7883 195.21 44.7629 195.717 44.7832C198.18 44.8746 200.724 44.966 203.212 45.2046H203.278C203.815 45.2731 204.357 45.2731 204.893 45.2046C205.095 45.1697 205.295 45.124 205.492 45.0675C205.822 44.9654 206.163 44.9057 206.508 44.8898C206.995 44.9184 207.473 45.0265 207.925 45.2097C208.429 45.4529 208.995 45.5396 209.55 45.4585C209.726 45.4082 209.897 45.3384 210.058 45.2503L210.322 45.1234C211.191 44.8434 212.114 44.767 213.018 44.9C213.55 44.948 214.084 44.9582 214.618 44.9304C214.632 44.929 214.646 44.9304 214.659 44.9345C214.673 44.9386 214.685 44.9454 214.696 44.9543C214.707 44.9633 214.716 44.9743 214.722 44.9868C214.729 44.9993 214.733 45.0129 214.734 45.0269C214.737 45.0558 214.729 45.0846 214.711 45.1074C214.693 45.1301 214.667 45.145 214.638 45.1488C214.093 45.1767 213.546 45.1665 213.003 45.1183C212.133 44.9878 211.245 45.0591 210.408 45.3265C210.322 45.3621 210.24 45.4078 210.159 45.4484C209.988 45.5394 209.807 45.6126 209.621 45.6667C209.47 45.7072 209.315 45.726 209.159 45.7226Z" fill="white"/>
<path d="M189.917 49.0741C189.892 49.0729 189.868 49.0632 189.849 49.0468C189.83 49.0304 189.817 49.0081 189.813 48.9835C189.808 48.9589 189.812 48.9334 189.823 48.9112C189.835 48.8889 189.853 48.8712 189.876 48.8609C190.722 48.5159 191.59 48.2308 192.476 48.0077C192.947 47.8713 193.438 47.8113 193.928 47.83C194.224 47.864 194.517 47.9252 194.802 48.0128C195.077 48.0951 195.359 48.1529 195.645 48.1855C195.984 48.1978 196.324 48.1774 196.66 48.1245C197.165 48.0207 197.686 48.0364 198.184 48.1702C198.326 48.2239 198.464 48.2902 198.595 48.3683C198.72 48.4458 198.853 48.5104 198.991 48.5612C199.651 48.7898 200.311 48.4902 201.022 48.1702C201.626 47.8286 202.309 47.6533 203.003 47.6624C203.463 47.7417 203.902 47.9145 204.292 48.1702C204.705 48.4471 205.187 48.602 205.684 48.6171C205.915 48.5942 206.144 48.5448 206.364 48.4698H206.43C208.276 47.9218 210.209 47.7272 212.128 47.896H212.229C212.496 47.9239 212.765 47.9239 213.032 47.896C213.194 47.872 213.355 47.8381 213.514 47.7945L213.869 47.7081C214.609 47.6185 215.359 47.6719 216.078 47.8656L216.495 47.9468C218.389 48.2855 220.334 48.2232 222.202 47.764C222.228 47.763 222.254 47.771 222.274 47.7866C222.295 47.8022 222.31 47.8246 222.316 47.8498C222.322 47.8749 222.319 47.9014 222.307 47.9247C222.296 47.948 222.277 47.9665 222.253 47.9773C220.356 48.4416 218.382 48.5039 216.459 48.1601L216.033 48.0788C215.341 47.8925 214.621 47.8408 213.91 47.9265C213.793 47.9265 213.682 47.9773 213.57 48.0027C213.403 48.0504 213.233 48.0877 213.062 48.1144C212.78 48.1424 212.496 48.1424 212.214 48.1144H212.112C210.222 47.9499 208.317 48.1411 206.496 48.678H206.43C206.196 48.7599 205.952 48.8128 205.704 48.8355C205.162 48.8246 204.634 48.6609 204.181 48.3632C203.812 48.1309 203.402 47.9739 202.972 47.9011C202.317 47.903 201.674 48.0782 201.109 48.4089C200.403 48.7339 199.677 49.064 198.93 48.8101C198.78 48.754 198.636 48.6843 198.498 48.6019C198.377 48.5292 198.249 48.4663 198.118 48.414C197.655 48.2964 197.173 48.2859 196.706 48.3835C196.357 48.4368 196.003 48.4572 195.65 48.4445C195.35 48.411 195.054 48.3498 194.766 48.2616C194.494 48.1799 194.215 48.1221 193.933 48.089C193.465 48.072 192.997 48.1303 192.547 48.2616C191.672 48.4821 190.813 48.7637 189.978 49.1046L189.917 49.0741Z" fill="white"/>
<path d="M189.918 51.8264C189.893 51.8259 189.869 51.8172 189.85 51.8015C189.83 51.7859 189.817 51.7643 189.811 51.7401C189.807 51.726 189.807 51.7114 189.809 51.697C189.811 51.6827 189.816 51.6689 189.823 51.6565C189.831 51.6442 189.841 51.6335 189.853 51.6252C189.865 51.6168 189.878 51.611 189.893 51.608C190.891 51.3576 191.911 51.2012 192.939 51.1409C193.24 51.105 193.545 51.1257 193.838 51.2018C193.904 51.2228 193.969 51.2482 194.031 51.278C194.113 51.3151 194.198 51.344 194.285 51.3643C194.48 51.3969 194.679 51.3969 194.874 51.3643C195.781 51.2201 196.698 51.1538 197.616 51.1662C197.644 51.1687 197.671 51.1814 197.691 51.202C197.71 51.2225 197.722 51.2496 197.723 51.278C197.723 51.2924 197.72 51.3067 197.714 51.32C197.708 51.3333 197.7 51.3452 197.69 51.3552C197.679 51.3652 197.667 51.3729 197.653 51.378C197.64 51.383 197.625 51.3853 197.611 51.3846C196.713 51.3698 195.816 51.4344 194.93 51.5776C194.703 51.6262 194.469 51.6348 194.239 51.603C194.138 51.5783 194.04 51.5443 193.945 51.5014L193.772 51.4354C193.503 51.3672 193.224 51.35 192.949 51.3846C191.922 51.4436 190.902 51.5983 189.903 51.8467L189.918 51.8264Z" fill="white"/>
<path d="M201.882 51.4504C201.866 51.454 201.849 51.4538 201.833 51.45C201.817 51.4461 201.802 51.4387 201.789 51.4282C201.776 51.4177 201.765 51.4045 201.758 51.3895C201.751 51.3744 201.747 51.3579 201.747 51.3413C201.747 51.3246 201.751 51.3081 201.758 51.293C201.765 51.278 201.776 51.2648 201.789 51.2543C201.802 51.2438 201.817 51.2364 201.833 51.2325C201.849 51.2287 201.866 51.2285 201.882 51.2321C202.492 51.2321 203.111 51.2321 203.705 51.2321H203.751C208.113 51.2321 212.531 51.2321 216.888 51.1711C216.917 51.1725 216.944 51.1848 216.964 51.2056C216.983 51.2264 216.995 51.2541 216.995 51.2829C216.995 51.3111 216.983 51.3383 216.963 51.3583C216.943 51.3783 216.916 51.3895 216.888 51.3895C212.531 51.4403 208.108 51.4606 203.746 51.4504H203.7C203.106 51.4504 202.487 51.4504 201.882 51.4504Z" fill="white"/>
<g opacity="0.1">
<path d="M216.236 78.7498C216.236 79.9685 215.393 81.0907 215.165 82.2434C214.936 83.3961 215.276 84.7824 214.824 85.8742C214.372 86.966 213.154 87.6972 212.494 88.6874C211.833 89.6776 211.63 91.069 210.782 91.9119C209.934 92.7548 208.553 92.9275 207.558 93.6181C206.562 94.3087 205.862 95.4868 204.75 95.9489C203.638 96.411 202.302 96.0555 201.114 96.2891C199.926 96.5227 198.844 97.3606 197.625 97.3606C196.407 97.3606 195.289 96.5176 194.137 96.2891C192.984 96.0606 191.598 96.4008 190.501 95.9489C189.404 95.497 188.678 94.2782 187.693 93.6181C186.708 92.958 185.311 92.7548 184.468 91.9119C183.625 91.069 183.422 89.6827 182.757 88.6874C182.092 87.6921 180.888 86.9863 180.431 85.8742C179.974 84.7621 180.319 83.4266 180.086 82.2434C179.852 81.0603 179.02 79.9685 179.02 78.7498C179.02 77.5311 179.857 76.4139 180.086 75.2612C180.314 74.1085 179.979 72.7222 180.431 71.6305C180.883 70.5387 182.097 69.8075 182.757 68.8173C183.417 67.8271 183.625 66.4357 184.468 65.5928C185.311 64.7498 186.697 64.5518 187.693 63.8815C188.688 63.2112 189.394 62.0179 190.501 61.5558C191.608 61.0937 192.948 61.4491 194.137 61.2155C195.325 60.982 196.407 60.1492 197.625 60.1492C198.844 60.1492 199.966 60.9921 201.114 61.2206C202.261 61.4491 203.653 61.1089 204.75 61.5608C205.846 62.0128 206.573 63.2264 207.563 63.8916C208.553 64.5568 209.939 64.7549 210.787 65.5978C211.635 66.4408 211.828 67.8271 212.494 68.8224C213.159 69.8176 214.362 70.5235 214.824 71.6355C215.286 72.7476 214.931 74.0831 215.165 75.2663C215.398 76.4495 216.236 77.5362 216.236 78.7498Z" fill="white"/>
</g>
<path d="M152.128 100.824H142.672C142.131 100.824 141.692 101.263 141.692 101.804V103.535C141.692 104.077 142.131 104.515 142.672 104.515H152.128C152.669 104.515 153.108 104.077 153.108 103.535V101.804C153.108 101.263 152.669 100.824 152.128 100.824Z" fill="#407BFF"/>
<path d="M152.534 99.29H142.266C141.949 99.29 141.692 99.5469 141.692 99.8639V100.25C141.692 100.567 141.949 100.824 142.266 100.824H152.534C152.851 100.824 153.108 100.567 153.108 100.25V99.8639C153.108 99.5469 152.851 99.29 152.534 99.29Z" fill="white"/>
<path d="M185.494 105.856H183.961V186.474H185.494V105.856Z" fill="#263238"/>
<path d="M186.845 161.384H182.61C182.134 161.384 181.747 161.77 181.747 162.247V163.354C181.747 163.831 182.134 164.217 182.61 164.217H186.845C187.322 164.217 187.709 163.831 187.709 163.354V162.247C187.709 161.77 187.322 161.384 186.845 161.384Z" fill="#263238"/>
<path d="M169.555 186.479H168.021L183.961 162.8H185.495L169.555 186.479Z" fill="#263238"/>
<path d="M199.901 186.479H201.434L185.494 162.8H183.961L199.901 186.479Z" fill="#263238"/>
<path d="M233.983 35.6987H135.47C135.278 35.6987 135.093 35.6222 134.957 35.486C134.821 35.3498 134.744 35.1651 134.744 34.9725C134.745 34.7808 134.823 34.5974 134.959 34.4624C135.095 34.3273 135.279 34.2515 135.47 34.2515H233.983C234.174 34.2515 234.358 34.3274 234.493 34.4627C234.628 34.5979 234.704 34.7813 234.704 34.9725C234.705 35.0677 234.687 35.162 234.651 35.25C234.615 35.3381 234.562 35.4182 234.495 35.4857C234.428 35.5532 234.348 35.6068 234.26 35.6433C234.172 35.6799 234.078 35.6987 233.983 35.6987Z" fill="#E0E0E0"/>
<path d="M237.894 104.515H131.562L134.04 107.202H235.416L237.894 104.515Z" fill="#E0E0E0"/>
<path d="M108.473 127.798H59.7295V128.991H108.473V127.798Z" fill="#407BFF"/>
<path d="M108.473 127.798H95.5498V128.991H108.473V127.798Z" fill="#263238"/>
<path d="M88.5724 188.282H87.8361L84.7589 156.773C84.505 154.158 82.7987 152.203 80.8031 152.203H74.74C72.7088 152.203 71.0382 154.173 70.7843 156.773L67.707 188.282H66.9707L70.0581 156.631C70.3577 153.539 72.3686 151.203 74.74 151.203H80.8031C83.1694 151.203 85.1854 153.539 85.485 156.631L88.5724 188.282Z" fill="#263238"/>
<path d="M65.6359 188.282H64.8894L61.8426 156.773C61.5887 154.158 59.8876 152.203 57.8869 152.203H51.8035C49.8028 152.203 48.1016 154.173 47.8477 156.773L44.7705 188.282H44.0342L47.1165 156.631C47.4161 153.539 49.4321 151.203 51.7984 151.203H57.8615C60.2329 151.203 62.2438 153.539 62.5434 156.631L65.6359 188.282Z" fill="#263238"/>
<path d="M62.3498 86.824C62.4615 87.1389 62.7205 87.3318 62.9338 87.281C63.147 87.2303 63.2232 86.9053 63.1115 86.5854C62.9998 86.2655 62.7408 86.0776 62.5326 86.1284C62.3244 86.1791 62.2228 86.5041 62.3498 86.824Z" fill="#263238"/>
<path d="M62.6387 87.0627C63.2939 87.7543 64.0385 88.3555 64.8527 88.8502C64.72 89.049 64.5452 89.2162 64.3408 89.3399C64.1363 89.4636 63.9071 89.5409 63.6695 89.5662L62.6387 87.0627Z" fill="#ED893E"/>
<path d="M60.9942 85.7981C60.9608 85.8059 60.9261 85.8059 60.8927 85.7981C60.8671 85.7939 60.8427 85.7845 60.8209 85.7706C60.799 85.7567 60.7802 85.7386 60.7655 85.7173C60.7508 85.6959 60.7406 85.6719 60.7354 85.6465C60.7302 85.6212 60.7301 85.595 60.7353 85.5696C60.7824 85.2626 60.9043 84.9718 61.0902 84.723C61.2762 84.4741 61.5205 84.2749 61.8016 84.1427C61.8488 84.1289 61.8994 84.1332 61.9436 84.1546C61.9879 84.1761 62.0225 84.2132 62.0409 84.2588C62.0592 84.3044 62.06 84.3552 62.043 84.4013C62.026 84.4474 61.9925 84.4856 61.9489 84.5083C61.7303 84.617 61.541 84.7765 61.397 84.9736C61.2529 85.1707 61.1583 85.3995 61.1212 85.6407C61.1156 85.6758 61.101 85.7087 61.0787 85.7363C61.0564 85.764 61.0273 85.7853 60.9942 85.7981Z" fill="#263238"/>
<path d="M52.5137 91.77L55.7737 94.8574L60.0951 97.2847C59.9427 97.4269 59.9986 98.3917 60.0595 98.8741C60.0768 99.4011 60.2577 99.9096 60.5771 100.329C60.8965 100.749 61.3385 101.058 61.8419 101.215C62.3497 101.433 62.8575 101.723 62.954 102.2C63.0556 102.789 62.6239 103.52 60.2068 103.871C57.8886 104.182 55.5295 103.85 53.3871 102.911C52.3715 102.495 52.5441 102.038 52.798 101.073C53.448 98.61 53.3008 94.2633 52.5137 91.77Z" fill="#FFB573"/>
<path d="M51.2129 102.2C51.7216 100.91 52.134 99.5849 52.4468 98.2342C52.4468 98.2342 59.0482 97.7518 61.247 98.6151C63.4457 99.4783 64.8016 103.221 64.8016 103.221L51.2129 102.2Z" fill="#263238"/>
<path d="M51.7929 90.0282C53.3518 93.7503 54.0729 96.005 56.6627 97.2541C60.5575 99.133 64.6198 95.6749 64.1984 91.5465C63.8175 87.8294 61.3344 82.3757 57.0892 82.2233C56.1488 82.1945 55.2164 82.4036 54.3784 82.8313C53.5404 83.259 52.824 83.8915 52.2958 84.67C51.7675 85.4485 51.4444 86.3478 51.3565 87.2845C51.2686 88.2212 51.4187 89.165 51.7929 90.0282Z" fill="#FFB573"/>
<path d="M59.6335 89.8353C61.101 88.1595 60.0804 85.2651 58.7804 84.1327C60.0397 84.087 63.2998 83.8026 62.335 80.9945C61.3702 78.1864 58.0136 77.8563 57.0387 79.2426C54.2661 77.7192 50.9451 79.0395 51.7423 81.157C48.4823 80.6492 47.5479 83.8839 48.8936 85.1889C47.1823 86.6158 46.5679 89.4239 48.8073 90.4852C51.0466 91.5465 51.0924 94.1922 53.3774 95.5632C55.6625 96.9343 60.8979 94.5984 59.6335 89.8353Z" fill="#263238"/>
<path d="M57.7489 90.3989C58.2329 91.1594 58.9791 91.7159 59.8461 91.9629C60.9683 92.2625 61.5116 91.0184 61.0952 89.9317C60.7195 88.977 59.5718 87.9005 58.5055 88.0579C57.4391 88.2153 57.1497 89.4493 57.7489 90.3989Z" fill="#FFB573"/>
<path d="M54.3115 107.171L51.0108 113.773C50.4573 114.875 49.919 115.972 49.396 117.074C48.873 118.175 48.35 119.257 47.898 120.334C47.6543 120.877 47.4512 121.395 47.2328 121.928L46.9535 122.685L46.918 122.781V122.827V122.852V122.801C46.9693 122.589 46.9916 122.37 46.984 122.152C46.9895 121.991 46.9582 121.831 46.8926 121.684C46.852 121.613 46.8926 121.75 46.923 121.913C46.9911 122.117 47.0742 122.315 47.1719 122.507C47.3902 122.949 47.6797 123.426 47.9539 123.919C49.1472 125.889 50.6046 127.981 51.9248 130.053L51.9604 130.104C52.2022 130.484 52.3066 130.936 52.2562 131.384C52.2058 131.832 52.0037 132.249 51.6835 132.566C51.3632 132.884 50.9441 133.082 50.4957 133.128C50.0472 133.174 49.5965 133.066 49.2183 132.82C48.104 132.107 47.034 131.327 46.0141 130.484C44.9664 129.64 43.9725 128.731 43.0384 127.763C42.5285 127.241 42.0519 126.688 41.6115 126.107C41.3578 125.781 41.1205 125.442 40.9006 125.092C40.6063 124.614 40.371 124.103 40.1998 123.568C40.0554 123.116 39.9751 122.646 39.9611 122.172C39.9523 121.794 39.9933 121.417 40.083 121.05L40.1643 120.725L40.4334 119.673C40.6365 119.018 40.8244 118.338 41.0478 117.713C41.4795 116.429 41.9517 115.21 42.429 113.991C42.9064 112.772 43.4446 111.589 43.9524 110.437C45.029 108.08 46.141 105.8 47.4105 103.515C47.8933 102.598 48.721 101.909 49.7114 101.601C50.7018 101.294 51.7738 101.392 52.6916 101.875C53.6094 102.358 54.2979 103.186 54.6055 104.176C54.9131 105.166 54.8146 106.238 54.3318 107.156L54.3115 107.171Z" fill="#FFB573"/>
<path d="M51.7472 100.555C56.0026 100.707 57.9373 103.891 54.4081 109.558C51.3613 114.428 50.9601 114.529 50.9601 114.529L43.2568 110.711C45.8466 105.78 47.3954 100.392 51.7472 100.555Z" fill="#407BFF"/>
<g opacity="0.3">
<path d="M51.7462 100.555C56.0016 100.707 57.9363 103.891 54.4071 109.558C51.3603 114.428 50.9591 114.529 50.9591 114.529L43.2559 110.711C45.8456 105.78 47.3944 100.392 51.7462 100.555Z" fill="black"/>
</g>
<path d="M53.961 130.936L53.5293 130.454C52.1989 129.22 51.6302 129.372 50.1068 129.372L48.2432 130.769C49.3705 133.866 51.6505 133.729 51.6505 133.729L52.3106 134.344C52.4557 134.478 52.6317 134.574 52.823 134.623C53.0142 134.672 53.2147 134.673 53.4065 134.626C53.5983 134.579 53.7753 134.485 53.9217 134.352C54.0681 134.219 54.1793 134.053 54.2453 133.866L54.4383 133.318C54.5781 132.915 54.6076 132.481 54.5237 132.062C54.4397 131.644 54.2455 131.255 53.961 130.936Z" fill="#FFB573"/>
<path d="M98.6313 177.055L102.272 175.008L98.3977 166.137L94.7568 168.178L98.6313 177.055Z" fill="#FFB573"/>
<path opacity="0.2" d="M96.6357 172.479L100.332 170.57L98.3977 166.137L94.7568 168.178L96.6357 172.479Z" fill="black"/>
<path d="M101.8 173.144L97.1284 173.474C97.0493 173.478 96.975 173.513 96.9209 173.571C96.8669 173.629 96.8375 173.705 96.8389 173.784L96.8745 177.491C96.8888 177.686 96.9786 177.867 97.1248 177.996C97.2709 178.125 97.4618 178.192 97.6565 178.182C99.2763 178.04 99.9365 177.633 101.973 177.344C103.227 177.161 106.238 176.988 107.929 176.521C109.62 176.054 109.341 174.49 107.96 174.561C106.167 174.642 103.77 174.19 102.531 173.353C102.317 173.204 102.06 173.131 101.8 173.144Z" fill="#263238"/>
<path d="M69.9677 134.537C69.9677 134.537 91.2343 133.267 93.0319 141.514C96.688 158.271 100.217 167.579 100.217 167.579L94.5908 170.484C94.5908 170.484 86.3035 158.875 83.861 146.983C75.198 145.683 60.0555 150.268 56.44 143.763C53.2409 138.025 56.049 133.902 56.049 133.902L69.9677 134.537Z" fill="#263238"/>
<path d="M94.6959 171.997L101.246 168.823L100.51 166.137L93.3096 169.519L94.6959 171.997Z" fill="#407BFF"/>
<path d="M103.324 173.769C102.95 173.783 102.575 173.76 102.206 173.698C102.187 173.695 102.169 173.687 102.155 173.675C102.14 173.662 102.13 173.645 102.125 173.627C102.12 173.608 102.121 173.589 102.127 173.571C102.134 173.553 102.145 173.537 102.161 173.525C102.288 173.424 103.405 172.535 103.928 172.698C103.987 172.717 104.04 172.751 104.083 172.796C104.125 172.841 104.156 172.896 104.172 172.956C104.206 173.046 104.217 173.142 104.202 173.236C104.188 173.331 104.15 173.42 104.09 173.495C103.876 173.675 103.604 173.773 103.324 173.769ZM102.46 173.535C103.217 173.632 103.76 173.571 103.943 173.363C103.981 173.314 104.005 173.255 104.013 173.194C104.021 173.132 104.013 173.07 103.989 173.012C103.981 172.984 103.966 172.957 103.945 172.935C103.925 172.913 103.9 172.896 103.872 172.885C103.588 172.799 102.922 173.195 102.465 173.535H102.46Z" fill="#407BFF"/>
<path d="M102.228 173.698C102.213 173.703 102.197 173.703 102.182 173.698C102.167 173.692 102.154 173.682 102.145 173.67C102.135 173.657 102.129 173.643 102.126 173.627C102.126 173.576 101.938 172.388 102.329 171.951C102.38 171.896 102.442 171.853 102.512 171.825C102.581 171.797 102.656 171.784 102.73 171.789C102.814 171.786 102.896 171.811 102.964 171.86C103.032 171.908 103.082 171.978 103.106 172.058C103.233 172.505 102.675 173.414 102.279 173.693C102.262 173.7 102.245 173.701 102.228 173.698ZM102.68 171.971C102.641 171.974 102.603 171.984 102.568 172.001C102.533 172.019 102.502 172.043 102.477 172.073C102.243 172.332 102.258 173.017 102.294 173.414C102.661 173.07 102.885 172.6 102.918 172.098C102.918 172.043 102.868 171.982 102.725 171.971H102.68Z" fill="#407BFF"/>
<path d="M74.6338 184.661L78.7673 184.463L79.4426 174.703L75.3092 174.901L74.6338 184.661Z" fill="#FFB573"/>
<path d="M79.1823 183.153L74.5055 183.006C74.4271 183.002 74.3501 183.028 74.2905 183.079C74.2309 183.13 74.1933 183.202 74.1856 183.28L73.8454 186.972C73.8413 187.068 73.8563 187.165 73.8896 187.256C73.9229 187.347 73.9737 187.43 74.0393 187.501C74.1049 187.573 74.1838 187.63 74.2717 187.671C74.3595 187.712 74.4545 187.735 74.5512 187.739C76.1813 187.739 76.8668 187.556 78.9234 187.622C80.1878 187.662 82.4779 187.865 84.6107 187.865C86.7434 187.865 85.8853 186.139 84.7478 185.976C82.9705 185.723 81.0409 184.392 79.8933 183.437C79.6954 183.265 79.4447 183.165 79.1823 183.153Z" fill="#263238"/>
<path d="M80.6303 183.925C80.2561 183.901 79.8853 183.84 79.5233 183.742C79.5047 183.737 79.488 183.727 79.4753 183.713C79.4626 183.698 79.4546 183.68 79.4522 183.661C79.4494 183.642 79.4523 183.623 79.4605 183.606C79.4686 183.589 79.4816 183.574 79.4979 183.565C79.6299 183.478 80.8385 182.706 81.3361 182.925C81.3932 182.949 81.4432 182.987 81.4814 183.036C81.5196 183.085 81.5447 183.143 81.5545 183.204C81.5801 183.293 81.5809 183.388 81.5568 183.477C81.5326 183.567 81.4844 183.648 81.4174 183.712C81.1917 183.88 80.9102 183.957 80.6303 183.925ZM79.7924 183.61C80.5338 183.778 81.0822 183.773 81.2853 183.585C81.327 183.54 81.3565 183.485 81.3707 183.425C81.3849 183.366 81.3835 183.304 81.3666 183.245C81.3628 183.214 81.351 183.184 81.3323 183.159C81.3136 183.134 81.2886 183.115 81.2599 183.102C81.001 182.986 80.3002 183.316 79.8026 183.61H79.7924Z" fill="#407BFF"/>
<path d="M79.5543 183.742H79.5136C79.4985 183.735 79.4857 183.723 79.4768 183.709C79.4678 183.695 79.463 183.678 79.4629 183.661C79.4629 183.61 79.4019 182.412 79.8386 182.016C79.8947 181.966 79.9612 181.929 80.0332 181.908C80.1052 181.887 80.1809 181.882 80.255 181.894C80.3373 181.9 80.4152 181.934 80.4767 181.989C80.5382 182.044 80.5799 182.117 80.5952 182.199C80.6765 182.656 80.0265 183.509 79.5797 183.722C79.5726 183.73 79.564 183.737 79.5543 183.742ZM80.1789 182.072C80.0999 182.07 80.0235 182.099 79.9656 182.153C79.7221 182.546 79.6117 183.007 79.6508 183.468C80.0214 183.174 80.4581 182.524 80.4023 182.224C80.4023 182.168 80.3667 182.097 80.2246 182.077L80.1789 182.072Z" fill="#407BFF"/>
<path opacity="0.2" d="M75.3094 174.907L79.4428 174.708L79.0518 180.289L74.9336 180.284L75.3094 174.907Z" fill="black"/>
<path d="M60.2367 134.095C60.2367 134.095 86.0532 138.904 85.5504 146.155C84.6516 159.21 80.2744 177.867 80.2744 177.867L74.0742 177.953C74.0742 177.953 73.2262 158.55 73.993 149.105C66.249 149.105 51.01 148.836 48.0293 144.85C44.7337 140.452 48.1207 133.541 48.1207 133.541L60.2367 134.095Z" fill="#263238"/>
<path d="M73.5516 179.076L81.3767 178.964L81.7474 176.42L73.2266 176.669L73.5516 179.076Z" fill="#407BFF"/>
<path d="M65.7832 100.844C63.2442 100.337 51.8086 100.494 51.8086 100.494C50.6648 100.465 49.5519 100.867 48.6897 101.619C47.8275 102.371 47.2789 103.419 47.1521 104.556C46.7509 108.08 47.9341 115.885 48.0154 119.907C48.1118 124.843 48.2185 126.925 48.122 133.567L74.7458 134.963C75.7614 122.857 71.8158 117.018 69.4647 104.973C69.1143 103.129 68.3171 101.337 65.7832 100.844Z" fill="#407BFF"/>
<path opacity="0.3" d="M65.7832 100.844C63.2442 100.337 51.8086 100.494 51.8086 100.494C50.6648 100.465 49.5519 100.867 48.6897 101.619C47.8275 102.371 47.2789 103.419 47.1521 104.556C46.7509 108.08 47.9341 115.885 48.0154 119.907C48.1118 124.843 48.2185 126.925 48.122 133.567L74.7458 134.963C75.7614 122.857 71.8158 117.018 69.4647 104.973C69.1143 103.129 68.3171 101.337 65.7832 100.844Z" fill="black"/>
<path d="M69.022 104.739C70.2204 106.872 71.4543 109.111 72.6984 111.249C73.3129 112.331 73.9476 113.392 74.5874 114.428C75.2273 115.464 75.8874 116.459 76.5475 117.424L77.0553 118.109C77.2229 118.343 77.3854 118.526 77.5631 118.734L77.685 118.891L77.7459 118.967L77.7053 118.927L77.6139 118.861C77.6139 118.861 77.5885 118.861 77.6139 118.891C77.7653 119.017 77.9247 119.132 78.0912 119.237C78.9596 119.8 80.0869 120.374 81.1786 120.953C83.3926 122.106 85.7082 123.248 87.9527 124.508H87.9831C88.4011 124.725 88.7273 125.085 88.9024 125.523C89.0776 125.96 89.0901 126.446 88.9378 126.892C88.7855 127.338 88.4783 127.715 88.0721 127.953C87.6659 128.192 87.1876 128.278 86.7238 128.194C84.0846 127.881 81.4724 127.372 78.9088 126.671C77.5466 126.312 76.2098 125.862 74.9073 125.325C74.4934 125.146 74.0914 124.941 73.7039 124.711C73.6023 124.655 73.455 124.553 73.323 124.462L73.1148 124.31L72.8457 124.081L72.7137 123.964L72.6223 123.873L72.5207 123.771L72.3176 123.568C72.0586 123.299 71.7641 123.02 71.5305 122.751L70.8043 121.938C69.0628 119.834 67.4631 117.617 66.0158 115.301C64.594 113.031 63.2839 110.787 62.0753 108.36C61.6237 107.448 61.5452 106.396 61.8565 105.428C62.1678 104.459 62.8443 103.65 63.7425 103.172C64.6407 102.694 65.6898 102.585 66.667 102.868C67.6442 103.151 68.4726 103.804 68.9763 104.688L69.022 104.739Z" fill="#FFB573"/>
<path d="M61.8832 103.353C64.1734 99.7677 67.9006 99.7169 70.9931 105.633C73.6489 110.711 73.5321 111.122 73.5321 111.122L66.3366 115.829C63.3914 111.097 59.5372 107.024 61.8832 103.353Z" fill="#407BFF"/>
<g opacity="0.3">
<path d="M61.8822 103.353C64.1724 99.7677 67.8996 99.7169 70.9921 105.633C73.6479 110.711 73.5311 111.122 73.5311 111.122L66.3356 115.829C63.3904 111.097 59.5362 107.024 61.8822 103.353Z" fill="black"/>
</g>
<path d="M89.8516 124.203L89.2219 124.086C87.4091 123.919 87.0587 124.391 85.8502 125.32L85.2256 127.564C88.0134 129.327 89.7348 127.823 89.7348 127.823L90.6336 127.91C90.8301 127.927 91.0279 127.896 91.2092 127.818C91.3904 127.74 91.5495 127.618 91.6719 127.464C91.7944 127.309 91.8764 127.126 91.9105 126.932C91.9447 126.738 91.9299 126.538 91.8676 126.351L91.6848 125.797C91.5504 125.392 91.3094 125.029 90.9868 124.749C90.6643 124.468 90.2722 124.28 89.8516 124.203Z" fill="#FFB573"/>
<path d="M34.0043 131.348C33.5223 128.646 33.6455 125.871 34.3648 123.223L34.8726 123.36C34.175 125.934 34.0571 128.631 34.5273 131.256L34.0043 131.348Z" fill="#407BFF"/>
<path d="M34.8688 133.334L34.3682 133.42L34.8522 136.263L35.3527 136.178L34.8688 133.334Z" fill="#407BFF"/>
<path d="M86.5204 149.014L75.166 148.562L72.1904 131.068C70.667 122.055 62.857 114.753 54.7678 114.753H47.6231C39.5339 114.753 34.2223 122.055 35.7559 131.068L37.7871 143.144C38.5437 147.613 42.4131 151.238 46.4196 151.238H91.38C91.4747 151.226 91.5633 151.185 91.6332 151.12C91.7032 151.055 91.751 150.97 91.7701 150.876C91.7891 150.782 91.7784 150.685 91.7394 150.598C91.7004 150.511 91.6351 150.438 91.5527 150.39C89.9939 149.574 88.2773 149.105 86.5204 149.014Z" fill="#407BFF"/>
<path d="M89.1972 150.837H85.5918V149.908H89.1972C98.2613 149.908 105.64 141.666 105.64 131.536V128.397H106.569V131.536C106.569 142.179 98.7742 150.837 89.1972 150.837Z" fill="#263238"/>
<path d="M163.22 127.798H114.477V128.991H163.22V127.798Z" fill="#407BFF"/>
<path d="M147.006 127.204H130.686V127.803H147.006V127.204Z" fill="#E0E0E0"/>
<path d="M163.219 127.798H150.296V128.991H163.219V127.798Z" fill="#263238"/>
<path d="M143.319 188.282H142.582L139.51 156.773C139.251 154.158 137.55 152.203 135.554 152.203H129.461C127.46 152.203 125.764 154.173 125.505 156.773L122.458 188.282H121.712L124.809 156.631C125.109 153.538 127.12 151.202 129.486 151.202H135.58C137.946 151.202 139.957 153.538 140.262 156.631L143.319 188.282Z" fill="#263238"/>
<path d="M120.382 188.282H119.645L116.568 156.773C116.314 154.158 114.613 152.203 112.612 152.203H106.529C104.528 152.203 102.827 154.173 102.573 156.773L99.4961 188.282H98.7598L101.867 156.631C102.167 153.538 104.178 151.202 106.549 151.202H112.623C114.989 151.202 117.005 153.538 117.305 156.631L120.382 188.282Z" fill="#263238"/>
<path d="M110.017 115.342L109.037 122.547C108.728 124.949 108.408 127.351 108.174 129.712L108.098 130.591L108.062 131.033C108.069 130.96 108.069 130.887 108.062 130.814C108.051 130.745 108.034 130.677 108.012 130.611C107.983 130.523 107.942 130.439 107.89 130.362C107.814 130.266 107.803 130.281 107.824 130.301C107.867 130.348 107.917 130.389 107.971 130.423C108.151 130.549 108.341 130.659 108.54 130.753C109.56 131.223 110.614 131.615 111.693 131.926C113.948 132.627 116.314 133.196 118.65 133.78L118.386 135.811C115.888 135.73 113.398 135.472 110.937 135.039C109.632 134.82 108.35 134.48 107.108 134.024C106.742 133.881 106.387 133.711 106.046 133.516C105.836 133.397 105.636 133.261 105.447 133.11C105.182 132.902 104.949 132.655 104.757 132.378C104.621 132.173 104.512 131.951 104.432 131.718C104.389 131.578 104.355 131.436 104.33 131.292C104.321 131.144 104.321 130.997 104.33 130.85V130.372V129.423C104.432 126.914 104.66 124.462 104.924 122.014C105.188 119.567 105.498 117.134 105.884 114.697L110.017 115.342Z" fill="#FFC3BD"/>
<path d="M124.048 135.943L122.469 137.385C122.289 137.55 122.065 137.657 121.824 137.692C121.583 137.728 121.337 137.69 121.118 137.583L119.376 136.745C119.376 136.745 116.796 136.639 116.426 135.06L117.096 133.836L121.092 133.389C121.505 133.345 121.921 133.438 122.276 133.653L123.921 134.669C124.026 134.734 124.115 134.822 124.18 134.928C124.246 135.033 124.286 135.151 124.299 135.275C124.311 135.398 124.295 135.522 124.251 135.638C124.208 135.754 124.138 135.858 124.048 135.943Z" fill="#FFC3BD"/>
<path d="M114.613 100.534C115.019 103.007 115.365 107.527 113.598 109.111C116.384 110.664 118.818 112.777 120.747 115.316C123.794 112.92 121.255 109.34 121.255 109.34C118.533 108.603 118.665 106.572 119.199 104.678L114.613 100.534Z" fill="#FFC3BD"/>
<path d="M108.718 109.756C105.605 110.772 104.934 114.941 105.214 118.185L111.495 122.05C111.495 122.05 113.019 117.312 113.019 114.778C112.993 112.082 110.83 109.071 108.718 109.756Z" fill="#263238"/>
<path d="M128.496 115.819C128.237 119.374 127.44 125.411 125.48 135.542L108.661 135.034C109.103 128.824 108.438 124.198 106.915 113.331C106.852 112.861 106.885 112.383 107.01 111.926C107.135 111.468 107.35 111.041 107.643 110.668C107.936 110.295 108.301 109.984 108.715 109.755C109.13 109.525 109.586 109.38 110.058 109.329C111.134 109.218 112.363 109.126 113.612 109.101C116.154 108.997 118.699 109.074 121.229 109.329C122.052 109.431 122.895 109.558 123.702 109.695C125.121 109.935 126.398 110.696 127.285 111.829C128.172 112.962 128.604 114.385 128.496 115.819Z" fill="#263238"/>
<path d="M122.382 95.5429C122.484 95.8628 122.737 96.0507 122.946 95.9999C123.154 95.9491 123.24 95.619 123.139 95.3042C123.037 94.9894 122.783 94.7964 122.575 94.8472C122.367 94.898 122.27 95.228 122.382 95.5429Z" fill="#263238"/>
<path d="M122.489 94.8927L123.18 94.4255C123.18 94.4255 122.982 95.1517 122.489 94.8927Z" fill="#263238"/>
<path d="M122.595 96.0251C123.111 96.6604 123.712 97.2209 124.382 97.6907C124.257 97.8591 124.097 97.9982 123.913 98.0982C123.729 98.1982 123.525 98.2567 123.316 98.2696L122.595 96.0251Z" fill="#ED847E"/>
<path d="M121.865 92.6789C121.882 92.6495 121.89 92.6162 121.89 92.5824C121.89 92.5485 121.882 92.5152 121.865 92.4859C121.833 92.4446 121.787 92.4172 121.736 92.4096C121.685 92.402 121.632 92.4148 121.59 92.4453C121.335 92.6241 121.126 92.862 120.982 93.1387C120.838 93.4154 120.763 93.7227 120.763 94.0347C120.763 94.0603 120.769 94.0854 120.78 94.1087C120.79 94.1319 120.806 94.1528 120.825 94.1699C120.844 94.187 120.866 94.2 120.89 94.2082C120.915 94.2164 120.94 94.2196 120.966 94.2175C120.992 94.2168 121.017 94.211 121.041 94.2004C121.064 94.1898 121.085 94.1745 121.103 94.1556C121.12 94.1367 121.134 94.1144 121.142 94.0902C121.151 94.0659 121.155 94.0401 121.154 94.0144C121.156 93.7674 121.218 93.5247 121.335 93.3071C121.451 93.0894 121.619 92.9035 121.824 92.7652C121.846 92.741 121.86 92.711 121.865 92.6789Z" fill="#263238"/>
<path d="M111.135 97.6602C112.659 101.489 113.166 103.139 115.807 104.51C119.747 106.572 124.12 103.891 123.795 99.6914C123.505 95.9134 121.103 90.287 116.777 89.962C115.822 89.8798 114.861 90.0448 113.988 90.4412C113.115 90.8376 112.359 91.452 111.792 92.2254C111.226 92.9987 110.867 93.9049 110.752 94.8568C110.637 95.8086 110.769 96.7741 111.135 97.6602Z" fill="#FFC3BD"/>
<path d="M120.331 96.7766C121.073 96.5634 122.363 95.0857 120.113 92.11C121.317 91.8916 122.297 89.6827 118.996 88.4183C115.695 87.1539 112.095 87.7683 109.911 90.7948C109.911 90.7948 102.949 92.8513 108.622 100.016C114.294 107.181 121.494 104.262 120.331 96.7766Z" fill="#263238"/>
<path d="M107.331 90.7897C107.33 90.992 107.38 91.1912 107.477 91.3687C107.574 91.5463 107.714 91.6965 107.885 91.8053C108.211 92.0804 108.618 92.2427 109.044 92.2683C109.47 92.294 109.894 92.1814 110.251 91.9475C111.022 91.4398 111.727 90.8376 112.348 90.155C112.532 89.9558 112.674 89.7219 112.766 89.467C112.858 89.212 112.898 88.9413 112.884 88.6706C112.87 88.3999 112.802 88.1348 112.684 87.8909C112.565 87.647 112.399 87.4292 112.196 87.2504C112.103 87.1722 112.004 87.101 111.901 87.0371C111.901 87.0371 107.915 87.1539 107.331 90.7897Z" fill="#407BFF"/>
<path d="M107.894 90.3124C110.174 89.9468 111.388 88.1238 111.52 87.5805C111.012 86.2399 104.411 77.7191 98.7842 83.9497C92.8429 90.5511 104.472 97.188 100.308 105.135C107.544 102.703 113.444 97.6958 107.894 90.3124Z" fill="#263238"/>
<path d="M118.687 97.5688C119.074 98.3309 119.748 98.908 120.56 99.1734C121.637 99.5136 122.216 98.559 121.947 97.5231C121.708 96.5887 120.86 95.2837 119.763 95.3954C119.524 95.4236 119.295 95.5111 119.099 95.6499C118.902 95.7887 118.743 95.9744 118.636 96.1903C118.529 96.4061 118.477 96.6453 118.486 96.886C118.495 97.1267 118.564 97.3614 118.687 97.5688Z" fill="#FFC3BD"/>
<path d="M145.898 181.828L149.869 181.452L147.193 171.672L143.222 172.048L145.898 181.828Z" fill="#FFC3BD"/>
<path d="M155.222 184.128C152.794 183.412 152.87 182.346 150.448 180.375C150.207 180.157 149.903 180.019 149.58 179.979L145.629 179.705C145.553 179.706 145.479 179.733 145.421 179.784C145.363 179.834 145.325 179.903 145.314 179.979L144.756 182.716C144.563 183.666 145.147 184.575 145.969 184.605C147.285 184.656 148.899 184.707 150.336 184.803C152.434 184.951 152.459 186.012 154.907 185.895C156.415 185.824 156.049 184.372 155.222 184.128Z" fill="#263238"/>
<path d="M160.675 169.245L163.366 166.909L158.862 160.069L155.495 163.258L160.675 169.245Z" fill="#FFC3BD"/>
<path d="M162.646 165.462L159.436 168.432C159.375 168.49 159.336 168.567 159.326 168.651C159.316 168.734 159.335 168.818 159.38 168.889L160.904 171.245C161.034 171.429 161.202 171.582 161.396 171.696C161.59 171.81 161.806 171.881 162.03 171.905C162.254 171.929 162.48 171.905 162.694 171.835C162.907 171.765 163.104 171.651 163.27 171.499C164.321 170.687 164.915 169.26 166.16 168.092C167.972 166.396 168.297 166.442 169.42 164.07C170.181 162.476 168.521 162.471 167.937 162.963C166.469 164.212 167.048 164.263 163.631 164.994C163.266 165.057 162.925 165.219 162.646 165.462Z" fill="#263238"/>
<path d="M119.614 135.253C119.614 135.253 146.842 131.221 149.661 138.203C154.566 150.344 161.665 164.024 161.665 164.024L158.466 166.959C158.466 166.959 146.279 156.037 142.054 143.834C137.011 145.469 120.96 150.72 115.08 150.72C108.803 150.72 106.239 145.368 108.509 136.502C108.608 136.116 108.833 135.774 109.148 135.531C109.464 135.288 109.852 135.158 110.251 135.161C114.201 135.161 119.614 135.253 119.614 135.253Z" fill="#407BFF"/>
<path opacity="0.5" d="M119.614 135.253C119.614 135.253 146.842 131.221 149.661 138.203C154.566 150.344 161.665 164.024 161.665 164.024L158.466 166.959C158.466 166.959 146.279 156.037 142.054 143.834C137.011 145.469 120.96 150.72 115.08 150.72C108.803 150.72 106.239 145.368 108.509 136.502C108.608 136.116 108.833 135.774 109.148 135.531C109.464 135.288 109.852 135.158 110.251 135.161C114.201 135.161 119.614 135.253 119.614 135.253Z" fill="white"/>
<path d="M122.225 138.797C122.225 138.797 144.568 138.121 144.761 146.038C145.071 159.134 149.088 177.862 149.088 177.862L144.685 178.273C144.685 178.273 138.013 163.349 136.261 150.537C128.299 151.045 120.961 150.7 115.081 150.7C108.479 150.7 107.971 143.464 114.365 135.024C118.285 135.044 122.225 138.797 122.225 138.797Z" fill="#407BFF"/>
<path opacity="0.5" d="M122.225 138.797C122.225 138.797 144.568 138.121 144.761 146.038C145.071 159.134 149.088 177.862 149.088 177.862L144.685 178.273C144.685 178.273 138.013 163.349 136.261 150.537C128.299 151.045 120.961 150.7 115.081 150.7C108.479 150.7 107.971 143.464 114.365 135.024C118.285 135.044 122.225 138.797 122.225 138.797Z" fill="white"/>
<path d="M108.443 134.049L107.965 135.542C107.904 135.659 108.036 135.781 108.234 135.786L125.54 136.293C125.692 136.293 125.819 136.227 125.835 136.136L126.028 134.613C126.028 134.511 125.916 134.415 125.748 134.409L108.717 133.902C108.662 133.898 108.607 133.909 108.558 133.935C108.51 133.961 108.469 134.001 108.443 134.049Z" fill="white"/>
<path d="M110.672 136.019H110.215C110.124 136.019 110.058 135.969 110.063 135.908L110.337 133.958C110.337 133.902 110.423 133.856 110.515 133.861H110.972C111.063 133.861 111.129 133.912 111.124 133.968L110.85 135.918C110.845 135.979 110.764 136.024 110.672 136.019Z" fill="#263238"/>
<path d="M124.256 136.425H123.799C123.708 136.425 123.642 136.375 123.647 136.319L123.921 134.369C123.921 134.313 124.007 134.267 124.099 134.267H124.556C124.647 134.267 124.713 134.318 124.708 134.379L124.434 136.324C124.429 136.385 124.348 136.425 124.256 136.425Z" fill="#263238"/>
<path d="M117.461 136.222H117.009C116.917 136.222 116.846 136.172 116.856 136.116L117.126 134.166C117.126 134.11 117.217 134.064 117.308 134.069H117.765C117.857 134.069 117.923 134.125 117.913 134.181L117.644 136.131C117.633 136.182 117.552 136.227 117.461 136.222Z" fill="#263238"/>
<path d="M129.136 117.749C129.202 118.109 129.299 118.576 129.385 118.993C129.471 119.409 129.578 119.856 129.69 120.283C129.908 121.136 130.152 121.984 130.426 122.822C130.702 123.634 131.019 124.433 131.375 125.213C131.72 125.955 132.126 126.667 132.589 127.341L132.67 127.468L132.64 127.427C132.619 127.403 132.595 127.381 132.569 127.361C132.527 127.32 132.481 127.283 132.432 127.25C132.307 127.159 132.162 127.1 132.01 127.077C131.873 127.077 131.949 127.077 132.061 127.077C132.408 127.041 132.749 126.962 133.077 126.843C133.9 126.559 134.707 126.229 135.494 125.853C137.134 125.086 138.804 124.223 140.445 123.365L141.638 125.051C140.193 126.349 138.654 127.537 137.032 128.605C136.184 129.168 135.297 129.669 134.376 130.104C133.833 130.361 133.263 130.557 132.675 130.687C132.23 130.785 131.77 130.799 131.32 130.728C130.935 130.662 130.569 130.513 130.248 130.291C130.151 130.224 130.059 130.149 129.974 130.068L129.847 129.936L129.75 129.834L129.623 129.672C128.299 128.039 127.257 126.195 126.541 124.218C126.184 123.275 125.877 122.314 125.622 121.339C125.495 120.831 125.383 120.364 125.277 119.871C125.17 119.379 125.089 118.907 125.013 118.348L129.136 117.749Z" fill="#FFC3BD"/>
<path d="M127.114 111.635C130.059 113.905 130.059 120.577 130.059 120.577L124.981 121.984C124.981 121.984 121.33 117.561 122.254 115.464C123.224 113.28 125.525 110.421 127.114 111.635Z" fill="#263238"/>
<path d="M144.787 123.248C144.742 123.247 144.699 123.234 144.66 123.211C144.622 123.188 144.59 123.155 144.569 123.116L140.552 115.423C140.537 115.394 140.528 115.363 140.525 115.331C140.523 115.299 140.526 115.266 140.536 115.236C140.546 115.205 140.562 115.177 140.583 115.152C140.604 115.128 140.63 115.107 140.659 115.093C140.716 115.064 140.782 115.058 140.844 115.077C140.906 115.096 140.957 115.138 140.989 115.195L145.01 122.888C145.025 122.916 145.034 122.948 145.037 122.98C145.04 123.012 145.036 123.044 145.026 123.075C145.016 123.106 145 123.134 144.979 123.159C144.958 123.183 144.933 123.203 144.904 123.218C144.868 123.238 144.828 123.248 144.787 123.248Z" fill="#263238"/>
<path d="M143.09 118.871L141.567 119.805C141.183 120.041 140.888 120.399 140.729 120.821L139.307 124.528L138.652 126.884C140.176 127.432 142.938 123.837 142.938 123.837L144.675 122.532C144.813 122.428 144.917 122.285 144.973 122.121C145.029 121.957 145.035 121.78 144.99 121.613L144.396 119.399C144.363 119.266 144.299 119.142 144.209 119.038C144.119 118.934 144.005 118.853 143.878 118.801C143.751 118.75 143.613 118.729 143.476 118.741C143.339 118.754 143.207 118.798 143.09 118.871Z" fill="#FFC3BD"/>
<path d="M141.267 149.014L129.888 148.547L126.912 131.053C125.389 122.04 117.584 114.738 109.495 114.738H102.37C94.281 114.738 88.9694 122.04 90.503 131.053L92.5341 143.129C93.2958 147.597 97.1653 151.223 101.167 151.223H146.137C146.232 151.21 146.32 151.168 146.389 151.103C146.458 151.037 146.505 150.952 146.524 150.859C146.542 150.765 146.531 150.668 146.492 150.582C146.452 150.495 146.387 150.423 146.305 150.375C144.744 149.563 143.025 149.099 141.267 149.014Z" fill="#407BFF"/>
<path d="M143.943 150.837H140.338V149.908H143.943C153.007 149.908 160.386 141.666 160.386 131.535V128.397H161.31V131.535C161.31 142.179 153.52 150.837 143.943 150.837Z" fill="#263238"/>
<path d="M200.126 177.938L206.631 176.557L207.855 184.326L202.421 185.489L200.126 177.938Z" fill="#B55B52"/>
<path opacity="0.2" d="M200.126 177.938L206.636 176.557L207.321 180.909L201.411 182.168L200.126 177.938Z" fill="black"/>
<path d="M204.025 148.328C206.189 138.254 210.662 127.737 206.432 118.14L187.867 118.079C187.867 118.079 189.284 140.143 189.934 149.44C190.614 159.089 200.405 181.01 200.405 181.01L207.844 179.375C207.844 179.375 205.726 159.119 204.025 148.328Z" fill="#263238"/>
<path opacity="0.2" d="M204.219 147.369C205.55 141.539 207.53 135.573 208.048 129.743C201.01 122.065 201.899 137.721 204.219 147.369Z" fill="black"/>
<path d="M209.338 186.484L207.627 186.865L207.119 186.357L206.495 187.104L203.341 188.47C202.186 188.972 200.94 189.231 199.68 189.231H197.09C197.051 188.54 197.195 187.85 197.507 187.231C197.507 187.231 200.005 186.794 201.295 184.717C201.382 184.607 201.494 184.52 201.622 184.463C201.751 184.406 201.891 184.382 202.031 184.392C203.224 184.362 206.363 184.184 207.927 183.158C207.964 183.136 208.005 183.124 208.048 183.121C208.091 183.118 208.134 183.125 208.173 183.142C208.213 183.159 208.248 183.185 208.276 183.217C208.303 183.25 208.323 183.289 208.333 183.331C208.583 184.407 208.92 185.462 209.338 186.484Z" fill="#263238"/>
<path d="M215.197 178.898L221.854 178.964L222.144 186.815L216.584 186.769L215.197 178.898Z" fill="#B55B52"/>
<path opacity="0.2" d="M215.197 178.903L221.86 178.964L222.022 183.361L215.974 183.311L215.197 178.903Z" fill="black"/>
<path d="M222.439 148.328C222.978 138.254 223.709 123.177 220.332 118.546L199.599 118.079C199.599 118.079 205.362 140.143 207.515 149.44C209.75 159.089 215.234 181.939 215.234 181.939H222.429C222.429 181.939 225.146 159.83 222.439 148.328Z" fill="#263238"/>
<path d="M196.16 88.1748L195.85 88.449L195.616 88.6471L195.165 89.0076C194.87 89.231 194.575 89.4392 194.276 89.6423C193.691 90.0423 193.084 90.4085 192.458 90.7392C191.214 91.4059 189.908 91.9485 188.558 92.3591C187.883 92.5673 187.187 92.7348 186.491 92.8669C185.796 92.9989 185.085 93.1004 184.374 93.1715C182.949 93.3054 181.514 93.2866 180.093 93.1157L179.555 93.0497C179.058 92.9899 178.582 92.8161 178.163 92.5419C176.997 91.7694 175.954 90.8243 175.071 89.7388C174.304 88.8003 173.624 87.7941 173.04 86.7327C172.491 85.7346 172.013 84.6996 171.608 83.6351C171.41 83.1273 171.237 82.5789 171.07 82.0457C170.902 81.5125 170.785 80.9895 170.648 80.37C170.531 79.8537 170.585 79.3135 170.802 78.8304C171.018 78.3474 171.385 77.9474 171.848 77.6906C172.311 77.4337 172.844 77.3338 173.368 77.4058C173.893 77.4778 174.38 77.7179 174.756 78.09L175.01 78.3438C175.305 78.6384 175.65 79.0294 175.97 79.3594C176.29 79.6895 176.625 80.0602 176.945 80.4055C177.6 81.091 178.24 81.7562 178.895 82.3554C179.496 82.9535 180.14 83.5083 180.819 84.0159C181.331 84.4041 181.893 84.7217 182.49 84.9604L180.565 84.3968C181.403 84.3398 182.235 84.2175 183.054 84.0312C183.873 83.8368 184.677 83.5839 185.461 83.2746C186.251 82.9513 187.021 82.5799 187.766 82.1625C188.142 81.9543 188.502 81.7258 188.853 81.5074C189.03 81.3957 189.198 81.2789 189.36 81.1723L189.589 81.0149L189.68 80.9489H189.716H189.685C190.646 80.091 191.909 79.6499 193.195 79.7228C194.481 79.7956 195.685 80.3764 196.543 81.3373C197.401 82.2982 197.842 83.5606 197.769 84.8467C197.696 86.1328 197.116 87.3372 196.155 88.1951L196.16 88.1748Z" fill="#B65B52"/>
<path d="M171.984 81.4261L173.918 79.3949C175.061 76.6832 171.318 75.8149 171.318 75.8149L168.988 74.1138C168.687 73.932 168.331 73.8624 167.983 73.9172C167.636 73.972 167.319 74.1477 167.088 74.4134L165.728 75.8251C165.578 75.958 165.455 76.1191 165.368 76.2993C165.28 76.4796 165.229 76.6753 165.217 76.8753C165.206 77.0752 165.233 77.2756 165.299 77.4649C165.365 77.6541 165.467 77.8285 165.601 77.9781L167.545 79.7503C167.906 80.1058 168.349 80.3658 168.835 80.5069L171.984 81.4261Z" fill="#B55B52"/>
<path d="M198.329 77.0742C193.83 76.8102 187.239 81.9846 187.239 81.9846C186.614 83.7061 188.153 90.1094 190.905 92.9023C190.905 92.9023 194.064 93.6538 196.826 90.3227C199.832 86.6919 203.097 77.3484 198.329 77.0742Z" fill="#407BFF"/>
<path d="M199.222 76.9068C205.38 76.3234 211.584 76.4222 217.721 77.2014C218.561 77.3255 219.367 77.6198 220.089 78.0664C220.811 78.513 221.435 79.1024 221.921 79.7984C222.408 80.4945 222.747 81.2826 222.918 82.1143C223.089 82.9461 223.088 83.804 222.916 84.6355C220.042 99.1179 222.19 115.286 220.331 118.526C220.331 118.526 199.811 118.881 187.832 118.059C184.557 102.317 191.001 92.7146 194.235 80.436C194.809 78.3591 197.064 77.1557 199.222 76.9068Z" fill="#407BFF"/>
<path d="M224.399 82.8885L224.856 83.4623L225.262 83.9701C225.521 84.3154 225.77 84.6708 226.014 85.0212C226.522 85.722 226.969 86.4481 227.415 87.1793C228.32 88.6712 229.118 90.2256 229.802 91.8308C230.542 93.5267 231.103 95.2948 231.478 97.1068C231.922 99.1437 231.996 101.244 231.696 103.307L231.635 103.723C231.581 104.065 231.466 104.393 231.295 104.693C230.688 105.754 230.01 106.772 229.264 107.74C228.55 108.666 227.786 109.551 226.974 110.391C226.166 111.213 225.339 111.995 224.465 112.732C223.584 113.479 222.656 114.169 221.687 114.798C221.234 115.097 220.696 115.237 220.155 115.198C219.614 115.159 219.101 114.942 218.696 114.581C218.291 114.221 218.016 113.736 217.914 113.204C217.812 112.671 217.889 112.119 218.133 111.635L218.245 111.437C218.681 110.563 219.209 109.634 219.682 108.74C220.154 107.847 220.641 106.953 221.088 106.064C221.535 105.176 221.957 104.297 222.368 103.444C222.779 102.591 223.094 101.728 223.409 100.905L223.008 102.286C222.983 101.267 222.812 100.256 222.5 99.2852C222.321 98.7061 222.113 98.1366 221.875 97.579C221.642 97.0002 221.368 96.4111 221.078 95.8221C220.484 94.649 219.819 93.4608 219.088 92.2979C218.732 91.7089 218.341 91.1351 217.965 90.5613L217.386 89.7133L216.853 88.9566L216.675 88.7027C215.925 87.6731 215.61 86.3896 215.798 85.1296C215.987 83.8696 216.663 82.7343 217.682 81.9691C218.701 81.204 219.98 80.8704 221.242 81.0405C222.505 81.2107 223.65 81.8708 224.43 82.8783L224.399 82.8885Z" fill="#B65B52"/>
<path d="M219.316 77.6685C223.561 79.1918 227.563 86.3721 227.563 86.3721C227.385 88.9873 223.221 94.9082 220.276 96.2031C218.22 94.4417 216.697 92.1413 215.878 89.5611C214.528 85.0315 217.133 78.3184 219.316 77.6685Z" fill="#407BFF"/>
<path d="M202.137 77.9935C202.543 77.2141 203.2 76.5936 204.001 76.2315C204.303 75.4508 204.326 74.5899 204.067 73.7941L213.166 70.8945C212.43 73.9058 211.851 76.2873 212.973 77.7498C211.181 78.8466 207.895 80.7966 204.341 80.7052C200.786 80.6138 201.553 79.258 202.137 77.9935Z" fill="#B55B52"/>
<path opacity="0.2" d="M204.138 74.0784L210.978 73.6772C208.84 75.9623 205.6 76.8205 204.117 75.8912C204.281 75.2989 204.288 74.6743 204.138 74.0784Z" fill="black"/>
<path d="M204.117 80.695L205.6 79.4458L207.585 80.4614C207.585 80.4614 206.316 81.6547 204.117 80.695Z" fill="#407BFF"/>
<path opacity="0.3" d="M204.117 80.695L205.6 79.4458L207.585 80.4614C207.585 80.4614 206.316 81.6547 204.117 80.695Z" fill="black"/>
<path d="M209.16 61.4749C209.048 58.6769 206.347 57.4125 204.006 58.8699C201.665 60.3272 201.467 64.8314 203.188 67.1825C204.91 69.5336 209.16 61.4749 209.16 61.4749Z" fill="#F5F5F5"/>
<path d="M214.958 66.2836C213.872 70.2037 213.039 72.8443 210.21 74.1087C204.579 76.6122 202.086 73.9564 201.867 69.8127C201.69 66.0855 203.497 60.3017 208.017 59.4588C212.536 58.6158 216.045 62.3583 214.958 66.2836Z" fill="#B55B52"/>
<path d="M211.84 64.2423C210.627 65.395 210.144 70.4933 211.977 70.4069C213.226 70.3356 214.468 70.1761 215.695 69.9296C215.695 69.9296 218.025 69.0461 216.751 65.5524C215.476 62.0588 211.84 64.2423 211.84 64.2423Z" fill="#E0E0E0"/>
<path opacity="0.2" d="M208.596 65.8063C209.111 65.6734 209.658 65.7481 210.119 66.0145C209.603 66.0436 209.085 65.9729 208.596 65.8063Z" fill="black"/>
<path opacity="0.2" d="M208.545 66.1719C208.784 66.1589 209.023 66.1976 209.245 66.2852C209.468 66.3728 209.669 66.5074 209.835 66.6797C209.373 66.6051 208.933 66.4319 208.545 66.1719Z" fill="black"/>
<path opacity="0.2" d="M205.143 61.6728C206.429 61.6667 207.712 61.7961 208.971 62.0587C206.834 61.9064 205.143 61.6728 205.143 61.6728Z" fill="black"/>
<path opacity="0.2" d="M204.533 62.0081C204.533 62.0081 207.458 62.328 208.814 62.9576C207.368 62.7334 205.938 62.4162 204.533 62.0081Z" fill="black"/>
<path d="M215.766 70.874C215.396 71.2717 214.951 71.5925 214.457 71.8181C213.963 72.0438 213.429 72.1699 212.887 72.1892C211.429 72.2248 211.043 70.8334 211.734 69.6502C212.358 68.5788 213.867 67.2687 215.187 67.8019C215.472 67.9218 215.724 68.1107 215.918 68.3516C216.113 68.5925 216.245 68.8779 216.302 69.1823C216.36 69.4867 216.341 69.8005 216.247 70.0957C216.153 70.3909 215.988 70.6583 215.766 70.874Z" fill="#B55B52"/>
<path d="M207.306 65.7508C207.369 65.4002 207.234 65.0827 207.005 65.0416C206.776 65.0004 206.539 65.2513 206.476 65.6018C206.413 65.9524 206.548 66.2699 206.777 66.3111C207.006 66.3522 207.243 66.1014 207.306 65.7508Z" fill="#263238"/>
<path d="M203.68 65.1816C203.619 65.5269 203.381 65.7757 203.172 65.73C202.964 65.6843 202.812 65.3695 202.878 65.0191C202.944 64.6687 203.177 64.4199 203.386 64.4656C203.594 64.5113 203.746 64.8312 203.68 65.1816Z" fill="#263238"/>
<path d="M204.833 65.6794L204.325 68.6247C203.973 68.63 203.621 68.5803 203.284 68.4774C203.217 68.4528 203.159 68.4104 203.114 68.3549C203.07 68.2994 203.041 68.2327 203.032 68.1622C203.022 68.0917 203.032 68.0199 203.061 67.9547C203.089 67.8894 203.135 67.8331 203.193 67.7919C203.871 67.2001 204.428 66.4828 204.833 65.6794Z" fill="#A02724"/>
<path d="M209.358 65.1105C209.391 65.1221 209.426 65.1221 209.459 65.1105C209.484 65.0987 209.506 65.0819 209.524 65.0613C209.542 65.0406 209.556 65.0165 209.565 64.9904C209.573 64.9643 209.576 64.9368 209.574 64.9094C209.572 64.882 209.564 64.8554 209.551 64.8312C209.409 64.5282 209.197 64.2635 208.932 64.0594C208.667 63.8553 208.357 63.7177 208.027 63.6582C208 63.6547 207.972 63.6566 207.946 63.6639C207.919 63.6712 207.894 63.6837 207.872 63.7007C207.851 63.7177 207.832 63.7389 207.819 63.763C207.805 63.7871 207.797 63.8136 207.794 63.841C207.789 63.8958 207.805 63.9503 207.839 63.9936C207.873 64.0369 207.922 64.0658 207.977 64.0746C208.234 64.1269 208.476 64.2392 208.683 64.4024C208.889 64.5656 209.054 64.7751 209.165 65.014C209.184 65.0471 209.213 65.0737 209.247 65.0909C209.281 65.108 209.32 65.1148 209.358 65.1105Z" fill="#263238"/>
<path d="M202.467 63.9681C202.501 63.9734 202.536 63.9707 202.568 63.9601C202.601 63.9495 202.631 63.9314 202.655 63.9072C202.828 63.7109 203.046 63.5587 203.289 63.4633C203.533 63.3679 203.796 63.3321 204.057 63.3588C204.11 63.3676 204.165 63.3551 204.21 63.3237C204.255 63.2924 204.285 63.2448 204.295 63.1912C204.304 63.1368 204.292 63.081 204.261 63.0355C204.229 62.9901 204.182 62.9585 204.128 62.9474C203.799 62.9089 203.467 62.9497 203.157 63.0663C202.848 63.1829 202.571 63.372 202.35 63.6177C202.33 63.6367 202.314 63.6596 202.304 63.6849C202.293 63.7102 202.287 63.7374 202.287 63.765C202.287 63.7925 202.293 63.8198 202.304 63.8451C202.314 63.8704 202.33 63.8933 202.35 63.9123C202.381 63.9445 202.423 63.9644 202.467 63.9681Z" fill="#263238"/>
<path d="M212.363 75.7185C212.363 75.7185 209.423 79.2731 205.6 79.4661C207.824 80.5223 208.2 83.0206 208.2 83.0206C208.2 83.0206 212.978 81.5683 213.877 76.4853C213.703 76.2469 213.475 76.053 213.212 75.9197C212.949 75.7864 212.658 75.7175 212.363 75.7185Z" fill="white"/>
<path d="M204.117 80.6948L202.441 79.1714L200.309 79.8061C200.309 79.8061 201.918 81.6545 204.117 80.6948Z" fill="#407BFF"/>
<path opacity="0.3" d="M204.117 80.6948L202.441 79.1714L200.309 79.8061C200.309 79.8061 201.918 81.6545 204.117 80.6948Z" fill="black"/>
<path d="M204.026 76.2314C204.026 76.2314 202.538 77.9529 202.467 79.197C200.679 79.7048 199.816 82.325 199.816 82.325C199.816 82.325 199.491 78.5724 202.299 76.5513C202.83 76.2747 203.431 76.1632 204.026 76.2314Z" fill="white"/>
<path d="M223.088 189.247H221.64L221.249 188.658L220.488 189.252H211.754C211.701 188.564 211.831 187.874 212.129 187.251C212.129 187.251 214.739 187.012 215.745 185.728C215.78 185.677 215.829 185.638 215.885 185.615C215.942 185.591 216.004 185.585 216.065 185.596C216.938 185.779 220.391 186.434 222.29 185.748C222.337 185.729 222.388 185.722 222.439 185.727C222.49 185.732 222.538 185.75 222.58 185.778C222.623 185.805 222.658 185.843 222.682 185.888C222.707 185.932 222.721 185.982 222.722 186.032C222.76 187.112 222.883 188.186 223.088 189.247Z" fill="#263238"/>
<path d="M204.199 82.0202C204.611 81.3804 204.824 80.6999 204.362 80.3953C204.032 80.182 203.041 79.8875 202.838 80.5527C202.635 81.2179 202.661 81.7866 202.94 82.0761C203.024 82.1601 203.124 82.2257 203.235 82.2687C203.345 82.3118 203.463 82.3313 203.582 82.3261C203.7 82.3208 203.817 82.2909 203.923 82.2382C204.029 82.1856 204.123 82.1113 204.199 82.0202Z" fill="#263238"/>
<path d="M204.407 80.5375C205.27 79.3391 207.809 78.9126 207.809 79.8977C207.809 81.7918 207.748 83.7062 206.935 84.153C206.123 84.5999 204.843 81.6699 204.219 81.6141L204.407 80.5375Z" fill="#263238"/>
<path d="M203.009 80.4614C202.501 79.197 200.892 78.7501 200.628 79.6895C200.12 81.4922 200.049 82.9851 200.628 83.5031C201.207 84.021 202.476 81.543 202.989 81.5633L203.009 80.4614Z" fill="#263238"/>
<path d="M174.64 78.7703C175.28 76.4497 173.66 75.0126 172.761 73.5095C172.604 73.2556 171.827 73.3927 171.786 73.931C171.735 74.259 171.75 74.5941 171.831 74.916C171.912 75.238 172.058 75.5403 172.258 75.8048C171.786 76.3938 171.085 78.4555 172.731 79.7961C173.471 79.6997 174.151 79.3347 174.64 78.7703Z" fill="#B55B52"/>
<path d="M218.61 77.2925C218.385 77.1527 218.134 77.0594 217.872 77.0184C217.611 76.9774 217.344 76.9895 217.087 77.0539C215.502 78.8769 208.622 92.1456 211.45 116.738H213.06C210.216 92.1406 217.026 79.1155 218.61 77.2925Z" fill="white"/>
<path d="M213.212 118.749L213.069 116.936C213.058 116.841 213.01 116.753 212.935 116.693C212.86 116.632 212.764 116.603 212.668 116.611L211.891 116.652C211.797 116.656 211.707 116.697 211.643 116.766C211.578 116.836 211.543 116.928 211.546 117.023L211.688 118.841C211.701 118.936 211.75 119.022 211.824 119.083C211.899 119.143 211.994 119.173 212.089 119.166L212.866 119.12C212.913 119.119 212.96 119.108 213.003 119.088C213.046 119.069 213.084 119.041 213.117 119.007C213.149 118.972 213.174 118.932 213.19 118.888C213.206 118.843 213.214 118.796 213.212 118.749Z" fill="white"/>
<path d="M213.246 117.586H211.509C211.417 117.584 211.327 117.55 211.256 117.49C211.185 117.43 211.137 117.347 211.118 117.256L211.007 116.556C210.998 116.515 210.999 116.473 211.009 116.432C211.02 116.392 211.039 116.354 211.066 116.322C211.093 116.291 211.127 116.265 211.165 116.249C211.203 116.232 211.244 116.224 211.286 116.226H213.023C213.115 116.229 213.203 116.263 213.274 116.323C213.344 116.383 213.391 116.465 213.409 116.556L213.525 117.256C213.534 117.297 213.533 117.339 213.523 117.38C213.513 117.42 213.493 117.458 213.466 117.49C213.439 117.521 213.406 117.547 213.367 117.563C213.329 117.58 213.288 117.588 213.246 117.586Z" fill="#263238"/>
<path d="M199.644 76.9067C199.344 76.6681 198.4 76.8052 197.928 77.0743C196.267 78.8973 188.787 92.166 190.534 116.759H192.144C190.402 92.1407 197.983 78.7094 199.644 76.9067Z" fill="white"/>
<path d="M192.219 118.749L192.158 116.936C192.155 116.889 192.143 116.844 192.121 116.802C192.1 116.76 192.07 116.722 192.034 116.692C191.998 116.662 191.957 116.639 191.912 116.625C191.867 116.611 191.819 116.607 191.772 116.612L190.99 116.652C190.895 116.657 190.804 116.698 190.738 116.767C190.671 116.836 190.632 116.927 190.63 117.023L190.691 118.841C190.7 118.935 190.745 119.021 190.817 119.082C190.89 119.143 190.983 119.173 191.077 119.166L191.859 119.12C191.955 119.116 192.046 119.076 192.113 119.007C192.18 118.938 192.218 118.846 192.219 118.749Z" fill="white"/>
<path d="M192.306 117.586H190.569C190.478 117.584 190.39 117.55 190.322 117.489C190.253 117.429 190.208 117.347 190.194 117.256L190.112 116.556C190.106 116.514 190.11 116.471 190.122 116.431C190.134 116.391 190.155 116.354 190.183 116.322C190.211 116.291 190.245 116.266 190.284 116.249C190.323 116.232 190.365 116.224 190.407 116.225H192.143C192.235 116.228 192.322 116.262 192.391 116.323C192.46 116.383 192.505 116.465 192.519 116.556L192.6 117.256C192.606 117.298 192.603 117.34 192.591 117.381C192.579 117.421 192.558 117.458 192.53 117.49C192.502 117.521 192.467 117.546 192.429 117.563C192.39 117.579 192.348 117.588 192.306 117.586Z" fill="#263238"/>
<path d="M208.505 56.2444C206.534 54.6753 203.269 58.8697 207.58 61.2005C212.983 64.1255 212.333 68.848 219.321 67.4668C216.33 65.3696 218.229 63.77 216.964 60.7435C215.553 57.3464 211.699 58.7834 208.505 56.2444Z" fill="#F5F5F5"/>
<path d="M205.498 58.7581C206.138 61.1041 206.915 61.6525 207.636 62.2669C207.131 61.4595 206.769 60.5715 206.564 59.6416L205.498 58.7581Z" fill="#F5F5F5"/>
<path d="M202.614 69.7062C202.614 69.7062 204.138 69.5894 208.256 70.214C207.591 71.3819 206.54 72.2451 204.427 71.9252C204.158 71.9105 203.895 71.8397 203.654 71.7175C203.414 71.5953 203.202 71.4244 203.031 71.2156C202.861 71.0068 202.736 70.7647 202.664 70.5048C202.592 70.2449 202.575 69.9729 202.614 69.7062Z" fill="#263238"/>
<path d="M205.549 71.0822C204.744 70.9151 203.907 71.0057 203.157 71.3412C203.511 71.6558 203.952 71.8543 204.422 71.91C205.225 72.0792 206.06 71.9885 206.808 71.651C206.46 71.3325 206.018 71.1333 205.549 71.0822Z" fill="#A02724"/>
<path d="M202.807 69.7012C202.825 69.859 202.886 70.0087 202.984 70.134C203.082 70.2594 203.212 70.3556 203.36 70.4121C204.584 70.5912 205.82 70.6693 207.057 70.6457C207.252 70.6561 207.446 70.6184 207.624 70.5361C207.801 70.4538 207.955 70.3292 208.072 70.1734C206.332 69.8808 204.571 69.7229 202.807 69.7012Z" fill="white"/>
<path d="M202.527 72.7276C202.568 73.8295 203.675 74.7587 203.386 75.4494C204.754 75.5529 206.123 75.2452 207.316 74.5658C207.405 74.4999 207.472 74.4095 207.511 74.3058C207.549 74.202 207.556 74.0894 207.531 73.9816C207.506 73.8738 207.451 73.7756 207.371 73.699C207.291 73.6224 207.191 73.5707 207.082 73.5502C206.212 73.4641 205.377 73.1602 204.655 72.6666C204.563 72.5893 204.447 72.5469 204.327 72.5469C204.208 72.5469 204.092 72.5893 204 72.6666C203.127 73.3521 202.527 72.7276 202.527 72.7276Z" fill="#F5F5F5"/>
<path d="M221.423 118.526L195.647 100.565L195.932 100.154L221.956 117.749L221.423 118.526Z" fill="#263238"/>
<path d="M219.199 111.142L221.697 112.407C223.688 114.58 220.448 116.652 220.448 116.652L219.295 118.277C219.074 118.551 218.762 118.737 218.416 118.802C218.07 118.867 217.712 118.807 217.406 118.632L215.649 117.759C215.463 117.684 215.294 117.572 215.151 117.431C215.008 117.291 214.894 117.123 214.817 116.938C214.739 116.753 214.698 116.554 214.697 116.354C214.696 116.153 214.735 115.954 214.811 115.768L215.573 114.209C215.793 113.753 216.122 113.359 216.533 113.062L219.199 111.142Z" fill="#B55B52"/>
</svg>
