<svg width="28" height="33" viewBox="0 0 28 33" fill="none" xmlns="http://www.w3.org/2000/svg">
<path d="M14.1467 15.2786C12.2552 13.9681 9.42054 11.6766 1.29333 11.6766V28.0844C9.42054 28.0844 12.2552 30.3759 14.1467 31.6864M14.1467 15.2786V31.6864M14.1467 15.2786C16.0381 13.9681 18.8728 11.6766 27 11.6766V28.0844C18.8728 28.0844 16.0381 30.3759 14.1467 31.6864M19.1686 1.12912V6.89222M23.6621 1.00115H6.77806C6.30634 1.00061 5.84387 1.12374 5.44291 1.35661L1 3.94906L5.44291 6.53677C5.84387 6.76964 6.30634 6.89276 6.77806 6.89222H23.6621C24.0822 6.90339 24.5005 6.8355 24.8921 6.69255C25.2837 6.54961 25.6407 6.33452 25.9421 6.06001C26.2434 5.7855 26.483 5.45713 26.6466 5.09435C26.8102 4.73156 26.8944 4.34172 26.8944 3.94787C26.8944 3.55403 26.8102 3.16418 26.6466 2.8014C26.483 2.43861 26.2434 2.11025 25.9421 1.83573C25.6407 1.56122 25.2837 1.34613 24.8921 1.20319C24.5005 1.06025 24.0822 0.989982 23.6621 1.00115Z" stroke="white" stroke-width="2" stroke-linecap="round" stroke-linejoin="round"/>
</svg>
