<svg width="63" height="62" viewBox="0 0 63 62" fill="none" xmlns="http://www.w3.org/2000/svg">
<circle cx="31.0664" cy="31" r="31" fill="#0079FC"/>
<path d="M25.5881 30.3077C23.9738 30.3077 22.4255 29.6796 21.284 28.5616C20.1425 27.4436 19.5012 25.9273 19.5012 24.3462V19.5769C19.5012 19.2607 19.6294 18.9574 19.8578 18.7338C20.0861 18.5102 20.3957 18.3846 20.7186 18.3846H21.936C22.2588 18.3846 22.5685 18.259 22.7968 18.0354C23.0251 17.8118 23.1534 17.5085 23.1534 17.1923C23.1534 16.8761 23.0251 16.5728 22.7968 16.3492C22.5685 16.1256 22.2588 16 21.936 16H20.7186C19.75 16 18.821 16.3769 18.1361 17.0477C17.4512 17.7185 17.0664 18.6283 17.0664 19.5769V24.3462C17.068 25.6931 17.4033 27.0196 18.0437 28.2117C18.6841 29.4038 19.6104 30.4258 20.7429 31.19C21.8311 32.1296 22.7135 33.2753 23.337 34.5582C23.9606 35.841 24.3122 37.2342 24.3708 38.6538C24.3708 40.8674 25.2686 42.9903 26.8667 44.5555C28.4648 46.1207 30.6324 47 32.8925 47C35.1526 47 37.3201 46.1207 38.9183 44.5555C40.5164 42.9903 41.4142 40.8674 41.4142 38.6538V37.2946C42.5618 37.0044 43.5619 36.3143 44.2271 35.3535C44.8923 34.3928 45.1769 33.2274 45.0276 32.0759C44.8782 30.9243 44.3052 29.8657 43.4159 29.0983C42.5266 28.331 41.3821 27.9076 40.1968 27.9076C39.0116 27.9076 37.8671 28.331 36.9778 29.0983C36.0885 29.8657 35.5154 30.9243 35.3661 32.0759C35.2167 33.2274 35.5013 34.3928 36.1665 35.3535C36.8317 36.3143 37.8319 37.0044 38.9794 37.2946V38.6538C38.9794 40.2349 38.3381 41.7513 37.1966 42.8693C36.0551 43.9873 34.5068 44.6154 32.8925 44.6154C31.2781 44.6154 29.7299 43.9873 28.5884 42.8693C27.4468 41.7513 26.8055 40.2349 26.8055 38.6538C26.8672 37.2325 27.2226 35.8382 27.8504 34.5552C28.4781 33.2723 29.3651 32.1275 30.4577 31.19C31.5858 30.4231 32.5073 29.4 33.1433 28.2081C33.7794 27.0162 34.111 25.691 34.1099 24.3462V19.5769C34.1099 18.6283 33.7251 17.7185 33.0402 17.0477C32.3553 16.3769 31.4263 16 30.4577 16H29.2403C28.9174 16 28.6078 16.1256 28.3795 16.3492C28.1512 16.5728 28.0229 16.8761 28.0229 17.1923C28.0229 17.5085 28.1512 17.8118 28.3795 18.0354C28.6078 18.259 28.9174 18.3846 29.2403 18.3846H30.4577C30.7806 18.3846 31.0902 18.5102 31.3185 18.7338C31.5468 18.9574 31.6751 19.2607 31.6751 19.5769V24.3462C31.6751 25.129 31.5177 25.9042 31.2118 26.6275C30.9059 27.3508 30.4575 28.008 29.8923 28.5616C29.327 29.1152 28.656 29.5543 27.9175 29.8539C27.179 30.1535 26.3875 30.3077 25.5881 30.3077ZM40.1968 35.0769C39.5511 35.0769 38.9318 34.8257 38.4752 34.3785C38.0186 33.9313 37.762 33.3247 37.762 32.6923C37.762 32.0599 38.0186 31.4533 38.4752 31.0061C38.9318 30.5589 39.5511 30.3077 40.1968 30.3077C40.8426 30.3077 41.4619 30.5589 41.9185 31.0061C42.3751 31.4533 42.6316 32.0599 42.6316 32.6923C42.6316 33.3247 42.3751 33.9313 41.9185 34.3785C41.4619 34.8257 40.8426 35.0769 40.1968 35.0769Z" fill="white"/>
</svg>
