<svg width="677" height="533" viewBox="0 0 677 533" fill="none" xmlns="http://www.w3.org/2000/svg">
<mask id="mask0_0_1105" style="mask-type:luminance" maskUnits="userSpaceOnUse" x="0" y="0" width="677" height="533">
<rect width="677" height="533" fill="white"/>
</mask>
<g mask="url(#mask0_0_1105)">
<path opacity="0.492792" fill-rule="evenodd" clip-rule="evenodd" d="M337 706C520.359 706 669 557.359 669 374C669 190.641 520.359 42 337 42C153.641 42 5 190.641 5 374C5 557.359 153.641 706 337 706Z" fill="#FFE01B" fill-opacity="0.32"/>
<g filter="url(#filter0_d_0_1105)">
<path fill-rule="evenodd" clip-rule="evenodd" d="M519.285 219.494C520.232 219.494 521 220.262 521 221.209V306.955C521 307.903 520.232 308.67 519.285 308.67C518.337 308.67 517.569 307.903 517.569 306.955V221.209C517.569 220.262 518.337 219.494 519.285 219.494Z" fill="white"/>
<path fill-rule="evenodd" clip-rule="evenodd" d="M136.716 270.942C137.663 270.942 138.431 271.71 138.431 272.657V325.82C138.431 326.767 137.663 327.535 136.716 327.535C135.768 327.535 135 326.767 135 325.82V272.657C135 271.71 135.768 270.942 136.716 270.942Z" fill="white"/>
<path fill-rule="evenodd" clip-rule="evenodd" d="M136.716 200.63C137.663 200.63 138.431 201.398 138.431 202.345V255.508C138.431 256.455 137.663 257.223 136.716 257.223C135.768 257.223 135 256.455 135 255.508V202.345C135 201.398 135.768 200.63 136.716 200.63Z" fill="white"/>
<path fill-rule="evenodd" clip-rule="evenodd" d="M136.716 145.753C137.663 145.753 138.431 146.521 138.431 147.468V174.049C138.431 174.996 137.663 175.764 136.716 175.764C135.768 175.764 135 174.996 135 174.049V147.468C135 146.521 135.768 145.753 136.716 145.753Z" fill="white"/>
<path fill-rule="evenodd" clip-rule="evenodd" d="M347.729 812C346.947 810.959 345.701 810.285 344.298 810.285H311.702C310.299 810.285 309.053 810.959 308.271 812H211.248C185.63 812 176.34 809.334 166.974 804.327C157.608 799.32 150.258 791.972 145.249 782.61C140.241 773.248 137.573 763.961 137.573 738.353V115.647C137.573 90.0386 140.241 80.7523 145.249 71.3901C150.258 62.0278 157.608 54.6803 166.974 49.6734C176.34 44.6664 185.63 42 211.248 42L444.752 42C470.37 42 479.66 44.6664 489.026 49.6734C498.391 54.6803 505.742 62.0278 510.75 71.3901C515.759 80.7523 518.427 90.0386 518.427 115.647V738.353C518.427 763.961 515.759 773.248 510.75 782.61C505.742 791.972 498.391 799.32 489.026 804.327C479.66 809.334 470.37 812 444.752 812H347.729Z" fill="white"/>
<path fill-rule="evenodd" clip-rule="evenodd" d="M347.729 812C346.947 810.959 345.701 810.285 344.298 810.285H311.702C310.299 810.285 309.053 810.959 308.271 812H211.248C185.63 812 176.34 809.334 166.974 804.327C157.608 799.32 150.258 791.972 145.249 782.61C140.241 773.248 137.573 763.961 137.573 738.353V115.647C137.573 90.0386 140.241 80.7523 145.249 71.3901C150.258 62.0278 157.608 54.6803 166.974 49.6734C176.34 44.6664 185.63 42 211.248 42L444.752 42C470.37 42 479.66 44.6664 489.026 49.6734C498.391 54.6803 505.742 62.0278 510.75 71.3901C515.759 80.7523 518.427 90.0386 518.427 115.647V738.353C518.427 763.961 515.759 773.248 510.75 782.61C505.742 791.972 498.391 799.32 489.026 804.327C479.66 809.334 470.37 812 444.752 812H347.729Z" fill="url(#paint0_linear_0_1105)" fill-opacity="0.06"/>
<rect x="511.564" y="115.742" width="6.86222" height="5.14477" fill="white"/>
<rect x="137.573" y="115.742" width="6.86222" height="5.14477" fill="white"/>
<path d="M209.555 48.5022H446.445C469.346 48.5022 477.573 50.8855 485.858 55.3148C494.158 59.7521 500.669 66.2606 505.107 74.5575C509.538 82.8395 511.923 91.0624 511.923 113.955V740.045C511.923 762.938 509.538 771.16 505.107 779.442C500.669 787.739 494.158 794.248 485.858 798.685C477.573 803.114 469.346 805.498 446.445 805.498H209.555C186.654 805.498 178.428 803.114 170.143 798.685C161.843 794.248 155.332 787.739 150.893 779.442C146.462 771.16 144.078 762.938 144.078 740.045V113.955C144.078 91.0624 146.462 82.8395 150.893 74.5575C155.332 66.2606 161.843 59.7521 170.143 55.3148C178.428 50.8855 186.654 48.5022 209.555 48.5022Z" fill="#002657"/>
<path d="M209.555 48.5022H446.445C469.346 48.5022 477.573 50.8855 485.858 55.3148C494.158 59.7521 500.669 66.2606 505.107 74.5575C509.538 82.8395 511.923 91.0624 511.923 113.955V740.045C511.923 762.938 509.538 771.16 505.107 779.442C500.669 787.739 494.158 794.248 485.858 798.685C477.573 803.114 469.346 805.498 446.445 805.498H209.555C186.654 805.498 178.428 803.114 170.143 798.685C161.843 794.248 155.332 787.739 150.893 779.442C146.462 771.16 144.078 762.938 144.078 740.045V113.955C144.078 91.0624 146.462 82.8395 150.893 74.5575C155.332 66.2606 161.843 59.7521 170.143 55.3148C178.428 50.8855 186.654 48.5022 209.555 48.5022Z" fill="url(#paint1_linear_0_1105)" fill-opacity="0.06"/>
<path d="M209.555 48.5022H446.445C469.346 48.5022 477.573 50.8855 485.858 55.3148C494.158 59.7521 500.669 66.2606 505.107 74.5575C509.538 82.8395 511.923 91.0624 511.923 113.955V740.045C511.923 762.938 509.538 771.16 505.107 779.442C500.669 787.739 494.158 794.248 485.858 798.685C477.573 803.114 469.346 805.498 446.445 805.498H209.555C186.654 805.498 178.428 803.114 170.143 798.685C161.843 794.248 155.332 787.739 150.893 779.442C146.462 771.16 144.078 762.938 144.078 740.045V113.955C144.078 91.0624 146.462 82.8395 150.893 74.5575C155.332 66.2606 161.843 59.7521 170.143 55.3148C178.428 50.8855 186.654 48.5022 209.555 48.5022Z" stroke="white"/>
<g filter="url(#filter1_i_0_1105)">
<path fill-rule="evenodd" clip-rule="evenodd" d="M307.842 70.2962H348.158C349.816 70.2962 351.16 71.6398 351.16 73.2973C351.16 74.9548 349.816 76.2984 348.158 76.2984H307.842C306.184 76.2984 304.84 74.9548 304.84 73.2973C304.84 71.6398 306.184 70.2962 307.842 70.2962Z" fill="white"/>
</g>
<g filter="url(#filter2_i_0_1105)">
<path fill-rule="evenodd" clip-rule="evenodd" d="M368.745 78.8708C371.824 78.8708 374.32 76.3755 374.32 73.2973C374.32 70.2192 371.824 67.7238 368.745 67.7238C365.665 67.7238 363.169 70.2192 363.169 73.2973C363.169 76.3755 365.665 78.8708 368.745 78.8708Z" fill="#898989"/>
</g>
<path fill-rule="evenodd" clip-rule="evenodd" d="M368.744 76.2984C370.402 76.2984 371.747 74.9548 371.747 73.2973C371.747 71.6398 370.402 70.2962 368.744 70.2962C367.086 70.2962 365.742 71.6398 365.742 73.2973C365.742 74.9548 367.086 76.2984 368.744 76.2984Z" fill="white"/>
</g>
</g>
<path d="M203.12 464.8C203.12 462.603 203.611 460.64 204.592 458.912C205.595 457.163 206.949 455.808 208.656 454.848C210.384 453.867 212.315 453.376 214.448 453.376C216.944 453.376 219.131 454.016 221.008 455.296C222.885 456.576 224.197 458.347 224.944 460.608H219.792C219.28 459.541 218.555 458.741 217.616 458.208C216.699 457.675 215.632 457.408 214.416 457.408C213.115 457.408 211.952 457.717 210.928 458.336C209.925 458.933 209.136 459.787 208.56 460.896C208.005 462.005 207.728 463.307 207.728 464.8C207.728 466.272 208.005 467.573 208.56 468.704C209.136 469.813 209.925 470.677 210.928 471.296C211.952 471.893 213.115 472.192 214.416 472.192C215.632 472.192 216.699 471.925 217.616 471.392C218.555 470.837 219.28 470.027 219.792 468.96H224.944C224.197 471.243 222.885 473.024 221.008 474.304C219.152 475.563 216.965 476.192 214.448 476.192C212.315 476.192 210.384 475.712 208.656 474.752C206.949 473.771 205.595 472.416 204.592 470.688C203.611 468.96 203.12 466.997 203.12 464.8ZM239.139 476.224C237.048 476.224 235.128 475.733 233.379 474.752C231.629 473.771 230.243 472.416 229.219 470.688C228.195 468.939 227.683 466.965 227.683 464.768C227.683 462.592 228.195 460.64 229.219 458.912C230.243 457.163 231.629 455.797 233.379 454.816C235.128 453.835 237.048 453.344 239.139 453.344C241.251 453.344 243.171 453.835 244.899 454.816C246.648 455.797 248.024 457.163 249.027 458.912C250.051 460.64 250.563 462.592 250.563 464.768C250.563 466.965 250.051 468.939 249.027 470.688C248.024 472.416 246.648 473.771 244.899 474.752C243.149 475.733 241.229 476.224 239.139 476.224ZM239.139 472.224C240.483 472.224 241.667 471.925 242.691 471.328C243.715 470.709 244.515 469.835 245.091 468.704C245.667 467.573 245.955 466.261 245.955 464.768C245.955 463.275 245.667 461.973 245.091 460.864C244.515 459.733 243.715 458.869 242.691 458.272C241.667 457.675 240.483 457.376 239.139 457.376C237.795 457.376 236.6 457.675 235.555 458.272C234.531 458.869 233.731 459.733 233.155 460.864C232.579 461.973 232.291 463.275 232.291 464.768C232.291 466.261 232.579 467.573 233.155 468.704C233.731 469.835 234.531 470.709 235.555 471.328C236.6 471.925 237.795 472.224 239.139 472.224ZM278.248 453.664V476H273.768V461.472L267.784 476H264.392L258.376 461.472V476H253.896V453.664H258.984L266.088 470.272L273.192 453.664H278.248ZM287.157 453.664V476H282.677V453.664H287.157ZM310.687 476H306.207L296.063 460.672V476H291.583V453.632H296.063L306.207 468.992V453.632H310.687V476ZM330.666 460.384C330.154 459.445 329.45 458.731 328.554 458.24C327.658 457.749 326.613 457.504 325.418 457.504C324.096 457.504 322.922 457.803 321.898 458.4C320.874 458.997 320.074 459.851 319.498 460.96C318.922 462.069 318.634 463.349 318.634 464.8C318.634 466.293 318.922 467.595 319.498 468.704C320.096 469.813 320.917 470.667 321.962 471.264C323.008 471.861 324.224 472.16 325.61 472.16C327.317 472.16 328.714 471.712 329.802 470.816C330.89 469.899 331.605 468.629 331.946 467.008H324.266V463.584H336.362V467.488C336.064 469.045 335.424 470.485 334.442 471.808C333.461 473.131 332.192 474.197 330.634 475.008C329.098 475.797 327.37 476.192 325.45 476.192C323.296 476.192 321.344 475.712 319.594 474.752C317.866 473.771 316.501 472.416 315.498 470.688C314.517 468.96 314.026 466.997 314.026 464.8C314.026 462.603 314.517 460.64 315.498 458.912C316.501 457.163 317.866 455.808 319.594 454.848C321.344 453.867 323.285 453.376 325.418 453.376C327.936 453.376 330.122 453.995 331.978 455.232C333.834 456.448 335.114 458.165 335.818 460.384H330.666ZM355.014 476.224C353.456 476.224 352.048 475.957 350.79 475.424C349.552 474.891 348.571 474.123 347.846 473.12C347.12 472.117 346.747 470.933 346.726 469.568H351.526C351.59 470.485 351.91 471.211 352.486 471.744C353.083 472.277 353.894 472.544 354.918 472.544C355.963 472.544 356.784 472.299 357.382 471.808C357.979 471.296 358.278 470.635 358.278 469.824C358.278 469.163 358.075 468.619 357.67 468.192C357.264 467.765 356.752 467.435 356.134 467.2C355.536 466.944 354.704 466.667 353.638 466.368C352.187 465.941 351.003 465.525 350.086 465.12C349.19 464.693 348.411 464.064 347.75 463.232C347.11 462.379 346.79 461.248 346.79 459.84C346.79 458.517 347.12 457.365 347.782 456.384C348.443 455.403 349.371 454.656 350.566 454.144C351.76 453.611 353.126 453.344 354.662 453.344C356.966 453.344 358.832 453.909 360.262 455.04C361.712 456.149 362.512 457.707 362.662 459.712H357.734C357.691 458.944 357.36 458.315 356.742 457.824C356.144 457.312 355.344 457.056 354.342 457.056C353.467 457.056 352.763 457.28 352.23 457.728C351.718 458.176 351.462 458.827 351.462 459.68C351.462 460.277 351.654 460.779 352.038 461.184C352.443 461.568 352.934 461.888 353.51 462.144C354.107 462.379 354.939 462.656 356.006 462.976C357.456 463.403 358.64 463.829 359.558 464.256C360.475 464.683 361.264 465.323 361.926 466.176C362.587 467.029 362.918 468.149 362.918 469.536C362.918 470.731 362.608 471.84 361.99 472.864C361.371 473.888 360.464 474.709 359.27 475.328C358.075 475.925 356.656 476.224 355.014 476.224ZM377.17 476.224C375.079 476.224 373.159 475.733 371.41 474.752C369.66 473.771 368.274 472.416 367.25 470.688C366.226 468.939 365.714 466.965 365.714 464.768C365.714 462.592 366.226 460.64 367.25 458.912C368.274 457.163 369.66 455.797 371.41 454.816C373.159 453.835 375.079 453.344 377.17 453.344C379.282 453.344 381.202 453.835 382.93 454.816C384.679 455.797 386.055 457.163 387.058 458.912C388.082 460.64 388.594 462.592 388.594 464.768C388.594 466.965 388.082 468.939 387.058 470.688C386.055 472.416 384.679 473.771 382.93 474.752C381.18 475.733 379.26 476.224 377.17 476.224ZM377.17 472.224C378.514 472.224 379.698 471.925 380.722 471.328C381.746 470.709 382.546 469.835 383.122 468.704C383.698 467.573 383.986 466.261 383.986 464.768C383.986 463.275 383.698 461.973 383.122 460.864C382.546 459.733 381.746 458.869 380.722 458.272C379.698 457.675 378.514 457.376 377.17 457.376C375.826 457.376 374.631 457.675 373.586 458.272C372.562 458.869 371.762 459.733 371.186 460.864C370.61 461.973 370.322 463.275 370.322 464.768C370.322 466.261 370.61 467.573 371.186 468.704C371.762 469.835 372.562 470.709 373.586 471.328C374.631 471.925 375.826 472.224 377.17 472.224ZM402.295 476.224C400.204 476.224 398.284 475.733 396.535 474.752C394.785 473.771 393.399 472.416 392.375 470.688C391.351 468.939 390.839 466.965 390.839 464.768C390.839 462.592 391.351 460.64 392.375 458.912C393.399 457.163 394.785 455.797 396.535 454.816C398.284 453.835 400.204 453.344 402.295 453.344C404.407 453.344 406.327 453.835 408.055 454.816C409.804 455.797 411.18 457.163 412.183 458.912C413.207 460.64 413.719 462.592 413.719 464.768C413.719 466.965 413.207 468.939 412.183 470.688C411.18 472.416 409.804 473.771 408.055 474.752C406.305 475.733 404.385 476.224 402.295 476.224ZM402.295 472.224C403.639 472.224 404.823 471.925 405.847 471.328C406.871 470.709 407.671 469.835 408.247 468.704C408.823 467.573 409.111 466.261 409.111 464.768C409.111 463.275 408.823 461.973 408.247 460.864C407.671 459.733 406.871 458.869 405.847 458.272C404.823 457.675 403.639 457.376 402.295 457.376C400.951 457.376 399.756 457.675 398.711 458.272C397.687 458.869 396.887 459.733 396.311 460.864C395.735 461.973 395.447 463.275 395.447 464.768C395.447 466.261 395.735 467.573 396.311 468.704C396.887 469.835 397.687 470.709 398.711 471.328C399.756 471.925 400.951 472.224 402.295 472.224ZM436.156 476H431.676L421.532 460.672V476H417.052V453.632H421.532L431.676 468.992V453.632H436.156V476ZM446.375 453.28L445.863 468.736H442.087L441.543 453.28H446.375ZM444.071 476.224C443.26 476.224 442.588 475.979 442.055 475.488C441.543 474.976 441.287 474.347 441.287 473.6C441.287 472.853 441.543 472.235 442.055 471.744C442.588 471.232 443.26 470.976 444.071 470.976C444.86 470.976 445.511 471.232 446.023 471.744C446.535 472.235 446.791 472.853 446.791 473.6C446.791 474.347 446.535 474.976 446.023 475.488C445.511 475.979 444.86 476.224 444.071 476.224Z" fill="white"/>
<defs>
<filter id="filter0_d_0_1105" x="107" y="16" width="442" height="826" filterUnits="userSpaceOnUse" color-interpolation-filters="sRGB">
<feFlood flood-opacity="0" result="BackgroundImageFix"/>
<feColorMatrix in="SourceAlpha" type="matrix" values="0 0 0 0 0 0 0 0 0 0 0 0 0 0 0 0 0 0 127 0" result="hardAlpha"/>
<feOffset dy="2"/>
<feGaussianBlur stdDeviation="14"/>
<feColorMatrix type="matrix" values="0 0 0 0 0 0 0 0 0 0 0 0 0 0 0 0 0 0 0.171001 0"/>
<feBlend mode="normal" in2="BackgroundImageFix" result="effect1_dropShadow_0_1105"/>
<feBlend mode="normal" in="SourceGraphic" in2="effect1_dropShadow_0_1105" result="shape"/>
</filter>
<filter id="filter1_i_0_1105" x="304.84" y="70.2962" width="46.3203" height="7.0022" filterUnits="userSpaceOnUse" color-interpolation-filters="sRGB">
<feFlood flood-opacity="0" result="BackgroundImageFix"/>
<feBlend mode="normal" in="SourceGraphic" in2="BackgroundImageFix" result="shape"/>
<feColorMatrix in="SourceAlpha" type="matrix" values="0 0 0 0 0 0 0 0 0 0 0 0 0 0 0 0 0 0 127 0" result="hardAlpha"/>
<feOffset dy="1"/>
<feGaussianBlur stdDeviation="1.5"/>
<feComposite in2="hardAlpha" operator="arithmetic" k2="-1" k3="1"/>
<feColorMatrix type="matrix" values="0 0 0 0 0 0 0 0 0 0 0 0 0 0 0 0 0 0 0.0526778 0"/>
<feBlend mode="normal" in2="shape" result="effect1_innerShadow_0_1105"/>
</filter>
<filter id="filter2_i_0_1105" x="363.169" y="67.7238" width="11.1514" height="12.147" filterUnits="userSpaceOnUse" color-interpolation-filters="sRGB">
<feFlood flood-opacity="0" result="BackgroundImageFix"/>
<feBlend mode="normal" in="SourceGraphic" in2="BackgroundImageFix" result="shape"/>
<feColorMatrix in="SourceAlpha" type="matrix" values="0 0 0 0 0 0 0 0 0 0 0 0 0 0 0 0 0 0 127 0" result="hardAlpha"/>
<feOffset dy="1"/>
<feGaussianBlur stdDeviation="1.5"/>
<feComposite in2="hardAlpha" operator="arithmetic" k2="-1" k3="1"/>
<feColorMatrix type="matrix" values="0 0 0 0 0 0 0 0 0 0 0 0 0 0 0 0 0 0 0.0526778 0"/>
<feBlend mode="normal" in2="shape" result="effect1_innerShadow_0_1105"/>
</filter>
<linearGradient id="paint0_linear_0_1105" x1="518.427" y1="42" x2="137.573" y2="42" gradientUnits="userSpaceOnUse">
<stop stop-color="white" stop-opacity="0.5"/>
<stop offset="0.966885" stop-color="white" stop-opacity="0.5"/>
<stop offset="1" stop-opacity="0.5"/>
</linearGradient>
<linearGradient id="paint1_linear_0_1105" x1="512.423" y1="48.0022" x2="143.578" y2="48.0022" gradientUnits="userSpaceOnUse">
<stop stop-color="white" stop-opacity="0.5"/>
<stop offset="0.952126" stop-color="white" stop-opacity="0.5"/>
<stop offset="1" stop-opacity="0.5"/>
</linearGradient>
</defs>
</svg>
