<svg width="210" height="176" viewBox="0 0 210 176" fill="none" xmlns="http://www.w3.org/2000/svg">
<path d="M74.4992 62.3649C74.4326 61.9516 74.1915 61.2487 73.6017 61.1141C73.5885 61.1141 73.5885 61.104 73.5754 61.104C73.413 61.0343 73.2185 61.0253 73.0465 61.0795C72.8745 61.1337 72.7437 61.2452 72.691 61.3827C72.555 61.7386 72.6608 62.1235 72.9724 62.4062C73.0305 62.5116 73.1025 62.6123 73.1871 62.7065C73.3284 62.886 73.6172 62.9604 73.8699 62.8823C73.883 62.8823 73.883 62.8716 73.897 62.8716C74.0664 62.8717 74.2282 62.8169 74.3427 62.7206C74.4572 62.6242 74.514 62.4952 74.4992 62.3649Z" fill="black"/>
<path d="M65.1635 159.871C65.8913 162.444 67.3082 164.748 69.2491 166.517C69.7183 166.944 70.2083 167.345 70.7171 167.72C71.1186 168.018 71.9329 168.327 72.1055 168.803C72.2061 169.261 72.2599 169.728 72.2661 170.197C72.3119 170.614 72.3577 171.042 72.4148 171.459C72.3838 172.222 72.5629 172.978 72.9311 173.639C73.0397 173.753 73.1936 173.807 73.3468 173.786C73.4999 173.765 73.6347 173.671 73.7109 173.531C74.0441 172.805 73.7912 171.947 73.6996 171.173C73.5968 170.316 73.5277 169.458 73.3904 168.614C73.1953 167.34 71.7498 166.887 70.8664 166.172C68.713 164.413 66.9679 162.173 65.7601 159.62C65.6749 159.483 65.5079 159.428 65.3622 159.489C65.2164 159.55 65.133 159.71 65.1635 159.87V159.871Z" fill="black" stroke="black" stroke-width="0.326"/>
<path fill-rule="evenodd" clip-rule="evenodd" d="M78.1106 65.654C78.0292 65.7606 77.9123 65.8351 77.7806 65.8641C78.1592 67.0296 78.4277 68.2274 78.5826 69.4421C78.8178 71.4624 78.5471 73.5996 76.5783 74.6625C75.6639 75.1503 74.6348 75.3882 73.5969 75.3517C73.5672 75.3517 73.5377 75.3486 73.5083 75.3456C73.4788 75.3425 73.4493 75.3395 73.4196 75.3395C73.4663 75.7229 73.4641 76.106 73.4619 76.4892C73.4602 76.7834 73.4585 77.0776 73.4789 77.372C73.5997 78.1318 73.805 78.876 74.0913 79.5909C74.1466 79.8068 74.0517 80.033 73.8582 80.1464C73.6647 80.2599 73.4189 80.2334 73.2546 80.0815C72.2057 79.0071 72.2767 76.6125 72.7718 75.2814C72.0693 75.2474 71.4142 74.9207 70.968 74.3821C70.8875 74.2364 70.8899 74.0596 70.9744 73.9161C71.0588 73.7727 71.213 73.6836 71.3806 73.6814C71.8075 73.7046 72.2267 73.8034 72.6183 73.9733C73.0865 74.0997 73.572 74.151 74.0565 74.1253C75.0378 74.1122 75.9789 73.7373 76.6963 73.0739C77.9579 71.7428 77.3919 69.2786 77.0032 67.7137C76.3545 65.1013 75.3446 62.6075 74.335 60.1143C73.9319 59.1189 73.5289 58.1237 73.1489 57.121C72.8504 58.4993 72.3033 59.8129 71.534 60.9988C70.4131 62.706 68.9495 63.873 67.4214 65.0914C66.8901 65.5149 66.3511 65.9447 65.8159 66.4056C65.5897 66.6171 65.2516 66.6597 64.9792 66.511C64.4515 66.1037 63.2579 65.8218 62.7867 66.534C62.4697 67.0123 62.6941 68.5421 62.8591 69.0441C63.3419 70.5157 65.4518 71.707 66.6186 70.1658C66.7437 69.9617 66.9672 69.8371 67.2082 69.8371C67.4491 69.8371 67.6726 69.9617 67.7977 70.1658C69.576 73.1754 69.7497 76.6801 69.9204 80.1253L69.9204 80.1253L69.9204 80.1254C69.9783 81.2923 70.0358 82.4524 70.1552 83.5842C70.6973 88.6762 71.1446 91.5606 73.0779 96.3141C73.1549 96.6124 73.0255 96.9253 72.7595 97.0844C66.1945 101.604 58.2622 104.139 51.3078 100.226C49.8315 99.3866 48.4591 98.3794 47.2182 97.2249C46.5433 96.6385 45.9311 95.9848 45.3913 95.2742C45.0402 94.7658 45.3218 94.1077 45.574 93.518L45.574 93.518C45.652 93.3357 45.7272 93.1599 45.78 92.9972C46.8311 89.476 47.4291 85.8374 47.5598 82.1678C47.6972 79.6355 47.6768 77.2882 47.657 75.0034C47.619 70.6179 47.583 66.4626 48.668 61.6715C49.3513 58.6471 50.7186 53.6836 52.5925 51.1605C54.4904 48.6145 57.0375 47.6105 60.0775 46.6645C63.168 45.6091 66.578 46.0362 69.3061 47.8206L69.3624 47.8582C71.4044 49.2225 73.3253 50.5058 73.3016 52.9363C73.4348 53.0597 73.5079 53.234 73.5021 53.4146C73.5166 54.1833 73.4771 54.952 73.3841 55.7153C73.4385 55.7455 73.4836 55.7899 73.5144 55.8437C74.3817 57.3024 75.1343 58.8252 75.7655 60.3985C75.8 60.4068 75.8322 60.4227 75.8596 60.4451C76.8336 61.2623 77.7186 62.1784 78.5 63.1783C79.2321 64.0875 78.7269 64.7932 78.1362 65.6183L78.1106 65.654ZM52.7592 58.0044C53.1704 55.6389 54.0564 53.3792 55.3649 51.3591C55.5415 51.0786 55.1644 50.857 54.9407 51.032C54.4595 51.3797 54.0408 51.8052 53.7023 52.2907C53.3593 52.8137 53.0635 53.3657 52.8185 53.9402C52.319 55.1173 51.9591 56.3478 51.7458 57.6071C51.4932 59.006 51.3161 60.4173 51.2153 61.8349C50.9944 63.3635 51.0585 64.9192 51.4042 66.4248C51.4371 66.5262 51.5323 66.5949 51.6398 66.5949C51.7472 66.5949 51.8424 66.5262 51.8754 66.4248C52.1346 65.0459 52.2647 63.6463 52.2641 62.2437C52.3523 60.8228 52.5175 59.4077 52.7592 58.0044ZM70.756 55.4823C70.3673 56.3684 69.8896 57.2134 69.3301 58.0047C69.2409 58.1295 69.148 58.2691 69.0508 58.4152C68.675 58.98 68.2349 59.6416 67.6914 59.9203C67.5755 59.9818 67.4358 59.9803 67.3213 59.9164C67.2067 59.8524 67.1331 59.7348 67.1261 59.6047C67.2193 58.8482 67.5075 58.1283 67.9628 57.5141C68.1241 57.2234 68.2936 56.9366 68.4637 56.6488C68.7035 56.2431 68.9445 55.8354 69.1651 55.4121C69.5359 54.71 69.8056 53.96 69.9664 53.1838C70.0827 52.3833 70.134 51.5748 70.1198 50.7662C70.1256 50.5797 70.254 50.4189 70.4359 50.3705C70.6178 50.3221 70.8102 50.3975 70.9095 50.556C71.9228 52.0019 71.4046 53.987 70.756 55.4823ZM76.6147 62.5357C76.8977 63.3067 77.1807 64.0776 77.4514 64.8479C77.7112 64.4979 77.9588 64.1472 77.6874 63.7155C77.4516 63.3743 77.1916 63.0503 76.9093 62.7458C76.8644 62.6902 76.8196 62.6358 76.7751 62.5818C76.6796 62.4658 76.5856 62.3517 76.4967 62.2323C76.5413 62.3313 76.5807 62.4326 76.6147 62.5357Z" fill="black"/>
<path d="M77.7806 65.8641L77.763 65.7845L77.6753 65.8039L77.7031 65.8893L77.7806 65.8641ZM78.1106 65.654L78.1754 65.7035L78.1769 65.7014L78.1106 65.654ZM78.5826 69.4421L78.6635 69.4327L78.6634 69.4318L78.5826 69.4421ZM76.5783 74.6625L76.6167 74.7344L76.617 74.7342L76.5783 74.6625ZM73.5969 75.3517L73.5998 75.2702H73.5969V75.3517ZM73.4196 75.3395V75.258H73.3276L73.3387 75.3493L73.4196 75.3395ZM73.4619 76.4892L73.3804 76.4887L73.4619 76.4892ZM73.4789 77.372L73.3973 77.3776L73.3984 77.3848L73.4789 77.372ZM74.0913 79.5909L74.1709 79.5705L74.1669 79.5606L74.0913 79.5909ZM73.8582 80.1464L73.817 80.0761L73.8582 80.1464ZM73.2546 80.0815L73.1962 80.1385L73.1992 80.1413L73.2546 80.0815ZM72.7718 75.2814L72.8482 75.3098L72.887 75.2054L72.7757 75.2L72.7718 75.2814ZM70.968 74.3821L70.8967 74.4215L70.9004 74.4282L70.9053 74.434L70.968 74.3821ZM70.9744 73.9161L70.9042 73.8748H70.9041L70.9744 73.9161ZM71.3806 73.6814L71.385 73.5998L71.3795 73.5999L71.3806 73.6814ZM72.6183 73.9733L72.5856 74.0488L72.5971 74.0519L72.6183 73.9733ZM74.0565 74.1253L74.0555 74.0438L74.0522 74.0439L74.0565 74.1253ZM76.6963 73.0739L76.7517 73.1339L76.7554 73.13L76.6963 73.0739ZM77.0032 67.7137L76.9241 67.7334L76.9241 67.7334L77.0032 67.7137ZM74.335 60.1143L74.2595 60.1449L74.335 60.1143ZM73.1489 57.121L73.2251 57.0921L73.1275 56.8346L73.0692 57.1037L73.1489 57.121ZM71.534 60.9988L71.6022 61.0435L71.6024 61.0431L71.534 60.9988ZM67.4214 65.0914L67.3706 65.0276L67.4214 65.0914ZM65.8159 66.4056L65.7627 66.3438L65.7602 66.3461L65.8159 66.4056ZM64.9792 66.511L64.9287 66.5763L64.9401 66.5826L64.9792 66.511ZM62.7867 66.534L62.8547 66.579L62.8547 66.5789L62.7867 66.534ZM62.8591 69.0441L62.9366 69.0187L62.9365 69.0186L62.8591 69.0441ZM66.6186 70.1658L66.6839 70.2152L66.6881 70.2084L66.6186 70.1658ZM67.7977 70.1658L67.8679 70.1243L67.8672 70.1232L67.7977 70.1658ZM69.9204 80.1253L69.8389 80.1293L69.8393 80.1334L69.9204 80.1253ZM69.9204 80.1254L70.0019 80.1213L70.0015 80.1173L69.9204 80.1254ZM70.1552 83.5842L70.0741 83.5927L70.0741 83.5928L70.1552 83.5842ZM73.0779 96.3141L73.1576 96.2936L73.1534 96.2834L73.0779 96.3141ZM72.7595 97.0844L72.7176 97.0143L72.7133 97.0172L72.7595 97.0844ZM51.3078 100.226L51.2675 100.297L51.2678 100.297L51.3078 100.226ZM47.2182 97.2249L47.2738 97.1652L47.2717 97.1634L47.2182 97.2249ZM45.3913 95.2742L45.3242 95.3206L45.3264 95.3235L45.3913 95.2742ZM45.574 93.518L45.4999 93.4839L45.4991 93.486L45.574 93.518ZM45.574 93.518L45.648 93.5521L45.6489 93.55L45.574 93.518ZM45.78 92.9972L45.8575 93.0223L45.8581 93.0205L45.78 92.9972ZM47.5598 82.1678L47.4785 82.1633L47.4784 82.1648L47.5598 82.1678ZM47.657 75.0034L47.7385 75.0027L47.657 75.0034ZM48.668 61.6715L48.7475 61.6895L48.7475 61.6895L48.668 61.6715ZM52.5925 51.1605L52.5272 51.1118L52.5271 51.1119L52.5925 51.1605ZM60.0775 46.6645L60.1017 46.7424L60.1038 46.7416L60.0775 46.6645ZM69.3061 47.8206L69.3514 47.7528L69.3508 47.7524L69.3061 47.8206ZM69.3624 47.8582L69.3171 47.926L69.3171 47.926L69.3624 47.8582ZM73.3016 52.9363L73.2201 52.9355L73.2198 52.9715L73.2462 52.996L73.3016 52.9363ZM73.5021 53.4146L73.4205 53.412L73.4206 53.4161L73.5021 53.4146ZM73.3841 55.7153L73.3032 55.7055L73.2966 55.7599L73.3445 55.7866L73.3841 55.7153ZM73.5144 55.8437L73.4437 55.8842L73.4443 55.8853L73.5144 55.8437ZM75.7655 60.3985L75.6898 60.4288L75.7055 60.4679L75.7464 60.4777L75.7655 60.3985ZM75.8596 60.4451L75.912 60.3827L75.9111 60.382L75.8596 60.4451ZM78.5 63.1783L78.4358 63.2285L78.4366 63.2294L78.5 63.1783ZM78.1362 65.6183L78.0699 65.5709L78.0699 65.5709L78.1362 65.6183ZM55.3649 51.3591L55.4333 51.4034L55.4339 51.4025L55.3649 51.3591ZM52.7592 58.0044L52.6789 57.9905L52.6788 57.9906L52.7592 58.0044ZM54.9407 51.032L54.9885 51.0981L54.991 51.0962L54.9407 51.032ZM53.7023 52.2907L53.6354 52.244L53.6341 52.246L53.7023 52.2907ZM52.8185 53.9402L52.7435 53.9082L52.7435 53.9084L52.8185 53.9402ZM51.7458 57.6071L51.826 57.6216L51.8262 57.6207L51.7458 57.6071ZM51.2153 61.8349L51.2961 61.8466L51.2966 61.8407L51.2153 61.8349ZM51.4042 66.4248L51.3244 66.4432L51.3267 66.4501L51.4042 66.4248ZM51.8754 66.4248L51.9535 66.4503L51.9555 66.4399L51.8754 66.4248ZM52.2641 62.2437L52.1826 62.2386L52.1826 62.2437L52.2641 62.2437ZM69.3301 58.0047L69.3964 58.0521L69.3967 58.0517L69.3301 58.0047ZM70.756 55.4823L70.8307 55.5151L70.8308 55.5148L70.756 55.4823ZM69.0508 58.4152L69.1187 58.4603L69.0508 58.4152ZM67.6914 59.9203L67.6542 59.8477L67.6532 59.8483L67.6914 59.9203ZM67.3213 59.9164L67.361 59.8452L67.3213 59.9164ZM67.1261 59.6047L67.0452 59.5947L67.0443 59.6019L67.0447 59.609L67.1261 59.6047ZM67.9628 57.5141L68.0289 57.5631L68.0341 57.5536L67.9628 57.5141ZM68.4637 56.6488L68.3936 56.6073L68.4637 56.6488ZM69.1651 55.4121L69.093 55.374L69.0928 55.3744L69.1651 55.4121ZM69.9664 53.1838L70.0463 53.2003L70.047 53.1955L69.9664 53.1838ZM70.1198 50.7662L70.0383 50.7636L70.0383 50.7676L70.1198 50.7662ZM70.4359 50.3705L70.4569 50.4493L70.4359 50.3705ZM70.9095 50.556L70.8403 50.5994L70.8427 50.6028L70.9095 50.556ZM77.4514 64.8479L77.3745 64.8749L77.4254 65.0196L77.5168 64.8965L77.4514 64.8479ZM76.6147 62.5357L76.5372 62.5612L76.5382 62.5638L76.6147 62.5357ZM77.6874 63.7155L77.7564 63.672L77.7544 63.6691L77.6874 63.7155ZM76.9093 62.7458L76.8457 62.7971L76.8495 62.8012L76.9093 62.7458ZM76.7751 62.5818L76.838 62.53L76.7751 62.5818ZM76.4967 62.2323L76.5621 62.1837L76.4224 62.2658L76.4967 62.2323ZM77.7981 65.9437C77.9485 65.9105 78.0823 65.8254 78.1754 65.7034L78.0459 65.6045C77.9762 65.6957 77.876 65.7596 77.763 65.7845L77.7981 65.9437ZM78.6634 69.4318C78.5079 68.2121 78.2383 67.0093 77.8581 65.8389L77.7031 65.8893C78.0801 67.0499 78.3475 68.2428 78.5017 69.4524L78.6634 69.4318ZM76.617 74.7342C78.6331 73.6458 78.8995 71.4597 78.6635 69.4327L78.5016 69.4516C78.7361 71.4652 78.4611 73.5534 76.5396 74.5908L76.617 74.7342ZM73.5941 75.4331C74.6463 75.4702 75.6895 75.229 76.6167 74.7344L76.54 74.5906C75.6382 75.0717 74.6234 75.3063 73.5998 75.2702L73.5941 75.4331ZM73.4999 75.4267C73.5287 75.4296 73.5623 75.4332 73.5969 75.4332V75.2702C73.5721 75.2702 73.5468 75.2676 73.5166 75.2645L73.4999 75.4267ZM73.4196 75.421C73.4444 75.421 73.4697 75.4235 73.4999 75.4267L73.5166 75.2645C73.4878 75.2615 73.4542 75.258 73.4196 75.258V75.421ZM73.5434 76.4897C73.5456 76.1073 73.5479 75.719 73.5005 75.3296L73.3387 75.3493C73.3846 75.7267 73.3826 76.1047 73.3804 76.4887L73.5434 76.4897ZM73.5602 77.3663C73.5401 77.0755 73.5417 76.7844 73.5434 76.4897L73.3804 76.4887C73.3787 76.7824 73.377 77.0797 73.3976 77.3776L73.5602 77.3663ZM74.1669 79.5606C73.883 78.8513 73.6792 78.113 73.5594 77.3592L73.3984 77.3848C73.5201 78.1506 73.7271 78.9006 74.0156 79.6212L74.1669 79.5606ZM73.8994 80.2168C74.124 80.0851 74.2346 79.8221 74.1702 79.5707L74.0123 79.6111C74.0585 79.7915 73.9794 79.9809 73.817 80.0761L73.8994 80.2168ZM73.1992 80.1413C73.3901 80.3177 73.675 80.3483 73.8994 80.2168L73.817 80.0761C73.6544 80.1715 73.4478 80.1491 73.3099 80.0216L73.1992 80.1413ZM72.6954 75.253C72.4435 75.9302 72.3008 76.873 72.3528 77.7824C72.4048 78.6895 72.6516 79.5805 73.1962 80.1384L73.3129 80.0245C72.8087 79.5081 72.5666 78.6646 72.5156 77.7731C72.4647 76.8838 72.6049 75.9637 72.8482 75.3098L72.6954 75.253ZM70.9053 74.434C71.3661 74.9904 72.0427 75.3277 72.7678 75.3628L72.7757 75.2C72.096 75.1671 71.4622 74.851 71.0308 74.3301L70.9053 74.434ZM70.9041 73.8748C70.8051 74.0431 70.8022 74.2506 70.8967 74.4215L71.0394 74.3426C70.9728 74.2222 70.9748 74.0761 71.0446 73.9575L70.9041 73.8748ZM71.3795 73.5999C71.1837 73.6025 71.0032 73.7066 70.9042 73.8748L71.0446 73.9575C71.1145 73.8388 71.2423 73.7647 71.3817 73.7629L71.3795 73.5999ZM72.6507 73.8985C72.2502 73.7248 71.8215 73.6237 71.385 73.6L71.3762 73.7628C71.7934 73.7854 72.2031 73.882 72.5859 74.048L72.6507 73.8985ZM74.0522 74.0439C73.5763 74.0692 73.0994 74.0187 72.6396 73.8946L72.5971 74.0519C73.0735 74.1806 73.5677 74.2329 74.0609 74.2067L74.0522 74.0439ZM76.641 73.0141C75.9384 73.6638 75.0166 74.031 74.0555 74.0438L74.0576 74.2068C75.0589 74.1934 76.0194 73.8109 76.7516 73.1338L76.641 73.0141ZM76.9241 67.7334C77.1185 68.5162 77.3551 69.5158 77.3871 70.4842C77.4193 71.4539 77.2457 72.3758 76.6371 73.0179L76.7554 73.13C77.4085 72.441 77.5827 71.4652 77.5501 70.4788C77.5173 69.4911 77.2765 68.4761 77.0823 67.6941L76.9241 67.7334ZM74.2595 60.1449C75.2695 62.639 76.277 65.1274 76.9241 67.7334L77.0823 67.6941C76.432 65.0751 75.4198 62.576 74.4105 60.0837L74.2595 60.1449ZM73.0727 57.1499C73.4531 58.1536 73.8564 59.1497 74.2595 60.1449L74.4105 60.0837C74.0074 59.0882 73.6047 58.0938 73.2251 57.0921L73.0727 57.1499ZM71.6024 61.0431C72.3771 59.849 72.9279 58.5262 73.2285 57.1382L73.0692 57.1037C72.7728 58.4724 72.2296 59.7768 71.4657 60.9544L71.6024 61.0431ZM67.4722 65.1551C68.999 63.9377 70.4731 62.7632 71.6022 61.0435L71.4659 60.954C70.3532 62.6487 68.8999 63.8082 67.3706 65.0276L67.4722 65.1551ZM65.8691 66.4673C66.4029 66.0077 66.9407 65.5788 67.4722 65.1551L67.3706 65.0276C66.8395 65.4511 66.2992 65.8818 65.7627 66.3438L65.8691 66.4673ZM64.9401 66.5826C65.2433 66.748 65.6196 66.7007 65.8716 66.4651L65.7602 66.3461C65.5598 66.5335 65.2599 66.5714 65.0182 66.4395L64.9401 66.5826ZM62.8547 66.5789C63.0672 66.2578 63.447 66.1527 63.8556 66.1839C64.2639 66.2152 64.6788 66.3821 64.9294 66.5755L65.029 66.4465C64.7519 66.2326 64.3062 66.0549 63.868 66.0214C63.4301 65.9879 62.9775 66.0979 62.7188 66.489L62.8547 66.5789ZM62.9365 69.0186C62.8567 68.7758 62.7602 68.2749 62.7234 67.7742C62.7051 67.5244 62.7018 67.2776 62.7222 67.0652C62.7429 66.85 62.7868 66.6814 62.8547 66.579L62.7188 66.4889C62.6281 66.6258 62.5813 66.8277 62.56 67.0496C62.5384 67.2743 62.5421 67.5309 62.5609 67.7861C62.5983 68.2954 62.6965 68.8103 62.7817 69.0695L62.9365 69.0186ZM66.5536 70.1166C66.2728 70.4875 65.9385 70.6905 65.5892 70.7681C65.2387 70.8459 64.8672 70.7988 64.5122 70.6589C63.7999 70.3782 63.17 69.7302 62.9366 69.0187L62.7817 69.0695C63.031 69.8296 63.6975 70.5131 64.4525 70.8106C64.8312 70.9598 65.2361 71.0135 65.6245 70.9272C66.0141 70.8407 66.381 70.6146 66.6836 70.215L66.5536 70.1166ZM67.2082 69.7556C66.9391 69.7556 66.6892 69.8947 66.5491 70.1232L66.6881 70.2084C66.7983 70.0287 66.9953 69.9186 67.2082 69.9186V69.7556ZM67.8672 70.1232C67.7272 69.8947 67.4772 69.7556 67.2082 69.7556V69.9186C67.421 69.9186 67.6181 70.0287 67.7282 70.2084L67.8672 70.1232ZM70.0018 80.1212C69.8313 76.6799 69.6581 73.1542 67.8679 70.1243L67.7275 70.2072C69.4939 73.1966 69.6681 76.6802 69.839 80.1293L70.0018 80.1212ZM70.0015 80.1172L70.0015 80.1171L69.8393 80.1334L69.8393 80.1334L70.0015 80.1172ZM70.0015 80.1173L70.0015 80.1172L69.8393 80.1334L69.8393 80.1335L70.0015 80.1173ZM70.2362 83.5756C70.1171 82.4465 70.0597 81.2887 70.0018 80.1213L69.839 80.1294C69.8969 81.2959 69.9544 82.4583 70.0741 83.5927L70.2362 83.5756ZM73.1534 96.2834C71.2242 91.54 70.778 88.664 70.2362 83.5756L70.0741 83.5928C70.6166 88.6883 71.065 91.5813 73.0025 96.3448L73.1534 96.2834ZM72.8013 97.1543C73.098 96.9769 73.2429 96.6273 73.1569 96.2938L72.999 96.3345C73.0668 96.5974 72.9529 96.8737 72.7176 97.0144L72.8013 97.1543ZM51.2678 100.297C58.2636 104.233 66.2321 101.677 72.8057 97.1515L72.7133 97.0172C66.1568 101.531 58.2607 104.044 51.3477 100.155L51.2678 100.297ZM47.1627 97.2846C48.4082 98.4434 49.7858 99.4544 51.2675 100.297L51.3481 100.155C49.8773 99.3189 48.51 98.3154 47.2737 97.1653L47.1627 97.2846ZM45.3264 95.3235C45.8696 96.0386 46.4856 96.6964 47.1648 97.2864L47.2717 97.1634C46.601 96.5806 45.9926 95.931 45.4562 95.2249L45.3264 95.3235ZM45.4991 93.486C45.3737 93.7789 45.2364 94.0992 45.1764 94.4112C45.116 94.7251 45.1317 95.0418 45.3242 95.3205L45.4584 95.2279C45.2998 94.9983 45.2807 94.7317 45.3364 94.442C45.3925 94.1504 45.522 93.8468 45.6489 93.5501L45.4991 93.486ZM45.5 93.4839L45.5 93.4839L45.648 93.5521L45.648 93.5521L45.5 93.4839ZM45.7025 92.972C45.651 93.1306 45.5774 93.3028 45.4991 93.4859L45.6489 93.55C45.7265 93.3686 45.8033 93.1893 45.8575 93.0223L45.7025 92.972ZM47.4784 82.1648C47.3479 85.8276 46.751 89.4593 45.7019 92.9738L45.8581 93.0205C46.9112 89.4927 47.5103 85.8472 47.6413 82.1707L47.4784 82.1648ZM47.5755 75.0041C47.5954 77.2892 47.6157 79.634 47.4785 82.1633L47.6412 82.1722C47.7787 79.637 47.7583 77.2873 47.7385 75.0027L47.5755 75.0041ZM48.5885 61.6535C47.5011 66.455 47.5375 70.6192 47.5755 75.0041L47.7385 75.0027C47.7005 70.6167 47.6648 66.4702 48.7475 61.6895L48.5885 61.6535ZM52.5271 51.1119C51.5824 52.3839 50.7688 54.2654 50.1067 56.2016C49.4439 58.1396 48.9305 60.1396 48.5885 61.6535L48.7475 61.6895C49.0888 60.179 49.6007 58.185 50.2609 56.2544C50.9217 54.322 51.7287 52.4602 52.658 51.2091L52.5271 51.1119ZM60.0533 46.5867C57.0115 47.5332 54.4417 48.5434 52.5272 51.1118L52.6579 51.2092C54.539 48.6857 57.0635 47.6877 60.1017 46.7423L60.0533 46.5867ZM69.3508 47.7524C66.6016 45.9543 63.1654 45.5238 60.0512 46.5874L60.1038 46.7416C63.1706 45.6943 66.5545 46.1182 69.2615 47.8888L69.3508 47.7524ZM69.4077 47.7904L69.3514 47.7528L69.2609 47.8884L69.3171 47.926L69.4077 47.7904ZM73.3831 52.937C73.3952 51.6966 72.9098 50.749 72.1666 49.9422C71.4262 49.1385 70.4266 48.4712 69.4077 47.7904L69.3171 47.926C70.3402 48.6095 71.322 49.266 72.0467 50.0526C72.7685 50.8362 73.2317 51.7454 73.2201 52.9355L73.3831 52.937ZM73.5836 53.4172C73.5901 53.2129 73.5074 53.0158 73.357 52.8765L73.2462 52.996C73.3622 53.1035 73.4257 53.2551 73.4206 53.412L73.5836 53.4172ZM73.465 55.7252C73.5585 54.9581 73.5981 54.1856 73.5836 53.4131L73.4206 53.4161C73.435 54.181 73.3958 54.946 73.3032 55.7055L73.465 55.7252ZM73.5851 55.8032C73.5469 55.7365 73.491 55.6815 73.4237 55.6441L73.3445 55.7866C73.386 55.8096 73.4203 55.8434 73.4437 55.8842L73.5851 55.8032ZM75.8411 60.3682C75.2083 58.791 74.4539 57.2644 73.5845 55.802L73.4443 55.8853C74.3095 57.3405 75.0602 58.8595 75.6898 60.4288L75.8411 60.3682ZM75.9111 60.382C75.8742 60.3518 75.8309 60.3304 75.7845 60.3193L75.7464 60.4777C75.7691 60.4832 75.7901 60.4936 75.808 60.5083L75.9111 60.382ZM78.5643 63.1281C77.7793 62.1237 76.8903 61.2036 75.9119 60.3827L75.8072 60.5076C76.7769 61.3211 77.6579 62.2331 78.4358 63.2285L78.5643 63.1281ZM78.2024 65.6658C78.4952 65.2568 78.7794 64.8616 78.8927 64.4515C79.0089 64.0312 78.9448 63.6006 78.5635 63.1272L78.4366 63.2294C78.7874 63.6651 78.8368 64.0421 78.7356 64.4081C78.6316 64.7845 78.3678 65.1547 78.0699 65.5709L78.2024 65.6658ZM78.1769 65.7014L78.2024 65.6658L78.0699 65.5709L78.0444 65.6066L78.1769 65.7014ZM55.2965 51.3148C53.9821 53.3441 53.092 55.6141 52.6789 57.9905L52.8395 58.0184C53.2488 55.6637 54.1308 53.4143 55.4333 51.4034L55.2965 51.3148ZM54.991 51.0962C55.0706 51.0339 55.1814 51.0404 55.2569 51.092C55.2934 51.117 55.317 51.1497 55.3254 51.1844C55.3335 51.2176 55.33 51.2616 55.2959 51.3156L55.4339 51.4025C55.4881 51.3163 55.5037 51.2275 55.4838 51.1457C55.4642 51.0654 55.4126 51.0011 55.349 50.9575C55.2241 50.872 55.0345 50.8552 54.8905 50.9678L54.991 51.0962ZM53.7691 52.3373C54.1024 51.8594 54.5146 51.4404 54.9885 51.0981L54.893 50.966C54.4044 51.319 53.9793 51.7511 53.6354 52.2441L53.7691 52.3373ZM52.8935 53.9722C53.1366 53.4021 53.4301 52.8543 53.7704 52.3354L53.6341 52.246C53.2885 52.773 52.9905 53.3292 52.7435 53.9082L52.8935 53.9722ZM51.8262 57.6207C52.0384 56.3677 52.3965 55.1433 52.8935 53.972L52.7435 53.9084C52.2415 55.0913 51.8798 56.3279 51.6655 57.5935L51.8262 57.6207ZM51.2966 61.8407C51.3972 60.426 51.5739 59.0176 51.826 57.6216L51.6656 57.5926C51.4125 58.9944 51.235 60.4086 51.134 61.8291L51.2966 61.8407ZM51.4836 66.4066C51.1402 64.9107 51.0765 63.3651 51.2959 61.8465L51.1346 61.8232C50.9123 63.3618 50.9768 64.9276 51.3247 66.4431L51.4836 66.4066ZM51.6398 66.5134C51.5672 66.5134 51.5036 66.467 51.4817 66.3996L51.3267 66.4501C51.3707 66.5853 51.4974 66.6763 51.6398 66.6763V66.5134ZM51.7979 66.3996C51.776 66.467 51.7123 66.5134 51.6398 66.5134V66.6763C51.7821 66.6763 51.9089 66.5853 51.9529 66.4501L51.7979 66.3996ZM52.1826 62.2437C52.1832 63.6413 52.0535 65.0359 51.7953 66.4098L51.9555 66.4399C52.2156 65.056 52.3462 63.6513 52.3456 62.2437L52.1826 62.2437ZM52.6788 57.9906C52.4367 59.3968 52.2711 60.8148 52.1827 62.2386L52.3454 62.2487C52.4334 60.8308 52.5983 59.4186 52.8395 58.0183L52.6788 57.9906ZM69.3967 58.0517C69.9593 57.256 70.4397 56.4061 70.8307 55.5151L70.6814 55.4496C70.2949 56.3306 69.8199 57.1708 69.2636 57.9576L69.3967 58.0517ZM69.1187 58.4603C69.216 58.314 69.3081 58.1756 69.3964 58.0521L69.2638 57.9573C69.1736 58.0834 69.08 58.2242 68.983 58.37L69.1187 58.4603ZM67.7286 59.9928C68.0146 59.8461 68.2688 59.6014 68.4967 59.3271C68.7249 59.0524 68.9312 58.7421 69.1187 58.4603L68.983 58.37C68.7946 58.6531 68.593 58.956 68.3713 59.223C68.1492 59.4903 67.9117 59.7157 67.6542 59.8477L67.7286 59.9928ZM67.2815 59.9875C67.4203 60.065 67.5893 60.0667 67.7296 59.9922L67.6532 59.8483C67.5617 59.8968 67.4514 59.8957 67.361 59.8452L67.2815 59.9875ZM67.0447 59.609C67.0532 59.7674 67.1427 59.91 67.2815 59.9875L67.361 59.8452C67.2706 59.7948 67.2129 59.7023 67.2075 59.6003L67.0447 59.609ZM67.8974 57.4656C67.4337 58.091 67.1402 58.8242 67.0452 59.5947L67.207 59.6147C67.2985 58.8722 67.5813 58.1655 68.0283 57.5627L67.8974 57.4656ZM68.3936 56.6073C68.2236 56.8949 68.0535 57.1827 67.8916 57.4746L68.0341 57.5536C68.1948 57.264 68.3637 56.9782 68.5339 56.6903L68.3936 56.6073ZM69.0928 55.3744C68.8734 55.7955 68.6335 56.2013 68.3936 56.6073L68.5339 56.6903C68.7735 56.2848 69.0156 55.8753 69.2374 55.4497L69.0928 55.3744ZM69.8866 53.1673C69.7273 53.9359 69.4602 54.6787 69.093 55.374L69.2372 55.4501C69.6115 54.7413 69.8838 53.984 70.0462 53.2003L69.8866 53.1673ZM70.0383 50.7676C70.0524 51.5718 70.0014 52.3759 69.8857 53.1721L70.047 53.1955C70.164 52.3906 70.2156 51.5778 70.2013 50.7647L70.0383 50.7676ZM70.4149 50.2918C70.1987 50.3493 70.0453 50.5407 70.0383 50.7636L70.2013 50.7687C70.2059 50.6186 70.3093 50.4886 70.4569 50.4493L70.4149 50.2918ZM70.9786 50.5128C70.8601 50.3237 70.6311 50.2343 70.4149 50.2918L70.4569 50.4493C70.6045 50.41 70.7602 50.4713 70.8404 50.5993L70.9786 50.5128ZM70.8308 55.5148C71.1568 54.7632 71.452 53.8843 71.5371 53.0085C71.6222 52.1323 71.4976 51.2531 70.9762 50.5093L70.8427 50.6028C71.3348 51.3048 71.4576 52.1411 71.3749 52.9928C71.292 53.8449 71.0038 54.7062 70.6813 55.4499L70.8308 55.5148ZM77.5283 64.8209C77.2574 64.05 76.9742 63.2785 76.6912 62.5076L76.5382 62.5638C76.8212 63.3348 77.104 64.1053 77.3745 64.8749L77.5283 64.8209ZM77.6184 63.7588C77.7404 63.9529 77.7446 64.1231 77.6911 64.2871C77.6355 64.4577 77.5173 64.6224 77.386 64.7993L77.5168 64.8965C77.6453 64.7234 77.7808 64.5377 77.8461 64.3376C77.9135 64.1307 77.9058 63.9098 77.7564 63.6721L77.6184 63.7588ZM76.8495 62.8012C77.1292 63.1029 77.3868 63.4239 77.6203 63.7618L77.7544 63.6691C77.5164 63.3248 77.254 62.9977 76.969 62.6904L76.8495 62.8012ZM76.7122 62.6336C76.7567 62.6877 76.8013 62.7418 76.8458 62.797L76.9727 62.6947C76.9276 62.6387 76.8825 62.584 76.838 62.53L76.7122 62.6336ZM76.4313 62.281C76.5216 62.4023 76.6169 62.5179 76.7122 62.6336L76.838 62.53C76.7422 62.4137 76.6496 62.3012 76.5621 62.1837L76.4313 62.281ZM76.6921 62.5102C76.6572 62.4044 76.6168 62.3004 76.571 62.1988L76.4224 62.2658C76.4659 62.3622 76.5042 62.4608 76.5373 62.5612L76.6921 62.5102Z" fill="black"/>
<path d="M73.7421 82.9342C74.3648 82.5946 74.9175 82.1377 75.5163 81.7628C76.2398 81.3295 77.0589 81.0799 77.9016 81.0361C81.3555 80.7432 84.7863 81.5282 88.088 82.4543C94.2446 84.1761 101.436 86.6952 106.393 89.5309C109.342 91.2182 111.588 92.6364 113.865 95.108C114.254 95.5304 114.57 95.2023 114.207 94.7806C112.386 92.6127 110.881 91.7809 108.614 89.9525C106.276 88.0666 102.704 86.2829 99.9431 85.0669C96.864 83.7889 93.7045 82.7126 90.4848 81.8448C87.2254 80.7633 83.8499 80.0673 80.4277 79.7711C78.7357 79.6891 76.8201 79.6653 75.2696 80.4388C73.6822 81.2354 72.5437 82.6881 70.5934 82.3255C70.4371 82.2843 70.2724 82.352 70.1904 82.491C70.1084 82.63 70.1293 82.8064 70.2413 82.9227C71.2284 83.907 72.6736 83.5321 73.7421 82.9342Z" fill="black" stroke="black" stroke-width="0.326"/>
<path d="M135.49 52.2152C136.347 51.0415 137.003 49.7472 137.434 48.3799C138 46.9483 138.505 45.5009 138.923 44.0206C139.33 42.589 139.674 41.1417 139.969 39.6843C140.12 38.9148 140.264 38.1338 140.376 37.3651C140.462 36.7924 140.753 36.0129 140.203 35.6163C140.062 35.4943 139.854 35.471 139.686 35.5584C139.046 35.8146 139.12 36.5956 139.034 37.1553C138.923 37.8425 138.8 38.5304 138.678 39.2183C138.394 40.6749 138.05 42.1323 137.644 43.5661C137.25 44.9533 136.831 46.3399 136.352 47.7042C135.745 49.0678 135.267 50.4797 134.924 51.9232C134.912 52.1794 135.257 52.4944 135.49 52.2152Z" fill="black" stroke="black" stroke-width="0.326"/>
<path d="M139.909 44.1209C139.914 44.248 139.993 44.3606 140.111 44.4091C140.229 44.4577 140.364 44.4333 140.458 44.3467C140.851 44.0258 141.281 43.7283 141.65 44.2634C141.876 44.7086 141.974 45.2069 141.936 45.7042C141.966 46.6691 141.894 47.6345 141.721 48.5842C141.56 49.4561 141.337 50.3154 141.054 51.1558C140.839 51.8137 140.195 52.764 140.565 53.4292C140.631 53.5399 140.762 53.5934 140.887 53.56C141.412 53.4175 141.554 52.9175 141.734 52.4416C142.008 51.7392 142.246 51.0126 142.449 50.2867C142.842 48.921 143.034 47.5058 143.021 46.085C142.998 45.0733 142.938 43.7283 141.936 43.145C141.173 42.7283 139.85 43.1209 139.909 44.1209Z" fill="black" stroke="black" stroke-width="0.326"/>
<path d="M144.162 50.0354C144.053 50.7747 143.887 51.5054 143.666 52.2219C143.325 52.9283 143.108 53.6826 143.021 54.4552C143.034 54.6905 143.344 54.9251 143.579 54.7605C144.546 54.0791 144.819 52.6095 145.067 51.5635C145.353 50.3401 145.499 49.0907 145.5 47.8374C145.5 46.9915 145.662 45.651 144.831 45.0634C144.539 44.8389 144.14 44.7864 143.794 44.9268C143.448 45.0673 143.213 45.3778 143.183 45.7333C143.185 45.8603 143.267 45.9738 143.391 46.0224C143.514 46.0709 143.657 46.0453 143.753 45.9571C144.422 45.3572 144.335 47.3083 144.335 47.579C144.339 48.4007 144.281 49.2216 144.162 50.0354Z" fill="black" stroke="black" stroke-width="0.326"/>
<path d="M146.876 47.6655C146.501 47.2795 145.74 47.1623 145.494 47.7373C145.422 47.8897 145.505 48.1348 145.716 48.1118C146.607 48.0299 146.292 49.8441 146.244 50.394C146.161 51.3315 145.997 52.2599 145.751 53.1685C145.283 54.8388 144.512 56.4095 143.478 57.8033C142.543 59.0791 141.569 60.3083 140.713 61.6423C139.94 62.8362 138.967 64.0072 139.202 65.4814C138.301 64.9703 137.324 64.6063 136.308 64.4032C135.661 64.263 135.02 64.1696 134.366 64.0877C133.879 64.0004 133.384 63.965 132.889 63.982C132.947 63.9254 132.984 63.8514 132.995 63.7714C132.991 63.1076 132.856 62.4511 132.596 61.84C132.374 61.1147 132.093 60.4118 131.823 59.7095C131.257 58.3524 130.791 56.956 130.428 55.5312C130.159 54.2668 130.069 52.7574 130.944 51.7036C131.776 50.6973 133.159 50.6154 134.06 49.7492C134.165 49.6394 134.195 49.4783 134.137 49.3383C134.078 49.1984 133.943 49.1058 133.791 49.1023C132.549 48.9622 131.049 49.8161 130.206 50.6837C129.246 51.7765 128.824 53.2398 129.055 54.6751C129.279 56.2764 129.721 57.8397 130.367 59.3221C130.671 60.0833 131.023 60.8438 131.351 61.6042C131.609 62.4199 131.963 63.202 132.406 63.9338C132.443 63.9819 132.493 64.0185 132.549 64.0395C132.409 64.0736 132.271 64.1206 132.139 64.1797C132.037 64.039 131.878 63.9501 131.705 63.9363C131.531 63.9225 131.36 63.9851 131.237 64.1078C127.28 68.0525 124.042 72.6873 120.669 77.1236C118.887 79.476 117.111 81.8327 115.338 84.1937C113.482 86.5408 111.761 88.991 110.182 91.5325C110.124 91.642 110.154 91.7774 110.252 91.8527C110.351 91.9279 110.489 91.9211 110.58 91.8366C112.577 89.6678 114.447 87.3855 116.181 85.0009C117.95 82.695 119.72 80.3776 121.477 78.0717C124.875 73.6009 128.12 68.9431 132.116 64.9739C132.179 64.916 132.229 64.8438 132.259 64.7633C133.044 64.9739 133.888 65.0329 134.685 65.2198C135.458 65.3959 136.243 65.559 136.993 65.8049C137.719 66.0461 138.406 66.3931 139.032 66.8349C139.141 66.9155 139.263 66.9787 139.391 67.0225C138.24 72.325 137.083 77.5923 135.466 82.7769C133.811 88.0724 131.81 93.2538 129.476 98.2877C128.396 100.617 127.285 102.946 125.984 105.158C124.874 107.218 123.35 109.027 121.508 110.472C116.975 113.75 110.682 112.649 105.55 111.795C102.246 111.245 98.9301 110.66 95.626 110.086C94.115 109.829 92.5911 109.571 91.093 109.244C89.523 108.892 88.0228 108.295 86.465 107.968C85.9023 107.85 85.7145 108.236 86.2419 108.459C87.7421 109.115 88.8322 109.501 90.2843 110.097C91.3201 110.534 92.4005 110.856 93.5063 111.058C93.0746 112.825 92.9091 114.686 92.581 116.465C92.2414 118.279 91.878 120.094 91.4679 121.884C91.0577 123.687 90.6124 125.478 90.1087 127.257C89.8626 128.123 89.6165 128.989 89.3467 129.856C89.0252 130.662 88.7783 131.497 88.6092 132.348C88.5617 132.501 88.5034 132.641 88.4566 132.793C88.3976 132.957 88.3394 133.109 88.2811 133.273C87.9882 133.191 87.7055 133.109 87.4176 133.039C86.1249 132.713 84.814 132.463 83.4919 132.29C80.9164 131.951 78.3166 131.833 75.721 131.939C73.0576 132.048 70.4019 132.298 67.7651 132.688C66.3944 132.887 65.0237 133.098 63.6638 133.355C62.3451 133.551 61.0414 133.837 59.7618 134.21C57.46 129.991 55.4442 125.623 53.7278 121.135C52.8725 118.888 52.0952 116.618 51.3958 114.323C50.6813 111.994 49.838 109.583 49.0214 107.288C48.8926 106.938 48.5407 106.973 48.5896 107.406C48.7806 108.916 49.0822 110.411 49.4919 111.877C47.9531 112.748 46.4877 113.742 45.11 114.85C44.4188 115.389 43.7508 115.962 43.1061 116.57C42.4189 117.107 41.8352 117.765 41.3835 118.511C41.3244 118.619 41.3436 118.752 41.4306 118.839C41.5176 118.926 41.6515 118.945 41.7591 118.885C42.4357 118.482 43.0576 117.995 43.6098 117.433C44.2782 116.858 44.969 116.31 45.6719 115.76C46.9941 114.747 48.3669 113.802 49.7848 112.927C49.9373 113.454 50.0899 113.981 50.2539 114.509C50.9682 116.885 51.7726 119.238 52.6672 121.567C53.71 124.294 54.8584 126.975 56.1123 129.608C55.6952 129.575 55.2757 129.584 54.8603 129.634C54.2171 129.629 53.5745 129.677 52.9392 129.778C52.9564 129.678 52.9302 129.576 52.8672 129.497C51.4323 127.894 49.873 126.407 48.204 125.049C46.6577 123.656 45.0877 122.287 43.5169 120.917C42.0642 119.653 40.6 118.412 39.0645 117.242C37.5631 115.988 35.924 114.908 34.1789 114.023C33.5313 113.742 33.6033 113.906 34.2141 114.304C34.7998 114.702 35.3157 115.194 36.6512 116.153C37.4477 116.715 38.2565 117.604 39.03 118.202C40.5762 119.384 41.5138 120.707 42.978 121.983C44.525 123.328 46.0483 124.698 47.6068 126.044C48.9734 127.32 50.4129 128.516 51.9182 129.626C51.5294 130.204 51.2441 130.846 51.0749 131.522C50.8051 132.306 50.5712 133.103 50.3597 133.898C49.9537 135.296 49.7254 136.739 49.6804 138.194C49.6451 138.167 49.6054 138.148 49.5632 138.135C48.0941 137.684 46.5997 137.321 45.0877 137.046C43.5875 136.696 42.088 136.333 40.6 135.934C37.624 135.127 34.6826 134.214 31.7886 133.161C29.0255 132.207 26.3327 131.061 23.7299 129.731C21.2089 128.513 19.0186 126.706 17.344 124.464C15.7472 122.33 15.0951 119.635 15.5394 117.008C16.1374 114.222 18.0118 111.881 19.7573 109.704C23.1636 105.451 26.9955 101.557 31.1935 98.0814C33.5701 96.1192 36.0539 94.2904 38.6335 92.6035C41.2238 90.9057 43.9882 89.5012 46.5893 87.8279C46.9405 87.605 46.7181 86.9617 46.2965 87.1256C43.6356 88.1775 41.0912 89.5024 38.704 91.079C31.3964 95.6494 24.8833 101.379 19.4206 108.042C17.6045 110.266 15.6834 112.571 14.6717 115.302C13.7439 117.922 13.9128 120.804 15.1401 123.297C17.6246 128.658 23.3068 131.268 28.4975 133.34C31.8489 134.676 35.2688 135.835 38.7429 136.81C40.5239 137.313 42.3165 137.758 44.1206 138.144C45.8701 138.61 47.666 138.881 49.4754 138.952C49.6139 138.954 49.7433 138.883 49.815 138.764C49.8912 138.824 49.9926 138.842 50.0847 138.811C50.1768 138.781 50.2472 138.706 50.2719 138.612C50.4359 138.086 50.5647 137.559 50.6935 137.03C51.303 137.487 52.006 137.826 52.6269 138.283C52.9867 138.564 53.9156 139.524 54.3257 138.774C54.6891 138.107 53.5292 137.511 53.1076 137.241C52.4383 136.774 51.687 136.436 50.8928 136.246C51.0569 135.556 51.2094 134.865 51.4088 134.175C51.6073 133.46 51.8304 132.747 52.065 132.056C52.2405 131.53 52.4967 131.003 52.6406 130.464L52.7125 130.5C53.4331 130.648 54.168 130.714 54.9035 130.698C55.4424 130.722 56.1577 130.874 56.6023 130.534C57.2355 131.834 57.9032 133.109 58.5825 134.385C58.529 134.396 58.4776 134.416 58.4306 134.444C56.3581 136.005 54.6606 138.008 53.4623 140.308C52.1527 142.659 51.0286 145.109 50.0999 147.635C47.8494 153.306 46.2573 159.217 45.3546 165.251C44.8977 168.516 44.4754 172.008 44.9445 175.294C45.0265 175.89 45.8936 175.691 45.9403 175.165C46.1627 172.262 46.0929 169.371 46.444 166.468C46.8042 163.547 47.3602 160.653 48.1083 157.806C49.4354 152.351 51.3731 147.063 53.8847 142.04C55.2639 139.506 56.9395 137.145 58.876 135.006C58.8902 134.992 58.9019 134.976 58.9106 134.959C58.9232 134.972 58.9315 134.988 58.9343 135.006C59.031 135.175 59.2073 135.282 59.4018 135.292C59.5963 135.301 59.7822 135.211 59.8949 135.052C61.2912 134.946 62.6802 134.759 64.0545 134.49C65.4252 134.292 66.7966 134.069 68.1673 133.87C71.0519 133.455 73.9597 133.22 76.8736 133.168C79.667 133.111 82.4587 133.342 85.2044 133.858C85.8606 133.987 86.5046 134.128 87.1471 134.29C87.6669 134.521 88.2334 134.629 88.802 134.605C88.8002 134.626 88.8042 134.646 88.8135 134.664C90.2432 139.299 91.942 143.853 93.2077 148.546C94.4814 153.284 95.4597 158.096 96.1369 162.954C96.5233 165.681 96.6873 168.432 97.0975 171.159C97.191 171.757 98.1286 171.591 98.1286 171.019C98.0825 168.569 97.8661 166.124 97.481 163.703C97.1529 161.259 96.7658 158.834 96.2859 156.411C95.3368 151.555 94.0845 146.762 92.5364 142.061C91.701 139.435 90.6667 136.876 89.4424 134.406C89.4118 134.353 89.3673 134.308 89.3136 134.278C89.4806 134.009 89.607 133.717 89.6885 133.411C89.782 133.143 89.8871 132.885 89.9813 132.616C90.2845 131.896 90.5274 131.152 90.7073 130.392C90.9772 129.49 91.2463 128.578 91.4923 127.665C91.996 125.838 92.4414 123.999 92.84 122.152C93.2386 120.349 93.5667 118.523 93.8474 116.697C94.1944 114.902 94.4022 113.082 94.469 111.255C97.539 111.782 100.605 112.309 103.667 112.836C109.033 113.76 115.278 115.107 120.457 112.692C124.968 110.585 127.358 105.775 129.42 101.526C131.925 96.3599 134.085 91.0346 135.888 85.5845C137.982 79.5116 139.508 73.2577 140.446 66.9032C140.468 66.7614 140.403 66.6201 140.282 66.5438C140.286 66.3818 140.222 66.2255 140.106 66.1125C140.059 66.0658 140.012 66.0306 139.966 65.9838C140.083 65.934 140.167 65.8282 140.188 65.7028C140.481 63.8886 141.641 62.3317 142.696 60.8689C143.82 59.312 145.086 57.8953 145.894 56.14C146.777 54.2668 147.282 52.2385 147.382 50.1704C147.31 49.41 147.45 48.2506 146.876 47.6655Z" fill="black" stroke="black" stroke-width="0.326"/>
<path d="M42.1899 24.0875C37.2258 23.0852 32.2965 21.954 27.3447 20.9044C26.1774 20.6595 24.9861 20.4268 23.8304 20.1469C23.1938 19.9951 23.1113 19.4474 22.8991 18.8875C22.6514 18.2467 22.4038 17.6052 22.1561 16.9544C21.1771 14.4247 20.1944 11.8949 19.2081 9.36519C18.1704 6.70682 17.2152 3.979 15.6112 1.60057C15.4736 1.38023 15.2304 1.24609 14.9685 1.24609C14.7066 1.24609 14.4634 1.38023 14.3258 1.60057C11.3307 7.13854 8.63034 13.1312 7.33338 19.3099C7.26318 19.5838 7.42683 19.8631 7.7021 19.9391C7.97736 20.0151 8.26369 19.8601 8.3472 19.5899C9.40881 16.6637 10.3871 13.7139 11.5668 10.8343C12.5922 8.32847 13.748 5.86771 15.0094 3.46565C16.0438 5.41366 16.9269 7.43659 17.6511 9.51697C18.665 12.1281 19.6788 14.7514 20.6926 17.3632C20.9403 18.0076 21.1879 18.6455 21.4479 19.2963C21.6149 19.8789 21.8777 20.4304 22.2256 20.9287C22.957 21.7678 24.4546 21.78 25.4807 21.9898C28.0153 22.5024 30.5397 23.0737 33.0626 23.6365C35.4922 24.1727 37.9333 24.7104 40.3766 25.2216C36.7913 28.1019 32.912 30.62 29.339 33.5347C28.5606 34.164 27.546 34.8284 27.2281 35.82C26.8863 36.904 27.3809 38.2801 27.5583 39.364C28.0066 42.0453 28.3954 44.7388 28.7018 47.4437C28.9965 49.9496 29.221 52.4683 29.3977 54.9871C25.0526 51.5914 20.9025 47.9587 16.9668 44.1059C16.6673 43.8317 16.2048 43.8317 15.9052 44.1059C10.9998 47.8947 5.96473 51.5555 1.21209 55.5198C0.611045 56.0209 1.41269 57.082 2.06153 56.6152C6.95465 53.1177 11.6247 49.2937 16.3766 45.5979C20.5931 49.6923 25.0464 53.5411 29.7141 57.1249C30.1856 57.4865 31.0466 57.3111 31.0111 56.6001C30.7164 51.4703 30.1624 46.3518 29.3839 41.2692C29.1949 39.9984 28.9827 38.739 28.759 37.4796C28.6525 36.9069 28.4874 36.3842 28.9118 35.9045C29.2821 35.5217 29.6844 35.1706 30.1146 34.8549C32.0372 33.2798 34.0417 31.8235 36.0461 30.3551C38.2512 28.7341 40.4447 27.1139 42.5201 25.3433C42.7053 25.1525 42.7772 24.8802 42.7099 24.6242C42.6425 24.3682 42.4457 24.165 42.1899 24.0875Z" fill="#002657" stroke="#F77D7E" stroke-width="0.326"/>
<path d="M209.463 55.5247C204.712 51.5586 199.667 47.8846 194.774 44.109C194.474 43.8351 194.012 43.8351 193.713 44.109C189.785 47.9687 185.636 51.6022 181.287 54.9918C181.629 50.1281 182.171 45.2637 182.952 40.4466C183.221 39.2055 183.425 37.9518 183.566 36.6903C183.624 35.5821 182.929 34.8472 182.139 34.1832C180.217 32.5622 178.189 31.0573 176.15 29.5874C174.182 28.1648 172.212 26.753 170.326 25.2251C174.96 24.2574 179.581 23.1837 184.214 22.2045C184.827 22.0755 185.44 21.9473 186.065 21.8306C186.668 21.756 187.261 21.6152 187.833 21.4108C188.919 20.9094 189.201 19.4166 189.59 18.4023C190.592 15.8236 191.582 13.2586 192.584 10.6806C193.435 8.20261 194.467 5.78942 195.673 3.46026C196.931 5.85844 198.09 8.31966 199.112 10.8389C200.291 13.7313 201.269 16.671 202.331 19.5986C202.414 19.8689 202.7 20.024 202.976 19.948C203.251 19.8719 203.414 19.5925 203.344 19.3185C202.048 13.1368 199.348 7.14134 196.354 1.60074C196.216 1.3803 195.973 1.24609 195.711 1.24609C195.449 1.24609 195.206 1.3803 195.069 1.60074C193.752 3.72248 192.68 5.98396 191.874 8.34258C190.895 10.874 189.905 13.4047 188.927 15.9354C188.455 17.1603 188.043 18.4424 187.488 19.6444C187.229 20.2046 186.698 20.1931 186.144 20.3099C185.531 20.4381 184.93 20.5663 184.317 20.706C181.83 21.2547 179.33 21.7804 176.843 22.3277C174.061 22.9337 171.268 23.5404 168.472 24.112C168.224 24.1846 168.031 24.3797 167.964 24.6273C167.897 24.8748 167.964 25.1392 168.142 25.3254C171.856 28.4771 175.947 31.1575 179.755 34.2018C180.189 34.5399 180.614 34.8897 181.028 35.2512C181.417 35.5778 181.936 35.9167 182.006 36.441C182.008 37.0643 181.92 37.6848 181.747 38.284L181.428 40.1736C181.016 42.7287 180.674 45.283 180.379 47.8488C180.049 50.7532 179.802 53.6693 179.637 56.597C179.59 57.3205 180.462 57.4838 180.933 57.1221C185.602 53.5385 190.055 49.6868 194.267 45.5867C199.018 49.2843 203.687 53.0986 208.579 56.6099C209.251 57.0741 210.064 56.0261 209.463 55.5247Z" fill="black" stroke="black" stroke-width="0.326"/>
<path fill-rule="evenodd" clip-rule="evenodd" d="M162.194 23.7004C155.642 22.0059 148.629 22.3568 142.297 19.7974C142.299 19.7846 142.295 19.7717 142.286 19.7623C140.199 13.4391 138.111 7.11208 136.022 0.781248C135.963 0.617606 135.706 0.547987 135.623 0.734596C133.325 5.44528 131.199 10.2301 129.245 15.0891C128.741 16.3394 128.26 17.6012 127.78 18.8644C127.714 19.1734 127.582 19.4645 127.392 19.7178C127.126 19.8882 126.826 19.9998 126.513 20.045C125.821 20.2553 125.118 20.4534 124.425 20.6522C121.857 21.3771 119.254 22.0202 116.64 22.5808C113.673 23.2124 110.672 23.7291 107.671 24.1468C107.506 24.1705 107.471 24.4038 107.576 24.5093C112.335 29.0142 117.418 33.1665 122.784 36.9332C121.564 42.9056 120.466 48.9051 119.489 54.9316C119.469 55.0239 119.511 55.1182 119.593 55.166C119.674 55.2138 119.777 55.2044 119.849 55.1426C124.468 50.4322 130.987 48.0127 135.243 42.9168L136.122 43.9339C136.427 42.2393 136.744 40.5333 137.058 38.838C137.254 37.7082 137.516 36.5907 137.842 35.4912C137.993 34.735 138.457 34.0774 139.12 33.6797C140.621 32.9785 141.265 34.7197 141.336 35.8767C141.436 37.8594 141.282 39.8467 140.879 41.7907C141.407 41.4969 142.044 41.4752 142.591 41.7326C143.222 42.048 143.644 42.6676 143.705 43.369C144.087 43.186 144.526 43.1648 144.924 43.3102C145.657 43.6881 146.141 44.4182 146.202 45.2387C146.738 44.9813 147.381 45.121 147.761 45.5775C148.535 46.4775 148.371 48.1491 148.383 49.2472C148.393 51.216 148.185 53.18 147.761 55.1031L148.043 55.3838C148.105 55.4395 148.194 55.4542 148.271 55.4216C148.348 55.3891 148.4 55.315 148.403 55.2316C149.001 50.5212 149.611 45.8114 149.857 41.0665C149.915 39.8742 149.95 38.682 149.962 37.4901C149.962 36.8004 149.857 36.3094 150.394 35.8185C150.826 35.4331 151.25 35.047 151.684 34.6501C153.431 33.0488 155.131 31.4239 156.808 29.753C158.671 27.8941 160.489 25.9928 162.259 24.0492C162.316 24.0019 162.342 23.928 162.329 23.8558C162.315 23.7836 162.264 23.7242 162.194 23.7004Z" fill="#002657"/>
<path fill-rule="evenodd" clip-rule="evenodd" d="M101.769 21.5305C95.1061 20.2376 88.1022 21.0368 81.6035 18.8502C81.6035 18.8386 81.6035 18.8386 81.5912 18.8263C79.1 12.608 76.6126 6.38555 74.129 0.159024C74.1018 0.0648337 74.0156 0 73.9176 0C73.8196 0 73.7334 0.0648337 73.7061 0.159024C71.6732 5.09674 69.8163 10.1045 68.1709 15.1743C67.748 16.4672 67.3366 17.7608 66.9483 19.0537C66.843 19.3945 66.804 19.6413 66.4901 19.8175C66.2061 19.9518 65.9114 20.0619 65.6089 20.1467C64.9392 20.3935 64.2572 20.6404 63.5882 20.8758C61.097 21.7572 58.5704 22.5448 56.02 23.2623C53.1285 24.0708 50.2057 24.767 47.2516 25.3508C47.178 25.3719 47.121 25.4303 47.1017 25.5044C47.0824 25.5786 47.1037 25.6574 47.1578 25.7117C52.2031 29.941 57.5532 33.7926 63.1646 37.2352C62.847 39.5279 62.5463 41.8202 62.2625 44.1119C64.7159 43.6911 67.2394 44.0359 69.4901 45.0994C70.3652 45.5237 71.1602 46.0965 71.8399 46.7923C73.393 45.5114 74.7895 44.0515 76.0004 42.4429C80.1255 46.8045 85.0935 50.2133 89.5975 54.1375C89.66 54.1935 89.7492 54.2084 89.8265 54.1756C89.9038 54.1428 89.9551 54.0683 89.9583 53.9844C90.2636 49.2236 90.5811 44.4512 90.522 39.6665C90.5104 38.4675 90.475 37.2684 90.4043 36.0693C90.369 35.3879 90.2167 34.8818 90.7219 34.365C91.1332 33.9535 91.533 33.5305 91.9321 33.1074C93.5775 31.3908 95.1761 29.651 96.7508 27.8644C98.5015 25.8777 100.194 23.8557 101.851 21.8005C101.945 21.7536 101.934 21.5659 101.769 21.5305Z" fill="#002657"/>
</svg>
