<svg width="218" height="177" viewBox="0 0 218 177" fill="none" xmlns="http://www.w3.org/2000/svg">
<path d="M31.2979 148.995C28.6723 150.074 26.9594 152.626 26.9608 155.458V175.893H6.25977V155.32C6.2606 151.471 9.38914 148.351 13.2486 148.351H31.2979V148.995Z" fill="black"/>
<path fill-rule="evenodd" clip-rule="evenodd" d="M27.3009 157.797C27.2059 154.11 27.19 153.494 28.1112 151.675C28.7689 150.509 29.7651 149.588 30.9581 149.042L30.9647 149.051C31.1305 148.978 31.2492 148.824 31.2798 148.64C31.282 148.61 31.2835 148.594 31.2846 148.577C31.2883 148.522 31.2875 148.467 31.2937 147.9C31.2992 147.701 31.1989 147.515 31.0325 147.415C31.0124 147.405 31.0002 147.396 30.9874 147.388C30.8616 147.312 30.6761 147.334 22.3615 147.211C20.4418 147.188 18.8883 147.162 17.6166 147.141C12.4278 147.054 11.9298 147.046 10.3887 147.658C7.72055 148.769 5.8875 151.345 5.65316 154.312C5.61857 154.842 5.62887 175.58 5.64359 175.769C5.7109 176.191 6.06133 176.501 6.47382 176.504C26.3183 176.504 26.8063 176.582 27.0126 176.377C27.0349 176.355 27.0538 176.329 27.0933 176.3C27.2127 176.196 27.3018 176.059 27.3509 175.906C27.4436 175.537 27.3848 162.514 27.3752 161.318C27.3549 159.893 27.3253 158.744 27.3009 157.797ZM21.9411 148.591V148.455L29.7229 148.451C28.2776 149.261 27.1321 150.544 26.4653 152.1C25.713 153.694 25.713 154.554 25.7131 174.017L25.7131 174.759H7.31275C7.31275 154.954 7.28887 154.401 7.39489 153.874C7.40659 153.816 7.41986 153.758 7.43493 153.675C7.99833 150.805 10.4201 148.731 13.2494 148.695L21.9411 148.591Z" fill="black"/>
<path d="M139.955 45.0684L140.263 45.308C140.41 46.1097 140.326 45.2266 139.982 48.0644C139.696 49.9588 139.524 53.2427 139.501 53.5275C139.133 60.2256 140.101 67.4799 146.062 70.3192C147.71 71.0373 148.089 70.8113 148.526 71.2739C148.792 71.6944 148.683 71.46 148.729 74.221C148.729 77.8997 148.986 84.469 148.977 84.7802C148.944 85.081 148.708 85.316 148.414 85.3408C147.586 85.4225 146.764 85.561 145.954 85.7553L145.553 85.6694L145.323 85.3348V85.3288L145.401 84.9287L145.737 84.6853C146.399 84.5225 147.011 84.3198 147.706 84.1804C147.706 84.093 147.001 77.8922 147.001 72.5082C143.714 71.6221 141.094 69.4082 139.436 65.6624C138.566 63.6327 138.038 61.4672 137.873 59.2574C137.592 56.3904 137.674 53.4982 138.118 50.6528C138.395 48.8964 138.796 47.1627 139.317 45.4655L139.568 45.1399L139.947 45.0721L139.955 45.0684Z" fill="black"/>
<path fill-rule="evenodd" clip-rule="evenodd" d="M170.882 55.0571C170.751 52.6174 169.137 50.5306 166.86 49.8563C165.63 49.5079 164.35 49.3822 163.078 49.4849L162.708 49.6542L162.549 50.0203V50.0264L162.696 50.3949L163.066 50.5726C163.779 50.6122 164.487 50.7104 165.184 50.8663C166.03 51.0336 166.826 51.4018 167.51 51.9418C168.423 52.6155 169.014 53.6598 169.132 54.8113C169.25 55.9628 168.886 57.1116 168.13 57.9679C167.051 59.0423 165.682 59.7558 164.203 60.0152C163.748 60.1129 163.374 60.1576 163.067 60.1942C162.304 60.2854 161.957 60.3268 161.799 61.0137C160.981 64.1891 159.898 67.2852 158.561 70.2672C158.39 70.5562 158.33 70.8997 158.39 71.2321C158.405 71.9026 158.412 72.456 158.419 72.9764C158.441 74.6225 158.458 75.9387 158.697 79.5847C159.09 84.3822 159.102 84.3932 159.329 84.6124C159.336 84.619 159.343 84.6258 159.35 84.6329C159.551 84.7756 159.629 84.7792 160.021 84.7975C160.426 84.8164 161.165 84.8508 162.715 85.0692C162.988 85.1605 163.285 85.1478 163.55 85.0333C163.55 85.0242 163.766 84.6901 163.772 84.6817L163.676 84.2782C163.507 84.1632 163.44 84.1066 163.364 84.0682C163.249 84.0104 163.113 83.9942 162.573 83.8823C161.841 83.7335 161.129 83.6039 160.38 83.5116C160.209 79.9181 160.184 77.4401 160.158 74.9018C160.146 73.6775 160.133 72.4393 160.104 71.0551C161.407 68.1113 162.49 65.0693 163.346 61.9558C166.176 61.5195 168.452 60.6956 170.068 58.2455C170.502 57.5204 170.772 56.7039 170.859 55.8565C170.884 55.5909 170.892 55.3238 170.882 55.0571ZM158.685 70.1332C158.653 70.1598 158.65 70.1631 158.704 70.1146L158.761 70.0696C158.731 70.0949 158.703 70.1179 158.685 70.1332Z" fill="black"/>
<path d="M144.665 49.4502L144.929 49.6804L145.023 50.0823C145.023 52.8547 144.271 53.2023 144.434 58.4626C146.752 58.4431 146.255 58.3395 146.903 58.5575L147.099 58.879V58.884L146.986 59.2461L146.631 59.4698C145.694 59.7305 144.741 59.9346 143.779 60.0809C143.56 60.1155 143.335 60.0636 143.154 59.9361C143.043 59.85 142.953 59.7388 142.893 59.6117C142.576 58.6465 142.675 53.7881 143.304 51.5022C143.304 51.4428 143.658 50.5754 143.658 50.5696C143.688 50.5102 143.992 49.8745 144.03 49.8137L144.32 49.5175L144.661 49.456L144.665 49.4502Z" fill="black"/>
<path d="M154.82 60.2109C155.046 60.5729 155.101 60.5029 155.219 61.6563C155.32 62.8111 154.994 63.9623 154.308 64.8714C153.835 65.5557 153.148 66.0444 152.368 66.2528C151.062 66.5743 149.695 66.0913 148.84 65.0061C148.632 64.7016 148.47 64.3647 148.361 64.0076C148.361 63.4644 148.29 63.6765 148.533 63.2717C149.71 63.5727 148.876 63.341 150.041 64.0129C150.437 64.297 150.884 64.492 151.355 64.5855C152.12 64.6436 152.844 64.2123 153.19 63.4922C153.637 62.6751 153.916 61.7684 154.008 60.8309C154.017 60.6594 153.989 60.7783 154.156 60.2945L154.467 60.0913L154.82 60.2109Z" fill="black"/>
<path d="M154.452 45.0213C154.855 45.2644 155.211 45.5622 155.507 45.9034C155.703 46.0865 155.827 46.3192 155.863 46.5683L155.737 46.8553L155.73 46.8584L155.4 46.9467C155.163 46.9028 154.94 46.8125 154.749 46.6825C154.33 46.4754 153.892 46.2997 153.44 46.1571C152.734 45.8432 151.914 45.7922 151.166 46.0158C151.065 46.0508 150.968 46.092 150.874 46.1392C150.799 46.1782 150.726 46.2215 150.657 46.2689C150.657 46.2689 150.186 46.4843 150.07 46.5442C149.639 46.738 150.147 46.6281 149.109 46.822C148.968 46.2386 148.87 46.2294 149.196 45.667C149.376 45.3391 149.672 45.0714 150.04 44.904C150.205 44.8183 150.377 44.7442 150.555 44.6823C151.845 44.27 153.279 44.3947 154.452 45.0213Z" fill="black"/>
<path d="M151.481 53.8319C152.518 53.8319 153.359 52.851 153.359 51.641C153.359 50.4311 152.518 49.4502 151.481 49.4502C150.444 49.4502 149.604 50.4311 149.604 51.641C149.604 52.851 150.444 53.8319 151.481 53.8319Z" fill="black"/>
<path d="M167.019 50.7024C168.132 44.4457 168.882 36.1704 162.319 32.5866C159.715 31.1628 156.789 30.7895 153.984 29.9352C152.01 25.9321 147.789 19.6888 143.453 18.529C138.277 17.2416 132.843 19.3276 129.896 23.7336C126.169 29.2073 127.043 37.0998 133.541 39.9868C138.595 42.2308 145.896 41.511 151.369 40.4456C153.053 40.1177 154.644 41.4746 156.283 41.9698C157.144 46.0896 159.662 48.8986 163.76 49.9157C164.926 50.205 167.019 50.7024 167.019 50.7024Z" fill="black"/>
<path fill-rule="evenodd" clip-rule="evenodd" d="M143.369 17.3035C148.044 18.5539 152.245 24.6709 154.435 28.9995C157.85 29.9401 160.909 30.4119 163.597 32.2404C169.457 36.4287 168.807 43.8474 167.487 50.8757C167.401 50.8607 166.322 50.6722 167.494 50.8757C167.457 51.0861 167.3 51.2556 167.093 51.3099C166.892 51.3453 167.159 51.392 164.538 50.7921C163.017 50.5337 161.556 50.0044 160.224 49.2296C157.611 47.6009 156.289 45.4054 155.513 42.493C154.249 42.0408 152.976 41.1688 151.846 41.1123C150.903 41.0708 137.89 44.681 130.674 39.439C124.809 34.9168 125.5 26.3087 129.939 21.5092C133.264 17.7021 138.454 16.0769 143.369 17.3035ZM137.389 18.9617C129.438 21.0216 126.354 29.6899 129.275 35.1301C131.879 40.6028 140.189 40.957 146.248 40.3307C150.952 39.8129 150.971 39.4059 152.323 39.6079C153.792 39.8672 154.826 40.6789 156.278 41.2103C157.152 41.4801 156.581 41.9504 157.69 44.4233C158.045 45.1971 158.506 45.9183 159.059 46.5661C161.108 48.9486 163.675 49.3963 166.507 50.1048C166.507 49.4769 167.974 42.6484 165.921 37.799C165.376 36.4328 164.504 35.22 163.381 34.2664C160.794 32.0633 157.123 31.6171 153.828 30.6486C152.745 30.3223 153.459 30.4692 151.179 26.8047C149.354 23.9836 146.312 20.0131 143.082 19.0468C141.225 18.5252 139.262 18.4969 137.39 18.9647L137.389 18.9617Z" fill="#010101"/>
<path fill-rule="evenodd" clip-rule="evenodd" d="M78.1739 2.78658C88.5661 7.11191 96.3667 16.1088 99.261 27.1078C102.439 37.8096 100.568 49.3984 94.1887 58.5158C90.9448 63.1652 86.6528 66.9632 81.6693 69.5945C79.2089 70.9138 76.6056 71.9392 73.9117 72.6501C64.0238 75.281 53.5 73.5877 44.903 67.9825C18.2857 49.8918 25.2205 11.0304 53.0074 1.86833C61.2315 -0.907362 70.1682 -0.581289 78.1739 2.78658ZM58.9131 3.29456C43.76 5.95537 32.3198 18.6932 31.1305 34.2285C29.9412 49.7638 39.3059 64.1367 53.8728 69.1332C68.4396 74.1297 84.4957 68.4762 92.865 55.4036C98.3361 47.0846 99.9879 36.7744 97.3949 27.129L97.3807 27.1336C92.2481 10.2325 75.3158 0.139251 58.9131 3.29456ZM99.2545 27.1087C99.0957 26.5872 99.1098 26.628 99.2545 27.1087V27.1087Z" fill="#010101"/>
<path fill-rule="evenodd" clip-rule="evenodd" d="M63.5378 23.0087C63.771 24.9191 64.5075 34.3981 64.5345 34.7987C64.6076 35.7479 64.7195 37.629 64.7203 37.635C66.8732 37.8011 72.2862 37.5004 75.6524 37.5177C76.5855 37.5245 76.3551 37.4922 76.8224 37.6868L76.9906 38.0536V38.0588L76.8444 38.4346C76.2645 38.7202 76.9256 38.5376 74.1437 38.8382C70.2986 39.2538 67.6454 39.61 64.0431 39.3417C63.696 39.3744 63.3608 39.2027 63.1772 38.8983C63.0463 38.6262 63.0748 38.7119 62.9959 37.3096C62.5293 29.0623 61.7922 25.9577 62.0057 19.6388C62.0211 19.2488 61.9801 19.4306 62.1739 18.9512L62.5139 18.7783H62.5176C63.1582 19.0346 62.9783 18.643 63.5378 23.0087Z" fill="#010101"/>
<path fill-rule="evenodd" clip-rule="evenodd" d="M40.0129 36.3054C40.3912 36.3522 40.7655 36.4249 41.1328 36.5227C41.3573 36.5767 41.2162 36.5227 41.743 36.7727L41.9402 37.0721C41.7321 37.4632 41.8623 37.3331 41.3557 37.6326C40.96 37.777 40.553 37.8917 40.1384 37.9756C39.8467 38.0218 39.551 38.0407 39.2554 38.0318C36.912 38.1265 37.2892 38.298 36.5964 38.0695C36.2457 37.9601 36.4787 38.0784 35.6807 37.5764C36.1942 36.8488 36.0477 37.0056 36.3446 36.7867C36.5358 36.6436 36.7556 36.539 36.9907 36.4791C37.9931 36.3594 39.0026 36.3014 40.0129 36.3054Z" fill="#010101"/>
<path fill-rule="evenodd" clip-rule="evenodd" d="M92.5156 34.4549C92.7592 34.4422 93.003 34.4746 93.2374 34.5506C93.2932 34.5658 93.5719 34.6607 93.6043 34.6743C94.0806 34.8658 93.8414 34.6918 94.5174 35.3597C93.9289 36.0635 94.106 35.9358 93.6241 36.1297C92.9249 36.4441 92.0852 36.2255 90.849 36.2997C90.6453 36.3232 90.441 36.2631 90.2732 36.1305C90.0065 35.9861 90.2147 36.1385 89.5098 35.5632C89.9924 34.7988 89.8844 34.9376 90.1046 34.7477C90.2815 34.5587 90.5146 34.4514 90.758 34.4469C91.3909 34.4126 91.8404 34.4301 92.5156 34.4549Z" fill="#010101"/>
<path fill-rule="evenodd" clip-rule="evenodd" d="M62.5433 6.71816C62.683 6.93919 62.8004 7.17477 62.8935 7.42112C62.9515 7.76024 62.9924 8.10232 63.0159 8.44594C63.1807 10.1038 63.416 10.9438 62.9276 12.3047L62.6664 12.5188H62.6575L62.358 12.3761L62.1029 11.9778C61.9377 11.5693 61.7968 11.1505 61.6809 10.7239C61.6125 10.4021 61.3663 8.06127 61.3663 7.9792C61.3167 7.70559 61.3428 7.4229 61.4415 7.1642C61.6611 6.66464 61.3478 7.08356 62.0119 6.25928L62.5433 6.71816Z" fill="#010101"/>
<path fill-rule="evenodd" clip-rule="evenodd" d="M65.1781 66.3024C64.864 65.6837 64.6863 64.985 64.6607 64.268C64.4095 62.4085 64.4442 62.8159 64.5667 62.2785C64.7301 61.8357 64.6171 62.0729 65.0998 61.3433C65.4175 61.5614 65.6903 61.8572 65.8991 62.21C66.0543 62.4731 66.0189 62.4243 66.119 63.1602C66.3463 64.9905 66.4274 65.037 66.266 65.9912C66.2034 66.3607 66.266 66.1937 65.7956 66.9768C65.1386 66.3426 65.2537 66.4797 65.1781 66.3024Z" fill="#010101"/>
<path fill-rule="evenodd" clip-rule="evenodd" d="M150.453 126.921C150.453 126.921 150.363 133.55 150.198 136.567C157.529 137.881 164.756 139.666 172.074 141.052C174.166 141.447 176.228 142.531 178.341 142.247C189.605 140.73 201.035 140.703 212.386 140.18C213.279 140.135 214.109 139.704 214.663 138.997C215.218 138.291 215.441 137.378 215.277 136.492C213.742 128.224 211.68 120.1 207.743 112.569C200.031 97.8211 185.118 86.5891 168.649 83.8937C168.17 83.8174 167.688 84.0133 167.396 84.4032C163.954 88.9661 158.861 93.508 153.186 94.5403C149.823 95.1506 144.206 94.6487 142.633 90.9481C142.064 89.4116 141.963 87.7393 142.341 86.1444C142.425 85.698 142.275 85.2398 141.944 84.9307C141.614 84.6217 141.149 84.5052 140.713 84.6221C131.446 87.1587 122.703 90.9195 114.883 96.7112C112.103 98.7714 109.018 101.03 106.774 103.699C108.701 105.308 109.666 107.804 109.329 110.301C110.884 111.962 111.665 114.152 110.77 116.351C114.309 122.188 107.034 127.124 102.658 129.641C106.41 136.946 115.327 150.528 115.471 150.895C115.513 151.002 116.653 174.567 116.69 174.598C116.706 174.612 116.727 174.619 116.748 174.616C123.488 173.929 130.295 174.762 137.064 174.625C146.846 174.426 156.961 174.029 166.76 174.011C166.801 174.016 166.838 173.986 166.843 173.944C166.848 173.903 166.818 173.865 166.777 173.861C160.035 172.058 150.663 169.027 145.345 164.701C140.338 166.644 134.322 165.721 129.455 163.704C125.917 162.238 123.233 158.396 128.622 157.163C126.268 155.094 123.663 151.08 128.226 150.032C125.597 147.837 121.715 142.064 127.493 141.044C126.82 137.131 125.842 133.133 124.789 129.298C117.247 128.59 117.753 123.694 120.529 122.526C124.579 120.822 130.444 121.844 134.794 121.828C134.406 119.606 134.041 117.364 133.817 115.118C133.742 114.36 133.507 113.189 134.027 112.529C135.132 111.122 137.641 110.879 139.217 110.422C143.705 109.127 148.661 106.939 153.431 107.399C155.42 107.591 157.334 109.111 155.489 110.987C154.402 112.092 152.609 112.469 151.188 112.91C149.707 113.369 148.269 113.964 146.785 114.423C144.493 115.136 142.163 115.606 139.826 116.145C139.914 117.881 140.107 119.61 140.404 121.323C144.047 121.151 147.698 121.302 151.315 121.774C152.842 121.841 154.353 122.118 155.806 122.598C157.358 123.258 157.981 125.166 156.247 126.06C154.548 126.935 152.342 126.923 150.453 126.921Z" fill="#002657"/>
<path d="M150.411 138.339C152.514 138.315 154.614 138.484 156.686 138.843C164.583 140.123 177.283 143.343 179.711 143.865C179.711 143.152 179.658 143.416 179.849 142.896L180.207 142.712H180.215L180.593 142.847C180.86 143.359 180.764 143.081 180.851 143.827C180.91 144.566 181.012 144.949 180.504 145.186C180.296 145.244 180.429 145.249 178.974 145.053C170.333 143.843 164.124 141.664 154.974 140.343C154.026 140.206 151.386 139.698 149.595 139.427C149.432 139.403 149.525 139.439 149.109 139.207L148.978 138.843V138.837L149.157 138.493C149.64 138.305 149.364 138.336 150.411 138.339Z" fill="black"/>
<path d="M180.581 143.97C180.869 143.986 182.877 144.469 183.354 144.59C183.904 144.703 184.433 144.9 184.925 145.175C185.258 145.309 185.56 145.514 185.811 145.776L185.908 146.118V146.124L185.662 146.375L185.207 146.473C183.39 146.473 183.417 146.265 180.814 145.716C180.374 145.669 179.955 145.501 179.602 145.228C179.378 145.084 179.498 145.214 179.022 144.527C179.689 144.043 179.54 144.118 179.799 144.062C180.054 143.997 180.317 143.966 180.581 143.97Z" fill="black"/>
<path d="M212.49 142.842C212.747 143.342 212.671 142.944 212.793 144.928C212.892 147.141 212.758 149.357 212.394 151.542C211.479 157.053 208.864 162.143 204.913 166.106C199.314 171.895 191.304 174.837 183.312 175.226C174.964 175.599 168.185 173.38 160.531 170.079C155.556 167.925 150.148 165.599 146.091 162.209C144.158 162.899 142.148 163.354 140.105 163.565C135.738 163.98 131.085 163.337 127.878 160.436H127.874L127.695 160.071L127.812 159.691C127.822 159.685 128.165 159.514 128.177 159.509C128.615 159.641 128.537 159.6 128.676 159.716C129.089 160.039 129.526 160.331 129.984 160.587C134.667 163.074 140.613 162.336 145.581 160.555C147.388 159.88 145.799 160.898 153.63 165.003C157.728 167.075 165.41 170.498 170.848 172.03C192.155 177.849 210.139 166.189 211.601 147.487C211.825 143.232 211.414 143.837 211.736 142.903L212.101 142.717L212.49 142.842Z" fill="black"/>
<path d="M127.295 144.06C127.687 144.292 128.563 144.69 128.899 144.87C129.215 145.036 129.123 144.998 129.446 145.181C130.708 145.895 132.095 146.37 133.536 146.582C134.882 146.755 136.247 146.717 137.581 146.469C138.507 146.267 137.918 146.29 138.66 146.298L138.959 146.541L138.962 146.547V146.927C138.821 147.169 138.601 147.356 138.337 147.46C137.518 147.908 136.62 148.2 135.691 148.324C133.311 148.481 130.937 147.954 128.858 146.807C128.235 146.514 127.677 146.103 127.216 145.597C126.993 145.364 126.645 144.927 126.584 144.837L126.443 144.443L126.543 144.105V144.1L126.875 143.969L127.295 144.06Z" fill="black"/>
<path d="M128.379 152.734C131.432 153.214 131.818 153.865 135.787 153.441C136.627 153.364 137.461 153.234 138.285 153.053L138.7 153.087L138.962 153.338V153.343L138.939 153.708C138.658 154.01 138.779 153.976 137.877 154.403C136.952 154.847 135.95 155.113 134.925 155.187C133.819 155.28 132.705 155.241 131.608 155.073C130.269 154.987 128.99 154.49 127.949 153.651L127.705 153.321L127.695 152.986V152.981L127.958 152.769L128.366 152.732L128.379 152.734Z" fill="black"/>
<path d="M149.372 132.143H149.379L149.602 132.487C149.604 132.755 149.52 133.016 149.362 133.228C147.891 135.446 145.791 137.133 143.354 138.053C139.831 139.551 136.141 140.532 132.355 140.118C131.06 139.924 129.816 139.467 128.691 138.774C128.556 138.697 128.627 138.765 128.319 138.374V137.978L128.603 137.721C129.049 137.705 128.967 137.691 129.049 137.717C130.152 138.047 131.286 138.251 132.432 138.324C135.375 138.569 138.233 138.293 142.679 136.401C144.55 135.646 146.29 134.58 147.831 133.244C148.984 132.024 148.37 132.481 148.981 132.076L149.372 132.143Z" fill="black"/>
<path d="M74.6368 118.951H74.6435L74.9056 119.252L74.899 119.664C72.2749 126.793 71.3387 134.454 72.1668 142.023C72.4814 144.742 73.179 147.4 74.2381 149.915C76.6217 155.475 80.9038 158.71 86.8482 159.548C94.6312 160.644 105.287 157.061 111.787 150.924C112.556 150.197 112.23 150.402 112.763 150.175L113.141 150.326L113.297 150.702L113.15 151.094C105.087 159.718 89.8543 164.804 79.876 159.04C68.1401 152.22 68.0611 131.008 73.9412 119.205C73.9464 119.202 74.2425 118.936 74.2469 118.931L74.6368 118.951Z" fill="black"/>
<path d="M106.271 123.445V123.449L106.412 123.793L106.268 124.176C105.563 125.003 104.769 125.766 103.897 126.451C102.995 127.095 102.025 127.657 101.001 128.128C100.717 128.258 100.957 128.156 100.336 128.426C98.1245 129.331 98.3242 129.032 98.3555 129.29C99.087 133.78 99.3219 133.316 100.214 138.335C100.554 140.484 100.535 140.089 100.402 140.616L100.051 140.839H100.044L99.6267 140.752L99.3645 140.414C98.6491 137.916 97.0057 133.862 96.397 128.648C96.3754 127.819 97.0218 127.772 97.7965 127.54C98.604 127.291 99.3895 126.988 100.146 126.632C101.944 125.694 103.677 124.658 105.335 123.53C105.503 123.413 105.388 123.463 105.89 123.312L106.271 123.445Z" fill="black"/>
<path d="M102.49 110.267H102.496L102.656 110.596L102.551 110.988C101.825 112.114 100.891 113.104 99.7936 113.91C98.4785 114.874 97.0545 115.695 95.5482 116.357C94.7972 116.735 93.9717 116.96 93.1245 117.017C92.8344 117.079 92.5319 117.061 92.2519 116.966L92.0146 116.718C92.0146 116.71 92.0705 116.392 92.0719 116.384L92.3657 116.096C92.3848 116.089 93.5292 115.452 93.5769 115.428C94.9459 114.867 96.2668 114.204 97.5277 113.447C98.4443 112.873 100.759 111.158 101.539 110.499C101.798 110.279 101.655 110.366 102.122 110.167L102.49 110.267Z" fill="black"/>
<path d="M104.369 116.519V116.524L104.535 116.851L104.434 117.245C103.728 118.368 102.836 119.379 101.791 120.239C100.527 121.272 99.1046 122.121 97.5716 122.756C96.7776 123.13 95.8985 123.317 95.0103 123.301C94.701 123.337 94.3871 123.289 94.1069 123.16C94.1009 123.153 93.8988 122.893 93.8936 122.884L93.9931 122.564L94.3239 122.306C94.6233 122.197 95.6233 121.723 95.8546 121.635C97.2563 121.176 98.5731 120.514 99.7572 119.674C100.298 119.292 102.859 117.252 103.594 116.598L103.99 116.427L104.369 116.519Z" fill="black"/>
<path d="M101.904 104.074V104.079L102.03 104.479L101.86 104.881C101.41 105.159 96.583 111.257 88.6725 113.347C84.3363 114.5 78.7786 114.142 76.3681 110.244C76.1171 109.826 75.9122 109.38 75.7574 108.913C75.7277 108.822 75.7425 108.913 75.7574 108.435L76.0168 108.137H76.0235H76.403C76.7373 108.441 76.6869 108.372 76.7336 108.459C76.8181 108.484 77.6905 110.92 81.9874 111.871C88.5843 113.264 95.8914 108.481 101.142 104.044L101.542 103.908L101.904 104.074Z" fill="black"/>
<path d="M83.1034 111.42C78.7319 103.478 77.7274 99.9946 76.3643 97.6872C77.477 96.3856 78.5994 95.1108 79.8071 93.8931C84.7994 94.5395 89.8227 95.0341 94.8113 95.7421C95.4896 99.2535 97.3211 102.385 98.2726 105.803C95.969 108.117 92.873 109.373 89.7792 110.282C87.6904 111.009 85.4903 111.378 83.2743 111.375" fill="black"/>
<path fill-rule="evenodd" clip-rule="evenodd" d="M86.7465 94.0786C84.6847 93.8333 82.5419 93.5785 80.1761 93.2694C79.6698 93.242 79.4723 93.4614 79.0863 93.8902C79.0213 93.9624 78.9509 94.0406 78.8727 94.1246C78.1164 94.9374 77.4841 95.6357 76.3604 96.9684C76.2955 97.0451 76.2334 97.1146 76.1752 97.1797C75.8748 97.5158 75.6802 97.7336 75.7555 98.214C75.8311 98.4557 75.944 98.6841 76.0902 98.8907C76.645 99.9629 76.998 100.806 77.3507 101.647C77.5801 102.195 77.8095 102.743 78.0942 103.353C79.9619 107.337 82.3854 111.49 82.8441 112.276C82.8857 112.347 82.9112 112.391 82.9185 112.404C83.1527 112.563 83.1862 112.626 83.2366 112.646C83.2777 112.661 83.3302 112.647 83.5123 112.631C84.1049 112.682 84.7005 112.685 85.2936 112.641C88.7739 112.247 92.1656 111.281 95.3327 109.782C96.4444 109.233 97.4865 108.552 98.4367 107.754C98.8253 107.467 99.1668 107.12 99.449 106.727C99.5699 106.397 99.5348 106.275 99.4313 105.914C99.4217 105.881 99.4115 105.845 99.4008 105.808C98.9936 104.352 98.4605 103.013 97.9206 101.658C97.3129 100.132 96.6967 98.5844 96.2419 96.8248C96.1523 96.4759 96.106 96.2402 96.0722 96.0677C96.0058 95.729 95.9871 95.6335 95.781 95.4029C95.5304 95.1965 95.4822 95.19 94.7401 95.0898C94.6295 95.0749 94.5034 95.0579 94.359 95.0378C91.7638 94.6754 89.3181 94.3845 86.7465 94.0786ZM77.7926 97.9445C78.1589 97.5134 79.105 96.3998 80.3474 95.0773C80.3867 95.0356 94.4649 96.7237 94.4657 96.8092C94.5377 97.1156 94.5585 97.1997 94.6327 97.4971V97.5046C95.1405 99.3323 96.081 101.736 96.7903 103.549C97.3168 104.894 97.7158 105.914 97.7158 106.131C96.8182 106.985 95.8126 107.717 94.7247 108.309C92.2502 109.695 86.8922 111.588 83.6903 111.565C81.3123 106.502 79.9068 103.228 79.0023 101.121C78.3406 99.5792 77.947 98.6623 77.6368 98.1263C77.6575 98.1035 77.7105 98.0412 77.7926 97.9445Z" fill="black"/>
<path fill-rule="evenodd" clip-rule="evenodd" d="M94.5111 107.032C94.0929 106.68 94.2627 106.962 93.0339 104.999C92.9811 104.901 92.6693 104.396 92.4814 104.004C92.2278 103.468 91.5235 101.936 91.3061 101.385C90.5687 99.6582 90.5755 99.8596 91.365 98.6857C91.6375 98.2684 91.8783 97.9353 91.9145 97.8702C92.3153 97.3971 92.7599 96.964 93.2422 96.5769L93.6453 96.397L93.9933 96.459H94.0001L94.1601 96.7783C94.0989 97.3304 94.191 97.0716 93.6106 98.407C93.3121 98.9487 92.9825 99.4721 92.6233 99.9744C93.7344 102.769 93.9223 102.417 95.1338 106.243L95.1444 106.72L94.9126 107.038H94.9058L94.5111 107.032Z" fill="white"/>
<path d="M154.392 109.03L154.611 109.353C154.611 110.022 154.201 109.954 150.946 110.885C150.946 111.095 148.866 111.098 137.606 114.503C137.631 115.296 137.745 117.984 137.745 121.897C137.745 125.088 137.849 124.378 137.626 124.999L137.264 125.191L136.881 125.05L136.68 124.666C136.68 124.278 136.032 120.232 135.876 115.232C135.828 113.687 135.792 113.795 135.921 113.466C136.182 113.025 135.963 113.146 139.947 111.97C150.248 108.98 150.612 109.411 150.612 109.281C150.701 109.269 153.298 108.916 153.991 108.916L154.392 109.03Z" fill="black"/>
<path d="M144.731 124.579C149.412 124.649 148.574 124.696 153.401 124.696L153.801 124.859L153.983 125.249V125.256L153.842 125.667L153.463 125.876C153.463 125.969 148.673 126.364 144.501 126.467C129.797 126.54 129.158 127.431 124.118 126.9C123.099 126.793 122.004 126.575 121.916 126.563L121.557 126.336L121.434 125.938V125.929L121.623 125.561C121.873 125.409 122.164 125.354 122.446 125.406C126.045 125.38 135.823 124.439 144.731 124.579Z" fill="black"/>
<path d="M148.475 133.732C148.566 131.089 148.839 128.457 148.978 125.816C144.154 125.871 139.333 126.054 134.512 126.093C132.028 126.052 129.543 126.146 127.069 126.372C127.904 130.326 128.856 134.203 129.815 138.12C131.431 138.376 132.976 138.998 134.636 138.96C138.153 138.879 142.042 137.427 145.083 135.806C146.331 135.268 147.515 134.592 148.609 133.79" fill="black"/>
<path fill-rule="evenodd" clip-rule="evenodd" d="M149.579 125.816C149.567 125.77 149.55 125.725 149.528 125.667C149.48 125.583 149.454 125.512 149.411 125.452C149.099 125.014 147.907 125.204 131.116 125.464C129.625 125.492 128.402 125.537 126.926 125.689C126.886 125.693 126.847 125.697 126.811 125.701C126.431 125.739 126.246 125.758 125.975 126.077C125.747 126.448 125.788 126.626 125.952 127.343C125.988 127.496 126.028 127.674 126.073 127.884C126.538 130.038 127.102 132.457 127.353 133.505C128.624 138.9 128.648 138.925 128.768 139.054C128.78 139.067 128.793 139.081 128.809 139.101C129.038 139.314 129.063 139.319 129.525 139.409C129.753 139.453 130.088 139.518 130.607 139.639C132.852 140.355 135.258 140.403 137.53 139.777C138.926 139.451 140.293 139.009 141.616 138.458C143.017 137.87 144.379 137.194 145.695 136.436C146.733 135.952 147.714 135.357 148.621 134.66C148.697 134.596 148.736 134.563 148.766 134.524C148.813 134.464 148.839 134.387 148.948 134.154C148.907 134.027 148.877 133.956 148.859 133.883C148.777 133.551 148.948 133.157 149.521 127.068C149.605 126.171 149.624 125.985 149.579 125.816ZM130.147 137.792C129.552 135.362 128.197 129.729 127.706 127.329C129.035 127.212 135.178 127.105 140.442 127.013C143.793 126.955 146.788 126.903 147.957 126.858C147.938 127.521 147.913 128.15 147.886 128.8C147.827 130.226 147.764 131.755 147.764 133.97C147.273 134.308 146.751 134.603 146.207 134.849C145.909 134.987 145.58 135.146 145.223 135.319C142.997 136.394 139.68 137.996 135.895 138.451C133.841 138.689 133.038 138.485 131.814 138.174C131.349 138.056 130.824 137.922 130.147 137.792Z" fill="black"/>
<path fill-rule="evenodd" clip-rule="evenodd" d="M64.181 97.3044C64.1811 97.0455 63.9942 96.8242 63.7383 96.7801C63.6526 96.7726 29.9867 96.2011 27.0075 96.467C26.5992 96.5397 26.3015 96.8932 26.3003 97.3066C26.3003 131.101 26.2479 131.415 26.3798 131.589C26.39 131.603 26.4013 131.616 26.4138 131.643C26.5168 131.815 26.676 131.947 26.8647 132.017C27.2728 132.122 61.7136 132.056 63.6444 132.047C63.841 132.046 64.031 131.976 64.181 131.85C64.2062 131.825 64.2296 131.807 64.2514 131.787C64.5843 131.489 64.5273 130.755 64.181 97.3044ZM28.0171 130.358V98.1628C29.8387 98.1628 31.4415 98.1635 32.882 98.164C43.9783 98.1685 45.4428 98.1691 63.1079 97.8422C62.775 128.86 62.8765 130.395 62.8309 130.4C62.8267 130.4 62.8213 130.387 62.8141 130.384C21.6953 130.381 27.3351 130.371 31.1146 130.365C33.1491 130.361 34.6445 130.358 28.0171 130.358Z" fill="black"/>
<path d="M75.2193 153.555C75.9941 153.824 75.4689 153.535 76.1982 153.961L76.366 154.292V154.297L76.1808 154.618L75.7543 154.837C73.6165 155.271 75.3748 155.101 71.6722 155.201C71.2481 155.277 70.8117 155.229 70.4139 155.061C69.9161 154.83 70.168 155.026 69.4805 154.355C70.1346 153.661 69.9062 153.852 70.382 153.611C70.7698 153.425 71.2012 153.355 71.6266 153.408C74.4103 153.336 74.1173 153.31 75.2193 153.555Z" fill="black"/>
<path fill-rule="evenodd" clip-rule="evenodd" d="M67.292 165.367C67.0174 165.265 66.7206 165.23 66.4283 165.265C63.6945 165.258 57.6452 165.423 54.6325 165.639C51.6253 165.83 48.6349 166.216 45.6815 166.793L45.668 166.804L45.3021 166.876C45.3002 166.878 45.2762 166.912 45.2442 166.957C45.1758 167.052 45.071 167.198 45.0674 167.204L45.1499 167.59L45.4918 167.819C45.6608 167.853 45.7961 167.881 45.9198 167.906C46.3938 168.004 46.6967 168.067 48.0643 168.263C50.1981 168.56 52.1416 168.926 54.1202 169.299C57.1788 169.875 60.3213 170.467 64.3806 170.846C65.1589 170.92 65.9307 171.013 66.6982 171.105C69.1431 171.398 71.5442 171.685 73.9735 171.381C73.9938 171.379 74.0134 171.376 74.0323 171.374C74.4894 171.317 74.5392 171.311 74.7855 171.156C74.9432 171.037 75.053 170.87 75.0959 170.682C75.1878 170.057 74.9295 169.893 73.8925 169.237C73.6857 169.106 73.4479 168.955 73.1757 168.778C71.3054 167.501 69.3387 166.362 67.292 165.367ZM55.4654 167.251C58.2878 167.126 62.2557 166.951 66.1296 166.943C66.5558 166.942 66.6427 166.936 66.7169 166.964C66.7543 166.978 66.7885 167.001 66.8614 167.037C68.5217 167.881 70.1311 168.814 71.6818 169.833C69.5802 169.813 59.5202 168.678 59.5202 168.596C57.5185 168.34 54.2996 167.865 52.4483 167.592C52.2795 167.567 52.1221 167.544 51.978 167.522C51.5807 167.465 51.3078 167.441 51.3083 167.425C51.3089 167.403 51.8676 167.399 53.4183 167.338C53.9963 167.316 54.6873 167.286 55.4654 167.251Z" fill="black"/>
<path d="M59.9573 155.239C61.8319 155.218 63.706 155.316 65.5674 155.533C66.5969 155.631 66.3046 155.565 66.8092 155.789L66.9769 156.142V156.147L66.8092 156.499L66.4058 156.675C66.0432 156.675 64.744 156.88 61.9076 156.948C60.2073 156.991 60.8864 156.83 54.6682 157.053C53.0715 157.21 51.4585 157.063 49.92 156.619L49.568 156.387L49.4502 156.042V156.036L49.6481 155.729C50.8144 155.302 58.7789 155.235 59.9573 155.239Z" fill="black"/>
<path d="M32.3202 162.122C32.8334 162.138 33.2574 162.231 35.0089 162.276C37.5948 162.33 38.3174 162.172 39.816 162.233C42.2323 162.341 41.8421 162.305 42.3674 162.498L42.564 162.823V162.828L42.4139 163.176L42.0132 163.387C39.7652 163.898 37.4519 164.091 35.1462 163.96C32.0275 163.898 31.5833 163.666 30.5559 163.237C30.4434 163.192 30.5169 163.237 30.1417 162.934L30.0449 162.602C30.0502 162.593 30.2528 162.332 30.2588 162.324L30.67 162.19C30.7638 162.183 32.1138 162.113 32.3202 162.122Z" fill="black"/>
<path d="M216.999 172.948L217.206 173.374V173.381L217.006 173.814L216.523 174.003L211.593 174.413L190.073 174.768L178.824 174.939L168.03 175.085L154.329 175.231L138.172 175.402L102.063 175.787L66.8095 176.164L51.7249 176.325L39.5164 176.455L33.9462 176.49L27.9162 176.51L15.7983 176.519L0.876312 176.494H0.537771L0.163279 176.316L0 175.894V175.887L0.15504 175.461L0.529532 175.276L0.871069 175.267L15.7894 174.919L27.9042 174.664L33.9335 174.555L39.5082 174.47L51.7122 174.34L66.7967 174.179L102.047 173.803L138.159 173.418L154.313 173.247L168.015 173.101L178.811 173.015L190.06 172.945L211.582 172.841L216.511 172.763L216.999 172.948Z" fill="black"/>
<path fill-rule="evenodd" clip-rule="evenodd" d="M10.4671 153.358C15.6235 153.459 15.9271 153.465 17.9422 153.896C18.1926 153.927 18.4306 154.026 18.6323 154.182L18.7779 154.535V154.541L18.5908 154.874C18.3742 155.005 18.1274 155.074 17.8759 155.075C16.4921 155.247 15.0955 155.281 13.7052 155.178C12.3885 155.206 11.0713 155.156 9.76016 155.029C8.58007 154.75 8.66379 154.742 8.28232 154.504L8.13672 154.191V154.186L8.2947 153.879L8.66452 153.665C9.24932 153.481 9.85557 153.377 10.4671 153.358V153.358Z" fill="white"/>
<path fill-rule="evenodd" clip-rule="evenodd" d="M23.6446 162.212C25.3313 162.334 24.8913 162.231 25.4779 162.464L25.6635 162.8V162.805L25.5043 163.154L25.1061 163.345C20.9686 163.908 21.9014 163.742 14.1984 163.963C12.9807 164.049 11.7567 163.982 10.5566 163.762L10.1811 163.585L10.0146 163.272V163.267L10.1547 162.942L10.5155 162.737C10.8089 162.693 10.8411 162.643 11.8766 162.466C12.6267 162.334 13.3882 162.276 14.15 162.291C21.8999 162.073 20.9679 162.087 23.6446 162.212Z" fill="white"/>
<path fill-rule="evenodd" clip-rule="evenodd" d="M24.4889 171.302C24.9696 171.637 24.851 171.494 25.0369 171.919C24.2357 172.546 24.5265 172.39 23.9152 172.546C23.239 172.746 22.6334 172.712 20.483 172.754C20.3043 172.777 20.1225 172.758 19.9527 172.699C19.2941 172.435 19.3622 172.426 18.7773 171.841C19.395 171.252 19.2893 171.284 19.939 170.999C20.2042 170.916 20.0424 170.941 20.761 170.921C23.0219 170.878 23.179 170.783 24.4889 171.302Z" fill="white"/>
<path d="M171.796 122.305C172.508 122.779 172.31 122.559 172.871 125.523C173.821 130.713 174.374 132.999 174.825 135.913C175.382 139.535 175.419 139.164 174.883 139.588H174.877L174.484 139.511L174.215 139.16C174.215 139.072 174.201 139.19 173.535 136.981C172.36 132.863 172.52 132.929 171.049 125.357C170.671 123.27 170.916 123.955 170.109 123.101C169.949 122.937 169.619 122.605 169.541 122.529C169.283 122.258 168.992 122.021 168.674 121.825L168.399 121.499L168.379 121.115V121.11L168.654 120.844L169.075 120.809C170.058 121.151 170.977 121.656 171.796 122.305Z" fill="black"/>
<path fill-rule="evenodd" clip-rule="evenodd" d="M88.2568 98.8866C90.5368 99.1931 89.6623 99.0022 90.8889 99.3429C91.7156 99.6367 91.3452 99.4265 91.8851 99.7866L92.0172 100.103V100.108L91.8521 100.406L91.4802 100.596C90.7782 100.774 90.0504 100.823 89.3315 100.739C88.1988 100.607 84.0849 100.045 82.9625 99.7925C80.9422 99.3452 81.3978 99.5047 80.8886 99.2147L80.75 98.8658V98.8598L80.9253 98.5273C81.1922 98.3716 81.4987 98.3002 81.8056 98.3222C84.0856 98.1731 84.6321 98.3804 88.2568 98.8866Z" fill="white"/>
<path d="M116.119 130.198L116.474 130.351L116.674 130.708C117.094 133.651 116.979 131.336 117.049 140.986C117.072 143.05 116.966 145.113 116.733 147.166L116.544 147.56L116.163 147.725H116.159L115.778 147.561C115.576 147.141 115.583 147.428 115.393 145.109C115.214 142.855 115.174 143.101 115.174 134.308C115.17 133.096 115.295 131.888 115.548 130.698L115.755 130.344L116.115 130.2L116.119 130.198Z" fill="black"/>
<path d="M46.6351 101.404C48.8822 101.404 50.7038 99.5829 50.7038 97.3358C50.7038 95.0887 48.8822 93.2671 46.6351 93.2671C44.388 93.2671 42.5664 95.0887 42.5664 97.3358C42.5664 99.5829 44.388 101.404 46.6351 101.404Z" fill="#FF7979"/>
<path fill-rule="evenodd" clip-rule="evenodd" d="M50.7803 94.6082C49.9895 93.0645 48.458 92.0782 46.7688 92.0247C46.2127 91.9961 45.6552 92.0318 45.1068 92.1313C43.5563 92.4694 42.2685 93.5794 41.6681 95.0951C41.0677 96.6108 41.2327 98.3355 42.1087 99.7003C43.0565 101.191 44.6816 102.072 46.4073 102.029C48.1331 101.986 49.7153 101.026 50.5927 99.4894C51.4994 98.0155 51.5711 96.1519 50.7803 94.6082ZM43.0088 96.5144C43.1318 94.7027 44.5347 93.2657 46.2886 93.1547L46.2901 93.1462C47.3479 93.2779 48.2979 93.8789 48.8927 94.7926C49.4875 95.7063 49.6681 96.8422 49.3876 97.9046C49.3232 98.1124 49.2391 98.3132 49.1365 98.5039C47.4133 101.461 43.0088 100.525 43.0088 96.5144Z" fill="black"/>
<path d="M58.8495 125.202C62.507 125.33 64.0646 125.097 67.3226 125.339C69.2427 125.485 68.8579 125.432 69.3191 125.641L69.4818 125.988V125.994L69.3276 126.343C68.8356 126.58 69.2204 126.494 67.3489 126.695C64.7117 126.95 62.0601 127.033 59.4117 126.944C58.2928 132.853 57.1338 137.059 53.7293 142.245C53.5442 142.526 53.6521 142.422 53.2319 142.717L52.8278 142.673L52.5811 142.35C52.6366 141.847 52.5972 141.989 52.7476 141.697C53.5051 140.206 54.1773 138.675 54.761 137.111C58.2827 127.726 57.2633 126.071 58.1493 125.352C58.3551 125.218 58.6051 125.164 58.8495 125.202Z" fill="black"/>
<path fill-rule="evenodd" clip-rule="evenodd" d="M64.7782 148.458C63.5038 147.586 62.004 147.115 60.4667 147.104C60.3812 147.104 33.2881 147.073 32.4915 147.162C28.8296 147.629 25.9913 150.633 25.6898 154.362C25.6448 155.008 25.6658 175.648 25.6763 175.8C25.7488 176.216 26.1056 176.519 26.5224 176.518C67.4597 176.518 67.6163 176.251 67.65 176.193C67.6513 176.191 67.6524 176.189 67.6555 176.188C67.7774 176.112 67.8691 175.995 67.9143 175.858C67.9203 175.832 67.9253 175.818 67.9295 175.803C67.9625 175.684 67.9396 175.551 67.873 170.109H67.8835C67.8403 169.563 67.5663 169.534 65.7311 169.34C64.6337 169.224 62.9782 169.049 60.4802 168.67C57.7783 168.25 55.4554 167.817 52.388 167.247C52.0603 167.186 51.724 167.123 51.3779 167.059C57.3621 166.637 63.5668 166.495 66.7051 166.522C66.7914 166.523 66.8169 166.52 66.8402 166.526C66.8737 166.535 66.9026 166.561 67.0997 166.643C67.4794 166.762 67.8898 166.596 68.0838 166.244C68.104 166.199 68.1207 166.168 68.1344 166.136C68.2193 165.936 68.1916 165.689 68.2046 161.682C68.2046 160.429 68.2119 159.37 68.2181 158.463C68.2482 154.108 68.254 153.268 67.3097 151.325C66.7163 150.169 65.8458 149.183 64.7782 148.458ZM42.4275 148.819C45.6698 148.829 49.9624 148.843 55.6912 148.843C56.6681 148.843 57.4651 148.84 58.1237 148.838C60.5984 148.828 61.1198 148.825 61.8929 149.032C64.5462 149.718 66.4235 152.112 66.4835 154.887C66.4835 164.205 66.5251 164.828 66.4745 164.836C66.4671 164.837 66.4577 164.825 66.4459 164.825C54.1711 164.878 46.7885 166.049 45.8312 166.201C45.7665 166.211 45.7311 166.217 45.7256 166.217C45.3885 166.234 45.109 166.488 45.0548 166.826C45.0006 167.163 45.1863 167.494 45.5006 167.618C45.9904 167.765 47.0226 167.891 48.2919 168.045C49.3844 168.179 50.6527 168.333 51.9018 168.541C60.151 169.924 61.7291 170.077 63.9505 170.293C64.7083 170.367 65.5411 170.447 66.7392 170.587V175.036L66.7287 175.024C56.201 174.884 51.7599 174.824 47.3185 174.799C42.804 174.773 38.2892 174.784 27.3815 174.784C27.3815 170.141 27.3748 166.546 27.3696 163.747C27.3515 154.02 27.3513 153.931 27.7131 152.997C28.2847 151.318 29.5421 149.971 31.1635 149.3C32.4237 148.786 32.6452 148.786 42.4275 148.819Z" fill="black"/>
<path fill-rule="evenodd" clip-rule="evenodd" d="M140.414 21.2822C140.962 21.3032 141.502 21.4015 142.016 21.5737C142.357 21.6866 142.227 21.6259 142.617 21.9103L142.717 22.2307V22.2356L142.502 22.5024C141.835 22.7197 142.224 22.5842 141.344 22.7141C139.999 22.7911 138.691 23.1399 137.514 23.7352C136.793 24.1124 136.134 24.5805 135.558 25.1255C134.622 25.962 133.795 26.8935 133.094 27.9017L132.758 28.1614L132.365 28.1677H132.357L132.096 27.8974C132.041 27.5844 132.101 27.2635 132.268 26.985C132.689 25.8643 133.381 24.8433 134.292 23.9963C134.985 23.3515 135.77 22.7946 136.627 22.3408C137.775 21.711 139.075 21.3475 140.414 21.2822Z" fill="white"/>
<path fill-rule="evenodd" clip-rule="evenodd" d="M131.825 33.4676C131.774 33.3759 131.728 33.2802 131.689 33.1811C131.528 32.5252 131.448 31.8483 131.45 31.1687C131.487 31.0694 131.535 30.9757 131.593 30.8896H131.597C131.649 30.8127 131.706 30.7399 131.767 30.6719C133.03 30.7488 132.729 30.6719 132.959 30.9272C132.987 30.9732 133.018 31.0169 133.051 31.0582C133.068 31.0901 133.081 31.1097 133.099 31.14C133.142 31.6736 133.219 32.2032 133.327 32.7253C133.342 33.3291 133.188 33.9233 132.888 34.4276C132.166 33.9521 132.225 34.0519 131.825 33.4676Z" fill="white"/>
<path fill-rule="evenodd" clip-rule="evenodd" d="M133.671 92.6608L133.952 92.9259C133.952 92.9347 133.939 93.3056 133.938 93.3137L133.65 93.6094C132.664 94.0797 131.087 94.8852 130.245 95.3321C127.53 96.8364 127.111 96.8036 123.226 99.1667C119.977 101.138 119 102.123 116.003 103.821L115.602 103.908C115.591 103.903 115.277 103.75 115.266 103.743L115.174 103.392L115.345 103.027C115.345 102.942 116.995 101.425 117.334 101.137C121.101 98.2985 125.19 95.8957 129.518 93.976C132.869 92.644 133.252 92.7244 133.252 92.6411L133.671 92.6608Z" fill="white"/>
</svg>
