<svg width="235" height="202" viewBox="0 0 235 202" fill="none" xmlns="http://www.w3.org/2000/svg">
<path d="M14.5896 102.584C14.5896 102.584 6.56863 102.469 6.52832 109.39" stroke="#263238" stroke-linecap="round" stroke-linejoin="round"/>
<path d="M13.921 106.948C13.754 105.929 10.2646 104.645 9.66 107.305C9.0554 109.966 13.3912 108.371 14.7329 107.127C14.7329 107.127 12.2454 109.545 13.0054 110.225" stroke="#263238" stroke-linecap="round" stroke-linejoin="round"/>
<path d="M14.4106 110.979C14.4106 110.979 13.3569 112.298 12.2168 111.67" stroke="#263238" stroke-linecap="round" stroke-linejoin="round"/>
<path d="M21.4293 106.373L15.4121 112.482C15.4121 112.482 18.4409 109.413 20.1971 110.403C22.3851 111.601 19.5464 114.883 17.2086 112.534" stroke="#263238" stroke-linecap="round" stroke-linejoin="round"/>
<path d="M24.4701 108.019C24.4701 108.019 26.0651 115.326 17.8311 115.585" stroke="#263238" stroke-linecap="round" stroke-linejoin="round"/>
<path d="M176.172 34.293L174.156 41.5769L178.561 46.4022" stroke="#263238" stroke-linecap="round" stroke-linejoin="round"/>
<path d="M178.693 37.2529L183.737 41.4736" stroke="#263238" stroke-linecap="round" stroke-linejoin="round"/>
<path d="M182.166 36.2163L179.983 41.5771" stroke="#263238" stroke-linecap="round" stroke-linejoin="round"/>
<path d="M185.713 40.8862C185.713 40.8862 185.759 42.4064 185.103 42.6137" stroke="#263238" stroke-linecap="round" stroke-linejoin="round"/>
<path d="M186.352 35.5771L189.398 37.8401" stroke="#263238" stroke-linecap="round" stroke-linejoin="round"/>
<path d="M190.526 33.7173L187.521 44.5424" stroke="#263238" stroke-linecap="round" stroke-linejoin="round"/>
<path d="M190.677 29.9573L195.56 35.485L193.481 41.531" stroke="#263238" stroke-linecap="round" stroke-linejoin="round"/>
<path d="M56.2021 172.596L63.2673 151.568L71.8353 161.132L56.2021 172.596Z" stroke="#263238" stroke-linecap="round" stroke-linejoin="round"/>
<path d="M69.7338 162.669L67.9258 160.602L69.8547 158.932" stroke="#263238" stroke-linecap="round" stroke-linejoin="round"/>
<path d="M14.4408 54.4504C18.1103 52.9304 19.8529 48.7234 18.3329 45.0538C16.8129 41.3842 12.606 39.6416 8.93637 41.1616C5.26678 42.6816 3.52419 46.8886 5.04418 50.5582C6.56418 54.2278 10.7712 55.9704 14.4408 54.4504Z" stroke="#263238" stroke-linecap="round" stroke-linejoin="round"/>
<path d="M19.6672 49.4887C24.0748 49.4887 27.6479 45.9156 27.6479 41.508C27.6479 37.1004 24.0748 33.5273 19.6672 33.5273C15.2596 33.5273 11.6865 37.1004 11.6865 41.508C11.6865 45.9156 15.2596 49.4887 19.6672 49.4887Z" stroke="#263238" stroke-linecap="round" stroke-linejoin="round"/>
<path d="M13.103 40.7537L12.1299 44.1337" stroke="#263238" stroke-linecap="round" stroke-linejoin="round"/>
<path d="M14.4807 41.1741L13.1045 46.0454" stroke="#263238" stroke-linecap="round" stroke-linejoin="round"/>
<path d="M15.9257 41.9917L14.4805 47.5022" stroke="#263238" stroke-linecap="round" stroke-linejoin="round"/>
<path d="M17.5317 43.6096L16.501 48.8379" stroke="#263238" stroke-linecap="round" stroke-linejoin="round"/>
<path d="M18.4343 45.314L17.5303 49.2007" stroke="#263238" stroke-linecap="round" stroke-linejoin="round"/>
<path d="M4.8113 38.5887C4.18368 38.3987 2.46201 40.034 3.79788 41.1338C5.13376 42.2336 5.47348 39.3028 5.14527 38.1799C5.14527 38.1799 5.81897 40.2931 6.42932 40.0398" stroke="#263238" stroke-linecap="round" stroke-linejoin="round"/>
<path d="M14.0938 29.3584L16.397 33.5503C16.397 33.5503 15.2454 31.4543 16.0573 30.6712C17.0476 29.7039 18.3605 31.748 16.7022 32.6059" stroke="#263238" stroke-linecap="round" stroke-linejoin="round"/>
<path d="M56.1797 28.8577L59.433 31.9382" stroke="#263238" stroke-linecap="round" stroke-linejoin="round"/>
<path d="M59.4335 28.0571L56.71 32.1223" stroke="#263238" stroke-linecap="round" stroke-linejoin="round"/>
<path d="M62.6348 29.2262L65.8881 28.0112" stroke="#263238" stroke-linecap="round" stroke-linejoin="round"/>
<path d="M67.4482 24.6196L69.429 26.3701" stroke="#263238" stroke-linecap="round" stroke-linejoin="round"/>
<path d="M70.9432 22.5122L68.4385 31.1148" stroke="#263238" stroke-linecap="round" stroke-linejoin="round"/>
<path d="M213.145 20.7847L213.007 14.209H217.976C217.976 14.209 215.224 15.7291 216.49 19.2646C217.757 22.8 219.796 20.7847 219.796 20.7847" stroke="#263238" stroke-linecap="round" stroke-linejoin="round"/>
<path d="M204.727 132.958L210.381 129.065L217.866 129.589L218.333 139.078L212.84 143.011L206.057 142.516L204.727 132.958Z" stroke="#263238" stroke-linecap="round" stroke-linejoin="round"/>
<path d="M206.057 142.516L211.527 138.577L218.333 139.078" stroke="#263238" stroke-linecap="round" stroke-linejoin="round"/>
<path d="M211.532 138.578L210.381 129.065" stroke="#263238" stroke-linecap="round" stroke-linejoin="round"/>
<path d="M204.727 132.958L212.195 133.821L217.866 129.589" stroke="#263238" stroke-linecap="round" stroke-linejoin="round"/>
<path d="M212.195 133.821L212.84 143.011" stroke="#263238" stroke-linecap="round" stroke-linejoin="round"/>
<path d="M205.756 61.6843L205.515 74.3348L216.599 69.3022L205.756 61.6843Z" stroke="#263238" stroke-linecap="round" stroke-linejoin="round"/>
<path d="M205.756 61.6843L211.036 71.7552" stroke="#263238" stroke-linecap="round" stroke-linejoin="round"/>
<path d="M210.189 70.137L211.473 69.5151L212.337 71.2368" stroke="#263238" stroke-linecap="round" stroke-linejoin="round"/>
<path d="M109.114 60.4866L113.698 65.3982" stroke="#263238" stroke-linecap="round" stroke-linejoin="round"/>
<path d="M113.731 59.8245L109.879 65.0989" stroke="#263238" stroke-linecap="round" stroke-linejoin="round"/>
<path d="M115.608 57.2506C115.828 57.1485 116.079 57.1379 116.307 57.221C116.535 57.3041 116.72 57.4742 116.823 57.6939C116.859 57.7726 116.884 57.8559 116.898 57.9415C117.122 59.0471 115.309 60.4866 115.309 60.4866H117.894" stroke="#263238" stroke-linecap="round" stroke-linejoin="round"/>
<path d="M192.157 1C191.596 2.65481 190.666 4.16024 189.437 5.40226C188.208 6.64429 186.712 7.59035 185.063 8.16879" stroke="#263238" stroke-linecap="round" stroke-linejoin="round"/>
<path d="M99.6299 169.383C99.6244 167.873 99.9888 166.384 100.691 165.047C101.394 163.71 102.413 162.565 103.661 161.713" stroke="#263238" stroke-linecap="round" stroke-linejoin="round"/>
<path d="M115.586 175.763C114.488 176.918 113.11 177.77 111.586 178.237C110.062 178.704 108.444 178.769 106.887 178.428C105.33 178.086 103.888 177.349 102.699 176.287C101.511 175.225 100.616 173.874 100.103 172.366" stroke="#263238" stroke-linecap="round" stroke-linejoin="round"/>
<path d="M108.872 160.118C111.329 160.118 113.686 161.095 115.423 162.832C117.161 164.569 118.137 166.926 118.137 169.383" stroke="#263238" stroke-linecap="round" stroke-linejoin="round"/>
<path d="M108.872 177.554C106.705 177.554 104.627 176.693 103.094 175.161C101.562 173.628 100.701 171.55 100.701 169.383" stroke="#263238" stroke-linecap="round" stroke-linejoin="round"/>
<path d="M102.509 164.253C103.266 163.317 104.221 162.56 105.305 162.036C106.389 161.512 107.575 161.234 108.779 161.221C109.982 161.209 111.174 161.462 112.269 161.963C113.363 162.465 114.334 163.201 115.11 164.121C115.887 165.041 116.451 166.121 116.763 167.284C117.074 168.447 117.124 169.664 116.911 170.849C116.697 172.033 116.224 173.156 115.526 174.137C114.828 175.118 113.923 175.933 112.873 176.523" stroke="#263238" stroke-linecap="round" stroke-linejoin="round"/>
<path d="M107.605 174.934L108.872 169.383L107.104 164.846" stroke="#263238" stroke-linecap="round" stroke-linejoin="round"/>
<path d="M1 197.321H233.96" stroke="#263238" stroke-linecap="round" stroke-linejoin="round"/>
<path d="M119.204 75.9008L115.409 148.147L67.335 145.625L67.738 137.967L71.1295 73.373L101.4 74.9623L119.204 75.9008Z" fill="white"/>
<mask id="mask0_274_33052" style="mask-type:luminance" maskUnits="userSpaceOnUse" x="67" y="73" width="53" height="76">
<path d="M119.204 75.9008L115.409 148.147L67.335 145.625L67.738 137.967L71.1295 73.373L101.4 74.9623L119.204 75.9008Z" fill="white"/>
</mask>
<g mask="url(#mask0_274_33052)">
<path opacity="0.2" d="M104.198 118.228L93.3674 119.121L96.5286 132.762L67.7383 137.967L71.1298 73.373L101.4 74.9623L104.198 118.228Z" fill="black" fill-opacity="0.7"/>
</g>
<path d="M119.204 75.9008L115.409 148.147L67.335 145.625L67.738 137.967L71.1295 73.373L101.4 74.9623L119.204 75.9008Z" stroke="#263238" stroke-linecap="round" stroke-linejoin="round"/>
<path d="M74.5205 78.3135L87.0328 78.9699" stroke="#263238" stroke-width="2" stroke-linecap="round" stroke-linejoin="round"/>
<path d="M74.3936 80.7146L82.904 81.1637" stroke="#263238" stroke-width="2" stroke-linecap="round" stroke-linejoin="round"/>
<path d="M77.1455 86.5476L113.133 88.4363" stroke="#263238" stroke-width="2" stroke-linecap="round" stroke-linejoin="round"/>
<path d="M77.0186 88.9487L113.006 90.8374" stroke="#263238" stroke-width="2" stroke-linecap="round" stroke-linejoin="round"/>
<path d="M76.876 91.7529L107.566 93.3594" stroke="#263238" stroke-width="2" stroke-linecap="round" stroke-linejoin="round"/>
<path d="M76.8873 94.3107L76.7334 97.2375L79.6602 97.3914L79.8141 94.4646L76.8873 94.3107Z" stroke="#263238" stroke-linecap="round" stroke-linejoin="round"/>
<path d="M82.1939 94.5917L82.04 97.5186L84.9668 97.6725L85.1207 94.7456L82.1939 94.5917Z" stroke="#263238" stroke-linecap="round" stroke-linejoin="round"/>
<path d="M87.4928 94.873L87.3389 97.7998L90.2657 97.9537L90.4196 95.0269L87.4928 94.873Z" stroke="#263238" stroke-linecap="round" stroke-linejoin="round"/>
<path d="M92.7965 95.154L92.6426 98.0808L95.5694 98.2347L95.7233 95.3079L92.7965 95.154Z" stroke="#263238" stroke-linecap="round" stroke-linejoin="round"/>
<path d="M75.2294 86.444C75.2257 86.5393 75.2032 86.633 75.1633 86.7196C75.1234 86.8062 75.0668 86.8841 74.9967 86.9488C74.9266 87.0135 74.8445 87.0638 74.755 87.0967C74.6655 87.1296 74.5704 87.1446 74.4751 87.1408C74.2811 87.1308 74.0991 87.0443 73.969 86.9001C73.8388 86.7559 73.7713 86.566 73.7812 86.3721C73.7912 86.1781 73.8777 85.996 74.0219 85.8659C74.166 85.7358 74.356 85.6683 74.5499 85.6782C74.6452 85.6826 74.7387 85.7058 74.8251 85.7464C74.9114 85.7871 74.9889 85.8443 75.0531 85.9149C75.1173 85.9855 75.1669 86.0681 75.1991 86.1579C75.2314 86.2477 75.2455 86.343 75.2409 86.4383L75.2294 86.444Z" fill="#263238"/>
<path d="M76.4092 100.557L112.397 102.446" stroke="#263238" stroke-width="2" stroke-linecap="round" stroke-linejoin="round"/>
<path d="M76.2822 102.958L112.27 104.847" stroke="#263238" stroke-width="2" stroke-linecap="round" stroke-linejoin="round"/>
<path d="M76.1377 105.762L106.828 107.369" stroke="#263238" stroke-width="2" stroke-linecap="round" stroke-linejoin="round"/>
<path d="M76.1441 108.329L75.9902 111.256L78.917 111.41L79.0709 108.483L76.1441 108.329Z" stroke="#263238" stroke-linecap="round" stroke-linejoin="round"/>
<path d="M81.4557 108.604L81.3018 111.531L84.2286 111.685L84.3825 108.758L81.4557 108.604Z" stroke="#263238" stroke-linecap="round" stroke-linejoin="round"/>
<path d="M86.7545 108.88L86.6006 111.807L89.5274 111.961L89.6813 109.034L86.7545 108.88Z" stroke="#263238" stroke-linecap="round" stroke-linejoin="round"/>
<path d="M92.0533 109.161L91.8994 112.088L94.8262 112.242L94.9801 109.315L92.0533 109.161Z" stroke="#263238" stroke-linecap="round" stroke-linejoin="round"/>
<path d="M74.4968 100.453C74.4924 100.55 74.4691 100.644 74.4282 100.731C74.3873 100.818 74.3296 100.896 74.2584 100.961C74.1873 101.025 74.1041 101.075 74.0136 101.108C73.9231 101.141 73.8271 101.155 73.731 101.15C73.5855 101.143 73.4453 101.093 73.3281 101.007C73.211 100.92 73.1221 100.801 73.0728 100.664C73.0235 100.526 73.0159 100.378 73.051 100.236C73.0862 100.095 73.1624 99.9671 73.2701 99.869C73.3779 99.771 73.5123 99.707 73.6564 99.6853C73.8004 99.6635 73.9477 99.685 74.0796 99.7469C74.2115 99.8088 74.322 99.9084 74.3973 100.033C74.4726 100.158 74.5093 100.302 74.5026 100.448L74.4968 100.453Z" fill="#263238"/>
<path d="M75.6768 114.566L111.659 116.455" stroke="#263238" stroke-width="2" stroke-linecap="round" stroke-linejoin="round"/>
<path d="M75.5508 116.968L111.533 118.856" stroke="#263238" stroke-width="2" stroke-linecap="round" stroke-linejoin="round"/>
<path d="M75.4004 119.766L106.091 121.378" stroke="#263238" stroke-width="2" stroke-linecap="round" stroke-linejoin="round"/>
<path d="M75.4137 122.33L75.2598 125.257L78.1866 125.411L78.3405 122.484L75.4137 122.33Z" stroke="#263238" stroke-linecap="round" stroke-linejoin="round"/>
<path d="M81.3389 122.593L81.1924 125.526L84.1253 125.673L84.2719 122.74L81.3389 122.593Z" stroke="#263238" stroke-width="1.00125" stroke-linecap="round" stroke-linejoin="round"/>
<path d="M86.0162 122.893L85.8623 125.819L88.7891 125.973L88.943 123.046L86.0162 122.893Z" stroke="#263238" stroke-linecap="round" stroke-linejoin="round"/>
<path d="M91.3277 123.168L91.1738 126.094L94.1006 126.248L94.2545 123.322L91.3277 123.168Z" stroke="#263238" stroke-linecap="round" stroke-linejoin="round"/>
<path d="M73.7597 114.463C73.7553 114.559 73.7319 114.653 73.691 114.74C73.6501 114.827 73.5924 114.905 73.5213 114.97C73.4502 115.035 73.367 115.085 73.2765 115.117C73.186 115.15 73.0899 115.164 72.9939 115.159C72.7984 115.159 72.6109 115.082 72.4727 114.943C72.3345 114.805 72.2568 114.618 72.2568 114.422C72.2568 114.227 72.3345 114.039 72.4727 113.901C72.6109 113.763 72.7984 113.685 72.9939 113.685H73.0975C73.1936 113.69 73.2878 113.713 73.3749 113.754C73.4619 113.795 73.54 113.853 73.6047 113.924C73.6694 113.995 73.7195 114.078 73.752 114.169C73.7845 114.259 73.7989 114.355 73.7942 114.451L73.7597 114.463Z" fill="#263238"/>
<path d="M74.918 128.973L110.9 130.868" stroke="#263238" stroke-width="2" stroke-linecap="round" stroke-linejoin="round"/>
<path d="M74.792 131.374L110.78 133.268" stroke="#263238" stroke-width="2" stroke-linecap="round" stroke-linejoin="round"/>
<path d="M74.6475 134.178L105.338 135.79" stroke="#263238" stroke-width="2" stroke-linecap="round" stroke-linejoin="round"/>
<path d="M74.65 136.744L74.4961 139.671L77.4229 139.825L77.5768 136.898L74.65 136.744Z" stroke="#263238" stroke-linecap="round" stroke-linejoin="round"/>
<path d="M79.9615 137.019L79.8076 139.946L82.7344 140.1L82.8883 137.173L79.9615 137.019Z" stroke="#263238" stroke-linecap="round" stroke-linejoin="round"/>
<path d="M85.2721 137.295L85.1182 140.222L88.045 140.376L88.1989 137.449L85.2721 137.295Z" stroke="#263238" stroke-linecap="round" stroke-linejoin="round"/>
<path d="M90.5719 137.582L90.418 140.509L93.3448 140.662L93.4987 137.736L90.5719 137.582Z" stroke="#263238" stroke-linecap="round" stroke-linejoin="round"/>
<path d="M73.0004 128.875C72.9923 129.019 72.9415 129.158 72.8546 129.274C72.7677 129.389 72.6485 129.476 72.5121 129.524C72.3756 129.572 72.2281 129.578 72.0881 129.542C71.9482 129.506 71.822 129.429 71.7256 129.322C71.6291 129.214 71.5668 129.08 71.5464 128.937C71.526 128.794 71.5484 128.648 71.6109 128.518C71.6734 128.387 71.7731 128.278 71.8974 128.205C72.0218 128.131 72.1651 128.096 72.3095 128.104C72.4056 128.109 72.4997 128.133 72.5864 128.174C72.6732 128.216 72.7509 128.274 72.8151 128.346C72.8793 128.418 72.9287 128.501 72.9605 128.592C72.9923 128.683 73.0059 128.779 73.0004 128.875Z" fill="#263238"/>
<path d="M77.8828 95.5301L78.2628 96.1865L79.8233 94.4648" stroke="#263238" stroke-width="2" stroke-linecap="round" stroke-linejoin="round"/>
<path d="M87.7637 109.919L88.1437 110.576L89.7041 108.854" stroke="#263238" stroke-width="2" stroke-linecap="round" stroke-linejoin="round"/>
<path d="M92.7217 124.706L93.1017 125.363L94.6621 123.635" stroke="#263238" stroke-width="2" stroke-linecap="round" stroke-linejoin="round"/>
<path d="M80.9746 137.904L81.3546 138.554L82.9151 136.833" stroke="#263238" stroke-width="2" stroke-linecap="round" stroke-linejoin="round"/>
<path d="M87.2572 127.7L40.876 140.593L21.5059 70.8797L40.709 65.542L67.8871 57.9932L85.4607 121.24L87.2572 127.7Z" fill="white"/>
<mask id="mask1_274_33052" style="mask-type:luminance" maskUnits="userSpaceOnUse" x="21" y="57" width="67" height="84">
<path d="M87.2582 127.7L40.877 140.593L21.5068 70.8797L40.71 65.542L67.8881 57.9932L85.4617 121.24L87.2582 127.7Z" fill="white"/>
</mask>
<g mask="url(#mask1_274_33052)">
<path opacity="0.2" d="M85.4617 121.24L49.6004 123.56L40.71 65.542L67.888 57.9932L85.4617 121.24Z" fill="black" fill-opacity="0.7"/>
</g>
<path d="M87.2572 127.7L40.876 140.593L21.5059 70.8797L40.709 65.542L67.8871 57.9932L85.4607 121.24L87.2572 127.7Z" stroke="#263238" stroke-linecap="round" stroke-linejoin="round"/>
<path d="M26.2959 74.4845L38.3648 71.1333" stroke="#263238" stroke-width="2" stroke-linecap="round" stroke-linejoin="round"/>
<path d="M26.9355 76.8048L35.1466 74.5247" stroke="#263238" stroke-width="2" stroke-linecap="round" stroke-linejoin="round"/>
<path d="M31.3984 81.4575L66.1196 71.8127" stroke="#263238" stroke-width="2" stroke-linecap="round" stroke-linejoin="round"/>
<path d="M32.043 83.7722L66.7641 74.1274" stroke="#263238" stroke-width="2" stroke-linecap="round" stroke-linejoin="round"/>
<path d="M32.792 86.4785L62.4057 78.2502" stroke="#263238" stroke-width="2" stroke-linecap="round" stroke-linejoin="round"/>
<path d="M36.4508 88.1167L33.627 88.9014L34.4117 91.7252L37.2355 90.9405L36.4508 88.1167Z" stroke="#263238" stroke-linecap="round" stroke-linejoin="round"/>
<path d="M41.5709 86.6887L38.7471 87.4734L39.5318 90.2972L42.3556 89.5125L41.5709 86.6887Z" stroke="#263238" stroke-linecap="round" stroke-linejoin="round"/>
<path d="M46.692 85.2648L43.8682 86.0496L44.6529 88.8734L47.4767 88.0887L46.692 85.2648Z" stroke="#263238" stroke-linecap="round" stroke-linejoin="round"/>
<path d="M51.8043 83.8454L48.9805 84.6301L49.7652 87.454L52.589 86.6693L51.8043 83.8454Z" stroke="#263238" stroke-linecap="round" stroke-linejoin="round"/>
<path d="M29.5497 81.9698C29.6016 82.1569 29.5771 82.357 29.4815 82.526C29.386 82.6949 29.2272 82.8191 29.0401 82.871C28.853 82.9229 28.653 82.8984 28.484 82.8028C28.315 82.7073 28.1909 82.5485 28.139 82.3614C28.087 82.1743 28.1116 81.9743 28.2071 81.8053C28.3027 81.6363 28.4615 81.5122 28.6486 81.4603C28.8356 81.4083 29.0357 81.4329 29.2047 81.5284C29.3737 81.624 29.4978 81.7828 29.5497 81.9698Z" fill="#263238"/>
<path d="M35.1523 94.9717L69.8735 85.3269" stroke="#263238" stroke-width="2" stroke-linecap="round" stroke-linejoin="round"/>
<path d="M35.7969 97.2921L70.518 87.6416" stroke="#263238" stroke-width="2" stroke-linecap="round" stroke-linejoin="round"/>
<path d="M36.5508 99.9927L66.1588 91.7644" stroke="#263238" stroke-width="2" stroke-linecap="round" stroke-linejoin="round"/>
<path d="M40.2086 101.628L37.3848 102.412L38.1695 105.236L40.9933 104.451L40.2086 101.628Z" stroke="#263238" stroke-linecap="round" stroke-linejoin="round"/>
<path d="M45.3248 100.207L42.501 100.992L43.2857 103.816L46.1095 103.031L45.3248 100.207Z" stroke="#263238" stroke-linecap="round" stroke-linejoin="round"/>
<path d="M50.4459 98.7846L47.6221 99.5693L48.4068 102.393L51.2306 101.608L50.4459 98.7846Z" stroke="#263238" stroke-linecap="round" stroke-linejoin="round"/>
<path d="M55.5709 97.3552L52.7471 98.1399L53.5318 100.964L56.3556 100.179L55.5709 97.3552Z" stroke="#263238" stroke-linecap="round" stroke-linejoin="round"/>
<path d="M33.3095 95.49C33.3485 95.6303 33.345 95.7791 33.2994 95.9174C33.2539 96.0558 33.1684 96.1776 33.0537 96.2673C32.939 96.3571 32.8003 96.4109 32.655 96.4219C32.5098 96.4329 32.3645 96.4007 32.2376 96.3292C32.1107 96.2577 32.0078 96.1502 31.942 96.0203C31.8761 95.8904 31.8502 95.7438 31.8676 95.5992C31.8849 95.4546 31.9447 95.3184 32.0394 95.2077C32.1342 95.0971 32.2596 95.0169 32.3998 94.9775C32.4924 94.9512 32.5893 94.9435 32.6849 94.9547C32.7806 94.966 32.873 94.996 32.957 95.0431C33.041 95.0902 33.1149 95.1534 33.1744 95.2291C33.2339 95.3048 33.2779 95.3915 33.3038 95.4842L33.3095 95.49Z" fill="#263238"/>
<path d="M38.9131 108.492L73.6285 98.8411" stroke="#263238" stroke-width="2" stroke-linecap="round" stroke-linejoin="round"/>
<path d="M39.5566 110.806L74.272 101.162" stroke="#263238" stroke-width="2" stroke-linecap="round" stroke-linejoin="round"/>
<path d="M40.3057 113.513L69.9194 105.284" stroke="#263238" stroke-width="2" stroke-linecap="round" stroke-linejoin="round"/>
<path d="M43.9596 115.142L41.1357 115.927L41.9205 118.75L44.7443 117.966L43.9596 115.142Z" stroke="#263238" stroke-linecap="round" stroke-linejoin="round"/>
<path d="M49.0875 113.718L46.2637 114.503L47.0484 117.327L49.8722 116.542L49.0875 113.718Z" stroke="#263238" stroke-linecap="round" stroke-linejoin="round"/>
<path d="M54.1969 112.297L51.373 113.082L52.1578 115.906L54.9816 115.121L54.1969 112.297Z" stroke="#263238" stroke-linecap="round" stroke-linejoin="round"/>
<path d="M59.319 110.875L56.4951 111.66L57.2798 114.484L60.1037 113.699L59.319 110.875Z" stroke="#263238" stroke-linecap="round" stroke-linejoin="round"/>
<path d="M37.0634 109.004C37.1024 109.145 37.0989 109.293 37.0533 109.432C37.0078 109.57 36.9223 109.692 36.8076 109.782C36.6929 109.871 36.5542 109.925 36.4089 109.936C36.2637 109.947 36.1184 109.915 35.9915 109.843C35.8646 109.772 35.7617 109.664 35.6959 109.534C35.63 109.405 35.6041 109.258 35.6215 109.113C35.6388 108.969 35.6986 108.833 35.7933 108.722C35.8881 108.611 36.0135 108.531 36.1537 108.492C36.2463 108.465 36.3432 108.458 36.4388 108.469C36.5345 108.48 36.6269 108.51 36.7109 108.557C36.7949 108.604 36.8688 108.668 36.9283 108.743C36.9878 108.819 37.0318 108.906 37.0577 108.998L37.0634 109.004Z" fill="#263238"/>
<path d="M42.7764 122.392L77.4917 112.747" stroke="#263238" stroke-width="2" stroke-linecap="round" stroke-linejoin="round"/>
<path d="M43.415 124.712L78.1362 115.062" stroke="#263238" stroke-width="2" stroke-linecap="round" stroke-linejoin="round"/>
<path d="M44.1699 127.413L73.7837 119.184" stroke="#263238" stroke-width="2" stroke-linecap="round" stroke-linejoin="round"/>
<path d="M47.8258 129.049L45.002 129.833L45.7867 132.657L48.6105 131.872L47.8258 129.049Z" stroke="#263238" stroke-linecap="round" stroke-linejoin="round"/>
<path d="M52.9469 127.625L50.123 128.41L50.9078 131.234L53.7316 130.449L52.9469 127.625Z" stroke="#263238" stroke-linecap="round" stroke-linejoin="round"/>
<path d="M58.067 126.203L55.2432 126.987L56.0279 129.811L58.8517 129.026L58.067 126.203Z" stroke="#263238" stroke-linecap="round" stroke-linejoin="round"/>
<path d="M63.1832 124.782L60.3594 125.566L61.1441 128.39L63.9679 127.606L63.1832 124.782Z" stroke="#263238" stroke-linecap="round" stroke-linejoin="round"/>
<path d="M40.928 122.904C40.9822 123.092 40.9596 123.293 40.8651 123.465C40.7706 123.636 40.612 123.762 40.4242 123.817C40.2363 123.871 40.0347 123.848 39.8635 123.754C39.6923 123.659 39.5657 123.501 39.5115 123.313C39.4581 123.124 39.4814 122.922 39.5763 122.751C39.6712 122.579 39.8301 122.452 40.0182 122.397C40.2045 122.346 40.4037 122.369 40.5728 122.463C40.7419 122.556 40.8674 122.713 40.9222 122.898L40.928 122.904Z" fill="#263238"/>
<path d="M39.7705 88.3959L40.3406 88.8968L41.2734 86.7664" stroke="#263238" stroke-width="2" stroke-linecap="round" stroke-linejoin="round"/>
<path d="M38.3828 103.476L38.9529 103.977L39.8799 101.847" stroke="#263238" stroke-width="2" stroke-linecap="round" stroke-linejoin="round"/>
<path d="M42.1367 116.852L42.7068 117.353L43.6338 115.223" stroke="#263238" stroke-width="2" stroke-linecap="round" stroke-linejoin="round"/>
<path d="M56.2275 127.81L56.7976 128.311L57.7304 126.18" stroke="#263238" stroke-width="2" stroke-linecap="round" stroke-linejoin="round"/>
<path d="M91.7867 41.8897L43.8701 46.4951L50.792 118.513L98.7086 113.908L91.7867 41.8897Z" fill="white" stroke="#263238" stroke-linecap="round" stroke-linejoin="round"/>
<path d="M47.9531 50.8879L60.4251 49.6902" stroke="#263238" stroke-width="2" stroke-linecap="round" stroke-linejoin="round"/>
<path d="M48.1826 53.2832L56.6643 52.4656" stroke="#263238" stroke-width="2" stroke-linecap="round" stroke-linejoin="round"/>
<path d="M51.7656 58.6442L87.6326 55.1951" stroke="#263238" stroke-width="2" stroke-linecap="round" stroke-linejoin="round"/>
<path d="M51.9951 61.0337L87.8621 57.5903" stroke="#263238" stroke-width="2" stroke-linecap="round" stroke-linejoin="round"/>
<path d="M52.2646 63.8263L82.8572 60.8896" stroke="#263238" stroke-width="2" stroke-linecap="round" stroke-linejoin="round"/>
<path d="M55.5854 66.0721L52.668 66.3525L52.9484 69.2699L55.8658 68.9895L55.5854 66.0721Z" stroke="#263238" stroke-linecap="round" stroke-linejoin="round"/>
<path d="M60.8744 65.5624L57.957 65.8428L58.2374 68.7602L61.1548 68.4798L60.8744 65.5624Z" stroke="#263238" stroke-linecap="round" stroke-linejoin="round"/>
<path d="M66.1616 65.059L63.2441 65.3394L63.5245 68.2568L66.442 67.9764L66.1616 65.059Z" stroke="#263238" stroke-linecap="round" stroke-linejoin="round"/>
<path d="M71.4496 64.5441L68.5322 64.8245L68.8126 67.7419L71.73 67.4615L71.4496 64.5441Z" stroke="#263238" stroke-linecap="round" stroke-linejoin="round"/>
<path d="M49.8583 58.8281C49.8724 58.9732 49.8432 59.1191 49.7743 59.2476C49.7055 59.376 49.6002 59.4812 49.4716 59.5497C49.343 59.6183 49.197 59.6472 49.052 59.6328C48.907 59.6185 48.7695 59.5614 48.6569 59.4689C48.5443 59.3765 48.4616 59.2527 48.4194 59.1132C48.3771 58.9738 48.3771 58.8249 48.4194 58.6855C48.4617 58.546 48.5444 58.4222 48.657 58.3298C48.7697 58.2373 48.9072 58.1803 49.0522 58.166C49.1478 58.1564 49.2445 58.1658 49.3365 58.1937C49.4285 58.2215 49.5141 58.2672 49.5885 58.3282C49.6628 58.3892 49.7244 58.4642 49.7697 58.549C49.815 58.6338 49.8432 58.7267 49.8525 58.8224L49.8583 58.8281Z" fill="#263238"/>
<path d="M53.1055 72.6074L88.9725 69.1641" stroke="#263238" stroke-width="2" stroke-linecap="round" stroke-linejoin="round"/>
<path d="M53.3369 75.0026L89.2039 71.5535" stroke="#263238" stroke-width="2" stroke-linecap="round" stroke-linejoin="round"/>
<path d="M53.6064 77.7954L84.199 74.853" stroke="#263238" stroke-width="2" stroke-linecap="round" stroke-linejoin="round"/>
<path d="M56.9272 80.0331L54.0098 80.3135L54.2902 83.2309L57.2076 82.9505L56.9272 80.0331Z" stroke="#263238" stroke-linecap="round" stroke-linejoin="round"/>
<path d="M62.2153 79.5292L59.2979 79.8096L59.5783 82.727L62.4957 82.4466L62.2153 79.5292Z" stroke="#263238" stroke-linecap="round" stroke-linejoin="round"/>
<path d="M67.5034 79.0199L64.5859 79.3003L64.8663 82.2177L67.7838 81.9373L67.5034 79.0199Z" stroke="#263238" stroke-linecap="round" stroke-linejoin="round"/>
<path d="M72.7924 78.5223L69.875 78.8027L70.1554 81.7201L73.0728 81.4397L72.7924 78.5223Z" stroke="#263238" stroke-linecap="round" stroke-linejoin="round"/>
<path d="M51.2001 72.7917C51.2142 72.9368 51.185 73.0827 51.1162 73.2112C51.0473 73.3396 50.942 73.4447 50.8134 73.5133C50.6848 73.5819 50.5388 73.6108 50.3938 73.5964C50.2488 73.5821 50.1113 73.525 49.9987 73.4325C49.8861 73.34 49.8035 73.2162 49.7612 73.0768C49.7189 72.9373 49.7189 72.7885 49.7612 72.6491C49.8035 72.5096 49.8862 72.3858 49.9988 72.2934C50.1115 72.2009 50.249 72.1439 50.394 72.1296C50.4904 72.12 50.5878 72.1296 50.6805 72.1577C50.7732 72.1858 50.8595 72.232 50.9343 72.2935C51.0092 72.355 51.0712 72.4306 51.1168 72.5161C51.1624 72.6016 51.1907 72.6953 51.2001 72.7917Z" fill="#263238"/>
<path d="M54.4473 86.5708L90.3143 83.1274" stroke="#263238" stroke-width="2" stroke-linecap="round" stroke-linejoin="round"/>
<path d="M54.6787 88.9659L90.5457 85.5168" stroke="#263238" stroke-width="2" stroke-linecap="round" stroke-linejoin="round"/>
<path d="M54.9482 91.7585L85.5409 88.8162" stroke="#263238" stroke-width="2" stroke-linecap="round" stroke-linejoin="round"/>
<path d="M58.269 93.9996L55.3516 94.28L55.632 97.1974L58.5494 96.917L58.269 93.9996Z" stroke="#263238" stroke-linecap="round" stroke-linejoin="round"/>
<path d="M63.5571 93.4906L60.6396 93.771L60.9201 96.6884L63.8375 96.408L63.5571 93.4906Z" stroke="#263238" stroke-linecap="round" stroke-linejoin="round"/>
<path d="M68.8451 92.9867L65.9277 93.2671L66.2081 96.1845L69.1255 95.9041L68.8451 92.9867Z" stroke="#263238" stroke-linecap="round" stroke-linejoin="round"/>
<path d="M74.1332 92.4774L71.2158 92.7578L71.4962 95.6752L74.4136 95.3948L74.1332 92.4774Z" stroke="#263238" stroke-linecap="round" stroke-linejoin="round"/>
<path d="M52.5367 86.7548C52.5498 86.8988 52.5198 87.0435 52.4507 87.1705C52.3815 87.2975 52.2763 87.4012 52.1482 87.4684C52.0202 87.5356 51.8751 87.5633 51.7313 87.5481C51.5874 87.5328 51.4514 87.4752 51.3403 87.3827C51.2292 87.2901 51.148 87.1666 51.1071 87.0279C51.0661 86.8892 51.0672 86.7415 51.1102 86.6034C51.1532 86.4653 51.2362 86.3431 51.3487 86.2522C51.4612 86.1613 51.5981 86.1057 51.7421 86.0926C51.8378 86.0839 51.9342 86.0941 52.0259 86.1227C52.1176 86.1512 52.2028 86.1976 52.2766 86.2591C52.3504 86.3206 52.4113 86.396 52.4559 86.4811C52.5006 86.5661 52.528 86.6591 52.5367 86.7548Z" fill="#263238"/>
<path d="M55.8301 100.937L91.6971 97.488" stroke="#263238" stroke-width="2" stroke-linecap="round" stroke-linejoin="round"/>
<path d="M56.0596 103.327L91.9266 99.8833" stroke="#263238" stroke-width="2" stroke-linecap="round" stroke-linejoin="round"/>
<path d="M56.3252 106.119L86.9178 103.183" stroke="#263238" stroke-width="2" stroke-linecap="round" stroke-linejoin="round"/>
<path d="M59.6479 108.364L56.7305 108.644L57.0109 111.561L59.9283 111.281L59.6479 108.364Z" stroke="#263238" stroke-linecap="round" stroke-linejoin="round"/>
<path d="M64.9418 107.86L62.0244 108.14L62.3048 111.058L65.2222 110.777L64.9418 107.86Z" stroke="#263238" stroke-linecap="round" stroke-linejoin="round"/>
<path d="M70.2241 107.346L67.3066 107.626L67.587 110.543L70.5045 110.263L70.2241 107.346Z" stroke="#263238" stroke-linecap="round" stroke-linejoin="round"/>
<path d="M75.5112 106.836L72.5938 107.116L72.8742 110.034L75.7916 109.753L75.5112 106.836Z" stroke="#263238" stroke-linecap="round" stroke-linejoin="round"/>
<path d="M53.9192 101.116C53.9346 101.261 53.9064 101.408 53.8382 101.537C53.7699 101.666 53.6648 101.772 53.5361 101.842C53.4074 101.911 53.261 101.941 53.1155 101.927C52.97 101.913 52.8319 101.856 52.7189 101.763C52.6058 101.67 52.5229 101.546 52.4807 101.406C52.4384 101.266 52.4388 101.117 52.4816 100.977C52.5245 100.837 52.608 100.713 52.7214 100.621C52.8349 100.529 52.9732 100.473 53.1188 100.459C53.2145 100.45 53.3111 100.459 53.4031 100.487C53.4952 100.515 53.5808 100.56 53.6551 100.621C53.7295 100.682 53.7911 100.757 53.8364 100.842C53.8817 100.927 53.9098 101.02 53.9192 101.116Z" fill="#263238"/>
<path d="M53.8203 67.4193L54.2925 68.0123L55.5823 66.0776" stroke="#263238" stroke-width="2" stroke-linecap="round" stroke-linejoin="round"/>
<path d="M65.7227 80.1908L66.1948 80.7838L67.4789 78.8491" stroke="#263238" stroke-width="2" stroke-linecap="round" stroke-linejoin="round"/>
<path d="M61.8008 94.9544L62.2729 95.5475L63.5627 93.6128" stroke="#263238" stroke-width="2" stroke-linecap="round" stroke-linejoin="round"/>
<path d="M73.6797 108.192L74.1519 108.785L75.4417 106.851" stroke="#263238" stroke-width="2" stroke-linecap="round" stroke-linejoin="round"/>
<path d="M150.387 13.5007H120.635C119.585 13.5007 118.577 13.9181 117.834 14.661C117.091 15.404 116.674 16.4116 116.674 17.4623V43.0339C116.674 44.0845 117.091 45.0922 117.834 45.8351C118.577 46.578 119.585 46.9954 120.635 46.9954H133.821L141.376 56.0989L139.482 46.9954H150.387C151.435 46.9908 152.438 46.5714 153.177 45.829C153.917 45.0866 154.332 44.0815 154.332 43.0339V17.4623C154.332 16.4146 153.917 15.4096 153.177 14.6671C152.438 13.9247 151.435 13.5053 150.387 13.5007Z" fill="white" stroke="#263238" stroke-linecap="round" stroke-linejoin="round"/>
<path d="M137.892 27.5274V24.8211L135.866 24.6484C135.745 24.2259 135.577 23.8184 135.365 23.4334L136.672 21.8787L134.754 19.967L133.2 21.2741C132.816 21.0588 132.408 20.8906 131.985 20.7732L131.812 18.7463H129.106L128.933 20.7732C128.509 20.8906 128.101 21.0588 127.718 21.2741L126.163 19.967L124.246 21.8787L125.541 23.4564C125.327 23.8407 125.157 24.2484 125.035 24.6714L123.008 24.8441V27.5504L125.035 27.7289C125.157 28.1519 125.327 28.5596 125.541 28.9439L124.229 30.4985L126.146 32.4102L127.701 31.1031C128.084 31.3184 128.492 31.4866 128.916 31.6041L129.088 33.6309H131.795L131.967 31.6041C132.391 31.4866 132.799 31.3184 133.182 31.1031L134.737 32.4102L136.654 30.4985L135.347 28.9439C135.559 28.5589 135.727 28.1514 135.848 27.7289L137.892 27.5274ZM130.459 29.3239C129.836 29.325 129.227 29.1414 128.708 28.7963C128.189 28.4511 127.785 27.96 127.545 27.3849C127.306 26.8098 127.242 26.1766 127.363 25.5654C127.483 24.9542 127.782 24.3925 128.222 23.9512C128.661 23.5099 129.222 23.2089 129.833 23.0862C130.444 22.9636 131.077 23.0248 131.653 23.2621C132.229 23.4995 132.722 23.9023 133.069 24.4196C133.416 24.9369 133.602 25.5455 133.603 26.1685C133.604 26.5816 133.524 26.9909 133.367 27.3729C133.21 27.755 132.979 28.1023 132.688 28.3949C132.396 28.6876 132.05 28.9197 131.668 29.0782C131.287 29.2366 130.878 29.3181 130.464 29.3181L130.459 29.3239Z" fill="#92E3A9"/>
<path d="M146.846 33.5676V31.6444L145.401 31.5177C145.317 31.2165 145.197 30.9266 145.044 30.654L145.977 29.5484L144.618 28.1895L143.506 29.1166C143.233 28.9658 142.943 28.8461 142.643 28.7596L142.522 27.3201H140.593L140.472 28.7596C140.17 28.8461 139.878 28.9658 139.602 29.1166L138.497 28.1895L137.138 29.5484L138.065 30.654C137.914 30.9268 137.796 31.2167 137.714 31.5177L136.269 31.6444V33.5676L137.714 33.6942C137.796 33.9952 137.914 34.2852 138.065 34.558L137.138 35.6635L138.497 37.0282L139.602 36.0954C139.876 36.251 140.168 36.371 140.472 36.4524L140.593 37.8976H142.522L142.643 36.4524C142.945 36.3709 143.235 36.2509 143.506 36.0954L144.618 37.0282L145.977 35.6635L145.044 34.558C145.199 34.2866 145.319 33.9963 145.401 33.6942L146.846 33.5676ZM141.554 34.8459C141.111 34.8459 140.678 34.7145 140.31 34.4684C139.942 34.2222 139.655 33.8724 139.485 33.4631C139.316 33.0538 139.271 32.6035 139.358 32.169C139.444 31.7345 139.657 31.3354 139.971 31.0221C140.284 30.7089 140.683 30.4956 141.117 30.4091C141.552 30.3227 142.002 30.3671 142.412 30.5366C142.821 30.7061 143.171 30.9932 143.417 31.3616C143.663 31.7299 143.794 32.163 143.794 32.606C143.794 33.2 143.558 33.7697 143.138 34.1898C142.718 34.6099 142.149 34.8459 141.554 34.8459Z" fill="#92E3A9"/>
<path d="M137.426 38.0531V36.7L136.395 36.6078C136.337 36.3929 136.251 36.1859 136.142 35.9917L136.804 35.2086L135.837 34.2355L135.048 34.8977C134.854 34.7932 134.649 34.7083 134.438 34.6443L134.346 33.6194H132.975L132.889 34.6443C132.675 34.7058 132.468 34.7907 132.273 34.8977L131.484 34.2355L130.517 35.2086L131.179 35.9917C131.072 36.1871 130.987 36.3937 130.925 36.6078L129.9 36.7V38.0646L130.925 38.1567C130.987 38.3708 131.072 38.5775 131.179 38.7729L130.517 39.579L131.484 40.5521L132.273 39.8899C132.469 39.9945 132.676 40.0793 132.889 40.1433L132.975 41.1682H134.346L134.438 40.1433C134.649 40.0793 134.854 39.9944 135.048 39.8899L135.837 40.5521L136.804 39.579L136.142 38.7959C136.251 38.6017 136.337 38.3947 136.395 38.1798L137.426 38.0531ZM133.66 38.9629C133.345 38.9629 133.037 38.8693 132.774 38.6941C132.512 38.5188 132.308 38.2697 132.187 37.9783C132.066 37.6868 132.035 37.3661 132.096 37.0567C132.158 36.7473 132.31 36.4631 132.533 36.2401C132.756 36.017 133.04 35.8651 133.349 35.8036C133.659 35.742 133.979 35.7736 134.271 35.8943C134.562 36.015 134.811 36.2195 134.987 36.4818C135.162 36.7441 135.255 37.0524 135.255 37.3679C135.254 37.7899 135.085 38.1941 134.786 38.492C134.487 38.7899 134.082 38.9571 133.66 38.9571V38.9629Z" fill="#92E3A9"/>
<path d="M134.715 111.768L157.908 197.321H161.375L138.187 111.768H134.715Z" fill="#757575" stroke="#263238" stroke-linecap="round" stroke-linejoin="round"/>
<path d="M186.952 173.068H142.989V176.65H186.952V173.068Z" fill="#999999" stroke="#263238" stroke-linecap="round" stroke-linejoin="round"/>
<path d="M210.406 92.5532L182.001 197.35H178.546L206.945 92.5532C207.993 88.6896 205.592 85.5457 201.59 85.5457H177.118C173.122 85.5457 169.011 88.6896 167.963 92.5532L139.552 197.35H136.098L164.502 92.5532C166.051 86.8355 172.109 82.1887 178.028 82.1887H202.505C208.407 82.1887 211.954 86.8297 210.406 92.5532Z" fill="#757575" stroke="#263238" stroke-linecap="round" stroke-linejoin="round"/>
<path d="M210.855 92.5821L203.807 118.597C203.467 119.692 202.796 120.655 201.887 121.353C200.977 122.051 199.874 122.45 198.728 122.495H158.514C158.029 122.533 157.542 122.449 157.098 122.251C156.654 122.053 156.266 121.747 155.971 121.36C155.676 120.974 155.482 120.519 155.407 120.039C155.332 119.558 155.379 119.067 155.543 118.609L162.596 92.5936C162.939 91.5011 163.61 90.5412 164.52 89.8454C165.429 89.1496 166.531 88.7519 167.675 88.7069H207.883C208.267 88.6795 208.652 88.7279 209.017 88.8494C209.381 88.9708 209.718 89.163 210.009 89.4149C210.299 89.6668 210.537 89.9734 210.709 90.3173C210.881 90.6612 210.983 91.0355 211.01 91.419C211.036 91.8132 210.983 92.2086 210.855 92.5821Z" fill="#92E3A9"/>
<mask id="mask2_274_33052" style="mask-type:luminance" maskUnits="userSpaceOnUse" x="155" y="88" width="57" height="35">
<path d="M210.855 92.5821L203.807 118.597C203.467 119.692 202.796 120.655 201.887 121.353C200.977 122.051 199.874 122.45 198.728 122.495H158.514C158.029 122.533 157.542 122.449 157.098 122.251C156.654 122.053 156.266 121.747 155.971 121.36C155.676 120.974 155.482 120.519 155.407 120.039C155.332 119.558 155.379 119.067 155.543 118.609L162.596 92.5936C162.939 91.5011 163.61 90.5412 164.52 89.8454C165.429 89.1496 166.531 88.7519 167.675 88.7069H207.883C208.267 88.6795 208.652 88.7279 209.017 88.8494C209.381 88.9708 209.718 89.163 210.009 89.4149C210.299 89.6668 210.537 89.9734 210.709 90.3173C210.881 90.6612 210.983 91.0355 211.01 91.419C211.036 91.8132 210.983 92.2086 210.855 92.5821Z" fill="white"/>
</mask>
<g mask="url(#mask2_274_33052)">
<path opacity="0.2" d="M210.855 92.582L203.807 118.597C203.467 119.692 202.796 120.655 201.887 121.353C200.977 122.051 199.874 122.45 198.728 122.495H158.514C158.029 122.533 157.542 122.449 157.098 122.251C156.654 122.053 156.266 121.746 155.971 121.36C155.676 120.974 155.482 120.519 155.407 120.039C155.332 119.558 155.379 119.066 155.543 118.609L162.596 92.5936C162.939 91.501 163.61 90.5411 164.52 89.8453C165.429 89.1495 166.531 88.7519 167.675 88.7069H188.467C197.456 97.9198 196.31 114.9 195.722 120.025C196.66 119.799 197.524 119.334 198.23 118.677C198.936 118.019 199.461 117.19 199.753 116.271L206.789 90.25C206.933 89.7466 206.963 89.2174 206.876 88.7011H207.883C208.367 88.6664 208.851 88.7524 209.293 88.9513C209.735 89.1502 210.121 89.4558 210.415 89.8406C210.71 90.2254 210.904 90.6773 210.981 91.1559C211.058 91.6344 211.014 92.1244 210.855 92.582Z" fill="black" fill-opacity="0.7"/>
</g>
<path d="M210.855 92.5821L203.807 118.597C203.467 119.692 202.796 120.655 201.887 121.353C200.977 122.051 199.874 122.45 198.728 122.495H158.514C158.029 122.533 157.542 122.449 157.098 122.251C156.654 122.053 156.266 121.747 155.971 121.36C155.676 120.974 155.482 120.519 155.407 120.039C155.332 119.558 155.379 119.067 155.543 118.609L162.596 92.5936C162.939 91.5011 163.61 90.5412 164.52 89.8454C165.429 89.1496 166.531 88.7519 167.675 88.7069H207.883C208.267 88.6795 208.652 88.7279 209.017 88.8494C209.381 88.9708 209.718 89.163 210.009 89.4149C210.299 89.6668 210.537 89.9734 210.709 90.3173C210.881 90.6612 210.983 91.0355 211.01 91.419C211.036 91.8132 210.983 92.2086 210.855 92.5821Z" stroke="#263238" stroke-linecap="round" stroke-linejoin="round"/>
<path d="M187.211 148.815L200.362 197.321H203.829L190.683 148.815H187.211Z" fill="#757575" stroke="#263238" stroke-linecap="round" stroke-linejoin="round"/>
<path d="M190.694 143.224V147.969H138.918V143.224C138.918 142.299 139.286 141.411 139.94 140.757C140.594 140.103 141.482 139.735 142.407 139.735H187.199C187.658 139.733 188.113 139.823 188.537 139.997C188.962 140.172 189.347 140.429 189.672 140.753C189.997 141.077 190.254 141.463 190.43 141.887C190.605 142.311 190.695 142.765 190.694 143.224Z" fill="#92E3A9"/>
<mask id="mask3_274_33052" style="mask-type:luminance" maskUnits="userSpaceOnUse" x="138" y="139" width="53" height="9">
<path d="M190.694 143.224V147.969H138.918V143.224C138.918 142.299 139.286 141.411 139.94 140.757C140.594 140.103 141.482 139.735 142.407 139.735H187.199C187.658 139.733 188.113 139.823 188.537 139.997C188.962 140.172 189.347 140.429 189.672 140.753C189.997 141.077 190.254 141.463 190.43 141.887C190.605 142.311 190.695 142.765 190.694 143.224Z" fill="white"/>
</mask>
<g mask="url(#mask3_274_33052)">
<path opacity="0.2" d="M190.574 142.332C188.898 144.301 185.892 146.305 180.722 147.992H138.918V143.224C138.918 142.299 139.286 141.411 139.94 140.757C140.594 140.102 141.482 139.735 142.407 139.735H187.199C187.969 139.736 188.717 139.991 189.328 140.46C189.938 140.93 190.376 141.588 190.574 142.332Z" fill="black" fill-opacity="0.7"/>
</g>
<path d="M190.694 143.224V147.969H138.918V143.224C138.918 142.299 139.286 141.411 139.94 140.757C140.594 140.103 141.482 139.735 142.407 139.735H187.199C187.658 139.733 188.113 139.823 188.537 139.997C188.962 140.172 189.347 140.429 189.672 140.753C189.997 141.077 190.254 141.463 190.43 141.887C190.605 142.311 190.695 142.765 190.694 143.224Z" stroke="#263238" stroke-linecap="round" stroke-linejoin="round"/>
<path d="M192.45 146.535H137.611C137.067 146.535 136.626 146.976 136.626 147.52V150.002C136.626 150.545 137.067 150.986 137.611 150.986H192.45C192.994 150.986 193.435 150.545 193.435 150.002V147.52C193.435 146.976 192.994 146.535 192.45 146.535Z" fill="#999999" stroke="#263238" stroke-linecap="round" stroke-linejoin="round"/>
<path d="M137.236 146.679C134.755 149.207 146.783 188.926 146.783 188.926C145.47 190.078 143.536 190.607 141.705 190.849C140.021 191.058 138.32 191.083 136.632 190.924C136.632 190.924 119.392 149.109 124.137 138.733C128.881 128.357 158.322 123.647 158.322 123.647L159.578 120.538L174.808 118.396L177.324 137.046C177.324 137.046 174.825 137.288 171.065 137.771C160.983 139.05 141.797 142.073 137.236 146.679Z" fill="#263238"/>
<mask id="mask4_274_33052" style="mask-type:luminance" maskUnits="userSpaceOnUse" x="123" y="118" width="55" height="74">
<path d="M137.237 146.679C134.756 149.207 146.784 188.926 146.784 188.926C145.471 190.078 143.537 190.607 141.706 190.849C140.022 191.058 138.321 191.083 136.633 190.924C136.633 190.924 119.393 149.109 124.138 138.733C128.882 128.357 158.323 123.647 158.323 123.647L159.579 120.538L174.809 118.396L177.325 137.046C177.325 137.046 174.826 137.288 171.066 137.771C160.984 139.05 141.798 142.073 137.237 146.679Z" fill="white"/>
</mask>
<g mask="url(#mask4_274_33052)">
<path opacity="0.3" d="M146.782 188.949C145.47 190.101 143.535 190.63 141.704 190.872C138.358 178.435 129.842 145.245 133.067 141.186C137.046 136.176 156.738 131.622 156.738 131.622C156.819 129.065 163.723 126.762 163.723 126.762L171.058 137.754C160.976 139.05 141.79 142.073 137.23 146.679C134.754 149.23 146.782 188.949 146.782 188.949Z" fill="black"/>
</g>
<path d="M137.236 146.679C134.755 149.207 146.783 188.926 146.783 188.926C145.47 190.078 143.536 190.607 141.705 190.849C140.021 191.058 138.32 191.083 136.632 190.924C136.632 190.924 119.392 149.109 124.137 138.733C128.881 128.357 158.322 123.647 158.322 123.647L159.578 120.538L174.808 118.396L177.324 137.046C177.324 137.046 174.825 137.288 171.065 137.771C160.983 139.05 141.797 142.073 137.236 146.679Z" stroke="#263238" stroke-linecap="round" stroke-linejoin="round"/>
<path d="M128.716 109.085C126.188 108.653 144.182 92.8757 144.182 92.8757L152.86 98.7144C152.86 98.7144 138.096 109.113 135.775 109.396C133.455 109.678 128.716 109.085 128.716 109.085Z" fill="white"/>
<mask id="mask5_274_33052" style="mask-type:luminance" maskUnits="userSpaceOnUse" x="128" y="92" width="25" height="18">
<path d="M128.716 109.085C126.188 108.653 144.182 92.8757 144.182 92.8757L152.86 98.7144C152.86 98.7144 138.096 109.113 135.775 109.396C133.455 109.678 128.716 109.085 128.716 109.085Z" fill="white"/>
</mask>
<g mask="url(#mask5_274_33052)">
<path opacity="0.2" d="M128.716 109.085C126.188 108.653 144.182 92.8757 144.182 92.8757L152.86 98.7144C152.86 98.7144 138.096 109.113 135.775 109.396C133.455 109.678 128.716 109.085 128.716 109.085Z" fill="black" fill-opacity="0.7"/>
</g>
<path d="M128.716 109.085C126.188 108.653 144.182 92.8757 144.182 92.8757L152.86 98.7144C152.86 98.7144 138.096 109.113 135.775 109.396C133.455 109.678 128.716 109.085 128.716 109.085Z" stroke="#263238" stroke-linecap="round" stroke-linejoin="round"/>
<path d="M131.877 102.451C131.877 102.451 135.648 103.39 136.806 104.179C137.963 104.968 137.629 107.818 137.629 107.818C137.629 107.818 132.602 106.401 131.877 102.451Z" fill="white" stroke="#263238" stroke-linecap="round" stroke-linejoin="round"/>
<path d="M129.47 95.2249L136.483 108.676H137.312L130.65 94.5627L129.47 95.2249Z" fill="#263238"/>
<path d="M135.792 104.95C135.792 104.95 131.37 101.806 130.287 101.806C129.205 101.806 125.963 105.636 125.963 107.564C125.963 109.493 133.034 110.547 134.416 108.918C135.107 108.106 133.736 106.148 133.736 106.148C134.559 107.024 135.443 107.842 136.379 108.595C136.955 108.918 138.055 108.497 138.055 108.497C138.055 108.497 136.581 106.136 135.792 104.95Z" fill="white" stroke="#263238" stroke-linecap="round" stroke-linejoin="round"/>
<path d="M133.736 109.361C132.716 108.066 131.465 106.973 130.045 106.136" stroke="#263238" stroke-linecap="round" stroke-linejoin="round"/>
<path d="M133.736 106.136C133.736 106.136 132.205 104.8 131.174 104.507" stroke="#263238" stroke-linecap="round" stroke-linejoin="round"/>
<path d="M128.916 107.835C129.987 108.384 131.02 109.003 132.008 109.689" stroke="#263238" stroke-linecap="round" stroke-linejoin="round"/>
<path d="M149.818 85.9775C147.556 87.5552 137.393 98.0061 137.393 98.0061C137.393 98.0061 142.155 103.424 146.329 104.208L157.644 98.7144L149.818 85.9775Z" fill="#92E3A9" stroke="#263238" stroke-linecap="round" stroke-linejoin="round"/>
<path opacity="0.4" d="M149.818 85.9775C147.556 87.5552 137.393 98.0061 137.393 98.0061C137.393 98.0061 142.155 103.424 146.329 104.208L157.644 98.7144L149.818 85.9775Z" fill="white" stroke="#263238" stroke-linecap="round" stroke-linejoin="round"/>
<path d="M144.355 184.734L149.152 197.35C149.152 197.35 149.946 200.592 135.482 199.567L127.513 198.887L144.355 184.734Z" fill="#92E3A9"/>
<mask id="mask6_274_33052" style="mask-type:luminance" maskUnits="userSpaceOnUse" x="127" y="184" width="23" height="16">
<path d="M144.355 184.734L149.152 197.35C149.152 197.35 149.946 200.592 135.482 199.567L127.513 198.887L144.355 184.734Z" fill="white"/>
</mask>
<g mask="url(#mask6_274_33052)">
<path opacity="0.3" d="M144.355 184.734L149.152 197.35C149.152 197.35 149.946 200.592 135.482 199.567L127.513 198.887L144.355 184.734Z" fill="black"/>
</g>
<path d="M144.355 184.734L149.152 197.35C149.152 197.35 149.946 200.592 135.482 199.567L127.513 198.887L144.355 184.734Z" stroke="#263238" stroke-linecap="round" stroke-linejoin="round"/>
<path d="M142.535 190.769C142.535 190.769 143.56 195.669 142.535 199.314C142.535 199.314 127.27 201.703 123.856 200.793C120.441 199.884 118.368 198.179 118.265 197.339C118.265 197.339 118.386 195.001 121.806 194.316C125.226 193.63 132.026 193.164 134.715 189.306C137.404 185.448 142.535 190.769 142.535 190.769Z" fill="#92E3A9" stroke="#263238" stroke-linecap="round" stroke-linejoin="round"/>
<path d="M162.677 120.031C167.554 113.075 189.976 121.447 189.976 121.447C189.976 121.447 192.112 138.192 183.181 142.66C174.251 147.128 161.376 146.886 157.898 150.508L143.744 192.3C143.744 192.3 138.66 194.425 131.267 191.079C131.267 191.079 140.255 159.519 142.892 148.314C145.501 137.224 162.389 129.698 162.389 129.698C161.518 128.67 160.859 127.481 160.448 126.198" fill="#263238"/>
<path d="M162.677 120.031C167.554 113.075 189.976 121.447 189.976 121.447C189.976 121.447 192.112 138.192 183.181 142.66C174.251 147.128 161.376 146.886 157.898 150.508L143.744 192.3C143.744 192.3 138.66 194.425 131.267 191.079C131.267 191.079 140.255 159.519 142.892 148.314C145.501 137.224 162.389 129.698 162.389 129.698C161.518 128.67 160.859 127.481 160.448 126.198" stroke="#263238" stroke-linecap="round" stroke-linejoin="round"/>
<path d="M185.374 136.038C184.659 136.672 183.907 137.264 183.123 137.812" stroke="white" stroke-linecap="round" stroke-linejoin="round"/>
<path d="M187.211 121.856C189.042 125.829 189.186 130.873 186.635 134.552" stroke="white" stroke-linecap="round" stroke-linejoin="round"/>
<path d="M182.104 122.495C182.104 122.495 181.638 125.558 183.002 126.773C184.367 127.988 188.553 128.604 188.553 128.604" stroke="white" stroke-linecap="round" stroke-linejoin="round"/>
<path d="M163.724 122.633C163.724 122.633 163.914 125.685 162.676 125.541C161.438 125.397 161.375 126.762 161.375 126.762" stroke="white" stroke-linecap="round" stroke-linejoin="round"/>
<path d="M150.118 88.3269C149.929 87.5577 149.829 86.7695 149.818 85.9776C149.818 85.9776 156.728 80.1504 165.624 80.185C176.219 80.2195 182.697 83.5534 185.288 88.1829C189.399 95.5072 189.975 121.447 189.975 121.447C189.975 121.447 163.39 125.547 159.578 120.52C158.916 119.645 159.423 113.467 159.423 113.467C159.423 113.467 156.446 105.659 155.818 99.6012C154.944 98.3956 154.131 97.1464 153.383 95.8584C152.436 94.2729 151.616 92.6152 150.93 90.9007" fill="#92E3A9"/>
<path d="M150.118 88.3269C149.929 87.5577 149.829 86.7695 149.818 85.9776C149.818 85.9776 156.728 80.1504 165.624 80.185C176.219 80.2195 182.697 83.5534 185.288 88.1829C189.399 95.5072 189.975 121.447 189.975 121.447C189.975 121.447 163.39 125.547 159.578 120.52C158.916 119.645 159.423 113.467 159.423 113.467C159.423 113.467 156.446 105.659 155.818 99.6012C154.944 98.3956 154.131 97.1464 153.383 95.8584C152.436 94.2729 151.616 92.6152 150.93 90.9007" stroke="#263238" stroke-linecap="round" stroke-linejoin="round"/>
<g opacity="0.6">
<path d="M150.118 88.3269C149.929 87.5577 149.829 86.7695 149.818 85.9776C149.818 85.9776 156.728 80.1504 165.624 80.185C176.219 80.2195 182.697 83.5534 185.288 88.1829C189.399 95.5072 189.975 121.447 189.975 121.447C189.975 121.447 163.39 125.547 159.578 120.52C158.916 119.645 159.423 113.467 159.423 113.467C159.423 113.467 156.446 105.659 155.818 99.6012C154.944 98.3956 154.131 97.1464 153.383 95.8584C152.436 94.2729 151.616 92.6152 150.93 90.9007" fill="white"/>
<path d="M150.118 88.3269C149.929 87.5577 149.829 86.7695 149.818 85.9776C149.818 85.9776 156.728 80.1504 165.624 80.185C176.219 80.2195 182.697 83.5534 185.288 88.1829C189.399 95.5072 189.975 121.447 189.975 121.447C189.975 121.447 163.39 125.547 159.578 120.52C158.916 119.645 159.423 113.467 159.423 113.467C159.423 113.467 156.446 105.659 155.818 99.6012C154.944 98.3956 154.131 97.1464 153.383 95.8584C152.436 94.2729 151.616 92.6152 150.93 90.9007" stroke="#263238" stroke-linecap="round" stroke-linejoin="round"/>
</g>
<path d="M160.298 94.5627C160.298 94.5627 164.357 110.311 163.753 113.777C163.608 114.974 163.808 116.186 164.328 117.273C163.798 117.83 163.457 118.541 163.354 119.304C163.25 120.067 163.39 120.843 163.753 121.522" stroke="#263238" stroke-linecap="round" stroke-linejoin="round"/>
<path d="M171.066 107.593C170.341 107.566 169.637 107.343 169.028 106.948L167.824 101.674C170.212 101.891 172.619 101.722 174.953 101.173L176.243 106.931C175.517 107.133 174.781 107.293 174.037 107.409" stroke="#263238" stroke-linecap="round" stroke-linejoin="round"/>
<path d="M157.414 96.6128C157.414 96.6128 153.959 81.8952 162.677 80.185C171.394 78.4749 173.185 82.5458 172.673 85.3039C171.987 88.9834 164.761 98.0062 164.761 98.0062L160.298 94.5514L157.414 96.6128Z" fill="#92E3A9" stroke="#263238" stroke-linecap="round" stroke-linejoin="round"/>
<path opacity="0.4" d="M157.414 96.6128C157.414 96.6128 153.959 81.8952 162.677 80.185C171.394 78.4749 173.185 82.5458 172.673 85.3039C171.987 88.9834 164.761 98.0062 164.761 98.0062L160.298 94.5514L157.414 96.6128Z" fill="white" stroke="#263238" stroke-linecap="round" stroke-linejoin="round"/>
<path d="M145.979 142.073C145.979 142.073 151.61 135.572 164.324 130.66C164.324 130.66 161.03 129.652 160.293 128.282" stroke="white" stroke-linecap="round" stroke-linejoin="round"/>
<path d="M139.356 161.967L134.208 180.657" stroke="white" stroke-linecap="round" stroke-linejoin="round"/>
<path d="M179.133 108.1C179.133 108.1 181.436 111.987 190.92 111.63C189.155 109.74 186.922 108.349 184.447 107.599C180.572 106.563 179.133 108.1 179.133 108.1Z" fill="#92E3A9" stroke="#263238" stroke-linecap="round" stroke-linejoin="round"/>
<path d="M142.339 109.66C142.339 109.66 144.538 106.252 146.554 105.566C148.569 104.881 154.488 104.824 155.404 104.801C156.319 104.778 172.586 108.912 180.221 111.457L179.553 98.7144L189.814 99.5262C189.814 99.5262 189.4 115.073 187.805 119.19C186.21 123.307 183.924 122.305 180.025 120.624C164.692 114.019 155.709 109.419 154.874 109.683C154.039 109.948 142.339 109.66 142.339 109.66Z" fill="white" stroke="#263238" stroke-linecap="round" stroke-linejoin="round"/>
<path d="M176.991 91.3094C176.723 92.3658 176.638 93.4602 176.738 94.5454C177.193 98.53 179.133 108.1 179.133 108.1C179.133 108.1 188.697 109.465 190.92 111.63C190.92 111.63 192.498 98.9618 189.285 92.5301C186.072 86.0983 182.749 85.3901 182.749 85.3901C180.648 84.8719 178.719 86.8296 177.654 89.3459" fill="#92E3A9"/>
<path d="M176.991 91.3094C176.723 92.3658 176.638 93.4602 176.738 94.5454C177.193 98.53 179.133 108.1 179.133 108.1C179.133 108.1 188.697 109.465 190.92 111.63C190.92 111.63 192.498 98.9618 189.285 92.5301C186.072 86.0983 182.749 85.3901 182.749 85.3901C180.648 84.8719 178.719 86.8296 177.654 89.3459" stroke="#263238" stroke-linecap="round" stroke-linejoin="round"/>
<g opacity="0.4">
<path d="M176.991 91.3094C176.723 92.3658 176.638 93.4602 176.738 94.5454C177.193 98.53 179.133 108.1 179.133 108.1C179.133 108.1 188.697 109.465 190.92 111.63C190.92 111.63 192.498 98.9618 189.285 92.5301C186.072 86.0983 182.749 85.3901 182.749 85.3901C180.648 84.8719 178.719 86.8296 177.654 89.3459" fill="white"/>
<path d="M176.991 91.3094C176.723 92.3658 176.638 93.4602 176.738 94.5454C177.193 98.53 179.133 108.1 179.133 108.1C179.133 108.1 188.697 109.465 190.92 111.63C190.92 111.63 192.498 98.9618 189.285 92.5301C186.072 86.0983 182.749 85.3901 182.749 85.3901C180.648 84.8719 178.719 86.8296 177.654 89.3459" stroke="#263238" stroke-linecap="round" stroke-linejoin="round"/>
</g>
<path d="M148.892 96.2383C150.323 97.4099 151.994 98.2549 153.786 98.7143" stroke="#263238" stroke-linecap="round" stroke-linejoin="round"/>
<path d="M179.133 96.2383C179.133 96.2383 182.588 102.768 186.952 104.207" stroke="#263238" stroke-linecap="round" stroke-linejoin="round"/>
<path d="M156.745 146.535C156.745 146.535 157.384 147.019 157.643 148.764" stroke="white" stroke-linecap="round" stroke-linejoin="round"/>
<path d="M154.378 148.763C154.934 148.824 155.472 148.999 155.957 149.279C156.441 149.558 156.863 149.936 157.194 150.387" stroke="white" stroke-linecap="round" stroke-linejoin="round"/>
<path d="M135.331 142.073C135.331 142.073 137.174 143.005 136.776 145.648" stroke="white" stroke-linecap="round" stroke-linejoin="round"/>
<path d="M133.391 144.318C133.391 144.318 135.907 145.81 136.085 147.146" stroke="white" stroke-linecap="round" stroke-linejoin="round"/>
<path d="M162.556 128.207C162.556 128.207 168.158 128.99 169.414 128.207" stroke="white" stroke-linecap="round" stroke-linejoin="round"/>
<path d="M160.298 93.9293C159.815 92.5579 159.619 91.1016 159.722 89.6511C159.745 89.159 159.797 88.6687 159.878 88.1828L158.905 86.6396L157.655 84.6531L159.101 78.895C159.101 78.895 168.313 80.6685 169.004 83.2366C169.695 85.8047 160.298 93.9293 160.298 93.9293Z" fill="white"/>
<mask id="mask7_274_33052" style="mask-type:luminance" maskUnits="userSpaceOnUse" x="157" y="78" width="13" height="16">
<path d="M160.298 93.9296C159.815 92.5582 159.619 91.1018 159.722 89.6513C159.745 89.1593 159.797 88.669 159.878 88.183L158.905 86.6399L157.655 84.6533L159.101 78.8953C159.101 78.8953 168.313 80.6688 169.004 83.2369C169.695 85.8049 160.298 93.9296 160.298 93.9296Z" fill="white"/>
</mask>
<g mask="url(#mask7_274_33052)">
<path opacity="0.2" d="M159.711 89.6744C159.734 89.1823 159.786 88.692 159.867 88.2061L158.894 86.6629C160.647 86.3916 162.244 85.496 163.391 84.1409C163.439 85.3333 163.109 86.5106 162.448 87.5044C161.788 88.4982 160.83 89.2577 159.711 89.6744Z" fill="black" fill-opacity="0.7"/>
</g>
<path d="M160.298 93.9293C159.815 92.5579 159.619 91.1016 159.722 89.6511C159.745 89.159 159.797 88.6687 159.878 88.1828L158.905 86.6396L157.655 84.6531L159.101 78.895C159.101 78.895 168.313 80.6685 169.004 83.2366C169.695 85.8047 160.298 93.9293 160.298 93.9293Z" stroke="#263238" stroke-linecap="round" stroke-linejoin="round"/>
<path d="M166.079 79.3788C168.958 71.8933 167.047 59.1507 153.227 61.5921C145.12 63.0317 144.141 72.8319 146.847 77.185C149.554 81.5381 146.68 81.6763 150.751 84.9008C152.404 86.2079 153.734 88.4247 155.703 88.5687C158.047 88.7299 161.047 86.5131 163.287 84.1177" fill="white"/>
<path d="M166.079 79.3788C168.958 71.8933 167.047 59.1507 153.227 61.5921C145.12 63.0317 144.141 72.8319 146.847 77.185C149.554 81.5381 146.68 81.6763 150.751 84.9008C152.404 86.2079 153.734 88.4247 155.703 88.5687C158.047 88.7299 161.047 86.5131 163.287 84.1177" stroke="#263238" stroke-linecap="round" stroke-linejoin="round"/>
<path d="M152.462 77.1851C152.462 77.1851 154.5 75.331 156.924 76.0968" stroke="#263238" stroke-linecap="round" stroke-linejoin="round"/>
<path d="M148.644 77.1849C148.371 76.704 147.99 76.2927 147.531 75.9831C147.073 75.6735 146.549 75.4739 146.001 75.3999" stroke="#263238" stroke-linecap="round" stroke-linejoin="round"/>
<path d="M149.99 79.8855C149.99 79.8855 149.697 81.3768 149.311 82.8854C148.925 84.3941 151.729 83.5707 151.614 83.3403" fill="white"/>
<path d="M149.99 79.8855C149.99 79.8855 149.697 81.3768 149.311 82.8854C148.925 84.3941 151.729 83.5707 151.614 83.3403" stroke="#263238" stroke-linecap="round" stroke-linejoin="round"/>
<path d="M153.061 85.2231C154.25 84.8827 155.307 84.1901 156.095 83.2366" stroke="#263238" stroke-linecap="round" stroke-linejoin="round"/>
<path d="M155.301 79.0793C155.342 79.1519 155.368 79.2318 155.378 79.3145C155.388 79.3972 155.382 79.4811 155.359 79.5613C155.337 79.6416 155.299 79.7166 155.247 79.7821C155.196 79.8476 155.132 79.9023 155.059 79.943C154.912 80.0237 154.738 80.0429 154.577 79.9966C154.415 79.9502 154.278 79.842 154.196 79.6954C154.143 79.6065 154.115 79.5051 154.115 79.4018C154.074 79.3292 154.048 79.2493 154.038 79.1665C154.028 79.0838 154.034 78.9999 154.057 78.9197C154.079 78.8395 154.117 78.7645 154.169 78.699C154.22 78.6335 154.284 78.5788 154.357 78.538C154.504 78.4574 154.678 78.4381 154.839 78.4845C155.001 78.5308 155.138 78.639 155.221 78.7856C155.273 78.8745 155.301 78.976 155.301 79.0793Z" fill="#263238"/>
<path d="M149.151 78.9527C149.266 79.3672 149.186 79.7588 148.967 79.8164C148.748 79.874 148.477 79.5861 148.391 79.1657C148.305 78.7454 148.362 78.3596 148.581 78.302C148.8 78.2444 149.024 78.5323 149.151 78.9527Z" fill="#263238"/>
<path d="M157.557 69.4749C157.557 69.4749 155.415 75.0775 150.118 74.9508C150.118 74.9508 151.955 73.5516 152.462 72.2157C152.462 72.2157 148.385 76.2464 144.314 74.1965C140.243 72.1467 142.241 62.6113 148.488 58.8455C154.736 55.0797 161.127 56.0874 163.292 59.6862C163.292 59.6862 167.669 59.2831 169.598 65.7149C171.325 71.473 168.561 80.2022 165.861 80.3001C161.674 80.4555 160.834 75.9124 160.834 75.9124C159.105 74.1547 157.961 71.9067 157.557 69.4749Z" fill="#263238" stroke="#263238" stroke-linecap="round" stroke-linejoin="round"/>
<path d="M162.147 79.4076C162.147 79.4076 162.015 74.1217 165.026 74.7609C168.038 75.4 165.856 81.5093 163.593 81.446" fill="white"/>
<path d="M162.147 79.4076C162.147 79.4076 162.015 74.1217 165.026 74.7609C168.038 75.4 165.856 81.5093 163.593 81.446" stroke="#263238" stroke-linecap="round" stroke-linejoin="round"/>
<path d="M152.847 109.084H106.42C105.902 109.084 105.481 109.505 105.481 110.023V111.641C105.481 112.159 105.902 112.58 106.42 112.58H152.847C153.366 112.58 153.786 112.159 153.786 111.641V110.023C153.786 109.505 153.366 109.084 152.847 109.084Z" fill="#92E3A9" stroke="#263238" stroke-linecap="round" stroke-linejoin="round"/>
<path d="M37.8976 179.419H18.3145L20.3643 197.321H35.8478L37.8976 179.419Z" fill="#263238" stroke="#263238" stroke-linecap="round" stroke-linejoin="round"/>
<path d="M40.2183 166.959C40.2183 166.959 31.6675 167.633 31.3105 173.944C31.3105 173.944 39.9707 177.928 40.2183 166.959Z" fill="#92E3A9" stroke="#263238" stroke-linecap="round" stroke-linejoin="round"/>
<path d="M23.3006 168.525C23.3006 168.525 18.5214 162.065 10.7998 165.376C10.7998 165.376 15.5157 173.166 23.3006 168.525Z" fill="#92E3A9" stroke="#263238" stroke-linecap="round" stroke-linejoin="round"/>
<path d="M11.456 148.13C11.456 148.13 10.0798 160.556 21.3944 157.136C21.3944 157.136 17.8014 147.998 11.456 148.13Z" fill="#92E3A9" stroke="#263238" stroke-linecap="round" stroke-linejoin="round"/>
<path d="M25.3514 141.209C25.3514 141.209 16.4034 146.034 22.9849 153.359C22.9791 153.359 29.2496 148.124 25.3514 141.209Z" fill="#92E3A9" stroke="#263238" stroke-linecap="round" stroke-linejoin="round"/>
<path d="M36.3542 152.316C36.3542 152.316 26.623 151.332 26.623 160.337C26.623 160.337 36.3542 160.723 36.3542 152.316Z" fill="#92E3A9" stroke="#263238" stroke-linecap="round" stroke-linejoin="round"/>
<path d="M27.1818 186.796C27.1818 186.796 31.6155 177.49 27.3603 168.013C23.1051 158.535 21.6598 150.548 23.9055 144.923" stroke="#263238" stroke-linecap="round" stroke-linejoin="round"/>
<path d="M33.1585 154.74C33.1585 154.74 27.3256 157.044 25.3506 163.061" stroke="#263238" stroke-linecap="round" stroke-linejoin="round"/>
<path d="M14.5312 153.099C14.5312 153.099 17.8997 157.706 23.606 157.193" stroke="#263238" stroke-linecap="round" stroke-linejoin="round"/>
<path d="M14.5312 166.7C14.5312 166.7 23.8593 169.383 27.5675 168.508" stroke="#263238" stroke-linecap="round" stroke-linejoin="round"/>
<path d="M37.4436 169.798C37.4436 169.798 33.269 174.404 29.0771 174.306" stroke="#263238" stroke-linecap="round" stroke-linejoin="round"/>
<path d="M38.7382 179.022H17.4736V181.55H38.7382V179.022Z" fill="#263238" stroke="#263238" stroke-linecap="round" stroke-linejoin="round"/>
<path d="M193.05 162.802C188.079 166.049 183.908 170.38 180.849 175.47C175.776 183.934 171.757 195.842 177.999 197.35L183.935 197.126L195.359 193.204L194.162 190.901C194.162 190.901 184.16 196.199 182.45 196.199C180.74 196.199 178.511 196.625 177.573 195.939C176.634 195.254 180.861 179.863 189.907 174.732C198.952 169.602 193.05 162.802 193.05 162.802Z" fill="#92E3A9"/>
<mask id="mask8_274_33052" style="mask-type:luminance" maskUnits="userSpaceOnUse" x="174" y="162" width="22" height="36">
<path d="M193.051 162.802C188.08 166.049 183.909 170.38 180.85 175.47C175.777 183.934 171.758 195.842 178 197.35L183.936 197.126L195.36 193.204L194.163 190.901C194.163 190.901 184.161 196.199 182.451 196.199C180.741 196.199 178.512 196.625 177.574 195.939C176.635 195.254 180.862 179.863 189.908 174.732C198.953 169.602 193.051 162.802 193.051 162.802Z" fill="white"/>
</mask>
<g mask="url(#mask8_274_33052)">
<path opacity="0.5" d="M193.051 162.802C188.08 166.049 183.909 170.38 180.85 175.47C175.777 183.934 171.758 195.842 178 197.35L183.936 197.126L195.36 193.204L194.163 190.901C194.163 190.901 184.161 196.199 182.451 196.199C180.741 196.199 178.512 196.625 177.574 195.939C176.635 195.254 180.862 179.863 189.908 174.732C198.953 169.602 193.051 162.802 193.051 162.802Z" fill="black" fill-opacity="0.7"/>
</g>
<path d="M193.05 162.802C188.079 166.049 183.908 170.38 180.849 175.47C175.776 183.934 171.757 195.842 177.999 197.35L183.935 197.126L195.359 193.204L194.162 190.901C194.162 190.901 184.16 196.199 182.45 196.199C180.74 196.199 178.511 196.625 177.573 195.939C176.634 195.254 180.861 179.863 189.907 174.732C198.952 169.602 193.05 162.802 193.05 162.802Z" stroke="#263238" stroke-linecap="round" stroke-linejoin="round"/>
<path d="M199.551 157.251C199.551 157.251 199.551 154.769 203.311 154.429C207.071 154.09 207.606 157.712 207.606 157.712H206.311C206.311 157.712 206.34 155.541 203.576 155.374C200.812 155.207 200.915 157.712 200.915 157.712L199.551 157.251Z" fill="#92E3A9" stroke="#263238" stroke-linecap="round" stroke-linejoin="round"/>
<path d="M193.989 197.35C186.037 197.35 187.546 161.69 188.462 159.923C189.377 158.155 212.45 157.274 214.724 158.023C216.999 158.771 226.119 194.298 221.087 197.137L193.989 197.35Z" fill="#92E3A9"/>
<mask id="mask9_274_33052" style="mask-type:luminance" maskUnits="userSpaceOnUse" x="187" y="157" width="36" height="41">
<path d="M193.989 197.35C186.037 197.35 187.546 161.69 188.462 159.923C189.377 158.155 212.45 157.274 214.724 158.023C216.999 158.771 226.119 194.298 221.087 197.137L193.989 197.35Z" fill="white"/>
</mask>
<g mask="url(#mask9_274_33052)">
<path opacity="0.2" d="M193.989 197.35C186.037 197.35 187.546 161.69 188.462 159.923C189.377 158.155 212.45 157.274 214.724 158.023C216.999 158.771 226.119 194.298 221.087 197.137L193.989 197.35Z" fill="black" fill-opacity="0.7"/>
</g>
<path d="M193.989 197.35C186.037 197.35 187.546 161.69 188.462 159.923C189.377 158.155 212.45 157.274 214.724 158.023C216.999 158.771 226.119 194.298 221.087 197.137L193.989 197.35Z" stroke="#263238" stroke-linecap="round" stroke-linejoin="round"/>
<path d="M188.461 159.882C191.34 160.498 192.998 172.17 196.873 175.141C200.749 178.112 219.019 177.473 221.086 175.141C223.153 172.809 219.111 159.715 216.175 157.712C213.238 155.708 211.148 157.654 202.885 156.738C190.637 155.374 188.461 159.882 188.461 159.882Z" fill="#92E3A9" stroke="#263238" stroke-linecap="round" stroke-linejoin="round"/>
<path d="M209.431 166.591L212.817 169.354C212.863 169.394 212.901 169.442 212.929 169.496C212.957 169.55 212.973 169.609 212.978 169.669C212.983 169.73 212.976 169.79 212.957 169.848C212.938 169.906 212.908 169.959 212.869 170.005L210.232 172.85C210.148 172.933 210.034 172.98 209.915 172.98C209.796 172.98 209.683 172.933 209.598 172.85L206.23 169.711C206.148 169.627 206.102 169.513 206.102 169.395C206.102 169.277 206.148 169.163 206.23 169.078L208.838 166.654C208.912 166.573 209.014 166.521 209.123 166.51C209.232 166.498 209.342 166.527 209.431 166.591Z" fill="#92E3A9"/>
<mask id="mask10_274_33052" style="mask-type:luminance" maskUnits="userSpaceOnUse" x="206" y="166" width="7" height="7">
<path d="M209.432 166.591L212.818 169.354C212.864 169.394 212.902 169.442 212.93 169.496C212.958 169.55 212.974 169.609 212.979 169.669C212.984 169.73 212.977 169.79 212.958 169.848C212.939 169.906 212.909 169.959 212.87 170.005L210.233 172.85C210.149 172.933 210.035 172.98 209.916 172.98C209.797 172.98 209.684 172.933 209.599 172.85L206.231 169.711C206.149 169.627 206.103 169.513 206.103 169.395C206.103 169.277 206.149 169.163 206.231 169.078L208.839 166.654C208.913 166.573 209.014 166.521 209.124 166.51C209.233 166.498 209.343 166.527 209.432 166.591Z" fill="white"/>
</mask>
<g mask="url(#mask10_274_33052)">
<path opacity="0.2" d="M209.432 166.591L212.818 169.354C212.864 169.394 212.902 169.442 212.93 169.496C212.958 169.55 212.974 169.609 212.979 169.669C212.984 169.73 212.977 169.79 212.958 169.848C212.939 169.906 212.909 169.959 212.87 170.005L210.233 172.85C210.149 172.933 210.035 172.98 209.916 172.98C209.797 172.98 209.684 172.933 209.599 172.85L206.231 169.711C206.149 169.627 206.103 169.513 206.103 169.395C206.103 169.277 206.149 169.163 206.231 169.078L208.839 166.654C208.913 166.573 209.014 166.521 209.124 166.51C209.233 166.498 209.343 166.527 209.432 166.591Z" fill="black" fill-opacity="0.7"/>
</g>
<path d="M209.431 166.591L212.817 169.354C212.863 169.394 212.901 169.442 212.929 169.496C212.957 169.55 212.973 169.609 212.978 169.669C212.983 169.73 212.976 169.79 212.957 169.848C212.938 169.906 212.908 169.959 212.869 170.005L210.232 172.85C210.148 172.933 210.034 172.98 209.915 172.98C209.796 172.98 209.683 172.933 209.598 172.85L206.23 169.711C206.148 169.627 206.102 169.513 206.102 169.395C206.102 169.277 206.148 169.163 206.23 169.078L208.838 166.654C208.912 166.573 209.014 166.521 209.123 166.51C209.232 166.498 209.342 166.527 209.431 166.591Z" stroke="#263238" stroke-linecap="round" stroke-linejoin="round"/>
<path d="M198.267 181.107C198.267 181.107 213.572 182.368 221.087 180.421C222.092 181.213 222.84 182.285 223.234 183.502C223.92 185.552 225.348 192.565 221.087 194.362C216.826 196.158 201.509 195.813 199.465 193.786C197.421 191.759 198.267 181.107 198.267 181.107Z" fill="#92E3A9"/>
<mask id="mask11_274_33052" style="mask-type:luminance" maskUnits="userSpaceOnUse" x="198" y="180" width="27" height="16">
<path d="M198.268 181.107C198.268 181.107 213.573 182.368 221.088 180.421C222.093 181.213 222.841 182.285 223.235 183.502C223.921 185.552 225.349 192.565 221.088 194.362C216.827 196.158 201.51 195.813 199.466 193.786C197.422 191.759 198.268 181.107 198.268 181.107Z" fill="white"/>
</mask>
<g mask="url(#mask11_274_33052)">
<path opacity="0.4" d="M198.268 181.107C198.268 181.107 213.573 182.368 221.088 180.421C222.093 181.213 222.841 182.285 223.235 183.502C223.921 185.552 225.349 192.565 221.088 194.362C216.827 196.158 201.51 195.813 199.466 193.786C197.422 191.759 198.268 181.107 198.268 181.107Z" fill="black" fill-opacity="0.7"/>
</g>
<path d="M198.267 181.107C198.267 181.107 213.572 182.368 221.087 180.421C222.092 181.213 222.84 182.285 223.234 183.502C223.92 185.552 225.348 192.565 221.087 194.362C216.826 196.158 201.509 195.813 199.465 193.786C197.421 191.759 198.267 181.107 198.267 181.107Z" stroke="#263238" stroke-linecap="round" stroke-linejoin="round"/>
<path d="M198.268 181.107C198.268 181.107 200.064 185.949 201.003 186.692C201.941 187.435 221.824 187.435 224.035 185.638C226.246 183.842 223.217 180.594 221.093 180.421C221.087 180.421 207.158 182.045 198.268 181.107Z" fill="#92E3A9" stroke="#263238" stroke-linecap="round" stroke-linejoin="round"/>
<path d="M191.853 180.076C191.853 180.076 192.366 190.25 193.391 192.559C192.63 192.956 191.784 193.164 190.926 193.164C190.068 193.164 189.223 192.956 188.462 192.559C185.871 191.189 186.297 182.425 186.809 182.448C187.322 182.471 191.853 180.076 191.853 180.076Z" fill="#92E3A9"/>
<mask id="mask12_274_33052" style="mask-type:luminance" maskUnits="userSpaceOnUse" x="186" y="180" width="8" height="14">
<path d="M191.853 180.076C191.853 180.076 192.366 190.25 193.391 192.559C192.63 192.956 191.784 193.164 190.926 193.164C190.068 193.164 189.223 192.956 188.462 192.559C185.871 191.189 186.297 182.425 186.809 182.448C187.322 182.471 191.853 180.076 191.853 180.076Z" fill="white"/>
</mask>
<g mask="url(#mask12_274_33052)">
<path opacity="0.4" d="M191.853 180.076C191.853 180.076 192.366 190.25 193.391 192.559C192.63 192.956 191.784 193.164 190.926 193.164C190.068 193.164 189.223 192.956 188.462 192.559C185.871 191.189 186.297 182.425 186.809 182.448C187.322 182.471 191.853 180.076 191.853 180.076Z" fill="black" fill-opacity="0.7"/>
</g>
<path d="M191.853 180.076C191.853 180.076 192.366 190.25 193.391 192.559C192.63 192.956 191.784 193.164 190.926 193.164C190.068 193.164 189.223 192.956 188.462 192.559C185.871 191.189 186.297 182.425 186.809 182.448C187.322 182.471 191.853 180.076 191.853 180.076Z" stroke="#263238" stroke-linecap="round" stroke-linejoin="round"/>
<path d="M191.853 180.076L188.001 180.848C188.001 180.848 184.328 183.669 185.951 184.608C187.575 185.546 191.761 183.243 191.853 180.076Z" fill="#92E3A9" stroke="#263238" stroke-linecap="round" stroke-linejoin="round"/>
</svg>
