<svg width="167" height="223" viewBox="0 0 167 223" fill="none" xmlns="http://www.w3.org/2000/svg">
<g clip-path="url(#clip0_525_3334)">
<path d="M107.261 55.7985C107.261 57.133 106.194 58.228 104.879 58.228L27.835 58.3649C26.5202 58.3649 25.4414 57.2927 25.4414 55.9468V55.8784C25.4414 54.5439 26.4977 53.4489 27.8238 53.4489L104.868 53.312C106.183 53.312 107.261 54.3842 107.261 55.7301V55.7985Z" fill="#002657"/>
<path d="M12.125 58.6957L12.8442 55.4906C12.9228 55.1712 13.215 54.9659 13.5297 55.0229L14.7433 55.2168C15.0804 55.2625 15.3052 55.5932 15.249 55.9354L14.2376 61.4902C14.1252 62.1061 13.2824 62.1859 13.0802 61.5928L12.1474 59.0607C12.1137 58.9466 12.1025 58.8326 12.125 58.7071V58.6957Z" fill="#002657"/>
<path d="M106.924 67.3983C106.924 68.5618 106.003 69.5085 104.857 69.5085L27.408 69.9191C26.2618 69.9191 25.3291 68.9838 25.3291 67.8204V67.2615C25.3291 66.098 26.2506 65.1513 27.3856 65.1513L104.834 64.7407C105.98 64.7407 106.913 65.676 106.913 66.8394V67.3983H106.924Z" fill="#002657"/>
<path d="M13.62 72.691C12.9121 72.6568 12.4064 71.2538 12.4738 69.5543C12.5412 67.8548 13.1593 66.4975 13.8672 66.5203C14.5752 66.5545 15.0809 67.9575 15.0135 69.657C14.946 71.3565 14.328 72.7138 13.62 72.691Z" fill="#002657"/>
<path d="M28.2624 80.2302C26.3632 80.0363 25.5654 78.9185 25.8575 76.911C25.9025 76.6487 26.1048 76.4548 26.352 76.4434C28.1725 76.2609 29.9367 75.8845 31.8022 75.8503C38.5334 75.7476 44.8489 75.6336 51.5801 76.1468C57.3562 76.5803 63.2671 75.8731 69.1555 75.8503C80.3255 75.7932 91.3832 75.7704 102.317 75.8046C103.992 75.8046 105.531 76.1012 107.082 76.4662C107.801 76.6259 108.183 77.0821 108.228 77.8235C108.363 80.1846 105.565 80.1732 103.947 80.2416C92.5407 80.7321 81.674 80.8803 71.3356 80.7093C66.6271 80.6294 62.3905 80.2188 58.626 79.4774C56.8168 79.1238 55.1424 79.1124 53.5804 79.4774C52.7488 79.6599 51.861 79.7968 50.9058 79.8766C47.1525 80.196 43.5453 80.4355 40.0729 80.5952C37.7693 80.6978 35.061 80.2074 33.3866 80.2986C31.4201 80.4241 29.712 80.4013 28.2511 80.2416L28.2624 80.2302Z" fill="#002657"/>
<path d="M13.2939 83.3783C12.4848 83.3098 11.9454 82.0323 12.0802 80.5382C12.2151 79.044 12.9792 77.9034 13.7883 77.9832C14.5974 78.0516 15.1368 79.3291 15.002 80.8233C14.8671 82.3175 14.103 83.4581 13.2939 83.3783Z" fill="#002657"/>
<path d="M55.2432 90.2447C55.2432 91.5222 54.2093 92.5602 52.9507 92.5487L27.8687 92.4119C26.6101 92.4119 25.5875 91.3625 25.5987 90.085V89.9482C25.5987 88.6707 26.6326 87.6327 27.8912 87.6441L52.9732 87.781C54.2318 87.781 55.2544 88.8304 55.2432 90.1079V90.2447Z" fill="#002657"/>
<path d="M62.4355 88.4883C62.4355 87.9294 62.885 87.4731 63.4357 87.4731H95.8445C97.4178 87.4731 98.6876 88.4541 98.6876 89.6745V89.8C98.6876 91.009 97.4178 92.0014 95.8445 92.0014H63.4357C62.8738 92.0014 62.4355 91.5451 62.4355 90.9862V88.5111V88.4883Z" fill="#002657"/>
<path d="M14.5749 95.925C14.5749 95.9935 14.5187 96.0505 14.4512 96.0505H14.3052C13.1027 96.0505 12.1363 94.5221 12.1476 92.6515V91.7732C12.1476 89.9026 13.1477 88.4084 14.3389 88.4084H14.485C14.5636 88.4084 14.6086 88.4655 14.6086 88.5339L14.5749 95.9022V95.925Z" fill="#002657"/>
<path d="M121.522 98.9019C121.05 99.6205 121.23 99.9171 122.073 99.8144L124.197 99.5179C124.534 99.4722 124.781 99.8372 124.613 100.145C123.86 101.445 122.837 101.947 121.511 101.662C121.208 101.594 120.994 101.411 120.882 101.115C120.736 100.75 120.679 100.373 120.691 99.9969C120.713 99.7118 120.657 99.4494 120.545 99.1985C119.96 97.8412 119.96 96.4952 120.5 95.1493C120.612 94.887 120.792 94.7273 121.073 94.6703C123.062 94.2483 124.736 93.37 126.085 92.0355C126.568 91.5678 126.759 91.6591 126.68 92.332L126.444 94.3167C126.388 94.7843 126.051 95.195 125.601 95.3318L121.871 96.4838C121.556 96.5751 121.387 96.9287 121.511 97.2481C121.792 97.9552 121.792 98.5141 121.511 98.9247L121.522 98.9019Z" fill="#002657"/>
<path d="M25.0261 101.845C24.5204 100.91 25.0373 99.7575 26.0712 99.5294C28.3861 99.0275 30.892 98.7652 33.5778 98.7652C43.5679 98.7082 53.6816 98.4002 63.6492 98.9477C65.9866 99.0732 68.1892 99.096 70.2569 99.0389C74.9092 98.8907 79.584 99.4724 84.3487 99.2557C89.9899 98.9933 96.9121 99.0047 105.138 99.2785C106.734 99.3241 107.183 100.088 106.442 101.537L106.172 102.062C105.621 103.168 104.722 103.727 103.497 103.738C80.719 103.829 55.6706 103.852 28.3748 103.807C26.8465 103.807 25.734 103.145 25.0261 101.833V101.845Z" fill="#002657"/>
<path d="M13.4964 105.711C12.8671 105.677 12.4176 104.582 12.4962 103.27C12.5749 101.959 13.148 100.932 13.7773 100.966C14.4066 101.001 14.8561 102.096 14.7774 103.407C14.6988 104.719 14.1257 105.746 13.4964 105.711Z" fill="#002657"/>
<path d="M12.4961 110.297C12.4961 110.069 12.6647 109.863 12.9006 109.863H13.0243C14.1255 109.829 15.047 110.696 15.0807 111.791V112.053C15.1144 113.16 14.2379 114.072 13.1366 114.095H13.013C12.777 114.095 12.586 113.924 12.586 113.696L12.5073 110.297H12.4961Z" fill="#002657"/>
<path d="M26.5539 110.73C28.4306 110.399 29.9252 109.932 31.8917 109.932C46.478 109.932 61.0642 110.046 75.6504 110.297C78.3025 110.342 80.932 110.753 83.5279 110.662C84.1572 110.639 84.6853 111.163 84.6741 111.814L84.6516 112.988C84.6516 113.65 84.3145 114.004 83.674 114.083C81.5613 114.334 79.6397 114.471 77.8979 114.517C67.9078 114.756 52.0293 114.825 30.2511 114.711C29.0149 114.711 27.835 114.448 26.7 113.947C26.4191 113.833 26.273 113.616 26.2618 113.319L26.1157 111.289C26.0932 110.958 26.228 110.764 26.5652 110.719L26.5539 110.73Z" fill="#002657"/>
<path d="M15.1931 118.247L14.2941 120.722C14.2154 120.95 14.0469 121.075 13.7884 121.075C13.5075 121.075 13.2715 120.996 13.0355 120.813C12.8332 120.642 12.7321 120.425 12.7321 120.151V117.962C12.7209 117.665 12.8557 117.528 13.1366 117.528H14.6987C15.2156 117.528 15.3729 117.756 15.1931 118.247Z" fill="#002657"/>
<path d="M28.644 152.1C28.6553 152.613 29.2621 152.875 29.6442 152.556C33.6672 149.134 36.8586 153.64 38.9038 156.685C39.0836 156.947 39.4432 156.982 39.668 156.754C41.3424 155.02 42.8819 153.104 44.2753 151.039C50.1975 142.234 56.5129 132.869 63.2217 122.923C64.1881 121.475 65.4243 121.178 66.9413 122.022L67.4133 122.284C68.3685 122.82 68.6719 124.052 68.0988 124.988C62.2103 134.489 56.0859 144.195 49.748 154.107C47.2083 158.065 44.5226 161.658 41.702 164.909C38.0835 169.061 33.3413 162.901 31.0264 160.369C30.442 159.731 29.7228 159.4 28.8913 159.366C28.5429 159.343 28.3631 159.514 28.3743 159.879L28.5429 169.893C28.5429 170.327 28.7676 170.532 29.1947 170.543C39.7354 170.783 50.22 170.897 60.6371 170.863C61.6934 170.863 62.8172 170.772 64.0196 170.612C64.9523 170.486 65.4243 169.939 65.413 168.981C65.3793 162.901 65.4467 156.822 65.6041 150.731C65.7052 146.762 65.4804 142.724 65.3905 138.698C65.3344 135.755 66.6267 131.9 69.481 130.634C70.1328 130.337 70.8744 130.85 70.8407 131.58C70.4474 143.078 70.335 154.564 70.5261 166.027C70.5598 167.909 70.2339 169.836 70.0541 171.73C70.0316 172.015 69.9192 172.266 69.7282 172.483C67.8853 174.547 65.6827 175.596 63.0981 175.631C49.8716 175.824 38.4319 175.676 28.7676 175.186C24.2277 174.958 23.6209 171.57 23.6546 167.452C23.6995 157.677 23.722 147.731 23.6995 137.626C23.6995 134.295 24.9357 132.128 27.4529 131.136C28.5092 130.713 30.678 130.508 33.9594 130.531C39.668 130.554 45.5677 130.497 51.6471 130.348C53.1529 130.314 53.6923 131.033 53.2541 132.493L52.9731 133.44C52.5574 134.82 51.6359 135.504 50.22 135.493C44.6012 135.47 38.6566 135.47 32.3636 135.493C31.105 135.493 30.06 135.675 29.2509 136.029C28.9587 136.154 28.7901 136.394 28.7901 136.713C28.5204 141.869 28.4867 146.99 28.689 152.077L28.644 152.1Z" fill="#002657"/>
<path d="M13.7771 130.006C13.0917 130.006 12.541 128.82 12.541 127.337C12.541 125.866 13.0804 124.668 13.7659 124.668C14.4514 124.668 15.002 125.854 15.002 127.337C15.002 128.809 14.4626 130.006 13.7771 130.006Z" fill="#002657"/>
<path d="M15.1141 139.61C15.0916 140.169 14.6421 140.614 14.0915 140.591H13.6082C13.0576 140.557 12.6306 140.101 12.6418 139.542L12.7317 136.348C12.7542 135.789 13.2037 135.344 13.7543 135.367H14.2375C14.7882 135.402 15.2152 135.858 15.204 136.417L15.1141 139.61Z" fill="#002657"/>
<path d="M15.0916 147.469C15.0916 147.937 14.6983 148.313 14.2263 148.302H13.4846C13.0239 148.279 12.6531 147.88 12.6643 147.412L12.698 145.735C12.698 145.268 13.0913 144.891 13.5633 144.903H14.305C14.7657 144.925 15.1366 145.325 15.1253 145.792L15.0916 147.469Z" fill="#002657"/>
<path d="M14.4514 152.636C14.6649 152.636 14.8334 152.819 14.8222 153.047V153.252C14.7548 155.351 14.2828 157.039 13.7546 157.016H13.5636C13.0467 156.993 12.6758 155.282 12.7433 153.184V152.978C12.7433 152.762 12.9231 152.59 13.1478 152.602L14.4514 152.636Z" fill="#002657"/>
<path d="M14.4068 163.814C14.4068 164.259 14.0472 164.612 13.6089 164.612H13.5415C13.1032 164.612 12.7549 164.247 12.7549 163.802L12.7774 160.004C12.7774 159.559 13.137 159.206 13.5752 159.206H13.6426C14.0809 159.206 14.4293 159.571 14.4293 160.016L14.4068 163.814Z" fill="#002657"/>
<path d="M15.137 171.798C15.1146 172.426 14.5976 172.916 13.9796 172.893H13.7661C13.148 172.87 12.6648 172.334 12.6873 171.707L12.7772 169.095C12.7997 168.468 13.3166 167.977 13.9346 168H14.1481C14.7662 168.023 15.2494 168.559 15.2269 169.186L15.137 171.798Z" fill="#002657"/>
<path d="M134.074 198.066C142.525 195.991 149.312 192.842 155.538 186.968C155.807 186.706 156.099 186.672 156.414 186.831C156.639 186.946 156.785 187.162 156.796 187.425C156.942 191.097 156.998 194.93 156.954 198.933C156.875 205.366 150.908 206.598 145.84 206.838C141.333 207.054 136.996 206.975 132.849 206.621C131.444 206.507 129.972 206.119 128.455 205.458C127.905 205.218 127.601 204.625 127.714 204.02C128.354 200.69 130.871 198.865 134.085 198.066H134.074Z" fill="#002657"/>
<path d="M14.6091 189.911C14.3956 190.105 13.8112 189.797 13.3168 189.215C12.8111 188.633 12.5751 188.017 12.7886 187.824C13.0021 187.63 13.5865 187.938 14.0809 188.519C14.5866 189.101 14.8226 189.717 14.6091 189.911Z" fill="#002657"/>
<path d="M130.602 26.3595C128.253 25.1733 126.466 24.6144 125.23 24.6942C117.859 25.1504 110.577 24.5687 103.239 24.8767C102.474 24.9109 101.778 24.6258 101.081 24.352C100.823 24.2494 100.62 24.0783 100.452 23.8502C96.159 17.5768 89.439 19.0254 82.9437 19.1052C82.247 19.1052 81.7076 18.4779 81.82 17.7707C85.5508 -4.95016 51.5575 -6.92341 54.4006 18.0217C54.4343 18.3182 54.2994 18.4779 54.0073 18.4779C50.3439 18.5349 46.6917 18.7174 43.0395 19.014C39.5784 19.2991 37.2634 21.4321 34.9935 23.4509C34.3754 23.9984 33.5776 24.3064 32.7572 24.295C25.0933 24.238 16.6989 23.7133 9.11359 24.9794C2.61833 26.0629 0.0449499 32.1994 0.0561873 38.3016C0.123612 89.7658 0.101137 141.241 0 192.763C0 197.713 0.247224 202.059 4.29271 205.127C6.68629 206.94 10.6868 207.134 13.7659 207.134C36.2408 207.157 58.7158 207.168 81.1907 207.146C82.719 207.146 84.1799 206.803 85.5396 206.13C85.7981 206.005 85.9779 205.811 86.0902 205.549C87.5511 202.424 88.4501 200.177 88.7872 198.796C89.8548 194.462 91.1696 190.299 92.7541 186.295C92.9114 185.885 92.7091 185.417 92.2933 185.292C91.7652 185.132 91.2258 185.041 90.6639 185.041C68.1777 185.063 45.6915 185.098 23.2054 185.132C20.1937 185.132 18.4294 184.949 17.9238 184.55C16.6989 183.592 15.9797 181.539 15.8111 178.402C15.7662 177.501 15.1256 176.748 14.2603 176.566C14.1143 176.543 13.9682 176.509 13.8333 176.475C13.204 176.349 12.6084 176.84 12.6309 177.501L12.8781 186.261C12.8781 186.523 12.9905 186.752 13.204 186.934C15.4066 188.827 16.9911 190.002 17.935 190.493C20.0476 191.576 21.8794 190.265 23.992 190.47C24.7449 190.55 25.5203 190.47 26.3069 190.287C27.9251 189.865 28.4645 191.36 28.2622 192.614C28.206 192.956 28.0038 193.139 27.6666 193.15C26.0035 193.242 25.0258 192.649 24.7224 191.36C24.6662 191.132 24.5876 191.132 24.4752 191.325C23.1155 193.801 19.3622 194.268 17.6653 192.477C17.4068 192.204 17.1371 192.192 16.8562 192.443C15.1931 193.96 13.5973 194.029 12.069 192.649C10.3609 191.132 9.46195 189.398 9.36081 187.447C9.1473 183.524 8.8776 179.725 8.8776 175.768C8.85512 148.576 8.84389 121.395 8.8776 94.2142C8.90007 76.1926 8.7877 58.5018 8.56295 41.176C8.49553 36.2485 8.84389 31.15 15.1593 31.093C20.7219 31.0474 25.6664 31.093 30.004 31.2641C30.9929 31.2983 31.4537 31.823 31.3862 32.8153L31.3413 33.4883C31.2851 34.4122 30.7907 34.8456 29.8804 34.8114C25.6102 34.5833 21.5984 34.7544 17.8563 35.3361C15.0919 35.7695 13.44 37.0812 12.9118 39.2826C12.2264 42.077 12.0915 45.2936 12.4961 48.9093C12.586 49.6963 13.1928 50.3236 13.9682 50.4377L14.3615 50.4947C14.811 50.5518 15.2155 50.1982 15.1931 49.7305C15.1032 47.1984 15.283 41.5752 17.5192 40.2407C18.1485 39.8643 18.8565 39.6704 19.6543 39.6476C23.5088 39.5221 27.6329 39.5563 32.0043 39.7388C32.5325 39.7616 33.0044 40.1038 33.1955 40.6057C34.2855 43.423 38.7018 43.058 41.1404 43.058C60.3789 43.0808 79.6287 43.0922 98.8785 43.058C101.002 43.058 102.362 42.1113 102.935 40.2179C103.025 39.9555 103.194 39.8072 103.475 39.7844C105.61 39.659 114.027 38.7465 115.712 41.4041C116.139 42.077 116.353 42.7842 116.353 43.5142C116.353 49.6507 116.33 55.7757 116.319 61.9008C116.319 65.1743 117.038 68.619 118.465 72.2461C118.78 73.0217 118.949 73.6719 118.971 74.1851C119.319 80.0478 119.589 86.0588 119.78 92.1953C119.791 92.6629 120.286 92.9481 120.702 92.7314C121.567 92.2751 122.477 91.7048 123.399 91.0319C124.084 90.5186 123.916 89.435 123.106 89.1613C122.859 89.0814 122.679 88.9104 122.533 88.6594C122.354 88.3401 122.443 88.226 122.781 88.34C123.747 88.6594 124.882 88.6708 126.163 88.3857C126.388 88.3286 126.5 88.1918 126.489 87.9637L126.466 87.0398C126.466 86.7546 126.309 86.5949 126.039 86.5493C125.242 86.4238 124.298 86.4809 123.208 86.709C122.522 86.8687 122.309 86.6063 122.567 85.9448L122.96 84.9639C123.129 84.5304 123.522 84.2225 123.994 84.1882L126.545 83.9601C126.849 83.9373 127.073 83.7776 127.231 83.5153L128.175 81.8614C128.444 81.3823 128.118 80.7778 127.568 80.7664L124.185 80.6638C123.904 80.6638 123.702 80.4014 123.758 80.1163L123.814 79.7969C123.893 79.3407 124.286 79.0213 124.736 79.0213H127.388C127.714 79.0213 127.916 78.8502 127.995 78.5194L128.422 76.7629C128.422 76.7629 128.444 76.7059 128.478 76.7173L128.691 76.7743C128.691 76.7743 128.77 76.8199 128.77 76.8541L129.905 101.468C129.916 101.799 130.175 102.039 130.489 102.062L134.917 102.221C135.243 102.221 135.501 101.97 135.501 101.651C135.58 81.5534 135.704 61.3875 135.883 41.1532C135.94 35.1764 136.524 29.3365 130.591 26.3367L130.602 26.3595ZM84.8653 190.641C85.4497 190.071 86.4948 190.219 87.2027 190.96C87.9219 191.713 88.0231 192.774 87.4387 193.344C86.8544 193.915 85.8093 193.766 85.1013 193.025C84.3821 192.272 84.281 191.211 84.8653 190.641ZM77.8757 191.348C77.8981 190.732 78.4263 190.253 79.0219 190.276L80.7075 190.356C81.3143 190.39 81.7863 190.903 81.7638 191.519L81.7301 192.341C81.7076 192.956 81.1795 193.436 80.5839 193.413L78.8983 193.333C78.2914 193.299 77.8195 192.785 77.8419 192.169L77.8757 191.348ZM72.7289 190.709C72.7738 190.504 72.9536 190.356 73.1672 190.356L75.291 190.436C75.5045 190.436 75.6843 190.607 75.7068 190.824L75.8641 192.238C75.8866 192.466 75.7405 192.671 75.5158 192.717L72.8188 193.264C72.5266 193.321 72.2569 193.048 72.3131 192.751L72.7289 190.709ZM67.054 190.345L69.5262 190.265C69.8296 190.265 70.0881 190.493 70.0881 190.801L70.1443 192.443C70.1443 192.751 69.9195 193.014 69.6161 193.014L67.1439 193.093C66.8405 193.093 66.582 192.865 66.582 192.557L66.5258 190.915C66.5258 190.607 66.7506 190.345 67.054 190.345ZM60.6486 191.405C60.8172 190.493 61.8285 189.922 62.8961 190.128C63.9749 190.333 64.7053 191.234 64.5368 192.147C64.3682 193.059 63.3568 193.629 62.2893 193.424C61.2105 193.219 60.4801 192.318 60.6486 191.405ZM56.4907 190.196C57.8954 190.025 59.1091 190.607 59.2102 191.485C59.3114 192.375 58.2775 193.23 56.8728 193.401C55.4681 193.572 54.2545 192.991 54.1534 192.112C54.0522 191.223 55.0861 190.367 56.4907 190.196ZM48.602 190.835C48.6582 190.516 48.9392 190.265 49.2651 190.265L51.771 190.287C52.0969 190.287 52.3778 190.527 52.4228 190.846L52.6138 191.93C52.67 192.295 52.4453 192.626 52.1081 192.717L49.119 193.447C48.647 193.561 48.22 193.15 48.2986 192.683L48.602 190.846V190.835ZM42.8372 190.367L45.8826 190.151C46.2647 190.128 46.6018 190.413 46.6243 190.812L46.7366 192.432C46.7591 192.82 46.4782 193.162 46.0849 193.185L43.0395 193.401C42.6574 193.424 42.3203 193.139 42.2978 192.74L42.1855 191.12C42.163 190.732 42.4439 190.39 42.8372 190.367ZM36.1734 191.086C36.2071 190.618 36.6004 190.253 37.0724 190.253L39.5784 190.299C40.0279 190.299 40.3987 190.652 40.4436 191.109L40.5335 192.033C40.5785 192.489 40.2638 192.911 39.8143 193.002L37.1061 193.493C36.5442 193.595 36.0386 193.139 36.0835 192.557L36.1734 191.097V191.086ZM29.8242 192.101L30.4311 190.755C30.5547 190.47 30.8356 190.299 31.139 190.287L33.2517 190.265C33.7124 190.265 34.072 190.664 34.0383 191.132L33.8922 192.831C33.8585 193.287 33.4539 193.607 33.0044 193.561L30.4198 193.219C29.9029 193.15 29.5995 192.591 29.813 192.101H29.8242ZM60.3452 27.5229C58.3 28.0362 56.03 28.6293 53.9623 28.5609C50.6697 28.4354 47.2198 28.5609 43.6126 28.8802C43.5115 28.8802 43.444 28.789 43.489 28.6977C44.3992 26.8271 45.95 25.9375 48.1301 26.0173C52.1531 26.177 56.1873 26.2568 60.2328 26.2568C60.5362 26.2568 60.7273 26.4051 60.7947 26.7017C60.8172 26.7929 60.8172 26.8956 60.8059 26.9868C60.7835 27.2834 60.6261 27.4545 60.3452 27.5229ZM68.335 19.6185C64.6716 19.6185 61.7049 16.6073 61.7049 12.8889C61.7049 9.17055 64.6716 6.15934 68.335 6.15934C71.9985 6.15934 74.9651 9.17055 74.9651 12.8889C74.9651 16.6073 71.9985 19.6185 68.335 19.6185ZM91.945 29.0741C88.349 28.6065 84.6856 28.4354 80.9322 28.5723C80.5052 28.5723 80.2468 28.3898 80.1569 27.9677L80.1007 27.7168C80.0557 27.5115 80.1793 27.3176 80.3928 27.2834C83.8203 26.7245 87.4275 26.656 91.2033 27.0895C91.7315 27.1465 92.1809 27.4887 92.372 27.9906L92.5181 28.3441C92.7428 28.9144 92.5518 29.1654 91.945 29.0855V29.0741ZM122.174 41.541L122.151 41.4611C121.825 40.5829 122.545 39.4993 123.758 39.0316L123.949 38.9632C125.163 38.507 126.399 38.8377 126.725 39.7046L126.747 39.7844C126.77 39.8529 126.747 39.9327 126.669 39.9555L122.342 41.6094C122.275 41.6322 122.185 41.6094 122.163 41.5296L122.174 41.541ZM122.724 58.0341L122.904 57.6121C123.151 57.019 123.578 56.7338 124.208 56.7453L128.523 56.8137C128.849 56.8137 129.118 57.0874 129.118 57.4182V58.6501C129.13 58.9694 128.804 59.1861 128.523 59.0265C126.938 58.171 125.017 58.4676 123.253 58.7071C122.691 58.7869 122.511 58.5588 122.736 58.0227L122.724 58.0341ZM128.006 75.4512C126.972 74.995 126.23 74.5387 125.781 74.0711C125.264 73.535 125.635 72.6339 126.377 72.6111L127.5 72.5883C127.792 72.5883 127.984 72.7137 128.085 72.9989C128.354 73.7859 128.455 74.5273 128.388 75.2345C128.366 75.474 128.231 75.5538 128.017 75.4512H128.006ZM127.995 68.5962L124.354 68.6646C123.758 68.6646 123.275 68.1969 123.264 67.5924V67.3415C123.264 66.7484 123.713 66.2465 124.309 66.2351L127.95 66.1667C128.545 66.1667 129.029 66.6343 129.04 67.2388V67.4898C129.04 68.0829 128.59 68.5847 127.995 68.5962ZM128.961 63.2125C128.916 63.4178 128.725 63.5661 128.512 63.5775L124.185 63.6459C123.5 63.6459 122.915 63.1098 122.859 62.4027C122.859 62.2088 122.859 62.0377 122.904 61.8552C123.017 61.3647 123.331 61.1252 123.837 61.1366C125.601 61.1936 127.242 60.8172 128.759 60.0074C128.95 59.9047 129.062 59.9618 129.096 60.1785C129.242 61.2164 129.197 62.2202 128.95 63.2125H128.961ZM129.152 54.1447C129.118 54.5097 128.927 54.6465 128.579 54.5667C126.938 54.1675 125.163 54.0648 123.286 54.2359C122.96 54.2587 122.691 54.1561 122.488 53.9165C122.275 53.6542 122.207 53.3577 122.32 53.0269C122.398 52.7988 122.578 52.6048 122.87 52.468C124.421 51.7038 126.028 51.5669 127.703 52.0688C128.017 52.16 128.186 52.046 128.197 51.7038L128.287 50.4491C128.298 50.1297 128.163 49.9815 127.86 49.9815C126.455 49.9586 121.949 50.3921 122.511 47.7345C122.567 47.4379 122.736 47.2326 123.005 47.1071C124.601 46.3543 126.141 46.4456 127.613 47.4037C127.871 47.5748 128.051 47.5063 128.141 47.1984C128.534 45.9209 127.961 45.0312 126.635 44.8259C125.882 44.7004 125.185 44.5636 124.545 44.4153C123.871 44.2556 123.691 43.3659 124.253 42.9553C125.039 42.385 125.86 42.1227 126.725 42.1911C127.085 42.2139 127.298 41.7919 127.062 41.5067C126.905 41.3242 126.714 41.1988 126.478 41.1303C126.163 41.0505 126.096 40.868 126.275 40.5829C126.511 40.2293 126.804 39.9213 127.174 39.6704C127.478 39.4651 127.601 39.0773 127.455 38.7351C125.77 34.5833 122.05 36.7732 119.297 37.9481C118.87 38.1306 118.375 37.9481 118.151 37.5374C117.904 37.0698 118.072 36.6249 118.634 36.1915C119.589 35.4501 120.432 34.8342 121.151 34.3323C122.421 33.4655 122.297 32.975 120.769 32.8495C117.847 32.61 114.802 34.0358 112.049 35.3361C111.431 35.6326 110.678 35.279 110.509 34.6061C110.419 34.2753 110.431 33.8647 110.554 33.3856C110.61 33.1461 110.52 33.0092 110.273 32.975C110.15 32.9522 110.026 33.0206 109.925 33.1575C108.846 34.6403 107.419 34.9939 105.643 34.2411C104.722 33.8533 104.396 33.0891 104.655 31.9713C104.744 31.5835 105.082 31.2983 105.475 31.2869C106.43 31.2641 107.43 31.2869 108.464 31.3782C109.352 31.458 110.251 31.4694 111.172 31.4238C115.577 31.1957 120.398 31.0816 125.624 31.093C128.366 31.093 129.759 32.4731 129.838 35.1992C129.984 41.176 129.759 47.5063 129.141 54.1789L129.152 54.1447Z" fill="#002657"/>
<path d="M161.539 128.284C154.021 114.334 139.727 106.852 124.163 107.491C113.892 107.913 105.25 111.449 98.2606 118.121C81.2021 134.363 79.6738 163.825 97.5189 180.25C98.6427 181.277 99.6541 182.28 100.587 183.261C100.8 183.489 100.834 183.729 100.699 184.014C97.429 190.31 94.6084 197.279 92.2148 204.933C91.2147 208.172 90.5854 211.046 90.3157 213.556C89.2931 223.547 99.0697 225.589 105.014 219.772C113.195 211.776 118.926 202.572 124.242 192.318C124.534 191.747 125.107 191.371 125.747 191.359C157.617 190.059 177.103 157.153 161.539 128.284ZM114.959 191.382L112.375 197.211C112.24 197.507 111.914 197.667 111.588 197.576L105.138 195.728C104.756 195.625 104.554 195.215 104.7 194.85L107.251 188.132C107.385 187.778 107.768 187.607 108.116 187.755L114.6 190.481C114.937 190.629 115.094 191.029 114.948 191.371L114.959 191.382ZM153.515 167.224C143.649 183.147 123.185 188.075 107.824 178.265C92.4621 168.445 88.012 147.583 97.8898 131.672C107.756 115.749 128.22 110.821 143.581 120.63C158.943 130.451 163.393 151.313 153.515 167.224Z" fill="#002657"/>
<path d="M66.571 16.5275C64.4808 15.5352 63.6043 12.9346 64.6157 10.699C65.6383 8.4634 68.1667 7.45967 70.2681 8.452C72.3583 9.44432 73.2348 12.0449 72.2234 14.2805C71.2008 16.5161 68.6724 17.5198 66.571 16.5275Z" fill="#002657"/>
<path d="M153.639 147.047C153.302 143.443 152.111 139.086 149.268 136.804C148.515 136.2 147.458 136.177 146.694 136.759C145.941 137.318 145.761 138.036 146.144 138.926C147.312 141.686 147.84 144.549 147.717 147.549C147.571 150.857 145.874 152.248 142.615 151.712C141.974 151.598 141.559 151.244 141.345 150.617C140.559 148.245 140.03 145.439 138.929 143.409C136.03 138.025 131.31 134.774 125.568 132.824C125.017 132.63 124.714 132.253 124.646 131.672C124.118 127.44 125.444 124.691 128.602 123.402C129.22 123.151 129.254 122.262 128.647 121.977C127.444 121.406 126.197 121.075 124.916 120.996C117.982 120.528 111.431 123.505 106.329 128.444C101.52 133.097 98.5529 139.154 97.4516 146.602C96.6425 152.077 97.519 157.666 100.07 163.358C104.61 173.475 113.06 178.87 125.388 179.52C133.378 179.954 142.087 174.73 146.986 168.867C152.178 162.662 154.392 155.385 153.639 147.058V147.047ZM116.072 127.372L118.263 126.06C119.78 125.147 121.736 125.661 122.624 127.2L123.343 128.444C124.23 129.984 123.725 131.957 122.219 132.869L120.028 134.181C118.511 135.093 116.555 134.58 115.668 133.04L114.948 131.797C114.061 130.257 114.566 128.284 116.072 127.372ZM123.725 174.444C123.579 174.695 123.399 174.901 123.174 175.049C122.084 175.768 120.938 175.973 119.713 175.653C111.959 173.623 106.453 169.198 103.183 162.377C102.396 160.734 100.812 157.096 103.756 156.491C104.441 156.354 105.127 156.742 105.363 157.404C108.273 165.32 114.87 170.304 122.837 172.357C124.028 172.654 124.32 173.361 123.725 174.444Z" fill="#002657"/>
</g>
<defs>
<clipPath id="clip0_525_3334">
<rect width="167" height="223" fill="white"/>
</clipPath>
</defs>
</svg>
