<svg width="99" height="167" viewBox="0 0 99 167" fill="none" xmlns="http://www.w3.org/2000/svg">
<path d="M69.1794 164.013C77.2405 163.189 88.0685 161.853 95.7755 159.75M95.7755 159.75C96.6636 159.508 92.8836 153.939 92.6868 153.696C88.3736 148.37 83.4659 143.749 78.3588 139.142M95.7755 159.75C52.0129 154.901 20.4277 124.787 19.7088 94.6782C19.6375 91.694 19.5632 88.446 19.7907 85.2056M19.7907 85.2056C20.1529 80.0453 21.2805 74.9044 24.4045 70.8801C27.2878 67.1661 32.6754 63.4926 37.6872 64.1016C47.0493 65.2395 49.7485 76.9592 43.3912 83.1967C37.8048 88.6781 26.0756 89.8068 19.7907 85.2056ZM19.7907 85.2056C19.6581 85.1086 19.5279 85.009 19.4003 84.9068C-11.4019 60.2465 6.29796 18.3107 35.1965 3.36088" stroke="#002657" stroke-width="5" stroke-miterlimit="1.5" stroke-linecap="round" stroke-linejoin="round"/>
</svg>
