<svg width="380" height="276" viewBox="0 0 380 276" fill="none" xmlns="http://www.w3.org/2000/svg">
<path fill-rule="evenodd" clip-rule="evenodd" d="M333.308 7.49732C342.392 8.1119 351.419 9.91119 360.408 11.5274C369.479 13.1586 375.161 18.6494 376.321 27.5276C377.725 38.2881 379.148 49.1322 379.266 59.9478C379.667 96.682 379.519 133.419 379.455 170.156C379.453 171.471 378.336 254.815 377.625 256.125C376.594 254.84 372.154 258.501 374.454 170.235C374.725 159.849 374.408 149.428 374.317 139.022C374.047 108.113 373.79 77.2052 373.306 46.2987C373.219 40.6697 372.352 35.0079 371.366 29.4383C369.87 21.0032 366.298 17.2448 357.433 16.165C338.197 13.8307 318.932 11.1913 299.602 10.2395C271.569 8.85819 243.47 8.77307 215.395 8.2977C189.844 7.86671 164.285 7.73362 138.732 7.32388C102.295 6.73784 65.8574 5.99998 29.4208 5.398C26.7604 5.35443 24.0702 5.72477 21.434 6.13784C16.2017 6.96084 12.6408 9.61307 10.8673 14.7344C6.3309 27.836 5.11983 41.3543 5.52865 55.0293C6.47355 86.5324 7.24949 118.045 8.85875 149.522C10.4421 180.523 12.9902 211.482 15.0666 242.461C15.8943 254.776 22.1811 262.397 34.9839 264.288C47.4393 266.126 59.9 268.832 72.4154 269.219C99.2 270.042 126.026 269.815 152.829 269.638C175.689 269.483 198.558 269.071 221.399 268.255C238.081 267.659 254.729 266.22 271.392 265.157C272.333 265.097 352.781 257.153 353.491 257.523C354.829 258.222 376.432 255.168 377.625 256.125C376.464 256.916 275.512 270.089 274.306 270.151C248.825 271.442 223.341 272.788 197.84 273.686C171.849 274.598 145.838 275.594 119.834 275.541C91.6351 275.483 63.2848 276.122 35.5149 269.716C30.4934 268.558 25.3768 266.919 20.9694 264.4C17.8467 262.617 14.3844 259.304 13.6137 256.105C11.0073 245.287 8.55004 234.277 7.8109 223.232C5.27675 185.376 3.24714 147.484 1.53325 109.586C0.564072 88.1881 0.0357464 66.7439 0.408837 45.3417C0.584036 35.367 2.62706 25.2558 5.17839 15.5468C8.08049 4.50063 13.6114 0.937009 25.3546 0.500523C33.8592 0.1846 42.385 0.0269214 50.8939 0.190578C92.6993 0.986035 134.499 2.03952 176.303 2.75239C204.696 3.23643 233.095 3.30532 260.234 3.5452C285.434 4.86587 309.391 5.88168 333.308 7.49732Z" fill="#072C5C" fill-opacity="0.2"/>
</svg>
