<svg width="24" height="26" viewBox="0 0 24 26" fill="none" xmlns="http://www.w3.org/2000/svg">
<path d="M6.00241 0.379395C4.40501 0.379395 2.95783 1.02533 1.91232 2.06432C0.86373 3.1033 0.216797 4.54143 0.216797 6.12886C0.216797 9.30675 2.8076 11.8783 6.00241 11.8783H10.301V7.5944H3.105V4.66331H20.4465V7.5944H13.2505V11.8783H23.3347V0.382444H6.00241V0.379395Z" fill="white"/>
<path d="M23.3347 20.0895C23.3347 21.677 22.6878 23.1151 21.6392 24.1571C20.5937 25.1961 19.1465 25.839 17.5491 25.839H0.216797V14.3462H10.301V23.4777H13.2505V14.3462H17.5491C20.7439 14.3462 23.3347 16.9177 23.3347 20.0926V20.0895Z" fill="white"/>
</svg>
