<svg width="511" height="420" viewBox="0 0 511 420" fill="none" xmlns="http://www.w3.org/2000/svg">
<path d="M244.478 83.1383C244.407 83.1383 244.336 83.0955 244.307 83.0242C244.279 82.9387 244.322 82.8246 244.407 82.7961C244.464 82.7676 250.453 80.4432 256.086 74.3684C261.291 68.7643 267.252 58.711 266.154 42.7112C266.154 42.6542 265.64 36.4226 261.89 29.5492C258.439 23.2178 251.452 15.0326 237.776 11.9809C237.676 11.9524 237.619 11.8669 237.648 11.767C237.676 11.6672 237.762 11.6102 237.862 11.6387C251.68 14.7188 258.739 23.0039 262.218 29.4066C265.997 36.337 266.51 42.6399 266.51 42.697C267.622 58.8393 261.591 68.9781 256.329 74.6394C250.639 80.7712 244.593 83.1241 244.521 83.1383C244.521 83.1241 244.493 83.1383 244.478 83.1383Z" fill="#011721"/>
<path d="M33.9429 419.389C33.9429 419.389 -46.7402 316.803 41.4437 203.365C47.0336 196.177 50.4845 187.108 50.8695 177.582C51.3401 166.089 55.5753 151.872 74.4556 155.508C79.7603 156.535 84.7513 159.03 89.1719 162.453C98.4409 169.625 122.612 184.099 156.607 173.518C164.422 171.08 171.238 165.69 176.087 158.417C192.799 133.434 241.896 73.2421 295.6 131.865C307.036 144.357 315.749 159.586 321.767 176.142C330.08 199.044 351.641 244.234 396.974 263.585C397.858 263.955 398.756 264.283 399.655 264.597C411.647 268.661 507.132 305.038 464.581 419.175L33.9429 419.389Z" fill="#0079FC" fill-opacity="0.1"/>
<path d="M151.317 197.746C158.918 196.663 166.29 194.224 172.964 190.445C181.192 185.782 190.19 178.153 194.511 166.103C195.865 162.324 197.334 158.574 199.159 154.995C206.432 140.706 224.613 111.188 252.192 107.195C216.956 104.201 188.122 140.435 176.087 158.417C171.224 165.676 164.422 171.08 156.607 173.519C122.612 184.099 98.4552 169.626 89.1719 162.453C84.737 159.03 79.7603 156.535 74.4556 155.508C55.5896 151.872 51.3401 166.089 50.8695 177.583C50.4845 187.108 47.0336 196.178 41.4437 203.365C-46.7402 316.803 33.9429 419.389 33.9429 419.389L52.2528 419.375C51.8392 418.648 -54.7543 227.307 151.317 197.746Z" fill="#0079FC" fill-opacity="0.2"/>
<path d="M23.9331 375.126C23.8618 375.126 23.7905 375.084 23.762 375.012C23.7049 374.855 17.6159 358.499 14.7354 336.425C12.083 316.047 11.6838 286.472 24.917 261.332C37.2519 237.888 59.1981 222.117 90.1565 214.459C90.2421 214.43 90.3419 214.488 90.3704 214.587C90.399 214.687 90.3419 214.773 90.2421 214.801C59.3977 222.43 37.5229 238.145 25.245 261.488C12.0688 286.543 12.4538 316.033 15.1062 336.353C17.9724 358.385 24.0472 374.699 24.1042 374.87C24.1327 374.955 24.09 375.069 24.0044 375.098C23.9759 375.126 23.9616 375.126 23.9331 375.126Z" fill="#011721"/>
<path d="M475.433 325.687C475.362 325.687 475.291 325.644 475.262 325.573C475.091 325.173 458.164 284.832 432.368 269.459C432.282 269.402 432.254 269.303 432.311 269.217C432.368 269.132 432.468 269.103 432.553 269.16C458.45 284.589 475.419 325.031 475.59 325.43C475.633 325.516 475.59 325.63 475.49 325.658C475.476 325.687 475.447 325.687 475.433 325.687Z" fill="#011721"/>
<path d="M102.934 419.346L464.581 419.175C477.259 385.151 477.686 358.028 471.697 336.624C217.655 216.441 102.934 419.346 102.934 419.346Z" fill="#066DE6" fill-opacity="0.1"/>
<path d="M250.954 72.9055C264.347 59.5125 264.347 37.7981 250.954 24.4051C237.561 11.012 215.846 11.0121 202.453 24.4051C189.06 37.7981 189.06 59.5125 202.453 72.9055C215.846 86.2985 237.561 86.2985 250.954 72.9055Z" fill="#0079FC"/>
<path d="M226.706 79.8014C243.907 79.8014 257.85 65.8578 257.85 48.6575C257.85 31.4572 243.907 17.5137 226.706 17.5137C209.506 17.5137 195.562 31.4572 195.562 48.6575C195.562 65.8578 209.506 79.8014 226.706 79.8014Z" fill="#0079FC"/>
<path d="M233.024 79.7302C215.884 83.2097 199.114 72.1154 195.634 54.9749C192.155 37.8343 203.249 21.0646 220.39 17.5851C237.53 14.1057 254.3 25.2 257.78 42.3405C261.259 59.4668 250.15 76.2508 233.024 79.7302ZM220.604 18.6974C204.091 22.0628 193.381 38.2336 196.732 54.7467C200.098 71.2598 216.269 81.969 232.782 78.6179C249.295 75.2526 260.004 59.0817 256.653 42.5687C253.302 26.0413 237.131 15.3321 220.604 18.6974Z" fill="white"/>
<path d="M229.389 71.3168L228.277 65.841C225.111 66.4256 221.66 66.1119 219.493 65.1422L220.049 61.235C222.273 62.1334 225.297 62.604 228.334 61.9765C232.184 61.1922 234.337 58.44 233.71 55.3456C233.097 52.3653 230.616 50.9393 226.266 50.1407C220.291 49.0997 216.356 47.2887 215.4 42.5687C214.487 38.0625 216.997 33.9984 221.817 32.1589L220.705 26.683L224.07 25.9985L225.14 31.2605C228.419 30.7043 230.815 31.1179 232.583 31.7311L231.956 35.5955C230.687 35.182 228.22 34.4405 224.74 35.1392C220.562 35.9948 219.493 38.804 219.935 40.9715C220.505 43.795 222.801 44.7932 227.92 45.7914C233.967 46.9322 237.375 49.1853 238.359 54.0194C239.229 58.3117 237.061 62.9319 231.656 64.9854L232.797 70.6323L229.389 71.3168Z" fill="white"/>
<path d="M277.488 346.849C277.545 346.478 277.588 346.107 277.617 345.736L278.586 337.58L275.078 342.856L275.007 345.38C274.294 346.107 273.51 346.763 272.597 347.319L188.977 397.828C179.422 403.604 167.045 401.308 160.2 392.481L9.14373 197.846C8.87279 197.489 8.6161 197.119 8.38794 196.748L8.77296 195.607L6.61971 188.677L5.70706 196.634L5.72133 196.677C5.29353 199.857 6.03504 203.208 8.20256 205.988L159.259 400.652C166.104 409.479 178.467 411.774 188.035 405.999L271.656 355.49C274.907 353.494 276.904 350.3 277.488 346.849Z" fill="#011721"/>
<path d="M188.978 397.856L272.598 347.348C279.101 343.412 280.627 334.628 275.807 328.752L122.655 141.576C115.696 133.077 103.703 130.681 94.0204 135.872L13.1092 179.179C6.29292 182.83 4.39634 191.742 9.13066 197.846L160.187 392.509C167.046 401.322 179.424 403.617 188.978 397.856Z" fill="#05293C"/>
<path d="M186.71 391.34L266.181 343.327C272.37 339.59 273.81 331.248 269.233 325.658L123.681 147.793C117.064 139.708 105.671 137.441 96.4729 142.375L19.583 183.529C13.109 186.994 11.2979 195.465 15.8041 201.268L159.36 386.278C165.862 394.648 177.627 396.83 186.71 391.34Z" fill="#F7F7F7"/>
<path d="M20.0249 206.702L15.804 201.254C11.2978 195.45 13.0946 186.98 19.5829 183.515L96.4728 142.36C105.67 137.441 117.078 139.708 123.681 147.779L234.795 283.577C92.865 137.869 20.0249 206.702 20.0249 206.702Z" fill="#E2E2E2"/>
<mask id="mask0_216_7427" style="mask-type:luminance" maskUnits="userSpaceOnUse" x="13" y="139" width="259" height="256">
<path d="M186.71 391.34L266.181 343.327C272.37 339.59 273.81 331.248 269.233 325.658L123.681 147.793C117.064 139.708 105.671 137.441 96.4729 142.375L19.583 183.529C13.109 186.994 11.2979 195.465 15.8041 201.268L159.36 386.278C165.862 394.648 177.627 396.83 186.71 391.34Z" fill="white"/>
</mask>
<g mask="url(#mask0_216_7427)">
<path d="M204.136 63.0608C204.136 63.0608 153.955 117.734 125.135 134.375C118.918 137.969 111.26 137.94 105.029 134.361C92.38 127.102 67.81 107.908 32.5878 57.8701L26.8125 62.4048L73.6138 135.302C81.5852 146.553 86.9041 157.904 86.1911 171.679C83.7669 218.68 80.0166 334.172 96.1018 412.003H108.066C108.066 412.003 122.112 342.428 122.611 263.87C122.611 263.87 131.837 283.577 149.791 303.527C149.791 303.527 122.027 353.123 122.027 382.385L127.346 386.734C127.346 386.734 167.587 359.797 181.876 299.62C181.876 299.62 175.33 266.879 151.53 228.719C148.336 223.6 146.169 217.882 145.356 211.892C144.144 203.094 143.074 188.748 144.543 169.298C145.427 157.49 149.791 146.182 156.978 136.785L209.141 68.6079L204.136 63.0608Z" fill="#EDAC80"/>
<path d="M127.344 386.748L135.686 402.121C136.869 404.302 134.203 406.555 132.249 405.001L119.287 394.648C116.421 392.352 116.207 388.06 118.83 385.508L122.01 382.399L127.344 386.748Z" fill="#EDAC80"/>
<path d="M145.369 211.906C146.196 217.896 148.349 223.6 151.543 228.733C175.329 266.893 181.889 299.634 181.889 299.634C167.586 359.825 127.359 386.748 127.359 386.748L122.04 382.399C122.04 353.137 149.804 303.541 149.804 303.541C131.85 283.591 122.624 263.884 122.624 263.884C122.125 342.442 108.079 412.017 108.079 412.017H96.1149C81.9119 343.326 83.181 245.346 85.3343 190.958L143.872 188.748C143.9 198.602 144.599 206.359 145.369 211.906Z" fill="#05293C"/>
<path d="M84.8506 203.679C104.615 203.679 124.365 203.679 144.129 203.693C144.999 208.727 145.855 213.761 146.725 218.809C146.825 219.393 146.924 220.006 146.682 220.548C146.468 221.019 146.04 221.347 145.612 221.646C137.641 227.308 128.258 230.744 118.547 231.757C113.727 232.256 108.85 232.184 104.045 231.571C100.722 231.158 97.1285 228.391 93.6918 229.332C89.314 230.53 88.8862 235.949 89.5136 239.714C91.4672 251.45 95.1748 262.772 97.4707 274.437C102.219 298.55 97.3138 322.393 95.6739 346.521C94.5189 363.59 97.7131 380.474 98.4689 397.486C98.6828 402.249 99.1106 407.311 98.312 412.032H96.1017C86.5903 366.015 84.5939 318.386 84.0806 271.528C83.8381 248.911 84.4228 226.309 84.7936 203.693C84.8078 203.679 84.8363 203.679 84.8506 203.679Z" fill="#011721"/>
<path d="M105.012 134.36C111.244 137.939 118.902 137.954 125.119 134.374C132.848 129.911 142.117 122.696 151.543 114.553L163.764 128.742C165.318 130.553 164.69 133.348 162.523 134.317L161.753 134.802C158.273 137.013 155.336 139.993 153.168 143.501C148.32 151.301 145.283 159.772 144.57 169.169C143.072 188.734 146.98 194.366 148.192 203.193C148.42 204.876 149.09 208.655 149.889 212.548C150.516 215.599 142.587 220.59 134.773 224.697C125.59 229.531 114.823 230.515 104.941 227.321C92.6489 223.343 77.6189 217.054 78.831 210.323C81.5832 195.094 85.7043 181.09 86.1892 171.693C86.8023 159.8 82.453 150.816 76.1216 141.348C74.168 138.439 71.9149 135.729 69.4479 133.234L66.9524 130.724C64.1004 128.742 63.2448 124.906 65.0131 121.911L73.1698 108.022C87.3157 122.624 98.0107 130.339 105.012 134.36Z" fill="#0079FC"/>
<path d="M159.002 297.737C164.278 303.541 157.191 311.398 152.585 315.562C149.291 318.543 146.453 321.994 143.901 325.63C138.839 332.817 135.074 340.802 132.607 349.244C129.926 358.414 126.575 367.269 124.792 376.723C124.564 377.936 124.35 379.148 124.179 380.36C124.122 380.787 123.466 383.568 123.737 383.796L122.012 382.385C122.012 353.123 149.776 303.527 149.776 303.527C131.823 283.577 122.596 263.87 122.596 263.87V257.296C122.596 258.08 123.552 259.378 123.894 260.048C127.659 267.52 132.364 274.55 138.026 280.739C140.878 283.862 143.986 286.771 147.295 289.395C150.703 292.09 154.667 294.03 157.99 296.782C158.375 297.096 158.703 297.409 159.002 297.737Z" fill="#011721"/>
<path d="M78.831 210.323C81.5832 195.094 85.7043 181.09 86.1892 171.693C86.8023 159.8 82.453 150.816 76.1216 141.348C74.168 138.439 71.9149 135.729 69.4479 133.234L66.9524 130.724C64.1004 128.742 63.2448 124.906 65.0131 121.911L67.2376 118.118C68.136 118.118 70.4319 120.999 71.0165 121.569C74.2393 124.706 77.2339 128.072 80.0431 131.594C88.7132 142.489 95.4867 155.023 98.9804 168.542C99.9929 172.463 100.777 176.841 100.777 180.876C100.777 185.326 100.863 189.789 101.633 194.167C102.46 198.901 104.185 203.764 107.437 207.471C111.144 211.692 116.763 214.131 122.067 215.657C130.081 217.967 138.609 218.138 146.851 217.168C143.942 219.607 139.35 222.302 134.787 224.712C125.604 229.546 114.838 230.53 104.955 227.336C92.6347 223.343 77.6046 217.054 78.831 210.323Z" fill="#DD5147" fill-opacity="0.8"/>
<path d="M110.047 136.485C110.032 136.456 110.018 136.428 110.004 136.414H110.018C110.047 136.428 110.089 136.428 110.118 136.442C119.957 129.997 123.28 111.929 123.28 111.929L132.635 120.528L129.797 126.446C128.699 128.742 126.503 130.325 123.979 130.638L121.184 130.981C119.957 131.137 119.045 132.178 119.045 133.405C119.045 135.102 120.756 136.314 122.339 135.701C122.467 135.658 122.581 135.601 122.695 135.558L122.738 135.601C122.738 135.601 120.727 137.611 121.184 141.519C121.312 142.631 121.398 144.442 121.298 145.554C121.155 147.094 121.127 148.577 120.371 151.101C119.601 153.682 115.708 153.811 114.239 151.558C113.084 149.775 109.676 136.727 110.047 136.485Z" fill="#EDAC80"/>
</g>
<mask id="mask1_216_7427" style="mask-type:luminance" maskUnits="userSpaceOnUse" x="13" y="139" width="259" height="256">
<path d="M186.71 391.34L266.181 343.327C272.37 339.59 273.81 331.248 269.233 325.658L123.681 147.793C117.064 139.708 105.671 137.441 96.4729 142.375L19.583 183.529C13.109 186.994 11.2979 195.465 15.8041 201.268L159.36 386.278C165.862 394.648 177.627 396.83 186.71 391.34Z" fill="white"/>
</mask>
<g mask="url(#mask1_216_7427)">
<path d="M41.3325 249.367C55.6188 249.367 67.2001 237.786 67.2001 223.499C67.2001 209.213 55.6188 197.632 41.3325 197.632C27.0462 197.632 15.4648 209.213 15.4648 223.499C15.4648 237.786 27.0462 249.367 41.3325 249.367Z" fill="#0079FC"/>
<path d="M57.9385 240.106C67.1104 230.934 67.1104 216.064 57.9385 206.892C48.7667 197.72 33.8961 197.72 24.7243 206.892C15.5524 216.064 15.5525 230.934 24.7243 240.106C33.8962 249.278 48.7667 249.278 57.9385 240.106Z" fill="#0079FC"/>
<path d="M29.7355 244.405C18.1992 238.002 14.021 223.428 20.4238 211.892C26.8265 200.355 41.4002 196.177 52.9366 202.58C64.4729 208.983 68.6511 223.556 62.2484 235.093C55.8456 246.629 41.2576 250.807 29.7355 244.405ZM52.523 203.336C41.4002 197.175 27.3399 201.197 21.1795 212.32C15.0192 223.442 19.0405 237.503 30.1634 243.663C41.2862 249.823 55.3465 245.802 61.5068 234.679C67.6671 223.556 63.6316 209.496 52.523 203.336Z" fill="white"/>
<path d="M31.7774 237.802L33.8165 234.109C31.7203 232.897 29.895 231.029 29.125 229.403L31.3638 227.435C32.1909 229.047 33.7025 230.786 35.7559 231.927C38.3512 233.367 40.9323 232.84 42.0873 230.758C43.1996 228.747 42.4724 226.722 40.3761 224.127C37.4671 220.605 36.0981 217.639 37.8521 214.459C39.5348 211.421 42.9715 210.323 46.6363 211.635L48.6755 207.942L50.9428 209.197L48.9749 212.733C51.1282 214.017 52.2975 215.443 53.0105 216.64L50.7574 218.551C50.2298 217.681 49.1746 216.056 46.8502 214.758C44.041 213.204 42.0446 214.288 41.2317 215.756C40.1765 217.653 41.0036 219.35 43.4563 222.43C46.3653 226.052 47.2067 229.004 45.4099 232.255C43.8128 235.136 40.3048 236.733 36.198 235.264L34.0875 239.057L31.7774 237.802Z" fill="white"/>
</g>
<path d="M88.1155 98.3398C85.6343 97.4842 83.8232 95.06 83.8232 92.1653C83.8232 88.5575 86.6039 85.6484 90.0406 85.6484C93.4773 85.6484 96.258 88.5717 96.258 92.1653C96.258 92.5645 96.2152 92.9495 96.1439 93.3203C98.2829 92.5788 100.564 92.1653 102.946 92.1653C114.924 92.1653 124.65 102.361 124.65 114.953C124.65 127.544 114.939 137.74 102.946 137.74C90.9675 137.74 81.2422 127.544 81.2422 114.953C81.2422 108.393 83.8945 102.489 88.1155 98.3398Z" fill="#011721"/>
<path d="M32.5731 57.8843L26.3558 49.2285C25.5002 48.0449 23.6321 48.8862 23.9601 50.3122L26.7978 62.419L32.5731 57.8843Z" fill="#EDAC80"/>
<path d="M110.047 136.485C110.032 136.456 110.018 136.428 110.004 136.414H110.018C110.047 136.428 110.089 136.428 110.118 136.442C119.957 129.997 123.28 111.929 123.28 111.929L132.635 120.528L129.797 126.446C128.699 128.742 126.503 130.325 123.979 130.638L121.184 130.981C119.957 131.137 119.045 132.178 119.045 133.405C119.045 135.102 120.756 136.314 122.339 135.701C122.467 135.658 122.581 135.601 122.695 135.558L122.738 135.601C122.738 135.601 120.727 137.611 121.184 141.519C121.312 142.631 121.398 144.442 121.298 145.554C121.155 147.094 121.127 148.577 120.371 151.101C119.601 153.682 115.708 153.811 114.239 151.558C113.084 149.775 109.676 136.727 110.047 136.485Z" fill="#EDAC80"/>
<path d="M86.1911 171.693C85.8204 178.923 85.4068 187.793 85.0503 197.889H144.101C143.716 190.132 143.702 180.577 144.557 169.312C145.441 157.505 149.805 146.196 156.992 136.799L209.155 68.6221L204.136 63.0749C204.136 63.0749 153.955 117.748 125.135 134.389C118.918 137.983 111.26 137.954 105.029 134.375C92.38 127.117 67.81 107.923 32.5878 57.8843L26.8125 62.419L73.6138 135.316C81.5709 146.567 86.8899 157.918 86.1911 171.693Z" fill="#EDAC80"/>
<path d="M105.012 134.36C111.244 137.939 118.902 137.954 125.119 134.374C132.848 129.911 142.117 122.696 151.543 114.553L163.764 128.742C165.318 130.553 164.69 133.348 162.523 134.317L161.753 134.802C158.273 137.013 155.336 139.993 153.168 143.501C148.32 151.301 145.283 159.772 144.57 169.169C143.072 188.734 146.98 194.366 148.192 203.193C148.42 204.876 149.09 208.655 149.889 212.548C150.516 215.599 142.587 220.59 134.773 224.697C125.59 229.531 114.823 230.515 104.941 227.321C92.6489 223.343 77.6189 217.054 78.831 210.323C81.5832 195.094 85.7043 181.09 86.1892 171.693C86.8023 159.8 82.453 150.816 76.1216 141.348C74.168 138.439 71.9149 135.729 69.4479 133.234L66.9524 130.724C64.1004 128.742 63.2448 124.906 65.0131 121.911L73.1698 108.022C87.3157 122.624 98.0107 130.339 105.012 134.36Z" fill="#0079FC"/>
<path d="M78.831 210.323C81.5832 195.094 85.7043 181.09 86.1892 171.693C86.8023 159.8 82.453 150.816 76.1216 141.348C74.168 138.439 71.9149 135.729 69.4479 133.234L66.9524 130.724C64.1004 128.742 63.2448 124.906 65.0131 121.911L67.2376 118.118C68.136 118.118 70.4319 120.999 71.0165 121.569C74.2393 124.706 77.2339 128.072 80.0431 131.594C88.7132 142.489 95.4867 155.023 98.9804 168.542C99.9929 172.463 100.777 176.841 100.777 180.876C100.777 185.326 100.863 189.789 101.633 194.167C102.46 198.901 104.185 203.764 107.437 207.471C111.144 211.692 116.763 214.131 122.067 215.657C130.081 217.967 138.609 218.138 146.851 217.168C143.942 219.607 139.35 222.302 134.787 224.712C125.604 229.546 114.838 230.53 104.955 227.336C92.6347 223.343 77.6046 217.054 78.831 210.323Z" fill="#006FD7"/>
<g opacity="0.28">
<path d="M274.446 309.568C292.339 291.676 292.339 262.666 274.446 244.773C256.554 226.881 227.544 226.881 209.651 244.773C191.759 262.666 191.759 291.676 209.651 309.568C227.544 327.461 256.554 327.461 274.446 309.568Z" fill="#5D5D5D"/>
</g>
<g opacity="0.43">
<path d="M211.022 351.098L198.502 358.285C193.568 361.109 192.541 367.797 196.405 371.975L209.082 385.707L209.453 393.051L239.214 375.069L237.888 365.215L213.004 348.317L211.022 351.098Z" fill="#5D5D5D"/>
</g>
<path d="M274.442 301.713C292.335 283.82 292.335 254.811 274.442 236.918C256.55 219.025 227.54 219.025 209.647 236.918C191.755 254.811 191.755 283.82 209.647 301.713C227.54 319.606 256.55 319.606 274.442 301.713Z" fill="#0079FC"/>
<path d="M271.468 298.739C287.718 282.489 287.718 256.143 271.468 239.893C255.218 223.644 228.872 223.644 212.622 239.893C196.372 256.143 196.372 282.489 212.622 298.739C228.872 314.989 255.218 314.989 271.468 298.739Z" fill="#0079FC"/>
<path d="M250.491 310.843C227.604 315.491 205.187 300.661 200.524 277.774C195.876 254.886 210.706 232.47 233.593 227.807C256.481 223.158 278.897 237.988 283.56 260.876C288.223 283.763 273.379 306.18 250.491 310.843ZM233.907 229.29C211.833 233.782 197.53 255.386 202.022 277.46C206.514 299.534 228.118 313.837 250.192 309.345C272.267 304.853 286.569 283.25 282.077 261.175C277.585 239.101 255.982 224.798 233.907 229.29Z" fill="white"/>
<path d="M245.63 299.591L244.147 292.261C239.926 293.046 235.306 292.618 232.397 291.32L233.152 286.101C236.119 287.313 240.168 287.926 244.232 287.099C249.38 286.058 252.261 282.365 251.419 278.244C250.607 274.251 247.284 272.369 241.466 271.285C233.48 269.887 228.233 267.478 226.949 261.175C225.723 255.157 229.074 249.724 235.52 247.271L234.037 239.941L238.528 239.029L239.954 246.059C244.332 245.317 247.541 245.874 249.894 246.686L249.052 251.834C247.355 251.278 244.061 250.28 239.413 251.221C233.823 252.362 232.411 256.127 232.996 259.021C233.766 262.786 236.831 264.126 243.662 265.453C251.747 266.978 256.282 269.987 257.594 276.433C258.763 282.165 255.869 288.34 248.639 291.092L250.179 298.636L245.63 299.591Z" fill="white"/>
<path d="M180.047 214.644L182.086 214.316C184.567 213.917 186.264 211.578 185.865 209.097L184.596 201.154C187.804 200.641 190.827 202.822 191.341 206.031L192.154 211.122C192.296 211.977 193.095 212.562 193.95 212.419L201.08 211.279C202.506 211.05 203.847 212.02 204.089 213.446L204.731 217.482C205.743 223.856 201.408 229.845 195.048 230.858L182.97 232.783L180.047 214.644Z" fill="#FFBBBB"/>
<path d="M180.035 214.664L173.727 215.672L176.629 233.837L182.938 232.829L180.035 214.664Z" fill="#011721"/>
<path d="M204.051 339.305C204.051 338.92 204.065 338.535 204.094 338.164L204.464 329.722L207.159 335.654L206.817 338.235C207.416 339.091 208.115 339.89 208.942 340.603L285.418 405.6C294.16 413.029 307.079 412.73 315.478 404.915L500.702 232.383C501.044 232.07 501.358 231.742 501.643 231.4L501.443 230.173L504.766 223.5L504.381 231.713L504.352 231.756C504.267 235.05 502.955 238.33 500.302 240.797L315.093 413.314C306.694 421.129 293.775 421.428 285.033 413.999L208.557 349.002C205.577 346.478 204.065 342.898 204.051 339.305Z" fill="#011721"/>
<path d="M285.419 405.6L208.943 340.603C202.997 335.54 202.897 326.385 208.758 321.209L394.865 156.62C403.321 149.148 415.884 148.691 424.839 155.551L499.761 212.79C506.079 217.61 506.535 226.965 500.717 232.369L315.479 404.915C307.08 412.73 294.161 413.029 285.419 405.6Z" fill="#05293C"/>
<path d="M288.797 399.368L216.114 337.608C210.453 332.802 210.368 324.104 215.929 319.184L392.796 162.766C400.824 155.665 412.76 155.237 421.287 161.739L492.487 216.127C498.491 220.705 498.919 229.589 493.4 234.736L317.36 398.712C309.375 406.156 297.097 406.427 288.797 399.368Z" fill="#F7F7F7"/>
<path d="M488.21 239.571L493.386 234.751C498.905 229.603 498.477 220.719 492.473 216.142L421.288 161.74C412.76 155.223 400.824 155.651 392.796 162.767L257.754 282.194C425.68 157.776 488.21 239.571 488.21 239.571Z" fill="#E2E2E2"/>
<mask id="mask2_216_7427" style="mask-type:luminance" maskUnits="userSpaceOnUse" x="211" y="157" width="287" height="248">
<path d="M288.797 399.368L216.114 337.608C210.453 332.802 210.368 324.104 215.929 319.184L392.796 162.766C400.824 155.665 412.76 155.237 421.287 161.739L492.487 216.127C498.491 220.705 498.919 229.589 493.4 234.736L317.36 398.712C309.375 406.156 297.097 406.427 288.797 399.368Z" fill="white"/>
</mask>
<g mask="url(#mask2_216_7427)">
<path d="M407.069 257.167C369.123 271.456 339.191 262.686 331.134 259.763C329.052 265.738 326.286 271.47 322.864 276.832C311.285 294.985 299.178 305.694 282.223 334.77C282.223 334.77 293.317 369.365 327.684 397.329C327.684 397.329 312.454 463.938 302.415 501.641L318.571 503.894C318.571 503.894 350.713 429.172 357.943 408.224L381.487 423.396L389.643 411.603L368.781 388.431C368.781 388.431 398.171 324.132 406.356 264.183C406.698 261.845 406.926 259.506 407.069 257.167ZM339.548 354.663L332.118 340.588L347.134 319.954L339.548 354.663Z" fill="#05293C"/>
<path d="M406.383 264.169C406.697 261.845 406.925 259.506 407.067 257.167C375.681 268.989 349.799 265.025 337.222 261.645L335.297 263.584C335.297 263.584 354.477 270.515 385.948 267.349C393.649 266.579 400.223 272.825 399.823 280.554C399.424 288.069 398.155 299.263 395.132 315.847C399.838 299.377 404.002 281.595 406.383 264.169Z" fill="#011721"/>
<path d="M419.176 140.677C434.006 129.683 460.159 111.758 501.413 87.8726L501.042 78.3184C501.042 78.3184 396.745 130.695 361.779 141.747C357.943 142.959 353.879 143.102 349.972 142.16C339.634 139.665 303.484 121.712 297.909 115.993C289.353 107.223 273.21 86.8173 258.451 65.4131L250.68 67.438C250.68 67.438 263.171 96.0436 285.474 126.246C290.208 132.663 309.174 145.754 319.983 153.383C327.498 158.688 330.892 165.818 332.546 173.932C335.256 187.165 334.372 210.551 331.705 240.868C331.334 245.132 329.295 250.28 328.81 254.886C328.397 258.878 330.964 262.572 334.871 263.513C346.992 266.465 374.371 269.488 407.055 257.182C410.634 255.499 410.278 252.005 410.278 249.766C410.235 234.893 406.912 198.616 405.016 171.479C404.189 159.458 409.508 147.836 419.176 140.677Z" fill="#FFCECA"/>
<path d="M349.985 304.896L347.133 319.968L332.118 340.603L339.547 354.663L327.697 397.315L334.356 359.069L324.246 338.05L349.985 304.896Z" fill="#011721"/>
<path d="M368.81 388.417L357.973 408.209L360.981 410.149L369.395 389.058L368.81 388.417Z" fill="#011721"/>
<path d="M397.5 180.948C400.537 211.322 397.429 237.303 397.429 237.303C393.55 260.162 357.543 265.809 355.875 266.066C369.55 266.422 387.333 264.597 407.068 257.167C410.648 255.485 410.291 251.991 410.291 249.752C410.248 234.879 406.926 198.602 405.029 171.465C404.188 159.458 409.507 147.85 419.175 140.678C419.731 140.264 420.344 139.822 420.943 139.38C416.694 140.863 413.001 143.415 409.863 146.396C400.537 155.237 396.217 168.157 397.5 180.948Z" fill="#EAAFAD"/>
</g>
<mask id="mask3_216_7427" style="mask-type:luminance" maskUnits="userSpaceOnUse" x="211" y="157" width="287" height="248">
<path d="M288.797 399.368L216.114 337.608C210.453 332.802 210.368 324.104 215.929 319.184L392.796 162.766C400.824 155.665 412.76 155.237 421.287 161.739L492.487 216.127C498.491 220.705 498.919 229.589 493.4 234.736L317.36 398.712C309.375 406.156 297.097 406.427 288.797 399.368Z" fill="white"/>
</mask>
<g mask="url(#mask3_216_7427)">
<path d="M269.93 366.869L242.494 373.757C237.931 374.898 233.268 372.103 232.127 367.554L225.239 340.118C224.099 335.554 226.894 330.891 231.443 329.751L258.879 322.863C263.442 321.722 268.105 324.517 269.246 329.066L276.133 356.502C277.288 361.066 274.493 365.729 269.93 366.869Z" fill="#0079FC"/>
<path d="M259.166 337.237C253.79 333.601 248.6 339.989 248.6 339.989C248.6 339.989 241.013 336.809 237.99 342.556C236.907 344.624 236.978 347.091 237.919 349.215C239.502 352.809 245.02 358.37 253.32 358.784C261.149 353.308 262.66 346.991 262.375 343.083C262.204 340.745 261.106 338.535 259.166 337.237Z" fill="white"/>
</g>
<path d="M349.989 304.896L347.137 319.968L332.122 340.603L339.551 354.663L327.701 397.315L334.36 359.069L324.25 338.05L349.989 304.896Z" fill="#011721"/>
<path d="M347.292 119.159C347.292 119.159 341.416 104.842 354.393 106.254C354.393 106.254 365.131 96.7567 369.081 109.805C369.081 109.805 381.758 109.477 377.836 123.437C377.836 123.437 386.991 132.649 375.954 139.009L360.839 144.185L359.099 138.71L347.292 119.159Z" fill="#011721"/>
<path d="M419.176 140.677C434.006 129.683 460.159 111.758 501.413 87.8726L501.042 78.3184C501.042 78.3184 396.745 130.695 361.779 141.747C357.943 142.959 353.879 143.102 349.972 142.16C339.634 139.665 303.484 121.712 297.909 115.993C289.353 107.223 273.21 86.8173 258.451 65.4131L250.68 67.438C250.68 67.438 263.171 96.0436 285.474 126.246C290.208 132.663 309.174 145.754 319.983 153.383C327.498 158.688 330.892 165.818 332.546 173.932C335.256 187.165 334.372 210.551 331.705 240.868C331.334 245.132 329.295 250.28 328.81 254.886C328.397 258.878 330.964 262.572 334.871 263.513C346.992 266.465 374.371 269.488 407.055 257.182C410.634 255.499 410.278 252.005 410.278 249.766C410.235 234.893 406.912 198.616 405.016 171.479C404.189 159.458 409.508 147.836 419.176 140.677Z" fill="#FFCECA"/>
<path d="M361.921 135.444C363.703 134.203 364.773 131.237 364.773 131.237C365.885 124.492 358.869 128.685 358.869 128.685C352.723 127.416 351.212 116.592 351.212 116.592L341.059 123.223L343.426 132.235C344.096 134.802 346.149 136.756 348.745 137.326L354.377 138.538C355.361 138.752 356.046 139.651 356.003 140.663C355.946 141.818 354.934 142.702 353.793 142.603L351.026 142.389C351.026 142.389 353.194 146.41 355.105 150.517C356.188 152.827 359.554 152.585 360.267 150.132C361.393 146.253 362.648 142.246 363.276 141.305C363.276 141.305 363.076 141.291 362.905 141.291H362.876C361.279 141.248 360.096 139.922 360.238 138.325C360.324 137.127 360.966 136.1 361.921 135.444Z" fill="#EDAC80"/>
<path d="M397.5 180.948C400.537 211.322 397.429 237.303 397.429 237.303C393.55 260.162 357.543 265.809 355.875 266.066C369.55 266.422 387.333 264.597 407.068 257.167C410.648 255.485 410.291 251.991 410.291 249.752C410.248 234.879 406.926 198.602 405.029 171.465C404.188 159.458 409.507 147.85 419.175 140.678C419.731 140.264 420.344 139.822 420.943 139.38C416.694 140.863 413.001 143.415 409.863 146.396C400.537 155.237 396.217 168.157 397.5 180.948Z" fill="#EAAFAD"/>
<path d="M258.466 65.3989L253.732 53.2209C252.976 51.2958 250.11 51.8947 250.181 53.9624L250.694 67.4238L258.466 65.3989Z" fill="#EDAC80"/>
<path d="M501.059 78.3183L508.117 75.1669C510 74.3255 511.682 76.6642 510.285 78.1757L501.415 87.8583L501.059 78.3183Z" fill="#EDAC80"/>
<path d="M204.137 63.0607L210.097 55.7168C211.252 54.2908 213.52 55.5315 212.935 57.2712L209.156 68.6079L204.137 63.0607Z" fill="#EDAC80"/>
<path d="M440.439 240.47H440.795C442.963 240.455 444.731 242.209 444.745 244.377C444.76 247.657 448.567 249.482 451.134 247.428L458.891 241.225C459.576 240.669 460.446 240.37 461.33 240.37L506.263 240.127C508.43 240.113 510.184 238.345 510.17 236.177L509.971 200.128C509.956 197.96 508.188 196.207 506.021 196.221L440.196 196.577C438.029 196.592 436.275 198.36 436.289 200.527L436.489 236.577C436.503 238.73 438.271 240.484 440.439 240.47Z" fill="#F27066"/>
<path d="M493.345 209.568C493.659 209.454 493.887 209.154 493.887 208.798C493.887 208.356 493.516 207.999 493.074 207.999L453.959 208.341C453.517 208.341 453.16 208.712 453.16 209.154C453.16 209.596 453.531 209.953 453.973 209.953L493.088 209.61C493.188 209.61 493.259 209.596 493.345 209.568Z" fill="white"/>
<path d="M493.603 217.069C493.916 216.955 494.145 216.655 494.145 216.299C494.145 215.857 493.774 215.5 493.332 215.5L454.217 215.842C453.774 215.842 453.418 216.213 453.418 216.655C453.418 217.097 453.789 217.454 454.231 217.454L493.346 217.111C493.446 217.111 493.531 217.097 493.603 217.069Z" fill="white"/>
<path d="M493.857 224.555C494.17 224.441 494.398 224.142 494.398 223.785C494.398 223.343 494.028 222.987 493.586 222.987L454.47 223.329C454.028 223.329 453.672 223.7 453.672 224.142C453.672 224.584 454.043 224.94 454.485 224.94L493.6 224.598C493.7 224.598 493.785 224.584 493.857 224.555Z" fill="white"/>
<path d="M257.45 148.82L268.031 155.537C269.6 156.535 270.07 158.617 269.072 160.186L259.304 175.558C258.306 177.126 256.224 177.597 254.655 176.599L244.074 169.882L257.45 148.82Z" fill="#FF7512"/>
<path d="M234.393 123.109L257.466 148.82L244.09 169.882L211.007 159.929C209.353 159.429 208.64 157.504 209.567 156.05L230.272 123.451C231.185 121.997 233.238 121.826 234.393 123.109Z" fill="#FF7512"/>
<path d="M215.154 147.237L224.666 132.264C223.425 131.48 221.771 131.836 220.973 133.091L214.327 143.558C213.529 144.798 213.9 146.453 215.154 147.237Z" fill="#E55858"/>
<path d="M239.613 183.501C241.252 184.542 243.434 184.057 244.475 182.417L250.037 173.675L244.076 169.896L238.514 178.638C237.488 180.278 237.973 182.46 239.613 183.501Z" fill="#070707"/>
<path d="M219.904 139.751L215.141 147.237C213.9 146.453 213.529 144.799 214.314 143.544L217.636 138.311L219.904 139.751Z" fill="#070707"/>
<path d="M219.905 139.75L209.552 156.05C208.625 157.504 209.352 159.429 210.992 159.928L244.076 169.882L250.764 159.358L219.905 139.75Z" fill="#E16B08"/>
<path d="M250.762 159.358L244.074 169.882L254.655 176.599C256.224 177.597 258.306 177.126 259.304 175.558L264.181 167.872L250.762 159.358Z" fill="#E16B08"/>
<path d="M312.972 186.79L287.422 195.586L296.218 221.136L321.768 212.34L312.972 186.79Z" fill="#FF7512"/>
<path d="M313.419 186.635L286.992 195.733L288.965 201.463L315.391 192.366L313.419 186.635Z" fill="#E16B08"/>
<path d="M301.833 190.623L298.57 191.747L307.366 217.297L310.629 216.173L301.833 190.623Z" fill="white"/>
<path d="M317.963 201.174L316.84 197.911L291.29 206.707L292.413 209.969L317.963 201.174Z" fill="white"/>
<path d="M304.799 182.017C303.245 181.447 301.006 181.989 299.908 184.128C299.381 185.155 299.138 186.124 299.067 187.051C298.596 186.481 298.069 186.053 297.47 185.782C295.702 184.984 294.119 185.782 293.334 186.937C292.393 188.349 292.579 190.131 293.805 191.286C295.088 192.499 297.113 192.484 298.582 192.256C298.012 193.183 297.341 194.638 296.899 196.791L297.869 196.349L298.582 197.105C298.582 197.105 299.095 194.224 300.265 192.541C302.104 193.839 305.099 196.72 305.099 196.72L305.199 195.679L306.225 195.436C304.086 193.625 302.518 192.242 301.634 191.458C303.302 190.616 306.297 188.82 306.81 186.609C307.452 183.985 306.126 182.502 304.799 182.017ZM294.675 190.388C293.762 189.533 293.377 188.107 293.776 187.294C294.005 186.852 294.518 186.481 295.202 186.31C295.644 186.21 296.429 186.296 296.999 186.566C298.126 187.08 298.896 188.734 299.423 190.816C298.154 191.158 295.83 191.472 294.675 190.388ZM305.826 186.338C305.113 187.935 302.389 189.718 300.75 190.516C300.25 188.634 299.937 186.809 301.021 184.698C301.42 183.914 302.104 183.258 302.717 182.959C303.787 182.431 304.4 182.502 304.899 182.688C306.04 183.101 306.639 184.513 305.826 186.338Z" fill="#EDAC80"/>
<path d="M324.249 416.481C324.207 416.481 324.15 416.466 324.121 416.423C324.05 416.352 324.064 416.238 324.135 416.167L405.26 342.97C405.332 342.899 405.446 342.913 405.517 342.984C405.588 343.056 405.574 343.17 405.503 343.241L324.378 416.438C324.335 416.466 324.292 416.481 324.249 416.481Z" fill="#011721"/>
<path d="M409.182 170.11C409.082 170.11 409.01 170.039 408.996 169.939C408.996 169.739 408.768 149.419 429.773 139.622L469.815 121.911C469.901 121.869 470.015 121.911 470.058 121.997C470.1 122.082 470.058 122.197 469.972 122.239L429.93 139.95C409.125 149.647 409.353 169.739 409.353 169.939C409.353 170.025 409.281 170.11 409.182 170.11Z" fill="#011721"/>
<path d="M51.7235 73.9979C51.6665 73.9979 51.6237 73.9694 51.5809 73.9266L32.4297 48.7577C32.3727 48.6721 32.3869 48.5723 32.4582 48.501C32.5295 48.444 32.6436 48.4582 32.7149 48.5295L51.8661 73.6984C51.9231 73.784 51.9089 73.8838 51.8376 73.9551C51.7948 73.9836 51.7663 73.9979 51.7235 73.9979Z" fill="#011721"/>
<path d="M285.832 243.934C285.76 243.934 285.689 243.892 285.661 243.82C285.632 243.763 283.465 237.446 277.404 231.1C271.814 225.239 261.689 218.152 245.191 217.625C245.091 217.625 245.02 217.539 245.02 217.439C245.02 217.339 245.105 217.268 245.205 217.268C261.846 217.796 272.042 224.954 277.675 230.858C283.778 237.261 285.989 243.635 286.003 243.692C286.031 243.792 285.989 243.892 285.889 243.92C285.86 243.934 285.846 243.934 285.832 243.934Z" fill="#011721"/>
</svg>
