<svg width="48" height="48" viewBox="0 0 48 48" fill="none" xmlns="http://www.w3.org/2000/svg">
<rect width="48" height="48" rx="15" fill="#FED102" fill-opacity="0.23"/>
<g clip-path="url(#clip0_1115_19114)">
<path d="M32.7267 24.4084C30.895 19.6484 24.3733 19.3917 25.9483 12.4734C26.065 11.9601 25.5167 11.5634 25.0733 11.8317C20.8383 14.3284 17.7933 19.3334 20.3483 25.8901C20.5583 26.4267 19.9283 26.9284 19.4733 26.5784C17.3617 24.9801 17.14 22.6817 17.3267 21.0367C17.3967 20.4301 16.6033 20.1384 16.265 20.6401C15.4717 21.8534 14.6667 23.8134 14.6667 26.7651C15.11 33.2984 20.6283 35.3051 22.6117 35.5617C25.4467 35.9234 28.515 35.3984 30.72 33.3801C33.1467 31.1284 34.0333 27.5351 32.7267 24.4084ZM21.9 30.2767C23.58 29.8684 24.4433 28.6551 24.6767 27.5817C25.0617 25.9134 23.5567 24.2801 24.5717 21.6434C24.9567 23.8251 28.3867 25.1901 28.3867 27.5701C28.48 30.5217 25.2833 33.0534 21.9 30.2767Z" fill="#002657"/>
</g>
<defs>
<clipPath id="clip0_1115_19114">
<rect width="28" height="28" fill="white" transform="translate(10 10)"/>
</clipPath>
</defs>
</svg>
